<svg xmlns="http://www.w3.org/2000/svg" xmlns:xlink="http://www.w3.org/1999/xlink" width="473.533" height="261.909" viewBox="0 0 473.533 261.909">
  <defs>
    <clipPath id="clip-path">
      <rect id="Rectangle_219" data-name="Rectangle 219" width="473.533" height="59.249" fill="none"/>
    </clipPath>
  </defs>
  <g id="Group_3267" data-name="Group 3267" transform="translate(-875 1552.147)">
    <g id="Group_3265" data-name="Group 3265" transform="translate(875 -1349.487)">
      <g id="Group_3264" data-name="Group 3264" clip-path="url(#clip-path)">
        <path id="Path_2154" data-name="Path 2154" d="M209.387,47.894V68.848c0,1.428-.363,1.8-1.766,1.8-.7,0-1.4.006-2.1,0-1.075-.011-1.515-.466-1.515-1.587q-.006-6.777,0-13.555c0-1.441,0-2.881,0-4.322,0-.455-.009-.464-.467-.464q-8.192,0-16.384,0c-.546,0-.446.053-.446.545q0,8.807,0,17.614a2.981,2.981,0,0,1-.047.781,1.171,1.171,0,0,1-1.155.977c-.982.028-1.966.034-2.948,0a1.215,1.215,0,0,1-1.222-1.272c-.011-.2-.006-.393-.006-.589q0-20.856,0-41.712c0-.2-.005-.393,0-.589a1.272,1.272,0,0,1,1.295-1.357c.937-.043,1.879-.039,2.817,0a1.239,1.239,0,0,1,1.248,1.2,5.111,5.111,0,0,1,.015.654q0,9,0,18.007v.262c0,.734-.026.633.629.633q8.028,0,16.056,0a1.519,1.519,0,0,1,.2,0c.3.039.462-.052.42-.388a3.768,3.768,0,0,1,0-.458V27.144c0-.2,0-.393,0-.589a1.327,1.327,0,0,1,1.473-1.454c.83-.017,1.66-.019,2.49,0a1.306,1.306,0,0,1,1.413,1.381c.01.174,0,.349,0,.524V47.894" transform="translate(-131.789 -18.229)" fill="#0a0a0a"/>
        <path id="Path_2155" data-name="Path 2155" d="M.128,39.4a9.6,9.6,0,0,0-.117-1.81C0,36.877,0,36.159,0,35.441v0c.2-.379-.037-.806.134-1.189A8.014,8.014,0,0,1,1.1,31.029,10.649,10.649,0,0,1,8.431,25.5a13.907,13.907,0,0,1,3.312-.362q7.011-.006,14.024,0c.131,0,.262,0,.393,0a1.34,1.34,0,0,1,1.49,1.5c.007.611,0,1.222,0,1.833-.005,1.12-.469,1.593-1.591,1.594q-6.717.006-13.434,0a11.259,11.259,0,0,0-1.957.14,5.918,5.918,0,0,0-4.681,3.267,6.089,6.089,0,0,0-.532,2.012,10.516,10.516,0,0,0,.1,3.193,4.961,4.961,0,0,0,2.578,3.448,15.241,15.241,0,0,0,3.269,1.309c3.324.974,6.658,1.914,9.98,2.893a16.643,16.643,0,0,1,4.323,1.983A9.168,9.168,0,0,1,29.99,54.83a22.978,22.978,0,0,1,.053,7.042,10.057,10.057,0,0,1-7.825,8.42,14.589,14.589,0,0,1-3.373.395q-7.635,0-15.269,0a4.03,4.03,0,0,1-.524-.016,1.159,1.159,0,0,1-1.1-1.037,13.035,13.035,0,0,1,0-2.808,1.1,1.1,0,0,1,.969-1,3.874,3.874,0,0,1,.848-.052q6.946,0,13.892,0a10.3,10.3,0,0,0,3.293-.442A5.4,5.4,0,0,0,24.8,60.383a16.187,16.187,0,0,0-.1-3.851,5.6,5.6,0,0,0-2.756-3.946,15.635,15.635,0,0,0-3.8-1.552C14.967,50.1,11.781,49.2,8.6,48.284a12.487,12.487,0,0,1-6.246-3.75A9.013,9.013,0,0,1,.128,39.4" transform="translate(-0.001 -18.268)" fill="#0a0a0a"/>
        <path id="Path_2156" data-name="Path 2156" d="M458.77,48q0-10.446,0-20.892a3.723,3.723,0,0,1,.12-1.1,1.126,1.126,0,0,1,1.094-.87c.131-.01.262,0,.393,0h18.288c.153,0,.307-.009.458,0a1.249,1.249,0,0,1,1.266,1.307q.032,1.244,0,2.489a1.217,1.217,0,0,1-1.318,1.305c-.742.02-1.485.006-2.228.006H464.847c-.153,0-.306.006-.459,0-.195-.008-.279.081-.272.273.005.152,0,.305,0,.458q0,7.106,0,14.212c0,.84-.079.712.745.712q5.7.007,11.4,0c.2,0,.394-.008.59.006a1.027,1.027,0,0,1,1.04.979,18.814,18.814,0,0,1,0,2.878,1.061,1.061,0,0,1-.987.977,4.653,4.653,0,0,1-.589.011H464.847c-.153,0-.306.007-.459,0-.189-.01-.284.059-.273.26.008.152,0,.305,0,.458,0,5.807-.014,11.614.012,17.421.005,1.126-.338,1.887-1.785,1.8-.7-.042-1.4,0-2.1-.009-1.053-.011-1.505-.466-1.506-1.529q0-10.577,0-21.154h.031" transform="translate(-333.415 -18.264)" fill="#0a0a0a"/>
        <path id="Path_2157" data-name="Path 2157" d="M622.188,49.893V30.966c0-.847,0-.847-.88-.847H610.821c-.175,0-.35.007-.524,0a1.269,1.269,0,0,1-1.3-1.279c-.033-.85-.032-1.7,0-2.554a1.272,1.272,0,0,1,1.253-1.265c.174-.015.349-.009.524-.009h28.185c.109,0,.219,0,.328,0a1.274,1.274,0,0,1,1.435,1.4c.017.72-.02,1.442.01,2.161a1.385,1.385,0,0,1-1.557,1.559c-3.6-.033-7.21-.013-10.815-.013-.153,0-.307.011-.459,0-.249-.021-.365.07-.345.33.013.174,0,.349,0,.524q0,18.862.013,37.724c0,1.411-.5,1.943-1.852,1.871-.632-.034-1.267,0-1.9-.006-1.194-.006-1.625-.431-1.626-1.607q0-9.529,0-19.058" transform="translate(-442.603 -18.176)" fill="#0a0a0a"/>
        <path id="Path_2158" data-name="Path 2158" d="M367.417,47.877c0,7.006-.021,14.013.017,21.019.008,1.45-.662,1.819-1.74,1.758-.718-.041-1.441,0-2.162-.01a1.3,1.3,0,0,1-1.468-1.444c0-.131,0-.262,0-.393q0-20.888,0-41.776c0-.218-.009-.438.012-.654a1.238,1.238,0,0,1,1.25-1.262c.959-.048,1.923-.046,2.882,0a1.206,1.206,0,0,1,1.206,1.286c.01.2,0,.393,0,.589V47.877" transform="translate(-263.149 -18.228)" fill="#0a0a0a"/>
        <path id="Path_2159" data-name="Path 2159" d="M1216.383,47.609c0-6.963.016-13.927-.014-20.89-.006-1.322.45-1.915,1.811-1.83.718.045,1.442,0,2.162.01a1.182,1.182,0,0,1,1.345,1.195,7.037,7.037,0,0,1,.036.849q0,8.939,0,17.878c0,.9-.079.8.811.8q7.9,0,15.8,0c.814,0,.729.076.729-.742q0-8.874,0-17.747c0-.175.012-.35,0-.524-.093-1.162.45-1.8,1.711-1.722.762.047,1.529,0,2.293.012a1.17,1.17,0,0,1,1.3,1.172,6.122,6.122,0,0,1,.038.784q0,20.727,0,41.453a8.022,8.022,0,0,1-.049.98,1.092,1.092,0,0,1-1.053,1.063c-1.047.042-2.1.043-3.144,0a1.144,1.144,0,0,1-1.082-1.12c-.02-.217-.012-.436-.012-.654q0-8.546,0-17.092v-.393c0-.684.042-.639-.636-.639h-16.058c-.109,0-.219.005-.328,0-.219-.007-.317.1-.313.315,0,.175,0,.349,0,.524q0,8.481,0,16.961a8.451,8.451,0,0,1-.05,1.045,1.091,1.091,0,0,1-1.06,1.057c-1.047.04-2.1.043-3.144-.005a1.143,1.143,0,0,1-1.074-1.128c-.019-.217-.011-.436-.011-.654q0-10.478,0-20.956" transform="translate(-884.066 -18.084)" fill="#1e76f7"/>
        <path id="Path_2160" data-name="Path 2160" d="M1045.531,70.4h-7.864a5.119,5.119,0,0,1-.654-.02,1.162,1.162,0,0,1-1.084-1.049,11.466,11.466,0,0,1,0-2.742,1.139,1.139,0,0,1,1.086-1.042,5.874,5.874,0,0,1,.655-.013q6.914,0,13.828,0a11.459,11.459,0,0,0,3.175-.38,5.465,5.465,0,0,0,4.112-5.017,15.015,15.015,0,0,0-.109-3.913,5.591,5.591,0,0,0-2.614-3.831,11.429,11.429,0,0,0-2.425-1.136c-2.449-.867-4.975-1.482-7.463-2.219-1.359-.4-2.729-.768-4.084-1.185a12.881,12.881,0,0,1-4.7-2.525,9.565,9.565,0,0,1-3.38-6.72,20.062,20.062,0,0,1,.076-4.638A10.048,10.048,0,0,1,1040.164,26a11.761,11.761,0,0,1,5.017-1.087c4.959,0,9.918.009,14.876-.012a1.349,1.349,0,0,1,1.547,1.5c0,.611.013,1.223,0,1.833-.025,1.087-.485,1.538-1.587,1.539q-6.816.007-13.631,0a9.7,9.7,0,0,0-2.715.363,5.613,5.613,0,0,0-4.284,5.187,11.531,11.531,0,0,0,.08,2.872,4.914,4.914,0,0,0,2,3.26,9.717,9.717,0,0,0,2.632,1.3c2.309.8,4.684,1.386,7.024,2.089,1.734.52,3.5.943,5.2,1.56a16.393,16.393,0,0,1,3.447,1.722,9.168,9.168,0,0,1,4.2,6.646,24.267,24.267,0,0,1,.039,6.657,10.016,10.016,0,0,1-7.83,8.569,14.96,14.96,0,0,1-3.569.4c-2.359-.007-4.719,0-7.078,0" transform="translate(-751.458 -18.099)" fill="#1e76f7"/>
        <path id="Path_2161" data-name="Path 2161" d="M1718.254,26.877c.022,1.772.042,3.544-.011,5.316-1.093.039-.862.079-.877-.828-.016-.938-.007-1.877-.01-2.815a1.165,1.165,0,0,0-.064-.205c-.253.718-.482,1.362-.706,2.008-.179.514-.375,1.023-.52,1.546-.091.326-.305.311-.551.312s-.45.01-.552-.31c-.312-.974-.666-1.935-1-2.9l-.183-.525-.128.022v1.4c0,.633-.011,1.266,0,1.9.008.3-.086.455-.409.418a1.636,1.636,0,0,0-.327,0c-.239.02-.3-.109-.3-.317,0-1.571.006-3.142,0-4.713,0-.267.118-.315.355-.328,1.182-.062,1.183-.069,1.588,1.065.286.8.568,1.6.852,2.4a.408.408,0,0,0,.034.059c.229.01.195-.193.24-.316.333-.9.655-1.8.983-2.7.183-.5.185-.5.734-.5.283,0,.567.012.85.019" transform="translate(-1244.743 -19.5)" fill="#0b0a0a"/>
        <path id="Path_2162" data-name="Path 2162" d="M1695.139,26.923c.633,0,1.265-.007,1.9,0,.38.006.382.032.389.49,0,.273-.025.469-.38.443-.325-.025-.655.013-.981-.01s-.4.124-.4.423c.013,1.09.005,2.18.005,3.269,0,.153,0,.305,0,.458,0,.184-.071.288-.269.277-.065,0-.131,0-.2,0-.614.012-.617.012-.618-.582,0-1.112,0-2.223,0-3.335,0-.5-.008-.5-.5-.5-.305,0-.611-.01-.916,0-.226.008-.292-.087-.305-.307-.034-.6-.027-.622.574-.625.567,0,1.134,0,1.7,0" transform="translate(-1230.377 -19.566)" fill="#0c0b0b"/>
        <path id="Path_2163" data-name="Path 2163" d="M825.768,23.271A29.4,29.4,0,0,0,808.5,2.385,28.713,28.713,0,0,0,798.621.006h-1.307L796.24,0l-1.432.013c-1.151.109-2.3.219-3.439.44a29.38,29.38,0,0,0-16.429,9.116,29.06,29.06,0,0,0-7.749,17.639,27.591,27.591,0,0,0,.463,8.138,29.384,29.384,0,0,0,15.227,20.476,29.059,29.059,0,0,0,11.927,3.42l1.306.007h1.328l1.306-.007a33.28,33.28,0,0,0,4.845-.744A29.379,29.379,0,0,0,819.65,48.5a28.98,28.98,0,0,0,6.715-16.456,27.61,27.61,0,0,0-.6-8.777M796.8,55.038A25.413,25.413,0,1,1,822.213,29.6,25.445,25.445,0,0,1,796.8,55.038" transform="translate(-557.52 -0.001)" fill="#1e76f7"/>
        <path id="Path_2164" data-name="Path 2164" d="M1420.845,38.153a21.969,21.969,0,0,0-.562-5.322,11.238,11.238,0,0,0-8.213-8.666,24.252,24.252,0,0,0-12.039-.081,11.935,11.935,0,0,0-7.7,6.148,15.73,15.73,0,0,0-1.663,7.139c-.04,6-.022,12-.007,18.007a16.887,16.887,0,0,0,.653,4.519A12.023,12.023,0,0,0,1400,68.687a17.117,17.117,0,0,0,3.8.668,23.74,23.74,0,0,0,8.305-.751,11.088,11.088,0,0,0,7.845-7.5,17.7,17.7,0,0,0,.874-5.469c.016-3.078,0-6.155,0-9.232h.016c0-2.75,0-5.5,0-8.251m-5.008,8.239q0,4.224,0,8.448a14.476,14.476,0,0,1-.389,3.437,6.969,6.969,0,0,1-5.183,5.446,16.363,16.363,0,0,1-8.737.046,7.4,7.4,0,0,1-5.621-6.234,15.3,15.3,0,0,1-.262-2.929q.01-8.317,0-16.634a13.387,13.387,0,0,1,.474-3.621,7.186,7.186,0,0,1,5.221-5.286,16.456,16.456,0,0,1,8.8-.039,7.077,7.077,0,0,1,5.411,5.927,15.188,15.188,0,0,1,.284,3.057c-.007,2.794,0,5.588,0,8.383" transform="translate(-1010.731 -16.982)" fill="#1e76f7"/>
        <path id="Path_2165" data-name="Path 2165" d="M1603.744,34.477a10.859,10.859,0,0,0-6.685-8.01,18.056,18.056,0,0,0-7.16-1.34c-4.455-.033-8.912-.009-13.368-.01a2.689,2.689,0,0,0-.714.067,1.183,1.183,0,0,0-.963,1.1,8.291,8.291,0,0,0-.025.85q0,10.345,0,20.691,0,10.378,0,20.756c0,.262,0,.525.018.785a1.146,1.146,0,0,0,1.116,1.154c1.024.043,2.053.043,3.078,0a1.119,1.119,0,0,0,1.081-1.112c.025-.26.019-.523.019-.785q0-7.955,0-15.911c0-.649,0-.649.631-.654.131,0,.262,0,.393,0,2.906,0,5.811.009,8.715,0a18.562,18.562,0,0,0,6.43-1.038,10.969,10.969,0,0,0,7.232-7.532,18.488,18.488,0,0,0,.2-9.006m-5.146,6.849a6.245,6.245,0,0,1-3.179,4.49,11.569,11.569,0,0,1-4.664,1.406c-.935.089-1.874.1-2.814.1-2.4-.008-4.806,0-7.209,0-.579,0-.588-.008-.589-.576q0-8.153,0-16.306c0-.527.01-.535.555-.536,1.661,0,3.321,0,4.981,0v.031c1.595,0,3.191-.041,4.783.012a10.923,10.923,0,0,1,4.36,1.061,6.545,6.545,0,0,1,3.872,5.31,15.4,15.4,0,0,1-.1,5.018" transform="translate(-1144.596 -18.249)" fill="#1e76f7"/>
        <path id="Path_2166" data-name="Path 2166" d="M847.96,78.5q0-7.952,0-15.9v-15.9c0-.153.006-.306,0-.458-.022-.469-.165-.63-.628-.644-.567-.017-1.139.035-1.7-.015a1.422,1.422,0,0,0-1.366.667c-2.409,3.128-4.848,6.233-7.276,9.346l-8.493,10.887a1.221,1.221,0,0,0-.373.8c.019.719,0,1.44.009,2.16.01.523.136.634.672.654.152.006.305,0,.458,0h13.625c.828,0,.889.063.89.9q0,3.011,0,6.021c0,.633-.008,1.265,0,1.9.009.475.166.676.6.685q1.506.032,3.013,0c.387-.008.54-.194.568-.575.013-.173,0-.349,0-.523m-4.186-24q0,2.714,0,5.428,0,2.78,0,5.559c0,.71-.086.8-.788.8q-4.32,0-8.639,0a2.143,2.143,0,0,1-.262,0,.467.467,0,0,1-.4-.742,3.084,3.084,0,0,1,.274-.366q4.338-5.531,8.677-11.061a3.1,3.1,0,0,1,.334-.4.454.454,0,0,1,.787.265,2.87,2.87,0,0,1,.012.522" transform="translate(-601.884 -33.115)" fill="#0a0a0a"/>
      </g>
    </g>
    <g id="Group_3266" data-name="Group 3266" transform="translate(1020.935 -1552.147)">
      <path id="Path_2167" data-name="Path 2167" d="M946.65,71.2C939.484,41.278,921.775,20.01,893.8,7.294A87.854,87.854,0,0,0,863.587.015l-4,0L856.3,0l-4.38.039C848.4.373,844.875.712,841.4,1.386a89.894,89.894,0,0,0-50.268,27.891,88.915,88.915,0,0,0-23.71,53.97,84.429,84.429,0,0,0,1.417,24.9c5.959,27.991,21.556,48.86,46.59,62.651a88.915,88.915,0,0,0,36.492,10.465l4,.021h4.063l4-.021a101.819,101.819,0,0,0,14.825-2.277,89.89,89.89,0,0,0,49.129-30.579,88.67,88.67,0,0,0,20.546-50.35A84.476,84.476,0,0,0,946.65,71.2m-88.636,97.2A77.757,77.757,0,1,1,935.772,90.58c.1,42.779-34.844,77.779-77.758,77.819" transform="translate(-767.081 -0.001)" fill="#1e76f7"/>
      <path id="Path_2168" data-name="Path 2168" d="M888.825,146.33q0-24.331,0-48.663V49c0-.467.018-.935,0-1.4-.067-1.435-.5-1.928-1.921-1.97-1.735-.051-3.484.106-5.208-.047a4.35,4.35,0,0,0-4.18,2.04c-7.372,9.569-14.833,19.071-22.264,28.6q-12.994,16.656-25.986,33.312a3.737,3.737,0,0,0-1.143,2.459c.059,2.2-.012,4.405.028,6.608.029,1.6.417,1.941,2.056,2,.466.018.934,0,1.4,0q20.844,0,41.689,0c2.534,0,2.72.192,2.722,2.757q0,9.212,0,18.424c0,1.936-.026,3.872.009,5.807.027,1.454.507,2.07,1.832,2.1q4.608.1,9.219,0c1.185-.023,1.651-.593,1.737-1.759.039-.531.009-1.067.009-1.6M876.018,72.911q0,8.3,0,16.608,0,8.5,0,17.008c0,2.173-.264,2.442-2.41,2.444q-13.217.014-26.434,0a6.552,6.552,0,0,1-.8-.011,1.429,1.429,0,0,1-1.21-2.27,9.417,9.417,0,0,1,.838-1.119q13.273-16.923,26.549-33.843a9.5,9.5,0,0,1,1.022-1.228,1.389,1.389,0,0,1,2.409.81,8.766,8.766,0,0,1,.037,1.6" transform="translate(-777.097 -7.478)" fill="#0a0a0a"/>
    </g>
  </g>
</svg>
