<svg xmlns="http://www.w3.org/2000/svg" viewBox="0 0 113.4 113.4" xmlns:v="https://vecta.io/nano"><linearGradient id="A" gradientUnits="userSpaceOnUse" x1="-18.243" y1="131.643" x2="79.049" y2="34.352"><stop offset="0" stop-color="#612974"/><stop offset=".008" stop-color="#612974"/><stop offset=".016" stop-color="#622874"/><stop offset=".031" stop-color="#622874"/><stop offset=".039" stop-color="#632874"/><stop offset=".047" stop-color="#632975"/><stop offset=".055" stop-color="#632975"/><stop offset=".063" stop-color="#642975"/><stop offset=".07" stop-color="#652975"/><stop offset=".078" stop-color="#662975"/><stop offset=".086" stop-color="#672975"/><stop offset=".094" stop-color="#672975"/><stop offset=".102" stop-color="#682976"/><stop offset=".109" stop-color="#682976"/><stop offset=".113" stop-color="#692976"/><stop offset=".117" stop-color="#692977"/><stop offset=".121" stop-color="#6a2977"/><stop offset=".125" stop-color="#6a2977"/><stop offset=".129" stop-color="#6b2977"/><stop offset=".141" stop-color="#6b2977"/><stop offset=".145" stop-color="#6c2a77"/><stop offset=".148" stop-color="#6c2a77"/><stop offset=".152" stop-color="#6d2a77"/><stop offset=".16" stop-color="#6d2a77"/><stop offset=".164" stop-color="#6e2a78"/><stop offset=".168" stop-color="#6e2a78"/><stop offset=".172" stop-color="#6f2a78"/><stop offset=".176" stop-color="#6f2a78"/><stop offset=".18" stop-color="#702a78"/><stop offset=".191" stop-color="#702a78"/><stop offset=".195" stop-color="#712a78"/><stop offset=".203" stop-color="#712a78"/><stop offset=".207" stop-color="#722a79"/><stop offset=".211" stop-color="#722a79"/><stop offset=".215" stop-color="#732a79"/><stop offset=".219" stop-color="#742a79"/><stop offset=".231" stop-color="#742a79"/><stop offset=".234" stop-color="#752b7a"/><stop offset=".238" stop-color="#762b7a"/><stop offset=".246" stop-color="#762b7a"/><stop offset=".25" stop-color="#772b7a"/><stop offset=".254" stop-color="#772b7a"/><stop offset=".258" stop-color="#782b7a"/><stop offset=".262" stop-color="#782b7a"/><stop offset=".266" stop-color="#792b7b"/><stop offset=".27" stop-color="#792a7b"/><stop offset=".273" stop-color="#792b7b"/><stop offset=".277" stop-color="#7a2b7b"/><stop offset=".285" stop-color="#7a2b7b"/><stop offset=".289" stop-color="#7b2b7c"/><stop offset=".293" stop-color="#7b2b7c"/><stop offset=".297" stop-color="#7c2b7c"/><stop offset=".301" stop-color="#7d2b7c"/><stop offset=".309" stop-color="#7d2b7c"/><stop offset=".313" stop-color="#7e2c7c"/><stop offset=".316" stop-color="#7e2c7c"/><stop offset=".32" stop-color="#7f2c7c"/><stop offset=".324" stop-color="#7f2c7d"/><stop offset=".328" stop-color="#802c7d"/><stop offset=".332" stop-color="#802c7d"/><stop offset=".336" stop-color="#812c7d"/><stop offset=".344" stop-color="#812c7d"/><stop offset=".348" stop-color="#822d7e"/><stop offset=".352" stop-color="#822d7e"/><stop offset=".356" stop-color="#832c7e"/><stop offset=".359" stop-color="#832c7e"/><stop offset=".363" stop-color="#842d7e"/><stop offset=".367" stop-color="#842c7e"/><stop offset=".371" stop-color="#852c7e"/><stop offset=".375" stop-color="#852c7e"/><stop offset=".379" stop-color="#862c7e"/><stop offset=".383" stop-color="#862c7f"/><stop offset=".387" stop-color="#872d7f"/><stop offset=".395" stop-color="#872d7f"/><stop offset=".398" stop-color="#882d80"/><stop offset=".402" stop-color="#882d80"/><stop offset=".406" stop-color="#892d80"/><stop offset=".41" stop-color="#8a2d80"/><stop offset=".418" stop-color="#8a2d80"/><stop offset=".422" stop-color="#8b2e81"/><stop offset=".426" stop-color="#8c2e80"/><stop offset=".43" stop-color="#8c2e80"/><stop offset=".434" stop-color="#8d2e81"/><stop offset=".438" stop-color="#8d2e81"/><stop offset=".441" stop-color="#8e2e81"/><stop offset=".445" stop-color="#8e2e81"/><stop offset=".449" stop-color="#8e2e82"/><stop offset=".453" stop-color="#8f2f82"/><stop offset=".457" stop-color="#8f2f82"/><stop offset=".461" stop-color="#902f82"/><stop offset=".465" stop-color="#902f82"/><stop offset=".469" stop-color="#912f83"/><stop offset=".473" stop-color="#912f83"/><stop offset=".477" stop-color="#922f83"/><stop offset=".481" stop-color="#932f83"/><stop offset=".484" stop-color="#932f83"/><stop offset=".488" stop-color="#933084"/><stop offset=".492" stop-color="#943084"/><stop offset=".496" stop-color="#952f84"/><stop offset=".5" stop-color="#952f84"/><stop offset=".504" stop-color="#963084"/><stop offset=".508" stop-color="#962f84"/><stop offset=".512" stop-color="#972f85"/><stop offset=".52" stop-color="#972f85"/><stop offset=".523" stop-color="#983085"/><stop offset=".527" stop-color="#993085"/><stop offset=".531" stop-color="#993085"/><stop offset=".535" stop-color="#9a3086"/><stop offset=".539" stop-color="#9a3086"/><stop offset=".543" stop-color="#9b3086"/><stop offset=".547" stop-color="#9c3086"/><stop offset=".551" stop-color="#9c3086"/><stop offset=".555" stop-color="#9c3187"/><stop offset=".559" stop-color="#9d3187"/><stop offset=".563" stop-color="#9e3187"/><stop offset=".566" stop-color="#9f3188"/><stop offset=".574" stop-color="#9f3188"/><stop offset=".578" stop-color="#a03188"/><stop offset=".582" stop-color="#a13188"/><stop offset=".586" stop-color="#a13289"/><stop offset=".59" stop-color="#a13289"/><stop offset=".594" stop-color="#a23289"/><stop offset=".598" stop-color="#a33289"/><stop offset=".602" stop-color="#a43289"/><stop offset=".606" stop-color="#a43289"/><stop offset=".609" stop-color="#a5328a"/><stop offset=".613" stop-color="#a5328a"/><stop offset=".617" stop-color="#a6338a"/><stop offset=".621" stop-color="#a6338a"/><stop offset=".625" stop-color="#a7338a"/><stop offset=".629" stop-color="#a7338a"/><stop offset=".633" stop-color="#a9338b"/><stop offset=".641" stop-color="#a9338b"/><stop offset=".645" stop-color="#aa338b"/><stop offset=".648" stop-color="#ab348c"/><stop offset=".652" stop-color="#ab348c"/><stop offset=".656" stop-color="#ac348c"/><stop offset=".66" stop-color="#ad348d"/><stop offset=".664" stop-color="#ad348d"/><stop offset=".668" stop-color="#ae348d"/><stop offset=".672" stop-color="#af348d"/><stop offset=".676" stop-color="#af348d"/><stop offset=".68" stop-color="#b0358d"/><stop offset=".684" stop-color="#b0358e"/><stop offset=".688" stop-color="#b1358e"/><stop offset=".691" stop-color="#b2358e"/><stop offset=".695" stop-color="#b3358f"/><stop offset=".703" stop-color="#b3358f"/><stop offset=".707" stop-color="#b4358f"/><stop offset=".711" stop-color="#b53690"/><stop offset=".715" stop-color="#b53690"/><stop offset=".719" stop-color="#b63690"/><stop offset=".723" stop-color="#b83691"/><stop offset=".731" stop-color="#b83691"/><stop offset=".734" stop-color="#b93691"/><stop offset=".738" stop-color="#ba3692"/><stop offset=".742" stop-color="#ba3792"/><stop offset=".746" stop-color="#bb3792"/><stop offset=".75" stop-color="#bb3793"/><stop offset=".754" stop-color="#bd3894"/><stop offset=".758" stop-color="#be3894"/><stop offset=".762" stop-color="#be3794"/><stop offset=".766" stop-color="#bf3794"/><stop offset=".77" stop-color="#bf3995"/><stop offset=".773" stop-color="#bf3a95"/><stop offset=".777" stop-color="#c03b95"/><stop offset=".781" stop-color="#c03c96"/><stop offset=".785" stop-color="#c03d96"/><stop offset=".789" stop-color="#c03e96"/><stop offset=".793" stop-color="#c03f97"/><stop offset=".797" stop-color="#c04097"/><stop offset=".801" stop-color="#c14198"/><stop offset=".805" stop-color="#c14298"/><stop offset=".809" stop-color="#c14398"/><stop offset=".813" stop-color="#c24499"/><stop offset=".816" stop-color="#c24599"/><stop offset=".82" stop-color="#c24599"/><stop offset=".824" stop-color="#c24699"/><stop offset=".828" stop-color="#c2479a"/><stop offset=".832" stop-color="#c3489a"/><stop offset=".836" stop-color="#c3489a"/><stop offset=".84" stop-color="#c3499b"/><stop offset=".844" stop-color="#c34a9b"/><stop offset=".848" stop-color="#c34b9b"/><stop offset=".852" stop-color="#c34b9b"/><stop offset=".856" stop-color="#c34c9c"/><stop offset=".859" stop-color="#c34c9c"/><stop offset=".863" stop-color="#c44d9c"/><stop offset=".867" stop-color="#c44e9d"/><stop offset=".871" stop-color="#c44e9d"/><stop offset=".875" stop-color="#c44f9d"/><stop offset=".879" stop-color="#c44f9d"/><stop offset=".883" stop-color="#c5509d"/><stop offset=".891" stop-color="#c5509d"/><stop offset=".898" stop-color="#c5519e"/><stop offset=".906" stop-color="#c5529e"/><stop offset=".914" stop-color="#c6539f"/><stop offset=".922" stop-color="#c6549f"/><stop offset=".93" stop-color="#c6549f"/><stop offset=".938" stop-color="#c6559f"/><stop offset=".953" stop-color="#c656a0"/><stop offset=".969" stop-color="#c656a0"/><stop offset="1" stop-color="#c657a0"/></linearGradient><path d="M0 0h113.4v113.4H0z" fill="url(#A)"/><path d="M62.2 97.2c-.1 0-.2-.1-.2-.1-.7-.5-1.2-1.7-1.2-3.1V71.5a.94.94 0 0 0-1-1h-6.4v1.3l.2.1c.1 0 .2.1.3.1.7.5 1.2 1.7 1.2 3.1v22.5a.94.94 0 0 0 1 1h6.4v-1.3l-.3-.1zM34.6 87.1l3.5-8.7 3.5 8.7h-7zm-2 4.9h10.9l2.6 6.6H52L41.5 72c-.3-.9-1.2-1.5-2.1-1.5h-4L24.3 98.6h5.8l2.5-6.6zm37.1-69.1c0 1.1.9 1.9 1.9 1.9 1.1 0 1.9-.9 1.9-1.9 0-1.1-.9-1.9-1.9-1.9-1-.1-1.9.8-1.9 1.9m17.1 28.2c0 8.5-9.8 11.6-17.7 11.6H46.8c-8 0-17.7-3.1-17.7-11.6 0-10.9 11.1-10 8.5-17.1 8.2 2.5 1.4 8.5.5 11.7-1.2 3.7 1.8 8.5 8.8 8.5h9v-6.3H45.1l3.3-3.3h7.3v-3.7c-10.3-2.1-7.9-13.6-22-14.7-4.6-.4-3-9.5-2.5-10.9.1-.4.5-.5.9-.2 17.4 15 27.3 10.4 31.7 7.6C66 21.2 69 18 71.2 18c1.8 0 3.4 1.1 4.1 1.6l7.1 5.2s-4.6 0-7.2 1.8c-5.7 4.1-6.7 12.4-15.1 14.1v3.7h7.3l3.3 3.3H60.1V54h9c7 0 10-4.8 8.8-8.5-1-3.2-7.7-9.1.5-11.7-2.7 7.3 8.4 6.4 8.4 17.3m-6.5 42.7h-8.2V87h8.3c1.9 0 3.3 1.5 3.3 3.4a3.44 3.44 0 0 1-3.4 3.4m-8.2-18.4h6.5a3.37 3.37 0 0 1 3.4 3.4 3.4 3.4 0 0 1-3.2 3.4h-6.6v-6.8h-.1zm12 8.7c2-1.4 3.3-3.5 3.3-6 0-3.9-3.4-7.6-9-7.6H66.8v28.1h13.3c5.6 0 9-3.7 9-7.6 0-3.1-2.1-5.7-5-6.9" fill="#fff"/></svg>