<?xml version="1.0" encoding="utf-8"?>
<!-- Generator: Adobe Illustrator 24.2.1, SVG Export Plug-In . SVG Version: 6.00 Build 0)  -->
<svg version="1.1" id="Layer_1" xmlns="http://www.w3.org/2000/svg" xmlns:xlink="http://www.w3.org/1999/xlink" x="0px" y="0px"
	width="100px" height="100px" viewBox="0 0 100 100" style="enable-background:new 0 0 100 100;" xml:space="preserve">
<g>
	<g>
		<path style="fill:#E8E8E8;" d="M50,0c27.6,0,50,22.4,50,50s-22.4,50-50,50S0,77.6,0,50S22.4,0,50,0"/>
		<path style="fill:#FFFFFF;" d="M50,1c27,0,49,22,49,49S77.1,99,50,99S1,77,1,50S23,1,50,1"/>
		<path style="fill:#E8E8E8;" d="M50,0c27.6,0,50,22.4,50,50s-22.4,50-50,50S0,77.6,0,50S22.4,0,50,0"/>
		<path style="fill:#FFFFFF;" d="M50,1c27,0,49,22,49,49S77.1,99,50,99S1,77,1,50S23,1,50,1"/>
	</g>
	<g>
		<path id="path8" style="fill-rule:evenodd;clip-rule:evenodd;fill:#FF9900;" d="M59.9,57c-4.8,3.5-11.7,5.4-17.7,5.4
			c-8.4,0-15.9-3.1-21.6-8.2c-0.4-0.4,0-1,0.5-0.6c6.1,3.6,13.7,5.7,21.6,5.7c5.3,0,11.1-1.1,16.5-3.4C60,55.5,60.7,56.4,59.9,57"/>
		<path id="path10" style="fill-rule:evenodd;clip-rule:evenodd;fill:#FF9900;" d="M61.9,54.7c-0.6-0.8-4-0.4-5.6-0.2
			c-0.5,0.1-0.5-0.4-0.1-0.6c2.7-1.9,7.2-1.4,7.7-0.7c0.5,0.6-0.1,5.1-2.7,7.3c-0.4,0.3-0.8,0.2-0.6-0.3
			C61.2,58.7,62.5,55.5,61.9,54.7"/>
		<path id="path12" style="fill-rule:evenodd;clip-rule:evenodd;" d="M56.4,40.3v-1.9c0-0.3,0.2-0.5,0.5-0.5h8.4
			c0.3,0,0.5,0.2,0.5,0.5V40c0,0.3-0.2,0.6-0.6,1.2l-4.3,6.2c1.6,0,3.3,0.2,4.8,1c0.3,0.2,0.4,0.5,0.4,0.7v2c0,0.3-0.3,0.6-0.6,0.4
			c-2.6-1.3-6-1.5-8.8,0c-0.3,0.2-0.6-0.2-0.6-0.4v-1.9c0-0.3,0-0.8,0.3-1.3l5-7.2h-4.4C56.6,40.8,56.4,40.6,56.4,40.3"/>
		<path id="path14" style="fill-rule:evenodd;clip-rule:evenodd;" d="M25.9,52h-2.5c-0.2,0-0.4-0.2-0.5-0.4V38.5
			c0-0.3,0.2-0.5,0.5-0.5h2.4c0.2,0,0.4,0.2,0.5,0.4v1.7h0c0.6-1.7,1.8-2.4,3.4-2.4c1.6,0,2.6,0.8,3.3,2.4c0.6-1.7,2-2.4,3.5-2.4
			c1.1,0,2.2,0.4,2.9,1.4c0.8,1.1,0.6,2.7,0.6,4.1l0,8.2c0,0.3-0.2,0.5-0.5,0.5H37c-0.3,0-0.5-0.2-0.5-0.5v-6.9
			c0-0.6,0.1-1.9-0.1-2.4C36.3,41.3,35.7,41,35,41c-0.6,0-1.3,0.4-1.5,1.1c-0.3,0.7-0.2,1.8-0.2,2.5v6.9c0,0.3-0.2,0.5-0.5,0.5h-2.5
			c-0.3,0-0.5-0.2-0.5-0.5l0-6.9c0-1.5,0.2-3.6-1.6-3.6c-1.8,0-1.8,2.1-1.8,3.6v6.9C26.4,51.8,26.2,52,25.9,52"/>
		<path id="path16" style="fill-rule:evenodd;clip-rule:evenodd;" d="M72.9,37.7c3.8,0,5.8,3.2,5.8,7.4c0,4-2.3,7.1-5.8,7.1
			c-3.7,0-5.7-3.2-5.7-7.3C67.2,40.9,69.3,37.7,72.9,37.7 M73,40.4c-1.9,0-2,2.6-2,4.1c0,1.6,0,5,2,5c2,0,2.1-2.7,2.1-4.4
			c0-1.1,0-2.4-0.4-3.5C74.3,40.8,73.8,40.4,73,40.4"/>
		<path id="path18" style="fill-rule:evenodd;clip-rule:evenodd;" d="M83.7,52h-2.5c-0.3,0-0.5-0.2-0.5-0.5l0-13.1
			c0-0.2,0.2-0.4,0.5-0.4h2.4c0.2,0,0.4,0.2,0.5,0.4v2h0c0.7-1.8,1.7-2.6,3.5-2.6c1.1,0,2.3,0.4,3,1.5c0.7,1,0.7,2.8,0.7,4.1v8.2
			c0,0.2-0.2,0.4-0.5,0.4h-2.6c-0.2,0-0.4-0.2-0.5-0.4v-7.1c0-1.4,0.2-3.5-1.6-3.5c-0.6,0-1.2,0.4-1.5,1c-0.4,0.8-0.4,1.6-0.4,2.5v7
			C84.1,51.8,83.9,52,83.7,52"/>
		<path id="path28" style="fill-rule:evenodd;clip-rule:evenodd;" d="M49.7,45.7c0,1,0,1.8-0.5,2.7c-0.4,0.7-1,1.2-1.8,1.2
			c-1,0-1.5-0.7-1.5-1.8c0-2.2,1.9-2.6,3.8-2.6L49.7,45.7 M52.3,51.9c-0.2,0.2-0.4,0.2-0.6,0.1c-0.8-0.7-1-1-1.5-1.7
			c-1.4,1.4-2.4,1.9-4.2,1.9c-2.1,0-3.8-1.3-3.8-4c0-2.1,1.1-3.5,2.7-4.2c1.4-0.6,3.3-0.7,4.8-0.9v-0.3c0-0.6,0-1.3-0.3-1.8
			c-0.3-0.5-0.9-0.7-1.4-0.7c-1,0-1.8,0.5-2,1.5c0,0.2-0.2,0.5-0.4,0.5L43.1,42c-0.2,0-0.4-0.2-0.4-0.5c0.6-3,3.3-3.9,5.7-3.9
			c1.2,0,2.9,0.3,3.8,1.3c1.2,1.2,1.1,2.7,1.1,4.4v4c0,1.2,0.5,1.7,1,2.4c0.2,0.2,0.2,0.5,0,0.7C53.7,50.7,52.8,51.5,52.3,51.9
			L52.3,51.9"/>
		<path id="path30" style="fill-rule:evenodd;clip-rule:evenodd;" d="M16.4,45.7c0,1,0,1.8-0.5,2.7c-0.4,0.7-1,1.2-1.8,1.2
			c-1,0-1.5-0.7-1.5-1.8c0-2.2,1.9-2.6,3.8-2.6V45.7 M19,51.9c-0.2,0.2-0.4,0.2-0.6,0.1c-0.8-0.7-1-1-1.5-1.7
			c-1.4,1.4-2.4,1.9-4.2,1.9c-2.1,0-3.8-1.3-3.8-4c0-2.1,1.1-3.5,2.7-4.2c1.4-0.6,3.3-0.7,4.8-0.9v-0.3c0-0.6,0-1.3-0.3-1.8
			c-0.3-0.5-0.9-0.7-1.4-0.7c-1,0-1.8,0.5-2,1.5c0,0.2-0.2,0.5-0.4,0.5L9.7,42c-0.2,0-0.4-0.2-0.4-0.5c0.6-3,3.3-3.9,5.7-3.9
			c1.2,0,2.9,0.3,3.8,1.3c1.2,1.2,1.1,2.7,1.1,4.4v4c0,1.2,0.5,1.7,1,2.4c0.2,0.2,0.2,0.5,0,0.7C20.4,50.7,19.5,51.5,19,51.9
			L19,51.9"/>
	</g>
</g>
</svg>
