<?xml version="1.0" encoding="utf-8"?>
<!-- Generator: Adobe Illustrator 24.2.1, SVG Export Plug-In . SVG Version: 6.00 Build 0)  -->
<svg version="1.1" id="Layer_1" xmlns="http://www.w3.org/2000/svg" xmlns:xlink="http://www.w3.org/1999/xlink" x="0px" y="0px"
	width="100px" height="100px" viewBox="0 0 100 100" style="enable-background:new 0 0 100 100;" xml:space="preserve">
<g>
	<g>
		<path style="fill:#E8E8E8;" d="M50,0c27.6,0,50,22.4,50,50s-22.4,50-50,50S0,77.6,0,50S22.4,0,50,0"/>
		<path style="fill:#FFFFFF;" d="M50,1c27,0,49,22,49,49S77.1,99,50,99S1,77,1,50S23,1,50,1"/>
		<path style="fill:#E8E8E8;" d="M50,0c27.6,0,50,22.4,50,50s-22.4,50-50,50S0,77.6,0,50S22.4,0,50,0"/>
		<path style="fill:#FFFFFF;" d="M50,1c27,0,49,22,49,49S77.1,99,50,99S1,77,1,50S23,1,50,1"/>
	</g>
	<g>
		<g>
			<path style="fill:#34313F;" d="M32.7,49.7c1.2,0,2,0.5,2.4,1.2v-9.3c0-0.2-0.2-0.3-0.4-0.2l-11.5,8.4h0.3c1.2,0,1.8,0.8,1.8,1.6
				c0,0.7-0.3,1.1-0.8,1.3c-0.1,0-0.1,0.1,0,0.2c0.5,0.2,0.9,0.8,0.9,1.5c0,1-0.6,1.7-1.8,1.7h-3.3c-0.1,0-0.1,0-0.1-0.1v-4
				l-8.6,6.3c-0.1,0.1-0.1,0.4,0.1,0.4h23.2c0.1,0,0.2-0.1,0.2-0.2v-3.2c-0.6,0.6-1.4,0.9-2.4,0.9c-1.9,0-3.4-1.3-3.4-3.2
				C29.4,51,30.9,49.7,32.7,49.7z M28.1,56c0,0.1,0,0.1-0.1,0.1h-1.1c-0.1,0-0.1,0-0.1-0.1v-6.1c0-0.1,0-0.1,0.1-0.1H28
				c0.1,0,0.1,0,0.1,0.1V56z"/>
		</g>
		<path style="fill:#34313F;" d="M21.7,52.3h1.6c0.4,0,0.7-0.3,0.7-0.7c0-0.4-0.3-0.7-0.7-0.7h-1.6c0,0-0.1,0-0.1,0.1v1.1
			C21.6,52.3,21.7,52.3,21.7,52.3z"/>
		<path style="fill:#34313F;" d="M21.7,54.9h1.6c0.5,0,0.8-0.3,0.8-0.7c0-0.4-0.3-0.7-0.8-0.7h-1.6c-0.1,0-0.1,0-0.1,0.1v1.2
			C21.6,54.9,21.7,54.9,21.7,54.9z"/>
		<path style="fill:#34313F;" d="M34.1,51.6c-0.3-0.4-0.8-0.7-1.4-0.7c-1.2,0-2,0.9-2,2.1s0.8,2.1,2,2.1c0.5,0,1-0.2,1.3-0.4
			c0,0,0,0,0-0.1v-0.6c0,0,0-0.1-0.1-0.1h-1.4c-0.1,0-0.1-0.1-0.1-0.1v-0.9c0-0.1,0.1-0.1,0.1-0.1h2.6v-1.4l-0.8,0.5
			C34.3,51.7,34.2,51.7,34.1,51.6z"/>
		<path style="fill:#34313F;" d="M36.1,53c0-1.9,1.4-3.2,3.2-3.2c1.2,0,1.9,0.6,2.4,1.3c0,0,0,0.1,0,0.1l-0.7,0.4c0,0-0.1,0-0.1,0
			c-0.3-0.5-0.9-0.8-1.5-0.8c-1.2,0-2.1,0.9-2.1,2.3c0,1.3,0.9,2.3,2.1,2.3c0.6,0,1.2-0.4,1.5-0.8c0,0,0.1-0.1,0.1,0l0.7,0.4
			c0.1,0,0.1,0.1,0,0.2c-0.5,0.7-1.2,1.3-2.4,1.3C37.5,56.2,36.1,54.9,36.1,53z"/>
		<path style="fill:#34313F;" d="M42.3,53c0-1.6,0.9-2.8,2.2-3.1c2.3-0.6,4.4,1.5,3.9,3.9c-0.3,1.5-1.5,2.5-3,2.5
			C43.6,56.2,42.3,54.8,42.3,53z M47.4,53c0-1.3-0.8-2.3-2-2.3c-1.2,0-2,1-2,2.3s0.8,2.3,2,2.3C46.6,55.2,47.4,54.3,47.4,53z"/>
		<path style="fill:#34313F;" d="M55,56v-4.8l-1.9,4.8c0,0,0,0,0,0h-0.4c0,0,0,0,0,0l-1.9-4.8V56c0,0,0,0.1-0.1,0.1h-1
			c0,0-0.1,0-0.1-0.1v-6.1c0,0,0-0.1,0.1-0.1h1.4c0.1,0,0.1,0,0.1,0.1l1.7,4.3l1.7-4.3c0-0.1,0.1-0.1,0.1-0.1h1.4c0,0,0.1,0,0.1,0.1
			V56c0,0,0,0.1-0.1,0.1L55,56C55.1,56.1,55,56.1,55,56z"/>
		<path style="fill:#34313F;" d="M65.9,56v-6.1c0-0.1,0-0.1,0.1-0.1h4.1c0.1,0,0.1,0,0.1,0.1v0.7c0,0.1,0,0.1-0.1,0.1h-3
			c-0.1,0-0.1,0-0.1,0.1v1.4c0,0.1,0,0.1,0.1,0.1h2.9c0.1,0,0.1,0,0.1,0.1v0.7c0,0.1,0,0.1-0.1,0.1h-2.9c-0.1,0-0.1,0-0.1,0.1V55
			c0,0.1,0,0.1,0.1,0.1h3c0.1,0,0.1,0,0.1,0.1V56c0,0.1,0,0.1-0.1,0.1H66C66,56.1,65.9,56.1,65.9,56z"/>
		<path style="fill:#34313F;" d="M75.4,56L74,53.8c0,0-0.1,0-0.1,0H73c-0.1,0-0.1,0-0.1,0.1V56c0,0.1,0,0.1-0.1,0.1h-0.9
			c-0.1,0-0.1,0-0.1-0.1v-6.1c0-0.1,0-0.1,0.1-0.1h2.7c1.2,0,2.1,0.8,2.1,2c0,1-0.6,1.6-1.3,1.8c-0.1,0-0.1,0.1-0.1,0.2
			c0.3,0.4,1.1,1.7,1.4,2.2c0,0.1,0,0.2-0.1,0.2h-1C75.4,56.1,75.4,56.1,75.4,56z M75.5,51.8c0-0.6-0.4-1-1.1-1H73
			c-0.1,0-0.1,0-0.1,0.1v1.8c0,0.1,0,0.1,0.1,0.1h1.4C75.1,52.8,75.5,52.4,75.5,51.8z"/>
		<path style="fill:#34313F;" d="M84.1,56v-6.1c0-0.1,0-0.1,0.1-0.1h4.1c0.1,0,0.1,0,0.1,0.1v0.8c0,0.1,0,0.1-0.1,0.1h-3
			c-0.1,0-0.1,0-0.1,0.1v1.4c0,0.1,0,0.1,0.1,0.1h2.9c0.1,0,0.1,0,0.1,0.1v0.8c0,0.1,0,0.1-0.1,0.1h-2.9c-0.1,0-0.1,0-0.1,0.1v1.5
			c0,0.1,0,0.1,0.1,0.1h3c0.1,0,0.1,0,0.1,0.1V56c0,0.1,0,0.1-0.1,0.1h-4.1C84.1,56.1,84.1,56.1,84.1,56z"/>
		<path style="fill:#34313F;" d="M77.4,52.9c0-1.9,1.4-3.2,3.2-3.2c1.2,0,1.9,0.6,2.4,1.3c0,0,0,0.1,0,0.1l-0.7,0.4c0,0-0.1,0-0.1,0
			c-0.3-0.5-0.9-0.8-1.5-0.8c-1.2,0-2.1,0.9-2.1,2.3c0,1.3,0.9,2.3,2.1,2.3c0.6,0,1.2-0.4,1.5-0.8c0,0,0.1-0.1,0.1,0l0.7,0.4
			c0.1,0,0.1,0.1,0,0.2c-0.5,0.7-1.2,1.3-2.4,1.3C78.8,56.2,77.4,54.9,77.4,52.9z"/>
		<path style="fill:#34313F;" d="M63.2,56v-4.8l-1.9,4.8c0,0,0,0,0,0h-0.4c0,0,0,0,0,0l-1.9-4.8V56c0,0,0,0.1-0.1,0.1h-1
			c0,0-0.1,0-0.1-0.1v-6.1c0,0,0-0.1,0.1-0.1h1.4c0.1,0,0.1,0,0.1,0.1l1.7,4.3l1.7-4.3c0-0.1,0.1-0.1,0.1-0.1h1.4c0,0,0.1,0,0.1,0.1
			V56c0,0,0,0.1-0.1,0.1L63.2,56C63.2,56.1,63.2,56.1,63.2,56z"/>
	</g>
</g>
</svg>
