<?xml version="1.0" encoding="utf-8"?>
<!-- Generator: Adobe Illustrator 24.2.1, SVG Export Plug-In . SVG Version: 6.00 Build 0)  -->
<svg version="1.1" id="Layer_1" xmlns="http://www.w3.org/2000/svg" xmlns:xlink="http://www.w3.org/1999/xlink" x="0px" y="0px"
	 viewBox="0 0 340.85 70" style="enable-background:new 0 0 340.85 70;" xml:space="preserve">
<g>
	<path style="fill:#268CC0;" d="M53.98,25.87H29.56c-3.39,0-6.16,2.77-6.16,6.16v31.82c0,3.39,2.77,6.16,6.16,6.16h24.42
		c3.39,0,6.16-2.77,6.16-6.16V32.02C60.14,28.64,57.37,25.87,53.98,25.87z M56.66,63.13c0,1.69-1.39,3.08-3.08,3.08H29.97
		c-1.69,0-3.08-1.39-3.08-3.08V32.74c0-1.69,1.39-3.08,3.08-3.08h23.61c1.69,0,3.08,1.39,3.08,3.08L56.66,63.13L56.66,63.13z"/>
	<path style="fill:#D92A2D;" d="M6.57,40.33c-1.69,0-3.08-1.38-3.08-3.08V6.88c0-1.7,1.38-3.08,3.08-3.08h23.61
		c1.69,0,3.08,1.39,3.08,3.08v3.49h3.48v-4.2c0-3.39-2.77-6.16-6.16-6.16H6.16C2.77,0,0,2.77,0,6.16v31.81
		c0,3.39,2.77,6.16,6.16,6.16h2.67v-3.8H6.57z"/>
	<path style="fill:#F3B21D;" d="M18.68,53.47c-1.69,0-3.08-1.38-3.08-3.08V20.01c0-1.69,1.38-3.08,3.08-3.08h23.61
		c1.69,0,3.08,1.39,3.08,3.08v2.87h3.48V19.3c0-3.39-2.77-6.16-6.16-6.16H18.27c-3.38,0-6.16,2.77-6.16,6.16v31.81
		c0,3.39,2.77,6.16,6.16,6.16h1.85v-3.8H18.68z"/>
	<g>
		<path d="M93.99,19c3.16,0,5.76,0.69,7.6,1.49l1.5-5.64c-1.44-0.74-4.72-1.72-9.38-1.72c-11.85,0-20.77,7.71-20.77,20.49
			c0,11.86,7.48,19.57,19.79,19.57c4.72,0,8.4-0.92,10.07-1.72l-1.15-5.58c-1.9,0.81-4.89,1.38-7.71,1.38
			c-8.58,0-13.52-5.41-13.52-13.99C80.4,23.94,86.1,19,93.99,19z"/>
		<rect x="108.37" y="11.69" width="7.08" height="40.86"/>
		<path d="M135.07,23.89c-8.98,0-13.7,7.31-13.7,15.08c0,8.57,5.35,14.16,14.45,14.16c4.03,0,7.37-0.75,9.78-1.78l-1.03-4.83
			c-2.19,0.75-4.49,1.26-7.77,1.26c-4.55,0-8.46-2.19-8.63-7.25h18.76c0.12-0.63,0.23-1.67,0.23-2.99
			C147.15,31.37,144.16,23.89,135.07,23.89z M140.48,35.57h-12.31c0.29-2.88,2.13-6.85,6.5-6.85
			C139.39,28.72,140.54,32.98,140.48,35.57z"/>
		<path d="M174.6,35.74c0-6.16-2.59-11.85-11.57-11.85c-4.43,0-8.06,1.21-10.13,2.47l1.38,4.61c1.9-1.21,4.77-2.07,7.54-2.07
			c4.95,0,5.7,3.05,5.7,4.89v0.46c-10.36-0.06-16.63,3.57-16.63,10.59c0,4.26,3.17,8.34,8.81,8.34c3.68,0,6.62-1.56,8.29-3.74h0.17
			l0.52,3.11h6.39c-0.35-1.73-0.46-4.2-0.46-6.73L174.6,35.74L174.6,35.74z M167.7,42.71c0,0.52,0,1.04-0.17,1.55
			c-0.69,2.01-2.71,3.86-5.58,3.86c-2.24,0-4.03-1.27-4.03-4.03c0-4.26,4.78-5.29,9.78-5.24V42.71z"/>
		<path d="M188.42,29.82h-0.17l-0.29-5.3h-6.1c0.17,2.48,0.23,5.24,0.23,9.04v18.99h7.08V37.99c0-0.75,0.05-1.5,0.17-2.13
			c0.64-3.22,2.99-5.35,6.33-5.35c0.86,0,1.5,0.06,2.13,0.17v-6.61c-0.57-0.12-0.98-0.18-1.67-0.18
			C193.07,23.89,189.79,25.9,188.42,29.82z"/>
		<path d="M219.6,31.83v-0.17c4.03-1.44,6.56-4.72,6.56-8.52c0-3.05-1.27-5.35-3.28-6.85c-2.36-1.96-5.58-2.82-10.59-2.82
			c-3.45,0-6.96,0.35-9.15,0.86v38.1c1.67,0.23,4.32,0.46,7.77,0.46c6.33,0,10.7-1.15,13.35-3.63c2.01-1.84,3.34-4.43,3.34-7.77
			C227.6,35.74,223.29,32.69,219.6,31.83z M208.15,17.67c0.81-0.17,2.13-0.35,4.43-0.35c5.06,0,8.46,1.84,8.46,6.33
			c0,3.74-3.11,6.56-8.35,6.56h-4.54L208.15,17.67L208.15,17.67z M212.35,48.98c-1.78,0-3.16-0.06-4.2-0.23V33.96h4.14
			c5.47,0,10.01,2.24,10.01,7.48C222.31,47.08,217.53,48.98,212.35,48.98z"/>
		<path d="M246.19,24.12c-7.65,0-13.81,5.47-13.81,14.73c0,8.8,5.87,14.33,13.35,14.33c6.67,0,13.87-4.49,13.87-14.79
			C259.6,29.93,254.19,24.12,246.19,24.12z M245.96,49.38c-4.95,0-8.4-4.6-8.4-10.7c0-5.24,2.59-10.76,8.52-10.76
			c5.99,0,8.35,5.93,8.35,10.65C254.42,44.84,250.79,49.38,245.96,49.38z"/>
		<path d="M277.78,24.12c-7.66,0-13.81,5.47-13.81,14.73c0,8.8,5.87,14.33,13.35,14.33c6.67,0,13.87-4.49,13.87-14.79
			C291.19,29.93,285.78,24.12,277.78,24.12z M277.55,49.38c-4.95,0-8.4-4.6-8.4-10.7c0-5.24,2.59-10.76,8.52-10.76
			c5.99,0,8.34,5.93,8.34,10.65C286.01,44.84,282.39,49.38,277.55,49.38z"/>
		<path d="M319.39,24.7h-6.04l-8.23,9.61c-0.81,0.98-1.73,2.19-2.42,3.16h-0.11V11.69h-5.01v40.86h5.01V42.07l2.59-2.88l9.55,13.35
			h6.21l-12.26-16.4L319.39,24.7z"/>
		<path d="M333.54,36.43c-3.63-1.44-5.24-2.47-5.24-4.77c0-2.07,1.61-3.8,4.6-3.8c2.59,0,4.61,0.98,5.7,1.67l1.21-3.68
			c-1.49-0.98-3.97-1.73-6.79-1.73c-5.93,0-9.61,3.68-9.61,8.17c0,3.34,2.36,6.04,7.43,7.88c3.68,1.38,5.12,2.65,5.12,5.06
			c0,2.36-1.72,4.14-5.35,4.14c-2.53,0-5.18-1.03-6.73-1.96l-1.21,3.8c1.96,1.15,4.78,1.96,7.83,1.96c6.5,0,10.36-3.46,10.36-8.4
			C340.85,40.63,338.32,38.22,333.54,36.43z"/>
	</g>
</g>
</svg>
