<svg width="177" height="25" viewBox="0 0 177 25" fill="none" xmlns="http://www.w3.org/2000/svg">
<path d="M36.8594 12.9967C36.8594 12.1647 37.0024 11.3392 37.2884 10.5202C37.5874 9.68822 38.0164 8.94722 38.5754 8.29722C39.1344 7.64722 39.8169 7.12072 40.6229 6.71772C41.4419 6.30172 42.3714 6.09372 43.4114 6.09372C44.6464 6.09372 45.6994 6.37972 46.5704 6.95172C47.4414 7.51072 48.0914 8.23222 48.5204 9.11622L47.7014 9.58422C47.4544 9.10322 47.1619 8.70022 46.8239 8.37522C46.4989 8.05022 46.1414 7.79022 45.7514 7.59522C45.3744 7.38722 44.9779 7.23772 44.5619 7.14672C44.1459 7.05572 43.7364 7.01022 43.3334 7.01022C42.4494 7.01022 41.6694 7.19222 40.9934 7.55622C40.3174 7.90722 39.7454 8.36872 39.2774 8.94072C38.8094 9.51272 38.4519 10.1627 38.2049 10.8907C37.9709 11.6057 37.8539 12.3272 37.8539 13.0552C37.8539 13.8742 37.9969 14.6542 38.2829 15.3952C38.5689 16.1362 38.9589 16.7927 39.4529 17.3647C39.9469 17.9237 40.5319 18.3722 41.2079 18.7102C41.8839 19.0482 42.6119 19.2172 43.3919 19.2172C43.8079 19.2172 44.2369 19.1652 44.6789 19.0612C45.1209 18.9572 45.5434 18.7947 45.9464 18.5737C46.3494 18.3527 46.7264 18.0732 47.0774 17.7352C47.4284 17.3842 47.7209 16.9747 47.9549 16.5067L48.8129 16.9162C48.5789 17.4362 48.2604 17.8977 47.8574 18.3007C47.4544 18.7037 47.0059 19.0417 46.5119 19.3147C46.0179 19.5877 45.4914 19.7957 44.9324 19.9387C44.3864 20.0687 43.8469 20.1337 43.3139 20.1337C42.3649 20.1337 41.4939 19.9257 40.7009 19.5097C39.9209 19.0937 39.2449 18.5542 38.6729 17.8912C38.1009 17.2152 37.6524 16.4547 37.3274 15.6097C37.0154 14.7517 36.8594 13.8807 36.8594 12.9967Z" fill="#333333"/>
<path d="M56.6635 20.1142C55.7015 20.1142 54.824 19.9127 54.031 19.5097C53.238 19.1067 52.5555 18.5802 51.9835 17.9302C51.4115 17.2802 50.9695 16.5327 50.6575 15.6877C50.3455 14.8427 50.1895 13.9782 50.1895 13.0942C50.1895 12.1712 50.352 11.2872 50.677 10.4422C51.015 9.59722 51.47 8.84972 52.042 8.19972C52.627 7.54972 53.316 7.03622 54.109 6.65922C54.902 6.26922 55.76 6.07422 56.683 6.07422C57.645 6.07422 58.5225 6.28222 59.3155 6.69822C60.1215 7.10122 60.804 7.63422 61.363 8.29722C61.935 8.96022 62.377 9.71422 62.689 10.5592C63.001 11.3912 63.157 12.2362 63.157 13.0942C63.157 14.0302 62.988 14.9207 62.65 15.7657C62.325 16.6107 61.87 17.3582 61.285 18.0082C60.713 18.6452 60.0305 19.1587 59.2375 19.5487C58.4445 19.9257 57.5865 20.1142 56.6635 20.1142ZM51.184 13.0942C51.184 13.8872 51.314 14.6542 51.574 15.3952C51.847 16.1232 52.224 16.7732 52.705 17.3452C53.199 17.9042 53.784 18.3527 54.46 18.6907C55.136 19.0287 55.877 19.1977 56.683 19.1977C57.515 19.1977 58.2625 19.0222 58.9255 18.6712C59.6015 18.3202 60.1735 17.8587 60.6415 17.2867C61.1225 16.7017 61.493 16.0452 61.753 15.3172C62.013 14.5892 62.143 13.8482 62.143 13.0942C62.143 12.3012 62.0065 11.5407 61.7335 10.8127C61.4605 10.0717 61.077 9.42172 60.583 8.86272C60.102 8.29072 59.53 7.83572 58.867 7.49772C58.204 7.15972 57.476 6.99072 56.683 6.99072C55.851 6.99072 55.097 7.16622 54.421 7.51722C53.745 7.86822 53.1665 8.33622 52.6855 8.92122C52.2045 9.49322 51.834 10.1432 51.574 10.8712C51.314 11.5992 51.184 12.3402 51.184 13.0942Z" fill="#333333"/>
<path d="M78.3656 20.0167V8.04372L72.9056 17.3842H72.2816L66.8216 8.04372V20.0167H65.8271V6.17172H66.8216L72.5936 16.0777L78.3656 6.17172H79.3601V20.0167H78.3656Z" fill="#333333"/>
<path d="M95.5233 20.0167V8.04372L90.0633 17.3842H89.4393L83.9793 8.04372V20.0167H82.9848V6.17172H83.9793L89.7513 16.0777L95.5233 6.17172H96.5178V20.0167H95.5233Z" fill="#333333"/>
<path d="M109.366 19.1197V20.0167H100.143V6.17172H109.191V7.06872H101.137V12.5092H108.177V13.3672H101.137V19.1197H109.366Z" fill="#333333"/>
<path d="M112.082 20.0167V6.17172H117.835C118.42 6.17172 118.959 6.29522 119.453 6.54222C119.947 6.78922 120.37 7.12072 120.721 7.53672C121.085 7.93972 121.364 8.40122 121.559 8.92122C121.767 9.42822 121.871 9.94172 121.871 10.4617C121.871 10.9687 121.793 11.4627 121.637 11.9437C121.481 12.4117 121.26 12.8342 120.974 13.2112C120.688 13.5882 120.344 13.9002 119.941 14.1472C119.538 14.3942 119.096 14.5567 118.615 14.6347L122.066 20.0167H120.916L117.562 14.7907H113.077V20.0167H112.082ZM113.077 13.8742H117.932C118.374 13.8742 118.777 13.7767 119.141 13.5817C119.505 13.3867 119.817 13.1332 120.077 12.8212C120.337 12.4962 120.532 12.1322 120.662 11.7292C120.805 11.3132 120.877 10.8907 120.877 10.4617C120.877 10.0197 120.792 9.59722 120.623 9.19422C120.467 8.77822 120.246 8.41422 119.96 8.10222C119.687 7.79022 119.362 7.54322 118.985 7.36122C118.621 7.16622 118.225 7.06872 117.796 7.06872H113.077V13.8742Z" fill="#333333"/>
<path d="M123.791 12.9967C123.791 12.1647 123.934 11.3392 124.22 10.5202C124.519 9.68822 124.948 8.94722 125.507 8.29722C126.066 7.64722 126.748 7.12072 127.554 6.71772C128.373 6.30172 129.303 6.09372 130.343 6.09372C131.578 6.09372 132.631 6.37972 133.502 6.95172C134.373 7.51072 135.023 8.23222 135.452 9.11622L134.633 9.58422C134.386 9.10322 134.093 8.70022 133.755 8.37522C133.43 8.05022 133.073 7.79022 132.683 7.59522C132.306 7.38722 131.909 7.23772 131.493 7.14672C131.077 7.05572 130.668 7.01022 130.265 7.01022C129.381 7.01022 128.601 7.19222 127.925 7.55622C127.249 7.90722 126.677 8.36872 126.209 8.94072C125.741 9.51272 125.383 10.1627 125.136 10.8907C124.902 11.6057 124.785 12.3272 124.785 13.0552C124.785 13.8742 124.928 14.6542 125.214 15.3952C125.5 16.1362 125.89 16.7927 126.384 17.3647C126.878 17.9237 127.463 18.3722 128.139 18.7102C128.815 19.0482 129.543 19.2172 130.323 19.2172C130.739 19.2172 131.168 19.1652 131.61 19.0612C132.052 18.9572 132.475 18.7947 132.878 18.5737C133.281 18.3527 133.658 18.0732 134.009 17.7352C134.36 17.3842 134.652 16.9747 134.886 16.5067L135.744 16.9162C135.51 17.4362 135.192 17.8977 134.789 18.3007C134.386 18.7037 133.937 19.0417 133.443 19.3147C132.949 19.5877 132.423 19.7957 131.864 19.9387C131.318 20.0687 130.778 20.1337 130.245 20.1337C129.296 20.1337 128.425 19.9257 127.632 19.5097C126.852 19.0937 126.176 18.5542 125.604 17.8912C125.032 17.2152 124.584 16.4547 124.259 15.6097C123.947 14.7517 123.791 13.8807 123.791 12.9967Z" fill="#333333"/>
<path d="M147.433 19.1197V20.0167H138.209V6.17172H147.257V7.06872H139.204V12.5092H146.243V13.3672H139.204V19.1197H147.433Z" fill="#333333"/>
<path d="M161.264 6.17172V20.0167H159.061V13.9132H152.08V20.0167H149.896V6.17172H152.08V11.9632H159.061V6.17172H161.264Z" fill="#333333"/>
<path d="M173.748 19.0027C173.228 19.3537 172.662 19.6267 172.051 19.8217C171.453 20.0167 170.816 20.1142 170.14 20.1142C169.152 20.1142 168.249 19.9127 167.43 19.5097C166.624 19.1067 165.928 18.5802 165.343 17.9302C164.758 17.2802 164.303 16.5327 163.978 15.6877C163.666 14.8427 163.51 13.9782 163.51 13.0942C163.51 12.1712 163.679 11.2872 164.017 10.4422C164.355 9.59722 164.817 8.84972 165.402 8.19972C166 7.54972 166.702 7.03622 167.508 6.65922C168.327 6.26922 169.217 6.07422 170.179 6.07422C171.167 6.07422 172.064 6.28222 172.87 6.69822C173.689 7.10122 174.385 7.63422 174.957 8.29722C175.542 8.96022 175.99 9.71422 176.302 10.5592C176.627 11.3912 176.79 12.2427 176.79 13.1137C176.79 14.0367 176.627 14.9142 176.302 15.7462C175.977 16.5652 175.522 17.2997 174.937 17.9497L176.751 20.0167H174.645L173.748 19.0027ZM170.16 18.1447C170.589 18.1447 170.992 18.0862 171.369 17.9692C171.746 17.8522 172.09 17.6897 172.402 17.4817L170.433 15.2002H172.539L173.533 16.3507C173.871 15.8957 174.125 15.3887 174.294 14.8297C174.463 14.2577 174.547 13.6792 174.547 13.0942C174.547 12.4312 174.443 11.8007 174.235 11.2027C174.027 10.5917 173.728 10.0522 173.338 9.58422C172.961 9.11622 172.5 8.74572 171.954 8.47272C171.421 8.18672 170.823 8.04372 170.16 8.04372C169.458 8.04372 168.834 8.19322 168.288 8.49222C167.742 8.77822 167.28 9.16172 166.903 9.64272C166.526 10.1107 166.234 10.6502 166.026 11.2612C165.831 11.8592 165.733 12.4702 165.733 13.0942C165.733 13.7442 165.837 14.3747 166.045 14.9857C166.253 15.5967 166.546 16.1362 166.923 16.6042C167.313 17.0722 167.781 17.4492 168.327 17.7352C168.873 18.0082 169.484 18.1447 170.16 18.1447Z" fill="#333333"/>
<path fill-rule="evenodd" clip-rule="evenodd" d="M18.1306 6.47178L18.1308 9.05612C18.1308 9.97418 18.6783 10.5123 19.4666 10.5123H20.4342C20.5286 10.5123 20.6052 10.4364 20.6052 10.3428V9.05612V4.85366C20.6052 4.32215 20.3191 3.8312 19.8543 3.56553L16.27 1.51616C14.4076 0.451326 12.1998 0.23727 10.1985 0.873996L17.2019 4.87873C17.7766 5.20723 18.1306 5.8146 18.1306 6.47178ZM11.5764 6.61108L9.91012 5.65839C9.41021 5.37243 8.79406 5.37243 8.29415 5.65839L1.75103 9.39942C1.28626 9.66509 1 10.1562 1 10.6875V14.7863C1 16.916 1.91672 18.9165 3.47424 20.3143L3.47457 12.3057C3.47457 11.6485 3.82877 11.0413 4.40328 10.7126L11.5764 6.61108ZM17.2034 8.76884L10.0302 4.6678C9.45548 4.33913 8.74742 4.33913 8.17257 4.6678L1.169 8.67187C1.61262 6.63701 2.9037 4.85069 4.76612 3.78568L8.35042 1.73648C8.81519 1.47065 9.38771 1.47065 9.85248 1.73648L16.3956 5.47752C16.8955 5.76331 17.2034 6.29169 17.2034 6.86344V8.76884ZM6.87613 18.5614L6.8758 10.3589L5.20955 11.3116C4.70947 11.5973 4.40156 12.1257 4.40156 12.6973V20.1795C4.40156 20.7111 4.68782 21.202 5.15243 21.4677L8.73672 23.517C10.5991 24.5819 12.8069 24.7959 14.8082 24.1592L7.80485 20.1545C7.23017 19.8258 6.87613 19.2186 6.87613 18.5614ZM21.5317 4.71882C23.0928 5.64876 23.9987 7.08794 23.9988 8.60975V9.14193C23.9988 9.87018 23.4122 10.5123 22.7264 10.5123H21.6958C21.6012 10.5123 21.5246 10.4363 21.5246 10.3427L21.5317 4.71882ZM23.9992 16.294C23.9992 18.107 23.1941 19.4456 21.5197 20.5315C20.312 21.3147 16.6548 23.2968 16.6548 23.2968C16.19 23.5625 15.6175 23.5625 15.1527 23.2968L8.59046 19.5447C8.10237 19.2657 7.80163 18.75 7.80163 18.1918V16.2644L14.975 20.3653C15.5497 20.694 16.258 20.694 16.8326 20.3653L20.5956 18.214C21.1728 17.884 21.5282 17.2737 21.5273 16.6136L21.525 14.5195C21.5248 14.4258 21.6016 14.3498 21.696 14.3498H22.7267C23.4124 14.3498 23.9992 14.992 23.9992 15.7204V16.294ZM20.4338 14.3499C20.5282 14.3499 20.6048 14.4258 20.6048 14.5193L20.605 16.2472C20.6052 16.8053 20.3044 17.3208 19.8167 17.5999L16.7121 19.3748C16.212 19.6608 15.5961 19.6608 15.0962 19.3748L13.4299 18.4223C13.4299 18.4223 16.4453 16.6795 17.4612 16.117C17.7459 15.9593 18.0187 15.7639 18.1702 15.395C18.407 14.8183 18.7784 14.3499 19.628 14.3499H20.4338Z" fill="#333333"/>
<mask id="mask0" style="mask-type:alpha" maskUnits="userSpaceOnUse" x="1" y="0" width="23" height="25">
<path fill-rule="evenodd" clip-rule="evenodd" d="M18.1306 6.47178L18.1308 9.05612C18.1308 9.97418 18.6783 10.5123 19.4666 10.5123H20.4342C20.5286 10.5123 20.6052 10.4364 20.6052 10.3428V9.05612V4.85366C20.6052 4.32215 20.3191 3.8312 19.8543 3.56553L16.27 1.51616C14.4076 0.451326 12.1998 0.23727 10.1985 0.873996L17.2019 4.87873C17.7766 5.20723 18.1306 5.8146 18.1306 6.47178ZM11.5764 6.61108L9.91012 5.65839C9.41021 5.37243 8.79406 5.37243 8.29415 5.65839L1.75103 9.39942C1.28626 9.66509 1 10.1562 1 10.6875V14.7863C1 16.916 1.91672 18.9165 3.47424 20.3143L3.47457 12.3057C3.47457 11.6485 3.82877 11.0413 4.40328 10.7126L11.5764 6.61108ZM17.2034 8.76884L10.0302 4.6678C9.45548 4.33913 8.74742 4.33913 8.17257 4.6678L1.169 8.67187C1.61262 6.63701 2.9037 4.85069 4.76612 3.78568L8.35042 1.73648C8.81519 1.47065 9.38771 1.47065 9.85248 1.73648L16.3956 5.47752C16.8955 5.76331 17.2034 6.29169 17.2034 6.86344V8.76884ZM6.87613 18.5614L6.8758 10.3589L5.20955 11.3116C4.70947 11.5973 4.40156 12.1257 4.40156 12.6973V20.1795C4.40156 20.7111 4.68782 21.202 5.15243 21.4677L8.73672 23.517C10.5991 24.5819 12.8069 24.7959 14.8082 24.1592L7.80485 20.1545C7.23017 19.8258 6.87613 19.2186 6.87613 18.5614ZM21.5317 4.71882C23.0928 5.64876 23.9987 7.08794 23.9988 8.60975V9.14193C23.9988 9.87018 23.4122 10.5123 22.7264 10.5123H21.6958C21.6012 10.5123 21.5246 10.4363 21.5246 10.3427L21.5317 4.71882ZM23.9992 16.294C23.9992 18.107 23.1941 19.4456 21.5197 20.5315C20.312 21.3147 16.6548 23.2968 16.6548 23.2968C16.19 23.5625 15.6175 23.5625 15.1527 23.2968L8.59046 19.5447C8.10237 19.2657 7.80163 18.75 7.80163 18.1918V16.2644L14.975 20.3653C15.5497 20.694 16.258 20.694 16.8326 20.3653L20.5956 18.214C21.1728 17.884 21.5282 17.2737 21.5273 16.6136L21.525 14.5195C21.5248 14.4258 21.6016 14.3498 21.696 14.3498H22.7267C23.4124 14.3498 23.9992 14.992 23.9992 15.7204V16.294ZM20.4338 14.3499C20.5282 14.3499 20.6048 14.4258 20.6048 14.5193L20.605 16.2472C20.6052 16.8053 20.3044 17.3208 19.8167 17.5999L16.7121 19.3748C16.212 19.6608 15.5961 19.6608 15.0962 19.3748L13.4299 18.4223C13.4299 18.4223 16.4453 16.6795 17.4612 16.117C17.7459 15.9593 18.0187 15.7639 18.1702 15.395C18.407 14.8183 18.7784 14.3499 19.628 14.3499H20.4338Z" fill="white"/>
</mask>
<g mask="url(#mask0)">
<rect y="0.516602" width="24" height="24" fill="#333333"/>
</g>
</svg>
