<?xml version="1.0" encoding="utf-8"?>
<!-- Generator: Adobe Illustrator 24.2.1, SVG Export Plug-In . SVG Version: 6.00 Build 0)  -->
<svg version="1.1" id="Layer_1" xmlns="http://www.w3.org/2000/svg" xmlns:xlink="http://www.w3.org/1999/xlink" x="0px" y="0px"
	 viewBox="0 0 180.9 44" style="enable-background:new 0 0 180.9 44;" xml:space="preserve">
<g>
	<g>
		<path style="fill:#00A1E0;" d="M26.1,4.8c4.2-4.4,11.2-4.6,15.6-0.4c0.8,0.8,1.5,1.7,2.1,2.7c6.9-3,15,0.2,17.9,7.2
			c3,6.9-0.2,15-7.2,17.9c-1.7,0.7-3.5,1.1-5.3,1.1c-0.9,0-1.8-0.1-2.7-0.3c-1.8,3.1-5.1,5.1-8.6,5.1c-1.5,0-3-0.3-4.3-1
			c-2.4,5.8-9.1,8.4-14.8,6c-2.9-1.2-5.1-3.6-6.2-6.5c-0.7,0.1-1.4,0.2-2.2,0.2C4.6,36.7-0.1,31.9,0,26.1c0-3.7,2-7.2,5.3-9
			C2.6,10.9,5.4,3.7,11.6,1C16.7-1.2,22.7,0.3,26.1,4.8z"/>
		<g>
			<path style="fill:#FFFFFF;" d="M9.1,22.8c0,0.1,0,0.1,0,0.1c0.1,0.1,0.2,0.1,0.4,0.2c0.6,0.3,1.2,0.4,1.9,0.4
				c1.3,0,2.1-0.7,2.1-1.8v0c0-1-0.9-1.4-1.7-1.7l-0.1,0c-0.6-0.2-1.2-0.4-1.2-0.8v0c0-0.4,0.3-0.6,0.8-0.6c0.6,0,1.1,0.2,1.6,0.4
				c0,0,0.1,0.1,0.2,0c0-0.1,0.2-0.7,0.3-0.7s0-0.1-0.1-0.1c-0.6-0.3-1.2-0.5-1.9-0.5h-0.1c-1-0.1-1.9,0.6-2,1.6c0,0,0,0.1,0,0.1v0
				c0,1.1,0.9,1.4,1.8,1.7l0.1,0.1c0.6,0.2,1.1,0.4,1.1,0.8v0c0,0.4-0.4,0.7-0.9,0.7c-0.6,0-1.2-0.2-1.7-0.5
				c-0.1-0.1-0.1-0.1-0.2-0.1c0,0-0.1,0-0.1,0c0,0,0,0,0,0L9.1,22.8z"/>
			<path style="fill:#FFFFFF;" d="M28,22.8c0,0.1,0,0.1,0,0.1c0.1,0.1,0.2,0.1,0.4,0.2c0.6,0.3,1.2,0.4,1.9,0.4
				c1.3,0,2.1-0.7,2.1-1.8v0c0-1-0.9-1.4-1.7-1.7l-0.1,0c-0.6-0.2-1.2-0.4-1.2-0.8v0c0-0.4,0.3-0.6,0.8-0.6c0.6,0,1.1,0.2,1.6,0.4
				c0,0,0.1,0.1,0.2,0c0-0.1,0.2-0.7,0.3-0.7s0-0.1-0.1-0.1c-0.6-0.3-1.2-0.5-1.9-0.5h-0.1c-1-0.1-1.9,0.6-2,1.6c0,0,0,0.1,0,0.1v0
				c0,1.1,0.9,1.4,1.8,1.7l0.1,0.1c0.6,0.2,1.1,0.4,1.1,0.8v0c0,0.4-0.4,0.7-0.9,0.7c-0.6,0-1.2-0.2-1.7-0.5
				c-0.1-0.1-0.1-0.1-0.2-0.1c0,0-0.1,0-0.1,0c0,0,0,0,0,0L28,22.8z"/>
			<path style="fill:#FFFFFF;" d="M41.9,19.5c-0.1-0.3-0.3-0.7-0.5-0.9c-0.2-0.3-0.5-0.5-0.8-0.6c-0.4-0.2-0.8-0.2-1.1-0.2
				c-0.4,0-0.8,0.1-1.1,0.2c-0.3,0.1-0.6,0.4-0.8,0.6c-0.2,0.3-0.4,0.6-0.5,0.9c-0.2,0.7-0.2,1.5,0,2.3c0.1,0.3,0.3,0.7,0.5,0.9
				c0.2,0.3,0.5,0.5,0.8,0.6c0.7,0.3,1.6,0.3,2.3,0c0.3-0.1,0.6-0.4,0.8-0.6c0.2-0.3,0.4-0.6,0.5-0.9c0.1-0.4,0.2-0.8,0.2-1.1
				C42.1,20.2,42,19.9,41.9,19.5 M40.9,20.7c0,0.5-0.1,1-0.4,1.5c-0.2,0.4-0.6,0.5-1,0.5c-0.4,0-0.8-0.2-1-0.5
				c-0.2-0.5-0.4-1-0.3-1.5c0-0.5,0.1-1,0.3-1.4c0.2-0.4,0.6-0.5,1-0.5c0.4,0,0.8,0.2,1,0.5C40.8,19.7,40.9,20.2,40.9,20.7"/>
			<path style="fill:#FFFFFF;" d="M50.8,22.5c0-0.1-0.1-0.1-0.1-0.1c-0.2,0.1-0.3,0.1-0.5,0.1c-0.2,0-0.4,0.1-0.6,0.1
				c-0.5,0-0.9-0.1-1.2-0.5c-0.3-0.4-0.5-0.9-0.5-1.5c0-0.5,0.1-1,0.4-1.4c0.3-0.4,0.7-0.6,1.2-0.5c0.4,0,0.8,0,1.1,0.2
				c0,0,0.1,0,0.1-0.1c0.1-0.3,0.2-0.4,0.3-0.7c0-0.1-0.1-0.1-0.1-0.1c-0.2-0.1-0.5-0.1-0.7-0.2c-0.3,0-0.5-0.1-0.8-0.1
				c-0.4,0-0.8,0.1-1.2,0.2c-0.3,0.1-0.6,0.4-0.9,0.6c-0.2,0.3-0.4,0.6-0.5,0.9c-0.1,0.4-0.2,0.8-0.2,1.2c0,0.8,0.2,1.5,0.7,2.2
				c0.6,0.6,1.3,0.8,2.1,0.8c0.5,0,1-0.1,1.5-0.3c0.1,0,0.1-0.1,0.1-0.1c0,0,0,0,0,0L50.8,22.5z"/>
			<path style="fill:#FFFFFF;" d="M56.3,19.3c-0.1-0.3-0.2-0.6-0.5-0.8c-0.2-0.2-0.4-0.4-0.7-0.5c-0.3-0.1-0.7-0.2-1-0.2
				c-0.4,0-0.8,0.1-1.2,0.2c-0.3,0.2-0.6,0.4-0.8,0.6c-0.2,0.3-0.4,0.6-0.5,1c-0.2,0.8-0.2,1.6,0,2.3c0.1,0.3,0.3,0.7,0.5,0.9
				c0.3,0.3,0.6,0.5,0.9,0.6c0.4,0.2,0.9,0.2,1.3,0.2c0.6,0,1.3-0.1,1.8-0.4c0,0,0.1-0.1,0-0.2l-0.2-0.7c0-0.1-0.1-0.1-0.1-0.1
				c-0.5,0.2-1,0.3-1.5,0.3c-0.5,0-0.9-0.1-1.3-0.4c-0.3-0.3-0.5-0.8-0.4-1.2h3.7c0,0,0.1,0,0.1-0.1C56.5,20.4,56.4,19.8,56.3,19.3z
				 M52.6,20.1c0-0.3,0.1-0.6,0.3-0.9c0.2-0.4,0.6-0.5,1-0.5c0.4,0,0.8,0.2,1,0.5c0.2,0.3,0.2,0.6,0.2,0.9H52.6z"/>
			<path style="fill:#FFFFFF;" d="M27.1,19.3c-0.1-0.3-0.2-0.6-0.5-0.8c-0.2-0.2-0.4-0.4-0.7-0.5c-0.3-0.1-0.7-0.2-1-0.2
				c-0.4,0-0.8,0.1-1.2,0.2c-0.3,0.2-0.6,0.4-0.8,0.6c-0.2,0.3-0.4,0.6-0.5,1c-0.2,0.8-0.2,1.6,0,2.3c0.1,0.3,0.3,0.7,0.5,0.9
				c0.3,0.3,0.6,0.5,0.9,0.6c0.4,0.2,0.9,0.2,1.3,0.2c0.6,0,1.3-0.1,1.8-0.4c0,0,0.1-0.1,0-0.2l-0.2-0.7c0-0.1-0.1-0.1-0.1-0.1
				c-0.5,0.2-1,0.3-1.5,0.3c-0.5,0-0.9-0.1-1.3-0.4c-0.3-0.3-0.5-0.8-0.4-1.2h3.7c0,0,0.1,0,0.1-0.1C27.3,20.4,27.2,19.8,27.1,19.3z
				 M23.5,20.1c0-0.3,0.1-0.6,0.3-0.9c0.2-0.4,0.6-0.5,1-0.5c0.4,0,0.8,0.2,1,0.5c0.1,0.3,0.2,0.6,0.2,0.9H23.5z"/>
			<path style="fill:#FFFFFF;" d="M17,19.9c-0.1,0-0.3,0-0.6,0c-0.3,0-0.6,0-0.9,0.1c-0.3,0.1-0.5,0.2-0.8,0.4
				c-0.2,0.2-0.4,0.4-0.5,0.6c-0.1,0.3-0.2,0.6-0.2,0.8c0,0.3,0,0.6,0.2,0.8c0.1,0.2,0.3,0.4,0.5,0.6c0.2,0.1,0.5,0.3,0.7,0.3
				c0.3,0.1,0.6,0.1,1,0.1c0.4,0,0.7,0,1.1-0.1c0.4-0.1,0.8-0.2,0.9-0.2c0.1,0,0.2-0.1,0.2-0.1c0,0,0.1-0.1,0.1-0.1v-3.3
				c0.1-0.6-0.2-1.2-0.6-1.6c-0.5-0.4-1.1-0.5-1.7-0.5c-0.3,0-0.7,0-1,0.1c-0.4,0.1-0.8,0.2-1.1,0.4c0,0-0.1,0.1,0,0.1l0.2,0.7
				c0,0.1,0.1,0.1,0.1,0c0,0,0,0,0,0c0.5-0.2,1-0.4,1.6-0.4c0.3,0,0.6,0.1,0.9,0.2c0.2,0.2,0.3,0.5,0.3,0.9V20
				C17.4,19.9,17.2,19.9,17,19.9z M15.6,22.4c-0.1-0.1-0.2-0.1-0.2-0.2c-0.1-0.1-0.1-0.3-0.1-0.5c0-0.3,0.1-0.5,0.3-0.7
				c0.3-0.2,0.7-0.3,1.1-0.3c0.3,0,0.7,0,1,0.1v1.7l0,0c-0.3,0.1-0.7,0.1-1,0.1C16.3,22.7,15.9,22.6,15.6,22.4z"/>
			<path style="fill:#FFFFFF;" d="M46.4,18c0-0.1,0-0.1-0.1-0.1c-0.2-0.1-0.4-0.1-0.6-0.1c-0.3,0-0.6,0-0.9,0.2
				c-0.2,0.1-0.4,0.3-0.6,0.5v-0.4c0-0.1-0.1-0.1-0.1-0.1h-0.9c-0.1,0-0.1,0.1-0.1,0.1v5.4c0,0.1,0.1,0.1,0.1,0.1h1
				c0.1,0,0.1-0.1,0.1-0.1v-2.7c0-0.3,0-0.6,0.1-1c0.1-0.2,0.2-0.4,0.3-0.5c0.1-0.1,0.3-0.2,0.5-0.3c0.2-0.1,0.3-0.1,0.5-0.1
				c0.1,0,0.3,0,0.4,0.1c0.1,0,0.1,0,0.1-0.1C46.2,18.6,46.4,18.1,46.4,18z"/>
			<path style="fill:#FFFFFF;" d="M37.5,15.5c-0.1,0-0.2-0.1-0.4-0.1c-0.2,0-0.3,0-0.5,0c-0.6,0-1.1,0.2-1.6,0.5
				c-0.4,0.5-0.7,1-0.7,1.7l-0.1,0.2h-0.8c-0.1,0-0.1,0-0.1,0.1c0,0,0,0,0,0l-0.1,0.8c0,0.1,0,0.1,0.1,0.1h0.8l-0.8,4.6
				c0,0.3-0.1,0.6-0.2,0.9c-0.1,0.2-0.1,0.4-0.2,0.5c-0.1,0.1-0.2,0.2-0.3,0.2c-0.1,0-0.3,0.1-0.4,0.1c-0.1,0-0.2,0-0.3,0
				c-0.1,0-0.1,0-0.2-0.1c-0.1,0-0.1,0-0.1,0.1c0,0.1-0.2,0.7-0.3,0.7c0,0.1,0,0.1,0.1,0.1c0.1,0,0.2,0.1,0.3,0.1
				c0.2,0,0.4,0.1,0.5,0.1c0.3,0,0.6,0,0.9-0.1c0.3-0.1,0.5-0.3,0.7-0.5c0.2-0.2,0.4-0.5,0.5-0.8c0.2-0.4,0.3-0.8,0.3-1.2l0.8-4.6
				h1.2c0.1,0,0.1,0,0.1-0.1c0,0,0,0,0,0l0.1-0.8c0-0.1,0-0.1-0.1-0.1h-1.2c0-0.3,0.1-0.6,0.2-0.8c0.1-0.1,0.1-0.3,0.2-0.4
				c0.1-0.1,0.2-0.2,0.3-0.2c0.1,0,0.3-0.1,0.4-0.1c0.1,0,0.2,0,0.3,0c0.1,0,0.2,0,0.2,0.1c0.1,0,0.1,0,0.2-0.1l0.3-0.8
				C37.5,15.5,37.5,15.5,37.5,15.5z"/>
			<path style="fill:#FFFFFF;" d="M21.1,23.4c0,0.1-0.1,0.1-0.1,0.1h-1c-0.1,0-0.1-0.1-0.1-0.1v-7.8c0-0.1,0.1-0.1,0.1-0.1h1
				c0.1,0,0.1,0.1,0.1,0.1V23.4z"/>
		</g>
	</g>
	<g>
		<path style="fill:#032E61;" d="M71.3,15.2c0.5,0,1,0.1,1.4,0.2c0.4,0.1,0.9,0.4,1.2,0.6L73.5,17c-0.6-0.5-1.4-0.7-2.1-0.7
			c-0.8-0.1-1.5,0.3-2,0.8c-0.5,0.7-0.7,1.5-0.7,2.3c0,0.8,0.2,1.6,0.7,2.2c0.5,0.6,1.2,0.9,1.9,0.8c0.8,0,1.5-0.2,2.2-0.7l0.5,1
			c-0.8,0.6-1.7,0.9-2.7,0.9c-0.8,0-1.6-0.2-2.2-0.6c-0.6-0.4-1-0.9-1.3-1.6c-0.3-0.7-0.4-1.4-0.4-2.1c-0.1-1.1,0.3-2.2,1.1-3.1
			C69.2,15.6,70.3,15.2,71.3,15.2z"/>
		<path style="fill:#032E61;" d="M82.5,19.4c0,0.8-0.2,1.5-0.5,2.2c-0.3,0.6-0.8,1.1-1.4,1.5c-1.3,0.7-3,0.7-4.3,0
			c-0.6-0.4-1.1-0.9-1.4-1.5c-0.3-0.7-0.5-1.4-0.5-2.2c-0.1-1.1,0.3-2.2,1.1-3.1c0.8-0.8,1.8-1.2,2.9-1.1c0.8,0,1.5,0.2,2.2,0.5
			c0.6,0.3,1.1,0.9,1.4,1.5C82.3,17.9,82.5,18.7,82.5,19.4z M75.8,19.4c0,0.8,0.2,1.6,0.7,2.3c1,1.1,2.7,1.2,3.8,0.2
			c0.1-0.1,0.1-0.1,0.2-0.2c0.5-0.7,0.7-1.5,0.7-2.3c0-0.8-0.2-1.6-0.7-2.3c-0.5-0.6-1.2-0.9-2-0.8c-0.8-0.1-1.5,0.3-2,0.8
			C76,17.8,75.8,18.6,75.8,19.4z"/>
		<path style="fill:#032E61;" d="M84,17.3c0-0.6,0-1.2-0.1-1.8h1.3c0.1,0.4,0.1,0.8,0.1,1.1h0c0.3-0.4,0.6-0.8,1.1-1
			c0.5-0.3,1-0.4,1.6-0.4c0.6,0,1.2,0.1,1.7,0.4c0.4,0.3,0.8,0.7,1,1.2h0c0.3-0.5,0.7-0.9,1.1-1.2c0.5-0.3,1.1-0.5,1.7-0.4
			c0.6,0,1.2,0.1,1.7,0.4c0.4,0.3,0.8,0.7,1,1.1c0.2,0.5,0.3,1,0.3,1.5v5.1h-1.3v-4.9c0-0.6-0.1-1.1-0.4-1.6
			c-0.3-0.4-0.9-0.7-1.4-0.6c-0.4,0-0.9,0.1-1.3,0.4c-0.3,0.3-0.6,0.6-0.8,1c-0.2,0.4-0.3,0.9-0.3,1.4v4.4h-1.3v-5
			c0-0.5-0.1-1.1-0.5-1.5c-0.3-0.4-0.9-0.7-1.4-0.6c-0.6,0-1.3,0.2-1.7,0.7c-0.4,0.5-0.6,1.1-0.6,1.8v4.6H84L84,17.3z"/>
		<path style="fill:#032E61;" d="M98.3,17.3c0-0.6,0-1.2-0.1-1.8h1.3c0.1,0.4,0.1,0.8,0.1,1.1h0c0.3-0.4,0.6-0.8,1.1-1
			c0.5-0.3,1-0.4,1.6-0.4c0.6,0,1.2,0.1,1.7,0.4c0.4,0.3,0.8,0.7,1,1.2h0c0.3-0.5,0.7-0.9,1.1-1.2c0.5-0.3,1.1-0.5,1.7-0.4
			c0.6,0,1.2,0.1,1.7,0.4c0.4,0.3,0.8,0.7,1,1.1c0.2,0.5,0.3,1,0.3,1.5v5.1h-1.3v-4.9c0-0.6-0.1-1.1-0.4-1.6
			c-0.3-0.4-0.9-0.7-1.4-0.6c-0.4,0-0.9,0.1-1.3,0.4c-0.3,0.3-0.6,0.6-0.8,1c-0.2,0.4-0.3,0.9-0.3,1.4v4.4h-1.3v-5
			c0-0.5-0.1-1.1-0.5-1.5c-0.3-0.4-0.9-0.7-1.4-0.6c-0.6,0-1.3,0.2-1.7,0.7c-0.4,0.5-0.6,1.1-0.6,1.8v4.6h-1.3L98.3,17.3z"/>
		<path style="fill:#032E61;" d="M119.4,19.9h-5.9c0,0.7,0.3,1.4,0.7,2c0.5,0.5,1.2,0.8,1.9,0.7c0.4,0,0.9-0.1,1.3-0.2
			c0.4-0.1,0.8-0.3,1.1-0.6l0.6,0.9c-0.4,0.3-0.9,0.6-1.4,0.7c-0.5,0.2-1.1,0.3-1.7,0.2c-1.1,0.1-2.1-0.4-2.9-1.2
			c-0.7-0.9-1.1-2-1-3.1c0-0.8,0.1-1.5,0.4-2.2c0.3-0.6,0.7-1.1,1.3-1.5c0.6-0.4,1.3-0.5,2-0.5c1-0.1,2,0.4,2.7,1.1
			c0.6,0.9,1,1.9,0.9,3C119.5,19.6,119.5,19.8,119.4,19.9z M118.1,18.9c0-0.7-0.2-1.4-0.6-1.9c-0.4-0.5-1-0.8-1.7-0.7
			c-0.7,0-1.3,0.2-1.7,0.7c-0.4,0.5-0.7,1.2-0.7,1.9L118.1,18.9L118.1,18.9z"/>
		<path style="fill:#032E61;" d="M121,17.3c0-0.6,0-1.2-0.1-1.8h1.3c0.1,0.4,0.1,0.8,0.1,1.3h0c0.4-1,1.4-1.6,2.5-1.5
			c0.1,0,0.2,0,0.5,0.1l-0.1,1.1c-0.2,0-0.3,0-0.5,0c-0.7,0-1.3,0.2-1.8,0.8c-0.4,0.6-0.6,1.3-0.6,2v4.3H121V17.3z"/>
		<path style="fill:#032E61;" d="M129.5,15.2c0.5,0,1,0.1,1.4,0.2c0.4,0.1,0.9,0.4,1.2,0.6l-0.5,0.9c-0.6-0.5-1.4-0.7-2.1-0.7
			c-0.8-0.1-1.5,0.3-2,0.8c-0.5,0.7-0.7,1.5-0.7,2.3c0,0.8,0.2,1.6,0.7,2.2c0.5,0.6,1.2,0.9,1.9,0.8c0.8,0,1.5-0.2,2.2-0.7l0.5,1
			c-0.8,0.6-1.7,0.9-2.7,0.9c-0.8,0-1.6-0.2-2.2-0.6c-0.6-0.4-1-0.9-1.3-1.6c-0.3-0.7-0.4-1.4-0.4-2.1c-0.1-1.1,0.3-2.2,1.1-3.1
			C127.4,15.6,128.4,15.2,129.5,15.2z"/>
		<path style="fill:#032E61;" d="M140,19.9H134c0,0.7,0.3,1.4,0.7,2c0.5,0.5,1.2,0.8,1.9,0.7c0.4,0,0.9-0.1,1.3-0.2
			c0.4-0.1,0.8-0.3,1.1-0.6l0.6,0.9c-0.4,0.3-0.9,0.6-1.4,0.7c-0.5,0.2-1.1,0.3-1.7,0.2c-1.1,0.1-2.1-0.4-2.9-1.2
			c-0.7-0.9-1.1-2-1-3.1c0-0.8,0.1-1.5,0.4-2.2c0.3-0.6,0.7-1.1,1.3-1.5c0.6-0.4,1.3-0.5,2-0.5c1-0.1,2,0.4,2.7,1.1
			c0.6,0.9,1,1.9,0.9,3C140,19.6,140,19.8,140,19.9z M138.7,18.9c0-0.7-0.2-1.4-0.6-1.9c-0.4-0.5-1-0.8-1.7-0.7
			c-0.7,0-1.3,0.2-1.7,0.7c-0.4,0.5-0.7,1.2-0.7,1.9L138.7,18.9L138.7,18.9z"/>
		<path style="fill:#032E61;" d="M148.3,15.2c0.5,0,1,0.1,1.4,0.2c0.4,0.1,0.9,0.4,1.2,0.6l-0.5,0.9c-0.6-0.5-1.4-0.7-2.1-0.7
			c-0.8-0.1-1.5,0.3-2,0.8c-0.5,0.7-0.7,1.5-0.7,2.3c0,0.8,0.2,1.6,0.7,2.2c0.5,0.6,1.2,0.9,1.9,0.8c0.8,0,1.5-0.2,2.2-0.7l0.5,1
			c-0.8,0.6-1.7,0.9-2.7,0.9c-0.8,0-1.6-0.2-2.2-0.6c-0.6-0.4-1-0.9-1.3-1.6c-0.3-0.7-0.4-1.4-0.4-2.1c-0.1-1.1,0.3-2.2,1.1-3.1
			C146.2,15.6,147.2,15.2,148.3,15.2z"/>
		<path style="fill:#032E61;" d="M153.8,12.3v11.1h-1.3V12.3H153.8z"/>
		<path style="fill:#032E61;" d="M163.5,19.4c0,0.8-0.2,1.5-0.5,2.2c-0.3,0.6-0.8,1.1-1.4,1.5c-1.3,0.7-3,0.7-4.3,0
			c-0.6-0.4-1.1-0.9-1.4-1.5c-0.3-0.7-0.5-1.4-0.5-2.2c-0.1-1.1,0.3-2.2,1.1-3.1c0.8-0.8,1.8-1.2,2.9-1.1c0.8,0,1.5,0.2,2.2,0.5
			c0.6,0.3,1.1,0.9,1.4,1.5C163.3,17.9,163.5,18.7,163.5,19.4z M156.8,19.4c0,0.8,0.2,1.6,0.7,2.3c1,1.1,2.7,1.2,3.8,0.2
			c0.1-0.1,0.1-0.1,0.2-0.2c0.5-0.7,0.7-1.5,0.7-2.3c0-0.8-0.2-1.6-0.7-2.3c-0.5-0.6-1.2-0.9-2-0.8c-0.8-0.1-1.5,0.3-2,0.8
			C157,17.8,156.8,18.6,156.8,19.4L156.8,19.4z"/>
		<path style="fill:#032E61;" d="M164.7,20.4v-4.9h1.4v4.7c0,0.6,0.1,1.3,0.5,1.8c0.3,0.5,0.9,0.7,1.5,0.7c0.7,0,1.3-0.3,1.8-0.8
			c0.4-0.6,0.7-1.3,0.7-2v-4.3h1.3v6.2c0,0.6,0,1.2,0.1,1.8h-1.3c-0.1-0.4-0.1-0.9-0.1-1.3h0c-0.6,1-1.6,1.6-2.8,1.5
			c-0.9,0.1-1.7-0.3-2.2-0.9C164.9,22.1,164.7,21.2,164.7,20.4z"/>
		<path style="fill:#032E61;" d="M180.9,23.5h-1.3c-0.1-0.4-0.1-0.8-0.1-1.2h0c-0.6,1-1.7,1.5-2.9,1.4c-1,0.1-2-0.4-2.6-1.2
			c-0.6-0.9-0.9-1.9-0.9-3c0-0.7,0.1-1.5,0.4-2.2c0.3-0.6,0.7-1.1,1.3-1.5c0.6-0.4,1.3-0.6,2-0.5c1,0,1.9,0.3,2.6,1v-4h1.3v9.4
			C180.8,22.3,180.8,22.9,180.9,23.5z M179.4,20v-2.5c-0.3-0.4-0.7-0.7-1.1-0.9c-0.4-0.2-0.9-0.3-1.4-0.3c-0.7,0-1.4,0.3-1.8,0.9
			c-0.5,0.7-0.7,1.5-0.7,2.3c0,0.8,0.2,1.6,0.7,2.3c0.4,0.6,1.1,0.9,1.8,0.8c0.7,0,1.4-0.2,1.8-0.7C179.2,21.4,179.5,20.7,179.4,20z
			"/>
	</g>
</g>
</svg>
