<?xml version="1.0" encoding="utf-8"?>
<!-- Generator: Adobe Illustrator 24.2.1, SVG Export Plug-In . SVG Version: 6.00 Build 0)  -->
<svg version="1.1" id="Layer_1" xmlns="http://www.w3.org/2000/svg" xmlns:xlink="http://www.w3.org/1999/xlink" x="0px" y="0px"
	width="100px" height="100px" viewBox="0 0 100 100" style="enable-background:new 0 0 100 100;" xml:space="preserve">
<g>
	<g>
		<path style="fill:#E8E8E8;" d="M50,0c27.6,0,50,22.4,50,50s-22.4,50-50,50S0,77.6,0,50S22.4,0,50,0"/>
		<path style="fill:#FFFFFF;" d="M50,1c27,0,49,22,49,49S77.1,99,50,99S1,77,1,50S23,1,50,1"/>
		<path style="fill:#E8E8E8;" d="M50,0c27.6,0,50,22.4,50,50s-22.4,50-50,50S0,77.6,0,50S22.4,0,50,0"/>
		<path style="fill:#FFFFFF;" d="M50,1c27,0,49,22,49,49S77.1,99,50,99S1,77,1,50S23,1,50,1"/>
	</g>
	<g>
		<path id="e" style="fill:#E53238;" d="M18.4,40.4c-6,0-11,2.6-11,10.2c0,6.1,3.4,9.9,11.2,9.9c9.2,0,9.8-6.1,9.8-6.1h-4.5
			c0,0-1,3.3-5.6,3.3c-3.8,0-6.5-2.6-6.5-6.1h17v-2.2C28.8,45.8,26.6,40.4,18.4,40.4L18.4,40.4z M18.2,43.2c3.6,0,6.1,2.2,6.1,5.5
			H11.9C11.9,45.2,15.1,43.2,18.2,43.2z"/>
		<path id="b" style="fill:#0064D2;" d="M28.8,32.9v23.8c0,1.3-0.1,3.2-0.1,3.2H33c0,0,0.2-1.4,0.2-2.6c0,0,2.1,3.3,7.8,3.3
			c6,0,10.1-4.2,10.1-10.1c0-5.6-3.7-10-10.1-10c-5.9,0-7.8,3.2-7.8,3.2V32.9H28.8z M39.8,43.4c4.1,0,6.7,3,6.7,7.1
			c0,4.4-3,7.2-6.6,7.2c-4.4,0-6.7-3.4-6.7-7.2C33.1,47,35.3,43.4,39.8,43.4z"/>
		<path id="a" style="fill:#F5AF02;" d="M61.6,40.4c-9,0-9.6,5-9.6,5.7h4.5c0,0,0.2-2.9,4.8-2.9c3,0,5.3,1.4,5.3,4v0.9h-5.3
			c-7,0-10.7,2.1-10.7,6.2c0,4.1,3.4,6.3,8,6.3c6.3,0,8.3-3.5,8.3-3.5c0,1.4,0.1,2.8,0.1,2.8h4c0,0-0.2-1.7-0.2-2.8v-9.4
			C70.9,41.7,65.9,40.4,61.6,40.4L61.6,40.4z M66.5,50.9v1.2c0,1.6-1,5.6-6.9,5.6c-3.2,0-4.6-1.6-4.6-3.5C55,51,59.7,50.9,66.5,50.9
			L66.5,50.9z"/>
		<path id="y" style="fill:#86B817;" d="M68.4,41.2h5.1l7.3,14.6L88,41.2h4.6L79.4,67.1h-4.8l3.8-7.2L68.4,41.2z"/>
	</g>
</g>
</svg>
