<?xml version="1.0" encoding="utf-8"?>
<!-- Generator: Adobe Illustrator 24.2.1, SVG Export Plug-In . SVG Version: 6.00 Build 0)  -->
<svg version="1.1" id="Layer_1" xmlns="http://www.w3.org/2000/svg" xmlns:xlink="http://www.w3.org/1999/xlink" x="0px" y="0px"
	 viewBox="0 0 249.3 123.5" style="enable-background:new 0 0 249.3 123.5;" xml:space="preserve">
<g>
	<path style="fill:#F27225;" d="M2.4,1.1c21.1,0.1,42.3,1.8,63.4-0.9c1.8,0.1,6.6-1.4,6,2c-0.5,5.5-0.2,11-0.4,16.5
		c-1.1,1.1-2.4,1.9-3.8,2.6c-0.8-3.9-0.3-9.6-5.1-11.1C55.7,8,48.4,8,41.4,7.7c-4.9,0.2-10.1-0.4-14.8,1.5c-3.3,2.1-1.7,6.7-2.2,9.9
		c0.5,7.3-1,14.9,0.9,22c8.7,0.4,17.4,0.5,26.1,0c5.8-0.5,6.2-7.4,7.5-11.7c1.2,1,4.2,1.3,3.7,3.5c-0.7,8.2-0.7,16.4,0.4,24.5
		c-0.9,0.4-2.6,1.1-3.5,1.5c-2.1-4.2-3.3-10.8-9.1-11.1c-7.6-0.6-15.2-0.4-22.8-0.2c-3.8-0.5-2.8,4-3.1,6.4
		c0.1,8.6-0.4,17.3,0.4,25.8c0.4,5.1,6.2,5.9,10.2,6c9.9,0.3,20.5,0.6,29.6-3.8c5.8-2.7,5.3-10,7.1-15.2c2.3,1,5.4,2.5,4.9,5.6
		C75.1,79.2,73,85.9,73.4,93C49,90.7,24.4,92.5,0,92.1c0-1,0.1-2.9,0.1-3.9c3.6-1,7.8-1,10.7-3.6c2.6-3.5,2.3-8.1,2.5-12.2
		c0-17.3,0-34.6,0-51.9c-0.1-4.1-0.2-8.6-2.7-12C8.3,6.3,4.9,6,2,4.9C2.1,3.9,2.3,2.1,2.4,1.1L2.4,1.1z"/>
	<path style="fill:#F27225;" d="M89.9,31.3c5.3-4.5,6.2-12,10.8-17c0.5,0.7,1.6,2,2.1,2.7c-0.2,5.2-1,10.3-1.3,15.5
		c6.7,0,13.4,0,20,0.2c0,2,0,4.1-0.1,6.1c-6.6,0.1-13.2,0-19.8,0c0.5,13.1-1.1,26.4,0.9,39.4c1.7,8.1,11.8,7.1,17,3.2
		c0.9,1,1.8,2,2.8,2.8c-4.8,5.8-12,10.7-19.9,9.1C96.1,92.2,92,86.1,91.5,80c-1-11.2,0.9-22.5,0-33.8c-0.5-5.1-6.4-5.5-10.2-6.8
		C82.2,35.2,87.1,34.2,89.9,31.3L89.9,31.3z"/>
	<path style="fill:#F27225;" d="M167,32.3c1.6-1.1,6.1-3.6,5.8,0.3c-0.9,5.6,0.8,12.2-2.1,17.2c-3.3,0.6-3.3-3.3-4.4-5.4
		c-2.3-8.2-13.8-10.2-20-5.4c-3.4,2.6-3.7,8.1-0.4,10.9c8.5,7.1,21.7,7.9,28,17.8c5.5,9.4-0.9,21.6-10.8,24.6
		c-10.2,4.5-21.3-3.3-31.3,1.8c-0.2-6.3,1-12.5,0.5-18.8c-0.6-3.2,2.5-4.5,4.9-5.5c0.7,5.6,1.2,12.5,6.9,15.3
		c6.6,4.4,18.2,4.1,21.4-4.2c2.1-4.7-1.1-9.6-5.3-11.6c-7.5-4.4-16.7-6-22.9-12.4c-6.3-6.7-3.9-18.7,3.9-23.1
		C149,29,158.5,30.9,167,32.3L167,32.3z"/>
	<path style="fill:#F27225;" d="M180.5,36c0.1-1.3,0.2-2.6,0.3-3.8c9.6,0.5,19.1,0,28.7,0.3c1.5,4.9-4.6,4.5-7.4,6.6
		c-0.6,4,1.1,7.9,2.6,11.6c3.8,8.8,7.4,17.6,11.1,26.3c4.4-9.5,9.7-18.5,13.2-28.4c0.7-2.9,2-6,1-9c-3.1-2.2-8.1-2.5-8.5-7.1
		c9.2,0,18.3,0.3,27.5-0.2c0.1,1.3,0.2,2.5,0.3,3.8c-4.9,1.3-9.6,3.9-11.8,8.7c-7.1,14-13.4,28.3-20.2,42.4
		c-5.1,10.6-9.6,22-18.1,30.5c-4,3.9-10.1,7.5-15.7,4.8c-4.3-1.8-3.3-8.6,1.1-9.5c3.5-0.4,6.8,1,10.2,1c6.7-3.9,9.7-11.8,12-18.9
		c2.1-5.3-0.4-10.8-2-15.8c-4.4-12.5-8.8-25-14.6-36.9C188.6,38.2,184.1,37.4,180.5,36L180.5,36z"/>
</g>
</svg>
