<?xml version="1.0" encoding="utf-8"?>
<!-- Generator: Adobe Illustrator 24.2.1, SVG Export Plug-In . SVG Version: 6.00 Build 0)  -->
<svg version="1.1" id="Layer_1" xmlns="http://www.w3.org/2000/svg" xmlns:xlink="http://www.w3.org/1999/xlink" x="0px" y="0px"
	width="100px" height="100px" viewBox="0 0 100 100" style="enable-background:new 0 0 100 100;" xml:space="preserve">
<g>
	<g>
		<path style="fill:#E8E8E8;" d="M50,0c27.6,0,50,22.4,50,50s-22.4,50-50,50S0,77.6,0,50S22.4,0,50,0"/>
		<path style="fill:#FFFFFF;" d="M50,1c27,0,49,22,49,49S77.1,99,50,99S1,77,1,50S23,1,50,1"/>
	</g>
	<g id="Laag_2">
		<g id="Laag_1-2">
			<path style="fill:#E1141D;" d="M19.7,46.9H8.6v3.3h12.6v-3.3H19.7z M19.6,52.6h-11V56h12.6v-3.3H19.6z M64.3,55.6h-5
				c-0.6,0.1-1.2-0.4-1.3-1c0-0.1,0-0.2,0-0.2c0-0.6,0.4-1.2,1.1-1.3c0.1,0,0.2,0,0.2,0h5V55.6z M62,44h-6.6v3.3h6.4
				c2,0,2.5,0.8,2.5,2.5h-5.1c-3,0-4.7,1.6-4.7,4.5s1.7,4.5,4.7,4.5h8.7v-9.1C67.8,45.9,66.4,44,62,44L62,44z M80.6,55.4h-4.2
				c-2.3,0-3.1-1.1-3.1-4c0-3,0.8-4.1,3.1-4.1h4.8V44h-5.1c-4.6,0-6.4,2.3-6.4,7.4s1.8,7.4,6.4,7.4h5.2v-3.3L80.6,55.4L80.6,55.4z
				 M35.2,55.5h-3.9c-1.9,0-2.7-0.7-3-2.3h7.9v-3.3h-7.9c0.2-1.7,1.1-2.5,3-2.5h5.9V44h-6.3c-4.6,0-6.4,2.3-6.4,7.4s1.8,7.4,6.4,7.4
				h6.3v-3.3H35.2z M90.8,55.5h-2.9c-0.7,0-1.1-0.5-1.1-1.4v-6.7h4.3V44h-4.3v-2.8h-3.6v13.1c0,3,1.4,4.4,4.4,4.4h3.8v-3.3H90.8z
				 M53.5,58.1l-5.2-6.9l4.9-6.5l0,0l0.5-0.7h-4.2l-0.4,0.5l0,0l-2.9,3.9l-2.9-3.9l0,0l-0.4-0.5h-4.4l5.5,7.2l-5.7,7.5h4.2l0.4-0.5
				l0,0l3.2-4.2l3.2,4.2l0,0l0.4,0.5H54L53.5,58.1z"/>
		</g>
	</g>
</g>
<g>
	<g>
		<path style="fill:#E8E8E8;" d="M50,0c27.6,0,50,22.4,50,50s-22.4,50-50,50S0,77.6,0,50S22.4,0,50,0"/>
		<path style="fill:#FFFFFF;" d="M50,1c27,0,49,22,49,49S77.1,99,50,99S1,77,1,50S23,1,50,1"/>
	</g>
	<g id="Laag_2_1_">
		<g id="Laag_1-2_1_">
			<path style="fill:#E1141D;" d="M19.7,46.9H8.6v3.3h12.6v-3.3H19.7z M19.6,52.6h-11V56h12.6v-3.3H19.6z M64.3,55.6h-5
				c-0.6,0.1-1.2-0.4-1.3-1c0-0.1,0-0.2,0-0.2c0-0.6,0.4-1.2,1.1-1.3c0.1,0,0.2,0,0.2,0h5V55.6z M62,44h-6.6v3.3h6.4
				c2,0,2.5,0.8,2.5,2.5h-5.1c-3,0-4.7,1.6-4.7,4.5s1.7,4.5,4.7,4.5h8.7v-9.1C67.8,45.9,66.4,44,62,44L62,44z M80.6,55.4h-4.2
				c-2.3,0-3.1-1.1-3.1-4c0-3,0.8-4.1,3.1-4.1h4.8V44h-5.1c-4.6,0-6.4,2.3-6.4,7.4s1.8,7.4,6.4,7.4h5.2v-3.3L80.6,55.4L80.6,55.4z
				 M35.2,55.5h-3.9c-1.9,0-2.7-0.7-3-2.3h7.9v-3.3h-7.9c0.2-1.7,1.1-2.5,3-2.5h5.9V44h-6.3c-4.6,0-6.4,2.3-6.4,7.4s1.8,7.4,6.4,7.4
				h6.3v-3.3H35.2z M90.8,55.5h-2.9c-0.7,0-1.1-0.5-1.1-1.4v-6.7h4.3V44h-4.3v-2.8h-3.6v13.1c0,3,1.4,4.4,4.4,4.4h3.8v-3.3H90.8z
				 M53.5,58.1l-5.2-6.9l4.9-6.5l0,0l0.5-0.7h-4.2l-0.4,0.5l0,0l-2.9,3.9l-2.9-3.9l0,0l-0.4-0.5h-4.4l5.5,7.2l-5.7,7.5h4.2l0.4-0.5
				l0,0l3.2-4.2l3.2,4.2l0,0l0.4,0.5H54L53.5,58.1z"/>
		</g>
	</g>
</g>
</svg>
