<?xml version="1.0" encoding="utf-8"?>
<!-- Generator: Adobe Illustrator 24.2.1, SVG Export Plug-In . SVG Version: 6.00 Build 0)  -->
<svg version="1.1" id="Layer_1" xmlns="http://www.w3.org/2000/svg" xmlns:xlink="http://www.w3.org/1999/xlink" x="0px" y="0px"
	 viewBox="0 0 168.4 35.7" style="enable-background:new 0 0 168.4 35.7;" xml:space="preserve">
<g id="Laag_2">
	<g id="Laag_1-2">
		<path style="fill:#E1141D;" d="M22.6,11.6H0v6.8h25.7v-6.8H22.6z M22.3,23.2H0V30h25.7v-6.8H22.3z M113.2,29.1h-10.1
			c-1.3,0.2-2.5-0.7-2.7-2.1c0-0.2,0-0.3,0-0.5c-0.1-1.3,0.9-2.5,2.2-2.5c0.2,0,0.3,0,0.5,0h10.1V29.1z M108.5,5.7H95v6.8h13.1
			c4,0,5.1,1.5,5.1,5.1h-10.5c-6.2,0-9.6,3.2-9.6,9.1s3.4,9.1,9.6,9.1h17.7V17.3C120.5,9.5,117.5,5.7,108.5,5.7L108.5,5.7z
			 M146.5,28.9H138c-4.6,0-6.3-2.2-6.3-8.2s1.7-8.2,6.3-8.2h9.7V5.7h-10.5c-9.3,0-12.9,4.7-12.9,15s3.6,15,12.9,15h10.6v-6.8
			L146.5,28.9L146.5,28.9z M54,28.9h-8c-3.8,0-5.6-1.4-6.1-4.8h16v-6.8h-16c0.5-3.5,2.2-5,6.1-5h12V5.7H45.2
			c-9.4,0-12.9,4.7-12.9,15s3.6,15,12.9,15h12.9v-6.8H54z M167.1,28.9h-5.9c-1.4,0-2.3-1-2.3-2.8V12.5h8.8V5.7h-8.8V0h-7.3v26.7
			c0,6.2,2.9,9,8.9,9h7.8v-6.7H167.1z M91.4,34.3L80.7,20.3l10-13.2l0,0l1-1.4h-8.5l-0.7,1l0,0l-6,8l-6-7.9l0,0l-0.7-1h-8.9L72,20.5
			L60.5,35.7H69l0.7-1l0,0l6.6-8.6l6.6,8.6l0,0l0.7,1h8.9L91.4,34.3z"/>
	</g>
</g>
</svg>
