<?xml version="1.0" encoding="utf-8"?>
<!-- Generator: Adobe Illustrator 24.2.1, SVG Export Plug-In . SVG Version: 6.00 Build 0)  -->
<svg version="1.1" id="Layer_1" xmlns="http://www.w3.org/2000/svg" xmlns:xlink="http://www.w3.org/1999/xlink" x="0px" y="0px"
	width="100px" height="100px" viewBox="0 0 100 100" style="enable-background:new 0 0 100 100;" xml:space="preserve">
<g>
	<g>
		<path style="fill:#E8E8E8;" d="M50,0c27.6,0,50,22.4,50,50s-22.4,50-50,50S0,77.6,0,50S22.4,0,50,0"/>
		<path style="fill:#FFFFFF;" d="M50,1c27,0,49,22,49,49S77.1,99,50,99S1,77,1,50S23,1,50,1"/>
	</g>
	<g>
		<path style="fill:#E8E8E8;" d="M50,0c27.6,0,50,22.4,50,50s-22.4,50-50,50S0,77.6,0,50S22.4,0,50,0"/>
		<path style="fill:#FFFFFF;" d="M50,1c27,0,49,22,49,49S77.1,99,50,99S1,77,1,50S23,1,50,1"/>
	</g>
	<g>
		<g>
			<path style="fill:#0075DD;" d="M48.2,30.2c-5.3,0-9.6,4.3-9.6,9.6V53h13.1c5.3,0,9.6-4.3,9.6-9.6V30.2H48.2z M56,34.3
				c0,1.8-1.4,3.1-3.1,3.1h-3.4v2.7H54v3.1h-4.5v6.5h-3.7V33.4h3.7v2.9c0.1-1.6,1.5-2.9,3.1-2.9H56L56,34.3L56,34.3z"/>
		</g>
		<g>
			<path d="M18.8,60.9v8.5H21v-4.6c0-0.3,0-1.1,0.3-1.4c0.3-0.4,0.8-0.6,1.4-0.5h0.1v-2.1h-0.1c-0.7-0.1-1.3,0.2-1.6,0.5L21,61.3
				c-0.1,0.1-0.1,0.1-0.2,0.2V61L18.8,60.9z"/>
			<path d="M41.2,69.5v-4.7c0-1.3,0.6-2,1.6-2c0.4,0,0.7,0.1,1,0.4c0.3,0.3,0.5,0.9,0.5,1.6v4.7h2.2v-5.3c0-1.8-1.3-3.3-3-3.5
				c-1-0.1-1.8,0.1-2.4,0.7V58H39v11.4L41.2,69.5L41.2,69.5z"/>
			<path d="M53.5,63.2L53.5,63.2L53.5,63.2c0.9-0.6,1.2-1.8,1-2.6C54.1,59,52.9,58,50.8,58h-3v11.4H51c2.4,0,3.8-1,4.2-2.9
				C55.4,65.4,54.7,63.7,53.5,63.2z M50,60.3h1c0.4,0,1.2,0.1,1.3,1c0,0.3-0.1,0.5-0.3,0.7c-0.3,0.3-0.9,0.4-1.4,0.4h-0.7L50,60.3z
				 M52.7,66.8c-0.3,0.3-1,0.5-1.9,0.5H50v-2.7h1.2c0.7,0,1.6,0.3,1.7,1.2C53,66.1,52.9,66.5,52.7,66.8z"/>
			<path d="M63.2,62c-0.8-0.8-2-1.3-3.2-1.3c-2.5,0.1-4.5,2.1-4.4,4.6c0.1,2.4,2,4.4,4.4,4.4H60c1.2,0,2.3-0.5,3.1-1.3
				c1.8-1.7,1.8-4.6,0.1-6.3C63.3,62.1,63.3,62,63.2,62z M60.1,67.6c-0.6,0-1.2-0.2-1.6-0.7c-0.5-0.5-0.7-1.1-0.7-1.8
				c0-1.3,1-2.3,2.3-2.4h0.1c1.3,0,2.3,1,2.4,2.3C62.5,66.4,61.5,67.6,60.1,67.6z"/>
			<path d="M72.8,62c-0.8-0.8-2-1.3-3.2-1.3c-2.5,0.1-4.5,2.1-4.4,4.6c0.1,2.4,2,4.4,4.4,4.4h0.1c1.2,0,2.3-0.5,3.1-1.3
				c1.8-1.7,1.8-4.6,0.1-6.3C72.9,62.1,72.8,62,72.8,62z M71.4,66.8c-0.4,0.5-1,0.7-1.6,0.7c-0.6,0-1.2-0.2-1.6-0.7
				c-0.5-0.5-0.7-1.1-0.7-1.8c0-1.3,1-2.3,2.3-2.4h0.1c1.3,0,2.3,1,2.3,2.3C72,65.8,71.8,66.4,71.4,66.8z"/>
			<path d="M76.9,65.6l0.1-0.2h0.2l2.4,4.1h2.4l-3.3-5.6l3.3-3h-3l-2.2,2V58h-2.1v11.4h2.1V65.6z"/>
			<path d="M88.3,66.9c0-1.8-1.5-2.3-2.7-2.7v0.1v-0.1c-0.7-0.2-1.4-0.4-1.4-0.9c0-0.3,0.3-0.5,0.7-0.5c0.3,0,0.5,0.1,0.7,0.3
				l0.1,0.1l1.4-1.4l-0.1-0.1c-0.5-0.5-1.4-0.8-2.1-0.8c-1.8,0-2.9,1-2.9,2.6c0,1.8,1.4,2.2,2.6,2.6c0.8,0.2,1.4,0.4,1.4,1
				c0,0.5-0.5,0.8-1.2,0.8c-0.7,0-1.1-0.3-1.1-0.9v-0.1h-2.2v0.1c0,1.6,1.4,2.9,3.3,2.9C87,69.7,88.3,68.5,88.3,66.9L88.3,66.9z"/>
			<path d="M13.9,60.4v2.4h3.7V65h-3.7v4.5h-2.2V58.1h6.1v2.2H13.9z"/>
			<path d="M31.8,65.3c0-2.8-1.6-4.5-4.1-4.5c-2.6,0-4.4,1.8-4.4,4.4c0,2.7,1.9,4.6,4.4,4.6c1.3,0,2.6-0.5,3.5-1.5l0.1-0.1l-1.6-1.4
				l-0.1,0.1c-0.5,0.6-1.2,1-2,1c-1.2,0-2-0.7-2.2-2v-0.2h6.4L31.8,65.3z M25.5,63.8l0.1-0.1c0.4-0.7,1.1-1,2-1c1,0,1.7,0.4,1.9,1.2
				C29.4,63.8,25.5,63.8,25.5,63.8z"/>
			<path d="M35.8,64.2c-0.7-0.2-1.4-0.4-1.4-1c0-0.3,0.3-0.5,0.7-0.5c0.3,0,0.5,0.1,0.7,0.3l0.1,0.1l1.4-1.4l-0.1-0.1
				c-0.5-0.5-1.4-0.8-2.1-0.8c-1.8,0-2.9,1-2.9,2.6c0,1.8,1.4,2.2,2.6,2.6c0.8,0.2,1.4,0.4,1.4,1c0,0.5-0.5,0.8-1.2,0.8
				c-0.7,0-1.1-0.3-1.1-0.9v-0.1H32v0.1c0,1.6,1.4,2.9,3.3,2.9s3.3-1.2,3.3-2.9C38.5,65.1,37,64.6,35.8,64.2L35.8,64.2z"/>
		</g>
	</g>
</g>
</svg>
