<?xml version="1.0" encoding="utf-8"?>
<!-- Generator: Adobe Illustrator 24.2.1, SVG Export Plug-In . SVG Version: 6.00 Build 0)  -->
<svg version="1.1" id="Layer_1" xmlns="http://www.w3.org/2000/svg" xmlns:xlink="http://www.w3.org/1999/xlink" x="0px" y="0px"
	 viewBox="0 0 128.7 66.4" style="enable-background:new 0 0 128.7 66.4;" xml:space="preserve">
<g>
	<g>
		<path style="fill:#0075DD;" d="M61.4,0c-8.9,0-16.1,7.2-16.1,16.1v22.1h22.1c8.9,0,16.1-7.2,16.1-16.1V0L61.4,0z M74.4,6.7
			c0,3-2.4,5.3-5.3,5.3h-5.7v4.6h7.7v5.3h-7.5v11h-6.3V5.4h6.2v4.9c0.2-2.7,2.5-4.9,5.3-4.9h5.7L74.4,6.7L74.4,6.7z"/>
	</g>
	<g>
		<path d="M11.9,51.5v14.3h3.8V58c0-0.5,0-1.8,0.6-2.4c0.6-0.7,1.4-1,2.3-0.9h0.1v-3.5h-0.1c-1.1-0.1-2.2,0.3-2.6,0.8l-0.2,0.2
			c-0.1,0.1-0.2,0.2-0.3,0.3v-0.9L11.9,51.5z"/>
		<path d="M49.6,65.9V58c0-2.2,1-3.4,2.7-3.4c0.7,0,1.3,0.2,1.7,0.7c0.6,0.6,0.9,1.5,0.9,2.6v7.9h3.7v-8.9c0-3.1-2.2-5.6-5-5.8
			c-1.6-0.1-3,0.2-4,1.3v-5.6H46v19.1h3.7V65.9z"/>
		<path d="M70.2,55.4h-0.1l0.1-0.1c1.5-0.9,1.9-2.9,1.7-4.2c-0.6-2.7-2.7-4.3-6.2-4.3h-5v19.1h5.4c4,0,6.4-1.7,7.1-4.9
			C73.4,59,72.3,56.2,70.2,55.4z M64.4,50.5H66c0.7,0,2.1,0.1,2.2,1.6c0,0.5-0.1,0.9-0.5,1.3c-0.6,0.6-1.5,0.7-2.3,0.7h-1.1
			L64.4,50.5z M68.8,61.3c-0.6,0.6-1.6,0.9-3.2,0.9h-1.3v-4.6h2.1c1.3,0,2.7,0.6,2.9,2.1C69.4,60.3,69.2,60.9,68.8,61.3z"/>
		<path d="M86.6,53.3c-1.4-1.4-3.3-2.2-5.4-2.2c-4.2,0.1-7.5,3.5-7.4,7.8c0.1,4,3.3,7.3,7.3,7.4h0.1c1.9,0,3.9-0.8,5.3-2.2
			c3-2.9,3.1-7.7,0.2-10.6C86.8,53.4,86.7,53.3,86.6,53.3z M81.4,62.8c-1,0-2.1-0.3-2.7-1.1c-0.8-0.8-1.3-1.8-1.3-3
			c0-2.2,1.7-3.9,3.9-4h0.1c2.2,0,3.9,1.7,4,3.9C85.3,60.8,83.7,62.7,81.4,62.8z"/>
		<path d="M102.7,53.3c-1.4-1.4-3.3-2.2-5.4-2.2c-4.2,0.1-7.5,3.5-7.4,7.8c0.1,4,3.3,7.3,7.3,7.4h0.1c1.9,0,3.9-0.8,5.3-2.2
			c3-2.9,3.1-7.7,0.2-10.6C102.8,53.4,102.7,53.3,102.7,53.3z M100.3,61.4c-0.7,0.8-1.7,1.3-2.7,1.3s-2.1-0.3-2.7-1.1
			c-0.8-0.8-1.3-1.8-1.3-3c0-2.2,1.7-3.9,3.9-4h0.1c2.2,0,3.9,1.7,3.9,3.9C101.3,59.7,101,60.8,100.3,61.4z"/>
		<path d="M109.5,59.4l0.2-0.3h0.3l4.1,6.9h4l-5.6-9.4l5.6-5h-5l-3.7,3.3v-8.1H106v19.2h3.5V59.4z"/>
		<path d="M128.7,61.6c0-3.1-2.5-3.9-4.5-4.5v0.1v-0.1c-1.3-0.3-2.3-0.7-2.3-1.5c0-0.6,0.5-0.9,1.3-0.9c0.5,0,0.9,0.1,1.3,0.5
			l0.1,0.1l2.4-2.4l-0.1-0.1c-0.9-0.9-2.3-1.4-3.5-1.4c-3,0-4.8,1.7-4.8,4.3c0,3.1,2.4,3.8,4.3,4.3c1.4,0.3,2.4,0.7,2.4,1.6
			c0,0.8-0.8,1.4-1.9,1.4s-1.8-0.6-1.8-1.5v-0.2h-3.7v0.2c0,2.7,2.3,4.8,5.5,4.8C126.5,66.4,128.7,64.3,128.7,61.6L128.7,61.6z"/>
		<path d="M3.7,50.6v4.1h6.3v3.7H3.8v7.5H0V46.8h10.3v3.8H3.7z"/>
		<path d="M33.7,58.8c0-4.7-2.6-7.5-6.9-7.5c-4.3,0-7.4,3.1-7.4,7.3c0,4.5,3.2,7.8,7.3,7.8c2.2,0,4.3-0.9,5.8-2.5l0.1-0.1l-2.6-2.3
			L30,61.5c-0.8,1-2.1,1.6-3.3,1.6c-1.9,0-3.4-1.3-3.8-3.3v-0.3h10.7L33.7,58.8z M23.2,56.3l0.1-0.2c0.7-1.1,1.8-1.7,3.3-1.7
			c1.6,0,2.9,0.7,3.2,1.9C29.8,56.3,23.2,56.3,23.2,56.3z"/>
		<path d="M40.6,57.1c-1.3-0.3-2.3-0.7-2.3-1.6c0-0.6,0.5-0.9,1.3-0.9c0.5,0,0.9,0.1,1.3,0.5l0.1,0.1l2.4-2.4l-0.1-0.1
			c-0.9-0.9-2.3-1.4-3.5-1.4c-3,0-4.8,1.7-4.8,4.3c0,3.1,2.4,3.8,4.3,4.3c1.4,0.3,2.4,0.7,2.4,1.6c0,0.8-0.8,1.4-1.9,1.4
			c-1.1,0-1.8-0.6-1.8-1.5v-0.2h-3.7v0.2c0,2.7,2.3,4.8,5.5,4.8c3.2,0,5.5-2.1,5.5-4.8C45,58.5,42.5,57.8,40.6,57.1L40.6,57.1z"/>
	</g>
</g>
</svg>
