<?xml version="1.0" encoding="utf-8"?>
<!-- Generator: Adobe Illustrator 24.2.1, SVG Export Plug-In . SVG Version: 6.00 Build 0)  -->
<svg version="1.1" id="Layer_1" xmlns="http://www.w3.org/2000/svg" xmlns:xlink="http://www.w3.org/1999/xlink" x="0px" y="0px"
	width="100px" height="100px" viewBox="0 0 100 100" style="enable-background:new 0 0 100 100;" xml:space="preserve">
<g>
	<g>
		<path style="fill:#E9E8E8;" d="M50,0c27.6,0,50,22.4,50,50s-22.4,50-50,50S0,77.6,0,50S22.4,0,50,0"/>
		<path style="fill:#FFFFFF;" d="M50,1c27,0,49,22,49,49S77.1,99,50,99S1,77,1,50S23,1,50,1"/>
		<path style="fill:#E9E8E8;" d="M50,0c27.6,0,50,22.4,50,50s-22.4,50-50,50S0,77.6,0,50S22.4,0,50,0"/>
		<path style="fill:#FFFFFF;" d="M50,1c27,0,49,22,49,49S77.1,99,50,99S1,77,1,50S23,1,50,1"/>
	</g>
	<g>
		<path style="fill:#0066B3;" d="M9.07,45.83h1.79v3.12h3.3v-3.12h1.79v8.14h-1.79v-3.52h-3.3v3.52H9.07V45.83z M17.19,49.89
			c0.09-1.52,1.46-1.97,2.78-1.97c1.17,0,2.6,0.27,2.6,1.68v3.07c0,0.54,0.07,1.08,0.2,1.32h-1.64c-0.07-0.18-0.11-0.38-0.11-0.56
			c-0.52,0.54-1.28,0.74-2,0.74c-1.12,0-2.02-0.56-2.02-1.77c0-1.35,1.01-1.66,2.02-1.79c0.99-0.16,1.93-0.11,1.93-0.78
			c0-0.69-0.47-0.81-1.05-0.81c-0.63,0-1.01,0.25-1.08,0.9h-1.64V49.89z M20.93,51.08c-0.27,0.25-0.85,0.25-1.35,0.34
			c-0.49,0.11-0.96,0.27-0.96,0.87s0.47,0.76,0.99,0.76c1.28,0,1.32-1.01,1.32-1.37C20.93,51.68,20.93,51.08,20.93,51.08z
			 M23.69,48.07h1.55v0.83h0.04c0.4-0.67,1.12-0.99,1.82-0.99c1.73,0,2.15,0.96,2.15,2.44v3.63h-1.61v-3.34
			c0-0.96-0.29-1.46-1.03-1.46c-0.87,0-1.26,0.49-1.26,1.68v3.09h-1.61v-5.9H23.69z M34.56,53.23h-0.02
			c-0.38,0.65-1.03,0.92-1.79,0.92c-1.77,0-2.65-1.52-2.65-3.16c0-1.59,0.87-3.07,2.62-3.07c0.69,0,1.39,0.29,1.75,0.87h0.02v-2.96
			h1.61v8.16h-1.55C34.56,53.99,34.56,53.23,34.56,53.23z M33.15,49.13c-1.05,0-1.43,0.92-1.43,1.88c0,0.92,0.43,1.91,1.43,1.91
			c1.08,0,1.39-0.94,1.39-1.91S34.21,49.13,33.15,49.13L33.15,49.13z M38.55,51.41c0.04,1.03,0.54,1.5,1.46,1.5
			c0.65,0,1.17-0.4,1.28-0.76h1.43c-0.45,1.39-1.43,2-2.76,2c-1.86,0-3.03-1.28-3.03-3.12c0-1.77,1.23-3.12,3.03-3.12
			c2.02,0,2.98,1.68,2.87,3.5H38.55L38.55,51.41L38.55,51.41z M41.2,50.38c-0.16-0.83-0.49-1.26-1.3-1.26
			c-1.03,0-1.32,0.81-1.35,1.26H41.2z M43.71,45.83h1.61v8.16h-1.61V45.83z M47.75,52.06c0.02,0.72,0.61,0.99,1.26,0.99
			c0.47,0,1.05-0.18,1.05-0.76c0-0.49-0.67-0.67-1.84-0.92c-0.94-0.2-1.88-0.54-1.88-1.57c0-1.5,1.3-1.91,2.58-1.91
			c1.3,0,2.49,0.43,2.6,1.88h-1.55c-0.04-0.63-0.52-0.81-1.1-0.81c-0.36,0-0.9,0.07-0.9,0.54c0,0.58,0.92,0.67,1.84,0.87
			c0.94,0.22,1.88,0.56,1.88,1.66c0,1.55-1.35,2.06-2.69,2.06c-1.37,0-2.71-0.52-2.78-2.08L47.75,52.06L47.75,52.06L47.75,52.06z
			 M52.52,45.83h1.61v2.96h0.02c0.4-0.61,1.12-0.87,1.86-0.87c1.17,0,2.44,0.94,2.44,3.12s-1.28,3.12-2.44,3.12
			c-0.87,0-1.59-0.27-1.95-0.92h-0.02v0.76H52.5L52.52,45.83L52.52,45.83L52.52,45.83z M55.46,49.13c-0.96,0-1.39,0.9-1.39,1.91
			c0,0.99,0.43,1.88,1.39,1.88c0.96,0,1.39-0.9,1.39-1.88S56.42,49.13,55.46,49.13z M59.32,49.89c0.09-1.52,1.46-1.97,2.78-1.97
			c1.17,0,2.6,0.27,2.6,1.68v3.07c0,0.54,0.07,1.08,0.2,1.32h-1.64c-0.07-0.18-0.11-0.38-0.11-0.56c-0.52,0.54-1.28,0.74-2,0.74
			c-1.12,0-2.02-0.56-2.02-1.77c0-1.35,1.01-1.66,2.02-1.79c0.99-0.16,1.93-0.11,1.93-0.78c0-0.69-0.47-0.81-1.05-0.81
			c-0.63,0-1.01,0.25-1.08,0.9h-1.64V49.89z M63.06,51.08c-0.27,0.25-0.85,0.25-1.35,0.34c-0.49,0.11-0.96,0.27-0.96,0.87
			s0.47,0.76,0.99,0.76c1.28,0,1.32-1.01,1.32-1.37L63.06,51.08L63.06,51.08L63.06,51.08z M65.82,48.07h1.55v0.83h0.04
			c0.4-0.67,1.12-0.99,1.82-0.99c1.73,0,2.15,0.96,2.15,2.44v3.63h-1.61v-3.34c0-0.96-0.29-1.46-1.03-1.46
			c-0.87,0-1.26,0.49-1.26,1.68v3.09h-1.61L65.82,48.07L65.82,48.07L65.82,48.07z M72.63,45.83h1.61v4.37l2.04-2.13h1.93L76,50.25
			l2.47,3.72h-1.95l-1.64-2.62l-0.63,0.61v2.02h-1.61L72.63,45.83L72.63,45.83z M80.25,51.41c0.04,1.03,0.54,1.5,1.46,1.5
			c0.65,0,1.17-0.4,1.28-0.76h1.43c-0.45,1.39-1.43,2-2.76,2c-1.86,0-3.03-1.28-3.03-3.12c0-1.77,1.23-3.12,3.03-3.12
			c2.02,0,2.98,1.68,2.87,3.5H80.25L80.25,51.41L80.25,51.41z M82.9,50.38c-0.16-0.83-0.49-1.26-1.3-1.26
			c-1.03,0-1.32,0.81-1.35,1.26H82.9z M85.37,48.07h1.55v0.83h0.04c0.4-0.67,1.12-0.99,1.82-0.99c1.73,0,2.15,0.96,2.15,2.44v3.63
			h-1.61v-3.34c0-0.96-0.29-1.46-1.03-1.46c-0.87,0-1.26,0.49-1.26,1.68v3.09h-1.61L85.37,48.07L85.37,48.07z"/>
	</g>
</g>
</svg>
