<?xml version="1.0" encoding="utf-8"?>
<!-- Generator: Adobe Illustrator 24.2.1, SVG Export Plug-In . SVG Version: 6.00 Build 0)  -->
<svg version="1.1" id="Layer_1" xmlns="http://www.w3.org/2000/svg" xmlns:xlink="http://www.w3.org/1999/xlink" x="0px" y="0px"
	 viewBox="0 0 365.1 37.2" style="enable-background:new 0 0 365.1 37.2;" xml:space="preserve">
<style type="text/css">
	.st0{fill:#0066B3;}
</style>
<g>
	<path class="st0" d="M0,0h8v13.9h14.7V0h8v36.3h-8V20.6H8v15.7H0V0z M36.2,18.1c0.4-6.8,6.5-8.8,12.4-8.8c5.2,0,11.6,1.2,11.6,7.5
		v13.7c0,2.4,0.3,4.8,0.9,5.9h-7.3c-0.3-0.8-0.5-1.7-0.5-2.5c-2.3,2.4-5.7,3.3-8.9,3.3c-5,0-9-2.5-9-7.9c0-6,4.5-7.4,9-8
		c4.4-0.7,8.6-0.5,8.6-3.5c0-3.1-2.1-3.6-4.7-3.6c-2.8,0-4.5,1.1-4.8,4h-7.3V18.1z M52.9,23.4c-1.2,1.1-3.8,1.1-6,1.5
		c-2.2,0.5-4.3,1.2-4.3,3.9s2.1,3.4,4.4,3.4c5.7,0,5.9-4.5,5.9-6.1C52.9,26.1,52.9,23.4,52.9,23.4z M65.2,10h6.9v3.7h0.2
		c1.8-3,5-4.4,8.1-4.4c7.7,0,9.6,4.3,9.6,10.9v16.2h-7.2V21.5c0-4.3-1.3-6.5-4.6-6.5c-3.9,0-5.6,2.2-5.6,7.5v13.8h-7.2V10H65.2z
		 M113.7,33h-0.1c-1.7,2.9-4.6,4.1-8,4.1c-7.9,0-11.8-6.8-11.8-14.1c0-7.1,3.9-13.7,11.7-13.7c3.1,0,6.2,1.3,7.8,3.9h0.1V0h7.2v36.4
		h-6.9C113.7,36.4,113.7,33,113.7,33z M107.4,14.7c-4.7,0-6.4,4.1-6.4,8.4c0,4.1,1.9,8.5,6.4,8.5c4.8,0,6.2-4.2,6.2-8.5
		S112.1,14.7,107.4,14.7L107.4,14.7z M131.5,24.9c0.2,4.6,2.4,6.7,6.5,6.7c2.9,0,5.2-1.8,5.7-3.4h6.4c-2,6.2-6.4,8.9-12.3,8.9
		c-8.3,0-13.5-5.7-13.5-13.9c0-7.9,5.5-13.9,13.5-13.9c9,0,13.3,7.5,12.8,15.6H131.5L131.5,24.9L131.5,24.9z M143.3,20.3
		c-0.7-3.7-2.2-5.6-5.8-5.6c-4.6,0-5.9,3.6-6,5.6H143.3z M154.5,0h7.2v36.4h-7.2V0z M172.5,27.8c0.1,3.2,2.7,4.4,5.6,4.4
		c2.1,0,4.7-0.8,4.7-3.4c0-2.2-3-3-8.2-4.1c-4.2-0.9-8.4-2.4-8.4-7c0-6.7,5.8-8.5,11.5-8.5c5.8,0,11.1,1.9,11.6,8.4h-6.9
		c-0.2-2.8-2.3-3.6-4.9-3.6c-1.6,0-4,0.3-4,2.4c0,2.6,4.1,3,8.2,3.9c4.2,1,8.4,2.5,8.4,7.4c0,6.9-6,9.2-12,9.2
		c-6.1,0-12.1-2.3-12.4-9.3L172.5,27.8L172.5,27.8L172.5,27.8z M193.8,0h7.2v13.2h0.1c1.8-2.7,5-3.9,8.3-3.9
		c5.2,0,10.9,4.2,10.9,13.9s-5.7,13.9-10.9,13.9c-3.9,0-7.1-1.2-8.7-4.1h-0.1v3.4h-6.9L193.8,0L193.8,0L193.8,0z M206.9,14.7
		c-4.3,0-6.2,4-6.2,8.5c0,4.4,1.9,8.4,6.2,8.4s6.2-4,6.2-8.4S211.2,14.7,206.9,14.7z M224.1,18.1c0.4-6.8,6.5-8.8,12.4-8.8
		c5.2,0,11.6,1.2,11.6,7.5v13.7c0,2.4,0.3,4.8,0.9,5.9h-7.3c-0.3-0.8-0.5-1.7-0.5-2.5c-2.3,2.4-5.7,3.3-8.9,3.3c-5,0-9-2.5-9-7.9
		c0-6,4.5-7.4,9-8c4.4-0.7,8.6-0.5,8.6-3.5c0-3.1-2.1-3.6-4.7-3.6c-2.8,0-4.5,1.1-4.8,4h-7.3V18.1z M240.8,23.4
		c-1.2,1.1-3.8,1.1-6,1.5c-2.2,0.5-4.3,1.2-4.3,3.9s2.1,3.4,4.4,3.4c5.7,0,5.9-4.5,5.9-6.1L240.8,23.4L240.8,23.4L240.8,23.4z
		 M253.1,10h6.9v3.7h0.2c1.8-3,5-4.4,8.1-4.4c7.7,0,9.6,4.3,9.6,10.9v16.2h-7.2V21.5c0-4.3-1.3-6.5-4.6-6.5c-3.9,0-5.6,2.2-5.6,7.5
		v13.8h-7.2L253.1,10L253.1,10L253.1,10z M283.5,0h7.2v19.5l9.1-9.5h8.6l-9.9,9.7l11,16.6h-8.7l-7.3-11.7l-2.8,2.7v9h-7.2L283.5,0
		L283.5,0z M317.5,24.9c0.2,4.6,2.4,6.7,6.5,6.7c2.9,0,5.2-1.8,5.7-3.4h6.4c-2,6.2-6.4,8.9-12.3,8.9c-8.3,0-13.5-5.7-13.5-13.9
		c0-7.9,5.5-13.9,13.5-13.9c9,0,13.3,7.5,12.8,15.6H317.5L317.5,24.9L317.5,24.9z M329.3,20.3c-0.7-3.7-2.2-5.6-5.8-5.6
		c-4.6,0-5.9,3.6-6,5.6H329.3z M340.3,10h6.9v3.7h0.2c1.8-3,5-4.4,8.1-4.4c7.7,0,9.6,4.3,9.6,10.9v16.2h-7.2V21.5
		c0-4.3-1.3-6.5-4.6-6.5c-3.9,0-5.6,2.2-5.6,7.5v13.8h-7.2L340.3,10L340.3,10z"/>
</g>
</svg>
