<svg version="1.1" id="Layer_1" xmlns="http://www.w3.org/2000/svg" x="0" y="0" viewBox="0 0 1024 404" xml:space="preserve"><style>.st0{fill:#0077c1}</style><path class="st0" d="M564.1 86.6h37.2L565 314l-14.1 78.3h-37.2l14.8-84.8-40.3-221h37.2l21.1 124.7 17.6-124.6zm120.2 32.3c0-2.8-1.6-6.1-4.8-7.7-2.6-1.4-5.3-2.1-8.8-2.1s-6.1.8-8.8 2.1c-3.2 1.6-4.8 4.9-4.8 7.7v132.6c0 2.8 1.6 6.1 4.8 7.7 2.7 1.3 5.3 2.1 8.8 2.1s6.1-.8 8.8-2.1c3.2-1.6 4.8-4.9 4.8-7.7V118.9zM619.1 12.8h38V87c4.9-1.4 9.7-2 13.6-2 4.6 0 8.7.2 14.9.7 9.7.8 17.1 2.8 25 8.1 7.8 5.4 11.7 15.4 11.7 22.7v137.6c0 7.3-3.9 17.3-11.7 22.7-7.8 5.4-15.3 7.4-25 8.1-6.2.5-10.3.6-14.9.6s-8.7-.1-14.9-.6c-9.7-.8-17.2-2.8-25-8.1-7.8-5.4-11.7-15.4-11.7-22.7V12.8zm-371.3 135c.4 46.4-7.3 89.5-23.1 130.8-23.4 2.8-39.9 4.5-62.5 5.3v-36c12.6-1.6 17.6-2 30.5-3.5 10.5-29.9 15.8-61.4 15.5-96.6.3-35.3-5-66.7-15.5-96.7-12.9-1.5-17.9-1.8-30.5-3.5v-36c22.6.8 39.1 2.5 62.5 5.3 15.8 41.5 23.5 84.6 23.1 130.9m-236.4 0c-.3-46.3 7.3-89.4 23.1-130.8 23.4-2.8 40.1-4.5 62.6-5.3v36c-12.6 1.7-17.8 2-30.7 3.5-10.5 29.9-15.8 61.4-15.5 96.7-.3 35.3 5 66.7 15.5 96.6 12.9 1.5 18.1 1.8 30.7 3.5v36c-22.6-.8-39.2-2.5-62.6-5.3-15.8-41.5-23.4-84.5-23.1-130.9M143.9 90c10.5.7 20.9 2 31.1 3.9-6.5 25.3-18.3 51.1-31.4 75.3 7.3 14.8 14.3 28 22.3 41.7-10.5 1.6-22.4 2.9-33 3.1-22.9-36.2-44.1-78.3-50.7-120.1 9.3-1.8 18.8-3.1 28.4-3.8 4.9 14.2 10.5 28.6 16.6 43.1 6.1-14.5 11.8-29 16.7-43.2m277.9 19.1c-3.5 0-6.1.8-8.8 2.1-3.2 1.6-4.8 4.9-4.8 7.7v164.5h-38.6V12.8h38v74.4c5.2-1.5 10.2-2.2 14.3-2.2 4.6 0 8.7.2 14.9.7 9.7.8 17.1 2.7 25 8.1 7.8 5.4 11.7 15.4 11.7 22.7v167h-38V118.9c0-2.8-1.6-6.1-4.8-7.7-2.8-1.3-5.4-2.1-8.9-2.1m425-96.3h38v24.6h-38V12.8zm0 73.8h38v196.8h-38V86.6zm61.6 50.9v-18.2c0-7.3 3.9-17.6 11.7-23.5s15.3-8.6 25-10c6.2-.9 10.3-1.5 14.9-1.5s8.8.6 15 1.5c9.7 1.5 17.1 4.2 24.9 10.2 7.8 5.9 11.7 16.2 11.7 23.5v23.2h-38v-24.4c0-2.8-1.6-6-4.8-7.7-2.6-1.3-5.3-2.1-8.8-2.1s-6.1.8-8.8 2.1c-3.2 1.7-4.8 4.9-4.8 7.7v13.5c0 45.1 66.2 33.9 66.2 102.5v14.3c0 7.8-5 20-12.8 26.1s-15.3 8.5-25 9.7c-6.2.8-10.3 1.2-14.9 1.2s-8.7-.5-14.9-1.2c-9.7-1.2-17.2-3.6-25-9.6-7.8-6.1-11.7-17-11.7-24.8v-22.1h38V251c0 2.8 1.6 6 4.8 7.7 2.7 1.4 5.3 2.1 8.8 2.1s6.5-.8 9.3-2.1c3.4-1.6 5.1-4.9 5.1-7.7v-12.6c.1-46.1-65.9-44.6-65.9-100.9M746.2 86.6h38v4.3c5.5-2.3 11.2-3.8 15.5-4.2 4.8-.4 8.1-.6 14.3-.5 4.4.1 8 .1 11.4.6v22.7c-3.5-1.7-8.4-3.1-13.7-3.3-7-.3-12.4.8-17.7 2.6-6.5 2.1-9.7 9.2-9.7 12.9v161.6h-38l-.1-196.7z"/></svg>