<?xml version="1.0" encoding="utf-8"?>
<!-- Generator: Adobe Illustrator 24.2.1, SVG Export Plug-In . SVG Version: 6.00 Build 0)  -->
<svg version="1.1" id="Layer_1" xmlns="http://www.w3.org/2000/svg" xmlns:xlink="http://www.w3.org/1999/xlink" x="0px" y="0px"
	 viewBox="0 0 400 108.5" style="enable-background:new 0 0 400 108.5;" xml:space="preserve">
<g>
	<path style="fill:#A391E0;" d="M88.9,21.4l-53.2,68h23.8l52.3-68C111.8,21.4,88.9,21.4,88.9,21.4z"/>
	<path style="fill:#283663;" d="M272.8,12.7h-18.3v20.1h-25V12.7h-18.3v20.1h-17v16h17v58h18.3v-58h25v58h18.3v-58h17v-16h-17V12.7z
		 M169.2,61.4h-31.5c0.6-8.5,7.7-15.1,16.3-14.9C163,46.5,168.8,53.1,169.2,61.4L169.2,61.4z M187.8,95.4l-11.2-11.1
		c-5,5.4-12,8.6-19.4,8.8c-10.6,0.4-19.6-7.7-20.4-18.3h52.7c2.3-26.5-14.4-43.7-35.8-43.7c-22,0-36.4,17.9-36.4,39
		c0,23.2,17.2,38.5,39.1,38.5C168.7,108.5,180.7,103.6,187.8,95.4L187.8,95.4L187.8,95.4z M316.2,106.8V2.3h-18.3v104.4L316.2,106.8
		z M21.9,106.8V35.5H3.6v71.3C3.6,106.8,21.9,106.8,21.9,106.8z M111.8,106.8V89.4H35.7v17.3C35.7,106.8,111.8,106.8,111.8,106.8z
		 M111.8,21.4V4.1H37.1v17.3L111.8,21.4z M0,12.7c0,7,5.7,12.7,12.7,12.7c7,0,12.7-5.7,12.7-12.7c0-7-5.7-12.7-12.7-12.7
		C5.7,0,0,5.7,0,12.7z M379.5,61.4H348c0.6-8.5,7.8-15.1,16.3-14.9C373.3,46.5,379.1,53.1,379.5,61.4L379.5,61.4z M398.1,95.4
		l-11.2-11.1c-5,5.4-12,8.6-19.4,8.8c-10.6,0.4-19.6-7.7-20.4-18.3h52.7c2.3-26.5-14.4-43.7-35.8-43.7c-22,0-36.4,17.9-36.4,39
		c0,23.2,17.3,38.5,39.1,38.5C379,108.5,391,103.6,398.1,95.4L398.1,95.4L398.1,95.4z"/>
</g>
</svg>
