<?xml version="1.0" encoding="utf-8"?>
<!-- Generator: Adobe Illustrator 24.2.1, SVG Export Plug-In . SVG Version: 6.00 Build 0)  -->
<svg version="1.1" id="Layer_1" xmlns="http://www.w3.org/2000/svg" xmlns:xlink="http://www.w3.org/1999/xlink" x="0px" y="0px"
	width="100px" height="100px" viewBox="0 0 100 100" style="enable-background:new 0 0 100 100;" xml:space="preserve">
<g>
	<g>
		<path style="fill:#E8E8E8;" d="M50,0c27.6,0,50,22.4,50,50s-22.4,50-50,50S0,77.6,0,50S22.4,0,50,0"/>
		<path style="fill:#FFFFFF;" d="M50,1c27,0,49,22,49,49S77.1,99,50,99S1,77,1,50S23,1,50,1"/>
		<path style="fill:#E8E8E8;" d="M50,0c27.6,0,50,22.4,50,50s-22.4,50-50,50S0,77.6,0,50S22.4,0,50,0"/>
		<path style="fill:#FFFFFF;" d="M50,1c27,0,49,22,49,49S77.1,99,50,99S1,77,1,50S23,1,50,1"/>
	</g>
	<g>
		<path style="fill:#ED5153;" d="M15.8,40.7l0.8,1.5c0.2,0.3,0.2,0.7,0,1L11.5,52l2.4,4.2c0.4,0.7,1.1,1.1,1.8,1.1s1.4-0.4,1.8-1.1
			L20,52l-0.6-1.1l-2.7,4.7c-0.2,0.3-0.5,0.5-0.8,0.5c-0.4,0-0.7-0.2-0.8-0.5L12.8,52l4.7-8.2l0.8,1.5c0.2,0.3,0.2,0.7,0,1L15.1,52
			l0.7,1.1l3.6-6.2l2.3,4.1c0.4,0.6,0.4,1.4,0,2l-2.4,4.2c-0.4,0.6-1.5,2-3.6,2s-3.2-1.4-3.6-2l-2.4-4.2c-0.4-0.6-0.4-1.4,0-2
			L15.8,40.7"/>
		<g transform="translate(102 25)">
			<path style="fill:#040707;" d="M-75.1,20.2h1.7v9.8h-1.7V20.2z"/>
			<circle style="fill:#040707;" cx="-71.2" cy="21" r="1"/>
			<path style="fill:#040707;" d="M-72.1,23.1h1.7v6.8h-1.7V23.1z M-66,23c-1.9,0-3.4,1.3-3.4,3.5s1.3,3.4,3.5,3.4
				c0.8,0,1.7,0.4,1.7,1.4c0,0.9-0.8,1.5-1.7,1.5c-1,0-1.8-0.6-1.8-1.5h-1.7c0,1.8,1.5,3,3.5,3c2,0,3.4-1.2,3.4-3
				c0-0.9-0.3-1.7-1.4-2.3c1.1-0.5,1.4-1.7,1.4-2.6C-62.6,24.3-64.1,23-66,23L-66,23z M-66,28.5c-1,0-1.8-0.8-1.8-2
				c0-1.2,0.8-2,1.8-2s1.7,0.9,1.7,2C-64.2,27.6-65,28.5-66,28.5L-66,28.5z M-57.7,23c-0.8,0-1.5,0.2-2.1,1v-3.9h-1.7v9.8h1.7v-3.4
				c0-1,0.7-1.8,1.7-1.8c0.9,0,1.5,0.5,1.5,1.7v3.5h1.7v-3.6C-54.9,24.3-55.8,23-57.7,23L-57.7,23z M-50.9,28.8
				c-0.2,0-0.4-0.1-0.5-0.2c-0.1-0.2-0.2-0.3-0.2-0.7v-3.3h1.4l0.2-1.4h-1.5v-1.9l-1.7,0.2v1.7h-1.3v1.4h1.3V28
				c0,0.7,0.2,1.2,0.5,1.6c0.3,0.4,0.8,0.5,1.4,0.5c0.3,0,0.6,0,0.8-0.1c0.3-0.1,0.5-0.2,0.8-0.4l-0.6-1.1
				C-50.4,28.7-50.6,28.8-50.9,28.8z M-44,26.3c-0.7-0.4-1.5-0.5-2.3-0.5c-0.5,0-1.2-0.2-1.2-0.7c0-0.4,0.5-0.7,1.2-0.7
				c0.7,0,1.2,0.2,1.7,0.6l0.9-1.1c-0.8-0.7-1.6-0.9-2.7-0.9c-1.2,0-2.9,0.5-2.9,2.1c0,0.7,0.3,1.2,0.9,1.6c0.6,0.4,1.4,0.5,2.2,0.5
				c0.5,0.1,1.3,0.2,1.1,0.8c-0.1,0.5-0.7,0.6-1.1,0.6c-0.4,0-0.8,0-1.3-0.1c-0.5-0.1-0.8-0.3-1.2-0.6l-0.8,1.1
				c0.1,0,0.1,0.1,0.1,0.1c1.1,0.9,2.6,1.2,4,0.9c1.1-0.2,1.9-1,1.9-2.1C-43.2,27.3-43.4,26.6-44,26.3L-44,26.3z M-38.4,23
				c-0.8,0-1.7,0.3-2.2,1.1l-0.1-0.9h-1.6v9.8l1.7-0.2v-3.6c0.5,0.7,1.5,1,2.2,1c2.2,0,3.4-1.6,3.4-3.6C-35,24.5-36.4,23-38.4,23
				L-38.4,23z M-38.6,28.7c-1.1,0-1.9-1.1-1.9-2.1c0-1.1,0.7-2.2,1.9-2.2c1.2,0,1.9,1.1,1.9,2.2C-36.6,27.6-37.4,28.7-38.6,28.7z
				 M-32.8,27.1c0.2,0.8,0.9,1.5,2.1,1.5c0.6,0,1.4-0.3,1.8-0.7l1.1,1.1c-0.7,0.7-1.9,1.1-2.9,1.1c-2.1,0-3.6-1.4-3.6-3.6
				c0-2,1.6-3.6,3.5-3.6c2,0,3.8,1.4,3.6,4.2L-32.8,27.1L-32.8,27.1z M-28.8,25.9c-0.2-0.8-1-1.5-2-1.5c-0.9,0-1.7,0.6-2,1.5H-28.8z
				 M-25,27.1c0.2,0.8,0.9,1.5,2.1,1.5c0.6,0,1.4-0.3,1.8-0.7L-20,29c-0.7,0.7-1.9,1.1-2.9,1.1c-2.1,0-3.6-1.4-3.6-3.6
				c0-2,1.6-3.6,3.5-3.6c2,0,3.8,1.4,3.6,4.2L-25,27.1L-25,27.1z M-21.1,25.9c-0.2-0.8-1-1.5-2-1.5c-0.9,0-1.7,0.6-2,1.5H-21.1z
				 M-15.4,30.1c0.8,0,1.7-0.3,2.2-1.1l0.1,0.9h1.6v-9.8h-1.7v3.8c-0.5-0.7-1.5-1-2.3-1c-2.2,0-3.4,1.6-3.4,3.6
				S-17.5,30.1-15.4,30.1L-15.4,30.1z M-15.3,24.4c1.1,0,1.9,1.1,1.9,2.1c0,1.1-0.7,2.2-1.9,2.2s-1.9-1.1-1.9-2.2
				C-17.2,25.5-16.4,24.4-15.3,24.4z"/>
		</g>
	</g>
</g>
</svg>
