<?xml version="1.0" encoding="utf-8"?>
<!-- Generator: Adobe Illustrator 24.2.1, SVG Export Plug-In . SVG Version: 6.00 Build 0)  -->
<svg version="1.1" id="Layer_1" xmlns="http://www.w3.org/2000/svg" xmlns:xlink="http://www.w3.org/1999/xlink" x="0px" y="0px"
	 viewBox="0 0 370 85.4" style="enable-background:new 0 0 370 85.4;" xml:space="preserve">
<style type="text/css">
	.st0{fill:#006C32;}
	.st1{fill:#231F20;}
	.st2{fill:#6D6E70;}
</style>
<g>
	<g>
		<path class="st0" d="M79.1,60.2c3.1-4.5,5.3-8.1,7.1-13.5H92c-2.7,6.8-5.8,12.2-10.3,18.2V74h-5.1v-9c-4.5-6.2-7.6-11.4-10.3-18.2
			h5.8C73.8,52.2,76,55.9,79.1,60.2 M131.9,58c-2.5-0.8-4-1.2-4.9-1.9c-1-0.6-1.2-1.3-1.2-2c0-1.1,0.6-1.9,1.6-2.4s2.3-0.6,3.4-0.6
			c1.8,0,3.8,0.4,5.9,1.1l1.7-4c-2.1-1.1-4.9-1.7-7.6-1.7c-2.8,0-5.2,0.6-6.9,1.9c-2.1,1.4-3.2,3.4-3.2,5.8c0,4.7,4,6.5,7.9,7.8
			c1.6,0.6,3.3,1,4.5,1.6c1.1,0.6,1.8,1.5,1.8,2.7c0,1.3-0.8,2.2-1.6,2.6c-1,0.6-2.5,0.8-4.1,0.8c-3.6,0-6.2-1.4-8.1-2.7l-1.8,4.1
			c2.4,1.8,6.2,3.1,10.1,3.1c6,0,10.5-3.2,10.5-8.3C140,61.5,136.3,59.3,131.9,58"/>
		<path class="st0" d="M103.8,69.3h-3.7V51.5h3.2c5.7,0,9.3,3.1,9.3,8.7C112.7,65.6,109.3,69.3,103.8,69.3 M103.3,46.8h-8.2v27.3
			h8.7c8,0,14-5.7,14-13.9C117.8,52.2,112.1,46.8,103.3,46.8 M165.2,70h-4.4v-7.9h4.5c3.9,0,5.9,1.1,5.9,3.8
			C171.3,69.5,167.8,70,165.2,70 M160.8,50.9h3.9c3.6,0,5.3,0.9,5.3,3.2s-1.7,3.7-4.9,3.7h-4.3V50.9L160.8,50.9z M170.2,59.7
			L170.2,59.7c2.9-1,4.7-3,4.7-6.2c0-4.8-4.2-6.7-8.3-6.7H156V74h9.9c5.1,0,10.3-2.1,10.3-7.8C176.1,62.5,173.8,60.2,170.2,59.7
			 M229.7,46.8h-4.8v19.7h-0.1l-11.5-19.7h-6.2v27.3h4.7V53.7h0.1l11.7,20.4h6.1L229.7,46.8z M245.5,59.9l12.6-13.1h-6.4L240.4,59
			h-0.2V46.8h-4.7v27.3h4.7V60.9h0.2l12.1,13.2h6.7L245.5,59.9z"/>
		<path class="st0" d="M21.1,74.1h15.3l1.6-4.9H26V46.8h-4.9V74.1z M0,74.1h15.3l1.7-4.9H5V46.8H0V74.1z M52.7,69.7
			c-5.5,0-8.7-4.1-8.7-9.2c0-5.2,3.2-9.2,8.7-9.2c5.6,0,8.8,4.2,8.8,9.3C61.4,65.6,58.2,69.7,52.7,69.7 M52.8,46.5
			c-8.3,0-13.9,6.2-13.9,13.9s5.3,13.9,13.8,13.9c8.3,0,13.9-6.2,13.9-13.9C66.5,52.7,61,46.5,52.8,46.5 M190.7,68.3
			c2,0,4-0.2,5.7-0.6l2.5,6.5h5.7L192.8,47h-4.1l-11.8,27.2h5.7l2.5-6.5C186.7,68.1,188.7,68.3,190.7,68.3 M190.7,64.1
			c-1.5,0-2.8-0.1-4.2-0.4l4.2-10.8l4.2,10.8C193.5,64,192.2,64.1,190.7,64.1"/>
	</g>
	<path class="st1" d="M366.2,44.6c1.9,1.4,3.8,2.4,3.8,4.5c0,0.6-0.8,1.3-2.6,1.3c-1.4,0-2.8-0.4-3.6-1.4c-0.6-0.7,0.2-1.8-0.2-2.5
		c-0.4-0.6-1.2-0.3-1.8-0.6c-0.6-0.4-0.7-0.6-1.2-1.6c-0.5-1.1-2.2-3-4.2-5c-1.7-1.7-3.5-2.6-4.3-2.5c-0.6,0.1-0.7,0.1-1.3,0.1
		c-1.5,0-2.7,1.4-4.8,2.3c-1.5,0.6-2.3,1-3.2,1.1l-0.3,0.4l1.9-0.1l5.8-0.2c1.8,0,2.7,1.6,3.4,3.3c1.4,3.4,3.4,8.3,5.9,12.5
		c1.2,1.9,2.2,3.2,2.2,5.6c0,0.7-0.1,1.8-1.1,1.8c-1.4,0-4.9-1.5-4.9-3c0-1.2,1-1.7,1-2.9c0-0.7-1.1-0.6-1.4-1.3
		c-0.9-3.6-1.9-7.3-4-9.5c-1.1-1.1-1.2-1.6-2.3-1.6c-0.6,0-1.1,0.2-1.6,0.3c-2.8,1.1-6.6,4.3-11.4,5.7c-1.8,0.6-2.1-0.5-4-0.2h0.2
		c-1.5,0.3-2.7,1.2-4.8,1.8c-2.8,0.8-7.8,1.2-11.8,0.6c-2.8-0.4-6.5-1-8-0.9c-1.2,3.4-3.7,7.9-7.5,9.7c-2,0.9-2.6,2.1-2,4.4
		c0.7,2.8,3.2,4.9,4.5,7.3c1.2,2,3.2,5.3,5.2,6.4s3.3,2.6,3.3,4c0,0.6-0.2,1-0.9,1h-4.1c-0.6,0-1-0.4-1.1-0.6c-0.6-1.1-0.2-2-1-3
		c-0.6-0.6-1-0.5-1.7-1.1c-1.2-1.2-0.3-1.9-1.2-3.4c-2.6-4.1-3.7-5.1-5.9-8.1c-1.2-1.5-2.8-2.4-2.8-4.4c0-2.5,2.5-2.9,2.4-5.4
		c-1.6,1.2-3.5,2.1-6.4,2.5c-0.4,0.1-1.4,0.8-1.8,1.3c-1,1-1.4,2-1.5,3.5c-0.3,3.4-1,6.8-0.6,10.2c0.6,2.2,1,2.9,2.8,4.1
		c1.1,0.7,2.4,1.8,2.6,3.4c0,0.4-0.2,1-0.7,1h-4.5c-0.4,0-0.8-0.3-1-0.6c-0.5-0.9-0.2-1.5-0.4-2.5c-0.4-2-2.8-1.9-2.8-4.1
		c0-0.6,0.4-1.5,0.4-2.8c0.2-2.8,1-7.5,0.2-13.1c-0.4-3.2,3-3.4,4.8-6.2c1.1-1.6,0.7-1,1.4-2.1c0.6-1.2,0.5-2.1,0.4-2.8
		c0-1-1-2.9-0.3-7c0.2-1.8,1.1-3.6,2.4-5.2c0-0.1,0-0.3-0.4-0.3c-1.8,0.2-1.8-0.3-2.9-0.3s-2,1-2.2,1.5c-0.6-0.2-0.8-0.9-0.8-1.2
		c0-0.6,0.2-1.2,0.7-1.8c0.2-0.2,0-0.4-0.3-0.4c-1.4,0-2.7,1.7-3,2.8c-0.8-0.2-0.9-1.2-1.2-1.2c-0.4,0-0.6,0.6-0.6,1.1
		c0,4,6.5,4.9,6.5,10.1c0,6.1-7.3,4.8-7.3,7c0,0.4,0.3,0.8,0.9,1.1c-0.2,0.6-0.9,0.8-1.5,0.8c-1.5,0-2.8-1.2-2.8-2.7
		c0,0,0-0.1,0-0.1c0-3.3,4.5-3.4,4.5-5.9c0-1.2-0.7-1.5-1.5-2.1c-4.2-3-6.6-6-6.6-10.9c0-5.3,3.7-9.4,8.5-9.4c7,0,7.2,8.1,13.5,8.8
		c2.4-1.6,5.2-2.6,7.9-2.6c4.1,0,5.9,1.1,10.3,1.1c1.8,0,4.7-0.5,8.2-2.9c1.3-0.9,1.9-1.1,3.1-2.1c2.8-2.4,5.3-7,5.3-10.3v0.2
		c0-1.1-0.2-1.7-0.7-1.7c-1.5,0-2.8,1.4-4.3,2.8c-1,1,0.5,1.5-1.6,2.6c-0.7,0.4-1.6-0.3-2.4-0.3c-1.7,0-2.4-2-2.4-3.7
		c0-0.9,0.6-1.1,1.1-1.9c0.9-1.7,0.8-2.4,1.6-4c0.5-1.1,1.4-1.9,1.3-2.7c0-0.3-0.2-0.5-0.2-0.8c0-1.7,2.3-2.8,2.3-4.5
		c0-1-1.1-1.4-1.3-2.1s-0.1-1-0.1-1c0.1-0.2,0.2-0.2,0.3-0.2c0.9,0,1.2,1,2,1.5c0.1-1.1-0.3-1.4-0.3-2.2c0-0.4-0.1-1.1,0.4-1.1
		c0.6,0,0.5,0.7,1,1.1c0.6,0.5,1.2,0.4,1.9,0.9c0.9,0.6,1.4,1.5,1.7,1.5c0.9,0.2,1.1-1,0.6-1.5c1-0.1,2,0.7,3.3,0.7
		c2,0,2.8,0.6,3.2,0.9c1.3,1.1,1.5,2,3,2c0.7,0,1.1-0.6,1.3-0.9c1,0.7,1.1,2.6,0,4.2c0.4,1.3,2.3,1.5,3.2,2.1s0.7,1,1.4,1.3
		c0.5,0.3,1,0.2,1.3,0c0.4,1.8-1.1,3.3-2.9,3.6c0.1,2.3,2.4,3.6,3.5,4.2c-0.6,1.4-1.8,1.8-2.8,2c0.3,1.4,1.8,3.4,1.1,5.2
		c-0.6-0.3-1.7,0-1.7,1c0,1.1,1.5,1.7-0.1,2.5c-0.6,0.4-0.8,1.4,0.4,2.4c1.6-0.4,3.2-0.4,5-0.4c1.1,0,2.6-0.3,3.6-0.3
		c1.9,0,3,0.7,4.4,2.3C359.5,37.9,362.6,41.9,366.2,44.6"/>
	<g>
		<path class="st2" d="M273.4,34.6c0.7,0,2.1-4.1,4.9-4.1c0.8,0,1,0.3,1,0.6c0,0.6-1,1.1-1,1.8c0,0.2,0.1,0.3,0.3,0.3
			c0.6,0,1.2-1.5,4-1.5c0.7,0,1.4,0.1,2,0.2c0.3,0.1,1,0.4,0.6-0.5c-0.6-1.9-2.8-3.7-5.8-3.7s-6.2,2.7-6.5,5.9
			C273.1,34.2,273.1,34.6,273.4,34.6 M325.3,8.8c-0.8-0.3-1-0.7-0.6-1.8c0.2-1.1,0.2-1.5-0.2-1.6c-0.4-0.2-1,0.2-1.5,0.7
			c-0.5,0.6-1.3,1.5-1.5,2.2c-0.2,0.9,0.8,0.7,0.1,2.2l-2.3,4.5c-0.6,1.8-1,2-1.3,2.6c-0.4,0.5,0.5,0.6,1.5,0.2
			c1.1-0.4,1.1,0.9,0.7,1.8c-0.3,0.6-0.1,0.9,0.8,0.2c0.8-0.6-0.4-1.1-0.2-3.2c0.3-1.8,0.6-2.8,1.8-4.6c1-1.5,1.8-2.7,3.4-2.1
			C326.5,10.3,326.2,9.2,325.3,8.8 M360,61.9c0.3,0,0.4-0.4,0.4-0.8c0-0.9-0.5-2.2-1.2-2.8c-0.2,1.3-0.8,2.2-0.8,2.8
			C358.4,61.5,359.6,61.9,360,61.9 M367.8,49.4c0.5,0,1.2-0.2,1.2-0.6c0-0.7-1.1-2-2.1-2.4C367.6,47.7,366.9,49.4,367.8,49.4"/>
		<path class="st2" d="M333.4,32.3c7.1,3.2,6.6,9.2,7.2,7.7c0.2-0.6,1.2-3.6-1.3-6.4c-1.9-2.3-2.7-1.7-1.9-3.6
			c3.1-7.5,5-18.7-4.2-22.6c-1.1-0.4-1.9-0.4-1.9-0.2s1,0.5,2.2,1.3c6.2,4.1,4.2,15.2-1.4,20.5C330.3,30.8,331.2,31.2,333.4,32.3
			 M309.3,84.1c0.5,0,0.2-0.7,0.1-1.1c-0.4-0.7-1.2-1.2-1.9-1.5c0.2,0.7,0.2,2.6,1,2.6H309.3 M288,84.1c0.5,0,0.2-0.7-0.1-1.1
			c-0.4-0.7-1.3-1.2-2-1.5c0.2,0.7,0.3,2.6,1.1,2.6H288 M313.8,41.8c3.9-0.4,4.5-1.3,5.2-4.2c0.3-1.4,1.3-2.8,2.2-3.7
			c0.6-0.6,1.1-1.1,1.7-2c0.2-0.4,0.3-0.6,0-0.6c-0.4,0.3-1.8,1.2-2.4,1.6c-2.8,1.9-7,2.8-8.6,2.8c-3.6,0-6.6-1.1-9.9-1.1
			c-9.7,0-13.4,7.6-12.9,12.1c0.1,0.7,0.2,0.7,0.4,0.7c0.6,0,1.3-2.6,3.7-4.9c3.6-3.4,7.5-5.3,13-5.3c4,0,5.7,1.3,5.7,1.8
			c0,1-1.7,1.1-1.5,2C310.3,41.3,311.2,42.1,313.8,41.8"/>
	</g>
</g>
</svg>
