<?xml version="1.0" encoding="utf-8"?>
<!-- Generator: Adobe Illustrator 24.2.1, SVG Export Plug-In . SVG Version: 6.00 Build 0)  -->
<svg version="1.1" id="Layer_1" xmlns="http://www.w3.org/2000/svg" xmlns:xlink="http://www.w3.org/1999/xlink" x="0px" y="0px"
	 viewBox="0 0 365 112.1" style="enable-background:new 0 0 365 112.1;" xml:space="preserve">
<style type="text/css">
	.st0{fill:#006BB6;}
</style>
<g>
	<path class="st0" d="M22.5,28.8v12.6h0.3c4.2-9.7,12.1-14.2,22.7-14.2c10.8,0,17.6,4.5,22.4,14.2c4.2-9.7,13.7-14.2,23.8-14.2
		c7.2,0,15.1,2.6,20,8.4c5.5,6.5,4.3,15.8,4.3,24v51H92.3V67.3c0-3.2,0.3-11.3-0.5-14.3c-1.3-5.2-5.2-6.6-10.1-6.6
		c-4.2,0-8.6,2.4-10.3,6.3c-1.8,3.9-1.6,10.3-1.6,14.6v43.3H46.1V67.3c0-8.5,1.6-21.1-10.6-21.1c-12.4,0-11.9,12.2-11.9,21.1v43.3H0
		V28.8H22.5z M151.1,76.2c0,4.5,0.1,9.6,2.7,13.7c2.3,3.5,5.6,5.6,10,5.6c13.4,0,13.4-17.1,13.4-25.9c0-9.2,0-26.3-13-26.3
		c-11.4,0-13,12.4-13,21.1L151.1,76.2L151.1,76.2z M127.1,0h23.7v39h0.6c4-8.1,10.8-11.9,20-11.9c23.4,0,30.4,23.2,30.4,42.5
		c0,21.4-8.5,42.5-33.2,42.5c-11.7,0-17.4-4.4-23.3-14.2c-2.9,3.5-3.9,8.2-5.3,12.6h-12.9L127.1,0L127.1,0z M209.5,28.8h22.4v13.9
		h0.3c4.9-10.5,11.6-15.5,23.5-15.5c7.7,0,15.3,2.4,20.1,9c4.5,6.1,4.5,16.4,4.5,23.8v50.6h-23.7V66.7c0-8.4,1.2-20.6-10.8-20.6
		c-4.2,0-8,2.4-10,6.1c-2.4,4.7-2.7,9.4-2.7,14.5v43.9h-23.6V28.8L209.5,28.8z M339.2,71.4c-9,1-25.6,3-25.6,15
		c0,6.4,3.9,10.8,10.5,10.8c4.8,0,9.2-2.6,11.9-6.8c3.4-5.2,3.2-10,3.2-15.8V71.4z M341.5,110.5c-1-4.2-1.3-8.5-1.1-12.7
		c-6.8,9.7-13.9,14.3-26.1,14.3c-14.5,0-25.8-7.7-25.8-23.2c0-12.1,7.6-20.3,18.4-24.3c9.3-3.5,22.4-4.2,32.4-5.1v-2
		c0-3.5,0.3-7.7-2.1-10.8c-2.1-2.8-6.1-3.9-9.7-3.9c-7.6,0-14.2,3.9-14.2,11.9l-22.4-2.1c2.4-19.8,21.7-25.6,39-25.6
		c8.4,0,19.3,1.9,25.9,7.4c8.4,6.8,7.6,15.8,7.6,25.6v38.2c0,4.2,0.3,8.2,1.6,12.2h-23.5V110.5z"/>
</g>
</svg>
