<?xml version="1.0" encoding="utf-8"?>
<!-- Generator: Adobe Illustrator 24.2.1, SVG Export Plug-In . SVG Version: 6.00 Build 0)  -->
<svg version="1.1" id="Layer_1" xmlns="http://www.w3.org/2000/svg" xmlns:xlink="http://www.w3.org/1999/xlink" x="0px" y="0px"
	width="100px" height="100px" viewBox="0 0 100 100" style="enable-background:new 0 0 100 100;" xml:space="preserve">
<g>
	<g>
		<path style="fill:#E8E8E8;" d="M50,0c27.6,0,50,22.4,50,50s-22.4,50-50,50S0,77.6,0,50S22.4,0,50,0"/>
		<path style="fill:#FFFFFF;" d="M50,1c27,0,49,22,49,49S77.1,99,50,99S1,77,1,50S23,1,50,1"/>
	</g>
	<g>
		<path style="fill:#E8E8E8;" d="M50,0c27.6,0,50,22.4,50,50s-22.4,50-50,50S0,77.6,0,50S22.4,0,50,0"/>
		<path style="fill:#FFFFFF;" d="M50,1c27,0,49,22,49,49S77.1,99,50,99S1,77,1,50S23,1,50,1"/>
	</g>
	<g>
		<polygon style="fill-rule:evenodd;clip-rule:evenodd;fill:#18264E;" points="8,45.3 8,63.2 24.4,54.3 24.4,46.2 8.7,62.3 
			13.3,48.7 		"/>
		<polygon style="fill-rule:evenodd;clip-rule:evenodd;fill:#18264E;" points="8,44.1 8,36.8 23.8,45.4 18.5,49.2 		"/>
		<path style="fill-rule:evenodd;clip-rule:evenodd;fill:#18264E;" d="M29,48.8v6.9h1.3c0.6,0,1.1-0.1,1.5-0.2
			c0.4-0.2,0.8-0.4,1.1-0.7c0.3-0.3,0.6-0.7,0.7-1.1c0.2-0.4,0.2-0.9,0.2-1.5c0-2.2-1.2-3.3-3.5-3.3L29,48.8L29,48.8L29,48.8
			L29,48.8z M28.2,56.4v-8.3h2.2c1.4,0,2.5,0.3,3.2,1c0.7,0.7,1.1,1.7,1.1,3c0,0.6-0.1,1.2-0.3,1.7c-0.2,0.5-0.5,1-0.9,1.3
			c-0.4,0.4-0.8,0.7-1.4,0.9c-0.5,0.2-1.2,0.3-1.8,0.3L28.2,56.4L28.2,56.4L28.2,56.4L28.2,56.4z"/>
		<path style="fill-rule:evenodd;clip-rule:evenodd;fill:#18264E;" d="M37.5,57.5c-0.2,0.6-0.5,1-0.8,1.3c-0.3,0.3-0.7,0.4-1.1,0.4
			c-0.2,0-0.4,0-0.5-0.1v-0.7c0.1,0,0.2,0.1,0.3,0.1c0.1,0,0.2,0,0.3,0c0.2,0,0.5-0.1,0.6-0.2c0.2-0.2,0.3-0.4,0.5-0.7l0.5-1.2
			l-2.3-5.9h0.8l1.7,4.7c0,0.1,0,0.1,0.1,0.2c0,0.1,0,0.2,0.1,0.2h0c0-0.1,0-0.1,0.1-0.2c0-0.1,0-0.1,0.1-0.2l1.8-4.7h0.8L37.5,57.5
			z"/>
		<path style="fill-rule:evenodd;clip-rule:evenodd;fill:#18264E;" d="M44.8,56.4V53c0-1.3-0.5-2-1.4-2c-0.3,0-0.5,0-0.7,0.2
			c-0.2,0.1-0.4,0.2-0.6,0.4c-0.2,0.2-0.3,0.4-0.4,0.6c-0.1,0.2-0.1,0.5-0.1,0.8v3.4h-0.7v-5.9h0.7v1h0c0.4-0.8,1.1-1.2,2-1.2
			c0.6,0,1.1,0.2,1.5,0.6c0.3,0.4,0.5,1,0.5,1.8v3.6L44.8,56.4L44.8,56.4z"/>
		<path style="fill-rule:evenodd;clip-rule:evenodd;fill:#18264E;" d="M48.6,53.5c-0.3,0-0.5,0.1-0.7,0.1c-0.2,0.1-0.3,0.1-0.5,0.2
			c-0.1,0.1-0.2,0.2-0.3,0.4c-0.1,0.1-0.1,0.3-0.1,0.5c0,0.2,0,0.3,0.1,0.4c0.1,0.1,0.1,0.2,0.2,0.3c0.1,0.1,0.2,0.2,0.4,0.2
			c0.1,0.1,0.3,0.1,0.5,0.1c0.3,0,0.5,0,0.7-0.2c0.2-0.1,0.4-0.2,0.6-0.4c0.2-0.2,0.3-0.4,0.4-0.6c0.1-0.2,0.1-0.5,0.1-0.8v-0.6
			L48.6,53.5z M50.1,56.4v-1.1h0c-0.2,0.4-0.5,0.7-0.8,0.9c-0.3,0.2-0.7,0.3-1.1,0.3c-0.3,0-0.5,0-0.8-0.1c-0.2-0.1-0.4-0.2-0.6-0.3
			c-0.2-0.1-0.3-0.3-0.4-0.5c-0.1-0.2-0.1-0.4-0.1-0.7c0-0.5,0.2-1,0.5-1.3c0.3-0.3,0.8-0.5,1.5-0.6l1.8-0.3c0-1.1-0.4-1.7-1.3-1.7
			c-0.7,0-1.3,0.3-1.9,0.8v-0.8c0.1-0.1,0.3-0.2,0.4-0.2c0.2-0.1,0.3-0.1,0.5-0.2c0.2-0.1,0.3-0.1,0.5-0.1c0.2,0,0.4,0,0.5,0
			c0.7,0,1.1,0.2,1.5,0.6c0.3,0.4,0.5,0.9,0.5,1.7v3.8L50.1,56.4L50.1,56.4L50.1,56.4L50.1,56.4z"/>
		<path style="fill-rule:evenodd;clip-rule:evenodd;fill:#18264E;" d="M59.4,56.4v-3.5c0-0.4,0-0.7-0.1-0.9
			c-0.1-0.2-0.1-0.4-0.2-0.6c-0.1-0.2-0.3-0.3-0.4-0.3C58.5,51,58.3,51,58,51c-0.2,0-0.4,0-0.6,0.2c-0.2,0.1-0.4,0.2-0.5,0.4
			c-0.1,0.2-0.3,0.4-0.3,0.6c-0.1,0.2-0.1,0.5-0.1,0.8v3.4h-0.7v-3.5c0-1.2-0.5-1.9-1.4-1.9c-0.2,0-0.4,0-0.6,0.1
			c-0.2,0.1-0.4,0.2-0.5,0.4c-0.1,0.2-0.2,0.4-0.3,0.6c-0.1,0.2-0.1,0.5-0.1,0.8v3.4H52v-5.9h0.7v1h0c0.4-0.7,1-1.1,1.8-1.1
			c0.2,0,0.4,0,0.6,0.1c0.2,0.1,0.3,0.2,0.5,0.3c0.1,0.1,0.3,0.3,0.4,0.4c0.1,0.2,0.2,0.3,0.2,0.5c0.2-0.4,0.5-0.7,0.8-1
			c0.3-0.2,0.7-0.3,1.1-0.3c1.3,0,1.9,0.8,1.9,2.4v3.6L59.4,56.4L59.4,56.4L59.4,56.4L59.4,56.4z"/>
		<path style="fill-rule:evenodd;clip-rule:evenodd;fill:#18264E;" d="M61.3,50.5H62v5.9h-0.7V50.5z M61.7,49c-0.1,0-0.3,0-0.4-0.2
			c-0.1-0.1-0.2-0.2-0.2-0.4c0-0.2,0.1-0.3,0.2-0.4c0.1-0.1,0.2-0.1,0.4-0.1c0.1,0,0.1,0,0.2,0c0.1,0,0.1,0.1,0.2,0.1
			c0,0,0.1,0.1,0.1,0.2c0,0.1,0,0.1,0,0.2c0,0.1,0,0.1,0,0.2c0,0.1-0.1,0.1-0.1,0.2c0,0-0.1,0.1-0.2,0.1C61.8,49,61.8,49,61.7,49"/>
		<path style="fill-rule:evenodd;clip-rule:evenodd;fill:#18264E;" d="M67.2,56.1c-0.4,0.3-1,0.4-1.6,0.4c-0.4,0-0.8-0.1-1.1-0.2
			c-0.3-0.2-0.6-0.4-0.9-0.6c-0.2-0.3-0.4-0.6-0.5-0.9c-0.1-0.4-0.2-0.8-0.2-1.2c0-0.4,0.1-0.9,0.2-1.2c0.1-0.4,0.3-0.7,0.6-1
			c0.3-0.3,0.6-0.5,0.9-0.7c0.4-0.2,0.8-0.3,1.3-0.3c0.5,0,0.9,0.1,1.3,0.3v0.8c-0.4-0.3-0.9-0.4-1.4-0.4c-0.3,0-0.7,0.1-0.9,0.2
			c-0.3,0.1-0.5,0.3-0.7,0.5c-0.2,0.2-0.3,0.5-0.4,0.8c-0.1,0.3-0.1,0.6-0.1,1c0,0.3,0,0.6,0.1,0.9c0.1,0.3,0.2,0.5,0.4,0.8
			c0.2,0.2,0.4,0.4,0.6,0.5c0.3,0.1,0.6,0.2,0.9,0.2c0.6,0,1-0.2,1.5-0.5L67.2,56.1L67.2,56.1L67.2,56.1z"/>
		<path style="fill-rule:evenodd;clip-rule:evenodd;fill:#18264E;" d="M67.8,55.3c0.1,0.1,0.2,0.2,0.4,0.2c0.1,0.1,0.3,0.1,0.4,0.2
			c0.1,0,0.3,0.1,0.4,0.1c0.1,0,0.3,0,0.4,0c0.9,0,1.3-0.3,1.3-1c0-0.2,0-0.3-0.1-0.4c-0.1-0.1-0.2-0.2-0.3-0.3
			c-0.1-0.1-0.3-0.2-0.4-0.2c-0.2-0.1-0.3-0.2-0.6-0.2c-0.3-0.1-0.5-0.2-0.7-0.3c-0.2-0.1-0.4-0.2-0.5-0.4c-0.1-0.1-0.2-0.3-0.3-0.5
			c-0.1-0.2-0.1-0.3-0.1-0.6c0-0.3,0.1-0.5,0.2-0.7c0.1-0.2,0.3-0.4,0.5-0.5c0.2-0.1,0.4-0.2,0.7-0.3c0.3-0.1,0.5-0.1,0.8-0.1
			c0.5,0,1,0.1,1.3,0.3v0.8c-0.4-0.3-0.9-0.4-1.4-0.4c-0.2,0-0.4,0-0.5,0.1c-0.2,0-0.3,0.1-0.4,0.2c-0.1,0.1-0.2,0.2-0.3,0.3
			c-0.1,0.1-0.1,0.2-0.1,0.4c0,0.1,0,0.3,0.1,0.4c0,0.1,0.1,0.2,0.2,0.3c0.1,0.1,0.2,0.2,0.4,0.3c0.2,0.1,0.3,0.2,0.6,0.3
			c0.3,0.1,0.5,0.2,0.7,0.3c0.2,0.1,0.4,0.2,0.5,0.4c0.1,0.1,0.2,0.3,0.3,0.4c0.1,0.2,0.1,0.4,0.1,0.6c0,0.3-0.1,0.5-0.2,0.7
			c-0.1,0.2-0.3,0.4-0.5,0.5c-0.2,0.1-0.4,0.2-0.7,0.3c-0.3,0.1-0.5,0.1-0.9,0.1c-0.6,0-1.1-0.1-1.5-0.4L67.8,55.3L67.8,55.3
			L67.8,55.3L67.8,55.3z"/>
		<path style="fill-rule:evenodd;clip-rule:evenodd;fill:#18264E;" d="M75.3,56.1v-1.3c0.5,0.4,1.1,0.6,1.8,0.6c0.6,0,1-0.1,1.3-0.4
			c0.3-0.2,0.5-0.6,0.5-1c0-0.9-0.7-1.4-2.2-1.4h-0.6v-1.1h0.6c1.3,0,1.9-0.4,1.9-1.3c0-0.8-0.5-1.2-1.5-1.2c-0.6,0-1.1,0.2-1.6,0.6
			v-1.2c0.6-0.3,1.2-0.5,2-0.5c0.7,0,1.3,0.2,1.8,0.6S80,49.4,80,50c0,1.1-0.6,1.8-1.7,2.1v0c0.6,0.1,1.1,0.3,1.4,0.6
			c0.3,0.4,0.5,0.8,0.5,1.3c0,0.7-0.3,1.3-0.8,1.8c-0.6,0.5-1.3,0.7-2.2,0.7C76.4,56.5,75.8,56.4,75.3,56.1"/>
		<path style="fill-rule:evenodd;clip-rule:evenodd;fill:#18264E;" d="M85.2,53.8c0-0.2,0-0.5-0.1-0.7c-0.1-0.2-0.1-0.4-0.3-0.5
			c-0.1-0.1-0.3-0.2-0.4-0.3c-0.2-0.1-0.4-0.1-0.6-0.1c-0.2,0-0.4,0-0.6,0.1c-0.2,0.1-0.3,0.2-0.4,0.3c-0.1,0.1-0.2,0.3-0.3,0.5
			c-0.1,0.2-0.1,0.3-0.1,0.5c0,0.2,0,0.4,0.1,0.6c0.1,0.2,0.1,0.4,0.3,0.6c0.1,0.2,0.3,0.3,0.4,0.4c0.2,0.1,0.4,0.2,0.6,0.2
			c0.2,0,0.4,0,0.6-0.1c0.2-0.1,0.3-0.2,0.4-0.3c0.1-0.1,0.2-0.3,0.3-0.5C85.1,54.3,85.2,54.1,85.2,53.8 M86.5,53.7
			c0,0.4-0.1,0.8-0.2,1.1c-0.1,0.3-0.3,0.6-0.6,0.9c-0.2,0.2-0.5,0.4-0.9,0.6c-0.3,0.1-0.7,0.2-1.1,0.2c-0.4,0-0.8-0.1-1.1-0.2
			c-0.3-0.2-0.7-0.4-0.9-0.7c-0.3-0.3-0.4-0.7-0.6-1.2c-0.1-0.5-0.2-1-0.2-1.7c0-0.8,0.1-1.4,0.3-2c0.2-0.6,0.4-1.1,0.8-1.5
			c0.3-0.4,0.7-0.7,1.1-0.9c0.4-0.2,0.9-0.3,1.4-0.3c0.3,0,0.6,0,0.9,0.1c0.3,0,0.5,0.1,0.6,0.2v1.2c-0.2-0.1-0.4-0.2-0.6-0.3
			c-0.2-0.1-0.5-0.1-0.8-0.1c-0.3,0-0.6,0.1-0.9,0.2c-0.3,0.1-0.5,0.3-0.7,0.6c-0.2,0.2-0.4,0.6-0.5,0.9c-0.1,0.4-0.2,0.8-0.2,1.3h0
			c0.2-0.3,0.4-0.5,0.7-0.6c0.3-0.2,0.7-0.2,1.1-0.2c0.4,0,0.7,0.1,1,0.2c0.3,0.1,0.5,0.3,0.7,0.5c0.2,0.2,0.4,0.5,0.5,0.8
			C86.5,53,86.5,53.3,86.5,53.7"/>
		<path style="fill-rule:evenodd;clip-rule:evenodd;fill:#18264E;" d="M87.1,56.2v-1.3c0.5,0.4,1.1,0.5,1.7,0.5c0.6,0,1-0.1,1.4-0.4
			c0.3-0.3,0.5-0.7,0.5-1.1c0-0.5-0.2-0.8-0.5-1.1c-0.3-0.3-0.8-0.4-1.5-0.4c-0.2,0-0.7,0-1.4,0.1l0.3-4.3h4.1v1.1h-3l-0.1,2.1
			c0.3,0,0.5,0,0.7,0c0.9,0,1.6,0.2,2,0.7c0.5,0.5,0.7,1.1,0.7,1.8c0,0.8-0.3,1.5-0.8,2c-0.6,0.5-1.3,0.7-2.3,0.7
			C88.1,56.5,87.5,56.4,87.1,56.2"/>
		<path style="fill-rule:evenodd;clip-rule:evenodd;fill:#18264E;" d="M32.3,47V44c0-0.2,0-0.4,0-0.8h0c0,0.1-0.1,0.2-0.1,0.2
			c0,0.1,0,0.1-0.1,0.2L30.6,47h-0.2l-1.5-3.4c0-0.1-0.1-0.2-0.1-0.4h0c0,0.1,0,0.2,0,0.3c0,0.1,0,0.3,0,0.4V47h-0.4v-4.4h0.5
			l1.5,3.3c0,0.1,0.1,0.1,0.1,0.2c0,0.1,0.1,0.2,0.1,0.2h0c0-0.1,0.1-0.2,0.1-0.2c0-0.1,0.1-0.1,0.1-0.2l1.5-3.3h0.5V47L32.3,47
			L32.3,47L32.3,47L32.3,47z"/>
		<path style="fill-rule:evenodd;clip-rule:evenodd;fill:#18264E;" d="M33.5,43.9h0.4V47h-0.4V43.9z M33.7,43.1
			c-0.1,0-0.1,0-0.2-0.1c-0.1-0.1-0.1-0.1-0.1-0.2c0-0.1,0-0.1,0.1-0.2c0.1-0.1,0.1-0.1,0.2-0.1c0,0,0.1,0,0.1,0c0,0,0.1,0,0.1,0.1
			c0,0,0,0.1,0.1,0.1c0,0,0,0.1,0,0.1c0,0,0,0.1,0,0.1c0,0,0,0.1-0.1,0.1c0,0-0.1,0-0.1,0.1C33.7,43.1,33.7,43.1,33.7,43.1"/>
		<path style="fill-rule:evenodd;clip-rule:evenodd;fill:#18264E;" d="M36.6,46.9c-0.2,0.1-0.5,0.2-0.9,0.2c-0.2,0-0.4,0-0.6-0.1
			c-0.2-0.1-0.3-0.2-0.5-0.3c-0.1-0.1-0.2-0.3-0.3-0.5c-0.1-0.2-0.1-0.4-0.1-0.6c0-0.2,0-0.5,0.1-0.7c0.1-0.2,0.2-0.4,0.3-0.5
			c0.1-0.2,0.3-0.3,0.5-0.4c0.2-0.1,0.4-0.1,0.7-0.1c0.3,0,0.5,0,0.7,0.1v0.4c-0.2-0.2-0.5-0.2-0.7-0.2c-0.2,0-0.4,0-0.5,0.1
			c-0.1,0.1-0.3,0.2-0.4,0.3c-0.1,0.1-0.2,0.3-0.2,0.4c-0.1,0.2-0.1,0.3-0.1,0.5c0,0.2,0,0.3,0.1,0.5c0,0.1,0.1,0.3,0.2,0.4
			c0.1,0.1,0.2,0.2,0.3,0.3c0.1,0.1,0.3,0.1,0.5,0.1c0.3,0,0.6-0.1,0.8-0.3L36.6,46.9z"/>
		<path style="fill-rule:evenodd;clip-rule:evenodd;fill:#18264E;" d="M38.5,44.3c-0.1-0.1-0.2-0.1-0.4-0.1c-0.1,0-0.2,0-0.3,0.1
			c-0.1,0-0.1,0.1-0.2,0.2c-0.1,0.1-0.1,0.1-0.1,0.2c0,0.1-0.1,0.2-0.1,0.3c0,0.1,0,0.2-0.1,0.3c0,0.1,0,0.2,0,0.3V47H37v-3.1h0.4
			v0.7h0c0-0.1,0.1-0.2,0.1-0.3c0.1-0.1,0.1-0.2,0.2-0.2c0.1-0.1,0.2-0.1,0.2-0.1c0.1,0,0.2,0,0.3,0c0.1,0,0.1,0,0.2,0
			c0,0,0.1,0,0.1,0L38.5,44.3L38.5,44.3L38.5,44.3L38.5,44.3z"/>
		<path style="fill-rule:evenodd;clip-rule:evenodd;fill:#18264E;" d="M40.1,44.1c-0.2,0-0.3,0-0.5,0.1c-0.1,0.1-0.3,0.1-0.4,0.3
			c-0.1,0.1-0.2,0.3-0.2,0.4C39,45.1,39,45.3,39,45.5c0,0.2,0,0.4,0.1,0.5c0.1,0.2,0.1,0.3,0.2,0.4c0.1,0.1,0.2,0.2,0.4,0.3
			c0.1,0.1,0.3,0.1,0.5,0.1c0.2,0,0.3,0,0.5-0.1c0.1-0.1,0.2-0.1,0.3-0.3c0.1-0.1,0.2-0.2,0.2-0.4c0-0.2,0.1-0.3,0.1-0.5
			c0-0.4-0.1-0.7-0.3-1C40.7,44.3,40.5,44.1,40.1,44.1 M40.1,47.1c-0.2,0-0.4,0-0.6-0.1c-0.2-0.1-0.3-0.2-0.5-0.3
			c-0.1-0.1-0.2-0.3-0.3-0.5c-0.1-0.2-0.1-0.4-0.1-0.7c0-0.3,0-0.5,0.1-0.7c0.1-0.2,0.2-0.4,0.3-0.5c0.1-0.1,0.3-0.3,0.5-0.3
			c0.2-0.1,0.4-0.1,0.6-0.1c0.2,0,0.4,0,0.6,0.1c0.2,0.1,0.3,0.2,0.5,0.3c0.1,0.1,0.2,0.3,0.3,0.5c0.1,0.2,0.1,0.4,0.1,0.7
			c0,0.2,0,0.5-0.1,0.7c-0.1,0.2-0.2,0.4-0.3,0.5c-0.1,0.1-0.3,0.3-0.5,0.3C40.5,47,40.3,47.1,40.1,47.1"/>
		<path style="fill-rule:evenodd;clip-rule:evenodd;fill:#18264E;" d="M41.9,46.4c0.1,0,0.1,0.1,0.2,0.1c0.1,0,0.1,0.1,0.2,0.1
			c0.1,0,0.1,0,0.2,0.1c0.1,0,0.1,0,0.2,0c0.5,0,0.7-0.2,0.7-0.5c0-0.1,0-0.1,0-0.2c0-0.1-0.1-0.1-0.1-0.2c-0.1,0-0.1-0.1-0.2-0.1
			c-0.1,0-0.2-0.1-0.3-0.1c-0.1-0.1-0.3-0.1-0.4-0.2c-0.1-0.1-0.2-0.1-0.3-0.2C42,45.1,42,45,41.9,45c0-0.1,0-0.2,0-0.3
			c0-0.1,0-0.3,0.1-0.4c0.1-0.1,0.1-0.2,0.2-0.3c0.1-0.1,0.2-0.1,0.4-0.2c0.1,0,0.3-0.1,0.4-0.1c0.3,0,0.5,0,0.7,0.2v0.4
			c-0.2-0.2-0.5-0.2-0.8-0.2c-0.1,0-0.2,0-0.3,0c-0.1,0-0.2,0.1-0.2,0.1c-0.1,0-0.1,0.1-0.1,0.2c0,0.1,0,0.1,0,0.2
			c0,0.1,0,0.1,0,0.2c0,0.1,0.1,0.1,0.1,0.2c0.1,0,0.1,0.1,0.2,0.1c0.1,0,0.2,0.1,0.3,0.1c0.2,0.1,0.3,0.1,0.4,0.2
			c0.1,0.1,0.2,0.1,0.3,0.2c0.1,0.1,0.1,0.1,0.2,0.2c0,0.1,0.1,0.2,0.1,0.3c0,0.1,0,0.3-0.1,0.4c-0.1,0.1-0.1,0.2-0.2,0.3
			S43.3,47,43.1,47c-0.1,0-0.3,0.1-0.5,0.1c-0.3,0-0.6-0.1-0.8-0.2L41.9,46.4L41.9,46.4L41.9,46.4z"/>
		<path style="fill-rule:evenodd;clip-rule:evenodd;fill:#18264E;" d="M45.6,44.1c-0.2,0-0.3,0-0.5,0.1c-0.1,0.1-0.3,0.1-0.4,0.3
			c-0.1,0.1-0.2,0.3-0.2,0.4c-0.1,0.2-0.1,0.4-0.1,0.6c0,0.2,0,0.4,0.1,0.5c0.1,0.2,0.1,0.3,0.2,0.4c0.1,0.1,0.2,0.2,0.4,0.3
			c0.1,0.1,0.3,0.1,0.5,0.1c0.2,0,0.3,0,0.5-0.1c0.1-0.1,0.2-0.1,0.3-0.3c0.1-0.1,0.2-0.2,0.2-0.4c0-0.2,0.1-0.3,0.1-0.5
			c0-0.4-0.1-0.7-0.3-1C46.3,44.3,46,44.1,45.6,44.1 M45.6,47.1c-0.2,0-0.4,0-0.6-0.1c-0.2-0.1-0.3-0.2-0.5-0.3
			c-0.1-0.1-0.2-0.3-0.3-0.5c-0.1-0.2-0.1-0.4-0.1-0.7c0-0.3,0-0.5,0.1-0.7c0.1-0.2,0.2-0.4,0.3-0.5c0.1-0.1,0.3-0.3,0.5-0.3
			c0.2-0.1,0.4-0.1,0.6-0.1c0.2,0,0.4,0,0.6,0.1c0.2,0.1,0.3,0.2,0.5,0.3c0.1,0.1,0.2,0.3,0.3,0.5c0.1,0.2,0.1,0.4,0.1,0.7
			c0,0.2,0,0.5-0.1,0.7c-0.1,0.2-0.2,0.4-0.3,0.5c-0.1,0.1-0.3,0.3-0.5,0.3C46.1,47,45.9,47.1,45.6,47.1"/>
		<path style="fill-rule:evenodd;clip-rule:evenodd;fill:#18264E;" d="M49,42.7c-0.1-0.1-0.2-0.1-0.3-0.1c-0.4,0-0.6,0.2-0.6,0.7
			v0.5h0.8v0.3h-0.8V47h-0.4v-2.8h-0.6v-0.3h0.6v-0.5c0-0.2,0-0.3,0.1-0.4c0-0.1,0.1-0.2,0.2-0.3c0.1-0.1,0.2-0.2,0.3-0.2
			c0.1,0,0.3-0.1,0.4-0.1c0.1,0,0.3,0,0.4,0.1V42.7L49,42.7z"/>
		<path style="fill-rule:evenodd;clip-rule:evenodd;fill:#18264E;" d="M50.7,47c-0.1,0.1-0.3,0.1-0.4,0.1c-0.5,0-0.8-0.3-0.8-0.9v-2
			H49v-0.3h0.6v-0.8l0.4-0.1v0.9h0.8v0.3h-0.8v1.9c0,0.2,0,0.4,0.1,0.5c0.1,0.1,0.2,0.1,0.4,0.1c0.1,0,0.2,0,0.4-0.1L50.7,47
			L50.7,47L50.7,47L50.7,47z"/>
	</g>
</g>
</svg>
