<?xml version="1.0" encoding="utf-8"?>
<!-- Generator: Adobe Illustrator 24.2.1, SVG Export Plug-In . SVG Version: 6.00 Build 0)  -->
<svg version="1.1" id="Layer_1" xmlns="http://www.w3.org/2000/svg" xmlns:xlink="http://www.w3.org/1999/xlink" x="0px" y="0px"
	 viewBox="0 0 498.9 235.5" style="enable-background:new 0 0 498.9 235.5;" xml:space="preserve">
<g>
	<g>
		
			<linearGradient id="SVGID_1_" gradientUnits="userSpaceOnUse" x1="-708.5253" y1="656.6461" x2="-707.8295" y2="656.6461" gradientTransform="matrix(600 0 0 -248 425115.2188 162934.5313)">
			<stop  offset="0" style="stop-color:#6001A5"/>
			<stop  offset="0.3344" style="stop-color:#6001A5"/>
			<stop  offset="0.9324" style="stop-color:#DE0877"/>
			<stop  offset="1" style="stop-color:#ED0577"/>
		</linearGradient>
		<path style="fill-rule:evenodd;clip-rule:evenodd;fill:url(#SVGID_1_);" d="M343.8,0L343.8,0c-15.7,0-18.2,10.6-18.5,15.8v114.7
			l11.1,0c8.9,0.2,10.9-5.5,11-8.7v-0.9c7,7.3,16.5,11.5,27.3,11.5c23.5,0,42.7-20.3,42.7-47c0-26.8-19.2-47.2-42.7-47.2
			c-10.3,0-19.5,3.9-26.3,10.5V0H343.8L343.8,0z M348.5,85.6c0-14.4,10.3-25.9,23-25.9c12.7,0,23,11.2,23,25.9
			c0,14.4-10.3,25.4-23,25.4C358.8,111,348.5,99.6,348.5,85.6L348.5,85.6z M227.5,85.4c0,27,20.2,47.2,45.1,47.2
			c24.9,0,45.3-20.2,45.3-47.2c0-27-20.4-47.5-45.3-47.5C247.7,37.9,227.5,58.4,227.5,85.4z M250.5,85.6c0-15.6,9.9-26.5,22.1-26.5
			c12.2,0,22.1,10.9,22.1,26.5c0,15.3-9.9,25.8-22.1,25.8C260.5,111.3,250.5,100.8,250.5,85.6L250.5,85.6z M69,50.7
			c-6.4-7.9-16.4-12.8-28.6-12.8C15.9,37.9,0,55.2,0,78.2v52.2h7.5c5.1-0.3,15.2-2.9,15.5-17.8V77.7c0-10.2,7.1-17.2,17.4-17.2
			c15.2,0,16.7,12.1,16.7,17.2v52.8h7.5c5.1-0.3,15.1-2.8,15.5-17.7V77.7c0-10.2,7.3-17.2,17.4-17.2c15.2,0,16.9,12.1,16.9,17.2
			v52.8h7.5c5.1-0.3,15.3-2.9,15.5-18.1V78.2c0-23.7-14.8-40.3-39.9-40.3C85.9,37.9,75.8,42.8,69,50.7L69,50.7z M203.7,50.2
			l-19.3,53.9l-21-55.8c-3.2-8.8-11.5-8.4-11.5-8.4H134l35.6,87.7c0-0.1-0.1-0.2-0.1-0.3l0.1,0.4l0.1,0.4l-0.2-0.4
			c1.2,3.6,0.8,5.6-0.2,9l-0.8,2.2c-4.1,10.4-10,13.2-22.4,12.5v0.1l8.6,21.2c16-0.4,28-5.6,36-25.7l42.9-107l0,0v0l-16,0h-0.1
			C216.7,39.9,207.6,40.1,203.7,50.2L203.7,50.2z"/>
	</g>
	<g>
		<path style="fill:#6100A5;" d="M140.7,213.4h-20.9l-4.3,10.4h-5.8l17.8-41.6h5.6l17.8,41.6H145L140.7,213.4z M138.7,208.6
			l-8.5-20.4l-8.5,20.4H138.7z"/>
		<path style="fill:#6100A5;" d="M152.9,208c0-9.4,6.6-16,15.7-16c5.3,0,9.8,2.3,12.1,6.7l-4.1,2.8c-1.9-3.1-4.8-4.5-8.1-4.5
			c-5.8,0-10.2,4.3-10.2,11.1c0,6.8,4.4,11.1,10.2,11.1c3.3,0,6.2-1.4,8.1-4.5l4.1,2.7c-2.4,4.4-6.8,6.8-12.1,6.8
			C159.5,224.1,152.9,217.4,152.9,208z"/>
		<path style="fill:#6100A5;" d="M184.5,208c0-9.4,6.6-16,15.7-16c5.3,0,9.8,2.3,12.1,6.7l-4.1,2.8c-1.9-3.1-4.8-4.5-8.1-4.5
			c-5.8,0-10.2,4.3-10.2,11.1c0,6.8,4.4,11.1,10.2,11.1c3.3,0,6.2-1.4,8.1-4.5l4.1,2.7c-2.4,4.4-6.8,6.8-12.1,6.8
			C191.1,224.1,184.5,217.4,184.5,208z"/>
		<path style="fill:#6100A5;" d="M216.1,208c0-9.4,6.6-16,15.5-16c8.9,0,15.4,6.7,15.4,16c0,9.4-6.5,16.1-15.4,16.1
			C222.7,224.1,216.1,217.4,216.1,208z M241.6,208c0-6.7-4.3-11.1-10-11.1c-5.7,0-10,4.3-10,11.1c0,6.7,4.3,11.1,10,11.1
			C237.3,219.1,241.6,214.8,241.6,208z"/>
		<path style="fill:#6100A5;" d="M282.2,192.3v31.5h-5.1V219c-2.2,3.3-5.9,5.1-10.1,5.1c-7.7,0-12.8-4.5-12.8-13.7v-18.1h5.4v17.5
			c0,6.2,2.9,9.3,8,9.3c5.6,0,9.2-3.7,9.2-10.5v-16.3H282.2z"/>
		<path style="fill:#6100A5;" d="M320.6,205.7v18.1h-5.4v-17.5c0-6.2-2.9-9.2-8-9.2c-5.7,0-9.4,3.6-9.4,10.5v16.2h-5.4v-31.5h5.2
			v4.8c2.2-3.2,6-5,10.7-5C315.5,192,320.6,196.4,320.6,205.7z"/>
		<path style="fill:#6100A5;" d="M347.3,221.9c-1.6,1.5-4.1,2.2-6.5,2.2c-6,0-9.4-3.5-9.4-9.9V197h-5v-4.7h5v-6.9h5.4v6.9h8.5v4.7
			h-8.5V214c0,3.4,1.7,5.3,4.7,5.3c1.6,0,3.1-0.5,4.2-1.5L347.3,221.9z"/>
		<path style="fill:#6100A5;" d="M383.5,223.8l-9.7-14.3c-1.3,0.2-2.7,0.4-4.3,0.4h-11.7v14h-1.9v-41.6h13.6
			c9.8,0,15.6,5.1,15.6,13.8c0,6.7-3.4,11.3-9.4,13l10,14.8H383.5z M369.7,208c8.8,0,13.6-4.3,13.6-12c0-7.6-4.8-11.9-13.6-11.9
			h-11.8V208H369.7z"/>
		<path style="fill:#6100A5;" d="M394.3,183c0-1.1,0.8-2,1.9-2c1,0,1.9,0.9,1.9,1.9c0,1.1-0.8,2-1.9,2
			C395.1,184.9,394.3,184,394.3,183z M395.2,192.9h1.9v30.8h-1.9V192.9z"/>
		<path style="fill:#6100A5;" d="M435.2,192.9v27.9c0,10.1-4.6,14.7-13.7,14.7c-5.3,0-10.3-1.8-13.1-5l1.1-1.5c3,3,7.2,4.7,11.9,4.7
			c8.1,0,11.9-3.9,11.9-12.7v-6.5c-2.2,5.1-6.9,8.2-12.7,8.2c-8.2,0-14.4-6.2-14.4-15s6.2-15,14.4-15c5.8,0,10.5,3.1,12.7,8.3v-8
			H435.2z M433.4,207.7c0-7.8-5.4-13.1-12.7-13.1c-7.3,0-12.6,5.3-12.6,13.1c0,7.8,5.3,13.3,12.6,13.3
			C428,220.9,433.4,215.5,433.4,207.7z"/>
		<path style="fill:#6100A5;" d="M473.1,205.7v18.1h-1.9v-18c0-7.4-3.7-11.2-10-11.2c-7.3,0-11.7,5-11.7,12.6v16.6h-1.9v-44.1h1.9
			v20.6c1.9-4.6,6.1-7.6,11.9-7.6C468.5,192.7,473.1,197.2,473.1,205.7z"/>
		<path style="fill:#6100A5;" d="M498.9,221.8c-1.4,1.4-3.7,2.1-5.8,2.1c-4.8,0-7.4-3.1-7.4-7.9v-21.4h-5.5v-1.7h5.5v-6.8h1.9v6.8
			h9.6v1.7h-9.6v21.1c0,4.2,2,6.5,5.7,6.5c1.8,0,3.5-0.7,4.7-1.8L498.9,221.8z"/>
	</g>
</g>
</svg>
