<?xml version="1.0" encoding="utf-8"?>
<!-- Generator: Adobe Illustrator 24.2.1, SVG Export Plug-In . SVG Version: 6.00 Build 0)  -->
<svg version="1.1" id="Layer_1" xmlns="http://www.w3.org/2000/svg" xmlns:xlink="http://www.w3.org/1999/xlink" x="0px" y="0px"
	 viewBox="0 0 100 100" style="enable-background:new 0 0 100 100;" xml:space="preserve">
<g>
	<g>
		<path style="fill:#E8E8E8;" d="M50,0c27.6,0,50,22.4,50,50s-22.4,50-50,50S0,77.6,0,50S22.4,0,50,0"/>
		<path style="fill:#FFFFFF;" d="M50,1c27,0,49,22,49,49S77.1,99,50,99S1,77,1,50S23,1,50,1"/>
	</g>
	<g>
		<g>
			
				<linearGradient id="SVGID_1_" gradientUnits="userSpaceOnUse" x1="-907.6486" y1="588.7944" x2="-907.5391" y2="588.7944" gradientTransform="matrix(600 0 0 -248 544599.9375 146066.0625)">
				<stop  offset="0" style="stop-color:#6001A5"/>
				<stop  offset="0.3344" style="stop-color:#6001A5"/>
				<stop  offset="0.9324" style="stop-color:#DE0877"/>
				<stop  offset="1" style="stop-color:#ED0577"/>
			</linearGradient>
			<path style="fill-rule:evenodd;clip-rule:evenodd;fill:url(#SVGID_1_);" d="M64.8,31.5L64.8,31.5c-2.5,0-2.9,1.7-2.9,2.5v18
				l1.7,0c1.4,0,1.7-0.9,1.7-1.4v-0.1c1.1,1.2,2.6,1.8,4.3,1.8c3.7,0,6.7-3.2,6.7-7.4c0-4.2-3-7.4-6.7-7.4c-1.6,0-3.1,0.6-4.1,1.7
				v-7.7H64.8L64.8,31.5z M65.6,44.9c0-2.3,1.6-4.1,3.6-4.1c2,0,3.6,1.8,3.6,4.1c0,2.3-1.6,4-3.6,4C67.2,48.9,65.6,47.1,65.6,44.9
				L65.6,44.9z M46.5,44.9c0,4.2,3.2,7.4,7.1,7.4c3.9,0,7.1-3.2,7.1-7.4c0-4.2-3.2-7.5-7.1-7.5C49.7,37.4,46.5,40.7,46.5,44.9z
				 M50.2,44.9c0-2.5,1.6-4.2,3.5-4.2c1.9,0,3.5,1.7,3.5,4.2c0,2.4-1.6,4.1-3.5,4.1C51.7,49,50.2,47.3,50.2,44.9L50.2,44.9z
				 M21.6,39.5c-1-1.2-2.6-2-4.5-2c-3.9,0-6.4,2.7-6.4,6.3V52h1.2c0.8,0,2.4-0.4,2.4-2.8v-5.5c0-1.6,1.1-2.7,2.7-2.7
				c2.4,0,2.6,1.9,2.6,2.7V52h1.2c0.8,0,2.4-0.4,2.4-2.8v-5.5c0-1.6,1.2-2.7,2.7-2.7c2.4,0,2.7,1.9,2.7,2.7V52h1.2
				c0.8,0,2.4-0.5,2.4-2.8v-5.4c0-3.7-2.3-6.3-6.3-6.3C24.3,37.4,22.7,38.2,21.6,39.5L21.6,39.5z M42.8,39.4l-3,8.5l-3.3-8.8
				c-0.5-1.4-1.8-1.3-1.8-1.3h-2.8l5.6,13.8c0,0,0,0,0,0l0,0.1l0,0.1l0-0.1c0.2,0.6,0.1,0.9,0,1.4l-0.1,0.3c-0.7,1.6-1.6,2.1-3.5,2
				v0l1.4,3.3c2.5-0.1,4.4-0.9,5.7-4l6.7-16.8l0,0v0l-2.5,0h0C44.8,37.8,43.4,37.8,42.8,39.4L42.8,39.4z"/>
		</g>
		<g>
			<path style="fill:#6100A5;" d="M32.9,65h-3.3l-0.7,1.6H28l2.8-6.5h0.9l2.8,6.5h-0.9L32.9,65z M32.6,64.3l-1.3-3.2l-1.3,3.2H32.6z
				"/>
			<path style="fill:#6100A5;" d="M34.8,64.2c0-1.5,1-2.5,2.5-2.5c0.8,0,1.5,0.4,1.9,1.1l-0.6,0.4c-0.3-0.5-0.8-0.7-1.3-0.7
				c-0.9,0-1.6,0.7-1.6,1.7c0,1.1,0.7,1.7,1.6,1.7c0.5,0,1-0.2,1.3-0.7l0.6,0.4c-0.4,0.7-1.1,1.1-1.9,1.1
				C35.9,66.7,34.8,65.7,34.8,64.2z"/>
			<path style="fill:#6100A5;" d="M39.8,64.2c0-1.5,1-2.5,2.5-2.5c0.8,0,1.5,0.4,1.9,1.1l-0.6,0.4c-0.3-0.5-0.8-0.7-1.3-0.7
				c-0.9,0-1.6,0.7-1.6,1.7c0,1.1,0.7,1.7,1.6,1.7c0.5,0,1-0.2,1.3-0.7l0.6,0.4c-0.4,0.7-1.1,1.1-1.9,1.1
				C40.8,66.7,39.8,65.7,39.8,64.2z"/>
			<path style="fill:#6100A5;" d="M44.8,64.2c0-1.5,1-2.5,2.4-2.5c1.4,0,2.4,1,2.4,2.5c0,1.5-1,2.5-2.4,2.5
				C45.8,66.7,44.8,65.7,44.8,64.2z M48.8,64.2c0-1.1-0.7-1.7-1.6-1.7c-0.9,0-1.6,0.7-1.6,1.7c0,1.1,0.7,1.7,1.6,1.7
				C48.1,65.9,48.8,65.3,48.8,64.2z"/>
			<path style="fill:#6100A5;" d="M55.1,61.7v5h-0.8v-0.7c-0.3,0.5-0.9,0.8-1.6,0.8c-1.2,0-2-0.7-2-2.2v-2.8h0.8v2.7
				c0,1,0.5,1.5,1.3,1.5c0.9,0,1.4-0.6,1.4-1.6v-2.6H55.1z"/>
			<path style="fill:#6100A5;" d="M61.2,63.8v2.8h-0.8v-2.7c0-1-0.5-1.4-1.3-1.4c-0.9,0-1.5,0.6-1.5,1.6v2.6h-0.8v-5h0.8v0.7
				c0.3-0.5,0.9-0.8,1.7-0.8C60.4,61.7,61.2,62.4,61.2,63.8z"/>
			<path style="fill:#6100A5;" d="M65.4,66.4c-0.3,0.2-0.6,0.3-1,0.3c-0.9,0-1.5-0.6-1.5-1.6v-2.7h-0.8v-0.7h0.8v-1.1h0.8v1.1h1.3
				v0.7h-1.3v2.7c0,0.5,0.3,0.8,0.7,0.8c0.2,0,0.5-0.1,0.7-0.2L65.4,66.4z"/>
			<path style="fill:#6100A5;" d="M71.1,66.7l-1.5-2.3c-0.2,0-0.4,0.1-0.7,0.1H67v2.2h-0.3v-6.5h2.1c1.5,0,2.5,0.8,2.5,2.2
				c0,1.1-0.5,1.8-1.5,2l1.6,2.3H71.1z M68.9,64.2c1.4,0,2.1-0.7,2.1-1.9c0-1.2-0.8-1.9-2.1-1.9H67v3.8H68.9z"/>
			<path style="fill:#6100A5;" d="M72.8,60.3c0-0.2,0.1-0.3,0.3-0.3c0.2,0,0.3,0.1,0.3,0.3c0,0.2-0.1,0.3-0.3,0.3
				C72.9,60.6,72.8,60.4,72.8,60.3z M72.9,61.8h0.3v4.8h-0.3V61.8z"/>
			<path style="fill:#6100A5;" d="M79.2,61.8v4.4c0,1.6-0.7,2.3-2.2,2.3c-0.8,0-1.6-0.3-2.1-0.8l0.2-0.2c0.5,0.5,1.1,0.7,1.9,0.7
				c1.3,0,1.9-0.6,1.9-2v-1c-0.3,0.8-1.1,1.3-2,1.3c-1.3,0-2.3-1-2.3-2.4c0-1.4,1-2.4,2.3-2.4c0.9,0,1.7,0.5,2,1.3v-1.3H79.2z
				 M78.9,64.1c0-1.2-0.8-2.1-2-2.1c-1.1,0-2,0.8-2,2.1c0,1.2,0.8,2.1,2,2.1C78.1,66.2,78.9,65.4,78.9,64.1z"/>
			<path style="fill:#6100A5;" d="M85.2,63.8v2.8h-0.3v-2.8c0-1.2-0.6-1.8-1.6-1.8c-1.1,0-1.8,0.8-1.8,2v2.6h-0.3v-6.9h0.3V63
				c0.3-0.7,1-1.2,1.9-1.2C84.4,61.8,85.2,62.5,85.2,63.8z"/>
			<path style="fill:#6100A5;" d="M89.2,66.4c-0.2,0.2-0.6,0.3-0.9,0.3c-0.8,0-1.2-0.5-1.2-1.2v-3.4h-0.9v-0.3h0.9v-1.1h0.3v1.1h1.5
				v0.3h-1.5v3.3c0,0.7,0.3,1,0.9,1c0.3,0,0.5-0.1,0.7-0.3L89.2,66.4z"/>
		</g>
	</g>
</g>
</svg>
