<?xml version="1.0" encoding="UTF-8"?> <!-- Generator: Adobe Illustrator 24.1.3, SVG Export Plug-In . SVG Version: 6.00 Build 0) --> <svg xmlns="http://www.w3.org/2000/svg" xmlns:xlink="http://www.w3.org/1999/xlink" version="1.1" id="Layer_1" x="0px" y="0px" viewBox="0 0 335.02 53.06" style="enable-background:new 0 0 335.02 53.06;" xml:space="preserve"> <style type="text/css"> .st0{fill:#989898;} .st1{fill:#55B948;} .st2{fill-rule:evenodd;clip-rule:evenodd;fill:#55B948;} </style> <path class="st0" d="M88.25,28.31c0,0-0.29-1.04-0.29-1.81V14.44h4.83v23.23L77.33,24.86c-0.83-0.71-1.32-1.49-1.32-1.49 s0.25,0.87,0.25,1.62l0,12.15h-4.84V14l15.32,12.55C87.57,27.25,88.25,28.31,88.25,28.31"></path> <path class="st0" d="M131.98,14.44c7.65,0,9.61,3.02,9.61,7.36c0,3.15-2.31,6.23-6.98,6.59l-0.51,0.02c0,0,0.45,0.08,0.92,0.54 l8.47,8.19h-6.55l-11.83-12.01h5.9c5.27,0,5.42-2.78,5.46-3.49c0.09-1.8-0.48-3.24-4.51-3.24h-6.73v18.74h-5.02v-22.7H131.98z"></path> <path class="st0" d="M94.97,26.11c0-9.51,7.96-12.01,14.66-12.01c2.68,0,5.05,0.24,7.55,0.77l0.01,4.82 c-1.44-0.44-4.32-1.41-7.55-1.41c-6.34,0-9.42,2.46-9.42,7.83c0,4.39,3.32,7.19,9.42,7.19c3.23,0,6.48-0.77,8.04-1.35l-0.01,4.68 c-2.49,0.53-5.35,0.86-8.03,0.86C102.47,37.48,94.97,34.01,94.97,26.11"></path> <path class="st1" d="M40.62,15.02l4.71,4.44c-0.13,0.06-0.27,0.13-0.44,0.22c-0.27,0.14-0.6,0.33-0.99,0.6 c-0.77,0.54-1.79,1.39-3.08,2.78L31.6,32.8c-1.58,1.67-3.18,2.99-4.68,3.68l-4.71-4.44c0.13-0.06,0.27-0.13,0.45-0.22 c0.27-0.14,0.6-0.33,0.98-0.6c0.78-0.54,1.79-1.38,3.09-2.78l9.2-9.73C37.52,17.06,39.12,15.72,40.62,15.02"></path> <path class="st1" d="M22.38,38.57c2.08,0,3.99-0.41,5.29-1.09c0.6-0.31,1.44-0.84,2.17-1.41c0.72-0.57,1.75-1.45,2.62-2.37 l9.22-9.71c2.32-2.45,3.72-3.21,4.56-3.5l4.73,4.48c-0.99,1.06-12.75,13.58-12.75,13.58c-0.8,0.86-1.65,1.7-2.22,2.23 c-0.55,0.51-1.5,1.27-1.98,1.63c-2.76,2.03-6.47,3.67-11.44,3.67c-11.28,0-20.4-9.18-20.4-19.74C2.19,13.21,12.43,5.6,21.77,5.6 c2.86-0.08,5.15,0.4,6.96,1.02c1.68,0.57,2.95,1.26,3.86,1.73c-1.08,0.7-2.13,1.64-3.87,3.49l-1.89,2.03 c-0.43-0.16-2.36-0.84-4.85-0.76C16.01,13.28,9.46,18.14,9.7,26.1C9.91,33.54,16.05,38.57,22.38,38.57"></path> <path class="st1" d="M39.81,14.09c-0.59,0.31-1.44,0.84-2.17,1.41c-0.73,0.56-1.75,1.45-2.62,2.37l-9.22,9.71 c-2.32,2.45-3.72,3.21-4.57,3.5l-4.72-4.48c0.99-1.06,12.75-13.58,12.75-13.58c0.8-0.87,1.64-1.7,2.22-2.23 c0.55-0.51,1.5-1.26,1.99-1.62c2.76-2.03,6.46-3.67,11.44-3.67c11.28,0,20.39,9.17,20.39,19.74c0,13.11-10.24,20.71-19.58,20.71 c-2.86,0.09-5.15-0.39-6.97-1.01c-1.68-0.57-2.95-1.26-3.87-1.73c1.15-0.77,2.13-1.62,3.88-3.48l1.88-2.04 c0.44,0.16,2.37,0.84,4.85,0.77c5.98-0.18,12.53-5.03,12.3-12.99C57.57,18.03,51.43,13,45.1,13C43.01,13,41.11,13.41,39.81,14.09"></path> <path class="st2" d="M276.4,20.95c1.9-0.35,6.87-2.98,9.19-5.58c0.73-0.62,1.32-1.51,1.32-2.41c-0.63-0.46-2.33,0-3.65,0.32 c-3.57,1.31-5.89,3.33-6.87,4.96C275.39,19.86,275.39,21.14,276.4,20.95 M190.41,28.47c2.83-0.31,5.58-0.62,8.37-0.93 c1.43-2.75,2.87-5.46,4.34-8.21C198.75,22.15,194.48,25.1,190.41,28.47 M224.95,33.28c2.13,0.81,7.56-7.52,6.9-8.49 c-0.73-1.04-3.53,0.97-4.92,2.29C225.26,28.7,222.78,32.5,224.95,33.28 M208.66,41.58c3.88-1.55,7.45-4.7,9.62-6.67 c1.98-1.82,2.67-2.21,3.68-3.26c-0.31,1.94-0.07,3.99,0.67,4.57c0.81,0.62,2.33,0.62,3.64,0c1.28-0.58,5.89-4.23,7.45-9.11 c0.23-0.74,0.62-1.05,0.74-1.67c2.79-1.08,5.43-2.86,8.18-3.95c-0.77,1.28-1.97,2.98-2.94,4.27c-1.12,1.55-2.48,3.88-1.94,5.74 c0.2,0.35,0.5,0.78,1.16,0.97c2.18-1.24,6.05-4.31,9.38-6.79c1.9-1.55,3.65-2.76,5.82-4.23c0.74-0.47,1.94-1.94,1.87-0.89 l-2.02,3.18c-0.66,1.36-0.66,3.14,0.51,4.3c3.37,1.2,8.49-2.94,11.13-5.27c2.99-2.06,8.92-6.56,8.69-5.86 c-0.39,1.24-1.47,2.95-1.47,5.01c0.27,0.74,0.03,1.51,0.85,1.93c1.48,0.7,1.75,0.7,3.42,0.35c4.11-1.82,6.35-2.91,8.49-5.59 c-0.62,1.01-0.62,1.67-0.62,2.36c0.35,0.58,0.97,1.28,1.63,1.52c2.63,1.35,6.16-0.62,9.22-1.52c3.88-1.43,7.83-2.86,11.75-4.3 l2.91-1.04c4.46-1.55,8.92-2.6,13.38-3.49c3.14-0.66,8.64-0.66,9.61-1.05c0.97-0.38,0.66-0.65,0.31-1.62l-0.55-0.9 c-3.49-2.67-7.72-0.54-11.6,0.16c-4.92,1.63-9.38,3.57-14.07,5.32l-4.3,1.59l-6.36,2.48c-2.41,0.89-4.81,1.75-7.18,2.6 c-0.81,0.19-1.94-0.23-2.17-0.85c-0.43-2.05,0.81-3.34,1.98-4.62l1.27-2.94c0.35-1.6,0-1.63-0.81-2.06 c-1.28-0.66-1.2-0.27-2.83-0.43c-1.59-0.12-4.23,0.58-5.81,1.2c-1.67,0.58-3.65,1.4-4.93,2.02c-3.6,1.98-5.85,3.34-9.5,5.93 c-2.83,1.86-9.49,7.75-8.76,5.43c0.74-2.33,3.49-4.5,5.2-6.75l0.27-0.97c-0.11-2.75-5.31-0.65-5.35-0.62 c-3.73,2.17-7.56,4.57-11.33,6.86c0.31-1.36,0.62-1.36,1.36-2.52c2.49-3.37,6.05-7.05,7.87-8.84c1.82-1.82,1.9-1.94,3.69-3.41 c1.86-1.51,3.76-3.1,5.58-4.65V2.76c-0.16-0.5-0.55-0.66-0.82-1.12c-0.23-0.27-0.54-0.43-0.97-0.58c-0.77,0-9.77,7.95-9.54,7.67 c-1.82,1.52-3.33,3.22-5,4.69c-1.86,1.59-3.76,3.03-5.77,4.54c-2.6,1.55-5.9,4.07-8.92,4.73c0.04-0.54-0.86-1.28-1.6-1.2 c-0.85,0.08-1.04-0.08-2.98,0.78c-1.94,0.85-4.96,2.83-7.71,5.46c-2.75,2.6-6.32,5.97-8.34,7.53c-1.94,1.59-2.75,2.01-3.45,2.25 c-0.7,0.27-0.43-0.24-0.5-0.58c0.39-2.8,2.02-5.28,3.99-8.14c2.33-3.76,4.85-6.51,7.37-9.54c2.99-2.86,5.7-5.5,8.57-8.37 c0.62-0.73,1.12-1.55,0.77-2.29c-0.27-0.42-0.04-0.85-0.89-0.89c-0.81-0.03-6.47,4.57-9.19,7.21c-2.68,2.68-5.82,6.48-7.8,8.85 c-2.02,2.4-3.25,4.72-4.61,7.01c-0.97,1.52-1.48,3.18-2.02,4.77l-0.62,3.68c0.19,1.67,0.54,2.02,1.2,2.37 C206.92,41.93,208.24,41.89,208.66,41.58 M164.93,51.35c1.05,0.31,1.05,0,1.67-0.35c2.75-2.75,5.35-5.54,8.02-8.41 c2.99-2.94,5.46-5.66,8.34-8.65c4.93-1.63,9.58-1.9,14.31-2.44c-0.35,1.47-0.63,2.09-1.13,4.46c-0.58,2.52-4.14,9.73-1.35,11.75 c1.05,0.81,2.02-0.58,2.67-1.08l0.47-1.9c0.82-4.19,2.09-8.49,3.53-12.79c0.19-0.31,0.34-0.74,0.54-0.93 c0.7-0.55,2.45-0.23,3.3-0.32c0-0.07,0.74-2.32,0.04-2.94c-0.12-0.35-2.71-0.35-2.33-0.35c1.7-3.53,3.6-6.9,5.54-10.35 c0.86-1.47,1.78-2.79,0.97-4.15c-0.39-0.47-1.16-0.62-1.63-0.15c-3.61,1.9-6.82,3.72-10.2,5.97c-3.37,2.28-7.14,4.77-9.92,6.9 c-3.1,2.48-5.43,4.77-10.74,5.9c-3.53,0.81-10.12,2.44-9.46,3.76l1.05,1.67l7.68-1.75c-2.48,3.02-5.82,6.16-7.92,8.45 c-2.09,2.29-4.38,3.8-4.61,6.82C164,51.04,164.43,50.99,164.93,51.35"></path> <path class="st1" d="M331.8,14.25c0.37,0.19,0.66,0.47,0.87,0.82c0.21,0.35,0.31,0.72,0.31,1.1c0,0.38-0.1,0.74-0.3,1.1 c-0.2,0.35-0.49,0.62-0.86,0.81c-0.36,0.19-0.75,0.29-1.15,0.29c-0.4,0-0.79-0.1-1.15-0.29c-0.37-0.2-0.65-0.47-0.86-0.81 c-0.21-0.35-0.31-0.72-0.31-1.1c0-0.38,0.1-0.75,0.31-1.1c0.21-0.35,0.5-0.62,0.87-0.82c0.36-0.19,0.75-0.28,1.14-0.28 C331.05,13.97,331.43,14.06,331.8,14.25 M329.29,13.87c-0.44,0.23-0.79,0.55-1.04,0.97c-0.25,0.42-0.38,0.86-0.38,1.32 c0,0.46,0.12,0.9,0.37,1.31c0.25,0.42,0.59,0.75,1.03,0.97c0.44,0.23,0.9,0.35,1.38,0.35c0.48,0,0.95-0.12,1.38-0.35 c0.44-0.23,0.78-0.55,1.02-0.97c0.25-0.42,0.38-0.86,0.38-1.31c0-0.46-0.12-0.9-0.38-1.32c-0.24-0.43-0.59-0.75-1.04-0.97 c-0.44-0.23-0.9-0.34-1.37-0.34C330.19,13.53,329.74,13.64,329.29,13.87 M329.93,17.63v-1.21h0.28c0.17,0,0.3,0.04,0.39,0.1 c0.13,0.09,0.29,0.31,0.5,0.66l0.27,0.44h0.6l-0.37-0.56c-0.18-0.26-0.32-0.45-0.44-0.56c-0.07-0.06-0.16-0.11-0.26-0.15 c0.26-0.02,0.47-0.1,0.63-0.26c0.15-0.15,0.23-0.33,0.23-0.54c0-0.15-0.05-0.29-0.14-0.42c-0.09-0.13-0.22-0.22-0.38-0.27 c-0.16-0.05-0.41-0.08-0.77-0.08h-1.03v2.84H329.93z M329.93,15.18h0.56c0.24,0,0.4,0.02,0.48,0.05c0.09,0.03,0.16,0.08,0.21,0.15 c0.05,0.06,0.08,0.14,0.08,0.23c0,0.13-0.05,0.23-0.16,0.31c-0.1,0.08-0.3,0.12-0.58,0.12h-0.59V15.18z"></path> </svg> 