<?xml version="1.0" encoding="utf-8"?>
<!-- Generator: Adobe Illustrator 22.1.0, SVG Export Plug-In . SVG Version: 6.00 Build 0)  -->
<!DOCTYPE svg PUBLIC "-//W3C//DTD SVG 1.1//EN" "http://www.w3.org/Graphics/SVG/1.1/DTD/svg11.dtd">
<svg version="1.1" id="Layer_1" xmlns="http://www.w3.org/2000/svg" xmlns:xlink="http://www.w3.org/1999/xlink" x="0px" y="0px"
	 viewBox="0 0 495 190" enable-background="new 0 0 495 190" xml:space="preserve">
<g>
	<path fill="#47BFEE" d="M67.1,45c-7.7,0-15.3,1.3-22.4,4.5c-4.1,1.9-7.8,4.3-11.2,7.2v-4.4c0-8.2-6-6.7-15.7-6.7
		c-9.7,0-15.3-1.4-15.3,6.7v127.7c0,7.8,5.6,6.5,15,6.5c9.4,0,17,1.3,17-6.3v-56.1c0-11.3,1-28.1,7.6-37.8
		c5.3-7.8,13.6-10.4,22.8-10.4c8.2,0,16.3,2,21.5,8.7c6,7.7,7.1,19.9,7.1,29.2V180c0,7.5,6,6.5,15.6,6.5c10.1,0,16.6,1.2,16.6-6.9
		v-71.1c0-16.8-3.5-34.1-15.1-46.9C99.2,49.3,83.5,45,67.1,45"/>
	<path fill="#47BFEE" d="M343.4,45.3h-15.2V11.8c0-6.8-4.1-8.5-15.9-8.5c-11.8,0-15.9,1.9-15.9,8.5v33.5h-18.7
		c-5.3,0-5.1,5.9-5.1,13.6c0,8.2-0.7,16.4,5.3,16.4h18.5v105.4c0,6.9,7.6,5.8,16.4,5.8c9.5,0,15.4,1.4,15.4-6V75.3h15.9
		c6.8,0,7.1-4.7,7.1-14.7C351.1,49.8,351.2,45.3,343.4,45.3"/>
	<path fill="#47BFEE" d="M262.8,119.7c-3.5-1-7.1-0.6-10.3,1.1c-3.2,1.7-5.5,4.4-6.5,7.9c-1.3,4.1-3.2,8-5.6,11.5l0,0
		c0,0-1.5,2.1-2.3,3.1c-3.6,4.5-8.2,8.1-13.3,10.9c-4.6,2.5-9.7,4.2-14.9,4.8c-5.1,0.7-10.2,0.5-15.3-0.6c-5-1.1-9.7-3-14.1-5.6
		c-12.1-7.4-20.9-24.8-20.5-38.8c0.5-20.7,17-39.2,37.7-41.8c2-0.2,3.9-0.4,5.9-0.3c0,0-0.1,0-0.1,0c-0.3,0-0.5-0.1-0.8-0.1
		c0.1,0,0.1,0,0.2,0c0.2,0,0.4,0.1,0.6,0.1c0,0,0.1,0,0.1,0c0,0,0,0,0,0c10.6,0.1,21.2,3.8,29.3,10.7l1.2,1l-1.3,0.7
		c-16.5,9-32.9,18-49.4,27c-3.6,2-6.5,5-7.7,9c-0.7,2.4-0.7,4.9,0,7.3c0.3,1,0.7,1.9,1.2,2.8c1.7,3.1,4.6,5.3,8.1,6.2
		c4.2,1.1,8.6,0,12.3-2.1l63.6-34.8c3.1-1.7,5.3-4.4,6.5-7.7c4.4-11.3-13.9-27.7-20.1-32.4c-7-5.3-14.6-9.1-22.7-11.5v0
		c-27.1-8.1-57.8,0.1-76.1,23.5c-11.3,14.5-16.9,32.4-15.2,50.8c0.9,9.4,3.8,18.4,8.3,26.7c4.6,8.5,10.7,16.1,18.3,22.1
		c7.2,5.7,15.3,9.9,24.1,12.4c8.7,2.5,17.8,3.2,26.8,2.3c9.4-1,18.4-3.9,26.7-8.4c8.3-4.5,16.1-10.1,22.3-17.2
		c6.1-7,10-15.3,12.2-24.2c1-3.4,0.6-7-1.1-10.1C269.1,123,266.3,120.8,262.8,119.7"/>
	<path fill="#47BFEE" d="M457.2,141.6c-1.4,1.9-2.9,3.7-4.6,5.3c-4.1,4-8.8,7.2-14.1,9.4c-5.4,2.3-11.2,3.4-17.2,3.4
		c-5.9,0-11.6-1.1-17-3.4c-5.3-2.2-10-5.4-14-9.4c-4-4-7.2-8.7-9.4-14c-2.3-5.4-3.5-11.1-3.5-17c0-5.9,1.1-11.7,3.4-17.1
		c2.2-5.3,5.4-10,9.4-14.1c4.1-4,8.8-7.2,14-9.4c4.4-1.9,9-3,13.7-3.3c-1.3-0.1-1.3-0.1,0.1,0c0,0-0.1,0-0.1,0c0,0,2.2-0.1,3.3-0.1
		c5.9,0,11.7,1.1,17.1,3.4c5.3,2.2,10.1,5.4,14.1,9.4c4,4.1,7.2,8.8,9.4,14.1c2.3,5.4,3.4,11.2,3.4,17.1c0,5.9-1.1,11.6-3.4,17
		C460.7,136,459.1,138.8,457.2,141.6C457.2,141.5,457.2,141.5,457.2,141.6C457.2,141.5,457.2,141.5,457.2,141.6L457.2,141.6z
		 M486.7,88.4c-3.7-8.4-8.9-16-15.4-22.5c-6.5-6.4-14-11.6-22.4-15.3c-5.9-2.6-12-4.3-18.3-5.2c0.8,0.3-0.1,0,0,0
		c-0.1,0-0.2-0.1-0.2-0.1c-2.8-0.4-5.7-0.6-8.6-0.6h-0.1l-0.1,0c-9.7,0.4-19.3,2.4-28.2,6.3c-8.4,3.7-16.1,8.7-22.6,15.2
		c-6.4,6.4-11.4,14-15,22.3c-3.7,8.7-5.5,18-5.5,27.4c0,9.7,1.7,19.2,5.6,28.2c3.6,8.4,8.8,16,15.3,22.3
		c6.5,6.3,14.1,11.2,22.5,14.7c7.6,3.1,15.7,4.8,23.9,5.2c0.1,0,2.6,0,3.7,0c9.6,0,19.1-1.8,28-5.6c8.4-3.6,16-8.7,22.5-15.2
		c6.4-6.5,11.4-14,15.1-22.3c3.8-8.6,5.6-17.8,5.6-27.2C492.5,106.4,490.6,97.1,486.7,88.4"/>
</g>
</svg>
