<?xml version="1.0" encoding="utf-8"?>
<!-- Generator: Adobe Illustrator 24.2.1, SVG Export Plug-In . SVG Version: 6.00 Build 0)  -->
<svg version="1.1" id="Layer_1" xmlns="http://www.w3.org/2000/svg" xmlns:xlink="http://www.w3.org/1999/xlink" x="0px" y="0px"
	 viewBox="0 0 538 193.1" style="enable-background:new 0 0 538 193.1;" xml:space="preserve">
<g transform="translate(-151.93 -201.1)">
	<path style="fill:#03A9F5;" d="M202.8,318.6L202.8,318.6l-50.9-29.4v-58.7l50.9-29.4l50.9,29.4v58.7L202.8,318.6z M202.8,244.5
		l-13.3,7.7v15.3l13.3,7.7l13.3-7.7v-15.3L202.8,244.5z"/>
	<path style="fill:#03A9F5;" d="M178.5,341.8v-15.3l-13.3-7.7l-13.3,7.7v15.3l13.3,7.7L178.5,341.8z"/>
	<path style="fill:#03A9F5;" d="M388,369.5c-5.6,0.1-11-1.4-15.8-4.3c-4.6-2.9-8.4-6.9-11-11.8c-5.4-10.6-5.4-23.2,0-33.8
		c2.6-4.8,6.4-8.8,11-11.6c4.8-2.9,10.2-4.3,15.8-4.2c4.3-0.1,8.5,0.8,12.4,2.6c3.5,1.7,6.4,4.3,8.6,7.5l0.9-8.6h15.3V368H410l-1-9
		c-2.2,2.9-4.9,5.4-8,7.3C397.6,368.5,393.3,369.5,388,369.5z M391.4,355.4c4.8,0.2,9.5-1.7,12.8-5.2c3.3-3.5,5-8,5-13.5
		s-1.7-10-5-13.5c-7.1-7-18.5-7-25.6-0.1c-3.4,3.5-5.1,7.9-5,13.4c-0.2,5,1.6,9.9,5,13.5C381.9,353.6,386.6,355.5,391.4,355.4z"/>
	<path style="fill:#03A9F5;" d="M333.8,307.7c-4.8-2.9-10.3-4.4-15.9-4.3c-5.3,0-9.7,1.1-13.1,3.2c-3.1,1.9-5.9,4.4-8.1,7.4
		l-1.8-9.1h-14.5v89.3l16.3-10v-24.7c2.2,3.2,5.2,5.8,8.7,7.5c3.9,1.9,8.2,2.8,12.5,2.7c5.6,0.1,11.1-1.4,15.9-4.3
		c4.7-2.9,8.5-6.9,11.1-11.7c5.4-10.7,5.4-23.4,0-34.1C342.3,314.7,338.4,310.6,333.8,307.7z M327.3,350.2c-7.2,7-18.7,7-25.8-0.1
		c-3.3-3.5-5-8.1-5-13.6c0-5.5,1.7-10.1,5-13.6c7.2-7.1,18.7-7.1,25.8,0.1c3.4,3.7,5.3,8.6,5.1,13.6
		C332.4,342.2,330.7,346.7,327.3,350.2L327.3,350.2z"/>
	<path style="fill:#03A9F5;" d="M478.4,303.4c-4.6-0.1-9.1,1-13.1,3.3c-3.6,2.1-6.6,5.2-8.5,8.9l-1.3-10.7h-14.4v63.3h16.3v-32.6
		c0-5.8,1.5-10.3,4.4-13.5c2.9-3.2,7-5,11.3-4.9c4.7,0,8.1,1.4,10.3,4.3c2.2,2.9,3.3,7.1,3.3,12.5v34.2h16.3v-35.7
		c0-9.5-2.2-16.7-6.5-21.7C492.3,305.9,486.2,303.4,478.4,303.4z"/>
	<path style="fill:#03A9F5;" d="M565.9,288v25.6c-2.2-3.2-5.2-5.8-8.7-7.5c-3.9-1.9-8.2-2.8-12.5-2.7c-5.6-0.1-11.1,1.4-15.9,4.3
		c-4.7,2.9-8.5,6.9-11.1,11.7c-5.4,10.7-5.4,23.4,0,34.1c2.6,4.9,6.4,9,11.1,11.9c4.8,2.9,10.3,4.4,15.9,4.3c5.3,0,9.7-1.1,13.1-3.2
		c3.1-1.9,5.9-4.4,8.1-7.4l1.8,9.1h14.5V278L565.9,288z M561.1,350.1c-7.2,7.1-18.7,7.1-25.8-0.1c-3.4-3.7-5.3-8.6-5.1-13.6
		c0-5.5,1.7-10,5.1-13.5c7.2-7,18.7-7,25.8,0.1c3.3,3.5,5,8,5,13.6S564.5,346.6,561.1,350.1z"/>
	<path style="fill:#03A9F5;" d="M598.8,368.2h16.3v-90.7l-16.3,10V368.2z"/>
	<path style="fill:#03A9F5;" d="M685.9,318.6c-2.6-4.7-6.5-8.5-11.2-11.1c-5-2.8-10.7-4.2-16.5-4.1c-6-0.2-12,1.3-17.3,4.3
		c-4.9,2.8-8.8,7-11.5,11.9c-2.8,5.4-4.3,11.4-4.2,17.5c-0.1,6,1.3,11.9,4.2,17.1c2.7,4.8,6.7,8.8,11.6,11.5
		c5.2,2.8,11.1,4.2,17,4.1c4.7,0.1,9.4-0.9,13.7-2.8c3.9-1.8,7.4-4.4,10.2-7.7c2.7-3.2,4.7-6.9,5.9-10.9h-16.6
		c-1.1,2.4-2.8,4.4-5,5.8c-2.5,1.6-5.4,2.3-8.3,2.2c-4.2,0.1-8.2-1.4-11.3-4.2c-3.1-2.8-4.8-6.7-5.2-11.6h48
		c0.1-1.1,0.2-2.2,0.2-3.2s0.1-2,0.1-2.9C690,328.9,688.6,323.4,685.9,318.6L685.9,318.6z M641.9,330.3c0.8-4.6,2.8-8,5.9-10.3
		c3.1-2.2,6.8-3.4,10.6-3.4c3.8-0.1,7.6,1.2,10.5,3.7c2.8,2.5,4.5,6.1,4.6,10L641.9,330.3z"/>
</g>
</svg>
