<?xml version="1.0" encoding="utf-8"?>
<!-- Generator: Adobe Illustrator 24.2.1, SVG Export Plug-In . SVG Version: 6.00 Build 0)  -->
<svg version="1.1" id="Layer_1" xmlns="http://www.w3.org/2000/svg" xmlns:xlink="http://www.w3.org/1999/xlink" x="0px" y="0px"
	width="100px" height="100px" viewBox="0 0 100 100" style="enable-background:new 0 0 100 100;" xml:space="preserve">
<g>
	<g>
		<path style="fill:#E8E8E8;" d="M50,0c27.6,0,50,22.4,50,50s-22.4,50-50,50S0,77.6,0,50S22.4,0,50,0"/>
		<path style="fill:#FFFFFF;" d="M50,1c27,0,49,22,49,49S77.1,99,50,99S1,77,1,50S23,1,50,1"/>
		<path style="fill:#E8E8E8;" d="M50,0c27.6,0,50,22.4,50,50s-22.4,50-50,50S0,77.6,0,50S22.4,0,50,0"/>
		<path style="fill:#FFFFFF;" d="M50,1c27,0,49,22,49,49S77.1,99,50,99S1,77,1,50S23,1,50,1"/>
	</g>
	<g id="XMLID_141_">
		<g id="XMLID_142_">
			<path id="XMLID_160_" style="fill:#27245D;" d="M29.1,73.3c0-0.1,0-0.1,0-0.3c0-0.7,0.2-1.3,0.7-1.7c0.5-0.4,1-0.6,1.6-0.6
				c0.8,0,1.3,0.3,1.6,0.9L29.1,73.3z M34.6,72.3c0-0.8-0.3-1.5-1-2.1c-0.6-0.5-1.4-0.8-2.4-0.8c-0.6,0-1.2,0.1-1.7,0.4
				c-0.5,0.3-1,0.7-1.4,1.3c-0.4,0.6-0.5,1.2-0.5,2c0,1.1,0.4,1.9,1.1,2.6c0.7,0.7,1.6,1,2.5,1c1.1,0,2.1-0.4,2.9-1.3l-0.9-1
				c-0.5,0.6-1.2,0.9-1.9,0.9c-0.8,0-1.4-0.3-1.9-0.8L34.6,72.3L34.6,72.3z"/>
			<path id="XMLID_138_" style="fill:#27245D;" d="M26,69.9c-0.4,0.3-0.7,0.6-1,1.1v-1.4h-1.5v7H25v-3c0-0.8,0.2-1.4,0.5-1.9
				c0.4-0.5,0.9-0.7,1.6-0.7h0.1l0-1.5C26.8,69.4,26.4,69.6,26,69.9"/>
			<path id="XMLID_137_" style="fill:#27245D;" d="M39.9,73c-0.2-0.2-0.5-0.3-0.7-0.4c-0.2-0.1-0.4-0.2-0.6-0.2
				c-0.2-0.1-0.5-0.1-0.8-0.2c-0.3-0.1-0.5-0.1-0.7-0.2c-0.2-0.1-0.3-0.3-0.3-0.5c0-0.3,0.1-0.5,0.3-0.6c0.2-0.1,0.5-0.2,0.9-0.2
				c0.7,0,1.3,0.2,1.8,0.6l0.5-1.1c-0.7-0.5-1.5-0.7-2.3-0.7c-0.8,0-1.5,0.2-2,0.6c-0.5,0.4-0.8,0.9-0.8,1.5c0,0.9,0.7,1.6,2.2,2
				c0,0,0.1,0,0.2,0.1c0.9,0.3,1.4,0.6,1.4,0.9c0,0.2-0.1,0.4-0.3,0.6c-0.2,0.2-0.5,0.2-0.8,0.2c-0.8,0-1.5-0.3-2.4-0.9L35,75.5
				c0.4,0.3,0.9,0.6,1.4,0.8c0.5,0.2,1.1,0.3,1.6,0.3c0.7,0,1.4-0.2,1.8-0.6c0.5-0.4,0.7-0.9,0.7-1.6C40.6,73.8,40.4,73.3,39.9,73"
				/>
			<path id="XMLID_155_" style="fill:#27245D;" d="M20.5,71.9c-0.3,0.3-0.9,0.5-1.7,0.5h-1.8v-3.7h1.6c0.8,0,1.4,0.1,1.8,0.4
				c0.4,0.3,0.6,0.7,0.6,1.3C20.9,71.1,20.8,71.6,20.5,71.9 M21.6,68.1c-0.6-0.5-1.6-0.8-3-0.8h-3.2v9.2h1.5v-2.7h1.6
				c1.4,0,2.3-0.3,3-0.8s1-1.3,1-2.4C22.5,69.5,22.2,68.7,21.6,68.1"/>
			<path id="XMLID_134_" style="fill:#27245D;" d="M44,75.3c-0.3,0-0.6-0.1-0.7-0.3c-0.2-0.2-0.3-0.5-0.3-0.8v-3.5h1.8v-1.2H43v-2.2
				h-1.5v6.9c0,0.7,0.2,1.3,0.7,1.7c0.4,0.4,1,0.6,1.6,0.6c0.6,0,1.2-0.2,1.7-0.7l-0.6-1C44.6,75.2,44.3,75.3,44,75.3"/>
			<path id="XMLID_151_" style="fill:#27245D;" d="M50.7,74.7c-0.4,0.4-0.9,0.6-1.5,0.6c-0.6,0-1.1-0.2-1.5-0.6
				c-0.4-0.4-0.6-1-0.6-1.6c0-0.7,0.2-1.2,0.6-1.7c0.4-0.5,0.9-0.7,1.5-0.7s1.1,0.2,1.5,0.7c0.4,0.5,0.6,1,0.6,1.7
				C51.3,73.7,51.1,74.3,50.7,74.7 M51.3,70.7c-0.6-0.9-1.4-1.3-2.3-1.3s-1.7,0.3-2.4,1s-1,1.5-1,2.6c0,1.1,0.3,2,1,2.6
				c0.7,0.7,1.4,1,2.3,1c0.4,0,0.9-0.1,1.3-0.3c0.4-0.2,0.8-0.5,1.1-0.9v1.1h1.5v-7h-1.5V70.7z"/>
			<path id="XMLID_148_" style="fill:#E2066F;" d="M74.5,74.7c-0.4,0.4-0.9,0.6-1.6,0.6c-0.6,0-1.2-0.2-1.6-0.6
				c-0.4-0.4-0.6-1-0.6-1.6c0-0.7,0.2-1.2,0.6-1.6c0.4-0.4,0.9-0.6,1.6-0.6c0.6,0,1.2,0.2,1.6,0.6c0.4,0.4,0.6,1,0.6,1.6
				C75.2,73.7,75,74.2,74.5,74.7 M73,69.4c-1.1,0-1.9,0.4-2.6,1c-0.7,0.7-1.1,1.5-1.1,2.5c0,1,0.4,1.9,1.1,2.5c0.7,0.7,1.6,1,2.6,1
				c1,0,1.9-0.4,2.6-1c0.7-0.7,1.1-1.5,1.1-2.5c0-1-0.4-1.9-1.1-2.5C74.9,69.8,74,69.4,73,69.4"/>
			<path id="XMLID_145_" style="fill:#E2066F;" d="M82.5,74.7c-0.4,0.4-0.9,0.6-1.5,0.6s-1.1-0.2-1.5-0.6c-0.4-0.4-0.6-1-0.6-1.6
				s0.2-1.2,0.6-1.7c0.4-0.4,0.9-0.7,1.5-0.7c0.6,0,1.1,0.2,1.5,0.7c0.4,0.4,0.6,1,0.6,1.7C83.1,73.7,82.9,74.2,82.5,74.7
				 M83.6,70.4c-0.7-0.6-1.5-1-2.4-1s-1.7,0.4-2.3,1.3v-1.2h-1.5V79H79v-3.6c0.7,0.8,1.5,1.2,2.4,1.2s1.6-0.3,2.3-1
				c0.7-0.7,1-1.5,1-2.6S84.3,71,83.6,70.4"/>
			<path id="XMLID_127_" style="fill:#E2066F;" d="M65.9,69.4c-0.5,0-0.9,0.1-1.4,0.4c-0.4,0.2-0.7,0.6-1,1v-4h-1.5v9.7h1.5v-3.8
				c0-0.6,0.2-1.1,0.6-1.5c0.4-0.3,0.8-0.5,1.3-0.5c1.1,0,1.6,0.6,1.6,1.9v3.8h1.5v-4.3c0-0.9-0.2-1.6-0.7-2.1
				C67.3,69.7,66.7,69.4,65.9,69.4"/>
			<path id="XMLID_126_" style="fill:#E2066F;" d="M60.3,72.1c-0.5-0.4-1.2-0.7-2.1-1s-1.5-0.4-1.8-0.6c-0.3-0.2-0.4-0.5-0.4-0.9
				c0-0.4,0.1-0.6,0.4-0.8c0.3-0.2,0.7-0.3,1.1-0.3c0.5,0,0.9,0.1,1.4,0.2c0.5,0.2,0.8,0.4,1.1,0.6l0.8-1.2
				c-0.4-0.4-0.9-0.6-1.5-0.8s-1.2-0.3-1.7-0.3c-0.9,0-1.7,0.2-2.3,0.7c-0.6,0.5-0.9,1.1-0.9,2c0,0.8,0.3,1.5,0.8,1.9
				c0.3,0.2,0.6,0.4,0.9,0.5c0.4,0.1,0.9,0.3,1.5,0.5c0.7,0.2,1.1,0.3,1.4,0.5s0.4,0.5,0.4,0.8s-0.1,0.6-0.4,0.9
				c-0.3,0.2-0.7,0.3-1.2,0.3c-1,0-2-0.4-2.9-1.2l-1,1.2c1.1,1,2.4,1.5,3.8,1.5c1,0,1.8-0.3,2.4-0.7c0.6-0.5,0.9-1.1,0.9-1.9
				S60.8,72.5,60.3,72.1"/>
		</g>
		<g>
			<path id="XMLID_125_" style="fill:#A0DBE8;" d="M42.6,53.4c0.3-0.2,0.7-0.3,1-0.4c0.4-0.1,0.8-0.3,1.2-0.4c0.5-0.2,1-0.3,1.5-0.4
				c0.7-0.1,1.4-0.3,2.1-0.3c-0.4,1.2-0.8,2.4-1.3,3.7c0,0.2,0,0.5,0,0.7C48,56,49,55.9,50,55.9s2,0.1,2.9,0.3c0-0.2,0-0.5,0-0.7
				c-0.5-1.2-0.9-2.4-1.3-3.7c0.7,0.1,1.4,0.2,2.1,0.3c0.5,0.1,1,0.2,1.5,0.4c0.4,0.1,0.8,0.3,1.2,0.4c0.4,0.1,0.7,0.3,1,0.4
				c2.4,1.1,4.6,2.6,6.4,4.7c4.5-3.9,7.3-9.6,7.3-16C71.1,30.4,61.7,21,50,21c-11.7,0-21.1,9.5-21.1,21.1c0,6.4,2.8,12.1,7.3,16
				C38,56,40.2,54.4,42.6,53.4z"/>
			<path id="XMLID_124_" style="fill:#525353;" d="M44,57.2c1-0.4,2-0.8,3.1-1c0-0.2,0-0.5,0-0.7c0.5-1.2,0.9-2.4,1.3-3.7
				c-0.7,0.1-1.4,0.2-2.1,0.3c-0.5,0.1-1,0.2-1.5,0.4c-0.4,0.1-0.8,0.3-1.2,0.4l1.5,0.4L44,57.2z"/>
			<path id="XMLID_123_" style="fill:#525353;" d="M40.3,59.5c0-0.4,0.1-0.8,0.1-1.2c0-0.2,0.2-0.4,0.4-0.4h0.4l1.4-4.5
				c-2.4,1.1-4.6,2.6-6.4,4.7c1,0.9,2.1,1.6,3.2,2.3C39.7,60,40,59.7,40.3,59.5z"/>
			<path id="XMLID_122_" style="fill:#525353;" d="M57.4,53.4l1.4,4.5h0.4c0.2,0,0.4,0.2,0.4,0.4c0,0.4,0,0.8,0.1,1.2
				c0.3,0.3,0.6,0.6,0.9,0.9c1.1-0.7,2.2-1.4,3.2-2.3C62,56,59.8,54.4,57.4,53.4z"/>
			<path id="XMLID_121_" style="fill:#525353;" d="M54.9,53.3l1.5-0.4c-0.4-0.1-0.8-0.3-1.2-0.4c-0.5-0.2-1-0.3-1.5-0.4
				c-0.7-0.1-1.4-0.3-2.1-0.3c0.4,1.2,0.8,2.4,1.3,3.7c0,0.2,0,0.5,0,0.7c1.1,0.2,2.1,0.5,3.1,1L54.9,53.3z"/>
			<path id="XMLID_120_" d="M50,57.8h3c-0.1-0.5-0.1-1.1-0.1-1.6C52,56,51,55.9,50,55.9c-1,0-2,0.1-2.9,0.3c0,0.5,0,1.1-0.1,1.6H50z
				"/>
			<path id="XMLID_119_" d="M39.4,60.3c0.2,0.1,0.5,0.3,0.7,0.4c0.1-0.4,0.2-0.9,0.2-1.3C40,59.7,39.7,60,39.4,60.3z"/>
			<path id="XMLID_118_" d="M43.8,57.8H47c0.1-0.5,0.1-1.1,0.1-1.6c-1.1,0.2-2.1,0.5-3.1,1L43.8,57.8z"/>
			<path id="XMLID_117_" d="M59.7,59.5c0,0.4,0.1,0.9,0.2,1.3c0.3-0.1,0.5-0.3,0.7-0.4C60.3,60,60,59.7,59.7,59.5z"/>
			<path id="XMLID_116_" d="M56.2,57.8L56,57.2c-1-0.4-2-0.8-3.1-1c0,0.5,0,1.1,0.1,1.6H56.2L56.2,57.8z"/>
			<path id="XMLID_115_" style="fill:#AA9678;" d="M43.8,57.8l0.2-0.6l1.2-3.9L43.6,53c-0.4,0.1-0.7,0.3-1,0.4l-1.4,4.5h1.4H43.8
				L43.8,57.8z"/>
			<path id="XMLID_114_" style="fill:#AA9678;" d="M56,57.2l0.2,0.6h1.1h1.4l-1.4-4.5c-0.3-0.2-0.7-0.3-1-0.4l-1.5,0.4L56,57.2z"/>
			<path id="XMLID_113_" style="fill:#C0B098;" d="M41.3,58.7C41.3,58.7,41.3,58.7,41.3,58.7L41.3,58.7
				C41.3,58.7,41.3,58.7,41.3,58.7z"/>
			<path id="XMLID_112_" style="fill:#C0B098;" d="M50,58.7h-3.1h-3.4h-2.2c0,0,0,0,0,0c0,0.8-0.1,1.6-0.3,2.4c2.7,1.3,5.8,2,9.1,2
				L50,58.7L50,58.7z"/>
			<path id="XMLID_111_" style="fill:#AA9678;" d="M58.7,58.7L58.7,58.7C58.7,58.7,58.7,58.7,58.7,58.7
				C58.7,58.7,58.7,58.7,58.7,58.7z"/>
			<path id="XMLID_110_" style="fill:#AA9678;" d="M58.7,58.7h-2.2h-3.4H50l0,0v4.5c3.2,0,6.3-0.7,9.1-2
				C58.9,60.4,58.8,59.6,58.7,58.7C58.7,58.7,58.7,58.7,58.7,58.7z"/>
			<rect id="XMLID_109_" x="50" y="58.3" style="fill:#786453;" width="0" height="0.4"/>
			<path id="XMLID_108_" style="fill:#8B7460;" d="M59.7,59.5c0-0.4-0.1-0.8-0.1-1.2c0-0.2-0.2-0.4-0.4-0.4h-0.4h-1.5h-1.1H53h-3h-3
				h-3.3h-1.1h-1.4h-0.4c-0.2,0-0.4,0.2-0.4,0.4c0,0.4,0,0.8-0.1,1.2c0,0.4-0.1,0.9-0.2,1.3c0.3,0.1,0.5,0.3,0.8,0.4
				c0.2-0.8,0.3-1.6,0.3-2.4c0,0,0,0,0,0h0h2.2h3.4H50l0,0h3.1h3.4h2.2h0c0,0,0,0,0,0c0,0.8,0.1,1.6,0.3,2.4
				c0.3-0.1,0.5-0.3,0.8-0.4C59.8,60.3,59.7,59.9,59.7,59.5z"/>
			<g>
				<path id="XMLID_107_" style="fill:none;" d="M57.1,38.9L57.1,38.9L57.1,38.9c0.3,0.8,0.6,1.5,0.7,2.3c0,0.1,0,0.1,0,0.2
					c0,0.1,0,0.2,0,0.2c0-0.1,0-0.2,0.1-0.4C57.7,40.4,57.4,39.6,57.1,38.9L57.1,38.9L57.1,38.9L57.1,38.9z"/>
				<path id="XMLID_106_" style="fill:none;" d="M63.3,43.7C63.2,43.7,63.2,43.7,63.3,43.7C63.2,43.7,63.2,43.7,63.3,43.7z"/>
				<path id="XMLID_105_" style="fill:none;" d="M63.4,43.5C63.4,43.6,63.4,43.6,63.4,43.5C63.4,43.6,63.4,43.6,63.4,43.5z"/>
				<path id="XMLID_104_" style="fill:none;" d="M56.5,38.3c-0.5-0.4-1-0.8-1.5-1.1l0,0C55.5,37.5,56,37.9,56.5,38.3z"/>
				<path id="XMLID_103_" style="fill:none;" d="M61.4,43.4C61.4,43.4,61.4,43.4,61.4,43.4C61.4,43.4,61.4,43.4,61.4,43.4z"/>
				<path id="XMLID_102_" style="fill:none;" d="M62.3,44.5C62.3,44.5,62.3,44.5,62.3,44.5C62.3,44.5,62.3,44.5,62.3,44.5z"/>
				<path id="XMLID_101_" style="fill:none;" d="M57.8,41.6c0,0.1,0,0.1,0,0.2C57.7,41.7,57.7,41.7,57.8,41.6z"/>
				<path id="XMLID_100_" style="fill:none;" d="M55.7,49.3c-0.3,0.5-0.5,1.1-0.6,1.5C55.2,50.4,55.4,49.9,55.7,49.3
					c0.1-0.2,0.2-0.4,0.3-0.5C55.9,49,55.8,49.2,55.7,49.3C55.7,49.3,55.7,49.3,55.7,49.3z"/>
				<path id="XMLID_99_" style="fill:none;" d="M57.1,38.9c0,0,0-0.1,0.1-0.1l0,0C57.1,38.8,57.1,38.8,57.1,38.9
					c0.1,0.1,0.3,0.2,0.4,0.3C57.4,39.1,57.2,39,57.1,38.9z"/>
				<path id="XMLID_98_" style="fill:none;" d="M52.9,41.6L52.9,41.6L52.9,41.6z"/>
				<path id="XMLID_97_" style="fill:none;" d="M52.8,41.3L52.8,41.3L52.8,41.3z"/>
				<path id="XMLID_96_" style="fill:none;" d="M54.2,36.8C54.2,36.8,54.1,36.7,54.2,36.8C54.1,36.7,54.2,36.8,54.2,36.8z"/>
				<path id="XMLID_95_" style="fill:none;" d="M54.3,36.8C54.3,36.8,54.2,36.8,54.3,36.8C54.2,36.8,54.3,36.8,54.3,36.8z"/>
				<path id="XMLID_94_" style="fill:none;" d="M55,38.5c0,0.1,0,0.1,0,0.2C55,38.6,55,38.6,55,38.5z"/>
				<path id="XMLID_93_" style="fill:none;" d="M52.8,41.5L52.8,41.5L52.8,41.5z"/>
				<path id="XMLID_92_" style="fill:none;" d="M63.1,45.6C63.2,45.6,63.2,45.7,63.1,45.6C63.2,45.7,63.2,45.6,63.1,45.6z"/>
				<path id="XMLID_91_" style="fill:none;" d="M55,39.2c0,0.2,0,0.5,0,0.7C55,39.6,55,39.4,55,39.2z"/>
				<path id="XMLID_90_" style="fill:none;" d="M53,41.8L53,41.8L53,41.8z"/>
				<path id="XMLID_89_" style="fill:none;" d="M54.9,37.2c-0.1,0-0.3-0.2-0.5-0.3C54.6,37,54.8,37.1,54.9,37.2z"/>
				<path id="XMLID_88_" style="fill:none;" d="M54.4,36.9c0,0-0.1-0.1-0.1-0.1C54.3,36.9,54.4,36.9,54.4,36.9z"/>
				<path id="XMLID_87_" style="fill:none;" d="M54.9,37.2L54.9,37.2L54.9,37.2L54.9,37.2z"/>
				<path id="XMLID_86_" style="fill:none;" d="M63.8,42.3C63.8,42.3,63.8,42.3,63.8,42.3L63.8,42.3L63.8,42.3
					C63.8,42.3,63.8,42.3,63.8,42.3C63.8,42.3,63.8,42.3,63.8,42.3C63.8,42.3,63.8,42.3,63.8,42.3z"/>
				<path id="XMLID_85_" style="fill:none;" d="M60.4,42.2C60.4,42.2,60.4,42.2,60.4,42.2L60.4,42.2L60.4,42.2
					C60.4,42.3,60.4,42.2,60.4,42.2L60.4,42.2z"/>
				<path id="XMLID_84_" style="fill:none;" d="M57.5,39.2c0.3,0.3,0.6,0.5,0.8,0.8C58,39.7,57.8,39.5,57.5,39.2z"/>
				<path id="XMLID_83_" style="fill:none;" d="M63,40.8c0.1,0,0.1,0,0.2,0C63.1,40.8,63,40.8,63,40.8z"/>
				<path id="XMLID_82_" style="fill:none;" d="M62.2,41.9C62.2,41.9,62.2,41.9,62.2,41.9C62.2,41.9,62.2,41.9,62.2,41.9z"/>
				<path id="XMLID_81_" style="fill:none;" d="M63.2,40.9C63.2,40.9,63.3,40.9,63.2,40.9C63.3,40.9,63.2,40.9,63.2,40.9z"/>
				<path id="XMLID_80_" style="fill:none;" d="M63.5,41.1C63.5,41.2,63.5,41.2,63.5,41.1C63.5,41.2,63.5,41.2,63.5,41.1z"/>
				<path id="XMLID_79_" style="fill:none;" d="M63.8,42L63.8,42C63.8,42,63.8,42,63.8,42C63.8,42,63.8,42,63.8,42L63.8,42z"/>
				<path id="XMLID_78_" style="fill:none;" d="M63.8,42.6L63.8,42.6C63.8,42.6,63.8,42.6,63.8,42.6L63.8,42.6
					C63.8,42.6,63.8,42.6,63.8,42.6z"/>
				<path id="XMLID_77_" style="fill:none;" d="M62.4,41.2C62.4,41.2,62.5,41.2,62.4,41.2C62.5,41.2,62.4,41.2,62.4,41.2z"/>
				<path id="XMLID_76_" style="fill:none;" d="M62.8,40.8c0,0,0.1,0,0.2,0C62.9,40.8,62.9,40.8,62.8,40.8z"/>
				<path id="XMLID_75_" style="fill:none;" d="M59.1,40.8c-0.1-0.1-0.3-0.3-0.4-0.4C58.8,40.5,59,40.6,59.1,40.8z"/>
				<path id="XMLID_74_" style="fill:none;" d="M63,36.2L63,36.2L63,36.2v2l-0.7,3.4c0,0,0,0,0,0v0l0,0l0,0l0.7-3.4V36.2L63,36.2
					L63,36.2L63,36.2z"/>
				<path id="XMLID_73_" style="fill:none;" d="M59.8,41.5c-0.1-0.1-0.1-0.2-0.2-0.2C59.7,41.4,59.7,41.5,59.8,41.5z"/>
				<path id="XMLID_72_" style="fill:none;" d="M63.7,41.6C63.7,41.6,63.7,41.7,63.7,41.6L63.7,41.6C63.8,41.7,63.7,41.6,63.7,41.6
					L63.7,41.6L63.7,41.6z"/>
				<path id="XMLID_71_" style="fill:none;" d="M62.1,42.3L62.1,42.3C62.1,42.2,62.1,42.2,62.1,42.3C62.1,42.2,62.1,42.2,62.1,42.3z
					"/>
				<path id="XMLID_70_" style="fill:none;" d="M62.7,40.9C62.7,40.9,62.8,40.9,62.7,40.9C62.8,40.9,62.7,40.9,62.7,40.9z"/>
				<path id="XMLID_69_" style="fill:none;" d="M62.5,41c0,0,0.1-0.1,0.1-0.1C62.6,41,62.6,41,62.5,41z"/>
				<path id="XMLID_68_" style="fill:none;" d="M63.8,42.9L63.8,42.9c0,0.1,0,0.1-0.1,0.2C63.7,43,63.7,42.9,63.8,42.9L63.8,42.9
					L63.8,42.9z"/>
				<path id="XMLID_67_" style="fill:none;" d="M38,41.6c0,0,0.1-0.1,0.1-0.1C38.1,41.5,38.1,41.6,38,41.6z"/>
				<path id="XMLID_66_" style="fill:none;" d="M63.3,40.9c0,0,0.1,0.1,0.1,0.1C63.4,41,63.4,41,63.3,40.9z"/>
				<path id="XMLID_65_" style="fill:none;" d="M38.6,40.7C38.6,40.7,38.7,40.7,38.6,40.7C38.7,40.7,38.6,40.7,38.6,40.7z"/>
				<path id="XMLID_64_" style="fill:none;" d="M53,42.3L53,42.3L53,42.3L53,42.3L53,42.3L53,42.3C53,42.2,53,42.2,53,42.3z"/>
				<path id="XMLID_63_" style="fill:none;" d="M37.1,43.3c0,0.1-0.1,0.2-0.1,0.2C37,43.5,37.1,43.4,37.1,43.3z"/>
				<path id="XMLID_62_" style="fill:none;" d="M36.6,44.4C36.6,44.4,36.6,44.4,36.6,44.4C36.6,44.4,36.6,44.4,36.6,44.4z"/>
				<path id="XMLID_61_" style="fill:none;" d="M63.5,36.7L63.5,36.7L63.5,36.7L63.5,36.7z"/>
				<path id="XMLID_60_" style="fill:none;" d="M40.8,38.4L40.8,38.4L40.8,38.4z"/>
				<path id="XMLID_59_" style="fill:none;" d="M40,39.1c0,0,0.1-0.1,0.1-0.1C40.1,39.1,40,39.1,40,39.1z"/>
				<path id="XMLID_58_" style="fill:none;" d="M39.2,40c0-0.1,0.1-0.1,0.1-0.2C39.3,39.9,39.3,39.9,39.2,40z"/>
				<path id="XMLID_57_" style="fill:none;" d="M63.7,41.6L63,38.2L63.7,41.6z"/>
				<path id="XMLID_56_" style="fill:none;" d="M50.6,44.2C50.6,44.2,50.6,44.2,50.6,44.2C50.6,44.2,50.6,44.2,50.6,44.2z"/>
				<path id="XMLID_55_" style="fill:none;" d="M50.8,44.2C50.8,44.2,50.8,44.2,50.8,44.2C50.8,44.2,50.8,44.2,50.8,44.2z"/>
				<path id="XMLID_54_" style="fill:none;" d="M37.6,42.4c0,0.1-0.1,0.2-0.1,0.3C37.5,42.6,37.5,42.5,37.6,42.4z"/>
				<path id="XMLID_53_" style="fill:none;" d="M50.1,44L50.1,44L50.1,44z"/>
				<path id="XMLID_52_" style="fill:none;" d="M50.4,44.2C50.4,44.2,50.4,44.2,50.4,44.2C50.4,44.2,50.4,44.2,50.4,44.2z"/>
				<path id="XMLID_51_" style="fill:none;" d="M50.2,44.1L50.2,44.1L50.2,44.1z"/>
				<path id="XMLID_50_" style="fill:none;" d="M49.2,43L49.2,43L49.2,43z"/>
				<path id="XMLID_49_" style="fill:none;" d="M49.1,41.8C49.1,41.8,49.1,41.8,49.1,41.8C49.1,41.8,49.1,41.8,49.1,41.8z"/>
				<path id="XMLID_48_" style="fill:none;" d="M49.3,41.3L49.3,41.3L49.3,41.3z"/>
				<path id="XMLID_47_" style="fill:none;" d="M50,40.6L50,40.6L50,40.6z"/>
				<path id="XMLID_46_" style="fill:none;" d="M49.1,41.6C49.1,41.6,49.1,41.6,49.1,41.6C49.1,41.7,49.1,41.6,49.1,41.6z"/>
				<path id="XMLID_45_" style="fill:none;" d="M49.2,41.5C49.2,41.5,49.2,41.5,49.2,41.5C49.2,41.5,49.2,41.5,49.2,41.5z"/>
				<path id="XMLID_44_" style="fill:none;" d="M51.4,40.3C51.4,40.3,51.4,40.3,51.4,40.3C51.4,40.3,51.4,40.3,51.4,40.3z"/>
				<path id="XMLID_43_" style="fill:none;" d="M51.8,40.4L51.8,40.4L51.8,40.4z"/>
				<path id="XMLID_42_" style="fill:none;" d="M50.3,40.4L50.3,40.4L50.3,40.4z"/>
				<path id="XMLID_41_" style="fill:none;" d="M50.7,40.3C50.7,40.3,50.6,40.3,50.7,40.3C50.6,40.3,50.7,40.3,50.7,40.3z"/>
				<path id="XMLID_40_" style="fill:none;" d="M53,42L53,42L53,42z"/>
				<path id="XMLID_39_" style="fill:none;" d="M51,35.9C51,35.8,51,35.8,51,35.9C51,35.8,51,35.8,51,35.9z"/>
				<path id="XMLID_38_" style="fill:none;" d="M51,35.7C51,35.7,51,35.7,51,35.7C51,35.7,51,35.7,51,35.7z"/>
				<path id="XMLID_37_" style="fill:none;" d="M51,35.7C51,35.6,51,35.6,51,35.7C51,35.6,51,35.6,51,35.7z"/>
				<path id="XMLID_36_" style="fill:none;" d="M51,36.1L51,36.1V36c0,0,0-0.1,0-0.1C51,36,51,36.1,51,36.1z"/>
				<path id="XMLID_35_" style="fill:none;" d="M63.6,43.3C63.5,43.4,63.5,43.4,63.6,43.3C63.5,43.4,63.6,43.4,63.6,43.3z"/>
				<path id="XMLID_34_" style="fill:none;" d="M49.1,42C49.1,42,49.1,42.1,49.1,42C49.1,42.1,49.1,42,49.1,42z"/>
				<path id="XMLID_33_" style="fill:none;" d="M49.1,42.7L49.1,42.7L49.1,42.7z"/>
				<path id="XMLID_32_" style="fill:none;" d="M63.7,43.1c0,0,0,0.1-0.1,0.1C63.6,43.2,63.7,43.2,63.7,43.1z"/>
				<path id="XMLID_31_" style="fill:#525353;" d="M56,54.8c-0.1-0.1-0.1-0.2-0.2-0.2C55.9,54.7,56,54.8,56,54.8L56,54.8z"/>
				<path id="XMLID_30_" style="fill:#AA9678;" d="M56.5,55.3L56.5,55.3L56.5,55.3c0,0-0.2-0.2-0.5-0.5l0,0
					C56.3,55.1,56.5,55.3,56.5,55.3z"/>
				<rect id="XMLID_29_" x="63" y="36.2" style="fill:#FFFFFF;" width="0" height="0"/>
				<path id="XMLID_28_" style="fill:#FFFFFF;" d="M63.8,42.3L63.8,42.3L63.8,42.3L63.8,42.3z"/>
				<path id="XMLID_27_" style="fill:#BBBCBD;" d="M64.1,37.4L64.1,37.4L64.1,37.4C64.1,37.4,64.1,37.4,64.1,37.4L64.1,37.4
					c-0.2-0.3-0.4-0.5-0.5-0.7l0,0l0,0l0,0l0,0c-0.1-0.1-0.2-0.2-0.3-0.3c0,0-0.1-0.1-0.1-0.1c-0.1-0.1-0.1-0.1-0.2-0.1l0,0v2
					l0.7,3.4l0,0c0,0,0,0.1,0,0.1l0.5,0.6l0,0h0.5c0-0.1,0-0.1,0-0.2l0,0c0-1.6-0.3-3.2-0.7-4.7l0,0C64.1,37.4,64.1,37.4,64.1,37.4z
					"/>
				<path id="XMLID_26_" style="fill:#BBBCBD;" d="M63.8,42.3L63.8,42.3L63.8,42.3L63.8,42.3z"/>
				<path id="XMLID_25_" style="fill:#676A6A;" d="M63.8,42L63.8,42C63.8,42,63.8,42,63.8,42L63.8,42c0,0.1,0,0.2,0,0.3c0,0,0,0,0,0
					l0,0l0,0c0,0,0,0,0,0c0,0.1,0,0.2,0,0.2l0,0v0v0c0,0.1,0,0.2,0,0.3l0,0l0,0l0,0l0,0l0,0l0.5-0.6l-0.5-0.6l0,0
					C63.8,41.8,63.8,41.9,63.8,42z"/>
				<path d="M63.8,42.6C63.8,42.6,63.8,42.6,63.8,42.6c0-0.1,0-0.2,0-0.3c0,0,0,0,0-0.1s0,0,0-0.1c0-0.1,0-0.2,0-0.3c0,0,0,0,0,0
					c0-0.1,0-0.2,0-0.3c0,0,0-0.1,0-0.1c-0.1-0.2-0.1-0.3-0.2-0.4c0,0,0,0,0,0c0,0,0-0.1-0.1-0.1c0,0-0.1-0.1-0.1-0.1c0,0,0,0,0,0
					c0,0-0.1,0-0.1-0.1c0,0,0,0,0,0c0,0-0.1,0-0.2,0s-0.1,0-0.2,0c0,0,0,0,0,0c0,0-0.1,0-0.1,0.1c0,0,0,0,0,0c0,0-0.1,0.1-0.1,0.1
					c0,0,0,0.1-0.1,0.1c0,0,0,0,0,0c-0.1,0.1-0.2,0.3-0.2,0.4v0c0,0.1,0,0.2-0.1,0.2c0,0,0,0,0,0.1c0,0.1,0,0.2,0,0.3c0,0,0,0,0,0
					l0,0c0,0.8,0.4,1.5,0.8,1.5c0.1,0,0.2,0,0.2-0.1c0,0,0,0,0,0c0,0,0.1,0,0.1-0.1c0,0,0,0,0,0c0,0,0.1-0.1,0.1-0.1
					c0,0,0-0.1,0.1-0.1c0,0,0,0,0-0.1c0,0,0-0.1,0.1-0.1c0,0,0,0,0-0.1c0-0.1,0-0.1,0.1-0.2C63.8,42.8,63.8,42.7,63.8,42.6z
					 M63,42.1c-0.2,0-0.3-0.2-0.3-0.5c0-0.3,0.1-0.5,0.3-0.5c0.2,0,0.3,0.2,0.3,0.5S63.2,42.1,63,42.1z"/>
				<ellipse id="XMLID_22_" style="fill:#FFFFFF;" cx="63" cy="41.5" rx="0.3" ry="0.5"/>
				<path id="XMLID_21_" style="fill:#909393;" d="M62.2,41.6L62.2,41.6c0.1-0.2,0.1-0.3,0.2-0.4c0,0,0,0,0,0c0,0,0-0.1,0.1-0.1
					c0,0,0.1-0.1,0.1-0.1c0,0,0,0,0,0c0,0,0.1,0,0.1-0.1c0,0,0,0,0,0c0,0,0.1,0,0.2,0s0.1,0,0.2,0c0,0,0,0,0,0c0,0,0.1,0,0.1,0.1
					c0,0,0,0,0,0c0,0,0.1,0.1,0.1,0.1c0,0,0,0.1,0.1,0.1c0,0,0,0,0,0c0.1,0.1,0.2,0.3,0.2,0.4l0,0l0,0L63,38.2L62.2,41.6L62.2,41.6
					L62.2,41.6z"/>
				<path d="M53,42.2c0-0.1,0-0.1,0-0.2l0,0c0-0.1,0-0.1,0-0.2l0,0c0-0.1,0-0.1-0.1-0.2l0,0c0-0.1,0-0.1-0.1-0.2l0,0
					c0-0.1-0.1-0.1-0.1-0.2l0,0c-0.1-0.2-0.2-0.3-0.4-0.5c-0.2-0.2-0.4-0.3-0.6-0.4l0,0c-0.1,0-0.2-0.1-0.4-0.1c0,0,0,0,0,0
					c-0.1,0-0.3,0-0.4,0s-0.3,0-0.4,0h0c-0.1,0-0.2,0.1-0.4,0.1c0,0,0,0,0,0c-0.1,0-0.2,0.1-0.3,0.2l0,0c-0.1,0.1-0.2,0.1-0.3,0.2
					l0,0h0c-0.1,0.1-0.3,0.3-0.4,0.5l0,0c0,0.1-0.1,0.1-0.1,0.2c0,0,0,0,0,0c0,0.1,0,0.1-0.1,0.2c0,0,0,0,0,0c0,0.1,0,0.1,0,0.2
					c0,0,0,0,0,0c0,0.1,0,0.1,0,0.2c0,0,0,0,0,0c0,0.1,0,0.1,0,0.2c0,0.1,0,0.3,0,0.4c0,0,0,0,0,0c0,0.1,0.1,0.2,0.1,0.4l0,0
					c0.1,0.2,0.2,0.4,0.4,0.6c0.1,0.1,0.3,0.3,0.5,0.4l0,0c0.1,0,0.1,0.1,0.2,0.1h0c0.1,0,0.1,0,0.2,0.1c0,0,0,0,0,0
					c0.1,0,0.1,0,0.2,0c0,0,0,0,0,0c0.1,0,0.1,0,0.2,0c0,0,0,0,0,0c0.1,0,0.1,0,0.2,0c0.3,0,0.5-0.1,0.8-0.2
					c0.1-0.1,0.2-0.1,0.3-0.2c0.2-0.1,0.4-0.3,0.5-0.5c0.1-0.1,0.1-0.2,0.2-0.3C52.9,42.8,53,42.6,53,42.2L53,42.2L53,42.2
					C53,42.2,53,42.2,53,42.2L53,42.2z M51,42c-0.4,0-0.7-0.3-0.7-0.7s0.3-0.7,0.7-0.7s0.7,0.3,0.7,0.7C51.8,41.7,51.4,42,51,42z"/>
				<circle id="XMLID_18_" style="fill:#FFFFFF;" cx="51" cy="41.3" r="0.7"/>
				<path id="XMLID_17_" style="fill:#BBBCBD;" d="M49.7,40.8L49.7,40.8L49.7,40.8L49.7,40.8L49.7,40.8l1.4-4.2c0,0,0-0.3,0-0.5
					c0-0.1,0-0.1,0-0.2c0,0,0,0,0-0.1c0,0,0-0.1,0-0.1c0,0,0,0,0-0.1c0,0,0,0,0-0.1c0,0,0,0,0,0c0,0,0,0,0,0
					c-0.8-0.2-1.5-0.2-2.3-0.2c-0.3,0-0.5,0-0.8,0c0,0-0.1,0-0.1,0c-1.4,0.1-2.7,0.5-4,1c-1.1,0.5-2.1,1.1-3,1.9l0,0l0,0
					c-0.2,0.2-0.5,0.4-0.7,0.6c0,0-0.1,0.1-0.1,0.1c-0.2,0.2-0.4,0.4-0.6,0.7c0,0.1-0.1,0.1-0.1,0.2c-0.2,0.2-0.4,0.5-0.6,0.7
					c0,0,0,0,0,0.1c-0.2,0.2-0.3,0.5-0.5,0.7c0,0-0.1,0.1-0.1,0.1c-0.1,0.2-0.3,0.4-0.4,0.6h6.2h0L49.7,40.8z"/>
				<path id="XMLID_16_" style="fill:#E2DDDB;" d="M54.9,40.4c0-0.2,0-0.3,0-0.5c0-0.2,0-0.4,0-0.7c0-0.2,0-0.3,0-0.5
					c0-0.1,0-0.1,0-0.2c0-0.5,0-0.9,0-1.3l0,0l0,0l0,0l0,0c0,0,0,0,0,0c0,0,0,0,0,0c-0.1,0-0.3-0.2-0.5-0.3h0c0,0-0.1-0.1-0.1-0.1
					l0,0c0,0-0.1,0-0.1-0.1l0,0c0,0-0.1,0-0.1,0c-0.3-0.2-0.6-0.3-0.9-0.4c-0.7-0.3-1.7-0.6-2.2-0.7V36v0.1v0c0,0.3,0,0.5,0,0.5
					l1.4,4.2l0,0c0.1,0.1,0.3,0.3,0.4,0.5l0,0c0,0.1,0.1,0.1,0.1,0.2l0,0c0,0.1,0.1,0.1,0.1,0.2l0,0c0,0.1,0,0.1,0.1,0.2l0,0
					c0,0.1,0,0.1,0,0.2l0,0c0,0.1,0,0.1,0,0.2l0,0v0h1.7C54.8,41.6,54.9,41,54.9,40.4C54.9,40.4,54.9,40.4,54.9,40.4z"/>
				<path id="XMLID_15_" style="fill:#FBB040;" d="M57.1,38.9L57.1,38.9L57.1,38.9L57.1,38.9z"/>
				<path id="XMLID_14_" style="fill:#FBB040;" d="M53,48.2c0.4-0.4,0.7-0.7,1.1-1.1c0.2-0.2,0.4-0.4,0.6-0.6c1.4-1.5,2.4-2.9,3-4.7
					c0,0,0-0.1,0-0.2c0,0,0,0,0,0c0-0.1,0-0.1,0-0.2c0-0.1,0-0.1,0-0.2c-0.2-0.8-0.5-1.6-0.7-2.3c0,0,0,0,0,0c0,0,0,0,0,0
					c-0.1,0-0.1-0.1-0.2-0.1c-0.2-0.1-0.3-0.3-0.5-0.4c-0.5-0.4-1-0.8-1.5-1.1l0,0c0,0.5,0,0.9,0,1.3c0,0.1,0,0.1,0,0.2
					c0,0.2,0,0.3,0,0.5c0,0.2,0,0.5,0,0.7c0,0.2,0,0.3,0,0.5c0,0,0,0,0,0.1c-0.1,0.6-0.1,1.2-0.2,1.8l-0.2,0.9
					c-0.4,1.7-1.2,3.2-1.9,4.7c-0.2,0.4-0.4,0.8-0.5,1.3c0,0,0,0.1,0,0.1c0.2-0.2,0.4-0.4,0.5-0.6C52.7,48.5,52.9,48.4,53,48.2z"/>
				<path id="XMLID_13_" style="fill:#909393;" d="M49.7,40.8L49.7,40.8c0.1-0.1,0.2-0.2,0.3-0.2l0,0c0.1-0.1,0.2-0.1,0.3-0.2
					c0,0,0,0,0,0c0.1,0,0.2-0.1,0.4-0.1h0c0.1,0,0.3,0,0.4,0s0.3,0,0.4,0c0,0,0,0,0,0c0.1,0,0.2,0.1,0.4,0.1l0,0
					c0.2,0.1,0.4,0.2,0.6,0.4l0,0L51,36.7L49.7,40.8z"/>
				<path id="XMLID_12_" style="fill:#676A6A;" d="M49.2,43c0-0.1-0.1-0.2-0.1-0.4c0,0,0,0,0,0c0-0.1,0-0.3,0-0.4c0-0.1,0-0.1,0-0.2
					c0,0,0,0,0,0c0-0.1,0-0.1,0-0.2c0,0,0,0,0,0c0-0.1,0-0.1,0-0.2c0,0,0,0,0,0c0-0.1,0-0.1,0.1-0.2c0,0,0,0,0,0
					c0-0.1,0.1-0.1,0.1-0.2l0,0c0.1-0.2,0.2-0.3,0.4-0.5l0,0l-5.8,1.4h0l5.7,1.4C49.4,43.5,49.3,43.3,49.2,43L49.2,43z"/>
				<path id="XMLID_11_" style="fill:#E2DDDB;" d="M62.2,41.9C62.2,41.9,62.2,41.9,62.2,41.9c0-0.2,0-0.2,0.1-0.3c0,0,0,0,0,0
					l0.7-3.4v-2c-0.6-0.5-1.3-0.8-2-0.8c-0.9,0-1.7,0.5-2.3,1.1c-0.7,0.6-1.2,1.5-1.6,2.3c0,0,0,0.1-0.1,0.1
					c0.1,0.1,0.3,0.2,0.4,0.3c0.3,0.3,0.6,0.5,0.8,0.8c0.1,0.1,0.3,0.3,0.4,0.4c0.1,0.1,0.3,0.3,0.4,0.4c0.2,0.2,0.3,0.4,0.5,0.5
					c0.1,0.1,0.1,0.2,0.2,0.2c0.2,0.2,0.4,0.4,0.6,0.7l0,0c0,0,0.1,0.1,0.1,0.1h1.7c0,0,0,0,0,0C62.1,42.1,62.1,42,62.2,41.9z"/>
				<path id="XMLID_10_" style="fill:#E2DDDB;" d="M57.1,38.9L57.1,38.9L57.1,38.9L57.1,38.9C57.1,38.9,57.1,38.9,57.1,38.9
					C57.1,38.9,57.1,38.9,57.1,38.9z"/>
				<path id="XMLID_9_" style="fill:#525353;" d="M36.6,44.4C36.6,44.4,36.6,44.4,36.6,44.4c0.1-0.3,0.2-0.6,0.4-0.9
					c0-0.1,0.1-0.2,0.1-0.2c0.1-0.2,0.2-0.4,0.3-0.6c0-0.1,0.1-0.2,0.1-0.3c0,0,0.1-0.1,0.1-0.1c0.1-0.2,0.2-0.4,0.4-0.6
					c0,0,0.1-0.1,0.1-0.1c0.2-0.3,0.3-0.5,0.5-0.7c0,0,0,0,0-0.1c0.2-0.3,0.4-0.5,0.6-0.7c0-0.1,0.1-0.1,0.1-0.2
					c0.2-0.2,0.4-0.5,0.6-0.7c0,0,0.1-0.1,0.1-0.1c0.2-0.2,0.5-0.4,0.7-0.6l0,0c0.9-3.2,3.9-5.5,7.3-5.5c1.4,0,2.8,0.4,3.9,1.1
					c1.2,0.7,2.2,1.8,2.8,3.1c0,0,0,0,0,0c0,0,0,0.1,0.1,0.1l0,0l0,0l0,0l0,0c0.5,0.3,1,0.7,1.5,1.1c0.2,0.1,0.3,0.3,0.5,0.4
					c0.1,0,0.1,0.1,0.2,0.1l0,0l0,0c0,0,0-0.1,0.1-0.1c0.5-3.1,1.8-5.3,3.4-5.3c1.2,0,2.3,1.3,2.9,3.2v0l0,0
					c0.2,0.2,0.4,0.4,0.5,0.7l0,0c0,0,0,0,0,0l0,0l0,0c0,0,0,0.1,0,0.1l0,0l0-0.1c-2-5.9-7.5-10.1-14-10.1
					c-8.2,0-14.8,6.6-14.8,14.8c0,1.6,0.3,3.2,0.7,4.6c0,0,0,0,0,0c0.1-0.4,0.2-0.9,0.3-1.3C36.4,45.1,36.5,44.8,36.6,44.4z"/>
				<path id="XMLID_8_" style="fill:#FFFFFF;" d="M64.3,42.3l-0.5,0.6l0,0l0,0c0,0.1,0,0.1-0.1,0.2c0,0,0,0,0,0.1c0,0,0,0.1-0.1,0.1
					c0,0,0,0,0,0.1c0,0,0,0.1-0.1,0.1c0,0-0.1,0.1-0.1,0.1c0,0,0,0,0,0c0,0-0.1,0-0.1,0.1c0,0,0,0,0,0c-0.1,0-0.2,0.1-0.2,0.1
					c-0.5,0-0.8-0.6-0.8-1.5l0,0l0,0h-1.7l0,0l0,0c0.3,0.4,0.6,0.7,0.9,1.1l0,0c0.3,0.4,0.6,0.7,0.9,1.1c0,0,0,0,0,0.1
					c0.3,0.4,0.5,0.7,0.8,1.1c0,0,0.1,0.1,0.1,0.1c0.3,0.4,0.6,0.8,0.8,1.1c0,0,0,0,0,0c0.5-1.4,0.8-3,0.8-4.6l0,0L64.3,42.3
					L64.3,42.3z"/>
				<path id="XMLID_7_" d="M47.8,35.4c0,0,0.1,0,0.1,0c0.3,0,0.5,0,0.8,0c0.8,0,1.6,0.1,2.3,0.2c0,0,0,0,0,0c0,0,0,0,0,0s0,0,0,0.1
					c0,0,0,0,0,0.1c0,0,0,0.1,0,0.1c0,0,0,0,0,0.1c0,0,0,0.1,0,0.1v-0.4c0.5,0.1,1.5,0.4,2.2,0.7c0.3,0.1,0.6,0.3,0.9,0.4
					c0,0,0,0,0.1,0c0,0,0,0,0,0c0,0,0.1,0,0.1,0.1l0,0c0,0,0.1,0,0.1,0.1h0c0.2,0.1,0.4,0.2,0.5,0.3c0,0,0,0,0,0l0,0l0,0
					c0,0,0-0.1-0.1-0.1c0,0,0,0,0,0c-0.6-1.3-1.6-2.3-2.8-3.1c-1.2-0.7-2.6-1.1-3.9-1.1c-3.4,0-6.3,2.3-7.3,5.5
					c0.9-0.8,1.9-1.4,3-1.9C45,35.9,46.4,35.5,47.8,35.4z"/>
				<line id="XMLID_6_" style="fill:none;" x1="51" y1="36" x2="51" y2="36.1"/>
				<path id="XMLID_5_" d="M58.8,36.5c0.6-0.6,1.4-1.1,2.3-1.1c0.7,0,1.4,0.3,2,0.8l0,0l0,0l0,0c0.1,0,0.1,0.1,0.2,0.1
					c0,0,0.1,0.1,0.1,0.1c0.1,0.1,0.2,0.2,0.3,0.3l0,0l0,0l0,0l0,0v0c-0.7-1.9-1.7-3.2-2.9-3.2c-1.6,0-2.9,2.2-3.4,5.3l0,0
					C57.6,37.9,58.1,37.1,58.8,36.5z"/>
				<path id="XMLID_4_" style="fill:#FFFFFF;" d="M44.7,55.9c0.1,0.1,0.3,0.1,0.4,0.1c1.5,0.5,3.2,0.8,4.9,0.8c2,0,3.8-0.4,5.5-1.1
					c0.1,0,0.2-0.1,0.3-0.1c0.1-0.1,0.3-0.1,0.4-0.2c0.1-0.1,0.3-0.1,0.4-0.2c0,0-0.1,0-0.1,0l0,0c-0.5,0.1-1.1,0.1-1.6,0
					c-3.1-0.4-3.7-1.9-3.6-3.4c-0.2-0.1-0.4-0.3-0.7-0.4c-2.3-1.7-3.7-3.5-3.7-3.5s1.8,1.4,4.5,2.4c0.1,0,0.1,0,0.2,0.1
					c0.1-0.4,0.3-0.9,0.4-1.2l0,0c0,0,0-0.1,0-0.1c0.2-0.4,0.3-0.8,0.5-1.3c0.7-1.5,1.5-3.1,1.9-4.7l0.2-0.9H53l0,0l0,0l0,0l0,0l0,0
					v0c0,0.3-0.1,0.5-0.2,0.8c-0.1,0.1-0.1,0.2-0.2,0.3c-0.1,0.2-0.3,0.4-0.5,0.5C52,44,51.9,44,51.8,44.1c-0.2,0.1-0.5,0.2-0.8,0.2
					c-0.1,0-0.1,0-0.2,0c0,0,0,0,0,0c-0.1,0-0.1,0-0.2,0c0,0,0,0,0,0c-0.1,0-0.1,0-0.2,0c0,0,0,0,0,0c-0.1,0-0.1,0-0.2-0.1h0
					c-0.1,0-0.1-0.1-0.2-0.1l0,0c-0.2-0.1-0.3-0.2-0.5-0.4l-5.7-1.4h-6.2c0,0-0.1,0.1-0.1,0.1c0,0.1-0.1,0.2-0.1,0.3
					c-0.1,0.2-0.2,0.4-0.3,0.6c0,0.1-0.1,0.2-0.1,0.2c-0.1,0.3-0.2,0.6-0.4,0.8c0,0,0,0,0,0c-0.1,0.3-0.2,0.7-0.3,1
					c-0.1,0.4-0.2,0.9-0.3,1.3c1,3,2.9,5.6,5.4,7.4c0.1,0.1,0.2,0.1,0.2,0.2c0.4,0.3,0.9,0.6,1.3,0.8C43.5,55.4,44.1,55.7,44.7,55.9
					z"/>
				<path id="XMLID_3_" style="fill:#9F2255;" d="M54.9,51.3c0,0.2,0,0.3,0,0.5c0,0.3,0,0.5,0.1,0.8c0,0.2,0.1,0.3,0.1,0.5
					c0.1,0.2,0.1,0.4,0.2,0.6c0.1,0.2,0.2,0.4,0.3,0.5c0,0.1,0.1,0.1,0.1,0.2c0.1,0.1,0.1,0.1,0.2,0.2c0.1,0.1,0.1,0.2,0.2,0.2
					c0.3,0.3,0.5,0.5,0.5,0.5s0,0,0,0c0,0,0,0,0,0l0,0c0,0,0.1,0,0.1,0c0.7-0.1,1.3-0.3,2-0.5c0.3-0.1,0.7-0.3,1-0.4
					c0.1,0,0.2-0.1,0.3-0.1c3.4-1.6,6.2-4.5,6.2-4.5C61.9,51.9,57.7,51.8,54.9,51.3z"/>
				<path id="XMLID_2_" style="fill:#E2066F;" d="M63.1,45.6c-0.3-0.4-0.5-0.7-0.8-1.1c0,0,0,0,0-0.1c-0.3-0.4-0.6-0.7-0.9-1.1l0,0
					c-0.3-0.4-0.6-0.7-0.9-1.1c0,0,0,0-0.1-0.1c-0.2-0.2-0.4-0.4-0.6-0.7c-0.1-0.1-0.1-0.2-0.2-0.2c-0.2-0.2-0.3-0.4-0.5-0.5
					c-0.1-0.1-0.3-0.3-0.4-0.4c-0.1-0.1-0.3-0.3-0.4-0.4c-0.3-0.3-0.5-0.5-0.8-0.8c-0.1-0.1-0.3-0.2-0.4-0.3l0,0
					c0.3,0.8,0.6,1.5,0.7,2.3c0,0.2,0.1,0.4,0.1,0.6c0.4,2.8-0.5,4.6-1.9,7c-0.1,0.2-0.2,0.4-0.3,0.5c-0.3,0.5-0.5,1.1-0.6,1.5
					c0,0.2-0.1,0.3-0.1,0.5c2.8,0.5,6.9,0.5,11.2-1.6c0,0-0.8-1.2-2.1-2.9c-0.3-0.4-0.6-0.8-0.8-1.1C63.2,45.7,63.2,45.6,63.1,45.6z
					"/>
				<path id="XMLID_1_" d="M56.5,55.3c0,0-0.2-0.2-0.5-0.5c-0.1-0.1-0.1-0.2-0.2-0.2c-0.1-0.1-0.1-0.1-0.2-0.2
					c0-0.1-0.1-0.1-0.1-0.2c-0.1-0.2-0.2-0.3-0.3-0.5c-0.1-0.2-0.2-0.4-0.2-0.6c0-0.2-0.1-0.3-0.1-0.5c0-0.2-0.1-0.5-0.1-0.8
					c0-0.2,0-0.3,0-0.5c0-0.2,0.1-0.3,0.1-0.5c0.1-0.5,0.3-1,0.6-1.5l0,0c0.1-0.2,0.2-0.4,0.3-0.5c1.4-2.4,2.3-4.2,1.9-7
					c0-0.2-0.1-0.4-0.1-0.6c0,0.1,0,0.3-0.1,0.4c0,0,0,0,0,0c0,0.1,0,0.1,0,0.2c-0.6,1.8-1.6,3.2-3,4.7c-0.2,0.2-0.4,0.4-0.6,0.6
					c-0.3,0.4-0.7,0.7-1.1,1.1c-0.2,0.2-0.3,0.3-0.5,0.5c-0.1,0.1-0.3,0.3-0.5,0.6l0,0c-0.1,0.4-0.3,0.8-0.4,1.2
					c-0.1,0-0.1,0-0.2-0.1c-2.7-1-4.5-2.4-4.5-2.4s1.4,1.8,3.7,3.5c0.2,0.2,0.5,0.3,0.7,0.4c-0.1,1.5,0.6,3,3.6,3.4
					C55.5,55.4,56,55.4,56.5,55.3C56.5,55.3,56.5,55.3,56.5,55.3L56.5,55.3z"/>
			</g>
		</g>
	</g>
</g>
</svg>
