<?xml version="1.0" encoding="utf-8"?>
<!-- Generator: Adobe Illustrator 24.2.1, SVG Export Plug-In . SVG Version: 6.00 Build 0)  -->
<svg version="1.1" id="Layer_1" xmlns="http://www.w3.org/2000/svg" xmlns:xlink="http://www.w3.org/1999/xlink" x="0px" y="0px"
	 viewBox="0 0 492.3 413" style="enable-background:new 0 0 492.3 413;" xml:space="preserve">
<g id="XMLID_141_">
	<g id="XMLID_142_">
		<path id="XMLID_160_" style="fill:#27245D;" d="M97.5,372.2c-0.1-0.4-0.1-1-0.1-1.8c0-5.1,1.7-9.1,5.1-11.9
			c3.4-2.9,7.1-4.3,11.2-4.3c5.4,0,9.2,2,11.3,6.1L97.5,372.2z M136.9,365c-0.1-6-2.3-10.9-6.8-14.7c-4.5-3.8-10.1-5.6-16.9-5.6
			c-4.3,0-8.4,0.9-12.2,2.8c-3.9,1.9-7.1,4.8-9.7,8.9c-2.6,4-3.9,8.6-3.9,13.9c0,7.6,2.5,13.8,7.5,18.4c5,4.7,11.1,7,18.1,7
			c8,0,15-3,20.9-9.1l-6.1-6.8c-3.6,4.3-8.2,6.5-13.7,6.5c-5.6,0-10-2-13.2-6L136.9,365L136.9,365z"/>
		<path id="XMLID_138_" style="fill:#27245D;" d="M75.4,347.7c-2.9,2-5.2,4.5-6.8,7.6v-10H58.1v49.6h10.4v-21.2
			c0-5.6,1.3-10.2,3.9-13.5c2.6-3.4,6.5-5,11.6-5h0.6l-0.1-10.5C81.4,344.7,78.3,345.7,75.4,347.7"/>
		<path id="XMLID_137_" style="fill:#27245D;" d="M174.2,369.7c-1.7-1.1-3.2-2-4.7-2.6s-3-1.2-4.5-1.7c-1.6-0.5-3.3-1-5.4-1.5
			c-2-0.5-3.6-1-4.7-1.6c-1.6-0.7-2.4-1.9-2.4-3.5c0-1.8,0.8-3.2,2.3-4.1c1.6-0.9,3.6-1.4,6.1-1.4c4.7,0,9.1,1.3,13.1,4l3.9-7.7
			c-5.1-3.4-10.5-5-16.2-5s-10.4,1.4-13.9,4.1c-3.6,2.8-5.4,6.4-5.4,11c0,6.5,5.2,11.2,15.5,14c0.2,0.1,0.6,0.2,1.1,0.4
			c6.6,2,9.9,4.2,9.9,6.7c0,1.7-0.7,3.1-2,4.1c-1.4,1.1-3.2,1.6-5.6,1.6c-5.4,0-11-2.2-16.8-6.5l-5,8.1c3,2.4,6.4,4.2,10.3,5.5
			c3.9,1.3,7.6,2,11.2,2c5.3,0,9.7-1.4,13.1-4.2c3.4-2.8,5.1-6.6,5.1-11.3C179.3,375.4,177.6,372,174.2,369.7"/>
		<path id="XMLID_155_" style="fill:#27245D;" d="M36.2,362.4c-2.2,2.3-6.4,3.5-12.4,3.5H11v-26.1h11.2c6,0,10.3,0.9,13.1,2.8
			s4.2,5,4.2,9.5C39.5,356.7,38.4,360.1,36.2,362.4 M44,335.5c-4.5-3.8-11.7-5.7-21.6-5.7H0v65.1h11v-19.1h11.6
			c9.6,0,16.7-1.8,21.3-5.5s6.9-9.4,6.9-17.3C50.8,345.2,48.5,339.3,44,335.5"/>
		<path id="XMLID_134_" style="fill:#27245D;" d="M203.7,386.7c-2.2,0-4-0.7-5.2-2.1s-1.9-3.3-1.9-5.6v-25.2h13v-8.4h-13v-15.6
			h-10.4v48.8c0,5.2,1.6,9.4,4.7,12.4c3.1,3.1,6.9,4.6,11.4,4.6c4.4,0,8.5-1.6,12.2-4.9l-4.3-7.4
			C208.1,385.6,205.9,386.7,203.7,386.7"/>
		<path id="XMLID_151_" style="fill:#27245D;" d="M251.4,382c-2.9,3-6.3,4.5-10.4,4.5c-4.1,0-7.7-1.5-10.7-4.5s-4.6-6.8-4.6-11.6
			c0-4.8,1.5-8.7,4.5-11.9c3-3.2,6.5-4.8,10.7-4.8s7.7,1.6,10.5,4.8c2.9,3.2,4.3,7.1,4.3,11.8C255.7,375.1,254.3,379,251.4,382
			 M255.5,354c-4.2-6.2-9.6-9.3-16.1-9.3s-12.2,2.3-17,6.9s-7.2,10.7-7.2,18.4c0,7.7,2.3,13.9,7,18.6s10.1,7.1,16.4,7.1
			c3.1,0,6.2-0.8,9.3-2.3s5.6-3.7,7.6-6.6v8.1h10.4v-49.6h-10.4V354z"/>
		<path id="XMLID_148_" style="fill:#E2066F;" d="M420.6,381.9c-3,3-6.7,4.5-11.2,4.5s-8.3-1.5-11.2-4.5c-3-3-4.4-6.9-4.4-11.7
			s1.5-8.7,4.4-11.7s6.7-4.5,11.2-4.5s8.3,1.5,11.2,4.5c2.9,3,4.4,6.9,4.4,11.7S423.6,378.9,420.6,381.9 M409.4,344.7
			c-7.5,0-13.7,2.5-18.6,7.4c-5,4.9-7.5,11-7.5,18.1s2.5,13.2,7.5,18.1s11.2,7.4,18.6,7.4s13.7-2.5,18.6-7.4c5-4.9,7.5-11,7.5-18.1
			S433,357,428,352.1C423,347.1,416.8,344.7,409.4,344.7"/>
		<path id="XMLID_145_" style="fill:#E2066F;" d="M477.3,381.9c-3,3-6.6,4.5-10.7,4.5s-7.6-1.5-10.4-4.5c-2.9-3-4.3-6.9-4.3-11.6
			s1.4-8.6,4.3-11.8c2.9-3.1,6.4-4.7,10.5-4.7c4.2,0,7.7,1.6,10.7,4.7s4.5,7.1,4.5,11.8C481.8,375.1,480.3,378.9,477.3,381.9
			 M485.2,351.6c-4.7-4.6-10.4-6.9-17-6.9s-12,3.1-16.1,9.4v-8.7h-10.4V413h10.4v-25.5c5,5.5,10.6,8.2,16.8,8.2s11.7-2.4,16.4-7.2
			c4.7-4.8,7-11,7-18.6S489.9,356.1,485.2,351.6"/>
		<path id="XMLID_127_" style="fill:#E2066F;" d="M359,344.7c-3.5,0-6.7,0.9-9.7,2.6s-5.3,4.1-6.8,7.2V326h-10.4v69h10.4v-26.8
			c0-4.6,1.3-8.1,4-10.5s5.8-3.6,9.4-3.6c7.6,0,11.4,4.6,11.4,13.7V395h10.4v-30.4c0-6.5-1.7-11.4-5.2-14.8
			C369.1,346.4,364.6,344.7,359,344.7"/>
		<path id="XMLID_126_" style="fill:#E2066F;" d="M319.6,363.7c-3.4-2.9-8.4-5.2-15.1-6.8c-6.7-1.6-11-3.1-13.1-4.5
			c-2-1.4-3.1-3.4-3.1-6.1c0-2.6,1-4.6,3.1-5.9c2-1.3,4.7-2,7.9-2c3.2,0,6.4,0.6,9.7,1.7c3.3,1.1,5.9,2.5,7.8,4.3l5.9-8.3
			c-3-2.5-6.5-4.4-10.6-5.8s-8.2-2-12.4-2c-6.5,0-11.9,1.6-16.3,4.9s-6.6,7.9-6.6,13.9s1.9,10.5,5.8,13.4c1.9,1.6,4.1,2.8,6.6,3.8
			s6.1,2,10.9,3.2c4.8,1.1,8.1,2.4,10.1,3.8s2.9,3.4,2.9,5.9s-1,4.5-3.1,6.1c-2.1,1.5-4.9,2.3-8.4,2.3c-7.1,0-13.9-2.9-20.5-8.6
			l-6.9,8.3c7.9,7,16.9,10.5,27.1,10.5c7,0,12.6-1.8,16.9-5.3s6.4-8.1,6.4-13.8S323,366.6,319.6,363.7"/>
	</g>
	<g>
		<path id="XMLID_125_" style="fill:#A0DBE8;" d="M193.3,230.5c2.4-1.1,4.8-2,7.3-3c2.8-1,5.6-2,8.4-2.9c3.5-1.1,7.1-2,10.7-2.8
			c4.9-1,9.8-1.8,14.7-2.3c-2.8,8.7-5.8,17.4-9.2,26c0.1,1.7,0.2,3.3,0.3,5c6.7-1.3,13.6-2,20.7-2c7.1,0,14,0.7,20.7,2
			c0-1.7,0.1-3.4,0.3-5c-3.3-8.6-6.4-17.3-9.2-26c4.9,0.5,9.9,1.2,14.7,2.3c3.6,0.8,7.1,1.7,10.7,2.8c2.8,0.9,5.6,1.8,8.4,2.9
			c2.5,0.9,4.9,1.9,7.3,3c17,7.6,32.5,18.8,45.2,33.4c31.9-27.5,52.1-68.2,52.1-113.7C396.4,67.3,329.2,0,246.2,0
			C163.3,0,96,67.2,96,150.2c0,45.4,20.2,86.1,52.1,113.7C160.8,249.3,176.3,238.1,193.3,230.5z"/>
		<path id="XMLID_124_" style="fill:#525353;" d="M203.2,257.7c7-3.1,14.5-5.5,22.2-7c0-1.7-0.1-3.4-0.3-5c3.3-8.6,6.4-17.3,9.2-26
			c-4.9,0.5-9.9,1.2-14.7,2.3c-3.6,0.8-7.1,1.7-10.7,2.8c-2.8,0.9-5.6,1.8-8.4,2.9l10.9,2.7L203.2,257.7z"/>
		<path id="XMLID_123_" style="fill:#525353;" d="M177.4,273.8c0.3-2.8,0.4-5.6,0.4-8.5c0-1.7,1.4-3.1,3.1-3.1h2.7l9.6-31.8
			c-17,7.6-32.5,18.8-45.2,33.4c7,6.1,14.6,11.5,22.6,16.2C172.9,277.9,175.1,275.8,177.4,273.8z"/>
		<path id="XMLID_122_" style="fill:#525353;" d="M299,230.5l9.6,31.8h2.7c1.7,0,3.1,1.4,3.1,3.1c0,2.9,0.2,5.7,0.4,8.5
			c2.3,2,4.6,4,6.7,6.2c8.1-4.7,15.6-10.1,22.6-16.2C331.5,249.3,316,238.1,299,230.5z"/>
		<path id="XMLID_121_" style="fill:#525353;" d="M280.7,230.2l10.9-2.7c-2.8-1-5.6-2-8.4-2.9c-3.5-1.1-7.1-2-10.7-2.8
			c-4.9-1-9.8-1.8-14.7-2.3c2.8,8.7,5.8,17.4,9.2,26c-0.1,1.7-0.2,3.3-0.3,5c7.8,1.5,15.2,3.9,22.2,7L280.7,230.2z"/>
		<path id="XMLID_120_" d="M246.1,262.3h21.2c-0.4-3.9-0.6-7.8-0.5-11.6c-6.7-1.3-13.6-2-20.7-2s-14,0.7-20.7,2
			c0.1,3.9-0.1,7.7-0.5,11.6H246.1z"/>
		<path id="XMLID_119_" d="M170.7,280c1.7,1,3.5,2,5.3,3c0.6-3,1.1-6.1,1.4-9.2C175.1,275.8,172.9,277.9,170.7,280z"/>
		<path id="XMLID_118_" d="M201.8,262.3H225c0.4-3.9,0.6-7.8,0.5-11.6c-7.8,1.5-15.2,3.9-22.2,7L201.8,262.3z"/>
		<path id="XMLID_117_" d="M314.9,273.8c0.3,3.1,0.8,6.2,1.4,9.2c1.8-0.9,3.5-1.9,5.3-3C319.4,277.9,317.2,275.8,314.9,273.8z"/>
		<path id="XMLID_116_" d="M290.5,262.3l-1.4-4.6c-7-3.1-14.5-5.5-22.2-7c-0.1,3.9,0.1,7.7,0.5,11.6H290.5L290.5,262.3z"/>
		<path id="XMLID_115_" style="fill:#AA9678;" d="M201.8,262.3l1.4-4.6l8.3-27.5l-10.9-2.7c-2.5,0.9-4.9,1.9-7.3,3l-9.6,31.8H194
			H201.8L201.8,262.3z"/>
		<path id="XMLID_114_" style="fill:#AA9678;" d="M289.1,257.7l1.4,4.6h7.8h10.3l-9.6-31.8c-2.4-1.1-4.8-2-7.3-3l-10.9,2.7
			L289.1,257.7z"/>
		<path id="XMLID_113_" style="fill:#C0B098;" d="M184,268.7c0.1-0.1,0.2-0.1,0.3-0.2H184C184,268.5,184,268.6,184,268.7z"/>
		<path id="XMLID_112_" style="fill:#C0B098;" d="M246.1,268.5H224h-24.1h-15.6c-0.1,0.1-0.2,0.1-0.3,0.2c-0.2,5.9-1,11.6-2.3,17.2
			c19.5,9.3,41.3,14.5,64.4,14.5L246.1,268.5L246.1,268.5z"/>
		<path id="XMLID_111_" style="fill:#AA9678;" d="M308.3,268.5H308c0.1,0.1,0.2,0.1,0.3,0.2C308.3,268.6,308.3,268.5,308.3,268.5z"
			/>
		<path id="XMLID_110_" style="fill:#AA9678;" d="M308,268.5h-15.6h-24.2h-22.1l0,0v31.9c23,0,44.9-5.2,64.4-14.5
			c-1.3-5.6-2.1-11.4-2.3-17.2C308.2,268.6,308.1,268.5,308,268.5z"/>
		<rect id="XMLID_109_" x="246.1" y="265.4" style="fill:#786453;" width="0" height="3.1"/>
		<path id="XMLID_108_" style="fill:#8B7460;" d="M314.9,273.8c-0.3-2.8-0.4-5.6-0.4-8.5c0-1.7-1.4-3.1-3.1-3.1h-2.7h-10.5h-7.8
			h-23.2H246h-21.2h-23.2h-7.8h-10.3h-2.7c-1.7,0-3.1,1.4-3.1,3.1c0,2.9-0.2,5.7-0.4,8.5c-0.3,3.1-0.8,6.2-1.4,9.2
			c1.9,1,3.8,2,5.7,2.9c1.3-5.6,2.1-11.4,2.3-17.2c0-0.1,0-0.1,0-0.2h0.3h15.6h24.1H246l0,0h22.2h24.1h15.6h0.3c0,0.1,0,0.1,0,0.2
			c0.2,5.9,1,11.6,2.3,17.2c1.9-0.9,3.8-1.9,5.7-2.9C315.6,280,315.2,276.9,314.9,273.8z"/>
		<g>
			<path id="XMLID_107_" style="fill:none;" d="M296.7,127.4L296.7,127.4L296.7,127.4c1.9,5.4,4,10.9,5.1,16.5
				c0,0.4-0.1,0.8-0.1,1.2c-0.1,0.6-0.2,1.1-0.3,1.6c0.2-0.7,0.3-1.6,0.5-2.6C300.8,138.4,298.6,132.9,296.7,127.4L296.7,127.4
				L296.7,127.4L296.7,127.4z"/>
			<path id="XMLID_106_" style="fill:none;" d="M340.4,161.4c-0.1,0-0.2,0.1-0.3,0.1C340.2,161.4,340.3,161.4,340.4,161.4z"/>
			<path id="XMLID_105_" style="fill:none;" d="M341.4,160.6c-0.1,0.1-0.2,0.2-0.3,0.3C341.2,160.8,341.3,160.7,341.4,160.6z"/>
			<path id="XMLID_104_" style="fill:none;" d="M292.2,123.5c-3.5-2.9-7.1-5.6-10.9-7.9l0,0C285.1,117.9,288.7,120.5,292.2,123.5z"
				/>
			<path id="XMLID_103_" style="fill:none;" d="M327,159.4C327,159.5,327,159.5,327,159.4C327,159.5,327,159.5,327,159.4z"/>
			<path id="XMLID_102_" style="fill:none;" d="M333.3,167.4c0.1,0.1,0.2,0.3,0.3,0.4C333.6,167.6,333.4,167.5,333.3,167.4z"/>
			<path id="XMLID_101_" style="fill:none;" d="M301.3,147c-0.1,0.5-0.2,0.9-0.3,1.2C301.1,147.8,301.2,147.4,301.3,147z"/>
			<path id="XMLID_100_" style="fill:none;" d="M286.6,201.8c-2.3,3.8-3.8,7.5-4.6,10.9C282.8,209.2,284.3,205.6,286.6,201.8
				c0.8-1.3,1.5-2.5,2.2-3.7C288.1,199.2,287.4,200.5,286.6,201.8C286.6,201.7,286.6,201.7,286.6,201.8z"/>
			<path id="XMLID_99_" style="fill:none;" d="M296.7,127.4c0.1-0.3,0.3-0.5,0.4-0.8l0,0C296.9,126.9,296.8,127.1,296.7,127.4
				c0.9,0.8,1.8,1.6,2.7,2.4C298.5,129,297.6,128.2,296.7,127.4z"/>
			<path id="XMLID_98_" style="fill:none;" d="M266.9,147.1L266.9,147.1L266.9,147.1z"/>
			<path id="XMLID_97_" style="fill:none;" d="M265.8,144.6L265.8,144.6L265.8,144.6z"/>
			<path id="XMLID_96_" style="fill:none;" d="M275.9,112.5c-0.2-0.1-0.4-0.2-0.5-0.3C275.6,112.3,275.7,112.4,275.9,112.5z"/>
			<path id="XMLID_95_" style="fill:none;" d="M276.7,112.9c-0.2-0.1-0.4-0.3-0.6-0.4C276.2,112.7,276.5,112.8,276.7,112.9z"/>
			<path id="XMLID_94_" style="fill:none;" d="M281.6,125c0,0.4,0,0.7,0,1.1C281.6,125.7,281.6,125.4,281.6,125z"/>
			<path id="XMLID_93_" style="fill:none;" d="M266.4,145.8L266.4,145.8L266.4,145.8z"/>
			<path id="XMLID_92_" style="fill:none;" d="M339.5,175.3c0.2,0.2,0.4,0.5,0.6,0.7C339.9,175.8,339.7,175.5,339.5,175.3z"/>
			<path id="XMLID_91_" style="fill:none;" d="M281.6,129.7c0,1.6-0.1,3.2-0.2,4.7C281.5,132.9,281.6,131.3,281.6,129.7z"/>
			<path id="XMLID_90_" style="fill:none;" d="M267.3,148.5L267.3,148.5L267.3,148.5z"/>
			<path id="XMLID_89_" style="fill:none;" d="M281,115.4c-0.5-0.3-2-1.1-3.3-1.9C279,114.2,280.4,115,281,115.4z"/>
			<path id="XMLID_88_" style="fill:none;" d="M277.6,113.4c-0.3-0.2-0.6-0.4-0.9-0.5C277,113.1,277.3,113.3,277.6,113.4z"/>
			<path id="XMLID_87_" style="fill:none;" d="M281.2,115.5L281.2,115.5L281.2,115.5L281.2,115.5z"/>
			<path id="XMLID_86_" style="fill:none;" d="M344.5,152c0-0.1,0-0.2,0-0.3l0,0l0,0c0-0.1,0-0.2,0-0.3c0,0.1,0,0.2,0,0.4
				C344.5,151.7,344.5,151.9,344.5,152z"/>
			<path id="XMLID_85_" style="fill:none;" d="M319.9,151.1c0.1,0.2,0.3,0.3,0.4,0.5l0,0l0,0C320.3,151.5,320.1,151.3,319.9,151.1
				L319.9,151.1z"/>
			<path id="XMLID_84_" style="fill:none;" d="M299.4,129.8c2,1.8,4,3.7,5.9,5.6C303.3,133.5,301.4,131.6,299.4,129.8z"/>
			<path id="XMLID_83_" style="fill:none;" d="M338.5,141.2c0.4,0,0.7,0.1,1.1,0.2C339.2,141.3,338.8,141.2,338.5,141.2z"/>
			<path id="XMLID_82_" style="fill:none;" d="M332.7,148.7c0,0.2-0.1,0.3-0.1,0.5C332.6,149,332.7,148.9,332.7,148.7z"/>
			<path id="XMLID_81_" style="fill:none;" d="M339.9,141.5c0.2,0.1,0.5,0.2,0.7,0.4C340.4,141.8,340.1,141.6,339.9,141.5z"/>
			<path id="XMLID_80_" style="fill:none;" d="M342.2,143.5c0.1,0.1,0.2,0.2,0.2,0.3C342.3,143.7,342.3,143.6,342.2,143.5z"/>
			<path id="XMLID_79_" style="fill:none;" d="M344.4,149.4L344.4,149.4c0-0.1,0-0.1,0-0.2C344.4,149.3,344.4,149.4,344.4,149.4
				L344.4,149.4z"/>
			<path id="XMLID_78_" style="fill:none;" d="M344.4,153.8L344.4,153.8C344.4,153.7,344.4,153.7,344.4,153.8v0.1
				C344.4,153.9,344.4,153.9,344.4,153.8z"/>
			<path id="XMLID_77_" style="fill:none;" d="M334.5,143.8c0.1-0.1,0.2-0.2,0.2-0.3C334.7,143.6,334.6,143.7,334.5,143.8z"/>
			<path id="XMLID_76_" style="fill:none;" d="M337.4,141.4c0.3-0.1,0.7-0.2,1.1-0.2C338.1,141.2,337.7,141.3,337.4,141.4z"/>
			<path id="XMLID_75_" style="fill:none;" d="M310.7,141c-0.9-1-1.9-1.9-2.8-2.9C308.9,139,309.8,140,310.7,141z"/>
			<path id="XMLID_74_" style="fill:none;" d="M338.5,108.4L338.5,108.4L338.5,108.4v13.9l-5.3,24.5c0,0.1,0,0.1,0,0.2v-0.1l0,0l0,0
				l5.3-24.5V108.4L338.5,108.4L338.5,108.4L338.5,108.4z"/>
			<path id="XMLID_73_" style="fill:none;" d="M315.7,146.3c-0.5-0.5-1-1.1-1.5-1.6C314.8,145.3,315.2,145.8,315.7,146.3z"/>
			<path id="XMLID_72_" style="fill:none;" d="M343.8,146.9c0.1,0.2,0.1,0.4,0.2,0.6l0,0C344,147.2,343.9,147.1,343.8,146.9
				L343.8,146.9L343.8,146.9z"/>
			<path id="XMLID_71_" style="fill:none;" d="M332.4,151.5L332.4,151.5c0-0.1,0-0.2,0-0.3C332.5,151.4,332.4,151.4,332.4,151.5z"/>
			<path id="XMLID_70_" style="fill:none;" d="M336.4,141.9c0.2-0.2,0.5-0.3,0.7-0.4C336.8,141.6,336.6,141.8,336.4,141.9z"/>
			<path id="XMLID_69_" style="fill:none;" d="M335.3,142.8c0.2-0.3,0.5-0.5,0.8-0.7C335.8,142.3,335.5,142.6,335.3,142.8z"/>
			<path id="XMLID_68_" style="fill:none;" d="M344,155.7L344,155.7c-0.1,0.5-0.3,1-0.5,1.5C343.7,156.8,343.9,156.3,344,155.7
				L344,155.7L344,155.7z"/>
			<path id="XMLID_67_" style="fill:none;" d="M161,146.9c0.2-0.3,0.5-0.7,0.7-1C161.5,146.3,161.2,146.6,161,146.9z"/>
			<path id="XMLID_66_" style="fill:none;" d="M340.9,142.1c0.3,0.2,0.5,0.5,0.8,0.7C341.4,142.6,341.2,142.3,340.9,142.1z"/>
			<path id="XMLID_65_" style="fill:none;" d="M165.3,140.7c0.1-0.1,0.2-0.3,0.3-0.4C165.5,140.4,165.4,140.5,165.3,140.7z"/>
			<path id="XMLID_64_" style="fill:none;" d="M267.6,151.5L267.6,151.5L267.6,151.5L267.6,151.5L267.6,151.5v-0.1
				C267.6,151.4,267.6,151.4,267.6,151.5z"/>
			<path id="XMLID_63_" style="fill:none;" d="M154.5,158.9c-0.3,0.5-0.5,1.1-0.8,1.6C154,160,154.2,159.5,154.5,158.9z"/>
			<path id="XMLID_62_" style="fill:none;" d="M151.2,166.6c0,0.1-0.1,0.2-0.1,0.3C151.1,166.8,151.2,166.7,151.2,166.6z"/>
			<path id="XMLID_61_" style="fill:none;" d="M342.2,112L342.2,112L342.2,112L342.2,112z"/>
			<path id="XMLID_60_" style="fill:none;" d="M180.9,123.9L180.9,123.9L180.9,123.9z"/>
			<path id="XMLID_59_" style="fill:none;" d="M175,129.3c0.3-0.3,0.6-0.6,0.9-0.9C175.6,128.7,175.3,129,175,129.3z"/>
			<path id="XMLID_58_" style="fill:none;" d="M169.7,135.1c0.3-0.4,0.6-0.7,0.9-1.1C170.3,134.4,170,134.7,169.7,135.1z"/>
			<path id="XMLID_57_" style="fill:none;" d="M343.8,146.9l-5.3-24.5L343.8,146.9z"/>
			<path id="XMLID_56_" style="fill:none;" d="M250.6,165.4c-0.1,0-0.2-0.1-0.3-0.1C250.4,165.4,250.5,165.4,250.6,165.4z"/>
			<path id="XMLID_55_" style="fill:none;" d="M252,165.6c-0.1,0-0.2,0-0.3-0.1C251.8,165.6,251.9,165.6,252,165.6z"/>
			<path id="XMLID_54_" style="fill:none;" d="M157.8,152.4c-0.3,0.6-0.7,1.2-1,1.9C157.1,153.7,157.4,153.1,157.8,152.4z"/>
			<path id="XMLID_53_" style="fill:none;" d="M246.6,163.9L246.6,163.9L246.6,163.9z"/>
			<path id="XMLID_52_" style="fill:none;" d="M249.2,165c-0.1,0-0.1,0-0.2-0.1C249.1,165,249.1,165,249.2,165z"/>
			<path id="XMLID_51_" style="fill:none;" d="M247.8,164.5L247.8,164.5L247.8,164.5z"/>
			<path id="XMLID_50_" style="fill:none;" d="M240.4,156.9L240.4,156.9L240.4,156.9z"/>
			<path id="XMLID_49_" style="fill:none;" d="M239.7,148.3c0,0.1-0.1,0.2-0.1,0.3C239.7,148.5,239.7,148.4,239.7,148.3z"/>
			<path id="XMLID_48_" style="fill:none;" d="M241.2,144.6L241.2,144.6L241.2,144.6z"/>
			<path id="XMLID_47_" style="fill:none;" d="M245.9,139.7L245.9,139.7L245.9,139.7z"/>
			<path id="XMLID_46_" style="fill:none;" d="M240.1,147c0,0.1-0.1,0.1-0.1,0.2C240,147.2,240.1,147.1,240.1,147z"/>
			<path id="XMLID_45_" style="fill:none;" d="M240.6,145.8c0,0,0,0.1-0.1,0.1C240.5,145.9,240.6,145.8,240.6,145.8z"/>
			<path id="XMLID_44_" style="fill:none;" d="M256.3,137.7C256.2,137.7,256.2,137.7,256.3,137.7
				C256.2,137.7,256.2,137.7,256.3,137.7z"/>
			<path id="XMLID_43_" style="fill:none;" d="M258.8,138.5L258.8,138.5L258.8,138.5z"/>
			<path id="XMLID_42_" style="fill:none;" d="M248.2,138.4L248.2,138.4L248.2,138.4z"/>
			<path id="XMLID_41_" style="fill:none;" d="M250.8,137.7C250.8,137.7,250.7,137.7,250.8,137.7
				C250.7,137.7,250.8,137.7,250.8,137.7z"/>
			<path id="XMLID_40_" style="fill:none;" d="M267.5,149.9L267.5,149.9L267.5,149.9z"/>
			<path id="XMLID_39_" style="fill:none;" d="M253.6,106c0-0.2,0-0.4,0-0.6C253.6,105.6,253.6,105.8,253.6,106z"/>
			<path id="XMLID_38_" style="fill:none;" d="M253.6,105.1c0-0.1,0-0.3,0-0.4C253.6,104.8,253.6,104.9,253.6,105.1z"/>
			<path id="XMLID_37_" style="fill:none;" d="M253.6,104.5C253.6,104.4,253.6,104.4,253.6,104.5
				C253.6,104.4,253.6,104.4,253.6,104.5z"/>
			<path id="XMLID_36_" style="fill:none;" d="M253.6,107.9v-0.2v-0.6c0-0.2,0-0.4,0-0.6C253.6,106.9,253.6,107.4,253.6,107.9z"/>
			<path id="XMLID_35_" style="fill:none;" d="M342.6,159.1c-0.2,0.2-0.3,0.5-0.5,0.7C342.3,159.6,342.5,159.3,342.6,159.1z"/>
			<path id="XMLID_34_" style="fill:none;" d="M239.5,149.8c0,0.1,0,0.2-0.1,0.3C239.4,150,239.4,149.9,239.5,149.8z"/>
			<path id="XMLID_33_" style="fill:none;" d="M239.6,154.3L239.6,154.3L239.6,154.3z"/>
			<path id="XMLID_32_" style="fill:none;" d="M343.4,157.6c-0.1,0.3-0.3,0.7-0.5,1C343.1,158.3,343.2,158,343.4,157.6z"/>
			<path id="XMLID_31_" style="fill:#525353;" d="M289.1,240.8c-0.5-0.5-0.9-1.1-1.4-1.7C288.2,239.8,288.7,240.3,289.1,240.8
				L289.1,240.8z"/>
			<path id="XMLID_30_" style="fill:#AA9678;" d="M292.6,244.3L292.6,244.3L292.6,244.3c0,0-1.5-1.2-3.5-3.4l0,0
				C291.1,243.1,292.6,244.3,292.6,244.3z"/>
			<rect id="XMLID_29_" x="338.5" y="108.4" style="fill:#FFFFFF;" width="0" height="0"/>
			<path id="XMLID_28_" style="fill:#FFFFFF;" d="M344.5,151.6L344.5,151.6L344.5,151.6L344.5,151.6z"/>
			<path id="XMLID_27_" style="fill:#BBBCBD;" d="M346.1,116.8L346.1,116.8L346.1,116.8C346.1,116.8,346.1,116.7,346.1,116.8
				L346.1,116.8c-1.3-1.8-2.6-3.4-3.9-4.8l0,0l0,0l0,0l0,0c-0.6-0.7-1.2-1.3-1.8-1.9c-0.2-0.2-0.5-0.4-0.7-0.6
				c-0.4-0.4-0.8-0.7-1.2-1l0,0v14l5.3,24.5l0,0c0.1,0.2,0.1,0.4,0.2,0.6l3.7,4.2l0,0h3.9c0-0.4,0-0.7,0-1.1l0,0
				c0-11.6-1.9-22.7-5.3-33.1l0,0C346.2,117.2,346.2,117,346.1,116.8z"/>
			<path id="XMLID_26_" style="fill:#BBBCBD;" d="M344.5,151.6L344.5,151.6L344.5,151.6L344.5,151.6z"/>
			<path id="XMLID_25_" style="fill:#676A6A;" d="M344.4,149.3v0.1c0,0,0,0,0,0.1l0,0c0.1,0.6,0.1,1.2,0.1,1.8c0,0.1,0,0.2,0,0.3
				l0,0l0,0c0,0.1,0,0.2,0,0.3c0,0.6,0,1.2-0.1,1.7l0,0v0.1v0.1c-0.1,0.6-0.2,1.2-0.3,1.8l0,0l0,0l0,0l0,0l0,0l3.7-4.1l-3.7-4.2l0,0
				C344.2,148,344.3,148.6,344.4,149.3z"/>
			<path d="M344.3,154c0-0.1,0-0.1,0-0.2c0.1-0.6,0.1-1.2,0.1-1.7c0-0.1,0-0.3,0-0.4c0-0.1,0-0.2,0-0.4c0-0.6,0-1.2-0.1-1.8
				c0-0.1,0-0.1,0-0.2c-0.1-0.6-0.2-1.2-0.3-1.8c-0.1-0.2-0.1-0.4-0.2-0.6c-0.4-1.2-0.8-2.2-1.4-3.1c-0.1-0.1-0.2-0.2-0.2-0.3
				c-0.2-0.2-0.3-0.4-0.5-0.6c-0.2-0.3-0.5-0.5-0.8-0.7c-0.1-0.1-0.2-0.1-0.3-0.2c-0.2-0.2-0.5-0.3-0.7-0.4c-0.1,0-0.2-0.1-0.3-0.1
				c-0.3-0.1-0.7-0.2-1.1-0.2s-0.7,0.1-1.1,0.2c-0.1,0-0.2,0.1-0.3,0.1c-0.2,0.1-0.5,0.2-0.7,0.4c-0.1,0.1-0.2,0.1-0.3,0.2
				c-0.3,0.2-0.5,0.5-0.8,0.7c-0.2,0.2-0.3,0.4-0.5,0.6c-0.1,0.1-0.2,0.2-0.2,0.3c-0.6,0.9-1.1,1.9-1.4,3.1v0.1
				c-0.2,0.5-0.3,1.1-0.4,1.7c0,0.2-0.1,0.3-0.1,0.5c-0.1,0.7-0.1,1.3-0.2,2c0,0.1,0,0.2,0,0.3l0,0c0,5.7,2.7,10.4,6,10.4
				c0.6,0,1.1-0.2,1.7-0.4c0.1,0,0.2-0.1,0.3-0.1c0.2-0.1,0.4-0.3,0.6-0.4c0.1-0.1,0.2-0.2,0.3-0.3c0.3-0.2,0.5-0.5,0.8-0.8
				c0.2-0.2,0.3-0.4,0.5-0.7c0.1-0.2,0.2-0.3,0.3-0.5c0.2-0.3,0.3-0.6,0.5-1c0.1-0.1,0.1-0.2,0.2-0.4c0.2-0.5,0.3-1,0.5-1.5
				C344.2,155.2,344.3,154.6,344.3,154z M338.7,150.2c-1.3,0-2.3-1.7-2.3-3.9c0-2.1,1-3.9,2.3-3.9s2.3,1.7,2.3,3.9
				S339.9,150.2,338.7,150.2z"/>
			<ellipse id="XMLID_22_" style="fill:#FFFFFF;" cx="338.7" cy="146.3" rx="2.3" ry="3.9"/>
			<path id="XMLID_21_" style="fill:#909393;" d="M333.1,146.9L333.1,146.9c0.4-1.2,0.8-2.2,1.4-3.1c0.1-0.1,0.2-0.2,0.2-0.3
				c0.2-0.2,0.3-0.4,0.5-0.6c0.2-0.3,0.5-0.5,0.8-0.7c0.1-0.1,0.2-0.1,0.3-0.2c0.2-0.2,0.5-0.3,0.7-0.4c0.1,0,0.2-0.1,0.3-0.1
				c0.3-0.1,0.7-0.2,1.1-0.2s0.7,0.1,1.1,0.2c0.1,0,0.2,0.1,0.3,0.1c0.2,0.1,0.5,0.2,0.7,0.4c0.1,0.1,0.2,0.1,0.3,0.2
				c0.3,0.2,0.5,0.5,0.8,0.7c0.2,0.2,0.3,0.4,0.5,0.6c0.1,0.1,0.2,0.2,0.2,0.3c0.6,0.9,1.1,1.9,1.4,3.1l0,0l0,0l-5.3-24.5
				L333.1,146.9L333.1,146.9L333.1,146.9z"/>
			<path d="M267.6,151.4c0-0.5,0-1-0.1-1.5l0,0c-0.1-0.5-0.1-0.9-0.2-1.4l0,0c-0.1-0.5-0.2-0.9-0.4-1.3l0,0
				c-0.1-0.4-0.3-0.9-0.5-1.3l0,0c-0.2-0.4-0.4-0.8-0.6-1.2l0,0c-0.7-1.2-1.5-2.3-2.5-3.2c-1.3-1.2-2.8-2.2-4.4-2.9l0,0
				c-0.8-0.3-1.7-0.6-2.5-0.8c0,0,0,0-0.1,0c-0.9-0.2-1.8-0.3-2.7-0.3c-0.9,0-1.8,0.1-2.7,0.3h-0.1c-0.9,0.2-1.7,0.4-2.5,0.7
				c0,0,0,0-0.1,0c-0.8,0.3-1.6,0.7-2.3,1.2l0,0c-0.7,0.5-1.4,1-2,1.6l0,0h-0.1c-1,1-1.9,2.1-2.6,3.3l0,0c-0.2,0.4-0.4,0.8-0.6,1.2
				c0,0,0,0.1-0.1,0.1c-0.2,0.4-0.3,0.7-0.4,1.1c0,0.1-0.1,0.1-0.1,0.2c-0.1,0.4-0.2,0.7-0.3,1.1c0,0.1-0.1,0.2-0.1,0.3
				c-0.1,0.4-0.1,0.7-0.2,1.1c0,0.1,0,0.2-0.1,0.3c0,0.5-0.1,1-0.1,1.5c0,0.9,0.1,1.8,0.3,2.7c0,0,0,0,0,0.1
				c0.2,0.9,0.4,1.7,0.8,2.6l0,0c0.7,1.6,1.7,3.1,2.9,4.4c1,1,2.1,1.9,3.3,2.6l0,0c0.4,0.2,0.8,0.4,1.2,0.6h0.1
				c0.4,0.2,0.8,0.3,1.1,0.4c0.1,0,0.1,0,0.2,0.1c0.4,0.1,0.7,0.2,1.1,0.3c0.1,0,0.2,0.1,0.3,0.1c0.4,0.1,0.7,0.1,1.1,0.2
				c0.1,0,0.2,0,0.3,0.1c0.5,0,1,0.1,1.5,0.1c2,0,3.8-0.4,5.5-1.1c0.8-0.4,1.6-0.8,2.4-1.3c1.5-1,2.8-2.3,3.8-3.8
				c0.5-0.8,0.9-1.6,1.3-2.4c0.7-1.7,1.1-3.6,1.1-5.5v-0.1l0,0C267.6,151.4,267.6,151.4,267.6,151.4L267.6,151.4z M253.5,149.7
				c-2.9,0-5.3-2.4-5.3-5.3c0-2.9,2.4-5.3,5.3-5.3c2.9,0,5.3,2.4,5.3,5.3C258.8,147.3,256.4,149.7,253.5,149.7z"/>
			<circle id="XMLID_18_" style="fill:#FFFFFF;" cx="253.5" cy="144.4" r="5.3"/>
			<path id="XMLID_17_" style="fill:#BBBCBD;" d="M243.7,141.3L243.7,141.3L243.7,141.3L243.7,141.3L243.7,141.3l9.8-29.9
				c0,0,0-1.8,0-3.5c0-0.5,0-1,0-1.4c0-0.2,0-0.3,0-0.4c0-0.2,0-0.4,0-0.6c0-0.1,0-0.3,0-0.4s0-0.3,0-0.4s0-0.2,0-0.2
				c0-0.1,0-0.1,0-0.1c-5.4-1.1-11-1.7-16.7-1.7c-1.9,0-3.8,0.1-5.7,0.2c-0.3,0-0.5,0-0.8,0.1c-9.8,0.7-19.4,3.3-28.3,7.4
				c-7.6,3.5-14.8,8.1-21.1,13.5l0,0l0,0c-1.7,1.5-3.4,3-5,4.6c-0.3,0.3-0.6,0.6-0.9,0.9c-1.5,1.5-3,3.1-4.4,4.7
				c-0.3,0.4-0.6,0.7-0.9,1.1c-1.4,1.7-2.8,3.4-4.1,5.1c-0.1,0.1-0.2,0.3-0.3,0.4c-1.2,1.7-2.4,3.4-3.6,5.2c-0.2,0.3-0.5,0.7-0.7,1
				c-0.9,1.5-1.8,3-2.6,4.5h44.3h0.1L243.7,141.3z"/>
			<path id="XMLID_16_" style="fill:#E2DDDB;" d="M281.2,138c0.1-1.2,0.2-2.3,0.2-3.5c0.1-1.6,0.1-3.1,0.2-4.7c0-1.2,0-2.4,0-3.7
				c0-0.4,0-0.7,0-1.1c0-3.2-0.2-6.3-0.3-9.5l0,0l0,0l0,0l0,0c0,0-0.1,0-0.1-0.1c0,0-0.1,0-0.1-0.1c-0.6-0.3-2-1.1-3.3-1.9h-0.1
				c-0.3-0.2-0.6-0.4-0.9-0.5l0,0c-0.2-0.1-0.4-0.3-0.6-0.4l-0.1-0.1c-0.2-0.1-0.4-0.2-0.5-0.3c-2-1.1-4.1-2-6.2-2.9
				c-5-2.1-11.8-4-15.7-4.9v2.7v0.6v0.2c0,1.8,0,3.5,0,3.5l9.7,29.8l0,0c1,0.9,1.9,2,2.5,3.2l0,0c0.2,0.4,0.4,0.8,0.6,1.2l0,0
				c0.2,0.4,0.4,0.8,0.5,1.3l0,0c0.1,0.4,0.3,0.9,0.4,1.3l0,0c0.1,0.5,0.2,0.9,0.2,1.4l0,0c0.1,0.5,0.1,1,0.1,1.5l0,0v0.1h11.8
				C280.3,146.8,280.9,142.4,281.2,138C281.2,138.2,281.2,138.1,281.2,138z"/>
			<path id="XMLID_15_" style="fill:#FBB040;" d="M296.7,127.4L296.7,127.4L296.7,127.4L296.7,127.4z"/>
			<path id="XMLID_14_" style="fill:#FBB040;" d="M267.7,194c2.7-2.7,5.2-5.2,7.6-7.7c1.4-1.5,2.8-3,4.2-4.4
				c9.9-10.7,17.1-20.8,21.5-33.7c0.1-0.3,0.2-0.7,0.3-1.2c0-0.1,0-0.1,0-0.2c0.1-0.5,0.2-1,0.3-1.6c0-0.4,0.1-0.8,0.1-1.2
				c-1.1-5.6-3.2-11.1-5.1-16.5c0,0,0,0,0,0.1c0,0,0,0-0.1-0.1c-0.4-0.3-0.7-0.7-1.1-1c-1.1-1-2.2-2-3.4-3
				c-3.5-2.9-7.1-5.6-10.9-7.9l0,0c0.2,3.2,0.3,6.3,0.3,9.5c0,0.4,0,0.7,0,1.1c0,1.2,0,2.4,0,3.7c0,1.6-0.1,3.2-0.2,4.7
				c-0.1,1.2-0.1,2.3-0.2,3.5c0,0.1,0,0.2,0,0.4c-0.4,4.4-0.9,8.8-1.7,13.1l-1.4,6.6c-2.9,11.8-8.8,22.4-13.6,33.4
				c-1.3,2.9-2.5,5.9-3.6,8.9c-0.1,0.3-0.2,0.6-0.3,0.9c1.5-1.6,2.9-3,3.9-4C265.6,196.1,266.6,195,267.7,194z"/>
			<path id="XMLID_13_" style="fill:#909393;" d="M243.8,141.3L243.8,141.3c0.6-0.6,1.3-1.1,2-1.6l0,0c0.7-0.5,1.5-0.9,2.3-1.2
				c0,0,0,0,0.1,0c0.8-0.3,1.6-0.6,2.5-0.7h0.1c0.9-0.2,1.8-0.3,2.7-0.3c0.9,0,1.8,0.1,2.7,0.3c0,0,0,0,0.1,0
				c0.9,0.2,1.7,0.4,2.5,0.8l0,0c1.6,0.7,3.1,1.6,4.4,2.9l0,0l-9.7-29.8L243.8,141.3z"/>
			<path id="XMLID_12_" style="fill:#676A6A;" d="M240.4,156.9c-0.3-0.8-0.6-1.7-0.8-2.6c0,0,0,0,0-0.1c-0.2-0.9-0.3-1.8-0.3-2.7
				c0-0.5,0-1,0.1-1.5c0-0.1,0-0.2,0.1-0.3c0-0.4,0.1-0.7,0.2-1.1c0-0.1,0.1-0.2,0.1-0.3c0.1-0.4,0.2-0.7,0.3-1.1
				c0-0.1,0.1-0.1,0.1-0.2c0.1-0.4,0.3-0.8,0.4-1.1c0,0,0-0.1,0.1-0.1c0.2-0.4,0.4-0.8,0.6-1.2l0,0c0.7-1.2,1.6-2.3,2.6-3.3l0,0
				l-41,10.1h-0.1l40.6,9.9C242.1,160.1,241.1,158.6,240.4,156.9L240.4,156.9z"/>
			<path id="XMLID_11_" style="fill:#E2DDDB;" d="M332.6,149.2c0-0.2,0.1-0.4,0.1-0.5c0.1-0.6,0.2-1.2,0.4-1.7c0-0.1,0-0.1,0-0.2
				l5.3-24.5v-14c-4.4-3.6-9-5.6-13.9-5.6c-6.2,0-11.9,3.4-16.2,7.6c-4.7,4.6-8.3,10.4-11.3,16.2c-0.1,0.3-0.3,0.5-0.4,0.8
				c0.9,0.8,1.8,1.6,2.7,2.4c2,1.8,4,3.7,5.9,5.6c0.9,0.9,1.8,1.8,2.7,2.7c0.9,1,1.9,1.9,2.8,2.9c1.2,1.3,2.4,2.5,3.5,3.8
				c0.5,0.5,1,1.1,1.5,1.6c1.4,1.6,2.8,3.1,4.2,4.7l0,0c0.2,0.2,0.4,0.4,0.5,0.5h12.1c0-0.1,0-0.2,0-0.3
				C332.5,150.6,332.5,149.9,332.6,149.2z"/>
			<path id="XMLID_10_" style="fill:#E2DDDB;" d="M296.7,127.4L296.7,127.4L296.7,127.4L296.7,127.4
				C296.7,127.5,296.7,127.5,296.7,127.4C296.7,127.5,296.7,127.5,296.7,127.4z"/>
			<path id="XMLID_9_" style="fill:#525353;" d="M151.1,166.9c0-0.1,0.1-0.2,0.1-0.3c0.8-2,1.6-4,2.5-6c0.2-0.6,0.5-1.1,0.8-1.6
				c0.7-1.6,1.5-3.1,2.3-4.6c0.3-0.6,0.6-1.2,1-1.9c0.2-0.3,0.4-0.7,0.6-1c0.9-1.5,1.7-3,2.6-4.5c0.2-0.3,0.5-0.7,0.7-1
				c1.1-1.8,2.3-3.5,3.6-5.2c0.1-0.1,0.2-0.3,0.3-0.4c1.3-1.8,2.7-3.5,4.1-5.1c0.3-0.4,0.6-0.7,0.9-1.1c1.4-1.6,2.9-3.2,4.4-4.7
				c0.3-0.3,0.6-0.6,0.9-0.9c1.6-1.6,3.2-3.1,5-4.6l0,0c6.7-22.6,27.4-39.1,51.8-39.1c9.8,0,19.6,2.8,28,8
				c8.6,5.3,15.6,13,20.1,21.9c0,0,0,0.1,0.1,0.1c0.1,0.2,0.2,0.4,0.4,0.7l0,0l0,0l0,0l0,0c3.8,2.3,7.4,5,10.9,7.9
				c1.2,1,2.3,2,3.4,3c0.4,0.3,0.7,0.7,1.1,1l0,0l0,0c0.1-0.3,0.2-0.5,0.4-0.8c3.4-21.7,13-37.4,24.3-37.4c8.5,0,16.1,8.9,20.7,22.6
				v0.1l0,0c1.3,1.4,2.6,3,3.9,4.7l0,0c0,0,0,0.1,0.1,0.1l0,0l0,0c0.1,0.2,0.1,0.4,0.2,0.6l0,0l-0.2-0.7
				c-14.1-41.6-53.4-71.6-99.8-71.6C188.1,45.1,141,92.2,141,150.4c0,11.5,1.8,22.5,5.2,32.8c0,0,0,0,0-0.1c0.7-3.1,1.5-6.2,2.4-9.2
				C149.4,171.5,150.2,169.2,151.1,166.9z"/>
			<path id="XMLID_8_" style="fill:#FFFFFF;" d="M347.7,151.6l-3.7,4.1l0,0l0,0c-0.1,0.5-0.3,1-0.5,1.5c0,0.1-0.1,0.2-0.2,0.4
				c-0.1,0.3-0.3,0.7-0.5,1c-0.1,0.2-0.2,0.3-0.3,0.5c-0.2,0.2-0.3,0.5-0.5,0.7c-0.2,0.3-0.5,0.6-0.8,0.8c-0.1,0.1-0.2,0.2-0.3,0.3
				c-0.2,0.2-0.4,0.3-0.6,0.4c-0.1,0-0.2,0.1-0.3,0.1c-0.5,0.3-1.1,0.4-1.7,0.4c-3.3,0-6-4.6-6-10.4l0,0l0,0h-12.1l0,0l0,0
				c2.3,2.6,4.5,5.2,6.6,7.9l0.1,0.1c2.1,2.6,4.2,5.2,6.3,7.8c0.1,0.1,0.2,0.3,0.3,0.4c2,2.5,3.9,5,5.8,7.5c0.2,0.2,0.4,0.5,0.6,0.7
				c2,2.7,4,5.4,6,8c0,0,0,0,0,0.1c3.5-10.3,5.4-21.2,5.5-32.6l0,0L347.7,151.6L347.7,151.6z"/>
			<path id="XMLID_7_" d="M230.3,102.9c0.3,0,0.5,0,0.8-0.1c1.9-0.1,3.8-0.2,5.7-0.2c5.7,0,11.3,0.6,16.7,1.7c0,0,0,0,0,0.1
				c0,0,0,0.1,0,0.2s0,0.2,0,0.4c0,0.1,0,0.2,0,0.4c0,0.2,0,0.4,0,0.6c0,0.1,0,0.3,0,0.4c0,0.2,0,0.4,0,0.6v-2.7
				c3.8,0.9,10.6,2.8,15.7,4.9c2.1,0.9,4.2,1.9,6.2,2.9c0.1,0,0.3,0.1,0.5,0.3c0,0,0.1,0,0.1,0.1c0.2,0.1,0.4,0.2,0.6,0.4l0,0
				c0.3,0.2,0.6,0.3,0.9,0.5h0.1c1.3,0.7,2.7,1.6,3.3,1.9c0.1,0,0.1,0.1,0.1,0.1l0.1,0.1l0,0c-0.1-0.2-0.2-0.4-0.4-0.7
				c0,0,0-0.1-0.1-0.1c-4.5-9-11.6-16.7-20.1-21.9c-8.4-5.1-18.2-8-28-8c-24.4,0-45.1,16.5-51.8,39.1c6.4-5.5,13.5-10.1,21.1-13.5
				C210.9,106.2,220.6,103.7,230.3,102.9z"/>
			<line id="XMLID_6_" style="fill:none;" x1="253.6" y1="107.1" x2="253.6" y2="107.7"/>
			<path id="XMLID_5_" d="M308.4,110.4c4.3-4.2,10-7.6,16.2-7.6c4.9,0,9.6,2,13.9,5.6l0,0l0,0l0,0c0.4,0.3,0.8,0.7,1.2,1
				c0.2,0.2,0.5,0.4,0.7,0.6c0.6,0.6,1.2,1.2,1.8,1.9l0,0l0,0l0,0l0,0v-0.1c-4.7-13.7-12.2-22.6-20.7-22.6
				c-11.3,0-20.9,15.6-24.3,37.4l0,0C300,120.8,303.7,115,308.4,110.4z"/>
			<path id="XMLID_4_" style="fill:#FFFFFF;" d="M208.6,248.7c1,0.4,1.9,0.7,2.9,1c10.9,3.8,22.6,5.9,34.8,5.9
				c13.9,0,27.2-2.7,39.3-7.6c0.6-0.3,1.3-0.5,1.9-0.8c1-0.4,2.1-0.9,3.1-1.4c0.9-0.4,1.8-0.8,2.7-1.3c-0.2,0-0.4,0.1-0.6,0.1l0,0
				c-3.8,0.4-7.5,0.5-11.2-0.1c-21.7-3.1-26.5-13.6-25.8-24.4c-1.6-0.9-3.1-1.9-4.8-3.1c-16.7-12.1-26.6-25-26.6-25
				s12.9,9.9,32.1,17.4c0.4,0.2,0.8,0.3,1.2,0.5c0.9-3.1,2-6.1,2.9-8.7l0,0c0.1-0.3,0.2-0.6,0.3-0.9c1.1-3,2.3-6,3.6-8.9
				c4.8-11,10.7-21.7,13.6-33.4l1.4-6.6h-11.8l0,0l0,0l0,0l0,0l0,0v0.1c0,2-0.4,3.8-1.1,5.5c-0.4,0.8-0.8,1.7-1.3,2.4
				c-1,1.5-2.3,2.8-3.8,3.8c-0.8,0.5-1.6,0.9-2.4,1.3c-1.7,0.7-3.6,1.1-5.5,1.1c-0.5,0-1,0-1.5-0.1c-0.1,0-0.2,0-0.3-0.1
				c-0.4,0-0.7-0.1-1.1-0.2c-0.1,0-0.2-0.1-0.3-0.1c-0.4-0.1-0.7-0.2-1.1-0.3c-0.1,0-0.1,0-0.2-0.1c-0.4-0.1-0.8-0.3-1.1-0.4h-0.1
				c-0.4-0.2-0.8-0.4-1.2-0.6l0,0c-1.2-0.7-2.3-1.5-3.3-2.6l-40.6-9.9h-44.3c-0.2,0.3-0.4,0.7-0.6,1c-0.3,0.6-0.7,1.2-1,1.9
				c-0.8,1.5-1.6,3.1-2.3,4.6c-0.3,0.5-0.5,1.1-0.8,1.6c-0.9,2-1.7,4-2.5,6c0,0.1-0.1,0.2-0.1,0.3c-0.9,2.3-1.7,4.7-2.4,7.1
				c-0.9,3-1.7,6.1-2.4,9.2c7,21.3,20.5,39.6,38.3,52.4c0.5,0.4,1.1,0.7,1.6,1.1c3,2.1,6.1,4.1,9.3,5.8
				C199.7,244.8,204.1,246.9,208.6,248.7z"/>
			<path id="XMLID_3_" style="fill:#9F2255;" d="M281.3,215.9c-0.2,1.1-0.3,2.2-0.3,3.3c-0.1,1.9,0.1,3.8,0.4,5.5
				c0.2,1.2,0.4,2.3,0.7,3.4c0.5,1.6,1,3.1,1.7,4.5s1.4,2.7,2.1,3.8c0.2,0.4,0.5,0.8,0.7,1.1c0.4,0.5,0.7,1,1.1,1.5
				c0.5,0.6,1,1.2,1.4,1.7c1.9,2.2,3.5,3.4,3.5,3.4s0,0,0,0.1s0,0.2,0.1,0.3l0,0c0.2,0,0.4-0.1,0.6-0.1c4.7-0.6,9.4-1.9,14.1-3.5
				c2.4-0.9,4.8-1.8,7.1-2.8c0.7-0.3,1.4-0.7,2.1-1c24.1-11.7,44.3-32.3,44.3-32.3C330.7,219.7,301,219.1,281.3,215.9z"/>
			<path id="XMLID_2_" style="fill:#E2066F;" d="M339.5,175.3c-1.9-2.5-3.9-5-5.8-7.5c-0.1-0.1-0.2-0.3-0.3-0.4
				c-2.1-2.6-4.2-5.2-6.3-7.8l-0.1-0.1c-2.2-2.7-4.4-5.3-6.6-7.9c-0.1-0.2-0.3-0.3-0.4-0.5c-1.4-1.6-2.8-3.1-4.2-4.7
				c-0.5-0.5-1-1.1-1.5-1.6c-1.2-1.3-2.3-2.5-3.5-3.8c-0.9-1-1.9-1.9-2.8-2.9c-0.9-0.9-1.8-1.8-2.7-2.7c-1.9-1.9-3.9-3.8-5.9-5.6
				c-0.9-0.8-1.8-1.6-2.7-2.4l0,0c1.9,5.5,4.1,11,5.2,16.7c0.3,1.5,0.5,2.9,0.7,4.3c2.7,19.7-3.7,32.6-13.7,49.6
				c-0.7,1.2-1.5,2.5-2.2,3.7c-2.3,3.8-3.8,7.5-4.6,10.9c-0.3,1.1-0.5,2.2-0.7,3.3c19.7,3.2,49.3,3.8,79.6-11.1
				c0,0-5.9-8.7-14.9-20.7c-2-2.7-4-5.4-6-8C339.9,175.8,339.7,175.5,339.5,175.3z"/>
			<path id="XMLID_1_" d="M292.6,244.3c0,0-1.5-1.2-3.5-3.4c-0.5-0.5-0.9-1.1-1.4-1.7c-0.4-0.5-0.7-1-1.1-1.5
				c-0.2-0.4-0.5-0.7-0.7-1.1c-0.7-1.2-1.4-2.4-2.1-3.8c-0.6-1.4-1.2-2.9-1.7-4.5c-0.3-1.1-0.6-2.2-0.7-3.4
				c-0.3-1.7-0.4-3.6-0.4-5.5c0-1.1,0.1-2.2,0.3-3.3c0.2-1.1,0.4-2.2,0.7-3.3c0.9-3.4,2.3-7,4.6-10.9l0,0c0.7-1.3,1.5-2.5,2.2-3.7
				c10-17,16.4-29.8,13.7-49.6c-0.2-1.4-0.4-2.9-0.7-4.3c-0.1,1-0.3,1.9-0.5,2.6c0,0.1,0,0.1,0,0.2c-0.1,0.5-0.2,0.9-0.3,1.2
				c-4.4,12.9-11.6,23-21.5,33.7c-1.3,1.5-2.7,2.9-4.2,4.4c-2.4,2.5-5,5.1-7.6,7.7c-1.1,1.1-2.2,2.1-3.3,3.2c-1,1-2.4,2.4-3.9,4l0,0
				c-0.9,2.6-2,5.6-2.9,8.7c-0.4-0.2-0.8-0.3-1.2-0.5c-19.2-7.4-32.1-17.4-32.1-17.4s9.9,12.9,26.6,25c1.6,1.2,3.2,2.2,4.8,3.1
				c-0.7,10.9,4.1,21.3,25.8,24.4c3.7,0.5,7.4,0.5,11.2,0.1C292.7,244.5,292.6,244.4,292.6,244.3L292.6,244.3z"/>
		</g>
	</g>
</g>
</svg>
