<?xml version="1.0" encoding="utf-8"?>
<!-- Generator: Adobe Illustrator 24.2.1, SVG Export Plug-In . SVG Version: 6.00 Build 0)  -->
<svg version="1.1" id="Layer_1" xmlns="http://www.w3.org/2000/svg" xmlns:xlink="http://www.w3.org/1999/xlink" x="0px" y="0px"
	width="100px" height="100px" viewBox="0 0 129.2 129.2" style="enable-background:new 0 0 129.2 129.2;" xml:space="preserve">
<g>
	<g>
		<path style="fill:#E8E8E8;" d="M64.6,0c35.7,0,64.6,29,64.6,64.6s-29,64.6-64.6,64.6S0,100.3,0,64.6S29,0,64.6,0"/>
		<path style="fill:#FFFFFF;" d="M64.6,1.3c34.9,0,63.3,28.4,63.3,63.3S99.6,128,64.6,128S1.3,99.5,1.3,64.6S29.7,1.3,64.6,1.3"/>
		<path style="fill:#E8E8E8;" d="M64.6,0c35.7,0,64.6,29,64.6,64.6s-29,64.6-64.6,64.6S0,100.3,0,64.6S29,0,64.6,0"/>
		<path style="fill:#FFFFFF;" d="M64.6,1.3c34.9,0,63.3,28.4,63.3,63.3S99.6,128,64.6,128S1.3,99.5,1.3,64.6S29.7,1.3,64.6,1.3"/>
	</g>
	<g>
		<g id="QuickBooks_Lockup">
			<g id="Wordmark">
				<path id="_" d="M118.3,64.6c0-0.2-0.2-0.3-0.4-0.3h-0.4v1h0.2v-0.4h0.1l0.2,0.4h0.2l-0.3-0.5C118.2,64.8,118.3,64.7,118.3,64.6z
					 M117.7,64.7v-0.3h0.2c0.1,0,0.2,0,0.2,0.1v0c0,0.1-0.1,0.2-0.2,0.1l0,0L117.7,64.7L117.7,64.7z M117.9,63.9
					c-0.5,0-0.9,0.4-0.9,0.9s0.4,0.9,0.9,0.9c0.5,0,0.9-0.4,0.9-0.9S118.4,63.9,117.9,63.9L117.9,63.9z M117.9,65.6
					c-0.4,0-0.8-0.3-0.8-0.8c0-0.4,0.3-0.8,0.8-0.8s0.8,0.3,0.8,0.8C118.6,65.2,118.3,65.5,117.9,65.6z"/>
				<path id="quickbooks" d="M59.1,64c-1.3,0-2-1.2-2-2.3s0.7-2.3,2-2.3c0.6,0,1.3,0.3,1.6,0.7l1.4-1.4c-0.7-0.7-1.8-1.2-3-1.2
					c-2.5,0-4.3,1.8-4.3,4.2c0,2.4,1.8,4.2,4.3,4.2c1.2,0,2.3-0.3,3-1.1l-1.4-1.5C60.4,63.8,59.7,64,59.1,64z M51.2,65.7h2.2v-8
					h-2.2V65.7z M47.2,62.1c0,0.9-0.6,1.9-1.7,1.9c-1.1,0-1.3-0.6-1.3-1.9v-4.4h-2.2v4.9c0,1.6,0.8,3.2,3,3.2c1,0,1.9-0.8,2.3-1.4h0
					v1.2h2.1v-8h-2.2V62.1z M37.9,58.7L37.9,58.7c-0.3-0.3-1.2-1.2-2.5-1.2c-2.2,0-4,1.7-4,4.2c0,2.4,1.6,4.2,3.9,4.2
					c1,0,1.9-0.5,2.5-1.2h0v4.9h2.2V57.7h-2.1V58.7L37.9,58.7z M35.8,64c-1.4,0-2.1-1.2-2.1-2.4s0.7-2.3,2.1-2.3s2.1,1.2,2.1,2.4
					S37.1,64,35.8,64L35.8,64z M85.8,57.5c-2.5,0-4.3,1.7-4.3,4.2c0,2.4,1.8,4.3,4.3,4.3c2.5,0,4.3-1.8,4.3-4.3S88.3,57.5,85.8,57.5
					L85.8,57.5z M85.8,64c-1.4,0-2.1-1.2-2.1-2.4c0-1.2,0.7-2.3,2.1-2.3c1.4,0,2.1,1.2,2.1,2.3C87.9,62.8,87.3,64,85.8,64L85.8,64z
					 M113.3,60.8c-1.1-0.3-1.5-0.4-1.5-0.9s0.8-0.8,1.2-0.8c0.7,0,1.5,0.4,1.7,0.8l1.3-1.2c-0.6-0.8-1.8-1.2-3-1.2
					c-1.6,0-3.2,0.8-3.2,2.6c0,1.8,1.2,2,2.4,2.3c1.2,0.3,1.7,0.5,1.7,1c0,0.5-0.8,0.9-1.1,0.9c-0.8,0-1.5-0.4-2-0.9l-1.3,1.4
					c0.7,0.8,2,1.3,3.2,1.3c2.1,0,3.4-1,3.4-2.7S114.4,61.1,113.3,60.8L113.3,60.8z M109.1,57.7h-2.8l-2.8,3.3h0v-7.7h-2.2v12.3h2.2
					v-3.9h0l2.9,3.9h2.9l-3.4-4.3L109.1,57.7z M76.6,57.5c-1,0-1.7,0.4-2.4,1.1h0v-5.2h-2.2v12.3H74v-1.1h0c0.6,0.8,1.5,1.4,2.5,1.4
					c2.3,0,4-1.8,4-4.2C80.5,59.2,78.8,57.5,76.6,57.5z M76.1,64c-1.3,0-2.1-1.2-2.1-2.3c0-1.2,0.8-2.4,2.1-2.4
					c1.3,0,2.1,1.2,2.1,2.3C78.3,62.8,77.5,64,76.1,64L76.1,64z M71.1,57.7h-2.8L65.4,61h0v-7.7h-2.2v12.3h2.2v-3.9h0l2.9,3.9h2.9
					l-3.4-4.3L71.1,57.7z M95.5,57.5c-2.5,0-4.3,1.7-4.3,4.2c0,2.4,1.8,4.3,4.3,4.3s4.3-1.8,4.3-4.3S98,57.5,95.5,57.5z M95.5,64
					c-1.4,0-2.1-1.2-2.1-2.4c0-1.2,0.7-2.3,2.1-2.3s2.1,1.2,2.1,2.3C97.5,62.8,96.9,64,95.5,64L95.5,64z"/>
			</g>
			<g id="Icon">
				<circle id="Circle" style="fill:#2CA01C;" cx="19.7" cy="58" r="9.2"/>
				<path id="qb" style="fill:#FFFFFF;" d="M13,58c0,2,1.6,3.6,3.6,3.6h0.5v-1.3h-0.5c-1.3,0-2.3-1-2.3-2.3s1-2.3,2.3-2.3h1.2v7
					c0,0.7,0.6,1.3,1.3,1.3v-9.7h-2.6C14.6,54.4,13,56,13,58z M22.8,54.4h-0.5v1.3h0.5c1.3,0,2.3,1,2.3,2.3s-1,2.3-2.3,2.3h-1.2v-7
					c0-0.7-0.6-1.3-1.3-1.3l0,0v9.7h2.6c2,0,3.6-1.6,3.6-3.6S24.8,54.4,22.8,54.4z"/>
			</g>
			<path id="intuit" d="M40.5,50.8c0.3,0,0.6-0.3,0.6-0.6s-0.3-0.6-0.6-0.6s-0.6,0.3-0.6,0.6S40.1,50.8,40.5,50.8z M36.8,51.3
				c-0.5,0-1,0.3-1.3,0.8h0v-0.7h-1v4h1v-2.2c0-0.5,0.3-1.1,0.9-1.1c0.6,0,0.8,0.6,0.8,1.1v2.2h1v-2.5
				C38.3,52.1,37.9,51.3,36.8,51.3L36.8,51.3z M32.6,55.4h1v-4h-1V55.4L32.6,55.4z M50.9,50.8c0.3,0,0.6-0.3,0.6-0.6
				s-0.3-0.6-0.6-0.6s-0.6,0.3-0.6,0.6S50.6,50.8,50.9,50.8L50.9,50.8L50.9,50.8z M49.3,51.4v0.9h1.1v3.1h1v-3.2h1.1v-0.9L49.3,51.4
				L49.3,51.4z M47.6,55.4h1v-4h-1V55.4L47.6,55.4z M38.8,52.3H40v3.1h1v-3.1h1.1v-0.9h-3.3L38.8,52.3L38.8,52.3z M45.5,53.6
				c0,0.5-0.3,1.1-0.9,1.1s-0.8-0.6-0.8-1.1v-2.2h-1v2.5c0,0.8,0.4,1.6,1.5,1.6c0.5,0,1-0.3,1.3-0.8h0v0.7h0.9v-4.1h-1L45.5,53.6
				L45.5,53.6z"/>
		</g>
		<g>
			<path d="M84,74c0,0.6-0.1,1.3-0.4,1.8c-0.3,0.6-0.7,1.1-1.2,1.5c-0.3,0.2-0.7,0.4-1.1,0.6c-0.4,0.1-0.9,0.2-1.5,0.2h-2.6v-8.3
				h2.6c0.6,0,1,0.1,1.5,0.2c0.4,0.1,0.8,0.3,1.1,0.5c0.3,0.2,0.5,0.4,0.7,0.7c0.2,0.3,0.4,0.5,0.5,0.8c0.1,0.3,0.2,0.6,0.3,0.9
				C84,73.3,84,73.6,84,74z M82.9,74c0-0.6-0.1-1-0.3-1.5c-0.2-0.5-0.5-0.8-0.9-1.1c-0.2-0.2-0.5-0.3-0.9-0.4
				c-0.3-0.1-0.7-0.1-1.1-0.1h-1.6v6.4h1.6c0.4,0,0.8-0.1,1.2-0.2s0.7-0.3,0.9-0.5c0.3-0.3,0.6-0.7,0.8-1.1
				C82.8,74.9,82.9,74.5,82.9,74z"/>
			<path d="M87.6,77.4c0.3,0,0.6-0.1,0.8-0.2c0.2-0.1,0.5-0.3,0.7-0.6l0.7,0.5c-0.2,0.4-0.5,0.7-0.9,0.9c-0.4,0.2-0.8,0.3-1.3,0.3
				c-0.4,0-0.7-0.1-1-0.2c-0.3-0.1-0.6-0.3-0.8-0.6c-0.2-0.2-0.4-0.5-0.6-0.8c-0.1-0.3-0.2-0.7-0.2-1.1c0-0.4,0.1-0.7,0.2-1
				s0.3-0.6,0.5-0.9s0.5-0.4,0.8-0.6c0.3-0.1,0.7-0.2,1.1-0.2c0.4,0,0.7,0.1,1,0.2c0.3,0.1,0.6,0.3,0.8,0.5c0.2,0.2,0.4,0.5,0.6,0.9
				c0.1,0.3,0.2,0.7,0.2,1.2v0.2h-4.3c0,0.2,0.1,0.5,0.2,0.7c0.1,0.2,0.2,0.4,0.4,0.5c0.1,0.1,0.3,0.3,0.5,0.3
				C87.1,77.4,87.4,77.4,87.6,77.4z M89.1,75c0-0.5-0.2-0.8-0.5-1s-0.6-0.4-1-0.4c-0.2,0-0.4,0-0.6,0.1c-0.2,0.1-0.3,0.2-0.5,0.3
				c-0.1,0.1-0.3,0.3-0.3,0.5c-0.1,0.2-0.1,0.3-0.2,0.5C85.9,75,89.1,75,89.1,75z"/>
			<path d="M94.8,76.6c0,0.2,0,0.5-0.1,0.6c-0.1,0.2-0.2,0.4-0.4,0.5c-0.2,0.1-0.4,0.2-0.6,0.3c-0.2,0.1-0.5,0.1-0.8,0.1
				c-0.5,0-0.9-0.1-1.3-0.3c-0.4-0.2-0.7-0.4-0.9-0.7l0.6-0.6c0.2,0.3,0.4,0.5,0.7,0.6s0.5,0.2,0.8,0.2s0.6-0.1,0.7-0.2
				c0.2-0.1,0.2-0.3,0.2-0.5c0-0.1,0-0.2,0-0.2c0-0.1-0.1-0.2-0.2-0.2c-0.1-0.1-0.2-0.1-0.3-0.2c-0.1,0-0.3-0.1-0.5-0.2l-0.4-0.1
				c-0.2-0.1-0.3-0.1-0.4-0.1c-0.1,0-0.2-0.1-0.3-0.2c-0.2-0.1-0.4-0.3-0.5-0.5c-0.1-0.2-0.1-0.4-0.1-0.6c0-0.2,0-0.4,0.1-0.6
				c0.1-0.2,0.2-0.3,0.3-0.5c0.1-0.1,0.3-0.3,0.6-0.3c0.2-0.1,0.5-0.1,0.8-0.1c0.4,0,0.8,0.1,1.1,0.2c0.3,0.2,0.6,0.4,0.8,0.7
				l-0.6,0.6c-0.2-0.2-0.3-0.4-0.6-0.5c-0.2-0.1-0.5-0.2-0.7-0.2c-0.2,0-0.5,0.1-0.6,0.2c-0.2,0.1-0.3,0.3-0.3,0.5
				c0,0.1,0,0.2,0.1,0.3c0.1,0.1,0.1,0.2,0.2,0.2c0.1,0,0.2,0.1,0.2,0.1c0.1,0,0.2,0.1,0.3,0.1l0.4,0.1c0.2,0.1,0.5,0.2,0.6,0.2
				s0.3,0.2,0.5,0.3C94.7,75.9,94.8,76.2,94.8,76.6z"/>
			<path d="M96,78.1v-8.3h1v5.4l2.2-2.3h1.2l-2.5,2.4l2.6,2.7h-1.3L97,75.7v2.4L96,78.1L96,78.1z"/>
			<path d="M101.5,73.7h-0.8v-0.8h0.8v-1.6h1v1.6h1.2v0.8h-1.2v4.4h-1V73.7z"/>
			<path d="M106.7,78.2c-0.4,0-0.8-0.1-1.2-0.2c-0.3-0.1-0.6-0.3-0.9-0.6c-0.2-0.2-0.4-0.5-0.6-0.9c-0.1-0.3-0.2-0.7-0.2-1
				c0-0.4,0.1-0.7,0.2-1c0.1-0.3,0.3-0.6,0.6-0.9c0.2-0.2,0.5-0.5,0.9-0.6c0.3-0.1,0.7-0.2,1.2-0.2c0.4,0,0.8,0.1,1.2,0.2
				s0.6,0.3,0.9,0.6c0.2,0.2,0.4,0.5,0.6,0.9c0.1,0.3,0.2,0.7,0.2,1c0,0.4-0.1,0.7-0.2,1c-0.1,0.3-0.3,0.6-0.6,0.9
				c-0.2,0.2-0.5,0.5-0.9,0.6C107.6,78.1,107.2,78.2,106.7,78.2z M106.7,77.4c0.3,0,0.5-0.1,0.7-0.2c0.2-0.1,0.4-0.2,0.6-0.4
				c0.1-0.2,0.3-0.4,0.3-0.6c0.1-0.2,0.1-0.5,0.1-0.7s0-0.5-0.1-0.7c-0.1-0.2-0.2-0.4-0.3-0.6c-0.1-0.2-0.3-0.3-0.6-0.4
				c-0.2-0.1-0.5-0.2-0.7-0.2c-0.3,0-0.5,0.1-0.7,0.2c-0.2,0.1-0.4,0.2-0.6,0.4c-0.1,0.2-0.3,0.4-0.3,0.6c-0.1,0.2-0.1,0.5-0.1,0.7
				s0,0.5,0.1,0.7s0.2,0.4,0.3,0.6c0.1,0.2,0.3,0.3,0.6,0.4S106.5,77.4,106.7,77.4z"/>
			<path d="M116,75.5c0,0.4-0.1,0.7-0.2,1c-0.1,0.3-0.3,0.6-0.5,0.9c-0.2,0.3-0.5,0.5-0.8,0.6c-0.3,0.1-0.6,0.2-1,0.2
				c-0.3,0-0.7-0.1-1-0.2c-0.3-0.1-0.6-0.3-0.8-0.6l0,0v3.1h-1v-7.6h0.9l0,0.7l0,0c0.2-0.3,0.5-0.5,0.8-0.6c0.3-0.1,0.6-0.2,1-0.2
				c0.3,0,0.7,0.1,1,0.2c0.3,0.1,0.6,0.3,0.9,0.6c0.2,0.2,0.4,0.5,0.5,0.8C115.9,74.8,116,75.1,116,75.5z M111.6,75.5
				c0,0.2,0,0.5,0.1,0.7s0.2,0.4,0.3,0.6c0.1,0.2,0.3,0.3,0.5,0.4c0.2,0.1,0.5,0.2,0.7,0.2c0.2,0,0.5,0,0.6-0.1
				c0.2-0.1,0.4-0.2,0.5-0.4c0.1-0.2,0.3-0.4,0.3-0.6s0.1-0.5,0.1-0.8c0-0.3,0-0.5-0.1-0.8s-0.2-0.4-0.3-0.6
				c-0.1-0.2-0.3-0.3-0.5-0.4c-0.2-0.1-0.4-0.1-0.7-0.1c-0.5,0-0.9,0.2-1.2,0.5C111.8,74.4,111.6,74.9,111.6,75.5z"/>
		</g>
	</g>
</g>
</svg>
