<?xml version="1.0" encoding="utf-8"?>
<!-- Generator: Adobe Illustrator 24.2.1, SVG Export Plug-In . SVG Version: 6.00 Build 0)  -->
<svg version="1.1" id="Layer_1" xmlns="http://www.w3.org/2000/svg" xmlns:xlink="http://www.w3.org/1999/xlink" x="0px" y="0px"
	 viewBox="0 0 742.9 220.8" style="enable-background:new 0 0 742.9 220.8;" xml:space="preserve">
<g>
	<path style="fill:#FEFEFE;" d="M636.6,145.9C636.6,145.9,636.6,145.9,636.6,145.9L636.6,145.9C636.6,145.9,636.6,145.9,636.6,145.9
		z"/>
	<path style="fill:#2C9F1C;" d="M161.3,65c-9.1-41.7-46.6-69-89-64.6C38.4,4,9.6,29.6,2,62.7c-1.7,8.5-3.1,22.5-0.8,34
		c8.9,44.4,49.9,72.6,94.6,65C140.5,154.2,170.9,109.3,161.3,65z M77.5,129.5H66.4V60.3c-0.5,0-0.9,0-1.4,0c-0.9,0-1.8,0-2.7,0
		c-3.3,0-6.4-0.2-9.5,0.4l-0.1,0c-4.3,0.7-8.4,2.8-11.5,5.9c-0.4,0.4-0.8,0.9-1.2,1.3c-0.2,0.2-0.4,0.5-0.6,0.7
		c-0.4,0.5-0.7,1-1,1.5c-0.3,0.5-0.6,1-0.9,1.6c-0.1,0.3-0.3,0.5-0.4,0.8c-0.1,0.3-0.2,0.6-0.4,0.8c-0.1,0.3-0.2,0.6-0.3,0.9
		s-0.2,0.6-0.3,0.9c-0.8,2.8-1.1,5.7-0.9,8.6C35.7,90.6,40,96.6,46,99.9c0.3,0.2,0.6,0.3,0.8,0.5c0.3,0.2,0.6,0.3,0.9,0.4
		c0.6,0.3,1.2,0.5,1.8,0.7c0.6,0.2,1.2,0.4,1.9,0.5c0.6,0.2,1.3,0.3,1.9,0.4c0.8,0.1,1.6,0.2,2.5,0.2c1,0,1.9,0,3.1,0l0,0v11.1l0,0
		c-2.3,0.3-4.6,0.4-6.9,0.1c-0.4,0-0.8-0.1-1.1-0.2c-0.7-0.1-1.4-0.2-2-0.4c-0.4-0.1-0.7-0.2-1.1-0.3c-1.2-0.3-2.4-0.8-3.6-1.2
		c-0.4-0.2-0.8-0.3-1.2-0.5l-0.6-0.3c-0.3-0.2-0.6-0.3-0.9-0.5c-0.5-0.3-1-0.6-1.5-0.9c-0.3-0.2-0.6-0.4-0.9-0.5
		c-1.8-1.2-3.5-2.5-5.1-4c-0.3-0.3-0.6-0.6-0.9-0.9c-3.9-3.9-6.7-8.7-8.2-14c-3.2-11.6,0.2-24,8.9-32.3c0.4-0.3,0.7-0.7,1.1-1
		c0.4-0.3,0.8-0.6,1.1-0.9c0.4-0.3,0.8-0.6,1.2-0.9c1.2-0.9,2.5-1.7,3.9-2.4c0.9-0.5,1.8-0.9,2.8-1.3c0.5-0.2,1-0.4,1.4-0.5
		c1.2-0.4,2.5-0.8,3.8-1c0.5-0.1,1-0.2,1.6-0.3c1.1-0.2,2.1-0.3,3.2-0.4c7.8-0.5,15.6-0.1,23.6-0.1l0,0L77.5,129.5z M137.6,91.3
		c-0.1,0.5-0.3,1-0.5,1.4l0,0c-0.2,0.5-0.4,0.9-0.6,1.4c-0.5,1.2-1.1,2.3-1.7,3.4c-0.4,0.7-0.8,1.3-1.2,1.9
		c-0.3,0.4-0.6,0.8-0.9,1.2c-0.3,0.4-0.6,0.8-0.9,1.2l-0.5,0.6c-0.3,0.4-0.7,0.8-1,1.1c-0.7,0.7-1.4,1.5-2.2,2.1
		c-0.4,0.3-0.8,0.7-1.2,1c-0.4,0.3-0.8,0.6-1.2,0.9c-0.8,0.6-1.7,1.2-2.6,1.7c-0.5,0.3-0.9,0.5-1.4,0.8c-1.6,0.9-3.4,1.6-5.1,2.2
		c-0.5,0.2-1,0.3-1.6,0.5c-2.4,0.7-4.9,1-7.4,1.2c-5.1,0.2-10.2,0.2-15.3,0.1c-2.3,0-4.7-0.1-7.1-0.1V33.3h11.1v69.2
		c5.7-0.2,11,0.7,16.3-0.9c0.3-0.1,0.6-0.2,0.9-0.3c0.6-0.2,1.1-0.4,1.6-0.6c0.3-0.1,0.5-0.2,0.8-0.4c0.5-0.3,1-0.5,1.5-0.8
		c0.7-0.4,1.4-0.9,2.1-1.4c0.7-0.5,1.3-1.1,1.9-1.6c1-1,1.9-2,2.6-3.2c0.3-0.5,0.6-0.9,0.9-1.4c0.1-0.2,0.3-0.5,0.4-0.7
		c0.2-0.4,0.4-0.8,0.6-1.3c0.3-0.6,0.5-1.2,0.7-1.8c1-3.2,1.3-6.5,0.9-9.8c0-0.2,0-0.3-0.1-0.5l0,0c-0.1-0.5-0.1-0.9-0.3-1.4l0,0
		c-0.1-0.4-0.2-0.9-0.3-1.3c-0.1-0.4-0.3-0.9-0.4-1.3c-0.2-0.4-0.3-0.8-0.5-1.2c-3.4-7.2-10.5-12-18.4-12.3c-0.8,0-1.6,0-2.4,0h-1.2
		V49.3c4.7-0.8,9.7-0.1,14.4,1.8c0.3,0.1,0.7,0.3,1,0.4c0.5,0.2,1,0.5,1.5,0.7c0.3,0.2,0.7,0.3,1,0.5s0.7,0.4,1,0.6
		c0.5,0.3,1,0.6,1.4,0.9l0,0c0.6,0.4,1.2,0.9,1.9,1.3c0.3,0.2,0.6,0.5,0.9,0.7c0.6,0.5,1.2,1,1.7,1.5c0.4,0.4,0.8,0.8,1.2,1.2
		c0.4,0.4,0.8,0.8,1.2,1.2c0.3,0.3,0.5,0.6,0.7,0.9c1.7,2,3.1,4.3,4.3,6.7C139.6,75.1,140.1,83.5,137.6,91.3L137.6,91.3z"/>
	<path style="fill:#4D4D4D;" d="M250.3,138c13.1-7.4,19.1-18.5,19.5-32.4c0.7-23.8-17.6-42.1-41.6-42c-26.7,0.1-45.9,24-40.2,50.1
		c4.2,19.3,20,32.2,39.7,32.4c13.5,0.1,27,0,40.6,0c0.7,0,1.5,0.2,2.3-0.3V138H250.3z M238.5,135.6c-20.8,7-41.2-8.2-41.1-30.8
		c0-18.7,13.8-32.6,31.9-32.3c15.6,0.3,28.8,12.8,30.1,28.9C260.8,117.1,252.3,130.9,238.5,135.6z"/>
	<path style="fill:#4D4D4D;" d="M509.3,120.2c-1.1-7.9-7.1-14.1-15.5-16c-0.6-0.1-1.3,0-1.5-0.8c1.3-0.6,2.5-1.1,3.7-1.7
		c10.8-5.8,13-20.7,4.3-29.1c-4.3-4.2-9.7-5.9-15.4-6.5c-10-1-20.1-0.4-30.1-0.4c-0.1,0-0.3,0.2-0.5,0.3v80.1
		c10.3-0.2,20.5,0.4,30.7-0.4c4.9-0.4,9.7-1.6,14.1-4C507.1,137.3,510.6,129.9,509.3,120.2z M463.9,74.5c7.7,0.4,15.5-1,23,1.2
		c5.9,1.7,8.7,5.9,8.3,11.9c-0.3,6.1-4.1,10.3-10.4,11.4c-6.9,1.2-13.8,0.5-21,0.7V74.5z M485.7,136.8c-1.5,0.3-3.1,0.4-4.6,0.5
		c-5.6,0.1-11.2,0-17,0v-28.7c7.4,0.1,14.7-0.5,21.9,0.5c8.6,1.2,13.5,6.5,13.5,14.3C499.3,130.4,494.1,135.5,485.7,136.8
		L485.7,136.8z"/>
	<path style="fill:#4D4D4D;" d="M451.8,145.9h-13c-8.5-9-17.1-18.1-26.1-27.7v27.6h-8.7V65.8h8.6v50.6c8.5-8.2,16.4-15.8,24.3-23.5
		h12.5l-25.6,24.2C433.1,126.8,442.3,136.2,451.8,145.9z"/>
	<path style="fill:#4D4D4D;" d="M684.2,145.8h-13l-26-27.6v27.7h-8.6c0-0.1,0-0.2,0-0.4c0-0.2,0-0.3,0-0.4c0-0.3,0-0.7,0-1.2
		s0-1.1,0-1.7c0-0.5,0-1,0-1.6c0-0.4,0-0.8,0-1.2s0-0.8,0-1.3c0-0.7,0-1.4,0-2.1c0-0.5,0-1,0-1.5v0c0-0.5,0-1,0-1.6
		c0-2.2,0-4.6-0.1-7.1c0-0.6,0-1.2,0-1.9c-0.1-22.3-0.1-54.1,0.2-58.3h8.4v49.7c0.2,0.1,0.4,0.3,0.7,0.4
		c7.9-7.6,15.8-15.3,23.8-22.9H682l-25.6,24.2C665.6,126.8,674.8,136.2,684.2,145.8z"/>
	<path style="fill:#4D4D4D;" d="M603.2,91.6c-16.5,0-28.4,11.6-28.5,27.7c-0.1,16.5,11.6,28.1,28.3,28.2c16.5,0,28.4-11.5,28.5-27.7
		C631.6,103.4,619.8,91.6,603.2,91.6z M603.2,139.3c-11.1,0-18.9-8-19-19.6c-0.1-11.5,7.8-19.9,18.8-19.9c11,0,18.9,8.1,18.9,19.7
		C622,131.1,614.4,139.2,603.2,139.3L603.2,139.3z"/>
	<path style="fill:#4D4D4D;" d="M542.1,91.6c-16.5,0-28.3,11.6-28.4,27.8c-0.1,16.5,11.7,28.1,28.3,28.1c16.5,0,28.4-11.6,28.5-27.8
		C570.7,103.5,558.7,91.6,542.1,91.6z M542.1,139.3c-11.1,0-18.8-8.2-18.8-19.8c0-11.5,7.9-19.8,18.9-19.8c11,0,18.8,8.2,18.8,19.8
		S553.2,139.3,542.1,139.3L542.1,139.3z"/>
	<path style="fill:#4D4D4D;" d="M316.4,145.9v-8.8c-4.2,6.6-9.5,9.8-16.4,10.3c-12.9,1-21.3-6.2-21.9-19.3
		c-0.5-11.6-0.1-23.2-0.1-35h8.3c0.9,0.9,0.5,2.1,0.5,3.1c0,9,0,18,0,26.9c0,1.4,0.1,2.9,0.2,4.3c0.7,6.8,3.6,10.6,8.6,11.6
		c6.8,1.5,13.4-1.1,16.7-6.5c2.4-4,3.2-8.5,3.2-13c0.1-7.7,0-15.4,0-23.2V93c2.9-0.3,5.8-0.3,8.7,0c0.4,17.7-0.4,35.2,0.6,52.9
		L316.4,145.9z"/>
	<path style="fill:#4D4D4D;" d="M718.5,141.8c-9.3,9.3-30.5,7-37.5-4.2c2.3-1.8,4.5-3.5,6.9-5.4c4.9,6.4,11.1,8.4,18.6,6.5
		c1.3-0.3,2.6-0.9,3.6-1.7c4.4-3.2,4.1-8.9-0.6-11.7c-3-1.7-6.4-2.1-9.6-2.9s-6.6-1.6-9.6-3.1c-6.6-3.3-9.2-11.4-5.9-18
		c0.4-0.7,0.8-1.4,1.2-2c7.4-10.1,28.6-10.6,35,1.6c0.1,0.2,0.1,0.4,0.1,0.7c-2.3,1.6-4.7,3.1-7.1,4.7c-3.8-5.4-8.8-7.4-15.1-5.8
		c-1.1,0.3-2.2,0.7-3.2,1.3c-2.1,1.2-3.5,3.1-3.4,5.6c0.1,2.4,1.8,3.7,3.8,4.7c3.6,1.9,7.7,2.4,11.6,3.4c2.3,0.5,4.5,1.2,6.6,2.1
		c7.6,3.3,11,12.1,7.7,19.7C720.9,138.9,719.9,140.4,718.5,141.8z"/>
	<path style="fill:#4D4D4D;" d="M391.6,132.8c2.2,2.1,4.3,4,6.4,6c-7.1,10.3-26.9,11.7-37.7,2.8c-12.1-9.9-13-31-1.8-42.3
		c10.6-10.6,30.6-10.3,39.9,0.6c-0.1,0.2-0.3,0.5-0.5,0.7c-2,1.8-4,3.6-6.2,5.5c-2.6-2.6-5.4-5-9.1-5.8c-10.9-2.6-20.3,3.7-22,14.7
		c-0.5,3.2-0.6,6.4,0.2,9.5c1.7,6.8,5.3,12.1,12.4,14C380.1,140.5,386.5,139,391.6,132.8z"/>
	<path style="fill:#365EBE;" d="M235.6,41.4c0,2.4,0.5,4.8-0.4,7.2c-2.5,0.7-4.9,0.6-7.8-0.1c0-4.2,0-8.3,0-12.4
		c0-3.1,0.1-6.2-0.2-9.3c-0.4-3.9-2.9-5.5-6.7-4.7c-2.2,0.5-3.9,1.3-6.6,3.4v23c-2.6,0.7-5.3,0.7-7.9,0V16c2.5-0.6,4.7-0.4,6.5-0.3
		c1.4,0.6,0.8,1.8,1.5,2.7c3.4-2.5,7.7-3.8,11.9-3.5c5,0.3,8.3,3,9.2,8C236.3,29,235.5,35.2,235.6,41.4z"/>
	<path style="fill:#365EBE;" d="M302.1,15.9v32.5c-2.2,1.1-4.5,0.6-6.4,0.5c-1.3-0.5-1-1.6-1.6-2.4c-0.3,0-0.5,0.1-0.7,0.2
		c-3.7,2.4-7.7,3.6-12.1,3c-4.6-0.7-7.6-3.3-8.2-8.1c-1-8.4-0.3-16.9-0.3-25.4c2.7-0.8,5.2-0.4,7.5-0.4c1.1,1.4,0.7,2.8,0.7,4.1
		c0.1,5.3,0,10.6,0,15.9c0,5.9,3.1,8,8.7,5.9c1.7-0.6,3.3-1.6,4.5-2.9V16C296.9,15.4,299.4,15.5,302.1,15.9z"/>
	<rect x="334" y="93.1" style="fill:#4E4E4E;" width="8.6" height="52.9"/>
	<path style="fill:#365EBE;" d="M351.8,22.5c-2.8,1-5.8,0.1-9,0.7v25.2c-2.9,0.9-5.3,0.6-8.2,0.3V23.3c-3.3-0.8-6.2,0.3-9.1-0.8
		c-0.5-2.2-0.5-4.5-0.1-6.7h26.5C352.2,18.3,352.4,20.3,351.8,22.5z"/>
	<path style="fill:#365EBE;" d="M266.7,22.5c-2.9,1.1-5.9,0.1-9.1,0.7v25.2c-2.9,0.8-5.3,0.5-8.1,0.3V23.4c-3.3-1-6.4,0.3-9.2-0.9
		c-0.7-2.2-0.3-4.3-0.3-6.6h26.6C267.3,18,267,20.1,266.7,22.5z"/>
	<path style="fill:#375FBF;" d="M196.9,15.8v32.8c-2.6,0.8-5.1,0.5-7.8,0.2V16C191.7,15.3,194.1,15.6,196.9,15.8z"/>
	<path style="fill:#365EBE;" d="M319,15.9v32.7c-2.7,0.6-5.2,0.5-7.8,0.1V15.8C313.8,15.5,316.4,15.5,319,15.9z"/>
	<path style="fill:#375EBF;" d="M258.4,6.2c0.1,2.6-2,4.9-4.7,4.9c-0.1,0-0.2,0-0.2,0c-2.7,0.1-4.9-2-5-4.6c0-0.1,0-0.1,0-0.2
		c-0.1-2.8,2.2-5.1,4.9-5.2c0,0,0.1,0,0.1,0C256.2,1.3,258.4,3.5,258.4,6.2z"/>
	<path style="fill:#375EBE;" d="M343.6,6.4c0,2.7-2.2,4.8-4.9,4.8c-0.1,0-0.1,0-0.2,0c-2.6,0-4.8-2.1-4.8-4.7c0-0.1,0-0.2,0-0.2
		c0-2.7,2.2-4.9,4.9-5C341.3,1.2,343.6,3.5,343.6,6.4C343.6,6.4,343.6,6.4,343.6,6.4z"/>
	<path style="fill:#FEFEFE;" d="M85.2,33.3h11.1v69.2c5.7-0.2,11,0.7,16.3-0.9c10.1-3.1,16.1-12.5,14.8-23.3
		c-1.2-9.8-9.8-17.5-20.1-18c-1.1-0.1-2.3,0-3.6,0V49.3c12.1-2.2,26.5,6,32.3,18.4c9.9,21.1-4.8,45.1-28.4,46.2
		c-7.4,0.3-14.8,0.1-22.4,0.1L85.2,33.3z"/>
	<path style="fill:#FEFEFE;" d="M66.4,60.3c-4.9,0.2-9.4-0.3-13.8,0.4c-11.1,2-18.3,11.5-17.4,23c0.8,10.2,9.9,18.5,20.5,18.8
		c1,0,1.9,0,3.1,0v11.1c-14.3,2.2-29.9-8.6-34-23.5c-5.4-19.9,8.4-39.7,29-41c7.8-0.5,15.6-0.1,23.6-0.1v80.4H66.4V60.3z"/>
	<path style="fill:#4D4D4D;" d="M735.4,132.2c-4.1,0-7.4,3.3-7.4,7.4s3.3,7.4,7.4,7.4s7.4-3.3,7.4-7.4S739.6,132.2,735.4,132.2z
		 M735.4,146.2c-3.6,0-6.5-2.9-6.5-6.5s2.9-6.5,6.5-6.5s6.5,2.9,6.5,6.5S739,146.2,735.4,146.2z"/>
	<path style="fill:#4D4D4D;" d="M736,140.6h-1.9v3.3H733v-8h2.7c0.7,0,1.5,0.2,2.1,0.6c0.5,0.5,0.8,1.1,0.7,1.8
		c0,0.5-0.1,0.9-0.4,1.3c-0.3,0.4-0.7,0.7-1.1,0.8l1.9,3.4v0.1h-1.1L736,140.6z M734.1,139.7h1.6c0.5,0,0.9-0.1,1.3-0.4
		c0.3-0.3,0.5-0.7,0.5-1.1c0-0.4-0.1-0.9-0.5-1.1c-0.4-0.3-0.8-0.4-1.3-0.4h-1.6L734.1,139.7z"/>
	<g>
		<path style="fill:#4D4D4D;" d="M561.1,220.8c-4.1,0-7.7-0.7-10.8-2.2s-5.8-3.4-7.9-5.7c-2.1-2.4-3.7-5.1-4.8-8.1
			c-1.1-3-1.6-6.1-1.6-9.3s0.5-6.2,1.6-9.2c1.1-3,2.7-5.7,4.8-8.1c2.1-2.4,4.8-4.3,7.9-5.7c3.1-1.4,6.7-2.2,10.8-2.2
			s7.6,0.7,10.8,2.2c3.1,1.5,5.8,3.4,7.9,5.7c2.1,2.3,3.8,5,4.9,8.1c1.1,3,1.6,6.1,1.6,9.3s-0.5,6.2-1.6,9.3c-1.1,3-2.7,5.7-4.9,8.1
			c-2.1,2.3-4.8,4.3-7.9,5.7C568.7,220.1,565.1,220.8,561.1,220.8z M561.1,215.2c2.8,0,5.4-0.5,7.7-1.6c2.3-1,4.2-2.5,5.8-4.3
			c1.6-1.8,2.9-3.9,3.8-6.3s1.3-4.9,1.3-7.6c0-2.6-0.4-5.2-1.3-7.6c-0.9-2.4-2.1-4.5-3.8-6.3c-1.6-1.8-3.6-3.2-5.8-4.3
			c-2.3-1-4.8-1.6-7.7-1.6s-5.4,0.5-7.7,1.6c-2.3,1-4.2,2.5-5.8,4.2c-1.6,1.8-2.9,3.9-3.8,6.3c-0.9,2.4-1.3,4.9-1.3,7.6
			c0,2.7,0.4,5.2,1.3,7.6c0.9,2.4,2.1,4.5,3.8,6.3c1.6,1.8,3.6,3.3,5.8,4.3C555.7,214.7,558.2,215.2,561.1,215.2z"/>
		<path style="fill:#4D4D4D;" d="M613.9,220v-17.3c0-1.4-0.1-2.6-0.2-3.5c-0.1-0.9-0.4-1.7-0.8-2.4c-0.5-1-1.2-1.9-2.2-2.5
			c-1-0.6-2.2-1-3.7-1c-1.6,0-2.9,0.3-3.9,0.9c-1.1,0.6-1.9,1.3-2.6,2.2c-0.5,0.7-0.8,1.5-1.1,2.4c-0.3,0.9-0.4,2.1-0.4,3.6V220h-6
			v-30.8h5.5l0.3,3.6c1-1.4,2.4-2.4,4.1-3.1c1.7-0.7,3.5-1.1,5.3-1.1c2,0,3.9,0.4,5.7,1.3c1.8,0.9,3.2,2.3,4.2,4.1
			c0.5,1,0.9,2.1,1.2,3.4s0.4,2.8,0.4,4.8V220H613.9z"/>
		<path style="fill:#4D4D4D;" d="M628,220v-49h6v49H628z"/>
		<path style="fill:#4D4D4D;" d="M641.2,174.8c0-1,0.4-2,1.1-2.7c0.8-0.8,1.7-1.2,2.8-1.2c1,0,2,0.4,2.7,1.2
			c0.8,0.8,1.2,1.7,1.2,2.7c0,1.1-0.4,2-1.2,2.8c-0.8,0.8-1.7,1.1-2.7,1.1c-1.1,0-2-0.4-2.8-1.1
			C641.6,176.8,641.2,175.8,641.2,174.8z M642.1,220v-30.8h6V220H642.1z"/>
		<path style="fill:#4D4D4D;" d="M677,220v-17.3c0-1.4-0.1-2.6-0.2-3.5c-0.1-0.9-0.4-1.7-0.8-2.4c-0.5-1-1.2-1.9-2.2-2.5
			c-1-0.6-2.2-1-3.7-1c-1.6,0-2.9,0.3-3.9,0.9c-1.1,0.6-1.9,1.3-2.6,2.2c-0.5,0.7-0.8,1.5-1.1,2.4c-0.3,0.9-0.4,2.1-0.4,3.6V220h-6
			v-30.8h5.5l0.3,3.6c1-1.4,2.4-2.4,4.1-3.1c1.7-0.7,3.5-1.1,5.3-1.1c2,0,3.9,0.4,5.7,1.3c1.8,0.9,3.2,2.3,4.2,4.1
			c0.5,1,0.9,2.1,1.2,3.4s0.4,2.8,0.4,4.8V220H677z"/>
		<path style="fill:#4D4D4D;" d="M705.5,216c1.9,0,3.5-0.4,5-1.2s2.8-2,4-3.8l4.2,2.8c-1.4,2.2-3.2,3.9-5.6,5.1
			c-2.3,1.2-5,1.8-7.8,1.8c-2.2,0-4.3-0.4-6.2-1.1c-1.9-0.8-3.6-1.8-5-3.2c-1.4-1.4-2.5-3.1-3.3-5.1s-1.2-4.2-1.2-6.6
			c0-2.2,0.4-4.3,1.1-6.2c0.7-2,1.8-3.7,3.1-5.1c1.4-1.5,3-2.6,4.9-3.5c1.9-0.9,4.1-1.3,6.4-1.3c2.2,0,4.2,0.4,6.1,1.1
			c1.9,0.8,3.5,1.8,4.9,3.2c1.4,1.4,2.5,3.1,3.2,5.1c0.8,2,1.2,4.3,1.2,6.9v1h-25.2c0.1,1.5,0.4,2.9,1,4.1c0.6,1.2,1.3,2.3,2.3,3.2
			c0.9,0.9,2,1.6,3.1,2.1C703,215.8,704.2,216,705.5,216z M714.4,201.7c-0.2-2.6-1.2-4.7-3-6.2c-1.8-1.5-3.8-2.2-6.2-2.2
			c-1.3,0-2.5,0.2-3.6,0.7s-2.1,1.1-2.9,1.9c-0.8,0.8-1.5,1.7-2.1,2.7c-0.5,1-0.9,2-1,3.1H714.4z"/>
	</g>
</g>
</svg>
