<?xml version="1.0" encoding="utf-8"?>
<!-- Generator: Adobe Illustrator 24.2.1, SVG Export Plug-In . SVG Version: 6.00 Build 0)  -->
<svg version="1.1" id="Layer_1" xmlns="http://www.w3.org/2000/svg" xmlns:xlink="http://www.w3.org/1999/xlink" x="0px" y="0px"
	width="100px" height="100px" viewBox="0 0 100 100" style="enable-background:new 0 0 100 100;" xml:space="preserve">
<g>
	<path style="fill:#E8E8E8;" d="M50,0c27.6,0,50,22.4,50,50s-22.4,50-50,50S0,77.6,0,50S22.4,0,50,0"/>
	<path style="fill:#FFFFFF;" d="M50,1c27,0,49,22,49,49S77.1,99,50,99S1,77,1,50S23,1,50,1"/>
	<path style="fill:#E8E8E8;" d="M50,0c27.6,0,50,22.4,50,50s-22.4,50-50,50S0,77.6,0,50S22.4,0,50,0"/>
	<path style="fill:#FFFFFF;" d="M50,1c27,0,49,22,49,49S77.1,99,50,99S1,77,1,50S23,1,50,1"/>
	<g>
		<g id="layer1">
			<g id="g2659">
				<path id="path2629" style="fill:#00DC06;" d="M42.8,43.4c-2.7,0-4.5,1.8-4.5,4.9c0,3.8,2.7,4.9,4.6,4.9c1.4,0,2.8-0.6,3.8-1.6
					l-1.2-1.2c-0.7,0.6-1.6,1-2.6,0.9c-1.5,0-2.5-0.9-2.5-2.1h6.7C47.1,49.2,48.3,43.4,42.8,43.4 M40.4,47.5c0-1.6,1.2-2.4,2.5-2.4
					c1.3,0,2.5,0.8,2.5,2.4H40.4z"/>
				<path id="path2631" style="fill:#00DC06;" d="M18.1,47.4c-0.9-0.1-3.3,0-3.3-1.1c0-0.7,1-1,2-1c1,0,2,0.3,2.9,0.8l1.3-1.3
					c-1.2-0.9-2.6-1.3-4.1-1.3c-2.1,0-4,1.1-4,2.9c0,2.7,3.3,2.7,4.6,2.8c0.8,0.1,1.6,0.1,1.6,0.9c0,0.8-1.2,1.2-2.1,1.2
					c-1.2,0-2.4-0.4-3.2-1.3l-1.4,1.4c1.2,1.2,2.8,1.8,4.5,1.8c2.5,0,4.3-1.1,4.3-3.3C21.1,48.5,20.1,47.6,18.1,47.4"/>
				<path id="path2633" style="fill:#00DC06;" d="M25.2,43.4c-1.4,0-2.7,0.4-3.8,1.3l1.3,1.3c0.7-0.5,1.6-0.8,2.5-0.8
					c1.6,0,2.1,0.7,2.1,1.4v0.9h-2.9c-1.1,0-3.2,0.3-3.2,2.6c0,1.7,1,3,3.4,3c1,0.1,2-0.4,2.7-1.1V53h2.1v-6.3
					C29.4,44.5,28.1,43.4,25.2,43.4 M27.3,49.6c0,1.8-1.3,1.7-2.4,1.7c-1.1,0-1.9-0.3-1.9-1.1c0-0.8,0.6-1,1.9-1h2.5L27.3,49.6z"/>
				<path id="path2635" style="fill:#00DC06;" d="M36,43.6v1c-0.7-0.8-1.7-1.3-2.8-1.2c-2,0-3,1.1-3.4,2.3c-0.2,0.8-0.2,1.7-0.2,2.5
					c0,1.2,0,2.3,0.4,3.1c0.6,1.1,1.8,1.8,3.1,1.8c1.1,0,2.1-0.4,2.8-1.2v0.6c0,0.6-0.2,1.1-0.7,1.5c-0.5,0.4-1.1,0.6-1.8,0.6
					c-0.6,0-1.2-0.3-1.8-0.6l-1.4,1.4c0.9,0.8,2,1.2,3.2,1.3c1.1,0,2.3-0.4,3.2-1.1c0.9-0.8,1.4-2,1.4-3.3v-8.7H36z M36,48.3
					c0,0.5,0,1-0.1,1.6c-0.3,0.9-1.1,1.5-2.1,1.4c-0.3,0-1.9-0.2-2.1-1.6c-0.1-0.5-0.1-0.9-0.1-1.4c0-0.6,0-1.1,0.1-1.7
					c0.3-0.9,1.2-1.4,2.1-1.4c1.5,0,2,1,2.1,1.4C35.9,47.2,36,47.8,36,48.3"/>
			</g>
		</g>
		<path style="fill:#B0AEAB;" d="M52.7,43.3v9.1h-0.7v-9.1H52.7z"/>
		<path style="fill:#B0AEAB;" d="M54.9,47.5c0-0.6,0-1.1,0-1.6h0.6c0,0.2,0,1,0,1.2c0.3-0.7,0.8-1.4,2.2-1.4c1.2,0,2.2,0.7,2.2,2.4
			v4.2h-0.7v-4.1c0-1.2-0.5-1.9-1.6-1.9c-1.5,0-2.1,1.3-2.1,2.7v3.3h-0.7V47.5z"/>
		<path style="fill:#B0AEAB;" d="M61,45.9h1.2v-2h0.7v2h1.5v0.6h-1.5v4.2c0,0.7,0.2,1.1,0.8,1.1c0.2,0,0.5,0,0.7-0.1v0.6
			c-0.3,0.1-0.5,0.1-0.8,0.1c-0.8,0-1.3-0.4-1.3-1.5v-4.5H61L61,45.9z"/>
		<path style="fill:#B0AEAB;" d="M70.2,51.2c0,0.4,0,0.8,0.1,1.2h-0.6c-0.1-0.3-0.1-0.7-0.1-1c-0.2,0.5-0.8,1.2-2.1,1.2
			c-1.5,0-2.2-1-2.2-2c0-1.4,1.1-2.1,3.1-2.1h1.2v-0.7c0-0.7-0.2-1.5-1.7-1.5c-1.3,0-1.5,0.7-1.7,1.2h-0.7c0.1-0.7,0.5-1.8,2.3-1.8
			c1.5,0,2.3,0.6,2.3,2.1L70.2,51.2z M69.6,49.1h-1.3c-1.4,0-2.3,0.4-2.3,1.5c0,0.8,0.6,1.4,1.5,1.4c1.9,0,2.1-1.2,2.1-2.6V49.1z"/>
		<path style="fill:#B0AEAB;" d="M77.2,50.5c-0.3,1.1-1.1,2.1-2.5,2.1c-1.6,0-2.8-1.2-2.8-3.4c0-1.8,1-3.4,2.9-3.4
			c1.7,0,2.3,1.2,2.4,2.1h-0.7c-0.2-0.8-0.7-1.5-1.8-1.5c-1.4,0-2.2,1.2-2.2,2.8c0,1.6,0.7,2.8,2.1,2.8c1,0,1.5-0.5,1.9-1.5
			L77.2,50.5z"/>
		<path style="fill:#B0AEAB;" d="M83.5,50.5c-0.3,1.1-1.1,2.1-2.5,2.1c-1.6,0-2.8-1.2-2.8-3.4c0-1.8,1-3.4,2.9-3.4
			c1.7,0,2.3,1.2,2.4,2.1h-0.7c-0.2-0.8-0.7-1.5-1.8-1.5c-1.4,0-2.2,1.2-2.2,2.8c0,1.6,0.7,2.8,2.1,2.8c1,0,1.5-0.5,1.9-1.5
			L83.5,50.5z"/>
		<path style="fill:#B0AEAB;" d="M84.2,45.9h1.2v-2h0.7v2h1.5v0.6h-1.5v4.2c0,0.7,0.2,1.1,0.8,1.1c0.2,0,0.5,0,0.7-0.1v0.6
			c-0.3,0.1-0.5,0.1-0.8,0.1c-0.8,0-1.3-0.4-1.3-1.5v-4.5h-1.2V45.9z"/>
	</g>
</g>
</svg>
