<?xml version="1.0" encoding="utf-8"?>
<!-- Generator: Adobe Illustrator 24.2.1, SVG Export Plug-In . SVG Version: 6.00 Build 0)  -->
<svg version="1.1" id="Layer_1" xmlns="http://www.w3.org/2000/svg" xmlns:xlink="http://www.w3.org/1999/xlink" x="0px" y="0px"
	width="100px" height="100px" viewBox="0 0 100 100" style="enable-background:new 0 0 100 100;" xml:space="preserve">
<g>
	<path style="fill:#E8E8E8;" d="M50,0c27.6,0,50,22.4,50,50s-22.4,50-50,50S0,77.6,0,50S22.4,0,50,0"/>
	<path style="fill:#FFFFFF;" d="M50,1c27,0,49,22,49,49S77.1,99,50,99S1,77,1,50S23,1,50,1"/>
	<path style="fill:#E8E8E8;" d="M50,0c27.6,0,50,22.4,50,50s-22.4,50-50,50S0,77.6,0,50S22.4,0,50,0"/>
	<path style="fill:#FFFFFF;" d="M50,1c27,0,49,22,49,49S77.1,99,50,99S1,77,1,50S23,1,50,1"/>
	<g>
		<g>
			<path style="fill:#00DC00;" d="M52.5,44.1c-3.5,0-5.7,2.4-5.7,6.3c0,4.9,3.5,6.3,5.9,6.3c1.9,0,3.6-0.8,4.9-2.1L56,52.9
				c-0.9,0.8-2.1,1.3-3.3,1.2c-1.9,0-3.2-1.1-3.2-2.7h8.6C58.1,51.5,59.6,44.1,52.5,44.1 M49.5,49.3c0-2.1,1.6-3.1,3.3-3.1
				c1.7,0,3.2,1,3.2,3.1L49.5,49.3z"/>
			<path style="fill:#00DC00;" d="M20.8,49.1c-1.1-0.1-4.3,0-4.3-1.5c0-0.9,1.3-1.3,2.6-1.3c1.3,0,2.6,0.3,3.6,1l1.7-1.7
				c-1.5-1.1-3.4-1.7-5.3-1.7c-2.7,0-5.2,1.4-5.2,3.7c0,3.5,4.2,3.5,6,3.7c1.1,0.1,2,0.2,2,1.2s-1.5,1.5-2.6,1.5
				c-1.5,0-3-0.5-4.1-1.6l-1.8,1.8c1.5,1.5,3.6,2.3,5.7,2.3c3.2,0,5.5-1.4,5.5-4.2C24.6,50.6,23.3,49.5,20.8,49.1"/>
			<path style="fill:#00DC00;" d="M29.9,44.1c-1.8,0-3.5,0.6-4.9,1.7l1.7,1.7c0.9-0.7,2.1-1.1,3.2-1c2.1,0,2.7,0.8,2.7,1.8v1.2h-3.8
				c-1.4,0-4.1,0.3-4.1,3.4c0,2.2,1.3,3.9,4.3,3.9c1.3,0.1,2.7-0.5,3.5-1.5v1.2h2.7v-8C35.4,45.5,33.6,44.1,29.9,44.1 M32.7,52
				c0,2.3-1.7,2.2-3.1,2.2s-2.5-0.4-2.5-1.4s0.8-1.3,2.4-1.3h3.2V52z"/>
			<path style="fill:#00DC00;" d="M43.8,44.3v1.4c-0.9-1.1-2.2-1.7-3.5-1.6c-2.6,0-3.9,1.4-4.4,3c-0.2,1.1-0.3,2.2-0.2,3.3
				c0,1.5,0,2.9,0.5,4c1.3,2.3,4.3,3,6.5,1.7c0.4-0.2,0.8-0.5,1.1-0.9v0.8c0,0.7-0.3,1.4-0.9,1.9c-0.6,0.5-1.5,0.8-2.3,0.7
				c-0.8-0.1-1.6-0.3-2.3-0.8l-1.8,1.8c1.2,1,2.6,1.6,4.1,1.6c1.5,0,2.9-0.5,4-1.4c1.2-1.1,1.9-2.6,1.8-4.2V44.3H43.8z M43.8,50.3
				c0,0.7,0,1.3-0.1,2c-0.4,1.1-1.5,1.9-2.7,1.8c-0.4,0-2.5-0.2-2.7-2c-0.1-0.6-0.1-1.2-0.1-1.8c0-0.7,0-1.5,0.1-2.2
				c0.4-1.1,1.5-1.8,2.7-1.7c2,0,2.6,1.3,2.7,1.8C43.7,48.9,43.8,49.6,43.8,50.3"/>
			<path style="fill:#888B8D;" d="M66.2,39.2h7.6v1h-6.6l-0.6,6.6c1-0.9,2.3-1.4,3.6-1.3c2.1,0,4.6,1,4.6,5.2c0,3.3-1.8,5.9-5.4,5.9
				c-2.6,0-4.4-1.3-4.8-3.8l1.1-0.3c0.3,1.4,1.1,3,3.7,3c1.9,0,4.1-1.2,4.1-4.8c0-3-1.5-4.2-3.5-4.2c-1.4,0-2.7,0.5-3.7,1.5
				l-0.8-0.4L66.2,39.2z"/>
			<path style="fill:#888B8D;" d="M76,47.8c0-4.6,0.9-9,5.5-9c4.6,0,5.1,4.4,5.1,8.6c0,4.8-0.8,9.1-5.4,9.1
				C76.7,56.6,76,52.4,76,47.8z M85.5,47.6c0-4.2-0.4-7.7-4-7.7c-3.6,0-4.3,3.6-4.3,8c0,3.9,0.5,7.6,4.2,7.6S85.5,51.9,85.5,47.6z"
				/>
		</g>
		<g>
			<path style="fill:#00DC00;" d="M52.5,44.1c-3.5,0-5.7,2.4-5.7,6.3c0,4.9,3.5,6.3,5.9,6.3c1.9,0,3.6-0.8,4.9-2.1L56,52.9
				c-0.9,0.8-2.1,1.3-3.3,1.2c-1.9,0-3.2-1.1-3.2-2.7h8.6C58.1,51.5,59.6,44.1,52.5,44.1 M49.5,49.3c0-2.1,1.6-3.1,3.3-3.1
				c1.7,0,3.2,1,3.2,3.1L49.5,49.3z"/>
			<path style="fill:#00DC00;" d="M20.8,49.1c-1.1-0.1-4.3,0-4.3-1.5c0-0.9,1.3-1.3,2.6-1.3c1.3,0,2.6,0.3,3.6,1l1.7-1.7
				c-1.5-1.1-3.4-1.7-5.3-1.7c-2.7,0-5.2,1.4-5.2,3.7c0,3.5,4.2,3.5,6,3.7c1.1,0.1,2,0.2,2,1.2s-1.5,1.5-2.6,1.5
				c-1.5,0-3-0.5-4.1-1.6l-1.8,1.8c1.5,1.5,3.6,2.3,5.7,2.3c3.2,0,5.5-1.4,5.5-4.2C24.6,50.6,23.3,49.5,20.8,49.1"/>
			<path style="fill:#00DC00;" d="M29.9,44.1c-1.8,0-3.5,0.6-4.9,1.7l1.7,1.7c0.9-0.7,2.1-1.1,3.2-1c2.1,0,2.7,0.8,2.7,1.8v1.2h-3.8
				c-1.4,0-4.1,0.3-4.1,3.4c0,2.2,1.3,3.9,4.3,3.9c1.3,0.1,2.7-0.5,3.5-1.5v1.2h2.7v-8C35.4,45.5,33.6,44.1,29.9,44.1 M32.7,52
				c0,2.3-1.7,2.2-3.1,2.2s-2.5-0.4-2.5-1.4s0.8-1.3,2.4-1.3h3.2V52z"/>
			<path style="fill:#00DC00;" d="M43.8,44.3v1.4c-0.9-1.1-2.2-1.7-3.5-1.6c-2.6,0-3.9,1.4-4.4,3c-0.2,1.1-0.3,2.2-0.2,3.3
				c0,1.5,0,2.9,0.5,4c1.3,2.3,4.3,3,6.5,1.7c0.4-0.2,0.8-0.5,1.1-0.9v0.8c0,0.7-0.3,1.4-0.9,1.9c-0.6,0.5-1.5,0.8-2.3,0.7
				c-0.8-0.1-1.6-0.3-2.3-0.8l-1.8,1.8c1.2,1,2.6,1.6,4.1,1.6c1.5,0,2.9-0.5,4-1.4c1.2-1.1,1.9-2.6,1.8-4.2V44.3H43.8z M43.8,50.3
				c0,0.7,0,1.3-0.1,2c-0.4,1.1-1.5,1.9-2.7,1.8c-0.4,0-2.5-0.2-2.7-2c-0.1-0.6-0.1-1.2-0.1-1.8c0-0.7,0-1.5,0.1-2.2
				c0.4-1.1,1.5-1.8,2.7-1.7c2,0,2.6,1.3,2.7,1.8C43.7,48.9,43.8,49.6,43.8,50.3"/>
			<path style="fill:#888B8D;" d="M66.2,39.2h7.6v1h-6.6l-0.6,6.6c1-0.9,2.3-1.4,3.6-1.3c2.1,0,4.6,1,4.6,5.2c0,3.3-1.8,5.9-5.4,5.9
				c-2.6,0-4.4-1.3-4.8-3.8l1.1-0.3c0.3,1.4,1.1,3,3.7,3c1.9,0,4.1-1.2,4.1-4.8c0-3-1.5-4.2-3.5-4.2c-1.4,0-2.7,0.5-3.7,1.5
				l-0.8-0.4L66.2,39.2z"/>
			<path style="fill:#888B8D;" d="M76,47.8c0-4.6,0.9-9,5.5-9c4.6,0,5.1,4.4,5.1,8.6c0,4.8-0.8,9.1-5.4,9.1
				C76.7,56.6,76,52.4,76,47.8z M85.5,47.6c0-4.2-0.4-7.7-4-7.7c-3.6,0-4.3,3.6-4.3,8c0,3.9,0.5,7.6,4.2,7.6S85.5,51.9,85.5,47.6z"
				/>
		</g>
	</g>
</g>
</svg>
