<?xml version="1.0" encoding="utf-8"?>
<!-- Generator: Adobe Illustrator 24.2.1, SVG Export Plug-In . SVG Version: 6.00 Build 0)  -->
<svg version="1.1" id="Layer_1" xmlns="http://www.w3.org/2000/svg" xmlns:xlink="http://www.w3.org/1999/xlink" x="0px" y="0px"
	 viewBox="0 0 121.6 36.9" style="enable-background:new 0 0 121.6 36.9;" xml:space="preserve">
<g>
	<g>
		<path style="fill:#00DC00;" d="M64.9,8.6c-5.8,0-9.5,3.9-9.5,10.5c0,8.1,5.8,10.4,9.9,10.4c3.1,0,6-1.3,8.2-3.5l-2.6-2.7
			c-1.5,1.4-3.4,2.1-5.5,2c-3.2,0-5.3-1.8-5.3-4.4h14.3C74.3,20.9,76.8,8.6,64.9,8.6 M60,17.4c0-3.5,2.6-5.1,5.4-5.1
			c2.8,0,5.4,1.7,5.4,5.1L60,17.4z"/>
		<path style="fill:#00DC00;" d="M12.3,17.1c-1.8-0.2-7.1,0-7.1-2.4c0-1.4,2.2-2.2,4.3-2.2c2.1,0,4.2,0.6,6.1,1.7l2.7-2.8
			c-2.5-1.9-5.6-2.9-8.8-2.8c-4.5,0-8.6,2.4-8.6,6.2c0,5.8,7,5.8,9.9,6.1c1.8,0.2,3.4,0.3,3.4,2s-2.5,2.5-4.4,2.5
			c-2.5,0.1-5-0.9-6.8-2.6l-3,3c2.6,2.5,6,3.8,9.5,3.8c5.3,0,9.1-2.3,9.1-7C18.6,19.4,16.5,17.6,12.3,17.1"/>
		<path style="fill:#00DC00;" d="M27.4,8.6c-2.9,0-5.8,1-8.1,2.8l2.8,2.8c1.5-1.1,3.4-1.8,5.3-1.7c3.5,0,4.5,1.4,4.5,3v2h-6.2
			c-2.3,0-6.8,0.6-6.8,5.6c0,3.7,2.1,6.5,7.2,6.5c2.2,0.1,4.4-0.8,5.9-2.5v2h4.5V15.7C36.5,11,33.7,8.6,27.4,8.6 M32,21.8
			c0,3.9-2.8,3.7-5.2,3.7s-4.1-0.7-4.1-2.4s1.3-2.1,4-2.1H32V21.8z"/>
		<path style="fill:#00DC00;" d="M50.4,9v2.3c-1.4-1.8-3.6-2.8-5.9-2.7c-4.3,0-6.5,2.4-7.2,5c-0.3,1.8-0.5,3.6-0.4,5.4
			c0,2.5,0,4.8,0.9,6.6c2.2,3.7,7.1,5,10.8,2.8c0.7-0.4,1.3-0.9,1.8-1.5v1.3c0.1,1.2-0.5,2.4-1.4,3.2c-1.1,0.9-2.4,1.3-3.8,1.2
			c-1.4-0.1-2.7-0.6-3.7-1.4l-3,3c1.9,1.7,4.3,2.6,6.9,2.7c2.4,0,4.8-0.8,6.7-2.3c2-1.8,3.1-4.3,3-7V9H50.4z M50.4,19
			c0,1.1,0,2.2-0.2,3.3c-0.6,1.9-2.4,3.1-4.4,3c-0.7,0-4.1-0.4-4.5-3.4c-0.1-1-0.2-2-0.1-2.9c-0.1-1.2,0-2.4,0.2-3.6
			c0.6-1.8,2.5-3,4.4-2.9c3.2,0,4.3,2.2,4.4,3.1C50.4,16.7,50.5,17.8,50.4,19"/>
		<path style="fill:#888B8D;" d="M87.7,0.5h12.6v1.7H89.4l-1,11c1.6-1.5,3.8-2.3,6-2.2c3.4,0,7.7,1.7,7.7,8.7c0,5.5-3.1,9.8-9,9.8
			c-4.3,0-7.3-2.1-8-6.2l1.9-0.5c0.6,2.4,1.8,5,6.2,5c3.2,0,6.9-2,6.9-8c0-5-2.6-7-5.8-7c-2.3,0-4.5,0.9-6.2,2.6l-1.4-0.7L87.7,0.5z
			"/>
		<path style="fill:#888B8D;" d="M103.9,14.9c0-7.6,1.5-14.9,9.1-14.9s8.5,7.3,8.5,14.3c0,8-1.3,15.1-8.9,15.1
			S103.9,22.4,103.9,14.9z M119.6,14.6c0-6.9-0.7-12.8-6.7-12.8s-7.1,6-7.1,13.3c0,6.5,0.9,12.6,7,12.6S119.7,21.6,119.6,14.6z"/>
	</g>
	<g>
		<path style="fill:#00DC00;" d="M64.9,8.6c-5.8,0-9.5,3.9-9.5,10.5c0,8.1,5.8,10.4,9.9,10.4c3.1,0,6-1.3,8.2-3.5l-2.6-2.7
			c-1.5,1.4-3.4,2.1-5.5,2c-3.2,0-5.3-1.8-5.3-4.4h14.3C74.3,20.9,76.8,8.6,64.9,8.6 M60,17.4c0-3.5,2.6-5.1,5.4-5.1
			c2.8,0,5.4,1.7,5.4,5.1L60,17.4z"/>
		<path style="fill:#00DC00;" d="M12.3,17.1c-1.8-0.2-7.1,0-7.1-2.4c0-1.4,2.2-2.2,4.3-2.2c2.1,0,4.2,0.6,6.1,1.7l2.7-2.8
			c-2.5-1.9-5.6-2.9-8.8-2.8c-4.5,0-8.6,2.4-8.6,6.2c0,5.8,7,5.8,9.9,6.1c1.8,0.2,3.4,0.3,3.4,2s-2.5,2.5-4.4,2.5
			c-2.5,0.1-5-0.9-6.8-2.6l-3,3c2.6,2.5,6,3.8,9.5,3.8c5.3,0,9.1-2.3,9.1-7C18.6,19.4,16.5,17.6,12.3,17.1"/>
		<path style="fill:#00DC00;" d="M27.4,8.6c-2.9,0-5.8,1-8.1,2.8l2.8,2.8c1.5-1.1,3.4-1.8,5.3-1.7c3.5,0,4.5,1.4,4.5,3v2h-6.2
			c-2.3,0-6.8,0.6-6.8,5.6c0,3.7,2.1,6.5,7.2,6.5c2.2,0.1,4.4-0.8,5.9-2.5v2h4.5V15.7C36.5,11,33.7,8.6,27.4,8.6 M32,21.8
			c0,3.9-2.8,3.7-5.2,3.7s-4.1-0.7-4.1-2.4s1.3-2.1,4-2.1H32V21.8z"/>
		<path style="fill:#00DC00;" d="M50.4,9v2.3c-1.4-1.8-3.6-2.8-5.9-2.7c-4.3,0-6.5,2.4-7.2,5c-0.3,1.8-0.5,3.6-0.4,5.4
			c0,2.5,0,4.8,0.9,6.6c2.2,3.7,7.1,5,10.8,2.8c0.7-0.4,1.3-0.9,1.8-1.5v1.3c0.1,1.2-0.5,2.4-1.4,3.2c-1.1,0.9-2.4,1.3-3.8,1.2
			c-1.4-0.1-2.7-0.6-3.7-1.4l-3,3c1.9,1.7,4.3,2.6,6.9,2.7c2.4,0,4.8-0.8,6.7-2.3c2-1.8,3.1-4.3,3-7V9H50.4z M50.4,19
			c0,1.1,0,2.2-0.2,3.3c-0.6,1.9-2.4,3.1-4.4,3c-0.7,0-4.1-0.4-4.5-3.4c-0.1-1-0.2-2-0.1-2.9c-0.1-1.2,0-2.4,0.2-3.6
			c0.6-1.8,2.5-3,4.4-2.9c3.2,0,4.3,2.2,4.4,3.1C50.4,16.7,50.5,17.8,50.4,19"/>
		<path style="fill:#888B8D;" d="M87.7,0.5h12.6v1.7H89.4l-1,11c1.6-1.5,3.8-2.3,6-2.2c3.4,0,7.7,1.7,7.7,8.7c0,5.5-3.1,9.8-9,9.8
			c-4.3,0-7.3-2.1-8-6.2l1.9-0.5c0.6,2.4,1.8,5,6.2,5c3.2,0,6.9-2,6.9-8c0-5-2.6-7-5.8-7c-2.3,0-4.5,0.9-6.2,2.6l-1.4-0.7L87.7,0.5z
			"/>
		<path style="fill:#888B8D;" d="M103.9,14.9c0-7.6,1.5-14.9,9.1-14.9s8.5,7.3,8.5,14.3c0,8-1.3,15.1-8.9,15.1
			S103.9,22.4,103.9,14.9z M119.6,14.6c0-6.9-0.7-12.8-6.7-12.8s-7.1,6-7.1,13.3c0,6.5,0.9,12.6,7,12.6S119.7,21.6,119.6,14.6z"/>
	</g>
</g>
</svg>
