<?xml version="1.0" encoding="utf-8"?>
<!-- Generator: Adobe Illustrator 24.2.1, SVG Export Plug-In . SVG Version: 6.00 Build 0)  -->
<svg version="1.1" id="Layer_1" xmlns="http://www.w3.org/2000/svg" xmlns:xlink="http://www.w3.org/1999/xlink" x="0px" y="0px"
	 viewBox="0 0 335.9 53.3" style="enable-background:new 0 0 335.9 53.3;" xml:space="preserve">
<g>
	<g id="layer1">
		<g id="g2659">
			<path id="path2629" style="fill:#00DC06;" d="M116.7,2.3c-10.4,0-17.1,7.1-17.1,18.8c0,14.5,10.3,18.7,17.8,18.7
				c5.6,0,10.9-2.3,14.7-6.3l-4.8-4.7c-2.7,2.5-6.2,3.8-9.8,3.6c-5.8,0-9.7-3.4-9.7-8h25.7C133.5,24.4,137.9,2.3,116.7,2.3
				 M107.7,18.1c0-6.2,4.7-9.2,9.8-9.2s9.7,3.1,9.7,9.2H107.7z"/>
			<path id="path2631" style="fill:#00DC06;" d="M22,17.5c-3.3-0.4-12.8,0-12.8-4.4c0-2.6,4-4,7.7-4c3.9-0.1,7.6,1,10.9,3.1l5-4.9
				c-4.6-3.4-10.1-5.1-15.8-5c-8.1,0-15.5,4.3-15.5,11c0,10.4,12.6,10.4,17.8,10.9c3.2,0.3,6.1,0.5,6.1,3.6s-4.5,4.5-7.9,4.5
				c-4.6,0.2-9-1.6-12.3-4.8L0,32.9c4.6,4.4,10.8,6.9,17.1,6.8c9.5,0,16.4-4.2,16.4-12.5c0-5.4-3.7-8.8-11.3-9.8"/>
			<path id="path2633" style="fill:#00DC06;" d="M49.2,2.3c-5.3,0-10.4,1.7-14.5,5l5,4.9c2.8-2.1,6.1-3.2,9.6-3.1
				c6.3,0,8.2,2.5,8.2,5.3V18H46.2c-4.2,0-12.3,1-12.3,10.2c0,6.7,3.8,11.6,13,11.6c4,0.2,7.8-1.4,10.5-4.3v3.6h8.1v-24
				C65.5,6.7,60.4,2.3,49.2,2.3 M57.4,26c0,7-5,6.6-9.4,6.6s-7.3-1.2-7.3-4.3s2.3-3.9,7.1-3.9h9.6L57.4,26z"/>
			<path id="path2635" style="fill:#00DC06;" d="M90.6,3.1v4C88,4,84.1,2.2,80,2.4c-7.7,0-11.7,4.3-13,8.9c-0.6,3.2-0.8,6.5-0.6,9.8
				c0,4.5,0,8.7,1.6,11.9c2.5,4.3,7,7,12,7c4,0.1,7.9-1.6,10.6-4.6v2.3c0.1,2.2-0.8,4.4-2.6,5.7c-1.9,1.5-4.3,2.3-6.8,2.2
				c-2.4-0.1-4.8-1-6.7-2.5L69,48.5c3.5,3,7.8,4.7,12.4,4.8c4.4,0.1,8.7-1.4,12.1-4.1C97,46,99,41.4,98.8,36.6V3.1H90.6z M90.6,21.1
				c0.1,2,0,4-0.3,6c-1.1,3.5-4.4,5.7-8,5.4c-1.2,0-7.3-0.7-8.1-6C74,24.8,73.9,23,74,21.2c-0.1-2.2,0-4.4,0.4-6.5
				c1.2-3.3,4.4-5.5,7.9-5.2c5.8,0,7.7,4,8,5.4C90.5,17,90.6,19.1,90.6,21.1"/>
		</g>
	</g>
	<path style="fill:#B0AEAB;" d="M147.2,36.9v-0.2c0-4.1,3.5-9.2,10.1-14.3c5.7-4.4,7.1-5.8,7.1-9.9c0-3.6-2-6.7-6.8-6.7
		c-4.5,0-6.9,2.2-7.7,7h-2.6c0.6-5.5,4.1-9.3,10.3-9.3c6.6,0,9.5,4.6,9.5,9c0,5.1-2.1,6.8-8.3,11.8c-4.9,4-7.8,7.1-8.8,10.3h18.4
		L168,37L147.2,36.9z"/>
	<path style="fill:#B0AEAB;" d="M194.6,20.2c0,7.6-1.9,17.3-10.8,17.3c-8.6,0-10.7-9-10.7-17.1s2.3-17,10.9-17
		S194.6,12.4,194.6,20.2z M176,20.5c0,6.4,1.4,14.6,7.9,14.6c6.7,0,8-7.8,8-14.9c0-6.3-1.3-14.4-7.8-14.4
		C177.3,5.8,176,13.2,176,20.5z"/>
	<path style="fill:#B0AEAB;" d="M221.5,20.2c0,7.6-1.9,17.3-10.8,17.3c-8.6,0-10.7-9-10.7-17.1s2.3-17,10.9-17
		S221.5,12.4,221.5,20.2z M202.9,20.5c0,6.4,1.4,14.6,7.9,14.6c6.7,0,8-7.8,8-14.9c0-6.3-1.3-14.4-7.8-14.4
		C204.2,5.8,202.9,13.2,202.9,20.5z"/>
	<path style="fill:#B0AEAB;" d="M246.7,29.5c-1.2,4.4-4.1,8-9.7,8c-6.3,0-10.7-4.7-10.7-13c0-6.8,3.6-13.2,11-13.2
		c6.4,0,9,4.5,9.4,8h-2.5c-0.8-2.9-2.6-5.7-6.9-5.7c-5.3,0-8.3,4.5-8.3,10.8c0,6,2.8,10.8,8.1,10.8c3.6,0,5.9-1.8,7.1-5.6
		L246.7,29.5z"/>
	<path style="fill:#B0AEAB;" d="M252.6,36.9V0h2.5v36.9H252.6z"/>
	<path style="fill:#B0AEAB;" d="M283.5,24.3c0,7-3.9,13.2-11.3,13.2c-6.8,0-11-5.6-11-13.1c0-7.2,4-13.1,11.2-13.1
		C279.1,11.3,283.5,16.5,283.5,24.3z M263.9,24.3c0,6,3.2,10.8,8.5,10.8s8.5-4.4,8.5-10.8c0-5.9-3-10.8-8.5-10.8
		S263.9,18.4,263.9,24.3L263.9,24.3z"/>
	<path style="fill:#B0AEAB;" d="M308.4,29.6c0,2.4,0,6.3,0,7.3H306c-0.1-1.4-0.2-2.9-0.1-4.3c-1,3-3.6,5-8,5c-3.6,0-8.2-1.4-8.2-9.1
		V11.9h2.5v16c0,3.7,1.1,7.2,6.1,7.2c5.6,0,7.7-3.2,7.7-10.3V11.9h2.5L308.4,29.6z"/>
	<path style="fill:#B0AEAB;" d="M335.9,0v29.7c0,2.4,0,4.7,0,7.2h-2.4c-0.1-0.6-0.1-3-0.1-4.2c-1.3,3-4,4.8-8.4,4.8
		c-6.5,0-10.4-5.3-10.4-12.8c0-7.7,4.3-13.4,11-13.4c5,0,7,2.2,7.8,3.8V0L335.9,0z M317.3,24.6c0,6.9,3.5,10.6,7.9,10.6
		c6.6,0,8.4-4.6,8.4-11.3c0-6.5-1.5-10.2-8-10.2C320.6,13.6,317.3,17.6,317.3,24.6z"/>
</g>
</svg>
