<?xml version="1.0" encoding="utf-8"?>
<!-- Generator: Adobe Illustrator 24.2.1, SVG Export Plug-In . SVG Version: 6.00 Build 0)  -->
<svg version="1.1" id="Layer_1" xmlns="http://www.w3.org/2000/svg" xmlns:xlink="http://www.w3.org/1999/xlink" x="0px" y="0px"
	 viewBox="0 0 288.9 51.5" style="enable-background:new 0 0 288.9 51.5;" xml:space="preserve">
<g>
	<g id="layer1">
		<g id="g2659">
			<path id="path2629" style="fill:#00DC06;" d="M116.6,0.4c-10.4,0-17.1,7.1-17.1,18.8c0,14.5,10.4,18.7,17.8,18.7
				c5.6,0,10.9-2.3,14.7-6.3l-4.8-4.7c-2.7,2.5-6.2,3.8-9.8,3.6c-5.8,0-9.6-3.4-9.6-8h25.7C133.4,22.6,137.9,0.5,116.6,0.4
				 M107.7,16.2c0-6.2,4.7-9.2,9.8-9.2s9.7,3.1,9.7,9.2H107.7z"/>
			<path id="path2631" style="fill:#00DC06;" d="M22,15.7c-3.3-0.4-12.8,0-12.8-4.4c0-2.6,4-4,7.7-4c3.9-0.1,7.7,1,10.9,3.1l5-4.9
				c-4.6-3.4-10.1-5.1-15.8-5c-8.1,0-15.5,4.3-15.5,11c0,10.4,12.6,10.4,17.8,10.9c3.2,0.3,6.1,0.5,6.1,3.6s-4.5,4.5-7.9,4.5
				c-4.6,0.2-9-1.6-12.3-4.8L0,31c4.6,4.4,10.8,6.9,17.2,6.8c9.4,0,16.3-4.2,16.3-12.5c0-5.4-3.7-8.8-11.3-9.8"/>
			<path id="path2633" style="fill:#00DC06;" d="M49.1,0.4c-5.3,0-10.4,1.7-14.5,5l5,4.9c2.7-2.1,6.1-3.2,9.6-3.1
				c6.3,0,8.2,2.5,8.2,5.3v3.6H46.1c-4.2,0-12.3,1-12.3,10.2c0,6.7,3.8,11.6,13,11.6c4,0.2,7.8-1.4,10.5-4.3v3.6h8.1v-24
				C65.5,4.8,60.3,0.5,49.1,0.4 M57.4,24.1c0,7-5,6.6-9.3,6.6s-7.3-1.2-7.3-4.3s2.3-3.9,7.1-3.9h9.6L57.4,24.1z"/>
			<path id="path2635" style="fill:#00DC06;" d="M90.5,1.3v4C87.9,2.1,84,0.4,79.9,0.5c-7.7,0-11.7,4.3-13,8.9
				c-0.6,3.2-0.8,6.5-0.6,9.8c0,4.5,0,8.7,1.6,11.9c2.5,4.3,7,7,12,7c4,0.1,7.9-1.6,10.6-4.6v2.3c0.1,2.2-0.8,4.4-2.6,5.7
				c-1.9,1.5-4.3,2.3-6.8,2.2c-2.4-0.1-4.8-1-6.7-2.5l-5.5,5.4c3.5,3,7.8,4.7,12.4,4.8c4.4,0.1,8.7-1.4,12.1-4.1
				c3.6-3.2,5.5-7.8,5.4-12.6V1.3H90.5z M90.5,19.2c0.1,2,0,4-0.3,6c-1.1,3.5-4.4,5.7-8,5.4c-1.2,0-7.3-0.7-8.1-6
				c-0.2-1.8-0.3-3.5-0.2-5.3c-0.1-2.2,0-4.4,0.4-6.5c1.2-3.3,4.4-5.5,7.9-5.2c5.8,0,7.7,4,8,5.4C90.5,15.2,90.6,17.2,90.5,19.2"/>
		</g>
	</g>
	<path style="fill:#B0AEAB;" d="M154.6,0v35h-2.7V0H154.6z"/>
	<path style="fill:#B0AEAB;" d="M163.2,16.3c0-2.2,0-4.3-0.1-6.3h2.4c0.1,0.8,0.1,4,0.1,4.8c1.1-2.6,3.1-5.3,8.3-5.3
		c4.4,0,8.4,2.5,8.4,9.4V35h-2.5V19.2c0-4.5-1.9-7.4-6.2-7.4c-5.9,0-8,4.9-8,10.4V35h-2.5V16.3z"/>
	<path style="fill:#B0AEAB;" d="M186.7,10h4.6V2.2h2.5V10h5.9v2.3h-5.9v16.3c0,2.8,0.6,4.4,3,4.4c0.9,0,1.8-0.1,2.6-0.3v2.2
		c-1,0.3-2,0.5-3.1,0.4c-3.2,0-5-1.6-5-5.6V12.3h-4.6L186.7,10z"/>
	<path style="fill:#B0AEAB;" d="M222.1,30.3c0,1.6,0.1,3.2,0.4,4.8H220c-0.3-1.3-0.5-2.6-0.5-3.8c-0.9,1.8-3,4.4-8.2,4.4
		c-5.8,0-8.3-3.8-8.3-7.5c0-5.5,4.3-8,11.8-8h4.8v-2.6c0-2.5-0.8-5.8-6.5-5.8c-5,0-5.8,2.7-6.4,4.7h-2.5c0.3-2.8,2-7,8.9-7
		c5.7,0,8.9,2.4,8.9,7.9L222.1,30.3z M219.6,22.3h-4.9c-5.6,0-9,1.4-9,5.8c0,3.2,2.3,5.3,5.8,5.3c7.1,0,8.1-4.8,8.1-10.2V22.3z"/>
	<path style="fill:#B0AEAB;" d="M248.7,27.7c-1.2,4.4-4.1,8-9.7,8c-6.3,0-10.7-4.7-10.7-13c0-6.8,3.6-13.2,11-13.2
		c6.4,0,9,4.5,9.4,8h-2.5c-0.8-2.9-2.6-5.7-6.9-5.7c-5.3,0-8.3,4.5-8.3,10.8c0,6,2.8,10.8,8,10.8c3.6,0,5.9-1.8,7.1-5.6L248.7,27.7z
		"/>
	<path style="fill:#B0AEAB;" d="M273.1,27.7c-1.2,4.4-4.1,8-9.7,8c-6.3,0-10.7-4.7-10.7-13c0-6.8,3.6-13.2,11-13.2
		c6.4,0,9,4.5,9.4,8h-2.5c-0.8-2.9-2.7-5.7-6.9-5.7c-5.3,0-8.3,4.5-8.3,10.8c0,6,2.8,10.8,8,10.8c3.7,0,5.9-1.8,7.2-5.6L273.1,27.7z
		"/>
	<path style="fill:#B0AEAB;" d="M275.8,10h4.6V2.2h2.5V10h6v2.3h-6v16.3c0,2.8,0.6,4.4,3,4.4c0.9,0,1.8-0.1,2.6-0.3v2.2
		c-1,0.3-2,0.5-3.1,0.4c-3.2,0-5-1.6-5-5.6V12.3h-4.6V10z"/>
</g>
</svg>
