<?xml version="1.0" encoding="utf-8"?>
<!-- Generator: Adobe Illustrator 24.2.1, SVG Export Plug-In . SVG Version: 6.00 Build 0)  -->
<svg version="1.1" id="Layer_1" xmlns="http://www.w3.org/2000/svg" xmlns:xlink="http://www.w3.org/1999/xlink" x="0px" y="0px"
	 viewBox="0 0 100 100" style="enable-background:new 0 0 100 100;" xml:space="preserve">
<g>
	<path style="fill:#E8E8E8;" d="M50,0c27.6,0,50,22.4,50,50s-22.4,50-50,50S0,77.6,0,50S22.4,0,50,0"/>
	<path style="fill:#FFFFFF;" d="M50,1c27,0,49,22,49,49S77.1,99,50,99S1,77,1,50S23,1,50,1"/>
	<path style="fill:#E8E8E8;" d="M50,0c27.6,0,50,22.4,50,50s-22.4,50-50,50S0,77.6,0,50S22.4,0,50,0"/>
	<path style="fill:#FFFFFF;" d="M50,1c27,0,49,22,49,49S77.1,99,50,99S1,77,1,50S23,1,50,1"/>
	<g>
		<g>
			<path style="fill:#00DC06;" d="M68.6,26.5c-3.9,0-6.4,2.6-6.4,7c0,5.4,3.9,7,6.6,7c2.1,0,4.1-0.8,5.5-2.3l-1.8-1.8
				c-1,0.9-2.3,1.4-3.7,1.4c-2.1,0-3.6-1.2-3.6-3h9.6C74.8,34.8,76.5,26.5,68.6,26.5 M65.2,32.4c0-2.3,1.8-3.4,3.6-3.4
				s3.6,1.1,3.6,3.4H65.2z"/>
			<path style="fill:#00DC06;" d="M33.3,32.2c-1.2-0.2-4.8,0-4.8-1.6c0-1,1.5-1.5,2.9-1.5c1.4,0,2.9,0.4,4.1,1.2l1.8-1.8
				c-1.7-1.3-3.8-1.9-5.9-1.9c-3,0-5.8,1.6-5.8,4.1c0,3.9,4.7,3.9,6.6,4.1c1.2,0.1,2.3,0.2,2.3,1.4c0,1.1-1.7,1.7-2.9,1.7
				c-1.7,0.1-3.4-0.6-4.6-1.8l-2,2c1.7,1.6,4,2.6,6.4,2.5c3.5,0,6.1-1.5,6.1-4.7C37.5,33.8,36.1,32.5,33.3,32.2"/>
			<path style="fill:#00DC06;" d="M43.4,26.5c-2,0-3.9,0.7-5.4,1.9l1.9,1.9c1-0.8,2.3-1.2,3.6-1.2c2.3,0,3,0.9,3,2v1.3h-4.2
				c-1.5,0-4.6,0.4-4.6,3.8c0,2.5,1.4,4.3,4.8,4.3c1.7,0,3-0.6,3.9-1.6v1.4h3v-9C49.5,28.1,47.6,26.5,43.4,26.5 M46.5,35.4
				c0,2.6-1.8,2.4-3.5,2.4s-2.7-0.4-2.7-1.6c0-1.1,0.9-1.4,2.7-1.4h3.6V35.4z"/>
			<path style="fill:#00DC06;" d="M58.8,26.8v1.5c-1-1.2-2.4-1.8-3.9-1.8c-2.9,0-4.4,1.6-4.8,3.3c-0.2,0.6-0.2,1.9-0.2,3.7
				c0,1.7,0,3.2,0.6,4.4c0.8,1.7,2.8,2.6,4.5,2.6c1.5,0,2.9-0.6,3.9-1.7v0.8c0,0.8-0.3,1.6-1,2.1c-0.7,0.6-1.6,0.9-2.5,0.8
				c-0.9-0.1-1.8-0.4-2.5-0.9l-2,2c1.3,1.1,2.9,1.8,4.6,1.8c1.6,0,3.2-0.5,4.5-1.5c1.2-1,2-2.8,2-4.7V26.8H58.8z M58.8,33.5
				c0,0.7,0,1.5-0.1,2.2c-0.2,0.9-1.2,2-3,2c-0.4,0-2.8-0.3-3-2.3c-0.1-0.7-0.1-1.3-0.1-2c0-0.8,0-1.6,0.1-2.4
				c0.2-0.8,1.2-1.9,3-1.9c2.2,0,2.9,1.5,3,2.1C58.8,32,58.9,32.8,58.8,33.5"/>
		</g>
		<g>
			<path style="fill:#B0AEAB;" d="M20.9,59.2l3.8,11h-0.8l-1.2-3.7h-4.5l-1.3,3.7h-0.8l3.7-10.9L20.9,59.2z M20.3,59.6l-2,6.1h4
				L20.3,59.6z"/>
			<path style="fill:#B0AEAB;" d="M28.4,70.3c-0.5,0-1.1-0.1-1.6-0.3c-0.4-0.2-0.8-0.5-1.1-0.8c-0.3-0.4-0.5-0.8-0.6-1.2
				c-0.1-0.5-0.2-1.1-0.2-1.6c0-1.4,0.3-2.4,0.9-3c0.7-0.7,1.7-1,2.6-1c0.3,0,0.7,0.1,1,0.2c0.3,0.1,0.6,0.3,0.8,0.5
				c0.2,0.2,0.4,0.5,0.6,0.8c0.2,0.3,0.2,0.7,0.3,1.1l-0.8,0.1c0-0.5-0.2-1.1-0.6-1.5c-0.4-0.3-0.9-0.5-1.4-0.5
				c-0.3,0-0.7,0.1-1,0.1c-0.3,0.1-0.6,0.3-0.9,0.5c-0.3,0.3-0.5,0.6-0.6,1c-0.2,0.5-0.3,1-0.2,1.6c0,0.6,0.1,1.1,0.2,1.7
				c0.1,0.4,0.3,0.7,0.6,1c0.2,0.2,0.5,0.4,0.8,0.5c0.3,0.1,0.6,0.1,1,0.1c0.5,0,1-0.1,1.5-0.4c0.4-0.3,0.7-0.8,0.7-1.3l0.8,0.2
				c-0.1,0.4-0.2,0.7-0.4,1.1c-0.2,0.3-0.4,0.5-0.6,0.7c-0.3,0.2-0.6,0.3-0.9,0.4C29.1,70.3,28.8,70.3,28.4,70.3z"/>
			<path style="fill:#B0AEAB;" d="M35.5,70.3c-0.5,0-1.1-0.1-1.6-0.3c-0.4-0.2-0.8-0.5-1.1-0.8c-0.3-0.4-0.5-0.8-0.6-1.2
				c-0.1-0.5-0.2-1.1-0.2-1.6c0-1.4,0.3-2.4,0.9-3c0.7-0.7,1.6-1,2.6-1c0.3,0,0.7,0.1,1,0.2c0.3,0.1,0.6,0.3,0.8,0.5
				c0.2,0.2,0.4,0.5,0.6,0.8c0.2,0.3,0.2,0.7,0.3,1.1l-0.8,0.1c0-0.5-0.2-1.1-0.6-1.5c-0.4-0.3-0.9-0.5-1.4-0.5
				c-0.3,0-0.7,0.1-1,0.1c-0.3,0.1-0.6,0.3-0.9,0.5c-0.3,0.3-0.5,0.6-0.6,1c-0.2,0.5-0.3,1-0.2,1.6c0,0.6,0.1,1.1,0.2,1.7
				c0.1,0.4,0.3,0.7,0.6,1c0.2,0.2,0.5,0.4,0.8,0.5c0.3,0.1,0.6,0.1,1,0.1c0.5,0,1-0.1,1.5-0.4c0.4-0.3,0.7-0.8,0.7-1.3l0.8,0.2
				c-0.1,0.4-0.2,0.7-0.4,1.1c-0.2,0.3-0.4,0.5-0.7,0.7c-0.3,0.2-0.6,0.3-0.9,0.4C36.2,70.3,35.8,70.3,35.5,70.3z"/>
			<path style="fill:#B0AEAB;" d="M42.6,70.3c-0.6,0-1.1-0.1-1.6-0.3c-0.4-0.2-0.8-0.5-1-0.8c-0.3-0.4-0.5-0.8-0.6-1.2
				c-0.1-0.5-0.2-1-0.2-1.6c-0.1-1.1,0.3-2.1,0.9-2.9c0.7-0.7,1.7-1.1,2.7-1.1c0.5,0,1,0.1,1.5,0.3c0.4,0.2,0.7,0.4,1,0.8
				c0.3,0.4,0.5,0.8,0.6,1.2c0.1,0.5,0.2,1,0.2,1.6c0,0.6-0.1,1.2-0.2,1.7c-0.1,0.5-0.3,0.9-0.6,1.3c-0.3,0.4-0.7,0.6-1.1,0.8
				C43.7,70.2,43.2,70.3,42.6,70.3z M42.7,69.6c0.4,0,0.7-0.1,1.1-0.2c0.3-0.1,0.6-0.3,0.8-0.6c0.2-0.3,0.4-0.7,0.5-1.1
				c0.2-1,0.2-2.1,0-3.1c-0.1-0.4-0.3-0.7-0.5-1c-0.2-0.2-0.5-0.4-0.8-0.5C43.5,63,43.1,63,42.7,63c-0.4,0-0.8,0.1-1.1,0.2
				c-0.3,0.1-0.6,0.3-0.9,0.6c-0.3,0.3-0.5,0.6-0.6,1c-0.1,0.5-0.2,1-0.2,1.5C40,68.5,40.9,69.6,42.7,69.6z"/>
			<path style="fill:#B0AEAB;" d="M47.4,62.4h0.8v5.1c0,0.5,0.1,1,0.4,1.5c0.3,0.4,0.8,0.6,1.3,0.5c0.3,0,0.6,0,0.8-0.1
				c0.3-0.1,0.5-0.2,0.8-0.3c0.2-0.1,0.5-0.2,0.7-0.4c0.2-0.1,0.3-0.2,0.5-0.4v-6h0.7v7.7h-0.6l0-1c-0.4,0.3-0.9,0.6-1.4,0.8
				c-0.5,0.2-1,0.3-1.6,0.3c-0.8,0-1.4-0.2-1.8-0.7c-0.4-0.6-0.6-1.3-0.5-2L47.4,62.4z"/>
			<path style="fill:#B0AEAB;" d="M61.3,70.1h-0.7V65c0-0.5-0.1-1-0.4-1.5c-0.3-0.4-0.8-0.6-1.3-0.5c-0.3,0-0.6,0-0.8,0.1
				c-0.3,0.1-0.5,0.2-0.8,0.3c-0.2,0.1-0.5,0.2-0.7,0.4c-0.2,0.1-0.3,0.2-0.5,0.4v6h-0.7v-7.7H56l0,1c0.4-0.3,0.9-0.6,1.4-0.8
				c0.5-0.2,1-0.3,1.6-0.3c0.7-0.1,1.3,0.2,1.8,0.7c0.4,0.6,0.6,1.3,0.5,2L61.3,70.1z"/>
			<path style="fill:#B0AEAB;" d="M66.7,69.8c-0.2,0.2-0.5,0.3-0.8,0.3c-0.3,0.1-0.6,0.1-0.9,0.1c-0.5,0.1-1.1-0.1-1.5-0.5
				c-0.3-0.4-0.5-0.9-0.4-1.5v-5.3h-1.2v-0.6h1.2v-2.2l0.7-0.1v2.3H66v0.6h-2.2v5.1c0,0.2,0,0.4,0.1,0.6c0,0.2,0.1,0.3,0.2,0.5
				c0.1,0.1,0.2,0.2,0.4,0.3c0.2,0.1,0.4,0.1,0.6,0.1c0.5,0,1-0.2,1.4-0.4L66.7,69.8z"/>
			<path style="fill:#B0AEAB;" d="M68.6,59.9c0,0.4-0.2,0.6-0.7,0.6s-0.7-0.2-0.7-0.6s0.2-0.6,0.7-0.6
				C68.4,59.2,68.6,59.5,68.6,59.9z M68.3,70.1h-0.7v-7.7h0.7V70.1z"/>
			<path style="fill:#B0AEAB;" d="M76.1,70.1h-0.7V65c0-0.5-0.1-1-0.4-1.5c-0.3-0.4-0.8-0.6-1.3-0.5c-0.3,0-0.6,0-0.8,0.1
				c-0.3,0.1-0.5,0.2-0.8,0.3c-0.2,0.1-0.5,0.2-0.7,0.4c-0.2,0.1-0.3,0.2-0.5,0.4v6h-0.7v-7.7h0.6l0,1c0.4-0.3,0.9-0.6,1.4-0.8
				c0.5-0.2,1-0.3,1.6-0.3c0.7-0.1,1.3,0.2,1.8,0.7c0.4,0.6,0.6,1.3,0.5,2V70.1z"/>
			<path style="fill:#B0AEAB;" d="M83.9,69.9c0,0.5,0,1-0.2,1.5c-0.1,0.4-0.3,0.8-0.5,1.1c-0.3,0.3-0.6,0.6-1,0.7
				c-0.5,0.2-1,0.3-1.6,0.2c-0.3,0-0.7,0-1-0.1c-0.3-0.1-0.6-0.2-0.9-0.4c-0.3-0.2-0.5-0.4-0.7-0.7c-0.2-0.3-0.3-0.6-0.4-1l0.7-0.3
				c0.1,0.5,0.4,0.9,0.7,1.2c0.4,0.3,1,0.5,1.5,0.5c0.3,0,0.7,0,1-0.1c0.3-0.1,0.6-0.2,0.8-0.4c0.3-0.2,0.4-0.5,0.6-0.9
				c0.1-0.5,0.2-1,0.2-1.4v-0.8c-0.4,0.3-0.7,0.6-1.2,0.8c-0.5,0.2-1,0.3-1.5,0.3c-0.4,0-0.8-0.1-1.2-0.2c-0.4-0.2-0.7-0.4-0.9-0.7
				c-0.3-0.4-0.5-0.8-0.6-1.2c-0.2-0.6-0.2-1.2-0.2-1.8c0-0.7,0.1-1.3,0.3-1.9c0.1-0.5,0.4-0.9,0.7-1.3c0.3-0.3,0.6-0.6,1-0.7
				c0.4-0.1,0.8-0.2,1.2-0.2c0.4,0,0.9,0.1,1.3,0.2c0.4,0.1,0.7,0.3,1,0.5l0.1-0.6h0.7V69.9z M83.2,63.8l-0.4-0.3
				c-0.2-0.1-0.3-0.2-0.5-0.3c-0.2-0.1-0.4-0.2-0.7-0.2c-0.3-0.1-0.6-0.1-0.8-0.1c-0.8-0.1-1.5,0.3-1.9,0.9
				c-0.4,0.8-0.6,1.7-0.6,2.6c0,1.1,0.2,1.9,0.6,2.5c0.4,0.5,1.1,0.8,1.8,0.8c0.5,0,1-0.1,1.4-0.4c0.4-0.2,0.8-0.5,1.1-0.8
				L83.2,63.8z"/>
		</g>
		<rect x="9.4" y="50.8" style="fill:#B0AEAB;" width="81.2" height="0.3"/>
	</g>
</g>
</svg>
