<?xml version="1.0" encoding="utf-8"?>
<!-- Generator: Adobe Illustrator 24.2.1, SVG Export Plug-In . SVG Version: 6.00 Build 0)  -->
<svg version="1.1" id="Layer_1" xmlns="http://www.w3.org/2000/svg" xmlns:xlink="http://www.w3.org/1999/xlink" x="0px" y="0px"
	width="100px" height="100px" viewBox="0 0 100 100" style="enable-background:new 0 0 100 100;" xml:space="preserve">
<g>
	<path style="fill:#E8E8E8;" d="M50,0c27.6,0,50,22.4,50,50s-22.4,50-50,50S0,77.6,0,50S22.4,0,50,0"/>
	<path style="fill:#FFFFFF;" d="M50,1c27,0,49,22,49,49S77.1,99,50,99S1,77,1,50S23,1,50,1"/>
	<path style="fill:#E8E8E8;" d="M50,0c27.6,0,50,22.4,50,50s-22.4,50-50,50S0,77.6,0,50S22.4,0,50,0"/>
	<path style="fill:#FFFFFF;" d="M50,1c27,0,49,22,49,49S77.1,99,50,99S1,77,1,50S23,1,50,1"/>
	<g>
		<g id="layer1">
			<g id="g2659">
				<path id="path2629" style="fill:#00DC06;" d="M36.9,43.8c-2.6,0-4.4,1.8-4.4,4.8c0,3.7,2.6,4.8,4.5,4.8c1.4,0,2.8-0.6,3.7-1.6
					l-1.2-1.2c-0.7,0.6-1.6,1-2.5,0.9c-1.5,0-2.5-0.9-2.5-2h6.6C41.2,49.4,42.3,43.8,36.9,43.8 M34.6,47.8c0-1.6,1.2-2.3,2.5-2.3
					s2.5,0.8,2.5,2.3H34.6z"/>
				<path id="path2631" style="fill:#00DC06;" d="M12.8,47.7c-0.8-0.1-3.3,0-3.3-1.1c0-0.7,1-1,2-1c1,0,2,0.3,2.8,0.8l1.3-1.2
					c-1.2-0.9-2.6-1.3-4-1.3c-2.1,0-3.9,1.1-3.9,2.8c0,2.7,3.2,2.7,4.5,2.8c0.8,0.1,1.6,0.1,1.6,0.9s-1.1,1.2-2,1.2
					c-1.2,0-2.3-0.4-3.1-1.2l-1.3,1.4c1.2,1.1,2.7,1.8,4.4,1.7c2.4,0,4.2-1.1,4.2-3.2C15.7,48.7,14.8,47.9,12.8,47.7"/>
				<path id="path2633" style="fill:#00DC06;" d="M19.7,43.8c-1.3,0-2.7,0.4-3.7,1.3l1.3,1.3c0.7-0.5,1.6-0.8,2.4-0.8
					c1.6,0,2.1,0.6,2.1,1.4v0.9h-2.9c-1.1,0-3.1,0.3-3.1,2.6c0,1.7,1,3,3.3,3c1,0.1,2-0.3,2.7-1.1v0.9h2.1V47
					C23.9,44.9,22.6,43.8,19.7,43.8 M21.8,49.8c0,1.8-1.3,1.7-2.4,1.7s-1.9-0.3-1.9-1.1s0.6-1,1.8-1h2.4L21.8,49.8z"/>
				<path id="path2635" style="fill:#00DC06;" d="M30.3,44v1c-0.7-0.8-1.7-1.2-2.7-1.2c-2,0-3,1.1-3.3,2.3c-0.2,0.8-0.2,1.7-0.2,2.5
					c0,1.2,0,2.2,0.4,3c0.6,1.1,1.8,1.8,3.1,1.8c1,0,2-0.4,2.7-1.2v0.6c0,0.6-0.2,1.1-0.7,1.5c-0.5,0.4-1.1,0.6-1.7,0.6
					c-0.6,0-1.2-0.3-1.7-0.6l-1.4,1.4c0.9,0.8,2,1.2,3.2,1.2c1.1,0,2.2-0.3,3.1-1c0.9-0.8,1.4-2,1.4-3.2V44H30.3z M30.3,48.6
					c0,0.5,0,1-0.1,1.5c-0.3,0.9-1.1,1.5-2,1.4c-0.3,0-1.9-0.2-2.1-1.5C26,49.5,26,49.1,26,48.6c0-0.6,0-1.1,0.1-1.7
					c0.3-0.8,1.1-1.4,2-1.3c1.5,0,2,1,2,1.4C30.3,47.5,30.3,48.1,30.3,48.6"/>
			</g>
		</g>
		<path style="fill:#B0AEAB;" d="M44.7,52.6L44.7,52.6c0-1.1,0.9-2.4,2.6-3.7c1.5-1.1,1.8-1.5,1.8-2.5c0-0.9-0.5-1.7-1.7-1.7
			c-1.1,0-1.7,0.5-2,1.8h-0.7c0.2-1.4,1-2.4,2.6-2.4c1.7,0,2.4,1.2,2.4,2.3c0,1.3-0.5,1.7-2.1,3c-1.2,1-2,1.8-2.2,2.6h4.7L50,52.6
			L44.7,52.6z"/>
		<path style="fill:#B0AEAB;" d="M56.8,48.3c0,1.9-0.5,4.4-2.7,4.4c-2.2,0-2.7-2.3-2.7-4.4c0-2.1,0.6-4.3,2.8-4.3
			S56.8,46.4,56.8,48.3z M52,48.4c0,1.6,0.3,3.7,2,3.7c1.7,0,2-2,2-3.8c0-1.6-0.3-3.7-2-3.7C52.4,44.7,52,46.6,52,48.4z"/>
		<path style="fill:#B0AEAB;" d="M63.7,48.3c0,1.9-0.5,4.4-2.7,4.4c-2.2,0-2.7-2.3-2.7-4.4c0-2.1,0.6-4.3,2.8-4.3
			S63.7,46.4,63.7,48.3z M58.9,48.4c0,1.6,0.3,3.7,2,3.7c1.7,0,2-2,2-3.8c0-1.6-0.3-3.7-2-3.7C59.2,44.7,58.9,46.6,58.9,48.4z"/>
		<path style="fill:#B0AEAB;" d="M70.1,50.7c-0.3,1.1-1,2-2.5,2c-1.6,0-2.7-1.2-2.7-3.3c0-1.7,0.9-3.4,2.8-3.4c1.6,0,2.3,1.1,2.4,2
			h-0.7c-0.2-0.7-0.7-1.4-1.8-1.4c-1.4,0-2.1,1.1-2.1,2.7c0,1.5,0.7,2.7,2.1,2.7c0.9,0,1.5-0.5,1.8-1.4L70.1,50.7z"/>
		<path style="fill:#B0AEAB;" d="M71.6,52.6v-9.4h0.6v9.4H71.6z"/>
		<path style="fill:#B0AEAB;" d="M79.5,49.4c0,1.8-1,3.4-2.9,3.4c-1.7,0-2.8-1.4-2.8-3.3c0-1.8,1-3.3,2.9-3.3
			C78.3,46.1,79.5,47.4,79.5,49.4z M74.5,49.4c0,1.5,0.8,2.7,2.2,2.7s2.2-1.1,2.2-2.7c0-1.5-0.8-2.7-2.2-2.7
			C75.2,46.7,74.5,47.9,74.5,49.4L74.5,49.4z"/>
		<path style="fill:#B0AEAB;" d="M85.8,50.7c0,0.6,0,1.6,0,1.9h-0.6c0-0.4,0-0.7,0-1.1c-0.3,0.8-0.9,1.3-2.1,1.3
			c-0.9,0-2.1-0.4-2.1-2.3v-4.2h0.6v4.1c0,0.9,0.3,1.8,1.6,1.8c1.4,0,2-0.8,2-2.6v-3.3h0.6L85.8,50.7z"/>
		<path style="fill:#B0AEAB;" d="M92.8,43.2v7.6c0,0.6,0,1.2,0,1.8h-0.6c0-0.2,0-0.8,0-1.1c-0.3,0.8-1,1.2-2.1,1.2
			c-1.7,0-2.7-1.4-2.7-3.3c0-2,1.1-3.4,2.8-3.4c1.3,0,1.8,0.5,2,1v-3.8L92.8,43.2z M88.1,49.5c0,1.7,0.9,2.7,2,2.7
			c1.7,0,2.1-1.2,2.1-2.9c0-1.6-0.4-2.6-2-2.6C88.9,46.7,88.1,47.7,88.1,49.5z"/>
	</g>
</g>
</svg>
