<?xml version="1.0" encoding="utf-8"?>
<!-- Generator: Adobe Illustrator 24.2.1, SVG Export Plug-In . SVG Version: 6.00 Build 0)  -->
<svg version="1.1" id="Layer_1" xmlns="http://www.w3.org/2000/svg" xmlns:xlink="http://www.w3.org/1999/xlink" x="0px" y="0px"
	width="100px" height="100px" viewBox="0 0 100 100" style="enable-background:new 0 0 100 100;" xml:space="preserve">
<g>
	<g>
		<path style="fill:#E8E8E8;" d="M50,0c27.6,0,50,22.4,50,50s-22.4,50-50,50S0,77.6,0,50S22.4,0,50,0"/>
		<path style="fill:#FFFFFF;" d="M50,1c27,0,49,22,49,49S77.1,99,50,99S1,77,1,50S23,1,50,1"/>
		<path style="fill:#E8E8E8;" d="M50,0c27.6,0,50,22.4,50,50s-22.4,50-50,50S0,77.6,0,50S22.4,0,50,0"/>
		<path style="fill:#FFFFFF;" d="M50,1c27,0,49,22,49,49S77.1,99,50,99S1,77,1,50S23,1,50,1"/>
	</g>
	<g>
		<path id="path69" style="fill:#95BF47;" d="M26.3,42.6c0-0.1-0.1-0.2-0.2-0.2c-0.1,0-1.7,0-1.7,0S23,41,22.8,40.9
			c-0.1-0.1-0.4-0.1-0.5-0.1c0,0-0.3,0.1-0.7,0.2c-0.1-0.2-0.2-0.5-0.3-0.8c-0.5-0.9-1.2-1.4-2.1-1.4c-0.1,0-0.1,0-0.2,0
			c0,0-0.1-0.1-0.1-0.1c-0.4-0.4-0.9-0.6-1.4-0.6c-1.1,0-2.2,0.8-3.1,2.3c-0.6,1-1.1,2.3-1.3,3.3c-1.3,0.4-2.2,0.7-2.2,0.7
			c-0.6,0.2-0.7,0.2-0.8,0.8c-0.1,0.5-1.8,13.6-1.8,13.6l14.2,2.5l6.2-1.5C28.8,59.8,26.3,42.7,26.3,42.6z M20.9,41.3
			c-0.3,0.1-0.7,0.2-1.1,0.3c0-0.6-0.1-1.4-0.3-2C20.3,39.7,20.7,40.7,20.9,41.3z M19.1,41.8c-0.8,0.2-1.6,0.5-2.4,0.7
			c0.2-0.9,0.7-1.8,1.2-2.3c0.2-0.2,0.5-0.5,0.8-0.6C19,40.3,19.1,41.2,19.1,41.8z M17.5,38.9c0.3,0,0.5,0.1,0.7,0.2
			c-0.3,0.2-0.6,0.4-0.9,0.7c-0.7,0.8-1.3,1.9-1.5,3.1c-0.7,0.2-1.3,0.4-2,0.6C14.3,41.6,15.8,38.9,17.5,38.9z"/>
		<path id="path71" style="fill:#5E8E3E;" d="M26.1,42.4c-0.1,0-1.7,0-1.7,0S23,41,22.8,40.9c-0.1-0.1-0.1-0.1-0.2-0.1v20.5l6.2-1.5
			c0,0-2.5-17-2.5-17.2C26.2,42.5,26.1,42.4,26.1,42.4z"/>
		<path id="path73" style="fill:#FFFFFF;" d="M19.2,45.6l-0.7,2.7c0,0-0.8-0.4-1.8-0.3c-1.4,0.1-1.4,1-1.4,1.2
			c0.1,1.2,3.2,1.5,3.4,4.3c0.1,2.2-1.2,3.7-3.1,3.8c-2.3,0.1-3.5-1.2-3.5-1.2l0.5-2c0,0,1.3,0.9,2.3,0.9c0.7,0,0.9-0.6,0.9-1
			c-0.1-1.6-2.7-1.5-2.8-4c-0.1-2.2,1.3-4.4,4.4-4.6C18.6,45.3,19.2,45.6,19.2,45.6L19.2,45.6z"/>
		<path id="path75" d="M37.2,51.3c-0.7-0.4-1.1-0.7-1.1-1.2c0-0.6,0.5-0.9,1.3-0.9c0.9,0,1.8,0.4,1.8,0.4l0.7-2c0,0-0.6-0.5-2.4-0.5
			c-2.5,0-4.2,1.4-4.2,3.4c0,1.1,0.8,2,1.9,2.6c0.9,0.5,1.2,0.8,1.2,1.4c0,0.5-0.4,1-1.2,1c-1.2,0-2.3-0.6-2.3-0.6l-0.7,2
			c0,0,1,0.7,2.8,0.7c2.5,0,4.4-1.2,4.4-3.5C39.2,52.8,38.3,51.9,37.2,51.3L37.2,51.3z M47.3,47.1c-1.2,0-2.2,0.6-3,1.5l0,0l1.1-5.7
			h-2.8l-2.7,14.4h2.8l0.9-4.9c0.4-1.9,1.3-3,2.2-3c0.6,0,0.9,0.4,0.9,1c0,0.4,0,0.9-0.1,1.2l-1.1,5.6h2.8l1.1-5.8
			c0.1-0.6,0.2-1.4,0.2-1.8C49.6,48.1,48.7,47.1,47.3,47.1z M56,47.1c-3.4,0-5.6,3.1-5.6,6.5c0,2.2,1.4,3.9,3.9,3.9
			c3.3,0,5.6-3,5.6-6.5C59.8,49,58.6,47.1,56,47.1L56,47.1z M54.6,55.4c-1,0-1.4-0.8-1.4-1.8c0-1.6,0.8-4.3,2.4-4.3
			c1,0,1.3,0.9,1.3,1.7C56.9,52.7,56,55.4,54.6,55.4z M67,47.1c-1.9,0-3,1.7-3,1.7h0l0.2-1.5h-2.5c-0.1,1-0.3,2.6-0.6,3.7l-2,10.3
			h2.8l0.8-4.2h0.1c0,0,0.6,0.4,1.7,0.4c3.3,0,5.5-3.4,5.5-6.8C69.9,48.8,69.1,47.1,67,47.1L67,47.1z M64.3,55.4
			c-0.7,0-1.2-0.4-1.2-0.4l0.5-2.6c0.3-1.8,1.2-2.9,2.2-2.9c0.9,0,1.1,0.8,1.1,1.6C66.9,52.8,65.9,55.4,64.3,55.4z M73.9,43.1
			c-0.9,0-1.6,0.7-1.6,1.6c0,0.8,0.5,1.4,1.3,1.4h0c0.9,0,1.6-0.6,1.7-1.6C75.3,43.6,74.8,43.1,73.9,43.1L73.9,43.1z M70,57.3h2.8
			l1.9-10h-2.8L70,57.3z M81.9,47.3h-2l0.1-0.5c0.2-1,0.7-1.8,1.7-1.8c0.5,0,0.9,0.1,0.9,0.1l0.5-2.2c0,0-0.5-0.2-1.5-0.2
			c-1,0-2,0.3-2.8,0.9c-1,0.8-1.4,2-1.6,3.2l-0.1,0.5h-1.3l-0.4,2.1h1.3l-1.5,7.9H78l1.5-7.9h1.9L81.9,47.3z M88.7,47.3
			c0,0-1.8,4.4-2.6,6.9h0c-0.1-0.8-0.7-6.9-0.7-6.9h-3l1.7,9.2c0,0.2,0,0.3-0.1,0.5c-0.3,0.6-0.9,1.2-1.5,1.7
			c-0.5,0.4-1.1,0.6-1.6,0.8l0.8,2.4c0.6-0.1,1.8-0.6,2.8-1.5c1.3-1.2,2.5-3.1,3.7-5.6l3.4-7.4H88.7z"/>
	</g>
</g>
</svg>
