<?xml version="1.0" encoding="utf-8"?>
<!-- Generator: Adobe Illustrator 24.2.1, SVG Export Plug-In . SVG Version: 6.00 Build 0)  -->
<svg version="1.1" id="Layer_1" xmlns="http://www.w3.org/2000/svg" xmlns:xlink="http://www.w3.org/1999/xlink" x="0px" y="0px"
	width="100px" height="100px" viewBox="0 0 100 100" style="enable-background:new 0 0 100 100;" xml:space="preserve">
<g>
	<g>
		<path style="fill:#E9E8E7;" d="M50,0c27.6,0,50,22.4,50,50s-22.4,50-50,50S0,77.6,0,50S22.4,0,50,0"/>
		<path style="fill:#FFFFFF;" d="M50,1c27,0,49,22,49,49S77.1,99,50,99S1,77,1,50S23,1,50,1"/>
		<path style="fill:#E9E8E7;" d="M50,0c27.6,0,50,22.4,50,50s-22.4,50-50,50S0,77.6,0,50S22.4,0,50,0"/>
		<path style="fill:#FFFFFF;" d="M50,1c27,0,49,22,49,49S77.1,99,50,99S1,77,1,50S23,1,50,1"/>
	</g>
	<g>
		<g>
			<rect x="26.9" y="50.4" style="fill:#065C80;" width="62.8" height="10.5"/>
			
				<linearGradient id="SVGID_1_" gradientUnits="userSpaceOnUse" x1="-435.475" y1="-17.5702" x2="-435.0186" y2="-17.5702" gradientTransform="matrix(22.9451 0 0 22.9451 10018.8955 447.4791)">
				<stop  offset="0" style="stop-color:#219CD8"/>
				<stop  offset="0.18" style="stop-color:#219CD8"/>
				<stop  offset="1" style="stop-color:#065C80"/>
			</linearGradient>
			<rect x="26.9" y="39.1" style="fill:url(#SVGID_1_);" width="10.5" height="10.5"/>
			<rect x="10.3" y="39.1" style="fill:#209FDA;" width="15.7" height="10.5"/>
		</g>
		<path style="fill:#FFFFFF;" d="M84.8,52.7h-1.3v0.5l0.5,0.1v4.9h0.9V52.7z M84.8,56.2l1.3,2h1v-0.5l-0.4-0.1L85.6,56l0.9-1
			l0.5-0.1v-0.5h-1.5v0.5l0.4,0.1L84.8,56.2z M81.8,55.5c0-0.4-0.1-0.6-0.4-0.6c-0.3,0-0.6,0.1-0.8,0.3v2.9h-0.9V55l-0.5-0.1v-0.5
			h1.2l0.1,0.4c0.3-0.3,0.7-0.5,1.2-0.5c0.6,0,0.9,0.3,0.9,1v2.4l0.5,0.1v0.5h-1.3V55.5z M79,57.7c-0.3,0-0.4-0.1-0.4-0.4v-1.9
			c0-0.9-0.4-1.2-1.2-1.2c-0.6,0-1.1,0.2-1.5,0.4l0.2,0.5c0.3-0.2,0.7-0.3,1.1-0.3c0.5,0,0.6,0.2,0.6,0.7v0.3h-0.3
			c-1.2,0-1.7,0.4-1.7,1.2c0,0.8,0.4,1.2,1.1,1.2c0.5,0,0.7-0.2,1-0.4c0.1,0.3,0.3,0.4,0.6,0.4c0.2,0,0.5-0.1,0.6-0.1L79,57.7z
			 M77.7,57.4c-0.1,0.2-0.4,0.3-0.7,0.3c-0.3,0-0.5-0.2-0.5-0.6c0-0.6,0.2-0.7,0.9-0.7h0.3V57.4L77.7,57.4z M71.1,53v0.5l0.5,0.1
			v4.1l-0.5,0.1v0.5h2.3c1,0,1.6-0.4,1.6-1.5c0-0.8-0.5-1.2-1-1.3c0.5-0.1,0.8-0.5,0.8-1.1c0-0.8-0.4-1.4-1.5-1.4L71.1,53L71.1,53z
			 M72.6,55.2v-1.7h0.6c0.6,0,0.7,0.3,0.7,0.9s-0.1,0.8-0.7,0.8H72.6z M72.6,57.6v-1.9h0.7c0.6,0,0.9,0.3,0.9,0.9c0,0.7-0.2,1-0.9,1
			L72.6,57.6L72.6,57.6z M68.7,54.9v-0.5h1.4v0.5L69.8,55l-1,3.2c-0.4,1.1-0.8,1.4-1.6,1.6l-0.2-0.6c0.7-0.1,1-0.4,1.2-0.9h-0.3
			l-1-3.2l-0.3-0.1v-0.5H68v0.5l-0.4,0.1l0.5,1.8c0.1,0.3,0.2,0.7,0.2,1h0c0-0.3,0.1-0.6,0.2-1l0.5-1.8L68.7,54.9z M66.1,56.1
			c0-1.4-0.5-1.9-1.5-1.9c-1,0-1.6,0.6-1.6,2c0,1.4,0.6,2,1.7,2c0.6,0,1-0.2,1.4-0.5l-0.2-0.5c-0.3,0.2-0.6,0.3-1,0.3
			c-0.7,0-0.9-0.3-0.9-1.2h2.2L66.1,56.1L66.1,56.1z M63.9,55.9c0-0.9,0.3-1.1,0.7-1.1c0.5,0,0.6,0.3,0.6,1.1H63.9z M62.6,58.1
			c-0.2,0.1-0.4,0.1-0.6,0.1c-0.6,0-0.8-0.4-0.8-1v-4l-0.5-0.1v-0.5H62v4.7c0,0.2,0.1,0.3,0.2,0.3c0.1,0,0.2,0,0.2,0L62.6,58.1z
			 M60.6,58.1c-0.2,0.1-0.4,0.1-0.6,0.1c-0.6,0-0.8-0.4-0.8-1v-4l-0.5-0.1v-0.5H60v4.7c0,0.2,0.1,0.3,0.2,0.3c0.1,0,0.2,0,0.2,0
			L60.6,58.1z M58.4,57.7c-0.3,0-0.4-0.1-0.4-0.4v-1.9c0-0.9-0.4-1.2-1.2-1.2c-0.6,0-1.1,0.2-1.5,0.4l0.2,0.5
			c0.3-0.2,0.7-0.3,1.1-0.3c0.5,0,0.6,0.2,0.6,0.7v0.3h-0.3c-1.2,0-1.7,0.4-1.7,1.2c0,0.8,0.4,1.2,1.1,1.2c0.5,0,0.7-0.2,1-0.4
			c0.1,0.3,0.3,0.4,0.7,0.4c0.2,0,0.5-0.1,0.6-0.1L58.4,57.7z M57.2,57.4c-0.1,0.2-0.4,0.3-0.6,0.3c-0.3,0-0.5-0.2-0.5-0.6
			c0-0.6,0.2-0.7,0.9-0.7h0.2V57.4z M53.5,58.2h-0.9l-1.4-4.7l-0.4-0.1V53h1.9v0.5l-0.5,0.1l0.7,2.7c0.2,0.6,0.2,0.8,0.2,1.1h0
			c0-0.3,0.1-0.5,0.2-1.1l0.7-2.7l-0.5-0.1V53h1.6v0.5l-0.4,0.1L53.5,58.2z M49,55.5c0-0.4-0.1-0.6-0.4-0.6c-0.3,0-0.6,0.1-0.8,0.3
			v2.9H47V55l-0.5-0.1v-0.5h1.2l0.1,0.4c0.3-0.3,0.7-0.5,1.2-0.5c0.6,0,0.9,0.3,0.9,1v2.4l0.5,0.1v0.5H49V55.5z M44.4,54.3
			c-1,0-1.6,0.6-1.6,2c0,1.4,0.7,2,1.6,2c1,0,1.6-0.6,1.6-2C46,54.8,45.4,54.3,44.4,54.3 M44.4,57.7c-0.5,0-0.7-0.4-0.7-1.5
			c0-1.1,0.2-1.5,0.7-1.5c0.6,0,0.7,0.4,0.7,1.5C45.1,57.3,45,57.7,44.4,57.7 M42.3,57.8c-0.3,0.3-0.7,0.4-1.3,0.4
			c-1,0-1.6-0.6-1.6-2c0-1.5,0.7-2,1.6-2c0.5,0,0.9,0.1,1.1,0.4v0.9h-0.6l-0.1-0.6c-0.1-0.1-0.3-0.1-0.4-0.1c-0.5,0-0.7,0.3-0.7,1.4
			c0,1.2,0.3,1.5,0.8,1.5c0.3,0,0.6-0.1,0.9-0.3L42.3,57.8z M38.6,58.2h-0.9V55l-0.5-0.1v-0.5h1.3V58.2z M37,58.1
			c-0.2,0.1-0.4,0.1-0.6,0.1c-0.6,0-0.8-0.4-0.8-1v-4l-0.5-0.1v-0.5h1.3v4.7c0,0.2,0.1,0.3,0.2,0.3c0.1,0,0.2,0,0.2,0L37,58.1z
			 M34.6,58.2h-0.9V55l-0.5-0.1v-0.5h1.3C34.6,54.4,34.6,58.2,34.6,58.2z M31.4,55c0.9,0.3,1.4,0.7,1.4,1.7c0,0.8-0.5,1.5-1.7,1.5
			c-0.6,0-1.1-0.1-1.4-0.3v-1.1h0.6l0.2,0.7c0.2,0.1,0.3,0.1,0.6,0.1c0.7,0,0.9-0.4,0.9-0.9c0-0.5-0.3-0.7-0.9-0.9
			c-1-0.3-1.4-0.8-1.4-1.6c0-1,0.6-1.4,1.6-1.4c0.5,0,0.9,0.1,1.3,0.3v1.1H32l-0.2-0.7c-0.2-0.1-0.3-0.1-0.5-0.1
			c-0.5,0-0.8,0.3-0.8,0.7C30.5,54.7,30.7,54.8,31.4,55 M30.2,47.6l1.8-3.2h0l-1.8-3.3l0.8-0.5l3,3.7L31,48L30.2,47.6z M22.3,42.9
			c-0.5,0-0.8,0.2-1.1,0.5v-2.2h-1.4v0.5l0.5,0.1v5.3H21l0.1-0.4c0.3,0.3,0.6,0.5,1.1,0.5c0.9,0,1.5-0.4,1.5-2.2
			C23.7,43.4,23.1,42.9,22.3,42.9 M22,46.6c-0.3,0-0.6-0.2-0.7-0.3V44c0.2-0.2,0.5-0.3,0.8-0.3c0.5,0,0.7,0.4,0.7,1.5
			C22.7,46.2,22.6,46.6,22,46.6 M18.3,43.6V43h1.6v0.6l-0.4,0.1l-1.2,3.5h-0.9l-1.2-3.5l-0.3-0.1V43h1.7v0.6l-0.4,0.1l0.6,1.8
			c0.1,0.3,0.2,0.6,0.2,0.9h0c0-0.3,0.1-0.7,0.2-1l0.5-1.8L18.3,43.6z M14.4,44.6c0.7,0.2,1.2,0.5,1.2,1.4c0,0.8-0.6,1.3-1.5,1.3
			c-0.6,0-1-0.1-1.3-0.3v-1h0.6l0.1,0.6c0.2,0.1,0.3,0.1,0.5,0.1c0.5,0,0.7-0.2,0.7-0.6c0-0.4-0.2-0.5-0.8-0.7
			c-0.7-0.2-1.2-0.5-1.2-1.3c0-0.7,0.5-1.2,1.4-1.2c0.5,0,0.9,0.1,1.2,0.2v1h-0.6l-0.1-0.6c-0.1-0.1-0.3-0.1-0.5-0.1
			c-0.4,0-0.6,0.2-0.6,0.5C13.6,44.3,13.8,44.5,14.4,44.6"/>
	</g>
</g>
</svg>
