<?xml version="1.0" encoding="utf-8"?>
<!-- Generator: Adobe Illustrator 24.2.1, SVG Export Plug-In . SVG Version: 6.00 Build 0)  -->
<svg version="1.1" id="Layer_1" xmlns="http://www.w3.org/2000/svg" xmlns:xlink="http://www.w3.org/1999/xlink" x="0px" y="0px"
	 viewBox="0 0 160.4 140.3" style="enable-background:new 0 0 160.4 140.3;" xml:space="preserve">
<g>
	<path style="fill:#020202;" d="M42,104c-2.3,0.1-4.6,1-6.4,2.4c-0.7,0.5-1.4,1.2-1.9,1.9c-1,1.3-1.7,2.7-2.2,4.2
		c-1.4,4.3-1,9.1,1,13.2c0.8,1.4,1.8,2.7,3,3.7c1.1,0.8,2.2,1.4,3.5,1.8c3.6,1.2,7.5,0.5,10.5-1.7c0.8-0.6,1.4-1.3,2-2.1
		c0-0.2,0.6-1,0.6-0.4v13.1h4v-35.7h-4v4.8c-0.6-1.1-1.4-2.1-2.3-2.8C47.6,104.7,44.8,103.8,42,104z M43.4,107.6
		c1.9-0.1,3.7,0.5,5.2,1.7c1,0.8,1.8,1.8,2.4,3c1.5,3.2,1.6,6.9,0.5,10.3c-0.5,1.6-1.5,3-2.8,4c-1.9,1.7-4.7,1.9-7.2,1.5
		c-1.6-0.3-3-1.2-4-2.4c-1.9-2.1-2.5-5.2-2.4-8c0-2.5,0.7-4.9,2.1-7C38.6,108.7,40.9,107.5,43.4,107.6L43.4,107.6z M12.9,93.8
		c-3.1,0-6,1-8.5,2.8C3.8,97,3.4,97.5,3,98c-1.5,1.9-2.2,4.3-2,6.7c0.1,1.7,0.7,3.4,1.9,4.7c0.4,0.6,0.9,1.1,1.5,1.4
		c3.1,2.4,7.2,2.9,10.9,4c2.3,0.7,5,1.2,6.5,3.2c1.2,1.7,1.4,3.9,0.5,5.7c-0.7,1.5-1.9,2.6-3.3,3.3c-3,1.2-6.2,1.3-9.3,0.3
		c-2.3-0.7-4.3-2.1-5.7-3.9c-0.4-0.6-0.7-1-1.3-0.3L0,125.1c0.7,1.1,1.6,2.2,2.6,3c1.7,1.4,3.6,2.4,5.7,3c4,1.2,8.4,1,12.3-0.5
		c1.6-0.7,3-1.7,4.1-3c1.5-1.8,2.3-4,2.4-6.3c0.1-2.2-0.6-4.4-2.1-6.1c-0.3-0.4-0.7-0.8-1.2-1.1c-0.7-0.6-1.6-1.1-2.4-1.5
		c-4-2-8.5-2.4-12.5-4.2c-1.3-0.6-2.4-1.5-3.1-2.7c-0.9-2.2-0.2-4.8,1.7-6.2c1.8-1.2,3.9-1.8,6-1.7c3.7-0.1,7.2,1.6,9.5,4.5l3.3-2.4
		c-0.9-1.3-2.1-2.4-3.5-3.2C19.8,94.6,16.3,93.6,12.9,93.8z M62.8,121.9c-0.1,2.4,0.6,4.7,1.9,6.6c0.8,1,1.8,1.9,2.9,2.4
		c2.9,1.3,6.2,1.2,9.1-0.2c1.3-0.6,2.4-1.5,3.3-2.7c0.4-0.3,0.8-1.3,1-1.4v4.5h4v-26.6h-4L81,120.9c-0.4,4.4-4.3,7.6-8.7,7.2
		c-0.8-0.1-1.6-0.3-2.3-0.6c-1.8-0.9-2.9-2.7-3-4.7c-0.3-3.4-0.1-6.8-0.2-10.2v-8h-4L62.8,121.9z M101.3,104
		c-3.5,0.1-6.8,1.2-9.7,3.2l1.7,2.9c2.4-1.7,5.3-2.6,8.3-2.7c2.1,0,4.6,0.4,5.8,2.3c0.8,1.3,0.5,3-0.7,4c-1.2,0.9-2.6,1.5-4.1,1.6
		c-2.7,0.5-5.6,0.6-8.2,1.8c-1.2,0.5-2.2,1.3-2.9,2.4c-1.4,1.8-1.5,4.2-1.1,6.3c0.4,2,1.7,3.7,3.4,4.7c2.6,1.3,5.5,1.7,8.3,1
		c1.6-0.4,3.1-1.2,4.3-2.3c0.6-0.4,0.7-1.1,1.3-1.4c0.5,0.1,0.1,1,0.2,1.4v2h3.8l-0.1-20.7c-0.2-2-1.3-3.7-3-4.8
		C106.5,104.4,103.9,103.8,101.3,104z M107.9,116.5c-0.1,2.8,0.4,5.8-0.9,8.3c-1.2,2-3.4,3.3-5.7,3.5c-2.1,0.2-4.5-0.1-5.9-1.8
		c-1-1.3-1.2-3-0.7-4.6c0.5-1.2,1.5-2.2,2.8-2.5c2.9-1,6.1-1,9-2.1c0.6-0.3,1.1-0.6,1.5-1L107.9,116.5z M130.1,104.1
		c-2.1,0.2-4.1,1.1-5.7,2.5c-0.7,0.8-1.3,1.6-1.8,2.5v-4.5h-4v26.6h4l0.1-15.6c0.2-2.6,1.5-4.9,3.5-6.5c2-1.4,4.6-1.6,6.8-0.7
		c0.5-0.2,0.3-1.1,0.5-1.5l0.5-2C132.9,104.3,131.5,104,130.1,104.1L130.1,104.1z M147.4,104c-2.3,0.1-4.6,0.8-6.5,2.1l-1.3,1
		c-1,1-1.8,2.1-2.5,3.4c-1.9,3.9-2.3,8.5-0.9,12.6c0.6,1.9,1.6,3.6,2.9,5.1c0.5,0.5,1,0.9,1.5,1.3c2,1.5,4.5,2.3,7,2.3
		c3.4,0.3,6.7-0.7,9.4-2.8c0.8-0.6,1.5-1.2,2.1-2l-2.7-2.4c-1.4,1.8-3.4,3-5.6,3.4c-3.1,0.6-6.6-0.1-8.8-2.5
		c-1.8-1.7-2.4-4.3-2.4-6.8c0.4-0.6,1.3-0.1,1.9-0.3h18.6c0.5-3.6-0.4-7.4-2.7-10.3c-0.6-0.8-1.4-1.5-2.3-2.1
		C153,104.6,150.3,103.8,147.4,104L147.4,104z M148.9,107.4c2.7,0.1,5.1,1.6,6.4,4c0.6,1.3,0.9,2.6,0.9,4h-16.5c0.3-2,0.7-4,2.2-5.4
		c0.3-0.4,1-0.9,1.4-1.3C145,107.6,146.9,107.2,148.9,107.4L148.9,107.4z M104.9,0H55.5c-6.8,0-12.3,5.5-12.3,12.4v49.4
		c0,6.8,5.5,12.3,12.3,12.3h49.4c6.8,0,12.3-5.5,12.4-12.3V12.4C117.2,5.5,111.7,0,104.9,0 M103.8,56.7c0,2.2-1.8,3.9-3.9,3.9H60.5
		c-2.2,0-3.9-1.8-3.9-3.9V17.4c0-2.2,1.8-3.9,3.9-3.9h39.3c2.2,0,3.9,1.8,3.9,3.9V56.7z M90.3,44.9c0,1.2-1,2.2-2.3,2.2H72.3
		c-1.2,0-2.2-1-2.3-2.2V29.2c0-1.2,1-2.2,2.3-2.2h15.7c1.2,0,2.2,1,2.3,2.2V44.9z"/>
</g>
</svg>
