<?xml version="1.0" encoding="utf-8"?>
<!-- Generator: Adobe Illustrator 24.2.1, SVG Export Plug-In . SVG Version: 6.00 Build 0)  -->
<svg version="1.1" id="Layer_1" xmlns="http://www.w3.org/2000/svg" xmlns:xlink="http://www.w3.org/1999/xlink" x="0px" y="0px"
	width="100px" height="100px" viewBox="0 0 100 100" style="enable-background:new 0 0 100 100;" xml:space="preserve">
<g>
	<g>
		<path style="fill:#E8E8E8;" d="M50,0c27.6,0,50,22.4,50,50s-22.4,50-50,50S0,77.6,0,50S22.4,0,50,0"/>
		<path style="fill:#FFFFFF;" d="M50,1c27,0,49,22,49,49S77.1,99,50,99S1,77,1,50S23,1,50,1"/>
		<path style="fill:#E8E8E8;" d="M50,0c27.6,0,50,22.4,50,50s-22.4,50-50,50S0,77.6,0,50S22.4,0,50,0"/>
		<path style="fill:#FFFFFF;" d="M50,1c27,0,49,22,49,49S77.1,99,50,99S1,77,1,50S23,1,50,1"/>
	</g>
	<g transform="translate(62 47)">
		<path style="fill-rule:evenodd;clip-rule:evenodd;" d="M-49.5,3.3l4.5-4.6c0.3-0.3,0.7-0.5,1.2-0.5c0.4,0,0.9,0.2,1.2,0.5l0.4,0.4
			l0.7-0.7L-41.9-2c-0.5-0.5-1.2-0.8-1.9-0.8c-0.7,0-1.4,0.3-1.9,0.8l-4.5,4.6L-49.5,3.3z M-43.4,0.3l-0.7-0.7l-4.6,4.6
			c-0.6,0.6-1.7,0.6-2.3,0c0,0,0,0,0,0c-0.6-0.6-0.6-1.7,0-2.3l3.9-4l-0.7-0.7l-3.9,4c-1,1-1,2.7,0,3.8c0.5,0.5,1.2,0.8,1.9,0.8
			c0.7,0,1.4-0.3,1.9-0.8L-43.4,0.3z M-38.9,1.1c-0.5-0.5-1.2-0.8-1.9-0.8c-0.7,0-1.4,0.3-1.9,0.8l-4.6,4.6l0.7,0.7l4.6-4.6
			c0.6-0.6,1.7-0.6,2.3,0c0,0,0,0,0,0c0.3,0.3,0.5,0.7,0.5,1.2c0,0.4-0.2,0.9-0.5,1.2l-3.9,4l0.7,0.7l3.9-4
			C-37.9,3.9-37.9,2.2-38.9,1.1 M-41.1,2.7l-4.5,4.6c-0.6,0.6-1.7,0.6-2.3,0c0,0,0,0,0,0l-0.4-0.4l-0.7,0.7l0.4,0.4
			c0.5,0.5,1.2,0.8,1.9,0.8c0.7,0,1.4-0.3,1.9-0.8l4.5-4.6L-41.1,2.7z M-33.9,4.2c0.1,0.3,0.2,0.5,0.4,0.7c0.2,0.2,0.5,0.2,0.9,0.2
			c0.3,0,0.6-0.1,0.8-0.2s0.3-0.4,0.3-0.6c0-0.1,0-0.2-0.1-0.3c-0.1-0.1-0.1-0.2-0.2-0.2c-0.1-0.1-0.2-0.1-0.3-0.2l-0.4-0.1
			l-0.4-0.1c-0.3-0.1-0.5-0.2-0.7-0.3c-0.2-0.1-0.4-0.2-0.5-0.4c-0.1-0.1-0.3-0.3-0.3-0.5c-0.1-0.2-0.1-0.4-0.1-0.6
			c0-0.2,0-0.5,0.1-0.7s0.2-0.4,0.4-0.5c0.2-0.1,0.4-0.3,0.6-0.3c0.3-0.1,0.5-0.1,0.8-0.1c0.6,0,1.1,0.1,1.4,0.4
			c0.3,0.3,0.5,0.7,0.6,1.1l-1,0.1C-31.7,1.3-31.8,1.1-32,1c-0.2-0.1-0.4-0.2-0.7-0.2c-0.3,0-0.5,0.1-0.7,0.2
			c-0.2,0.1-0.2,0.3-0.2,0.5c0,0.1,0,0.2,0.1,0.3c0,0.1,0.1,0.2,0.2,0.2c0.1,0.1,0.2,0.1,0.3,0.2c0.1,0,0.3,0.1,0.4,0.2l0.4,0.1
			c0.3,0.1,0.5,0.2,0.7,0.3S-31.1,3-31,3.1s0.3,0.3,0.3,0.4s0.1,0.4,0.1,0.6c0,0.3-0.1,0.5-0.2,0.7c-0.1,0.2-0.3,0.4-0.4,0.6
			c-0.2,0.2-0.4,0.3-0.7,0.4C-32.1,5.9-32.4,6-32.7,6c-0.6,0-1.1-0.1-1.5-0.4c-0.4-0.3-0.6-0.7-0.7-1.3L-33.9,4.2L-33.9,4.2z
			 M-26.4,0.9c-0.3,0-0.5,0.1-0.8,0.2c-0.2,0.1-0.4,0.3-0.6,0.4c-0.2,0.2-0.3,0.4-0.4,0.7c-0.1,0.3-0.1,0.5-0.1,0.9s0,0.6,0.1,0.9
			s0.2,0.5,0.4,0.7c0.2,0.2,0.4,0.3,0.6,0.5c0.2,0.1,0.5,0.2,0.8,0.2s0.5-0.1,0.8-0.2c0.2-0.1,0.4-0.3,0.6-0.4s0.3-0.4,0.4-0.7
			c0.1-0.3,0.1-0.6,0.1-0.9c0-0.3,0-0.6-0.1-0.9s-0.2-0.5-0.4-0.7s-0.4-0.3-0.6-0.4S-26.1,0.9-26.4,0.9 M-26.4,0
			c0.4,0,0.8,0.1,1.2,0.2c0.4,0.1,0.7,0.4,0.9,0.6c0.3,0.3,0.4,0.6,0.6,1c0.1,0.4,0.2,0.8,0.2,1.2c0,0.5-0.1,0.9-0.2,1.2
			c-0.1,0.4-0.4,0.7-0.6,1l0.8,0.9v0.3h-1l-0.5-0.7c-0.2,0.1-0.4,0.2-0.6,0.2c-0.2,0-0.4,0.1-0.7,0.1c-0.4,0-0.8-0.1-1.2-0.2
			c-0.4-0.1-0.7-0.4-0.9-0.6c-0.2-0.3-0.4-0.6-0.6-1s-0.2-0.8-0.2-1.2c0-0.4,0.1-0.8,0.2-1.2c0.1-0.4,0.3-0.7,0.6-1s0.6-0.5,0.9-0.6
			S-26.8,0-26.4,0 M-19.6,5.1c0.4,0,0.7-0.1,1-0.4s0.3-0.7,0.3-1.2V0h1v3.6c0,0.4-0.1,0.8-0.2,1.1c-0.1,0.3-0.3,0.5-0.5,0.7
			s-0.4,0.3-0.7,0.4c-0.3,0.1-0.6,0.1-1,0.1c-0.4,0-0.7,0-1-0.1c-0.3-0.1-0.5-0.2-0.7-0.4s-0.3-0.4-0.5-0.7
			c-0.1-0.3-0.2-0.7-0.2-1.1V0h1v3.6c0,0.5,0.1,0.9,0.3,1.2C-20.4,5-20,5.1-19.6,5.1 M-14.5,3.4h1.9l-0.3-0.9L-13.4,1h-0.3l-0.1,0.3
			l-0.1,0.3L-13.9,2l-0.2,0.5L-14.5,3.4L-14.5,3.4z M-16.3,5.6l2.1-5.5h1.5l2,5.5v0.3h-1l-0.6-1.6h-2.5l-0.6,1.6h-0.9V5.6z
			 M-8.4,2.8h0.9c0.4,0,0.7-0.1,0.9-0.2c0.2-0.1,0.3-0.4,0.3-0.7c0-0.3-0.1-0.5-0.3-0.7C-6.8,1.1-7.1,1-7.5,1h-0.9L-8.4,2.8
			L-8.4,2.8z M-5,5.9h-1l-1.8-2.3h-0.6v2.3h-1V0.1h1.9c0.3,0,0.6,0,0.8,0.1S-6.2,0.3-6,0.5c0.5,0.3,0.7,0.7,0.7,1.4
			c0,0.3,0,0.5-0.1,0.7S-5.6,2.9-5.7,3C-5.8,3.1-6,3.2-6.2,3.3c-0.2,0.1-0.3,0.1-0.5,0.2L-5,5.6V5.9z M-3.8,0.1H0V1h-2.7v1.5h2.6
			v0.9h-2.6V5H0v0.9h-3.8V0.1z M2.3,4.2c0.1,0.3,0.2,0.5,0.4,0.7C2.9,5,3.2,5.1,3.5,5.1c0.3,0,0.6-0.1,0.8-0.2s0.3-0.4,0.3-0.6
			c0-0.1,0-0.2-0.1-0.3S4.4,3.7,4.3,3.7C4.2,3.6,4.1,3.6,4,3.5L3.5,3.4L3.1,3.3C2.9,3.2,2.6,3.1,2.4,3C2.2,2.9,2.1,2.8,1.9,2.7
			C1.8,2.5,1.7,2.4,1.6,2.2C1.5,2,1.5,1.8,1.5,1.6c0-0.2,0-0.5,0.1-0.7C1.7,0.7,1.8,0.5,2,0.4S2.4,0.1,2.7,0s0.5-0.1,0.8-0.1
			c0.6,0,1.1,0.1,1.4,0.4C5.3,0.6,5.5,1,5.5,1.5l-1,0.1C4.5,1.3,4.4,1.1,4.2,1S3.8,0.8,3.5,0.8C3.2,0.8,3,0.8,2.8,1
			C2.6,1.1,2.5,1.3,2.5,1.5c0,0.1,0,0.2,0.1,0.3c0,0.1,0.1,0.2,0.2,0.2C2.9,2.1,3,2.2,3.2,2.2c0.1,0,0.3,0.1,0.4,0.2L4,2.5
			c0.3,0.1,0.5,0.2,0.7,0.3C4.9,2.8,5.1,3,5.2,3.1c0.1,0.1,0.3,0.3,0.3,0.4c0.1,0.2,0.1,0.4,0.1,0.6c0,0.3-0.1,0.5-0.2,0.7
			C5.4,5.1,5.2,5.3,5.1,5.5C4.9,5.6,4.6,5.8,4.4,5.9C4.1,5.9,3.8,6,3.5,6C2.9,6,2.4,5.8,2,5.6C1.6,5.3,1.4,4.9,1.3,4.3L2.3,4.2
			L2.3,4.2z M8.2,2.8h1c0.2,0,0.3,0,0.5,0c0.1,0,0.3-0.1,0.4-0.1c0.1-0.1,0.2-0.2,0.3-0.3c0.1-0.1,0.1-0.3,0.1-0.4
			c0-0.2,0-0.3-0.1-0.4c-0.1-0.1-0.1-0.2-0.3-0.3C9.9,1.1,9.8,1.1,9.7,1C9.5,1,9.3,1,9.2,1h-1L8.2,2.8L8.2,2.8z M7.2,0.1h2.1
			c0.4,0,0.7,0,1,0.1c0.3,0.1,0.5,0.2,0.7,0.4c0.2,0.2,0.3,0.3,0.4,0.6s0.1,0.4,0.1,0.7c0,0.3-0.1,0.6-0.1,0.8
			c-0.1,0.2-0.2,0.4-0.4,0.5c-0.2,0.1-0.4,0.3-0.7,0.3S9.6,3.7,9.2,3.7h-1v2.2h-1V0.1z M13.5,3.4h1.9l-0.3-0.9l-0.3-0.9L14.6,1h-0.3
			l-0.1,0.3l-0.1,0.3L14,2l-0.2,0.5L13.5,3.4L13.5,3.4z M11.6,5.6l2.1-5.5h1.5l2,5.5v0.3h-1l-0.6-1.6h-2.5l-0.6,1.6h-0.9V5.6z
			 M23.4,4.4C23.3,4.6,23.2,4.8,23,5c-0.2,0.2-0.3,0.4-0.5,0.5c-0.2,0.1-0.5,0.3-0.7,0.4C21.5,5.9,21.2,6,20.8,6
			c-0.4,0-0.8-0.1-1.2-0.2S19,5.4,18.7,5.1c-0.2-0.3-0.4-0.6-0.6-0.9S18,3.4,18,3s0.1-0.8,0.2-1.2s0.3-0.7,0.6-0.9s0.6-0.5,0.9-0.6
			C20,0.1,20.4,0,20.8,0c0.6,0,1.2,0.1,1.6,0.4s0.7,0.7,0.9,1.2l-1,0.2c-0.1-0.3-0.3-0.5-0.6-0.7c-0.2-0.2-0.6-0.3-0.9-0.3
			c-0.3,0-0.5,0.1-0.8,0.2c-0.2,0.1-0.4,0.3-0.6,0.5c-0.2,0.2-0.3,0.4-0.4,0.7C19.1,2.4,19,2.7,19,3c0,0.3,0,0.6,0.1,0.8
			c0.1,0.3,0.2,0.5,0.4,0.7c0.2,0.2,0.4,0.3,0.6,0.4c0.2,0.1,0.5,0.2,0.8,0.2c0.4,0,0.7-0.1,0.9-0.3c0.2-0.2,0.4-0.4,0.6-0.7
			L23.4,4.4z"/>
		<g transform="translate(671 25)">
			<defs>
				<filter id="Adobe_OpacityMaskFilter" filterUnits="userSpaceOnUse" x="-646.3" y="-24.9" width="3.8" height="5.8">
					<feColorMatrix  type="matrix" values="1 0 0 0 0  0 1 0 0 0  0 0 1 0 0  0 0 0 1 0"/>
				</filter>
			</defs>
			<mask maskUnits="userSpaceOnUse" x="-646.3" y="-24.9" width="3.8" height="5.8" id="B_2_">
				<g style="filter:url(#Adobe_OpacityMaskFilter);">
					<path id="A_2_" style="fill-rule:evenodd;clip-rule:evenodd;fill:#FFFFFF;" d="M-646.3-24.9h3.8v5.8h-3.8V-24.9z"/>
				</g>
			</mask>
			<path style="mask:url(#B_2_);fill-rule:evenodd;clip-rule:evenodd;" d="M-646.3-24.9h3.8v0.9h-2.8v1.5h2.6v0.9h-2.6v1.6h2.8v0.9
				h-3.8V-24.9z"/>
		</g>
	</g>
</g>
</svg>
