<?xml version="1.0" encoding="utf-8"?>
<!-- Generator: Adobe Illustrator 24.2.1, SVG Export Plug-In . SVG Version: 6.00 Build 0)  -->
<svg version="1.1" id="Layer_1" xmlns="http://www.w3.org/2000/svg" xmlns:xlink="http://www.w3.org/1999/xlink" x="0px" y="0px"
	 viewBox="0 0 1005.6 291.5" style="enable-background:new 0 0 1005.6 291.5;" xml:space="preserve">
<g>
	<path id="path10273" d="M272.1,0H20.8C9.5,0,0,9.5,0,20.8v249.9c0,11.4,9.5,20.8,20.8,20.8h251.3c11.4,0,20.8-9.5,20.8-20.8V20.8
		C292.9,9,283.5,0,272.1,0z M183.6,219.1c-25.6,25.6-66.3,26.5-93.2,3.3l-0.5-0.5c-1.4-1.4-1.9-4.3,0-6.2l90.9-90.4
		c1.9-1.4,4.3-1.4,6.2,0C210.6,152.9,209.6,193.6,183.6,219.1z M202.5,74.8l-90.9,90.4c-1.9,1.4-4.3,1.4-6.2,0
		c-23.7-27-22.7-67.7,2.8-93.2s66.3-26.5,93.2-3.3c0,0,0.5,0,0.5,0.5C204.4,70.5,204.4,73.4,202.5,74.8L202.5,74.8z"/>
	<path id="path10279" style="fill-rule:evenodd;clip-rule:evenodd;" d="M420.7,131.6c-12.8-5.2-20.8-8.5-20.8-16.1
		c0-6.2,4.7-11.8,15.6-11.8c6.6,0,12.3,2.8,16.6,8.5c2.8,3.3,5.7,5.2,9,5.2c6.6,0,11.8-5.2,11.8-11.4c0-2.4-0.5-4.7-1.9-6.2
		c-7.1-10.9-21.8-18.5-35.5-18.5c-18.9,0-38.3,11.8-38.3,34.5c0,23.2,18.9,30.8,34.5,36.4c12.3,4.7,23.2,9,23.2,18.9
		c0,7.6-7.1,15.1-20.3,15.1c-4.3,0-11.8-0.9-17-7.1c-2.8-3.3-6.2-4.7-9-4.7c-6.2,0-11.8,5.2-11.8,11.4c0,2.4,0.9,4.7,2.4,6.6
		c7.1,10.9,23.2,16.1,35.5,16.1c20.8,0,43.5-13.3,43.5-37.4C457.6,145.8,437.3,137.7,420.7,131.6L420.7,131.6z M890.1,80.9h-0.5
		c-22.7,0-40.7,18-40.7,40.2v140.1c0,6.2,5.2,11.4,11.4,11.4c6.2,0,11.4-5.2,11.4-11.4V203c4.3,3.8,11.4,5.7,18,5.7h0.5
		c22.7,0,39.8-19.4,39.8-41.6v-46.8C929.9,98,912.9,80.9,890.1,80.9L890.1,80.9z M908.1,168c0,12.3-8,17.5-17.5,17.5h-0.5
		c-9.9,0-17.5-5.2-17.5-17.5v-46.8c0-9.5,8-17.5,17.5-17.5h0.5c9.9,0,17.5,7.6,17.5,17.5V168z M680.5,80.9H680
		c-11.4,0-21.3,4.7-28.4,11.8c-7.1-7.1-17.5-11.8-28.4-11.8h-0.5c-21.8,0-39.8,17.5-39.8,39.8v77.1c0.5,6.2,5.2,10.9,11.4,10.9
		c6.2,0,10.9-4.7,11.4-10.9v-77.1c0-9.5,7.6-17,17-17h0.5c9.5,0,16.6,7.1,17,16.6v77.6c0.6,5.6,4.5,10.9,10.9,10.9
		c6.2,0,10.9-4.7,11.4-10.9v-78.1c0.5-9,8-16.6,17-16.6h0.5c9.5,0,17,7.6,17,17v77.6c0.5,6.2,5.2,10.9,11.4,10.9
		c6.2,0,10.9-4.7,11.4-10.9v-77.1C720.3,98.9,702.3,80.9,680.5,80.9z M546.1,80.9c-6.2,0-10.9,4.7-11.4,10.9v77.1
		c0,9.5-7.6,17-17.5,17h-0.5c-9.5,0-17.5-7.6-17.5-17V91.3c-0.5-6.2-5.2-10.9-11.4-10.9c-6.2,0-10.9,4.7-11.4,10.9v77.1
		c0,21.8,18,39.8,40.2,39.8h0.5c22.2,0,40.2-18,40.2-39.8V91.8C557.5,85.7,552.3,80.9,546.1,80.9L546.1,80.9z M814.9,80.9
		c-6.2,0-10.9,4.7-11.4,10.9v77.1c0,9.5-7.6,17-17.5,17h-0.5c-9.5,0-17.5-7.6-17.5-17V91.3c-0.5-6.2-5.2-10.9-11.4-10.9
		s-10.9,4.7-11.4,10.9v77.1c0,21.8,18,39.8,40.2,39.8h0.5c22.2,0,40.2-18,40.2-39.8V91.8C825.8,85.7,821.1,80.9,814.9,80.9
		L814.9,80.9z"/>
	<path id="path10283" d="M985.3,104.6c2.8-0.5,4.7-2.8,4.7-5.7c0-3.8-2.8-6.2-7.1-6.2h-5.7c-1.4,0-2.4,0.9-2.4,2.4v15.6
		c0,1.4,0.9,2.4,2.4,2.4c1.4,0,2.4-0.9,2.4-2.4v-5.7l5.7,7.1c0.5,0.9,0.9,0.9,2.4,0.9c1.9,0,2.4-1.4,2.4-2.4s-0.5-1.4-0.9-1.9
		L985.3,104.6z M983.4,101.3h-2.8v-4.7h2.8c1.4,0,2.4,0.9,2.4,2.4C985.7,99.9,984.8,101.3,983.4,101.3z M982.9,80.9
		c-12.3,0-22.7,9.9-22.7,22.7c0,12.3,9.9,22.7,22.7,22.7c12.3,0,22.7-9.9,22.7-22.7C1005.6,91.3,995.7,80.9,982.9,80.9z
		 M982.9,120.7c-9.5,0-17-7.6-17-17s7.6-17,17-17c9.5,0,17,7.6,17,17S992.4,120.7,982.9,120.7z"/>
</g>
</svg>
