<?xml version="1.0" encoding="utf-8"?>
<!-- Generator: Adobe Illustrator 24.2.1, SVG Export Plug-In . SVG Version: 6.00 Build 0)  -->
<svg version="1.1" id="Layer_1" xmlns="http://www.w3.org/2000/svg" xmlns:xlink="http://www.w3.org/1999/xlink" x="0px" y="0px"
	width="100px" height="100px" viewBox="0 0 100 100" style="enable-background:new 0 0 100 100;" xml:space="preserve">
<g>
	<g>
		<path style="fill:#E8E8E8;" d="M50,0c27.6,0,50,22.4,50,50s-22.4,50-50,50S0,77.6,0,50S22.4,0,50,0"/>
		<path style="fill:#FFFFFF;" d="M50,1c27,0,49,22,49,49S77.1,99,50,99S1,77,1,50S23,1,50,1"/>
		<path style="fill:#E8E8E8;" d="M50,0c27.6,0,50,22.4,50,50s-22.4,50-50,50S0,77.6,0,50S22.4,0,50,0"/>
		<path style="fill:#FFFFFF;" d="M50,1c27,0,49,22,49,49S77.1,99,50,99S1,77,1,50S23,1,50,1"/>
	</g>
	<g>
		<path id="path10273" d="M31.4,38.2H11.1c-0.9,0-1.7,0.8-1.7,1.7v20.2c0,0.9,0.8,1.7,1.7,1.7h20.3c0.9,0,1.7-0.8,1.7-1.7V39.9
			C33,39,32.3,38.2,31.4,38.2z M24.2,55.9c-2.1,2.1-5.4,2.1-7.5,0.3l0,0c-0.1-0.1-0.2-0.3,0-0.5l7.3-7.3c0.2-0.1,0.3-0.1,0.5,0
			C26.4,50.6,26.3,53.9,24.2,55.9z M25.7,44.3l-7.3,7.3c-0.2,0.1-0.3,0.1-0.5,0c-1.9-2.2-1.8-5.5,0.2-7.5c2.1-2.1,5.4-2.1,7.5-0.3
			c0,0,0,0,0,0C25.9,43.9,25.9,44.2,25.7,44.3L25.7,44.3z"/>
		<path id="path10279" style="fill-rule:evenodd;clip-rule:evenodd;" d="M43.4,48.9c-1-0.4-1.7-0.7-1.7-1.3c0-0.5,0.4-1,1.3-1
			c0.5,0,1,0.2,1.3,0.7c0.2,0.3,0.5,0.4,0.7,0.4c0.5,0,1-0.4,1-0.9c0-0.2,0-0.4-0.2-0.5c-0.6-0.9-1.8-1.5-2.9-1.5
			c-1.5,0-3.1,1-3.1,2.8c0,1.9,1.5,2.5,2.8,2.9c1,0.4,1.9,0.7,1.9,1.5c0,0.6-0.6,1.2-1.6,1.2c-0.3,0-1-0.1-1.4-0.6
			c-0.2-0.3-0.5-0.4-0.7-0.4c-0.5,0-1,0.4-1,0.9c0,0.2,0.1,0.4,0.2,0.5c0.6,0.9,1.9,1.3,2.9,1.3c1.7,0,3.5-1.1,3.5-3
			C46.3,50,44.7,49.4,43.4,48.9L43.4,48.9z M81.3,44.8L81.3,44.8c-1.9,0-3.3,1.5-3.3,3.2v11.3c0,0.5,0.4,0.9,0.9,0.9
			c0.5,0,0.9-0.4,0.9-0.9v-4.7c0.3,0.3,0.9,0.5,1.5,0.5h0c1.8,0,3.2-1.6,3.2-3.4v-3.8C84.5,46.1,83.1,44.8,81.3,44.8L81.3,44.8z
			 M82.7,51.8c0,1-0.6,1.4-1.4,1.4h0c-0.8,0-1.4-0.4-1.4-1.4V48c0-0.8,0.6-1.4,1.4-1.4h0c0.8,0,1.4,0.6,1.4,1.4V51.8z M64.4,44.8
			L64.4,44.8c-1,0-1.8,0.4-2.3,1c-0.6-0.6-1.4-1-2.3-1h0c-1.8,0-3.2,1.4-3.2,3.2v6.2c0,0.5,0.4,0.9,0.9,0.9s0.9-0.4,0.9-0.9V48
			c0-0.8,0.6-1.4,1.4-1.4h0c0.8,0,1.3,0.6,1.4,1.3v6.3c0,0.5,0.4,0.9,0.9,0.9c0.5,0,0.9-0.4,0.9-0.9v-6.3c0-0.7,0.6-1.3,1.4-1.3h0
			c0.8,0,1.4,0.6,1.4,1.4v6.3c0,0.5,0.4,0.9,0.9,0.9s0.9-0.4,0.9-0.9V48C67.6,46.2,66.1,44.8,64.4,44.8z M53.5,44.8
			c-0.5,0-0.9,0.4-0.9,0.9v6.2c0,0.8-0.6,1.4-1.4,1.4h0c-0.8,0-1.4-0.6-1.4-1.4v-6.3c0-0.5-0.4-0.9-0.9-0.9s-0.9,0.4-0.9,0.9v6.2
			c0,1.8,1.5,3.2,3.2,3.2h0c1.8,0,3.2-1.5,3.2-3.2v-6.2C54.4,45.1,54,44.8,53.5,44.8L53.5,44.8z M75.2,44.8c-0.5,0-0.9,0.4-0.9,0.9
			v6.2c0,0.8-0.6,1.4-1.4,1.4h0c-0.8,0-1.4-0.6-1.4-1.4v-6.3c0-0.5-0.4-0.9-0.9-0.9s-0.9,0.4-0.9,0.9v6.2c0,1.8,1.5,3.2,3.2,3.2h0
			c1.8,0,3.2-1.5,3.2-3.2v-6.2C76.1,45.1,75.7,44.8,75.2,44.8L75.2,44.8z"/>
		<path id="path10283" d="M89,46.7c0.2,0,0.4-0.2,0.4-0.5c0-0.3-0.2-0.5-0.6-0.5h-0.5c-0.1,0-0.2,0.1-0.2,0.2v1.3
			c0,0.1,0.1,0.2,0.2,0.2c0.1,0,0.2-0.1,0.2-0.2v-0.5l0.5,0.6c0,0.1,0.1,0.1,0.2,0.1c0.2,0,0.2-0.1,0.2-0.2c0-0.1,0-0.1-0.1-0.2
			L89,46.7z M88.8,46.4h-0.2V46h0.2c0.1,0,0.2,0.1,0.2,0.2C89,46.3,88.9,46.4,88.8,46.4z M88.8,44.8c-1,0-1.8,0.8-1.8,1.8
			c0,1,0.8,1.8,1.8,1.8c1,0,1.8-0.8,1.8-1.8C90.6,45.6,89.8,44.8,88.8,44.8z M88.8,48c-0.8,0-1.4-0.6-1.4-1.4s0.6-1.4,1.4-1.4
			s1.4,0.6,1.4,1.4S89.6,48,88.8,48z"/>
	</g>
</g>
</svg>
