<?xml version="1.0" encoding="utf-8"?>
<!-- Generator: Adobe Illustrator 24.2.1, SVG Export Plug-In . SVG Version: 6.00 Build 0)  -->
<svg version="1.1" id="Layer_1" xmlns="http://www.w3.org/2000/svg" xmlns:xlink="http://www.w3.org/1999/xlink" x="0px" y="0px"
	width="100px" height="100px" viewBox="0 0 100 100" style="enable-background:new 0 0 100 100;" xml:space="preserve">
<g>
	<g>
		<path style="fill:#E8E8E8;" d="M50,0c27.6,0,50,22.4,50,50s-22.4,50-50,50S0,77.6,0,50S22.4,0,50,0"/>
		<path style="fill:#FFFFFF;" d="M50,1c27,0,49,22,49,49S77.1,99,50,99S1,77,1,50S23,1,50,1"/>
		<path style="fill:#E8E8E8;" d="M50,0c27.6,0,50,22.4,50,50s-22.4,50-50,50S0,77.6,0,50S22.4,0,50,0"/>
		<path style="fill:#FFFFFF;" d="M50,1c27,0,49,22,49,49S77.1,99,50,99S1,77,1,50S23,1,50,1"/>
	</g>
	<g>
		<path style="fill:#2B0F56;" d="M60.5,47.2c-9-2.6-18.3-5.2-18.3-14.2c0-0.1-0.1-0.1-0.1-0.1c0,0-0.1,0-0.1,0.1
			c-0.9,6.4,0.9,11,5.4,14.2c3.9,2.8,9.4,4.1,14.7,5.4c5.7,1.4,11,2.7,13.9,5.6c0,0,0.1,0,0.1,0h0.1c0,0,0.1-0.1,0.1-0.1
			C76.2,51.7,68.6,49.5,60.5,47.2"/>
		<path style="fill:#3DB5E6;" d="M71.3,58.1c-1.1-1.2-4.9-2-9.7-3.1c-10.2-2.3-24.3-5.5-24.3-14.2c0-0.1-0.1-0.1-0.1-0.1
			c-0.1,0-0.1,0-0.1,0.1c-0.5,5.8,2.2,9.9,8.3,12.5c5.2,2.2,12,3,17.5,3.6c3.4,0.4,6.4,0.7,8.2,1.3h0c0,0,0.1,0,0.1-0.1
			C71.4,58.2,71.4,58.1,71.3,58.1"/>
		<path style="fill:#2B0F56;" d="M47.7,57.2c-7.6-1.3-11.4-3.7-14.2-8.8c0,0-0.1-0.1-0.1-0.1c-0.1,0-0.1,0.1-0.1,0.1
			c0,2.6,0.8,4.7,2.3,6.2c2.6,2.5,6.8,2.9,9.7,2.9c0.6,0,1.1,0,1.6,0h0.8c0.1,0,0.1,0,0.1-0.1C47.8,57.3,47.8,57.3,47.7,57.2"/>
		<path style="fill:#2B0F56;" d="M29.6,61.3c-0.4-0.5-0.9-0.9-1.5-1.2c-0.6-0.3-1.2-0.4-1.8-0.4c-0.3,0-0.6,0-0.9,0.1
			c-0.3,0-0.6,0.2-0.8,0.3c-0.2,0.1-0.4,0.3-0.6,0.6c-0.2,0.3-0.3,0.6-0.2,0.9c0,0.3,0.1,0.5,0.2,0.8c0.2,0.2,0.4,0.4,0.6,0.5
			c0.3,0.2,0.6,0.3,0.9,0.4c0.4,0.1,0.7,0.3,1.2,0.4c0.6,0.2,1.3,0.4,1.9,0.7c0.7,0.2,1.3,0.6,1.8,1c0.6,0.4,1,0.9,1.4,1.6
			c0.4,0.7,0.6,1.5,0.5,2.3c0,0.9-0.2,1.9-0.6,2.7c-0.4,0.7-0.9,1.4-1.6,1.9c-0.7,0.5-1.4,0.9-2.3,1.1c-0.9,0.3-1.8,0.4-2.7,0.4
			c-1.3,0-2.6-0.2-3.8-0.7c-1.2-0.4-2.2-1.1-3.1-2l2.9-3c0.5,0.6,1.1,1,1.8,1.4c0.7,0.4,1.4,0.6,2.2,0.6c0.3,0,0.6,0,1-0.1
			c0.3-0.1,0.6-0.2,0.8-0.3c0.2-0.2,0.4-0.4,0.6-0.6c0.1-0.3,0.2-0.6,0.2-0.9c0-0.3-0.1-0.6-0.3-0.9c-0.2-0.3-0.5-0.5-0.7-0.7
			c-0.4-0.2-0.8-0.4-1.2-0.5c-0.5-0.2-1-0.3-1.6-0.5c-0.6-0.2-1.2-0.4-1.7-0.7c-0.6-0.3-1.1-0.6-1.5-1c-0.4-0.4-0.8-0.9-1.1-1.5
			c-0.3-0.7-0.4-1.4-0.4-2.1c0-0.9,0.2-1.8,0.6-2.6c0.4-0.7,1-1.3,1.6-1.8c0.7-0.5,1.5-0.8,2.3-1c0.8-0.2,1.7-0.3,2.6-0.3
			c1.1,0,2.2,0.2,3.2,0.6c1.1,0.4,2,0.9,2.8,1.7L29.6,61.3z"/>
		<polygon style="fill:#2B0F56;" points="50,74.9 45.7,74.9 43.2,66.8 43.1,66.8 40.6,74.9 36.3,74.9 31.9,61.9 36.5,61.9 
			38.7,70.1 38.8,70.1 41.1,61.9 45.4,61.9 47.8,70.1 47.8,70.1 50.1,61.9 54.5,61.9 		"/>
		<path style="fill:#2B0F56;" d="M62.8,69.2h-0.5c-0.5,0-0.9,0-1.4,0.1c-0.4,0-0.9,0.1-1.3,0.2c-0.3,0.1-0.7,0.3-0.9,0.5
			c-0.2,0.2-0.4,0.6-0.4,0.9c0,0.2,0.1,0.4,0.2,0.6c0.1,0.2,0.3,0.3,0.4,0.4c0.2,0.1,0.4,0.2,0.6,0.2c0.2,0,0.4,0.1,0.6,0.1
			c0.7,0.1,1.5-0.2,2-0.7c0.5-0.5,0.7-1.2,0.7-1.9L62.8,69.2z M54.9,63.7c0.8-0.7,1.7-1.3,2.7-1.6c1-0.4,2-0.5,3.1-0.5
			c0.9,0,1.9,0.1,2.7,0.4c0.7,0.2,1.3,0.7,1.8,1.3c0.5,0.6,0.8,1.4,1,2.1c0.2,1,0.3,2,0.3,3.1v6.5h-3.9v-1.4h-0.1
			c-0.4,0.6-0.9,1-1.5,1.2c-0.7,0.3-1.4,0.5-2.2,0.4c-0.5,0-1.1-0.1-1.6-0.2c-0.5-0.1-1.1-0.4-1.5-0.7c-0.5-0.3-0.8-0.7-1.1-1.2
			c-0.3-0.6-0.5-1.3-0.4-1.9c0-0.8,0.2-1.6,0.8-2.3c0.5-0.6,1.2-1,2-1.3c0.9-0.3,1.8-0.5,2.7-0.6c1-0.1,1.9-0.2,2.9-0.2v-0.2
			c0-0.6-0.2-1.1-0.7-1.4c-0.5-0.3-1.1-0.5-1.7-0.4c-0.6,0-1.2,0.1-1.8,0.4c-0.5,0.2-1,0.6-1.4,0.9L54.9,63.7z"/>
		<path style="fill:#2B0F56;" d="M77.3,74.9v-7.1c0-0.3,0-0.7-0.1-1c-0.1-0.3-0.2-0.6-0.3-0.9c-0.1-0.2-0.3-0.5-0.6-0.6
			c-0.3-0.2-0.6-0.2-1-0.2c-0.3,0-0.7,0.1-1,0.2c-0.3,0.1-0.5,0.4-0.7,0.6c-0.2,0.3-0.3,0.6-0.4,0.9c-0.1,0.3-0.1,0.7-0.1,1.1v7
			h-4.3V61.9H73v1.8h0c0.2-0.3,0.4-0.6,0.6-0.8c0.3-0.3,0.6-0.5,0.9-0.7c0.4-0.2,0.7-0.4,1.1-0.5c0.4-0.1,0.8-0.2,1.3-0.2
			c0.8,0,1.5,0.1,2.2,0.5c0.6,0.3,1.1,0.7,1.5,1.2c0.4,0.5,0.7,1.1,0.8,1.7c0.2,0.6,0.2,1.3,0.2,1.9v8H77.3z"/>
		<path style="fill:#2B0F56;" d="M64.3,38.7c-4.6-1.7-8.3-3-8.3-6.2c0-1.2,1-2.4,3-2.4c2,0,4.5,1.1,6,1.7c0.5,0.2,0.9,0.4,1.1,0.5
			c1,0.3,2.2,0.2,3.1-0.3c0,0,0.1-0.1,0.1-0.1c0-0.1-0.1-0.1-0.1-0.1c-1.3-0.1-2.5-0.8-3.3-1.8c-0.1-0.1-0.3-0.3-0.5-0.5
			c-1.3-1.6-4.1-4.8-8.1-4.8c-8.5,0-8.6,7.5-8.6,7.9c0,7,6.9,9.3,14.2,11.8c7.8,2.6,15.8,5.3,16.9,13.9c0,0,0,0,0,0
			c0,0,0.1,0.1,0.1,0.1l0,0c0.1,0,0.1,0,0.1-0.1c0,0,0,0,0-0.1C81.1,44.8,71.8,41.4,64.3,38.7"/>
	</g>
</g>
</svg>
