<svg xmlns="http://www.w3.org/2000/svg" width="454.241" height="345" viewBox="0 0 454.241 345">
  <g id="Group_12496" data-name="Group 12496" transform="translate(960.864 556.996)">
    <g id="Group_12494" data-name="Group 12494" transform="translate(-960.864 -556.996)">
      <path id="Path_16981" data-name="Path 16981" d="M-862.082-556.977q.015,45.763.01,91.525c.356,9.664-2.287,19.883-8.3,27.587a36.208,36.208,0,0,1-23.587,13.655,49.25,49.25,0,0,1-11.952-.01,35.685,35.685,0,0,1-24.518-14.833,40.881,40.881,0,0,1-7.06-23.428q.03-47.248,0-94.506-11.675-.015-23.359,0-.015,47.753.01,95.516c-.02,15.368,5.466,30.568,16.368,41.559,15.1,15.358,39.094,20.081,59.423,14.041a56.642,56.642,0,0,0,23.161-13.784c.03,4.515.02,9.041.01,13.556,7.743.02,15.477.01,23.221.01q0-75.454-.01-150.9C-846.467-556.987-854.28-557-862.082-556.977Z" transform="translate(960.864 556.996)"/>
      <path id="Path_16982" data-name="Path 16982" d="M-716.612-501.822c-16.556-16.19-42.658-21.24-63.987-12.09a56.859,56.859,0,0,0-17.586,11.823c.168-18.3.03-36.6.069-54.9-7.417,0-14.833-.03-22.26.02v150.839c7.387.089,14.774.03,22.161.04.01-4.456-.03-8.912.04-13.358a56.763,56.763,0,0,0,39.252,16.071A59.848,59.848,0,0,0-722.909-414.6a56.942,56.942,0,0,0,22.111-33A56.907,56.907,0,0,0-716.612-501.822Zm-5.922,50.2A38.553,38.553,0,0,1-754.913-423c-6.12.307-12.041.4-17.844-1.862-15.338-5.179-26.29-20.329-25.666-36.628-.02-18.5,14.784-34.727,33.063-36.935,11.546-2.01,24.428,2.386,32.687,10.684A37.8,37.8,0,0,1-722.533-451.619Z" transform="translate(959.489 556.996)"/>
      <path id="Path_16983" data-name="Path 16983" d="M-597.751-507.133c-18.329-13.576-45.223-14.13-64.473-2.129a57.176,57.176,0,0,0-26.835,43.183,59.231,59.231,0,0,0,2.921,24.607,55.7,55.7,0,0,0,27.122,31.251,64.832,64.832,0,0,0,51.669,3.179,59.925,59.925,0,0,0,26.379-19.715c-5.417-3.921-10.853-7.823-16.269-11.754-6.516,8.635-15.853,14.6-26.686,15.873-6.426.317-12.605.505-18.7-1.941-12.744-4.5-21.587-15.725-24.211-28.845q45.688-.045,91.367-.01c0-7.031.287-13.873-1.317-20.775A55.127,55.127,0,0,0-597.751-507.133Zm-68.463,36.371a36.625,36.625,0,0,1,12.952-20.676,36.06,36.06,0,0,1,22.359-7.387,35.728,35.728,0,0,1,20.814,7.971c6.347,5.139,10.17,12.259,12.229,20.072C-620.644-470.732-643.429-470.782-666.214-470.762Z" transform="translate(958.206 556.612)"/>
      <path id="Path_16984" data-name="Path 16984" d="M-526.832-513.715c-5.446,2.3-9.387,6.347-12.843,11.021q.015-6.491,0-12.982-11.08-.015-22.181,0-.015,54.986,0,109.973c7.456,0,14.913.059,22.369-.04q0-32.128-.01-64.265c.208-9.308,4.773-18.923,13.289-23.329,6.882-3.624,13.487-2.733,20.943-2.832.01-6.793,0-13.576.01-20.369C-512.841-516.6-519.752-516.983-526.832-513.715Z" transform="translate(956.959 556.6)"/>
    </g>
    <g id="Group_12495" data-name="Group 12495" transform="translate(-960.858 -365.912)">
      <path id="Path_16985" data-name="Path 16985" d="M-931.575-238.726c-.089-12.487-.03-24.973-.03-37.46q38.5,0,76.989-.01.015-12.477.01-24.963-38.5-.045-77.009-.01,0-18.448.01-36.875,39.495-.03,78.979-.02.03-12.967.01-25.934-54.11-.074-108.22-.02-.059,75.543-.02,151.116,54.125.059,108.24,0c-.01-8.635.04-17.269-.03-25.9C-878.956-238.8-905.266-238.953-931.575-238.726Z" transform="translate(960.857 364.023)" fill="#5fb709"/>
      <path id="Path_16986" data-name="Path 16986" d="M-621.369-299.211q0-12.625-.01-25.24c-10.833-.01-21.666.01-32.5-.01-.03-10.615.01-21.22-.02-31.835q-14.408,0-28.815.01c-.04,10.605,0,21.21-.01,31.815-7.318.069-14.635-.049-21.943.069.03,8.4-.01,16.794.02,25.191,7.308.02,14.606-.01,21.913.01q.015,30.256,0,60.492a24.875,24.875,0,0,0,13,21.864,37.952,37.952,0,0,0,18.873,4.05c9.833-.04,19.656.01,29.488-.03q0-12.744-.01-25.5c-7.516-.069-15.041.109-22.547-.079-3.426-.03-7.11-1.129-8.8-4.357-1.564-2.822-1.109-5.7-1.178-8.823.04-15.873,0-31.746.02-47.609C-643.045-299.221-632.212-299.182-621.369-299.211Z" transform="translate(958.35 363.947)" fill="#5fb709"/>
      <path id="Path_16987" data-name="Path 16987" d="M-747.093-314.392a56.34,56.34,0,0,0-28.9-12.13c-18.279-2.268-37.38,3.763-50.511,16.784-16.487,15.744-21.844,40.965-13.566,62.156A58.905,58.905,0,0,0-806.347-214a62.97,62.97,0,0,0,37.281,2.555A57.933,57.933,0,0,0-747.044-222.4c-.04,3.288-.04,6.575-.03,9.863q14.526.045,29.063.01.015-55.818,0-111.627c-9.684-.02-19.378,0-29.063-.01Q-747.073-319.278-747.093-314.392Zm-14.061,73.969a35.431,35.431,0,0,1-26.964,5.278,34.838,34.838,0,0,1-21-13.714,33.829,33.829,0,0,1-5.545-26.211,34.23,34.23,0,0,1,25.24-26.25c12.348-2.971,25.864.713,34.341,10.308a34.577,34.577,0,0,1,8.694,21.894A34.164,34.164,0,0,1-761.154-240.423Z" transform="translate(959.713 363.66)" fill="#5fb709"/>
      <path id="Path_16988" data-name="Path 16988" d="M-505.814-258.782c-3.733-7.407-10.754-12.328-18.24-15.437-9.664-4.04-19.062-4.971-29.32-7.238-6.436-1.475-13.259-2.218-19.5-4.337-2.713-1-5.634-2.119-7.08-4.822a8.2,8.2,0,0,1,2.307-9.159c3.614-3.179,9.179-4.08,13.833-4.337,7.258-.257,15.507.208,21.745,4.357,4.189,2.723,6.268,6.951,7.546,11.635h28.785c-.515-10.15-4.664-19.963-12.4-26.7-11.13-9.605-25.528-11.783-39.737-12.219-13.3.089-27.37,1.683-38.688,9.288A30.653,30.653,0,0,0-609.925-297.8c-.941,7.337-.743,14.467,3.4,20.864,5.674,9.09,17.18,13.774,27.132,16.348,12.1,2.842,24.25,5.506,36.38,8.248,3.119.782,7.209,2.01,9.189,4.723,2.476,4.05.426,8.734-3.278,11.14-5.793,3.832-14.041,4.02-20.755,3.783-7.031-.267-14.883-1.317-20.23-6.337-2.941-2.6-4.367-5.961-5.714-9.565q-14.541-.045-29.082,0c1.871,9.843,6.149,19.012,13.823,25.637,8.219,7.189,18.636,10.744,29.31,12.219,6.991,1.188,13.724.951,20.824.842,10.952-.753,21.834-3.129,31.063-9.348a32.384,32.384,0,0,0,14.17-21.121C-502.844-246.562-502.893-253.1-505.814-258.782Z" transform="translate(957.451 363.661)" fill="#5fb709"/>
    </g>
  </g>
</svg>
