<?xml version="1.0" encoding="utf-8"?>
<!-- Generator: Adobe Illustrator 25.0.0, SVG Export Plug-In . SVG Version: 6.00 Build 0)  -->
<svg version="1.1" id="Layer_1" xmlns="http://www.w3.org/2000/svg" xmlns:xlink="http://www.w3.org/1999/xlink" x="0px" y="0px"
	 viewBox="0 0 1247.7 520.3" style="enable-background:new 0 0 1247.7 520.3;" xml:space="preserve">
<style type="text/css">
	.st0{fill:none;}
</style>
<g>
	<path class="st0" d="M2272.4,42.5"/>
</g>
<g>
	<path class="st0" d="M1639.4,42.5"/>
</g>
<g>
	<g id="XMLID_2_">
		<g id="XMLID_1353_">
			<g id="XMLID_1360_">
				<path id="XMLID_1361_" d="M223.7,322.5c-61.7,0-111.9-50.2-111.9-111.9S162,98.8,223.7,98.8c61.7,0,111.9,50.2,111.9,111.9
					S285.4,322.5,223.7,322.5z M223.7,106.9c-57.2,0-103.7,46.5-103.7,103.7s46.5,103.7,103.7,103.7s103.7-46.5,103.7-103.7
					S280.9,106.9,223.7,106.9z"/>
			</g>
			<g id="XMLID_1358_">
				<path id="XMLID_1359_" d="M201.7,277.9v-3.8c0,0,12.9-2.3,14.9-2.7c2.9-0.7,3.3-2.7,3.3-4.6v-20.3h6.5v20.3c0,2,0.5,3.9,3.3,4.6
					c1.9,0.5,14.9,2.7,14.9,2.7v3.8H201.7z"/>
			</g>
			<g id="XMLID_1356_">
				<path id="XMLID_1357_" d="M207.1,240.7c-13.7,0-17.3,0-17.3,0c-1.2-2.5-1.8-9.5-1.8-9.5c-0.4-4.5-2-7.1-9.9-6
					c-8.2,1.1-19.6,3.5-25.6,3.9c-5.8,0.5-11.6-1.7-11.6-7.6V217c0-1.9,1.5-3.4,3.4-3.4h42.9h9.6c0,0,23.9,0,55.5,0
					c43.1,0,53.2,4.6,53.2,4.6C287.7,233,248.3,240.7,207.1,240.7z"/>
			</g>
			<g id="XMLID_1354_">
				<path id="XMLID_1355_" d="M226.4,207.9v-2.2c0-2.7,1.7-4.3,4-6c2.9-2.1,7.8-5,10-6.8c5.8-4.9,9.7-10.9,9.7-19.1
					c0-14.1-7.2-33.3-7.2-33.3h-39.5c0,0-7.2,19.2-7.2,33.3c0,8.2,3.9,14.2,9.7,19.1c2.2,1.8,7.1,4.7,10,6.8c2.3,1.7,4,3.3,4,6v2.2
					H226.4z"/>
			</g>
		</g>
		<g id="XMLID_557_">
			<path id="XMLID_1351_" d="M408.7,233.7v-76.3l-19.2-8.2v-8.9h66v8.9l-19.8,8.2v70.5c0,26.1,11.6,35.7,35.2,35.7
				c10.7,0,20.7-3.3,26.3-9c6.7-6.7,8.6-16.1,8.6-31.3v-65.9l-20.3-8.2v-8.9h51.9v8.9l-18.6,8.2v75.9c0,25.5-16.5,47.8-53.4,47.8
				C427.7,281.2,408.7,262.4,408.7,233.7z"/>
			<path id="XMLID_1348_" d="M613.1,227.7c0-21.9-8.1-32.6-20.5-32.6c-12.1,0-23,14.8-23,35.1c0,18.4,7.5,32.8,23,32.8
				C606,263,613.1,250.7,613.1,227.7z M531.6,302l14.8-8.2v-95.9l-14.8-8.2v-8.6h38v22.6c6.7-16.3,18.2-24.2,32.4-24.2
				c10.2,0,18.4,3.8,24.6,10c8.8,8.8,12.7,22.6,12.7,38.4c0,16.5-5,30.5-13.8,39.3c-6.7,6.7-15.2,10.7-24.6,10.7
				c-14.4,0-24.6-7.3-30.3-17.1v33.1l19.2,8.2v8.6h-58.3V302z"/>
			<path id="XMLID_1346_" d="M653.2,243.6h11.5c4.1,14.5,18.1,25.4,31.9,25.4c12,0,16.6-5.4,16.6-12.3c0-7.9-5.9-12.4-25.1-17.9
				c-23.1-6.6-33.4-13.6-33.4-29.6c0-16.3,13.6-29.7,34.3-29.7c11.9,0,20.9,5.9,26.4,12.3l4.3-12.3h9.9v33.2h-11.8
				c-4.4-12.5-15.2-21.5-27.3-21.5c-7.5,0-14.1,4-14.1,11.1c0,6.6,6.7,11.5,24.2,16.1c21.9,5.8,34,12.9,34,30.5
				c0,15.5-12.9,31.1-35.5,31.1c-13.2,0-24.5-5.6-31.6-13.4l-4.4,13.2h-9.9V243.6z"/>
			<path id="XMLID_1344_" d="M845.4,269.2L860,261v-63.1l-14.6-8.2v-8.6h38v23.6c5.2-16.9,17.3-25.1,29.2-25.1
				c11.3,0,18,8.1,18,17.5c0,8.6-6.1,15.5-14.2,15.5c-8.1,0-14.4-4.8-14.4-13.4c0-0.8,0.2-1.9,0.4-2.7c-7.7,0-14.4,8.8-18,20.9V261
				l18.2,8.2v8.6h-57.2V269.2z"/>
			<path id="XMLID_1342_" d="M951.8,197.9l-13.7-8.2v-8.6h55.1v8.6l-15.1,8.2l21,60.5h0.8l21.4-60.5l-15-8.2v-8.6h42.7v8.9
				l-15.6,8.2l-31.4,79.5h-19.3L951.8,197.9z"/>
			<path id="XMLID_1339_" d="M771.8,221.5h42.3c0.3-16.8-6.4-29.7-19.6-29.7C782.6,191.8,772.5,202,771.8,221.5z M772.3,231.9
				c0.8,23.6,11.2,35.2,28.5,35.2c15.3,0,23.8-11,26.2-19.4h10.3c-4.8,20.5-18.1,32.2-41.9,32.2c-30.5,0-48.5-20.9-48.5-49.3
				c0-29.2,19.2-51.2,47.4-51.2c30.5,0,44.6,24.4,43.6,52.4H772.3z"/>
			<path id="XMLID_558_" d="M1069.8,221.5h42.3c0.3-16.8-6.4-29.7-19.6-29.7C1080.6,191.8,1070.5,202,1069.8,221.5z M1070.2,231.9
				c0.8,23.6,11.2,35.2,28.5,35.2c15.3,0,23.8-11,26.2-19.4h10.3c-4.8,20.5-18.1,32.2-41.9,32.2c-30.5,0-48.5-20.9-48.5-49.3
				c0-29.2,19.2-51.2,47.4-51.2c30.5,0,44.6,24.4,43.6,52.4H1070.2z"/>
		</g>
	</g>
	<g>
		<path d="M415.9,364.7c1.7-2.7,3.8-4.8,6.4-6.2c2.6-1.4,5.5-2.2,8.6-2.2c3.2,0,6.1,0.6,8.7,1.8c2.6,1.2,4.8,2.9,6.6,5.1
			c1.8,2.2,3.2,4.8,4.2,7.9c1,3.1,1.5,6.5,1.5,10.2c0,3.4-0.5,6.7-1.4,9.7c-1,3-2.3,5.7-4.1,7.9c-1.8,2.3-4,4-6.5,5.3
			c-2.5,1.3-5.4,1.9-8.5,1.9c-3.9,0-7.1-0.8-9.6-2.2c-2.5-1.5-4.4-3.4-5.7-5.7v7h-7.5V341h7.5V364.7z M429.6,362.8
			c-4.2,0-7.5,1.6-10.1,4.8c-2.6,3.2-3.9,7.9-3.9,14c0,3.1,0.4,5.7,1.1,8c0.7,2.3,1.7,4.2,3,5.7c1.3,1.5,2.7,2.6,4.4,3.3
			c1.7,0.7,3.5,1.1,5.5,1.1c4.3,0,7.8-1.7,10.5-5c2.6-3.3,3.9-7.8,3.9-13.4c0-5.7-1.2-10.3-3.6-13.6
			C438,364.5,434.4,362.8,429.6,362.8z"/>
		<path d="M482.5,407.8c-0.7,2-1.4,3.9-2.2,5.5c-0.8,1.7-1.8,3.1-3,4.4c-1.2,1.2-2.7,2.2-4.4,2.8s-3.9,1-6.4,1
			c-2.1,0-3.9-0.2-5.3-0.5v-5.9c0.9,0.1,1.5,0.2,2,0.2h1.9c1.8,0,3.2-0.2,4.4-0.6c1.2-0.4,2.1-1.1,2.9-1.9c0.8-0.8,1.4-1.9,1.9-3.2
			c0.5-1.3,1-2.8,1.5-4.4h-2.5l-16.9-47.8h8.2l13.9,41.9l12.6-41.9h7.8L482.5,407.8z"/>
		<path d="M536.4,398.2h29.9v7l-37.5,0V341h7.6V398.2z"/>
		<path d="M578.6,339.7c1.3,0,2.5,0.5,3.5,1.4c1,0.9,1.5,2.1,1.5,3.4c0,1.4-0.5,2.6-1.5,3.5c-1,0.9-2.1,1.4-3.5,1.4
			c-1.4,0-2.6-0.5-3.6-1.4c-1-0.9-1.5-2.1-1.5-3.5c0-1.3,0.5-2.5,1.5-3.4C576.1,340.2,577.2,339.7,578.6,339.7z M582.4,405.2h-7.5
			v-47.8h7.5V405.2z"/>
		<path d="M636.8,361c-1.8,0-3.3,0.1-4.5,0.4c-1.2,0.3-2.3,0.8-3.3,1.5c1,1.3,1.8,2.7,2.3,4.3c0.5,1.6,0.8,3.2,0.8,4.9
			c0,2.3-0.5,4.4-1.4,6.2c-0.9,1.8-2.2,3.4-3.9,4.7c-1.7,1.3-3.7,2.3-6.1,3c-2.4,0.7-5,1.1-8,1.1c-1.8,0-3.5-0.2-5.2-0.5
			c-1.7-0.3-3.3-0.8-4.8-1.5c-0.6,0.6-1.1,1.3-1.5,2c-0.4,0.7-0.6,1.4-0.6,2.1c0,1.6,0.5,2.8,1.5,3.6c1,0.8,2.7,1.2,5,1.2h10
			c3.4,0,6.3,0.4,8.7,1.1c2.4,0.7,4.3,1.7,5.8,2.8c1.5,1.2,2.5,2.6,3.2,4.3c0.7,1.7,1,3.4,1,5.2c0,4.3-2,7.7-5.9,10.3
			c-3.9,2.6-9.4,3.9-16.4,3.9c-4,0-7.4-0.3-10.1-1c-2.8-0.7-5-1.6-6.7-2.8c-1.7-1.2-3-2.5-3.7-4.1c-0.8-1.6-1.1-3.3-1.1-5.1
			c0-4.3,2.5-7.7,7.4-10.1c-3.5-1.7-5.2-4.3-5.2-7.8c0-2.9,1.6-5.5,4.9-7.8c-1.7-1.3-3.1-2.8-4-4.6c-1-1.8-1.5-3.9-1.5-6.2
			c0-2.1,0.4-4.1,1.2-6c0.8-1.9,2-3.6,3.6-5c1.6-1.4,3.6-2.6,6-3.4c2.4-0.9,5.2-1.3,8.3-1.3c2.6,0,4.9,0.3,6.9,0.8
			c2,0.5,3.8,1.2,5.4,2.2c2.5-3.4,6.5-5,11.9-5V361z M604.6,400.1c-2.3,1.2-3.8,2.4-4.6,3.7c-0.8,1.2-1.2,2.5-1.2,3.9
			c0,2.4,1.1,4.4,3.3,5.9c2.2,1.5,6.1,2.2,11.6,2.2c4.9,0,8.6-0.7,11.1-2.2c2.5-1.5,3.8-3.5,3.8-6c0-1.2-0.2-2.3-0.6-3.3
			c-0.4-0.9-1.2-1.7-2.2-2.4c-1-0.6-2.4-1.1-4.2-1.4c-1.7-0.3-3.9-0.5-6.6-0.5H604.6z M612.8,362.1c-4,0-7,0.9-9,2.8
			c-2,1.8-3,4.2-3,7.1c0,3,1,5.4,3.1,7.1c2.1,1.7,5,2.6,8.7,2.6c3.9,0,6.9-0.8,9-2.5c2.1-1.7,3.1-4.1,3.1-7.1c0-2.9-1-5.3-2.9-7.1
			C619.9,363,616.9,362.1,612.8,362.1z"/>
		<path d="M652.3,364.7c1.6-2.6,3.7-4.7,6.2-6.1c2.6-1.5,5.4-2.2,8.5-2.2c5.4,0,9.5,1.6,12.2,4.9c2.8,3.2,4.2,7.7,4.2,13.5v30.5H676
			v-28.6c0-2-0.2-3.9-0.5-5.6c-0.3-1.7-0.9-3.2-1.7-4.4c-0.8-1.2-1.9-2.1-3.2-2.8c-1.4-0.7-3-1-5-1c-1.8,0-3.5,0.4-5.1,1.1
			s-3,1.8-4.2,3.1c-1.2,1.3-2.1,3-2.8,5c-0.7,2-1.1,4.2-1.1,6.6v26.6h-7.5V341h7.5V364.7z"/>
		<path d="M705.3,357.4h13.4v5.8h-13.4v29.3c0,2.3,0.5,4.1,1.5,5.5c1,1.3,2.8,2,5.6,2c1.4,0,2.8-0.1,4.1-0.4
			c1.3-0.2,2.5-0.5,3.6-0.8v6.1c-1.2,0.4-2.6,0.8-4.2,1.1c-1.6,0.3-3.2,0.4-5,0.4c-2.5,0-4.6-0.3-6.2-1c-1.7-0.6-3-1.5-4-2.7
			c-1-1.1-1.8-2.5-2.2-4c-0.4-1.6-0.6-3.3-0.6-5.1v-30.3H691v-5.8h6.8v-12.8h7.5V357.4z"/>
		<path d="M745.8,356.4c4.2,0,7.9,0.6,10.9,1.9c3.1,1.3,5.7,3,7.9,5.1l-4.5,4.5c-1.8-1.6-3.9-2.9-6.3-3.9c-2.4-0.9-5-1.4-8-1.4
			c-3.5,0-6.2,0.6-8,1.9c-1.9,1.3-2.8,2.9-2.8,5c0,1.1,0.2,2.1,0.6,2.8c0.4,0.8,1.2,1.5,2.2,2.1c1,0.6,2.3,1.1,4,1.6
			c1.7,0.4,3.7,0.8,6.2,1.2c2.9,0.5,5.5,1.1,7.7,1.8c2.2,0.7,4.1,1.6,5.6,2.8c1.5,1.1,2.7,2.5,3.4,4.1c0.8,1.6,1.1,3.6,1.1,5.9
			c0,2.1-0.4,4-1.3,5.7c-0.9,1.7-2.1,3.3-3.9,4.5s-3.8,2.3-6.3,3c-2.5,0.7-5.4,1.1-8.7,1.1c-4.6,0-8.7-0.7-12.3-2.2
			c-3.6-1.4-6.6-3.4-9-6l4.9-4.8c2,2.1,4.3,3.8,7.1,4.9c2.8,1.1,5.8,1.7,9.1,1.7c4.3,0,7.5-0.7,9.6-2.2c2-1.5,3.1-3.3,3.1-5.6
			c0-1.2-0.2-2.2-0.6-3.1c-0.4-0.9-1.1-1.7-2.2-2.3c-1.1-0.7-2.5-1.3-4.4-1.8c-1.8-0.5-4.2-1-7.1-1.4c-5.7-0.9-9.9-2.5-12.6-4.7
			c-2.6-2.2-3.9-5.2-3.9-8.9c0-2.1,0.4-3.9,1.3-5.6c0.9-1.7,2.1-3.1,3.7-4.2c1.6-1.2,3.5-2.1,5.8-2.7
			C740.6,356.7,743.1,356.4,745.8,356.4z"/>
		<path d="M798,356.4c3.2,0,6.1,0.6,8.6,1.8c2.6,1.2,4.7,2.9,6.5,5.1c1.8,2.2,3.2,4.8,4.1,7.8c1,3,1.5,6.3,1.5,9.9
			c0,3.5-0.5,6.8-1.4,9.9c-0.9,3.1-2.3,5.8-4.1,8c-1.8,2.3-4,4.1-6.6,5.4c-2.6,1.3-5.5,2-8.8,2c-3.5,0-6.6-0.7-9.1-2.2
			c-2.5-1.4-4.5-3.4-5.9-5.8V420h-7.4v-62.6h7.4v7.2c1.6-2.6,3.8-4.6,6.4-6C791.9,357.1,794.8,356.4,798,356.4z M796.8,362.8
			c-4.2,0-7.6,1.6-10.2,4.7c-2.6,3.2-3.9,7.8-3.9,13.8c0,3.2,0.4,5.9,1.1,8.3c0.7,2.3,1.7,4.2,3,5.7c1.3,1.5,2.7,2.6,4.4,3.3
			s3.5,1.1,5.5,1.1c4.3,0,7.8-1.7,10.5-5c2.6-3.3,3.9-7.9,3.9-13.9c0-2.7-0.3-5.2-0.9-7.4c-0.6-2.2-1.5-4.1-2.7-5.7
			c-1.2-1.6-2.7-2.8-4.4-3.7C801.1,363.3,799.1,362.8,796.8,362.8z"/>
		<path d="M848.4,356.4c3.4,0,6.5,0.7,9.1,2s4.8,3.1,6.7,5.3c1.8,2.2,3.2,4.9,4.1,7.9c0.9,3,1.4,6.2,1.4,9.6v1.7H834
			c0.1,5.4,1.5,9.6,4.1,12.5c2.6,3,6.4,4.4,11.2,4.4c3.2,0,6-0.7,8.2-2.1c2.2-1.4,4-3.2,5.4-5.5l6.2,3.4c-2.1,3.4-4.9,6-8.2,7.8
			c-3.3,1.9-7.3,2.8-11.9,2.8c-3.7,0-6.9-0.7-9.8-2c-2.8-1.3-5.2-3.1-7.2-5.3c-1.9-2.2-3.4-4.9-4.4-7.9c-1-3.1-1.5-6.3-1.5-9.8
			c0-3.5,0.5-6.7,1.4-9.8c1-3,2.3-5.7,4.2-7.9c1.8-2.2,4.1-4,6.9-5.3C841.5,357,844.7,356.4,848.4,356.4z M848.2,362.6
			c-4.3,0-7.6,1.3-10.1,4c-2.4,2.7-3.8,6.2-4.1,10.5h27.7c-0.3-4.4-1.6-7.9-3.9-10.6C855.6,364,852.4,362.6,848.2,362.6z"/>
		<path d="M899.1,356.4c3.4,0,6.5,0.7,9.1,2s4.8,3.1,6.7,5.3c1.8,2.2,3.2,4.9,4.1,7.9s1.4,6.2,1.4,9.6v1.7l-35.6,0
			c0.1,5.4,1.5,9.6,4.1,12.5c2.6,3,6.4,4.4,11.2,4.4c3.2,0,6-0.7,8.2-2.1c2.2-1.4,4-3.2,5.4-5.5l6.2,3.4c-2.1,3.4-4.9,6-8.2,7.8
			c-3.3,1.9-7.3,2.8-11.9,2.8c-3.7,0-6.9-0.7-9.8-2c-2.8-1.3-5.2-3.1-7.2-5.3c-1.9-2.2-3.4-4.9-4.4-7.9c-1-3.1-1.5-6.3-1.5-9.8
			c0-3.5,0.5-6.7,1.4-9.8c1-3,2.3-5.7,4.2-7.9c1.8-2.2,4.1-4,6.9-5.3C892.2,357,895.4,356.4,899.1,356.4z M898.9,362.6
			c-4.3,0-7.6,1.3-10.1,4c-2.4,2.7-3.8,6.2-4.1,10.5h27.7c-0.3-4.4-1.6-7.9-3.9-10.6C906.3,364,903,362.6,898.9,362.6z"/>
		<path d="M971,405.2h-7.5v-7.3c-1.6,2.6-3.7,4.7-6.4,6.1c-2.7,1.5-5.6,2.2-8.8,2.2c-3.2,0-6.1-0.6-8.7-1.8
			c-2.6-1.2-4.7-2.9-6.5-5.1c-1.8-2.2-3.1-4.8-4.1-7.8c-0.9-3-1.4-6.3-1.4-10c0-3.6,0.5-6.9,1.5-10c1-3.1,2.4-5.7,4.2-8
			c1.8-2.3,4-4,6.6-5.3s5.5-1.9,8.8-1.9c3.6,0,6.6,0.7,9.1,2.2c2.4,1.4,4.4,3.3,5.8,5.6V341h7.5V405.2z M949.7,362.8
			c-4.6,0-8.1,1.7-10.6,5c-2.5,3.3-3.7,7.8-3.7,13.6c0,5.8,1.2,10.3,3.5,13.5c2.4,3.3,5.9,4.9,10.7,4.9c4.2,0,7.6-1.6,10.2-4.7
			c2.6-3.1,3.9-7.8,3.9-13.9c0-3.1-0.4-5.7-1.1-8c-0.7-2.3-1.7-4.2-3-5.7s-2.7-2.7-4.4-3.4C953.5,363.2,951.7,362.8,949.7,362.8z"/>
	</g>
</g>
</svg>
