<?xml version="1.0" encoding="utf-8"?>
<!-- Generator: Adobe Illustrator 24.2.1, SVG Export Plug-In . SVG Version: 6.00 Build 0)  -->
<svg version="1.1" id="Layer_1" xmlns="http://www.w3.org/2000/svg" xmlns:xlink="http://www.w3.org/1999/xlink" x="0px" y="0px"
	width="100px" height="100px" viewBox="0 0 100 100" style="enable-background:new 0 0 100 100;" xml:space="preserve">
<g>
	<g>
		<path style="fill:#E8E8E8;" d="M50,0c27.6,0,50,22.4,50,50s-22.4,50-50,50S0,77.6,0,50S22.4,0,50,0"/>
		<path style="fill:#FFFFFF;" d="M50,1c27,0,49,22,49,49S77.1,99,50,99S1,77,1,50S23,1,50,1"/>
		<path style="fill:#E8E8E8;" d="M50,0c27.6,0,50,22.4,50,50s-22.4,50-50,50S0,77.6,0,50S22.4,0,50,0"/>
		<path style="fill:#FFFFFF;" d="M50,1c27,0,49,22,49,49S77.1,99,50,99S1,77,1,50S23,1,50,1"/>
	</g>
	<g>
		<path style="fill:#3FB04B;" d="M75.7,33.8H16.5c-1.7,0-3.1,1.4-3.1,3.1V63c0,1.7,1.4,3.1,3.1,3.1h59.2c1.2,0,2.2-0.7,2.8-1.7
			l7.8-13c0.5-0.9,0.5-2,0-2.9l-7.8-13C78,34.5,76.9,33.8,75.7,33.8"/>
		<path style="fill:#FFFFFF;" d="M81.4,50c0,0.9-0.7,1.6-1.6,1.6c-0.9,0-1.6-0.7-1.6-1.6s0.7-1.6,1.6-1.6
			C80.7,48.4,81.4,49.1,81.4,50 M28.7,46.7H31c0.2,0,0.3,0.2,0.2,0.3l-6,12.3c-0.1,0.2-0.4,0.2-0.6,0l-6-12.3
			c-0.1-0.1,0-0.3,0.2-0.3h2.3c0.1,0,0.2,0,0.2,0.1l3.6,7.9l3.6-7.8C28.5,46.7,28.6,46.7,28.7,46.7 M41.4,51.6
			c-0.1-0.9-0.5-1.7-1.1-2.3c-0.6-0.6-1.4-0.9-2.3-0.9c-1,0-1.8,0.3-2.5,0.9c-0.7,0.6-1.1,1.3-1.3,2.3H41.4z M42.1,55.4l1.6,0.9
			c0.1,0.1,0.1,0.2,0.1,0.3c-1.4,2.2-3.4,3.3-5.9,3.3c-1.9,0-3.4-0.7-4.5-2c-1.1-1.3-1.7-3.1-1.7-5.3c0-0.8,0.2-1.6,0.5-2.5
			c0.6-1.6,1.7-2.7,3.1-3.3c0.8-0.3,1.6-0.5,2.6-0.5c2.7,0,4.5,1.1,5.4,3.4c0.4,1.1,0.6,2.1,0.6,3l0,0.6c0,0.1-0.1,0.2-0.2,0.2h-9.4
			c0,1.2,0.4,2.2,1,3c0.7,0.8,1.7,1.2,2.9,1.2c1.5,0,3-1,3.7-2.3C41.9,55.4,42,55.3,42.1,55.4 M46.3,46.7h2c0.1,0,0.2,0.1,0.2,0.2
			v1.6c0.9-1.4,2.3-2.2,3.9-2.2c3,0,4.5,1.8,4.5,5.5v7.4c0,0.1-0.1,0.2-0.2,0.2h-2c-0.1,0-0.2-0.1-0.2-0.2v-7.5
			c0-1.1-0.2-1.9-0.6-2.4c-0.4-0.6-1.2-0.9-2.2-0.9c-2.1,0-3.1,1.3-3.1,4v6.8c0,0.1-0.1,0.2-0.2,0.2h-2c-0.1,0-0.2-0.1-0.2-0.2V46.9
			C46.1,46.8,46.2,46.7,46.3,46.7 M69.3,53.1c0-1.8-0.6-3.1-1.9-3.9c-0.6-0.4-1.3-0.6-2.1-0.6c-1.6,0-2.8,0.8-3.4,2.4
			c-0.3,0.7-0.4,1.4-0.4,2.1c0,1.5,0.5,2.7,1.6,3.6c0.6,0.5,1.3,0.7,2.2,0.7c1.8,0,3-0.8,3.7-2.3C69.1,54.6,69.3,53.9,69.3,53.1
			 M69.8,40.1h2c0.1,0,0.2,0.1,0.2,0.2v19c0,0.1-0.1,0.2-0.2,0.2h-2c-0.1,0-0.2-0.1-0.2-0.2v-1.9c-1.1,1.7-2.6,2.5-4.4,2.5
			c-2,0-3.6-0.7-4.7-2.2c-1-1.3-1.5-2.8-1.5-4.4c0-1.3,0.2-2.4,0.7-3.5c0.5-1.1,1.3-2,2.4-2.6c0.9-0.5,1.9-0.8,3-0.8
			c0.9,0,1.7,0.2,2.6,0.7c0.9,0.5,1.5,1.1,1.9,1.9v-8.6C69.6,40.2,69.7,40.1,69.8,40.1"/>
	</g>
</g>
</svg>
