<?xml version="1.0" encoding="utf-8"?>
<!-- Generator: Adobe Illustrator 24.2.1, SVG Export Plug-In . SVG Version: 6.00 Build 0)  -->
<svg version="1.1" id="Layer_1" xmlns="http://www.w3.org/2000/svg" xmlns:xlink="http://www.w3.org/1999/xlink" x="0px" y="0px"
	 viewBox="0 0 367.7 71.3" style="enable-background:new 0 0 367.7 71.3;" xml:space="preserve">
<g id="Logo_Color_Horizontal">
	<path style="fill:#8759F2;" d="M33.8,45.4L20.5,22.3H7.1c-5.5,0-8.9,6-6.2,10.7l20,34.7c2.7,4.7,9.6,4.8,12.4,0l12.9-22.3
		C43.5,50.2,36.6,50.1,33.8,45.4z"/>
	<path style="fill:#FF3E80;" d="M47.2,22.3H20.5l13.3,23.1c2.7,4.7,9.6,4.8,12.4,0L53.4,33C56.1,28.2,52.6,22.3,47.2,22.3z"/>
	<path style="fill:#FFC300;" d="M60.1,0H20c-5.5,0-8.9,5.9-6.2,10.7l6.7,11.6h26.7c5.5,0,8.9,6,6.2,10.7l12.9-22.3
		C69,6,65.6,0,60.1,0z"/>
	<path style="fill:#00D4E6;" d="M13.8,10.7c-1.3-2.2-1.3-4.9,0-7.1L0.9,25.9c1.3-2.2,3.6-3.6,6.2-3.6h13.4L13.8,10.7z"/>
	<path style="fill:#221B43;" d="M307.5,21.5c-10.8,0-19.3,8.3-19.3,18.6s8.3,18.6,19.3,18.6s19.3-8.3,19.3-18.6
		S318.3,21.5,307.5,21.5z M307.5,51.2c-6.1,0-10.6-4.9-10.6-11s4.7-11,10.6-11s10.6,4.9,10.6,11S313.5,51.2,307.5,51.2L307.5,51.2z"
		/>
	<path style="fill:#221B43;" d="M181.3,7.2h-3.1c-2,0-3,1-3,3v44.7c0,2,1,3,3,3h3.1c2,0,3-1,3-3V10.2C184.3,8.2,183.3,7.2,181.3,7.2
		z"/>
	<path style="fill:#221B43;" d="M277.9,22.4h-3.1c-2,0-3,1-3,3V55c0,2,1,3,3,3h3.1c2,0,3-1,3-3V25.4
		C280.9,23.4,279.8,22.4,277.9,22.4z"/>
	<path style="fill:#221B43;" d="M123.3,22.3h-2.9c-2,0-2.9,0.7-3.6,2.6L108.3,48l-8.5-23.1c-0.7-1.9-1.6-2.6-3.6-2.6h-3
		c-1.9,0-3.6,0.8-2.6,3.4l11.7,29.1c1,2.6,2,3.1,4.1,3.1h3.7c2.1,0,3.1-0.6,4.1-3.1l11.7-29.1C126.9,23.1,125.2,22.3,123.3,22.3z"/>
	<path style="fill:#221B43;" d="M224.5,22.4h-3.1c-2,0-3,1-3,3v14.9c-0.3,7.1-4.4,10.9-9.4,10.9c-4,0-6.2-3.5-6.2-8.8v-17
		c0-2-1-3-3-3h-3.1c-2,0-3,1-3,3v17.7c0,6.3,2.8,15.7,13.2,15.7c8.3,0,10.9-5.4,11.5-7.2V55c0,2,1,3,3,3h3.1c2,0,3-1,3-3V25.4
		C227.5,23.4,226.5,22.4,224.5,22.4z"/>
	<path style="fill:#221B43;" d="M336.9,58h3.1c2,0,3-1,3-3V40c0.3-7.1,4.4-10.9,9.4-10.9c4,0,6.2,3.5,6.2,8.8v17c0,2,1,3,3,3h3.1
		c2,0,3-1,3-3V37.2c0-6.3-2.8-15.7-13.2-15.7c-8.3,0-10.9,5.4-11.5,7.2v-3.3c0-2-1-3-3-3h-3.1c-2,0-3,1-3,3V55
		C333.9,57,335,58,336.9,58z"/>
	<path style="fill:#221B43;" d="M282,11.9c0,2.9-2.1,5.3-5.7,5.3s-5.7-2.4-5.7-5.3s2.2-5.3,5.7-5.3S282,9,282,11.9z"/>
	<path style="fill:#221B43;" d="M261.9,27.1c0.2-0.7,0.2-1.4-0.1-2.1c-0.3-0.6-0.9-1.1-1.5-1.3c-2.8-1-6.6-2.2-11-2.2
		c-7.8,0-13.2,4.4-13.5,10.1c-0.2,4.6,2.4,7.6,5.7,9.4c3.9,2.1,8.4,2.8,10.4,3.5c2.1,0.8,3.2,1.7,3.3,3.5c0,1.8-1.7,3.4-5.2,3.4
		c-4.4,0-8.1-1.5-10.5-2.5c-1.3-0.6-2.8-0.1-3.5,1.2l-0.7,1.9c-0.6,1.3-0.1,2.8,1.1,3.5c2.6,1.4,7.5,3.3,13.2,3.3
		c8.8,0,14.1-4.7,14.1-10.9c0-2.8-0.9-6.2-5.6-8.7c-2.5-1.4-9.4-2.7-11.7-4c-1.6-0.8-2.3-2.1-2.1-3.5c0.2-2,2.1-2.9,4.5-3.1
		c3.9-0.2,6.7,1.1,9.5,1.8c1.3,0.3,2.6-0.5,3-1.7L261.9,27.1z"/>
	<path style="fill:#221B43;" d="M148.3,21.5c-10.8,0-19.3,8.3-19.3,18.6s8.3,18.6,19.3,18.6s19.3-8.3,19.3-18.6
		S159.1,21.5,148.3,21.5z M148.3,51.2c-6.1,0-10.6-4.9-10.6-11s4.7-11,10.6-11c5.9,0,10.6,4.9,10.6,11S154.4,51.2,148.3,51.2
		L148.3,51.2z"/>
</g>
</svg>
