<?xml version="1.0" encoding="utf-8"?>
<!-- Generator: Adobe Illustrator 24.2.1, SVG Export Plug-In . SVG Version: 6.00 Build 0)  -->
<svg version="1.1" id="Layer_1" xmlns="http://www.w3.org/2000/svg" xmlns:xlink="http://www.w3.org/1999/xlink" x="0px" y="0px"
	 viewBox="0 0 648.9 154.8" style="enable-background:new 0 0 648.9 154.8;" xml:space="preserve">
<g>
	<path style="fill:#FFB71B;" d="M572,52.1c3.6,0,6.6-1.9,7-4.3l3.6-40.5c0-4-4.7-7.3-10.6-7.3s-10.6,3.3-10.6,7.3l3.6,40.5
		C565.4,50.2,568.4,52.1,572,52.1z"/>
	<path style="fill:#FFB71B;" d="M550.1,64.8c1.8-3.1,1.7-6.7-0.2-8.2l-33.3-23.3c-3.5-2-8.7,0.4-11.6,5.5s-2.4,10.8,1,12.8
		l36.8,17.2C545.1,69.5,548.3,67.9,550.1,64.8L550.1,64.8z"/>
	<path style="fill:#FFB71B;" d="M593.9,64.7c1.8,3.1,4.9,4.8,7.3,3.9L638,51.5c3.5-2,4-7.7,1-12.8s-8.2-7.5-11.6-5.5l-33.3,23.4
		C592.2,58.1,592.1,61.6,593.9,64.7L593.9,64.7z"/>
	<path style="fill:#FFB71B;" d="M572,102.7c3.6,0,6.6,1.9,7,4.3l3.6,40.5c0,4-4.7,7.3-10.6,7.3s-10.6-3.3-10.6-7.3L565,107
		C565.4,104.6,568.4,102.7,572,102.7L572,102.7z"/>
	<path style="fill:#FFB71B;" d="M593.9,90c1.8-3.1,4.9-4.8,7.3-3.9l36.8,17.1c3.5,2,4,7.7,1,12.8s-8.2,7.5-11.6,5.5l-33.3-23.3
		C592.2,96.7,592.1,93.2,593.9,90L593.9,90z"/>
	<path style="fill:#FFB71B;" d="M550.1,90c1.8,3.1,1.7,6.7-0.2,8.2l-33.3,23.3c-3.5,2-8.7-0.4-11.6-5.5s-2.4-10.8,1-12.8l36.8-17.1
		C545.2,85.3,548.3,86.9,550.1,90L550.1,90z"/>
	<path style="fill:#0071CE;" d="M380.3,82c0-15.3-6.5-28.8-28.6-28.8c-11.3,0-20.3,3.2-25.2,6l3.6,12.3c5.6-3.3,11.9-5.1,18.4-5.2
		c11.2,0,13,6.3,13,10.4v1c-24.4,0-39.8,8.4-39.8,25.6c0,10.5,7.9,20.4,21.5,20.4c8.4,0,15.4-3.4,19.6-8.7h0.4
		c0,0,2.8,11.7,18.2,7.2c-0.8-5.4-1.1-10.8-1-16.3V82z M362,98.2c0.2,6.6-5,12.1-11.5,12.3c-0.4,0-0.8,0-1.2,0c-5,0-9.1-2.9-9.1-8.9
		c0-9.3,10.2-11.8,21.8-11.8V98.2z"/>
	<path style="fill:#0071CE;" d="M0,32.5c0,0,15.9,65.3,18.5,76c3,12.4,8.3,16.9,23.8,13.9l10-40.5c2.5-10.1,4.2-17.2,5.8-27.5h0.3
		c1.1,10.3,2.8,17.4,4.8,27.5c0,0,4,18.4,6.1,28c2.1,9.6,7.9,15.8,23,12.4L116,32.5H96.9l-8.1,38.8c-2.2,11.3-4.1,20.1-5.7,30.5
		h-0.3c-1.4-10.2-3.1-18.7-5.4-29.7L69,32.5H49l-9,38.6c-2.6,11.7-5,21.2-6.5,31.2h-0.3c-1.6-9.4-3.6-21.3-5.9-32.7
		c0,0-5.4-27.6-7.2-37.1H0z"/>
	<path style="fill:#0071CE;" d="M170.5,82c0-15.3-6.5-28.8-28.6-28.8c-11.3,0-20.3,3.2-25.2,6l3.6,12.3c5.6-3.3,11.9-5.1,18.4-5.2
		c11.2,0,13,6.3,13,10.4v1c-24.4,0-39.8,8.4-39.8,25.6c0,10.5,7.9,20.4,21.5,20.4c8.4,0,15.4-3.4,19.6-8.7h0.4
		c0,0,2.8,11.7,18.1,7.2c-0.8-5.4-1.1-10.8-1-16.3V82z M152.2,98.2c0.2,6.6-5,12.1-11.5,12.3c-0.4,0-0.8,0-1.2,0
		c-5.1,0-9.1-2.9-9.1-8.9c0-9.3,10.2-11.8,21.8-11.8V98.2z"/>
	<polygon style="fill:#0071CE;" points="200.9,103.2 200.9,32.5 182.6,32.5 182.6,122.3 200.9,122.3 	"/>
	<path style="fill:#0071CE;" d="M439.5,32.5v66.3c0,9.1,1.7,15.5,5.4,19.4c3.2,3.4,8.5,5.6,14.9,5.6c4.5,0,8.9-0.7,13.2-2l-0.2-14.3
		c-2.3,0.6-4.6,0.8-6.9,0.8c-6.2,0-8.3-4-8.3-12.2V70.9h15.9V53.7h-15.9V32.5H439.5z"/>
	<path style="fill:#0071CE;" d="M392.4,54.8v67.5h18.8V87.8c0-1.7,0.1-3.4,0.4-5c1.4-7.2,6.9-11.9,14.9-11.9c1.8,0,3.6,0.2,5.4,0.5
		V53.7c-1.4-0.3-2.8-0.4-4.1-0.4c-7,0-15,4.5-18.4,14.3h-0.5V54.8H392.4z"/>
	<path style="fill:#0071CE;" d="M213.6,54.8v67.5H232V82.7c0-1.9,0.2-3.7,0.9-5.5c1.5-4,5.2-8.7,11.1-8.7c7.4,0,10.9,6.3,10.9,15.3
		v38.5h18.3V82.3c0-1.9,0.2-3.7,0.8-5.5c1.5-4.9,5.9-8.2,11-8.2c7.5,0,11.1,6.1,11.1,16.8v37h18.3V82.6c0-21-10.6-29.3-22.7-29.3
		c-4.7-0.1-9.3,1.2-13.3,3.7c-3.4,2.2-6.3,5-8.5,8.4h-0.3c-2.9-7.3-9.7-12.1-18.6-12.1c-11.4,0-16.5,5.8-19.6,10.7h-0.3v-9.2
		L213.6,54.8z"/>
	<path style="fill:#FFB71B;" d="M645.8,118.2c1.7,0.1,3.1,1.5,3,3.2c-0.1,1.7-1.5,3.1-3.2,3c-1.7-0.1-3.1-1.5-3-3.2
		c0-1.7,1.4-3.1,3.1-3.1C645.7,118.2,645.8,118.2,645.8,118.2z M645.8,118.8c-1.4,0.1-2.4,1.3-2.3,2.7c0.1,1.2,1.1,2.2,2.3,2.3
		c1.3,0,2.4-1.1,2.4-2.4c0,0,0-0.1,0-0.1C648.2,120,647.2,118.9,645.8,118.8C645.8,118.8,645.8,118.8,645.8,118.8L645.8,118.8z
		 M645.3,123h-0.7v-3.1c0.4-0.1,0.8-0.1,1.2-0.1c0.4,0,0.8,0.1,1.1,0.3c0.2,0.2,0.3,0.4,0.3,0.7c0,0.4-0.3,0.7-0.7,0.8l0,0
		c0.3,0.1,0.5,0.3,0.6,0.8c0,0.3,0.1,0.5,0.2,0.8h-0.8c-0.1-0.2-0.2-0.5-0.3-0.7c0-0.4-0.2-0.5-0.7-0.5h-0.3V123z M645.3,121.2h0.3
		c0.4,0,0.7-0.1,0.7-0.5s-0.2-0.5-0.7-0.5c-0.1,0-0.3,0-0.4,0V121.2z"/>
</g>
</svg>
