<?xml version="1.0" encoding="utf-8"?>
<!-- Generator: Adobe Illustrator 24.2.1, SVG Export Plug-In . SVG Version: 6.00 Build 0)  -->
<svg version="1.1" id="Layer_1" xmlns="http://www.w3.org/2000/svg" xmlns:xlink="http://www.w3.org/1999/xlink" x="0px" y="0px"
	width="100px" height="100px" viewBox="0 0 100 100" style="enable-background:new 0 0 100 100;" xml:space="preserve">
<g>
	<g>
		<path style="fill:#E8E8E8;" d="M50,0c27.6,0,50,22.4,50,50s-22.4,50-50,50S0,77.6,0,50S22.4,0,50,0"/>
		<path style="fill:#FFFFFF;" d="M50,1c27,0,49,22,49,49S77.1,99,50,99S1,77,1,50S23,1,50,1"/>
		<path style="fill:#E8E8E8;" d="M50,0c27.6,0,50,22.4,50,50s-22.4,50-50,50S0,77.6,0,50S22.4,0,50,0"/>
		<path style="fill:#FFFFFF;" d="M50,1c27,0,49,22,49,49S77.1,99,50,99S1,77,1,50S23,1,50,1"/>
	</g>
	<g id="Layer_2_1_">
		<g id="Layer_1-2">
			<path style="fill:#1F65A6;" d="M10.7,56.4l0.1,0c1.5,0.5,3-0.3,3.5-1.7l1.7-5.5c0.5-1.4-0.4-2.9-1.9-3.4l-0.1,0
				c-1.5-0.5-3,0.3-3.5,1.7L8.8,53C8.4,54.4,9.2,55.9,10.7,56.4z"/>
			<path style="fill:#328FF8;" d="M21.5,57.3c0.3-0.8,0.6-1.7,0.9-2.6c0.6-1.8,1.1-3.7,1.7-5.5c0.2-0.8,0.5-1.5,0.7-2.3
				c0.5-1.6-0.3-3.3-1.7-3.8l-0.1,0c-1.5-0.5-3.1,0.4-3.6,2l-3.1,10.5c-0.4,1.3-1.5,2.3-2.6,2.7c-0.1,0-0.2,0.1-0.3,0.1
				c-0.6,0.1-1.3,0.1-1.9-0.1l-0.1,0c-0.1,0-0.2-0.1-0.3-0.1c0.7,0.9,2,1.9,3.5,2.4c1.7,0.6,3.7,0.3,5.1-0.7
				C20.5,59.2,21.1,58.3,21.5,57.3z"/>
			<path style="fill:#111111;" d="M56.5,46c-1.3-0.2-1.9,0.1-1.9,0.1c-0.4,0.2-0.5,0.7-0.5,0.7l-2,7l-0.1-0.1l-0.1-0.4l-0.2-0.6
				L51.4,52l-0.3-0.8l-0.3-0.9l-0.3-0.9l-0.3-0.8l-0.3-0.7l-0.2-0.6l-0.1-0.4c-0.1-0.2-0.2-0.4-0.3-0.5C49,46.1,48.7,46,48.5,46
				c-0.1,0-0.2,0-0.3,0c-0.6,0-0.9,0.2-1.1,0.3c-0.1,0.1-0.2,0.2-0.3,0.4l-2.3,7.1l-2.1-6.8c-0.1-0.4-0.3-0.7-0.7-0.8
				c-0.3-0.1-0.6-0.1-1-0.1c-0.3,0-0.5,0-0.8,0.1c0,0-1.1,0.2-0.7,1.2c0,0.1,0,0.1,0,0.2l0.1,0.4c0.1,0.2,0.1,0.4,0.2,0.5l0.2,0.7
				l0.3,0.8c0.1,0.3,0.2,0.6,0.3,0.9c0.1,0.3,0.2,0.6,0.3,0.9c0.1,0.3,0.2,0.6,0.3,1c0.1,0.3,0.2,0.6,0.3,1l0.3,0.9
				c0.1,0.3,0.2,0.6,0.3,0.9l0.3,0.8c0.1,0.2,0.1,0.5,0.2,0.7c0.1,0.2,0.1,0.4,0.2,0.5c0.1,0.2,0.1,0.5,0.3,0.7
				c0.3,0.2,0.7,0.3,1.1,0.4c0.2,0,0.3,0,0.5,0c0.5,0,1.2,0,1.7-0.4c0.2-0.2,0.3-0.5,0.4-0.8l0.1-0.5l0.4-1.3l0.4-1.5l0.4-1.4l0.3-1
				l0.1-0.3c0.1,0.1,0.1,0.3,0.2,0.4l0.4,1.1c0.2,0.5,0.3,0.9,0.5,1.4l0.5,1.5c0.1,0.3,0.2,0.7,0.4,1c0.1,0.2,0.1,0.4,0.2,0.6
				c0.1,0.2,0.1,0.4,0.2,0.5c0.4,0.5,1.1,0.5,1.7,0.5c0.5,0,1.3-0.1,1.6-0.6c0.1-0.2,0.1-0.4,0.2-0.6l0.1-0.3
				c0.1-0.3,0.2-0.5,0.2-0.8c0.2-0.7,0.4-1.3,0.6-2c0.2-0.7,0.5-1.5,0.7-2.2c0.2-0.7,0.4-1.4,0.7-2.2c0.2-0.6,0.4-1.2,0.5-1.8
				c0.1-0.3,0.2-0.6,0.3-0.8C57.6,46.2,56.5,46,56.5,46z"/>
			<path style="fill:#111111;" d="M62.2,48.5c-0.4,0-0.9,0.2-1.2,0.4c-0.2,0.1-0.4,0.2-0.5,0.4c-0.2,0.1-0.3,0.3-0.5,0.3
				c-0.4,0.1-0.8-0.2-1.1-0.4c-0.2-0.1-0.6-0.5-0.7-0.8C58,48.3,58,48,58.1,47.8c0.9-1.1,2.4-1.7,3.8-1.8c1.4-0.1,3.1,0,4.3,0.8
				c0.9,0.6,1.4,1.8,1.4,3.3l0.1,7.7c0,0.1,0,0.1,0,0.2c-0.2,0.4-0.8,0.5-1.3,0.5c-0.5,0-1.2-0.1-1.3-0.5c0-0.1,0-0.1,0-0.2v-0.3
				c-0.2,0.2-0.5,0.4-0.7,0.5c-0.5,0.2-1.2,0.3-2,0.3c-1.3,0-2.9-0.3-3.6-1c-0.8-0.7-1.2-1.6-1.2-2.7c0-1,0.4-1.9,1.1-2.6
				c0.7-0.7,1.7-1.1,2.9-1.1l3.4,0c0-0.4,0.1-0.9,0-1.3C64.6,48.6,63.2,48.5,62.2,48.5z M62.4,53.2c-0.9,0-2.2,0.1-2.3,1.2
				c0,1.2,1.6,1.4,2.4,1.4h0.1c1,0,1.5-0.2,1.8-0.4c0.3-0.2,0.5-0.7,0.5-1.5l0-0.7L62.4,53.2z"/>
			<path style="fill:#111111;" d="M79.3,46c-0.1,0-0.1,0-0.2,0c-0.4-0.1-0.8-0.1-1.2,0c-0.5,0.1-0.8,0.4-1,0.9l-0.2,0.5L74.1,54
				l-0.6-1.6l-1.2-3c-0.2-0.5-0.4-1.1-0.6-1.6c-0.2-0.5-0.4-1.1-0.8-1.5c-0.5-0.4-1.3-0.3-1.9-0.2c-0.2,0-0.4,0.1-0.5,0.3
				c-0.3,0.3-0.3,0.7-0.1,1.1c0.1,0.4,0.3,0.9,0.5,1.3l0.7,1.9l0.9,2.1l0.8,2.1c0.2,0.6,0.5,1.1,0.7,1.7c0.1,0.3,0.2,0.6,0.3,0.9
				c0.1,0.3,0.2,0.5,0.4,0.7c0.4,0.4,1,0.4,1.5,0.4c0.5,0,1.1-0.1,1.4-0.5c0.2-0.2,0.3-0.6,0.4-0.9c0.1-0.3,0.3-0.7,0.4-1l0.7-1.6
				l0.8-1.9l0.8-1.9l0.7-1.7l0.5-1.2c0.2-0.4,0.5-1,0.2-1.4C79.8,46.2,79.5,46.1,79.3,46z"/>
			<path style="fill:#111111;" d="M85.7,58.5c0,0,2.7,0.1,4.5-1.3c0.1-0.1,0.5-0.4,0.8-0.7c0.1-0.2,0.2-0.4,0-0.6
				c-0.2-0.3-0.6-0.7-0.7-0.8c0,0-0.4-0.3-0.9-0.4c-0.2,0-0.4,0-0.7,0.3c-0.6,0.5-1.4,0.8-2.1,0.8c-0.8,0-2.1-0.3-2.6-0.7
				c-0.5-0.4-0.8-0.9-0.8-1.7c0,0,5.8,0,7.3,0c0,0,0.9,0,0.9-1.1c0-0.5,0-1.1,0-1.1c0-1.6-0.5-2.9-1.5-3.8c-1-0.9-2.7-1.5-4.5-1.4
				c-0.6,0-1.2,0.1-1.8,0.3c-0.6,0.2-1.2,0.6-1.7,1.1c-0.5,0.5-0.9,1.1-1.2,2c-0.3,0.8-0.5,1.8-0.5,3c0,1.2,0.2,2.3,0.5,3
				c0.3,0.8,0.8,1.5,1.3,1.9c0.3,0.2,0.6,0.4,0.9,0.6C83.7,58.3,84.7,58.5,85.7,58.5 M83.9,49c0.5-0.4,1-0.5,1.8-0.5
				c0.7,0,1.5,0.2,1.9,0.7c0.4,0.4,0.6,1,0.7,1.7l-5.3,0C83.2,49.8,83.5,49.4,83.9,49L83.9,49z"/>
			<path style="fill:#76C3FC;" d="M29.7,57.2c-0.1,0.4-2,5.3-8.1,3.2c0.8-0.3,1.4-1,1.7-1.8c0.2-0.7,2-6.5,2-6.5h0l3.4-11.3
				c0.5-1.4,2-2.2,3.5-1.7l0.1,0c1.5,0.5,2.3,2,1.9,3.4l-3.6,12.2C30.4,54.8,29.8,56.9,29.7,57.2z"/>
		</g>
	</g>
</g>
</svg>
