<?xml version="1.0" encoding="utf-8"?>
<!-- Generator: Adobe Illustrator 24.2.1, SVG Export Plug-In . SVG Version: 6.00 Build 0)  -->
<svg version="1.1" id="Layer_1" xmlns="http://www.w3.org/2000/svg" xmlns:xlink="http://www.w3.org/1999/xlink" x="0px" y="0px"
	width="100px" height="100px" viewBox="0 0 129.2 129.2" style="enable-background:new 0 0 129.2 129.2;" xml:space="preserve">
<g>
	<g>
		<path style="fill:#E8E8E8;" d="M64.6,0c35.7,0,64.6,29,64.6,64.6s-29,64.6-64.6,64.6S0,100.3,0,64.6S29,0,64.6,0"/>
		<path style="fill:#FFFFFF;" d="M64.6,1.3c34.9,0,63.3,28.4,63.3,63.3S99.6,128,64.6,128S1.3,99.5,1.3,64.6S29.7,1.3,64.6,1.3"/>
		<path style="fill:#E8E8E8;" d="M64.6,0c35.7,0,64.6,29,64.6,64.6s-29,64.6-64.6,64.6S0,100.3,0,64.6S29,0,64.6,0"/>
		<path style="fill:#FFFFFF;" d="M64.6,1.3c34.9,0,63.3,28.4,63.3,63.3S99.6,128,64.6,128S1.3,99.5,1.3,64.6S29.7,1.3,64.6,1.3"/>
	</g>
	<g>
		<path style="fill-rule:evenodd;clip-rule:evenodd;fill:#9C5C8E;" d="M14.9,56.2c0.5-1.2,1.6-1.9,2.9-2h27.5c1.7,0,3.2,1.4,3.2,3.1
			l0,0V68c-0.1,1.6-1.3,3-3,3.1H35.4c0.4,1.1,0.9,2.2,1.3,3.3c-2-1.1-4-2.3-6-3.3c-4.4-0.1-8.8,0-13.2,0c-1.6-0.1-2.9-1.4-3-3.1
			V57.7C14.6,57.2,14.7,56.7,14.9,56.2z"/>
		<path style="fill-rule:evenodd;clip-rule:evenodd;fill:#FFFFFF;" d="M28.3,56.4c0.5-0.4,1.3-0.4,1.7,0.1c0,0.1,0.1,0.1,0.1,0.2
			c0.2,0.3,0.2,0.7,0.1,1.1c-0.7,1.4-1,3-1.3,4.5c-0.4,2-0.5,4-0.5,6c0,0.5-0.2,1.1-0.8,1.2c-0.5,0.1-1-0.2-1.3-0.6
			c-1.5-1.6-2.3-3.7-3-5.8c-0.6,1.2-1.2,2.5-1.8,3.7c-0.4,0.8-0.9,1.6-1.5,2.3c-0.3,0.3-0.8,0.5-1.1,0.2c-0.5-0.5-0.7-1.2-0.9-1.9
			c-0.9-3-1.4-6.1-1.9-9.2c-0.2-0.5,0.1-1.1,0.6-1.3c0.4-0.2,0.9-0.1,1.3,0.1c0.2,0.2,0.3,0.6,0.4,0.9c0.4,2.4,0.8,4.8,1.4,7.2
			l3-5.7c0.1-0.3,0.3-0.5,0.6-0.7c0.4-0.2,0.9-0.2,1.2,0.1c0.2,0.3,0.4,0.6,0.4,1c0.3,1.6,0.7,3.1,1.3,4.6c0.3-2.3,0.6-4.5,1.4-6.7
			C27.8,57.2,28.1,56.8,28.3,56.4L28.3,56.4z M34,57.6c1.1-0.1,2.2,0.2,3,1c0.6,0.7,0.9,1.5,1,2.5c0.2,1.5-0.1,3.1-0.8,4.5
			c-0.4,0.8-1,1.5-1.7,2c-1.1,0.7-2.6,0.6-3.7-0.1c-0.8-0.6-1.4-1.6-1.5-2.6c-0.4-2.3,0.3-4.8,2-6.4C32.7,58,33.3,57.7,34,57.6
			L34,57.6z M34.2,60c-0.5,0.2-0.9,0.6-1.1,1.1c-0.7,1.1-0.9,2.6-0.3,3.8c0.1,0.4,0.4,0.6,0.8,0.7c0.4,0,0.8-0.1,1.1-0.4
			c0.6-0.6,1-1.3,1.1-2.2c0.2-0.9,0.1-1.9-0.4-2.7C35,60,34.6,59.9,34.2,60L34.2,60z M42.7,57.6c1.1-0.2,2.2,0.2,3,1
			c0.6,0.7,1,1.6,1.1,2.6c0.2,1.5-0.1,3-0.8,4.3c-0.4,0.8-1,1.5-1.7,2c-1.1,0.6-2.5,0.6-3.6-0.1c-0.7-0.5-1.2-1.1-1.5-2
			c-0.7-2.5-0.1-5.1,1.6-7C41.2,58.1,41.9,57.7,42.7,57.6L42.7,57.6z M42.9,60c-0.6,0.2-0.9,0.7-1.2,1.2c-0.7,1.1-0.7,2.6-0.2,3.8
			c0.1,0.4,0.4,0.6,0.8,0.7c0.4,0,0.8-0.2,1.1-0.5c0.6-0.7,1-1.5,1-2.4c0.1-0.8-0.1-1.7-0.5-2.4C43.7,60,43.3,59.9,42.9,60L42.9,60z
			"/>
		<path style="fill-rule:evenodd;clip-rule:evenodd;" d="M54.2,57.9c0.9-0.2,1.9-0.2,2.8,0v2.3c-0.7-0.2-1.6-0.3-2.3,0
			c-0.8,0.5-1.4,1.4-1.3,2.4c-0.1,0.9,0.3,2,1.1,2.5c0.8,0.5,1.7,0.4,2.6,0.2v2.3c-1.1,0.3-2.3,0.3-3.4-0.1c-1.3-0.5-2.3-1.6-2.7-3
			c-0.3-1-0.3-2.1-0.1-3.1C51.2,59.7,52.5,58.4,54.2,57.9L54.2,57.9z M61,57.8c1.1-0.2,2.3,0.1,3.3,0.8c0.8,0.7,1.4,1.7,1.5,2.9
			c0.2,1.2,0.1,2.4-0.2,3.6c-0.3,1-1,1.8-1.9,2.3c-1,0.4-2.1,0.5-3.1,0.2c-0.9-0.2-1.7-0.8-2.2-1.7c-0.6-1.1-0.8-2.5-0.7-3.8
			c0-1.1,0.4-2.2,1.1-3.1C59.2,58.4,60,57.9,61,57.8L61,57.8z M61.3,60c-0.5,0.2-0.8,0.6-0.9,1c-0.2,0.9-0.2,1.8-0.1,2.8
			c0,0.5,0.2,1,0.5,1.4c0.5,0.5,1.3,0.5,1.7,0l0.1-0.1c0.2-0.4,0.4-0.8,0.4-1.2c0.1-0.8,0.1-1.5,0-2.3c0-0.5-0.2-0.9-0.5-1.3
			C62.2,60,61.7,59.9,61.3,60L61.3,60z M105.8,58c1-0.2,2-0.2,3,0c0,0.8,0,1.5,0,2.3c-0.7-0.2-1.5-0.3-2.3,0
			c-0.8,0.4-1.3,1.2-1.4,2.2c-0.1,1,0.2,2.2,1,2.7c0.8,0.5,1.8,0.4,2.6,0.2c0,0.7,0,1.5,0,2.3c-1.2,0.3-2.5,0.2-3.6-0.2
			c-1.2-0.6-2.2-1.6-2.6-3c-0.3-1-0.3-2.1,0-3.1C102.9,59.7,104.2,58.5,105.8,58L105.8,58z M67.2,58.1h3.2c0.4,1.7,0.8,3.5,1.1,5.2
			c0.3-1.7,0.7-3.5,1.1-5.2H76l1.3,9.4h-2.5c-0.2-2.2-0.4-4.3-0.7-6.5c-0.5,2.2-1.1,4.3-1.6,6.5h-1.7c-0.5-2.2-1.1-4.3-1.6-6.5
			c-0.2,2.2-0.4,4.3-0.6,6.5h-2.4C66.4,64.4,66.8,61.2,67.2,58.1L67.2,58.1z M78.8,58.1H82c0.4,1.7,0.7,3.5,1.1,5.2
			c0.3-1.7,0.7-3.5,1.1-5.2h3.3l1.3,9.4h-2.5c-0.2-2.2-0.5-4.3-0.7-6.5c-0.5,2.2-1,4.3-1.6,6.5h-1.7L80.6,61
			c-0.2,2.2-0.4,4.3-0.6,6.5h-2.4L78.8,58.1L78.8,58.1z M89.5,58.1c1.7,0,3.4,0,5.2,0v2h-2.6v1.7h2.3v2h-2.3v1.7h2.6v2h-5.2
			L89.5,58.1L89.5,58.1z M95.4,58.1h3.2c1,0,2.1,0.3,2.9,1c0.7,0.7,0.9,1.6,0.6,2.6c-0.2,0.7-0.7,1.3-1.4,1.6c0.7,1.4,1.3,2.8,2,4.2
			H100c-0.7-1.4-1.4-2.9-2.1-4.3v4.3h-2.6V58.1L95.4,58.1z M97.9,59.9v2.2c0.5,0,0.9-0.1,1.3-0.3c0.4-0.3,0.4-1,0.1-1.4
			C99,59.9,98.4,59.9,97.9,59.9L97.9,59.9z M109.4,58.1h5.1v2h-2.6v1.7h2.3v2h-2.3v1.7h2.6v2h-5.1L109.4,58.1L109.4,58.1z"/>
	</g>
</g>
</svg>
