<?xml version="1.0" encoding="utf-8"?>
<!-- Generator: Adobe Illustrator 24.2.1, SVG Export Plug-In . SVG Version: 6.00 Build 0)  -->
<svg version="1.1" id="Layer_1" xmlns="http://www.w3.org/2000/svg" xmlns:xlink="http://www.w3.org/1999/xlink" x="0px" y="0px"
	 viewBox="0 0 40 40" style="enable-background:new 0 0 40 40;" xml:space="preserve">
<g>
	<ellipse style="fill:#FFFFFF;" cx="20" cy="20" rx="20" ry="20"/>
	<path style="fill-rule:evenodd;clip-rule:evenodd;fill:#13B5EA;" d="M31.1,16.7c-1.8,0-3.2,1.4-3.2,3.1c0,1.8,1.4,3.2,3.1,3.2
		c1.8,0,3.2-1.4,3.2-3.1c0,0,0,0,0,0C34.3,18.1,32.9,16.7,31.1,16.7z M31.1,21c-0.6,0-1.2-0.5-1.2-1.1c0-0.6,0.5-1.2,1.1-1.2
		s1.2,0.5,1.2,1.1c0,0,0,0,0,0C32.3,20.5,31.7,21,31.1,21z"/>
	<path style="fill-rule:evenodd;clip-rule:evenodd;fill:#13B5EA;" d="M17.7,16.8c-1.5,0-2.7,1-3.1,2.4h6.2
		C20.5,17.7,19.2,16.8,17.7,16.8z"/>
	<path style="fill-rule:evenodd;clip-rule:evenodd;fill:#13B5EA;" d="M20,0C9,0,0,9,0,20s9,20,20,20s20-9,20-20S31,0,20,0z
		 M12.8,24.5c-0.2,0-0.3-0.1-0.5-0.2l-3.4-3.4l-3.4,3.4c-0.1,0.1-0.3,0.2-0.5,0.2c-0.4,0-0.6-0.3-0.7-0.6c0-0.2,0.1-0.4,0.2-0.5
		L8,19.9l-3.4-3.4c-0.3-0.2-0.3-0.7,0-0.9c0.1-0.1,0.3-0.2,0.5-0.2c0.2,0,0.3,0.1,0.5,0.2L8.9,19l3.4-3.4c0.1-0.1,0.3-0.2,0.5-0.2
		c0.4,0,0.6,0.3,0.6,0.6c0,0.2-0.1,0.3-0.2,0.5l-3.4,3.4l3.4,3.4c0.1,0.1,0.2,0.3,0.2,0.5C13.4,24.2,13.1,24.5,12.8,24.5
		C12.8,24.5,12.8,24.5,12.8,24.5z M21.9,20c-0.3,0.3-0.6,0.5-1,0.5h-6.3v0c0,0.2,0.1,0.3,0.1,0.5c0.5,1.3,1.7,2.1,3,2.1
		c0.5,0,1-0.1,1.5-0.4c0.3-0.2,0.6-0.4,0.9-0.7c0.1-0.1,0.1-0.2,0.2-0.3l0,0c0.1-0.2,0.3-0.3,0.5-0.3c0.2,0,0.3,0.1,0.4,0.1
		c0.1,0.1,0.2,0.3,0.2,0.4c0,0.2,0,0.4-0.2,0.6l0,0c-0.3,0.4-0.7,0.8-1.1,1.1c-0.4,0.3-0.9,0.5-1.4,0.6c-0.4,0.1-0.7,0.1-1.1,0.1
		h-0.5c-1.8-0.2-3.4-1.6-3.8-3.4c-0.1-0.4-0.1-0.7-0.1-1.1c0-1.5,0.7-2.9,1.9-3.7c0.8-0.5,1.7-0.8,2.6-0.8c0.8,0,1.7,0.2,2.4,0.7
		c1.1,0.7,1.8,1.8,2,3C22.2,19.4,22.1,19.7,21.9,20z M26,16.8c-1.3,0.2-1.4,0.8-1.4,2.3v4.6c0,0.4-0.3,0.7-0.6,0.7
		c-0.4,0-0.6-0.3-0.6-0.7v-7.6c0-0.4,0.3-0.6,0.6-0.6c0,0,0,0,0,0c0.3,0,0.5,0.2,0.6,0.4c0.4-0.3,1-0.5,1.5-0.5h0.2
		c0.4,0,0.7,0.3,0.7,0.7c0,0.4-0.3,0.6-0.6,0.6c0,0,0,0,0,0L26,16.8z M31.1,24.4c-2.5,0-4.5-2-4.6-4.5s2-4.5,4.5-4.6s4.5,2,4.6,4.5
		c0,0,0,0,0,0C35.6,22.4,33.6,24.4,31.1,24.4L31.1,24.4z"/>
</g>
</svg>
