<svg xmlns="http://www.w3.org/2000/svg" width="100" height="100" viewBox="0 0 27.1 27.1" xmlns:v="https://vecta.io/nano"><path d="M13.5,0C21,0,27.1,6.1,27.1,13.5S21,27.1,13.5,27.1S0,21,0,13.5S6.1,0,13.5,0" fill="#e8e8e8"/><path d="M13.5,0.3c7.3,0,13.3,5.9,13.3,13.3s-5.9,13.3-13.3,13.3S0.3,20.9,0.3,13.5S6.2,0.3,13.5,0.3" fill="#fff"/><path d="M6.8 20.5s-.4-1.1-.4-2.2c0-1.2.4-2.4.4-2.4s1.3-.2 2.3-.2a14.1 14.1 0 0 1 2.2.2 10.2 10.2 0 0 0 .3 2.4c0 1.4-.3 2.3-.3 2.3s-1.3.2-2.3.2c-.9 0-2.2-.3-2.2-.3h0z" fill="#969595"/><linearGradient id="A" gradientUnits="userSpaceOnUse" x1="12.957" y1="16.629" x2="9.17" y2="20.421"><stop offset="0" stop-color="#fff" stop-opacity="0"/><stop offset=".037" stop-color="#eae9e9" stop-opacity=".047"/><stop offset=".136" stop-color="#b9b8b8" stop-opacity=".176"/><stop offset=".237" stop-color="#8c8a8b" stop-opacity=".306"/><stop offset=".338" stop-color="#6b6868" stop-opacity=".437"/><stop offset=".44" stop-color="#4f4c4d" stop-opacity=".568"/><stop offset=".541" stop-color="#3b3839" stop-opacity=".699"/><stop offset=".643" stop-color="#302b2c" stop-opacity=".831"/><stop offset=".745" stop-color="#2b2727" stop-opacity=".963"/><stop offset="1" stop-color="#010101"/></linearGradient><path d="M6.8 20.6s1.3.2 2.3.2 2.3-.2 2.3-.2.3-.9.3-2.3c0-1.3-.3-2.4-.3-2.4h0l-4.6 4.7h0 0z" opacity=".5" fill="url(#A)"/><path d="M11.3 15.9s-.4-1.1-.4-2.2c0-1.2.4-2.4.4-2.4s1.3-.2 2.3-.2a14.1 14.1 0 0 1 2.2.2 10.2 10.2 0 0 0 .3 2.4c0 1.4-.3 2.3-.3 2.3s-1.3.2-2.3.2l-2.2-.3z" fill="#8dc541"/><linearGradient id="B" gradientUnits="userSpaceOnUse" x1="16.437" y1="10.87" x2="13.841" y2="15.368"><stop offset="0" stop-color="#fff" stop-opacity="0"/><stop offset=".037" stop-color="#eae9e9" stop-opacity=".047"/><stop offset=".136" stop-color="#b9b8b8" stop-opacity=".176"/><stop offset=".237" stop-color="#8c8a8b" stop-opacity=".306"/><stop offset=".338" stop-color="#6b6868" stop-opacity=".437"/><stop offset=".44" stop-color="#4f4c4d" stop-opacity=".568"/><stop offset=".541" stop-color="#3b3839" stop-opacity=".699"/><stop offset=".643" stop-color="#302b2c" stop-opacity=".831"/><stop offset=".745" stop-color="#2b2727" stop-opacity=".963"/><stop offset="1" stop-color="#010101"/></linearGradient><path d="M11.3 15.9s1.3.2 2.3.2 2.3-.2 2.3-.2.3-.9.3-2.3c0-1.3-.3-2.4-.3-2.4h0l-4.6 4.7h0 0z" opacity=".5" fill="url(#B)"/><path d="M15.8 11.2s-.4-1.1-.4-2.2c0-1.2.4-2.4.4-2.4s1.3-.2 2.3-.2a14.1 14.1 0 0 1 2.2.2 10.2 10.2 0 0 0 .3 2.4c0 1.4-.3 2.3-.3 2.3s-1.3.2-2.3.2l-2.2-.3h0z" fill="#01a24b"/><linearGradient id="C" gradientUnits="userSpaceOnUse" x1="21.977" y1="7.255" x2="18.19" y2="11.048"><stop offset="0" stop-color="#fff" stop-opacity="0"/><stop offset=".037" stop-color="#eae9e9" stop-opacity=".047"/><stop offset=".136" stop-color="#b9b8b8" stop-opacity=".176"/><stop offset=".237" stop-color="#8c8a8b" stop-opacity=".306"/><stop offset=".338" stop-color="#6b6868" stop-opacity=".437"/><stop offset=".44" stop-color="#4f4c4d" stop-opacity=".568"/><stop offset=".541" stop-color="#3b3839" stop-opacity=".699"/><stop offset=".643" stop-color="#302b2c" stop-opacity=".831"/><stop offset=".745" stop-color="#2b2727" stop-opacity=".963"/><stop offset="1" stop-color="#010101"/></linearGradient><path d="M15.8 11.2s1.3.2 2.3.2 2.3-.2 2.3-.2.3-.9.3-2.3c0-1.3-.3-2.4-.3-2.4l-4.6 4.7h0 0z" opacity=".5" fill="url(#C)"/><path d="M11.3 11.2s.4-1.1.4-2.2c0-1.2-.4-2.4-.4-2.4s-1.3-.3-2.4-.3-2.2.2-2.2.2-.3 1.1-.3 2.4c0 1.4.3 2.3.3 2.3s1.3.2 2.3.2 2.3-.2 2.3-.2h0z" fill="#01a24b"/><linearGradient id="D" gradientUnits="userSpaceOnUse" x1="-2774.242" y1="3599.75" x2="-2770.872" y2="3603.116" gradientTransform="matrix(0 1.1252 1.1252 0 -4045.2498 3128.7708)"><stop offset="0" stop-color="#fff" stop-opacity="0"/><stop offset=".037" stop-color="#eae9e9" stop-opacity=".047"/><stop offset=".136" stop-color="#b9b8b8" stop-opacity=".176"/><stop offset=".237" stop-color="#8c8a8b" stop-opacity=".306"/><stop offset=".338" stop-color="#6b6868" stop-opacity=".437"/><stop offset=".44" stop-color="#4f4c4d" stop-opacity=".568"/><stop offset=".541" stop-color="#3b3839" stop-opacity=".699"/><stop offset=".643" stop-color="#302b2c" stop-opacity=".831"/><stop offset=".745" stop-color="#2b2727" stop-opacity=".963"/><stop offset="1" stop-color="#010101"/></linearGradient><path d="M11.3 11.2s-1.3.2-2.3.2-2.3-.2-2.3-.2-.3-.9-.3-2.3c0-1.3.3-2.4.3-2.4h0l4.6 4.7h0 0z" opacity=".5" fill="url(#D)"/></svg>