<?xml version="1.0" encoding="utf-8"?>
<!-- Generator: Adobe Illustrator 24.2.1, SVG Export Plug-In . SVG Version: 6.00 Build 0)  -->
<svg version="1.1" id="Layer_1" xmlns="http://www.w3.org/2000/svg" xmlns:xlink="http://www.w3.org/1999/xlink" x="0px" y="0px"
	width="100px" height="100px" viewBox="0 0 100 100" style="enable-background:new 0 0 100 100;" xml:space="preserve">
<g>
	<g>
		<path style="fill:#E8E8E8;" d="M50,0c27.6,0,50,22.4,50,50s-22.4,50-50,50S0,77.6,0,50S22.4,0,50,0"/>
		<path style="fill:#FFFFFF;" d="M50,1C77,1,99,23,99,50S77.1,99,50,99S1,77,1,50S23,1,50,1"/>
	</g>
	<g>
		<path style="fill:#268CC0;" d="M21.3,47.8h-6c-0.8,0-1.5,0.7-1.5,1.5v7.8c0,0.8,0.7,1.5,1.5,1.5h6c0.8,0,1.5-0.7,1.5-1.5v-7.8
			C22.9,48.4,22.2,47.8,21.3,47.8z M22,56.9c0,0.4-0.3,0.8-0.8,0.8h-5.8c-0.4,0-0.8-0.3-0.8-0.8v-7.5c0-0.4,0.3-0.8,0.8-0.8h5.8
			c0.4,0,0.8,0.3,0.8,0.8L22,56.9L22,56.9z"/>
		<path style="fill:#D92A2D;" d="M9.7,51.3c-0.4,0-0.8-0.3-0.8-0.8v-7.5c0-0.4,0.3-0.8,0.8-0.8h5.8c0.4,0,0.8,0.3,0.8,0.8v0.9h0.9
			v-1c0-0.8-0.7-1.5-1.5-1.5h-6c-0.8,0-1.5,0.7-1.5,1.5v7.8c0,0.8,0.7,1.5,1.5,1.5h0.7v-0.9H9.7z"/>
		<path style="fill:#F3B21D;" d="M12.7,54.5c-0.4,0-0.8-0.3-0.8-0.8v-7.5c0-0.4,0.3-0.8,0.8-0.8h5.8c0.4,0,0.8,0.3,0.8,0.8V47h0.9
			v-0.9c0-0.8-0.7-1.5-1.5-1.5h-6c-0.8,0-1.5,0.7-1.5,1.5V54c0,0.8,0.7,1.5,1.5,1.5H13v-0.9H12.7z"/>
		<g>
			<path d="M31.2,46.1c0.8,0,1.4,0.2,1.9,0.4l0.4-1.4c-0.4-0.2-1.2-0.4-2.3-0.4c-2.9,0-5.1,1.9-5.1,5c0,2.9,1.8,4.8,4.9,4.8
				c1.2,0,2.1-0.2,2.5-0.4l-0.3-1.4c-0.5,0.2-1.2,0.3-1.9,0.3c-2.1,0-3.3-1.3-3.3-3.4C27.8,47.3,29.3,46.1,31.2,46.1z"/>
			<rect x="34.7" y="44.3" width="1.7" height="10.1"/>
			<path d="M41.3,47.3c-2.2,0-3.4,1.8-3.4,3.7c0,2.1,1.3,3.5,3.6,3.5c1,0,1.8-0.2,2.4-0.4l-0.3-1.2c-0.5,0.2-1.1,0.3-1.9,0.3
				c-1.1,0-2.1-0.5-2.1-1.8h4.6c0-0.2,0.1-0.4,0.1-0.7C44.3,49.1,43.5,47.3,41.3,47.3z M42.6,50.1h-3c0.1-0.7,0.5-1.7,1.6-1.7
				C42.4,48.5,42.6,49.5,42.6,50.1z"/>
			<path d="M51,50.2c0-1.5-0.6-2.9-2.8-2.9c-1.1,0-2,0.3-2.5,0.6L46,49c0.5-0.3,1.2-0.5,1.9-0.5c1.2,0,1.4,0.8,1.4,1.2v0.1
				c-2.5,0-4.1,0.9-4.1,2.6c0,1,0.8,2.1,2.2,2.1c0.9,0,1.6-0.4,2-0.9h0l0.1,0.8h1.6c-0.1-0.4-0.1-1-0.1-1.7L51,50.2L51,50.2z
				 M49.3,51.9c0,0.1,0,0.3,0,0.4c-0.2,0.5-0.7,0.9-1.4,0.9c-0.6,0-1-0.3-1-1c0-1,1.2-1.3,2.4-1.3V51.9z"/>
			<path d="M54.4,48.7L54.4,48.7l-0.1-1.3h-1.5c0,0.6,0.1,1.3,0.1,2.2v4.7h1.7v-3.6c0-0.2,0-0.4,0-0.5c0.2-0.8,0.7-1.3,1.6-1.3
				c0.2,0,0.4,0,0.5,0v-1.6c-0.1,0-0.2,0-0.4,0C55.6,47.3,54.8,47.8,54.4,48.7z"/>
			<path d="M62.1,49.2L62.1,49.2c1-0.4,1.6-1.2,1.6-2.1c0-0.8-0.3-1.3-0.8-1.7c-0.6-0.5-1.4-0.7-2.6-0.7c-0.8,0-1.7,0.1-2.3,0.2v9.4
				c0.4,0.1,1.1,0.1,1.9,0.1c1.6,0,2.6-0.3,3.3-0.9c0.5-0.5,0.8-1.1,0.8-1.9C64.1,50.2,63,49.4,62.1,49.2z M59.3,45.7
				c0.2,0,0.5-0.1,1.1-0.1c1.2,0,2.1,0.5,2.1,1.6c0,0.9-0.8,1.6-2.1,1.6h-1.1L59.3,45.7L59.3,45.7z M60.3,53.4c-0.4,0-0.8,0-1-0.1
				v-3.6h1c1.3,0,2.5,0.6,2.5,1.8C62.8,53,61.6,53.4,60.3,53.4z"/>
			<path d="M68.6,47.3c-1.9,0-3.4,1.3-3.4,3.6c0,2.2,1.4,3.5,3.3,3.5c1.6,0,3.4-1.1,3.4-3.6C71.9,48.8,70.6,47.3,68.6,47.3z
				 M68.6,53.5c-1.2,0-2.1-1.1-2.1-2.6c0-1.3,0.6-2.6,2.1-2.6c1.5,0,2.1,1.5,2.1,2.6C70.7,52.4,69.8,53.5,68.6,53.5z"/>
			<path d="M76.4,47.3c-1.9,0-3.4,1.3-3.4,3.6c0,2.2,1.4,3.5,3.3,3.5c1.6,0,3.4-1.1,3.4-3.6C79.7,48.8,78.4,47.3,76.4,47.3z
				 M76.4,53.5c-1.2,0-2.1-1.1-2.1-2.6c0-1.3,0.6-2.6,2.1-2.6c1.5,0,2.1,1.5,2.1,2.6C78.4,52.4,77.6,53.5,76.4,53.5z"/>
			<path d="M86.7,47.5h-1.5l-2,2.4c-0.2,0.2-0.4,0.5-0.6,0.8h0v-6.3h-1.2v10.1h1.2v-2.6l0.6-0.7l2.4,3.3H87l-3-4L86.7,47.5z"/>
			<path d="M90.1,50.4c-0.9-0.4-1.3-0.6-1.3-1.2c0-0.5,0.4-0.9,1.1-0.9c0.6,0,1.1,0.2,1.4,0.4l0.3-0.9c-0.4-0.2-1-0.4-1.7-0.4
				c-1.5,0-2.4,0.9-2.4,2c0,0.8,0.6,1.5,1.8,1.9c0.9,0.3,1.3,0.7,1.3,1.2c0,0.6-0.4,1-1.3,1c-0.6,0-1.3-0.3-1.7-0.5L87.5,54
				c0.5,0.3,1.2,0.5,1.9,0.5c1.6,0,2.5-0.9,2.5-2.1C91.9,51.4,91.3,50.8,90.1,50.4z"/>
		</g>
	</g>
</g>
</svg>
