<?xml version="1.0" encoding="utf-8"?>
<!-- Generator: Adobe Illustrator 24.2.1, SVG Export Plug-In . SVG Version: 6.00 Build 0)  -->
<svg version="1.1" id="Layer_1" xmlns="http://www.w3.org/2000/svg" xmlns:xlink="http://www.w3.org/1999/xlink" x="0px" y="0px"
	 viewBox="0 0 321.9 69" style="enable-background:new 0 0 321.9 69;" xml:space="preserve">
<g>
	<polygon style="fill:#FFB700;" points="69.7,69 42.1,34.4 69.6,0 0,0 0,69 	"/>
	<path style="fill:#005CB9;" d="M122.5,59.4h-9.9l-11.2-16.1l-5.2,5.4v10.7h-8.5V7.9h8.5v30.8l15.5-16.5h10.4l-14.8,15.2L122.5,59.4
		z"/>
	<path style="fill:#005CB9;" d="M148.8,59.4v-4.6c-2.5,3-6.4,5.4-12.1,5.4c-7.1,0-13.3-4-13.3-11.5v-0.1c0-8,6.4-12,15.1-12
		c4.5,0,7.4,0.6,10.3,1.6v-0.9c0-5.2-3.2-8-9.2-8c-4.2,0-7.3,0.9-10.7,2.3l-2.3-6.8c4.1-1.8,8.1-3.1,14.2-3.1
		c11,0,16.4,5.8,16.4,15.7v22.1h-8.4V59.4z M149,43.6c-2.2-0.8-5.2-1.5-8.5-1.5c-5.4,0-8.5,2.2-8.5,6v0.1c0,3.5,3.2,5.5,7.2,5.5
		c5.6,0,9.9-3.2,9.9-7.8v-2.3H149z"/>
	<path style="fill:#005CB9;" d="M178.2,60.1c-5.3,0-11.1-1.9-15.8-5.6l3.8-5.8c4,3,8.4,4.6,12.2,4.6c3.7,0,5.8-1.6,5.8-4v-0.1
		c0-2.9-4-3.9-8.3-5.2c-5.5-1.6-11.6-3.8-11.6-10.9V33c0-7.1,5.9-11.4,13.3-11.4c4.7,0,9.7,1.6,13.7,4.2l-3.4,6.1
		c-3.6-2.2-7.4-3.5-10.5-3.5c-3.3,0-5.2,1.6-5.2,3.7v0.1c0,2.7,4,3.8,8.4,5.2c5.4,1.7,11.6,4.2,11.6,10.9v0.1
		C192,56.2,185.9,60.1,178.2,60.1z"/>
	<path style="fill:#005CB9;" d="M207.1,59.4h-8.5V7.9h8.5v20c2.4-3.5,5.9-6.6,11.6-6.6c8.5,0,13.3,5.7,13.3,14.4v23.7h-8.5V38.2
		c0-5.8-2.9-9.1-8-9.1c-4.9,0-8.4,3.5-8.4,9.2V59.4z"/>
	<path style="fill:#005CB9;" d="M257.9,60.2c-11.4,0-19.8-8.7-19.8-19.3c0-10.7,8.5-19.5,19.9-19.5s19.8,8.7,19.8,19.4
		C277.9,51.4,269.4,60.2,257.9,60.2z M257.9,28.8c-6.8,0-11.2,5.4-11.2,11.9c0,6.6,4.7,12.1,11.4,12.1c6.9,0,11.3-5.4,11.3-11.9
		C269.3,34.3,264.6,28.8,257.9,28.8z"/>
	<path style="fill:#005CB9;" d="M302,60.2c-11.4,0-19.8-8.7-19.8-19.3c0-10.7,8.5-19.5,19.9-19.5s19.8,8.7,19.8,19.4
		C322,51.4,313.5,60.2,302,60.2z M302,28.8c-6.8,0-11.2,5.4-11.2,11.9c0,6.6,4.7,12.1,11.4,12.1c6.9,0,11.3-5.4,11.3-11.9
		C313.5,34.3,308.7,28.8,302,28.8z"/>
</g>
</svg>
