<?xml version="1.0" encoding="utf-8"?>
<!-- Generator: Adobe Illustrator 24.2.1, SVG Export Plug-In . SVG Version: 6.00 Build 0)  -->
<svg version="1.1" id="Layer_1" xmlns="http://www.w3.org/2000/svg" xmlns:xlink="http://www.w3.org/1999/xlink" x="0px" y="0px"
	width="100px" height="100px" viewBox="0 0 100 100" style="enable-background:new 0 0 100 100;" xml:space="preserve">
<g>
	<g>
		<path style="fill:#E8E8E8;" d="M50,0c27.6,0,50,22.4,50,50s-22.4,50-50,50S0,77.6,0,50S22.4,0,50,0"/>
		<path style="fill:#FFFFFF;" d="M50,1c27,0,49,22,49,49S77.1,99,50,99S1,77,1,50S23,1,50,1"/>
	</g>
	<g>
		<path style="fill:#E8E8E8;" d="M50,0c27.6,0,50,22.4,50,50s-22.4,50-50,50S0,77.6,0,50S22.4,0,50,0"/>
		<path style="fill:#FFFFFF;" d="M50,1c27,0,49,22,49,49S77.1,99,50,99S1,77,1,50S23,1,50,1"/>
	</g>
	<g>
		<polygon style="fill:#FFB700;" points="27.5,58.5 20.7,50 27.5,41.5 10.4,41.5 10.4,58.5 		"/>
		<path style="fill:#005CB9;" d="M40.5,56.1h-2.4l-2.8-4l-1.3,1.3v2.6H32V43.5h2.1V51l3.8-4.1h2.6l-3.6,3.7L40.5,56.1z"/>
		<path style="fill:#005CB9;" d="M47,56.1V55c-0.6,0.7-1.6,1.3-3,1.3c-1.7,0-3.3-1-3.3-2.8v0c0-2,1.6-3,3.7-3c1.1,0,1.8,0.1,2.5,0.4
			v-0.2c0-1.3-0.8-2-2.3-2c-1,0-1.8,0.2-2.6,0.6l-0.6-1.7c1-0.4,2-0.8,3.5-0.8c2.7,0,4,1.4,4,3.9v5.4L47,56.1L47,56.1z M47.1,52.2
			c-0.5-0.2-1.3-0.4-2.1-0.4c-1.3,0-2.1,0.5-2.1,1.5v0c0,0.9,0.8,1.4,1.8,1.4c1.4,0,2.4-0.8,2.4-1.9L47.1,52.2L47.1,52.2z"/>
		<path style="fill:#005CB9;" d="M54.2,56.3c-1.3,0-2.7-0.5-3.9-1.4l0.9-1.4c1,0.7,2.1,1.1,3,1.1c0.9,0,1.4-0.4,1.4-1v0
			c0-0.7-1-1-2-1.3c-1.4-0.4-2.9-0.9-2.9-2.7v0c0-1.7,1.5-2.8,3.3-2.8c1.2,0,2.4,0.4,3.4,1l-0.8,1.5c-0.9-0.5-1.8-0.9-2.6-0.9
			c-0.8,0-1.3,0.4-1.3,0.9v0c0,0.7,1,0.9,2.1,1.3c1.3,0.4,2.9,1,2.9,2.7v0C57.6,55.3,56.1,56.3,54.2,56.3z"/>
		<path style="fill:#005CB9;" d="M61.4,56.1h-2.1V43.5h2.1v4.9c0.6-0.9,1.5-1.6,2.9-1.6c2.1,0,3.3,1.4,3.3,3.5v5.8h-2.1v-5.2
			c0-1.4-0.7-2.2-2-2.2c-1.2,0-2.1,0.9-2.1,2.3V56.1z"/>
		<path style="fill:#005CB9;" d="M73.9,56.3c-2.8,0-4.9-2.1-4.9-4.8c0-2.6,2.1-4.8,4.9-4.8c2.8,0,4.9,2.1,4.9,4.8
			C78.8,54.2,76.7,56.3,73.9,56.3z M73.9,48.6c-1.7,0-2.8,1.3-2.8,2.9c0,1.6,1.2,3,2.8,3c1.7,0,2.8-1.3,2.8-2.9
			C76.7,50,75.5,48.6,73.9,48.6z"/>
		<path style="fill:#005CB9;" d="M84.7,56.3c-2.8,0-4.9-2.1-4.9-4.8c0-2.6,2.1-4.8,4.9-4.8s4.9,2.1,4.9,4.8
			C89.6,54.2,87.6,56.3,84.7,56.3z M84.7,48.6c-1.7,0-2.8,1.3-2.8,2.9c0,1.6,1.2,3,2.8,3c1.7,0,2.8-1.3,2.8-2.9
			C87.6,50,86.4,48.6,84.7,48.6z"/>
	</g>
</g>
</svg>
