<?xml version="1.0" encoding="utf-8"?>
<!-- Generator: Adobe Illustrator 24.2.1, SVG Export Plug-In . SVG Version: 6.00 Build 0)  -->
<svg version="1.1" id="Layer_1" xmlns="http://www.w3.org/2000/svg" xmlns:xlink="http://www.w3.org/1999/xlink" x="0px" y="0px"
	 viewBox="0 0 245.1 34.5" style="enable-background:new 0 0 245.1 34.5;" xml:space="preserve">
<g>
	<g>
		<path style="fill:#E5426E;" d="M24.7,12.1c0,0-22.6-15.6-23.9,10c0,0-3.7-10.6,4.3-17.3c0,0,8.8-7.9,21.7,0.2l1.4-4.7l9.5,14.2
			L23,16.7C23,16.6,24.3,13.9,24.7,12.1z"/>
		<path style="fill:#E5426E;" d="M17,22.7c0,0,22.6,15.6,23.9-10c0,0,3.7,10.6-4.3,17.3c0,0-8.8,7.9-21.7-0.2l-1.4,4.7L3.9,20.3
			l14.8-2.1C18.7,18.1,17.5,20.8,17,22.7z"/>
	</g>
	<path style="fill:#282C2F;" d="M82.7,33.1h-4.5l-12.1-16l-3.4,3.1v12.9h-3.8v-33h3.8v16.3L77.7,0.1h4.5L69,14.5L82.7,33.1z
		 M99.1,33.1l-0.7-3.3h-0.2c-1.2,1.4-2.3,2.4-3.5,3c-1.1,0.5-2.6,0.8-4.3,0.8c-2.3,0-4-0.5-5.4-1.8c-1.3-1.2-2-2.8-2-5
		c0-4.7,3.7-7.1,11.2-7.3l4-0.1v-1.4c0-1.9-0.5-3.2-1.2-4c-0.8-0.9-2.1-1.3-3.7-1.3c-2,0-4.2,0.5-6.6,1.8l-1.1-2.6
		c1.1-0.7,2.4-1.1,3.7-1.4c1.3-0.3,2.8-0.5,4-0.5c2.8,0,4.8,0.7,6.1,1.9c1.3,1.2,2,3.2,2,5.9v15.8h-2.4L99.1,33.1L99.1,33.1z
		 M91.2,30.5c2.2,0,4-0.5,5.1-1.8c1.2-1.2,1.9-2.8,1.9-5v-2.1l-3.5,0.1c-2.8,0.1-4.8,0.5-6,1.3s-1.9,2-1.9,3.6
		c0,1.3,0.3,2.2,1.2,2.8C88.8,30.2,89.9,30.5,91.2,30.5L91.2,30.5z M123.8,26.7c0,2.2-0.8,3.8-2.4,5c-1.6,1.2-3.8,1.8-6.8,1.8
		c-3.1,0-5.5-0.5-7.2-1.4v-3.3c1.1,0.5,2.3,1,3.6,1.3s2.5,0.5,3.7,0.5c1.9,0,3.3-0.3,4.3-0.9c1-0.5,1.4-1.4,1.4-2.6
		c0-0.9-0.5-1.6-1.2-2.3c-0.8-0.7-2.3-1.4-4.6-2.3c-2.2-0.8-3.7-1.5-4.6-2.1c-0.9-0.6-1.5-1.3-2.1-2.1c-0.5-0.8-0.7-1.6-0.7-2.8
		c0-1.9,0.8-3.4,2.3-4.5c1.5-1.1,3.6-1.6,6.3-1.6c2.5,0,4.9,0.5,7.3,1.5l-1.2,2.8c-2.3-1-4.4-1.4-6.3-1.4c-1.6,0-3,0.2-3.7,0.8
		c-0.9,0.5-1.3,1.2-1.3,2.2c0,0.7,0.1,1.1,0.5,1.5c0.3,0.5,0.9,0.9,1.5,1.2c0.7,0.5,2.1,1,4,1.8c2.8,1,4.6,2,5.6,3.1
		C123.4,24,123.8,25.2,123.8,26.7L123.8,26.7z M145.5,33.1v-15c0-1.9-0.5-3.3-1.3-4.3c-0.9-0.9-2.2-1.4-4-1.4c-2.4,0-4.2,0.7-5.4,2
		c-1.1,1.3-1.6,3.5-1.6,6.5v12.1h-3.5V0h3.5v10c0,1.2-0.1,2.2-0.2,3h0.2c0.7-1.1,1.6-2,3-2.6c1.3-0.7,2.8-1,4.4-1
		c2.8,0,4.9,0.7,6.3,2c1.4,1.3,2.1,3.5,2.1,6.5v15.1h-3.4L145.5,33.1L145.5,33.1z M159.4,33.1h-3.8V0.2h18.3v3.4h-14.4v12.1h13.7V19
		h-13.6v14L159.4,33.1L159.4,33.1L159.4,33.1z M182,33.1h-3.5V0.2h3.5V33.1z M209.4,21.5c0,3.7-1,6.7-2.8,8.9
		c-1.9,2.1-4.5,3.2-7.9,3.2c-2.1,0-4-0.5-5.5-1.4c-1.6-1-2.8-2.4-3.7-4.2c-0.9-1.9-1.3-4-1.3-6.3c0-3.7,1-6.7,2.8-8.8
		c1.9-2.1,4.5-3.2,7.9-3.2c3.3,0,5.8,1.1,7.7,3.2C208.4,14.9,209.4,17.7,209.4,21.5z M191.8,21.5c0,3,0.5,5.3,1.8,6.8
		c1.2,1.5,3,2.3,5.3,2.3s4-0.8,5.3-2.3s1.8-3.8,1.8-6.8s-0.5-5.1-1.8-6.7s-3-2.3-5.3-2.3s-4,0.8-5.1,2.3
		C192.3,16.2,191.8,18.5,191.8,21.5L191.8,21.5z M234.5,33.1l-4.3-13.6c-0.2-0.9-0.8-2.8-1.5-5.7h-0.2c-0.5,2.4-1.1,4.4-1.4,5.7
		l-4.4,13.6h-4L212.4,10h3.7c1.5,5.8,2.6,10.3,3.4,13.3c0.8,3.1,1.2,5,1.3,6.1h0.2c0.1-0.8,0.5-1.9,0.8-3.1c0.3-1.3,0.7-2.3,0.9-3.1
		l4.2-13.3h3.8l4.2,13.3c0.8,2.4,1.3,4.5,1.6,6.1h0.2c0.1-0.5,0.2-1.3,0.5-2.3c0.2-1.1,1.8-6.8,4.4-17.1h3.6L238.7,33L234.5,33.1
		L234.5,33.1L234.5,33.1z"/>
</g>
</svg>
