<?xml version="1.0" encoding="utf-8"?>
<!-- Generator: Adobe Illustrator 24.2.1, SVG Export Plug-In . SVG Version: 6.00 Build 0)  -->
<svg version="1.1" id="Layer_1" xmlns="http://www.w3.org/2000/svg" xmlns:xlink="http://www.w3.org/1999/xlink" x="0px" y="0px"
	width="100px" height="100px" viewBox="0 0 100 100" style="enable-background:new 0 0 100 100;" xml:space="preserve">
<g>
	<g>
		<path style="fill:#E8E8E8;" d="M50,0c27.6,0,50,22.4,50,50s-22.4,50-50,50S0,77.6,0,50S22.4,0,50,0"/>
		<path style="fill:#FFFFFF;" d="M50,1c27,0,49,22,49,49S77.1,99,50,99S1,77,1,50S23,1,50,1"/>
	</g>
	<g>
		<path style="fill:#E8E8E8;" d="M50,0c27.6,0,50,22.4,50,50s-22.4,50-50,50S0,77.6,0,50S22.4,0,50,0"/>
		<path style="fill:#FFFFFF;" d="M50,1c27,0,49,22,49,49S77.1,99,50,99S1,77,1,50S23,1,50,1"/>
	</g>
	<g>
		<g>
			<path style="fill:#E5426E;" d="M16,48.2c0,0-7.8-5.4-8.3,3.5c0,0-1.3-3.7,1.5-6c0,0,3-2.7,7.5,0.1l0.5-1.6l3.3,5l-5.1,0.8
				C15.4,49.8,15.8,48.8,16,48.2z"/>
			<path style="fill:#E5426E;" d="M13.3,51.9c0,0,7.8,5.4,8.3-3.5c0,0,1.3,3.7-1.5,6c0,0-3,2.7-7.5-0.1L12,56l-3.3-5l5.1-0.7
				C13.9,50.3,13.5,51.2,13.3,51.9z"/>
		</g>
		<path style="fill:#282C2F;" d="M36.1,55.5h-1.6l-4.2-5.6L29.2,51v4.5h-1.3V44h1.3v5.7l5.2-5.7H36l-4.6,5L36.1,55.5z M41.9,55.5
			l-0.2-1.1h-0.1c-0.4,0.5-0.8,0.8-1.2,1c-0.4,0.2-0.9,0.3-1.5,0.3c-0.8,0-1.4-0.2-1.9-0.6c-0.5-0.4-0.7-1-0.7-1.7
			c0-1.6,1.3-2.5,3.9-2.5l1.4,0v-0.5c0-0.6-0.2-1.1-0.4-1.4c-0.3-0.3-0.7-0.5-1.3-0.5c-0.7,0-1.4,0.2-2.3,0.6l-0.4-0.9
			c0.4-0.2,0.8-0.4,1.3-0.5c0.5-0.1,1-0.2,1.4-0.2c1,0,1.7,0.2,2.1,0.6c0.5,0.4,0.7,1.1,0.7,2.1v5.5L41.9,55.5L41.9,55.5L41.9,55.5z
			 M39.1,54.6c0.8,0,1.4-0.2,1.8-0.6c0.4-0.4,0.6-1,0.6-1.7v-0.7l-1.2,0c-1,0-1.7,0.2-2.1,0.5c-0.4,0.3-0.6,0.7-0.6,1.3
			c0,0.5,0.1,0.8,0.4,1C38.3,54.5,38.6,54.6,39.1,54.6L39.1,54.6z M50.5,53.3c0,0.8-0.3,1.3-0.8,1.7c-0.6,0.4-1.3,0.6-2.4,0.6
			c-1.1,0-1.9-0.2-2.5-0.5V54c0.4,0.2,0.8,0.3,1.3,0.5c0.5,0.1,0.9,0.2,1.3,0.2c0.6,0,1.1-0.1,1.5-0.3c0.3-0.2,0.5-0.5,0.5-0.9
			c0-0.3-0.2-0.6-0.4-0.8c-0.3-0.2-0.8-0.5-1.6-0.8c-0.8-0.3-1.3-0.5-1.6-0.7c-0.3-0.2-0.5-0.5-0.7-0.7c-0.2-0.3-0.2-0.6-0.2-1
			c0-0.6,0.3-1.2,0.8-1.6c0.5-0.4,1.3-0.6,2.2-0.6c0.9,0,1.7,0.2,2.5,0.5l-0.4,1c-0.8-0.3-1.5-0.5-2.2-0.5c-0.6,0-1,0.1-1.3,0.3
			c-0.3,0.2-0.5,0.4-0.5,0.8c0,0.2,0,0.4,0.2,0.5c0.1,0.2,0.3,0.3,0.5,0.4c0.2,0.2,0.7,0.3,1.4,0.6c1,0.3,1.6,0.7,1.9,1.1
			C50.3,52.3,50.5,52.8,50.5,53.3L50.5,53.3z M58,55.5v-5.2c0-0.6-0.2-1.1-0.5-1.5c-0.3-0.3-0.8-0.5-1.4-0.5c-0.8,0-1.4,0.2-1.9,0.7
			c-0.4,0.5-0.6,1.2-0.6,2.2v4.2h-1.2V44h1.2v3.5c0,0.4,0,0.8-0.1,1h0.1c0.2-0.4,0.6-0.7,1-0.9c0.5-0.2,1-0.3,1.5-0.3
			c1,0,1.7,0.2,2.2,0.7c0.5,0.5,0.7,1.2,0.7,2.2v5.3L58,55.5L58,55.5L58,55.5z M62.8,55.5h-1.3V44.1h6.4v1.2h-5v4.2h4.8v1.2h-4.7
			L62.8,55.5L62.8,55.5L62.8,55.5L62.8,55.5z M70.7,55.5h-1.2V44.1h1.2V55.5z M80.2,51.5c0,1.3-0.3,2.3-1,3.1
			c-0.6,0.7-1.6,1.1-2.7,1.1c-0.7,0-1.4-0.2-1.9-0.5c-0.6-0.3-1-0.8-1.3-1.4c-0.3-0.6-0.5-1.4-0.5-2.2c0-1.3,0.3-2.3,1-3
			c0.6-0.7,1.6-1.1,2.7-1.1c1.1,0,2,0.4,2.7,1.1C79.9,49.2,80.2,50.2,80.2,51.5z M74.1,51.5c0,1,0.2,1.8,0.6,2.4
			c0.4,0.5,1,0.8,1.8,0.8c0.8,0,1.4-0.3,1.8-0.8c0.4-0.5,0.6-1.3,0.6-2.4s-0.2-1.8-0.6-2.3c-0.4-0.5-1-0.8-1.8-0.8
			c-0.8,0-1.4,0.3-1.8,0.8C74.3,49.6,74.1,50.4,74.1,51.5L74.1,51.5z M88.9,55.5l-1.5-4.7c-0.1-0.3-0.3-1-0.5-2h-0.1
			c-0.2,0.8-0.4,1.5-0.5,2l-1.5,4.7h-1.4l-2.2-8h1.3c0.5,2,0.9,3.6,1.2,4.6c0.3,1.1,0.4,1.7,0.5,2.1h0.1c0-0.3,0.2-0.6,0.3-1.1
			c0.1-0.5,0.2-0.8,0.3-1.1l1.4-4.6h1.3l1.4,4.6c0.3,0.8,0.5,1.6,0.6,2.1h0.1c0-0.2,0.1-0.5,0.2-0.8c0.1-0.4,0.6-2.4,1.5-5.9h1.3
			l-2.2,8L88.9,55.5L88.9,55.5L88.9,55.5z"/>
	</g>
</g>
</svg>
