<?xml version="1.0" encoding="utf-8"?>
<!-- Generator: Adobe Illustrator 24.2.1, SVG Export Plug-In . SVG Version: 6.00 Build 0)  -->
<svg version="1.1" id="Layer_1" xmlns="http://www.w3.org/2000/svg" xmlns:xlink="http://www.w3.org/1999/xlink" x="0px" y="0px"
	 viewBox="0 0 983.3 308" style="enable-background:new 0 0 983.3 308;" xml:space="preserve">
<g>
	<polygon style="fill-rule:evenodd;clip-rule:evenodd;fill:#18264E;" points="0,99 0,308 191.4,204.1 191.4,108.9 8.1,298 61.7,139 
			"/>
	<polygon style="fill-rule:evenodd;clip-rule:evenodd;fill:#18264E;" points="0,85.2 0,0 184.6,100.2 122.4,144.9 	"/>
	<path style="fill-rule:evenodd;clip-rule:evenodd;fill:#18264E;" d="M245.4,140.3v80.3h14.9c6.7,0,12.6-0.9,17.9-2.7
		c5.2-1.8,9.7-4.4,13.4-7.9c3.7-3.5,6.5-7.8,8.3-12.9c1.9-5.1,2.9-11,2.9-17.7c0-26.1-13.8-39.1-41.5-39.1L245.4,140.3L245.4,140.3
		L245.4,140.3L245.4,140.3z M236.4,228.9v-96.8h25.5c16.6,0,29.1,4,37.6,11.9c8.5,7.9,12.7,19.6,12.7,35.2c0,7.5-1.2,14.3-3.6,20.4
		c-2.4,6.1-5.8,11.3-10.2,15.7c-4.5,4.4-9.8,7.7-16.2,10c-6.3,2.3-13.5,3.6-21.5,3.6L236.4,228.9L236.4,228.9L236.4,228.9
		L236.4,228.9z"/>
	<path style="fill-rule:evenodd;clip-rule:evenodd;fill:#18264E;" d="M345.5,241.3c-2.7,6.8-5.8,11.8-9.3,15
		c-3.5,3.3-7.8,4.9-12.8,4.9c-2.5,0-4.6-0.3-6.3-0.9v-8.1c1,0.4,2,0.6,3,0.8c1,0.2,2.1,0.3,3.1,0.3c2.8,0,5.3-0.9,7.4-2.7
		c2.1-1.8,3.9-4.4,5.5-8.1l6-14.2l-26.7-68.9h9.6l19.9,54.8c0.3,0.7,0.5,1.5,0.8,2.5s0.5,1.8,0.8,2.7h0.3c0.2-0.8,0.4-1.5,0.6-2.4
		c0.2-0.8,0.5-1.7,0.8-2.6l21.1-54.9h9.1L345.5,241.3z"/>
	<path style="fill-rule:evenodd;clip-rule:evenodd;fill:#18264E;" d="M430.8,228.7v-39.8c0-15.6-5.6-23.4-17-23.4
		c-3,0-5.8,0.6-8.4,1.8c-2.6,1.2-4.8,2.8-6.6,5c-1.9,2.1-3.3,4.6-4.4,7.5c-1,2.9-1.6,6-1.6,9.4v39.6h-8.6v-69.1h8.6v12.1h0.3
		c5.1-9.1,12.8-13.7,23-13.7c7.5,0,13.3,2.5,17.2,7.4c4,4.9,6,12,6,21.3v42.1L430.8,228.7L430.8,228.7z"/>
	<path style="fill-rule:evenodd;clip-rule:evenodd;fill:#18264E;" d="M474.8,195.2c-3,0.5-5.7,1-7.9,1.7c-2.2,0.7-4,1.6-5.4,2.7
		c-1.5,1.1-2.5,2.6-3.2,4.2c-0.7,1.7-1,3.8-1,6.2c0,1.8,0.3,3.6,1,5.1c0.6,1.6,1.6,2.9,2.8,4.1c1.3,1.1,2.7,2,4.5,2.7
		c1.8,0.6,3.7,0.9,6,0.9c3,0,5.8-0.6,8.3-1.8c2.5-1.1,4.7-2.8,6.6-4.9c1.9-2.1,3.3-4.6,4.4-7.4c1-2.9,1.5-6,1.5-9.4v-6.8
		L474.8,195.2z M492.4,228.8v-12.3h-0.3c-2.2,4.4-5.3,7.9-9.1,10.3c-3.8,2.4-8.2,3.7-13.1,3.7c-3.3,0-6.3-0.5-8.9-1.4
		c-2.6-0.9-4.9-2.3-6.7-4c-1.9-1.7-3.3-3.8-4.3-6.2c-1-2.4-1.5-5.1-1.5-8.1c0-6.3,1.9-11.3,5.8-15c3.8-3.7,9.6-6.1,17.4-7.3l20.8-3
		c0-13.3-5.1-19.9-15.3-19.9c-8,0-15.4,2.9-22.2,8.8v-9.5c1.5-1,3-2,4.9-2.8c1.8-0.8,3.7-1.6,5.7-2.1c2-0.6,4-1.1,6.2-1.4
		c2.1-0.3,4.2-0.5,6.2-0.5c7.6,0,13.4,2.1,17.3,6.5c3.9,4.4,5.9,10.8,5.9,19.3v45L492.4,228.8L492.4,228.8L492.4,228.8L492.4,228.8z
		"/>
	<path style="fill-rule:evenodd;clip-rule:evenodd;fill:#18264E;" d="M601.7,228.7v-40.7c0-4.1-0.3-7.6-1-10.5
		c-0.6-2.9-1.6-5.2-2.9-7c-1.3-1.8-3-3.1-5.1-3.9c-2-0.8-4.5-1.2-7.3-1.2c-2.5,0-4.9,0.6-7.2,1.8c-2.3,1.2-4.2,2.8-5.9,4.9
		c-1.7,2.1-3,4.6-4,7.4c-1,2.8-1.5,5.9-1.5,9.2v40h-8.6v-41.5c0-14.5-5.5-21.7-16.7-21.7c-2.6,0-5,0.6-7.2,1.7
		c-2.2,1.1-4.1,2.8-5.8,4.8c-1.6,2.1-2.9,4.6-3.9,7.5c-0.9,2.9-1.3,6.1-1.3,9.6v39.6h-8.6v-69.1h8.6v11.2h0.3
		c4.9-8.5,11.9-12.8,21.3-12.8c2.4,0,4.7,0.4,6.9,1.1c2.1,0.7,4.1,1.8,5.8,3.1c1.7,1.3,3.2,2.9,4.4,4.8c1.3,1.8,2.1,3.9,2.8,6.1
		c2.4-4.9,5.6-8.6,9.5-11.2c3.9-2.6,8.3-3.9,13.2-3.9c15.2,0,22.8,9.4,22.8,28.1v42.7L601.7,228.7L601.7,228.7L601.7,228.7
		L601.7,228.7z"/>
	<path style="fill-rule:evenodd;clip-rule:evenodd;fill:#18264E;" d="M624.1,159.7h8.5v69h-8.5V159.7z M628.3,142.3
		c-1.7,0-3-0.6-4.3-1.8c-1.2-1.1-1.8-2.7-1.8-4.4c0-1.8,0.6-3.2,1.8-4.3c1.2-1.1,2.6-1.7,4.3-1.7c0.8,0,1.7,0.2,2.4,0.4
		c0.8,0.3,1.4,0.7,2,1.3c0.6,0.5,1,1.2,1.3,1.9c0.3,0.7,0.5,1.6,0.5,2.5c0,0.8-0.2,1.7-0.5,2.4c-0.3,0.8-0.8,1.4-1.3,2
		c-0.6,0.6-1.3,1-2,1.3C630.1,142.1,629.2,142.3,628.3,142.3"/>
	<path style="fill-rule:evenodd;clip-rule:evenodd;fill:#18264E;" d="M693.3,225.5c-5.1,3.1-11.3,4.7-18.5,4.8
		c-5,0-9.4-0.8-13.3-2.6c-4-1.8-7.3-4.2-10.1-7.3c-2.8-3.1-4.9-6.8-6.4-11.1c-1.5-4.2-2.2-8.9-2.2-13.9c0-5.2,0.8-10,2.3-14.6
		c1.5-4.6,3.8-8.5,6.9-11.9c3-3.4,6.7-6.1,11-8.1c4.3-2,9.3-3,14.9-3c5.7,0,10.9,1.1,15.5,3.3v9.2c-5-3.3-10.4-5-16.2-5
		c-4,0-7.7,0.8-10.9,2.4c-3.2,1.6-5.8,3.7-8,6.3s-3.8,5.8-5,9.4c-1.1,3.6-1.7,7.4-1.7,11.4c0,3.7,0.5,7.2,1.5,10.6
		c0.9,3.3,2.5,6.3,4.4,9c2,2.6,4.5,4.6,7.5,6.2c3,1.5,6.6,2.3,10.7,2.3c6.5,0,12.3-1.9,17.4-5.8L693.3,225.5L693.3,225.5
		L693.3,225.5z"/>
	<path style="fill-rule:evenodd;clip-rule:evenodd;fill:#18264E;" d="M699.7,216.3c1.3,1,2.7,1.9,4.3,2.8c1.5,0.8,3.1,1.5,4.8,2.1
		c1.6,0.6,3.3,1,5,1.3c1.6,0.3,3.2,0.4,4.8,0.4c10.3,0,15.5-3.9,15.5-11.6c0-1.8-0.4-3.3-1.1-4.6c-0.8-1.3-1.8-2.5-3.1-3.5
		c-1.4-1-3-2-4.9-2.9c-1.9-0.9-4-1.8-6.5-2.8c-3.2-1.3-6-2.6-8.3-4c-2.3-1.4-4.2-2.8-5.7-4.4c-1.5-1.6-2.6-3.3-3.3-5.3
		c-0.7-2-1.1-4.1-1.1-6.5c0-3,0.7-5.8,2-8.2c1.3-2.4,3.2-4.4,5.4-6.1c2.3-1.7,4.9-2.9,7.8-3.8c2.9-0.9,6-1.3,9.3-1.3
		c6,0,11.3,1.1,15.7,3.3v9.1c-5.2-3.3-10.8-5-16.8-5c-2.2,0-4.2,0.3-6,0.8c-1.8,0.5-3.3,1.3-4.6,2.3c-1.3,1-2.3,2.1-3,3.6
		c-0.7,1.4-1,2.9-1,4.6c0,1.7,0.3,3.2,0.8,4.5s1.4,2.5,2.5,3.4c1.2,1,2.6,2.1,4.5,3c1.9,0.9,4,1.9,6.7,3c3.4,1.4,6.3,2.7,8.7,4
		c2.4,1.3,4.5,2.8,6,4.4c1.6,1.6,2.7,3.3,3.5,5.2c0.8,1.9,1.2,4.1,1.2,6.7c0,3.1-0.6,5.9-2,8.3c-1.3,2.4-3.1,4.5-5.4,6.1
		c-2.3,1.7-5,2.9-8.1,3.8c-3.1,0.8-6.4,1.3-10,1.3c-7,0-13-1.5-17.7-4.4L699.7,216.3L699.7,216.3L699.7,216.3L699.7,216.3z"/>
	<path style="fill-rule:evenodd;clip-rule:evenodd;fill:#18264E;" d="M787.5,225.2v-14.7c6.3,5,13.4,7.5,21.4,7.5
		c6.5,0,11.6-1.5,15.5-4.4s5.8-6.9,5.8-11.9c0-11-8.4-16.4-25.2-16.4h-7.5v-12.5h7.2c15,0,22.4-5.2,22.4-15.5
		c0-9.5-5.8-14.2-17.5-14.2c-6.5,0-12.6,2.3-18.3,6.9v-13.9c6.6-3.7,14.4-5.5,23.3-5.5c8.6,0,15.5,2.1,20.7,6.5s7.8,9.8,7.8,16.5
		c0,12.7-6.5,20.9-19.5,24.5v0.3c7,0.7,12.5,3.1,16.6,7.3c4,4.2,6.1,9.4,6.1,15.7c0,8.7-3.3,15.7-9.8,21c-6.5,5.3-15.2,8-25.9,8
		C800.9,230.4,793.3,228.7,787.5,225.2"/>
	<path style="fill-rule:evenodd;clip-rule:evenodd;fill:#18264E;" d="M903.2,199c0-2.8-0.3-5.3-1-7.6c-0.6-2.3-1.6-4.2-3-5.9
		c-1.3-1.6-3-2.9-5-3.8c-2-0.9-4.3-1.4-7.1-1.4c-2.7,0-5.1,0.5-7.1,1.5c-2,1-3.8,2.3-5.2,3.8s-2.5,3.4-3.1,5.4c-0.7,2-1,4.1-1,6.2
		c0,2.3,0.3,4.6,1,7.1c0.6,2.4,1.7,4.6,3,6.6c1.3,2,3.1,3.6,5.2,4.9c2.1,1.3,4.6,1.9,7.5,1.9c2.5,0,4.8-0.5,6.8-1.4
		c2-0.9,3.6-2.3,5-3.9c1.3-1.7,2.3-3.6,3-5.9C902.8,204.1,903.2,201.6,903.2,199 M919,197.7c0,4.8-0.8,9.3-2.4,13.3
		c-1.6,4-3.8,7.5-6.7,10.3c-2.8,2.9-6.2,5.1-10.1,6.7c-3.9,1.6-8.1,2.4-12.7,2.4c-4.9,0-9.3-0.9-13.4-2.8c-4.1-1.9-7.6-4.7-10.5-8.4
		s-5.2-8.4-6.9-13.9c-1.6-5.5-2.4-11.9-2.4-19.3c0-8.9,1-16.9,3.2-23.8c2.2-6.9,5.1-12.7,8.8-17.4c3.7-4.6,8.1-8.2,13.2-10.7
		c5-2.4,10.5-3.6,16.3-3.6c3.7,0,7,0.3,10,0.7c3,0.5,5.4,1.1,7.2,2v14.1c-2.3-1.1-4.8-2.1-7.4-3c-2.6-0.8-5.6-1.2-9-1.2
		c-3.8,0-7.3,0.8-10.5,2.3c-3.2,1.5-6,3.8-8.3,6.7c-2.3,2.9-4.2,6.6-5.4,10.9c-1.3,4.3-2,9.4-2,15h0.4c2.1-3.2,4.9-5.7,8.4-7.5
		c3.6-1.8,7.7-2.8,12.5-2.8c4.2,0,8.1,0.7,11.5,2c3.4,1.4,6.3,3.3,8.7,5.9c2.4,2.6,4.2,5.8,5.5,9.4C918.4,188.9,919,193,919,197.7"
		/>
	<path style="fill-rule:evenodd;clip-rule:evenodd;fill:#18264E;" d="M926,226.5v-15c6.3,4.3,12.8,6.4,19.4,6.4
		c6.6,0,11.9-1.7,15.9-5c4-3.3,6-7.8,6-13.4c0-5.5-2-9.8-6.1-12.8c-4.1-3-9.9-4.6-17.6-4.6c-2.6,0-7.9,0.3-15.9,0.8l3.5-50.8h47.8
		v13.3h-34.7l-1.6,24.2c3.1-0.2,5.9-0.3,8.4-0.3c10.3,0,18.3,2.6,23.9,7.9c5.6,5.3,8.4,12.4,8.4,21.6c0,9.6-3.2,17.2-9.6,23
		c-6.5,5.8-15.3,8.7-26.5,8.7C937.7,230.5,930.6,229.2,926,226.5"/>
	<path style="fill-rule:evenodd;clip-rule:evenodd;fill:#18264E;" d="M284.5,119.2V83.4c0-1.8,0.2-4.8,0.4-8.9h-0.2
		c-0.3,1.1-0.6,2.1-0.9,2.8c-0.3,0.8-0.5,1.5-0.8,1.9l-17.9,39.9h-2l-17.9-39.6c-0.5-1.2-1-2.9-1.6-5.1h-0.2
		c0.1,1.1,0.2,2.3,0.2,3.8c0,1.4,0,3,0,4.7v36.2H239V67.4h5.6l17.4,39c0.4,0.8,0.7,1.7,1,2.5c0.4,0.8,0.7,1.8,0.9,2.7h0.2
		c0.3-0.9,0.6-1.8,0.9-2.6c0.3-0.8,0.6-1.6,1-2.6l17.6-39h5.4v51.8L284.5,119.2L284.5,119.2L284.5,119.2L284.5,119.2z"/>
	<path style="fill-rule:evenodd;clip-rule:evenodd;fill:#18264E;" d="M298,82.2h4.7v36.9H298V82.2z M300.3,72.9
		c-0.9,0-1.7-0.3-2.4-0.9c-0.6-0.6-1-1.4-1-2.3c0-0.9,0.3-1.7,1-2.3c0.6-0.6,1.5-0.9,2.4-0.9c0.5,0,0.9,0,1.4,0.2
		c0.4,0.2,0.8,0.4,1.1,0.7c0.3,0.3,0.5,0.6,0.8,1c0.2,0.4,0.3,0.8,0.3,1.3c0,0.5-0.1,0.9-0.3,1.3c-0.2,0.4-0.4,0.8-0.8,1
		c-0.3,0.3-0.7,0.5-1.1,0.7C301.3,72.8,300.8,72.9,300.3,72.9"/>
	<path style="fill-rule:evenodd;clip-rule:evenodd;fill:#18264E;" d="M335.1,117.3c-2.7,1.7-6.1,2.5-10,2.5c-2.6,0-5-0.4-7.1-1.3
		c-2.1-0.9-3.9-2.2-5.4-3.9c-1.5-1.7-2.6-3.6-3.4-5.9c-0.8-2.2-1.2-4.7-1.2-7.3c0-2.7,0.4-5.3,1.3-7.7c0.9-2.4,2-4.5,3.7-6.3
		c1.6-1.8,3.6-3.2,5.9-4.2c2.3-1,5-1.6,8-1.6s5.8,0.6,8.4,1.8v4.9c-2.7-1.8-5.6-2.7-8.8-2.7c-2.2,0-4.2,0.4-5.8,1.3
		c-1.7,0.8-3.1,1.9-4.3,3.4c-1.2,1.4-2,3.1-2.7,5c-0.6,1.9-0.9,3.9-0.9,6c0,2,0.3,3.8,0.8,5.6c0.5,1.8,1.3,3.4,2.4,4.7
		c1,1.3,2.4,2.4,4,3.3s3.6,1.2,5.8,1.2c3.5,0,6.6-1,9.4-3.1L335.1,117.3z"/>
	<path style="fill-rule:evenodd;clip-rule:evenodd;fill:#18264E;" d="M357.6,87c-1.1-0.8-2.4-1.2-4.1-1.2c-1.2,0-2.3,0.2-3.2,0.7
		c-0.9,0.5-1.8,1.1-2.4,1.9c-0.7,0.8-1.3,1.7-1.8,2.8c-0.5,1-0.9,2.1-1.2,3.2c-0.3,1.2-0.5,2.3-0.6,3.4c-0.2,1.1-0.2,2.3-0.2,3.3v18
		h-4.5V82.3h4.5v7.9h0.2c0.4-1.3,1-2.5,1.6-3.6c0.7-1,1.4-2,2.3-2.7c0.9-0.7,1.8-1.3,2.8-1.7c1-0.4,2.1-0.6,3.2-0.6
		c0.7,0,1.4,0,2,0.2c0.6,0.1,1.1,0.3,1.6,0.4L357.6,87L357.6,87L357.6,87L357.6,87z"/>
	<path style="fill-rule:evenodd;clip-rule:evenodd;fill:#18264E;" d="M376,85.5c-2,0-3.8,0.4-5.5,1c-1.6,0.7-3,1.7-4.2,3
		s-2,3-2.7,4.9c-0.6,1.9-0.9,4.1-0.9,6.5c0,2.3,0.3,4.3,0.9,6.2c0.6,1.8,1.5,3.4,2.7,4.7s2.5,2.3,4.1,3c1.6,0.7,3.5,1,5.5,1
		c2,0,3.9-0.4,5.5-1c1.6-0.7,2.9-1.7,4-3c1.1-1.3,1.9-2.9,2.5-4.8c0.6-1.9,0.8-4,0.8-6.4c0-4.9-1.1-8.7-3.3-11.3
		C383.2,86.8,380,85.5,376,85.5 M375.6,119.8c-2.7,0-5.2-0.5-7.4-1.3c-2.2-0.9-4-2.2-5.5-3.8c-1.5-1.7-2.7-3.6-3.5-6
		c-0.8-2.3-1.2-4.9-1.2-7.7c0-3.1,0.4-5.8,1.3-8.2c0.9-2.4,2.1-4.4,3.7-6.1c1.6-1.7,3.5-3,5.8-3.8c2.3-0.9,4.8-1.3,7.5-1.3
		c2.7,0,5.1,0.4,7.2,1.3c2.2,0.9,3.9,2.1,5.4,3.8c1.5,1.7,2.6,3.6,3.4,6c0.8,2.3,1.2,5,1.2,8c0,2.8-0.4,5.4-1.3,7.8
		c-0.8,2.3-2,4.4-3.6,6.1c-1.5,1.7-3.4,3-5.6,3.9C380.9,119.3,378.4,119.8,375.6,119.8"/>
	<path style="fill-rule:evenodd;clip-rule:evenodd;fill:#18264E;" d="M396.5,112.4c0.7,0.6,1.5,1,2.3,1.5c0.8,0.4,1.7,0.8,2.5,1.1
		c0.9,0.3,1.7,0.5,2.6,0.7c0.9,0.2,1.7,0.2,2.5,0.2c5.5,0,8.2-2.1,8.2-6.2c0-0.9-0.2-1.7-0.6-2.4s-0.9-1.3-1.7-1.9
		c-0.7-0.6-1.6-1.1-2.6-1.6c-1-0.5-2.1-1-3.4-1.5c-1.7-0.7-3.2-1.4-4.4-2.2c-1.2-0.8-2.3-1.5-3-2.4c-0.8-0.8-1.4-1.8-1.8-2.8
		c-0.4-1-0.6-2.2-0.6-3.5c0-1.6,0.4-3.1,1-4.4c0.7-1.3,1.7-2.3,2.9-3.3c1.2-0.9,2.5-1.6,4.1-2.1c1.6-0.5,3.2-0.7,5-0.7
		c3.2,0,6,0.6,8.4,1.8v4.9c-2.8-1.8-5.7-2.7-8.9-2.7c-1.1,0-2.2,0.2-3.1,0.4c-1,0.3-1.8,0.7-2.4,1.2c-0.7,0.5-1.2,1.2-1.6,1.9
		s-0.6,1.5-0.6,2.4c0,0.9,0.2,1.7,0.4,2.4c0.3,0.7,0.7,1.3,1.4,1.8c0.6,0.6,1.4,1.1,2.3,1.6c1,0.5,2.1,1,3.6,1.6
		c1.8,0.7,3.3,1.4,4.6,2.2c1.3,0.7,2.3,1.5,3.2,2.3c0.9,0.8,1.5,1.7,1.9,2.8c0.4,1,0.6,2.2,0.6,3.6c0,1.7-0.4,3.2-1,4.5
		c-0.7,1.3-1.6,2.4-2.8,3.3c-1.2,0.9-2.6,1.6-4.3,2.1c-1.6,0.5-3.4,0.7-5.3,0.7c-3.7,0-6.8-0.8-9.4-2.4v-5L396.5,112.4L396.5,112.4z
		"/>
	<path style="fill-rule:evenodd;clip-rule:evenodd;fill:#18264E;" d="M440.7,85.5c-2,0-3.8,0.4-5.5,1c-1.6,0.7-3,1.7-4.2,3
		s-2,3-2.7,4.9c-0.6,1.9-0.9,4.1-0.9,6.5c0,2.3,0.3,4.3,0.9,6.2c0.6,1.8,1.5,3.4,2.7,4.7s2.5,2.3,4.1,3c1.6,0.7,3.5,1,5.5,1
		c2,0,3.9-0.4,5.5-1c1.6-0.7,2.9-1.7,4-3c1.1-1.3,1.9-2.9,2.5-4.8c0.6-1.9,0.8-4,0.8-6.4c0-4.9-1.1-8.7-3.3-11.3
		C447.9,86.8,444.8,85.5,440.7,85.5 M440.3,119.8c-2.7,0-5.2-0.5-7.4-1.3c-2.2-0.9-4-2.2-5.5-3.8c-1.5-1.7-2.7-3.6-3.5-6
		c-0.8-2.3-1.2-4.9-1.2-7.7c0-3.1,0.4-5.8,1.3-8.2c0.9-2.4,2.1-4.4,3.7-6.1c1.6-1.7,3.5-3,5.8-3.8c2.3-0.9,4.8-1.3,7.5-1.3
		c2.7,0,5.1,0.4,7.2,1.3c2.2,0.9,3.9,2.1,5.4,3.8c1.5,1.7,2.6,3.6,3.4,6c0.8,2.3,1.2,5,1.2,8c0,2.8-0.4,5.4-1.3,7.8
		c-0.8,2.3-2,4.4-3.6,6.1c-1.5,1.7-3.4,3-5.6,3.9C445.6,119.3,443.1,119.8,440.3,119.8"/>
	<path style="fill-rule:evenodd;clip-rule:evenodd;fill:#18264E;" d="M480.2,68.8c-1-0.7-2.4-1-4-1c-4.4,0-6.5,2.8-6.5,8.5v5.9h9.2
		v4.1h-9.2v33.1H465v-33h-6.5v-4.1h6.5V76c0-1.8,0.2-3.5,0.7-5.1c0.5-1.5,1.2-2.8,2.1-3.9c0.9-1,2.1-1.9,3.5-2.5
		c1.4-0.6,3-0.9,4.8-0.9c1.7,0,3.1,0.2,4.1,0.7L480.2,68.8L480.2,68.8z"/>
	<path style="fill-rule:evenodd;clip-rule:evenodd;fill:#18264E;" d="M500.3,118.7c-1.6,0.8-3.3,1.2-5.2,1.2c-6,0-9-3.4-9-10.3V86.4
		h-6.5v-4h6.5v-9.3l4.6-1.5v10.8h9.6v4h-9.6v22.5c0,2.5,0.4,4.3,1.2,5.4c0.8,1.1,2.2,1.7,4.2,1.7c1.5,0,2.9-0.4,4.2-1.3L500.3,118.7
		L500.3,118.7L500.3,118.7L500.3,118.7z"/>
</g>
</svg>
