<?xml version="1.0" encoding="utf-8"?>
<!-- Generator: Adobe Illustrator 24.2.1, SVG Export Plug-In . SVG Version: 6.00 Build 0)  -->
<svg version="1.1" id="Layer_1" xmlns="http://www.w3.org/2000/svg" xmlns:xlink="http://www.w3.org/1999/xlink" x="0px" y="0px"
	 viewBox="0 0 100 100" style="enable-background:new 0 0 100 100;" xml:space="preserve">
<g>
	<g>
		<path style="fill:#E8E8E8;" d="M50,0c27.6,0,50,22.4,50,50s-22.4,50-50,50S0,77.6,0,50S22.4,0,50,0"/>
		<path style="fill:#FFFFFF;" d="M50,1c27,0,49,22,49,49S77.1,99,50,99S1,77,1,50S23,1,50,1"/>
	</g>
	<g>
		<g>
			
				<linearGradient id="SVGID_1_" gradientUnits="userSpaceOnUse" x1="-907.6441" y1="588.8305" x2="-907.5223" y2="588.8305" gradientTransform="matrix(600 0 0 -248 544599.9375 146066.0625)">
				<stop  offset="0" style="stop-color:#6001A5"/>
				<stop  offset="0.3344" style="stop-color:#6001A5"/>
				<stop  offset="0.9324" style="stop-color:#DE0877"/>
				<stop  offset="1" style="stop-color:#ED0577"/>
			</linearGradient>
			<path style="fill-rule:evenodd;clip-rule:evenodd;fill:url(#SVGID_1_);" d="M73.6,21L73.6,21c-2.7,0-3.2,1.9-3.2,2.8v20.1l1.9,0
				c1.6,0,1.9-1,1.9-1.5v-0.2c1.2,1.3,2.9,2,4.8,2c4.1,0,7.5-3.6,7.5-8.2c0-4.7-3.4-8.3-7.5-8.3c-1.8,0-3.4,0.7-4.6,1.8V21H73.6
				L73.6,21z M74.5,36c0-2.5,1.8-4.5,4-4.5c2.2,0,4,2,4,4.5c0,2.5-1.8,4.5-4,4.5C76.3,40.4,74.5,38.4,74.5,36L74.5,36z M53.3,35.9
				c0,4.7,3.5,8.3,7.9,8.3c4.4,0,7.9-3.5,7.9-8.3c0-4.7-3.6-8.3-7.9-8.3C56.8,27.6,53.3,31.2,53.3,35.9z M57.3,36
				c0-2.7,1.7-4.6,3.9-4.6c2.1,0,3.9,1.9,3.9,4.6c0,2.7-1.7,4.5-3.9,4.5C59.1,40.5,57.3,38.6,57.3,36L57.3,36z M25.5,29.9
				c-1.1-1.4-2.9-2.2-5-2.2c-4.3,0-7.1,3-7.1,7.1v9.1h1.3c0.9-0.1,2.7-0.5,2.7-3.1v-6.1c0-1.8,1.3-3,3-3c2.7,0,2.9,2.1,2.9,3v9.2
				h1.3c0.9-0.1,2.6-0.5,2.7-3.1v-6.1c0-1.8,1.3-3,3-3c2.7,0,3,2.1,3,3v9.2h1.3c0.9-0.1,2.7-0.5,2.7-3.2v-6c0-4.1-2.6-7.1-7-7.1
				C28.5,27.6,26.7,28.5,25.5,29.9L25.5,29.9z M49.1,29.8l-3.4,9.4L42,29.4c-0.6-1.5-2-1.5-2-1.5h-3.1l6.2,15.4c0,0,0,0,0,0l0,0.1
				l0,0.1l0-0.1c0.2,0.6,0.1,1,0,1.6L43,45.3c-0.7,1.8-1.7,2.3-3.9,2.2v0l1.5,3.7c2.8-0.1,4.9-1,6.3-4.5L54.4,28l0,0v0l-2.8,0h0
				C51.4,28,49.8,28,49.1,29.8L49.1,29.8z"/>
		</g>
		<g>
			<path style="fill:#6100A5;" d="M31.8,70.4h-3.7c0-1.7,0-3.5,0-5.2h3.7v0.9h-2.7v1.2h2.6v0.9h-2.6v1.2h2.7V70.4z"/>
			<path style="fill:#6100A5;" d="M35.7,66.5c-0.2-0.3-0.6-0.6-1.2-0.6c-0.7,0-1,0.3-1,0.7c0,0.5,0.5,0.6,1.1,0.7c1,0.1,2,0.4,2,1.6
				c0,1.2-1,1.6-2.1,1.6c-1,0-1.8-0.3-2.1-1.3l0.8-0.4c0.2,0.6,0.8,0.8,1.4,0.8c0.6,0,1.1-0.2,1.1-0.8c0-0.5-0.5-0.7-1.1-0.8
				c-1-0.1-1.9-0.4-1.9-1.6c0-1.1,1-1.5,1.9-1.5c0.8,0,1.5,0.2,1.9,1L35.7,66.5z"/>
			<path style="fill:#6100A5;" d="M40.4,66.5c-0.2-0.3-0.6-0.6-1.2-0.6c-0.7,0-1,0.3-1,0.7c0,0.5,0.5,0.6,1.1,0.7c1,0.1,2,0.4,2,1.6
				c0,1.2-1,1.6-2.1,1.6c-1,0-1.8-0.3-2.1-1.3l0.8-0.4c0.2,0.6,0.8,0.8,1.4,0.8c0.6,0,1.1-0.2,1.1-0.8c0-0.5-0.5-0.7-1.1-0.8
				c-1-0.1-1.9-0.4-1.9-1.6c0-1.1,1-1.5,1.9-1.5c0.8,0,1.5,0.2,1.9,1L40.4,66.5z"/>
			<path style="fill:#6100A5;" d="M45.7,70.4h-3.7c0-1.7,0-3.5,0-5.2h3.7v0.9H43v1.2h2.6v0.9H43v1.2h2.7V70.4z"/>
			<path style="fill:#6100A5;" d="M50.1,68.7v-3.5H51v5.2h-0.7L47.6,67v3.4h-0.9v-5.2h0.7L50.1,68.7z"/>
			<path style="fill:#6100A5;" d="M53.2,66.1h-1.5v-0.9c1.4,0,2.6,0,4,0v0.9h-1.5v4.3h-0.9V66.1z"/>
			<path style="fill:#6100A5;" d="M56.4,70.4v-5.2h0.9v5.2H56.4z"/>
			<path style="fill:#6100A5;" d="M61.9,69.4h-2.6l-0.4,1h-1l2.2-5.2h1l2.2,5.2h-1L61.9,69.4z M60.6,66.3l-0.9,2.2h1.8L60.6,66.3z"
				/>
			<path style="fill:#6100A5;" d="M64.8,65.2v4.3h2.5v0.9h-3.4v-5.2H64.8z"/>
			<path style="fill:#6100A5;" d="M70.9,66.5c-0.2-0.3-0.6-0.6-1.2-0.6c-0.7,0-1,0.3-1,0.7c0,0.5,0.5,0.6,1.1,0.7c1,0.1,2,0.4,2,1.6
				c0,1.2-1,1.6-2.1,1.6c-1,0-1.8-0.3-2.1-1.3l0.8-0.4c0.2,0.6,0.8,0.8,1.4,0.8c0.6,0,1.1-0.2,1.1-0.8c0-0.5-0.5-0.7-1.1-0.8
				c-1-0.1-1.9-0.4-1.9-1.6c0-1.1,1-1.5,1.9-1.5c0.8,0,1.5,0.2,1.9,1L70.9,66.5z"/>
		</g>
		<g>
			<path style="fill:#6100A5;" d="M28.7,77.8H26l-0.4,1h-1.1l2.3-5.5h1.1l2.3,5.5h-1.1L28.7,77.8z M27.3,74.5l-1,2.4h1.9L27.3,74.5z
				"/>
			<path style="fill:#6100A5;" d="M35.2,78.2c-0.5,0.6-1.2,0.8-2,0.8c-1.9,0-2.8-1.4-2.8-2.9c0-1.4,0.9-2.9,2.8-2.9
				c0.7,0,1.4,0.3,1.9,0.8l-0.7,0.7c-0.3-0.4-0.8-0.5-1.3-0.5c-1.3,0-1.8,1-1.8,1.9c0,0.9,0.5,1.9,1.8,1.9c0.5,0,1-0.2,1.3-0.6
				L35.2,78.2z"/>
			<path style="fill:#6100A5;" d="M40.3,78.2c-0.5,0.6-1.2,0.8-2,0.8c-1.9,0-2.8-1.4-2.8-2.9c0-1.4,0.9-2.9,2.8-2.9
				c0.7,0,1.4,0.3,1.9,0.8l-0.7,0.7c-0.3-0.4-0.8-0.5-1.3-0.5c-1.3,0-1.8,1-1.8,1.9c0,0.9,0.5,1.9,1.8,1.9c0.5,0,1-0.2,1.3-0.6
				L40.3,78.2z"/>
			<path style="fill:#6100A5;" d="M46,76.1c0,1.4-0.8,2.9-2.7,2.9c-1.8,0-2.7-1.4-2.7-2.9c0-1.8,1.2-2.9,2.7-2.9
				C45.1,73.2,46,74.7,46,76.1z M43.3,78c1.2,0,1.7-1,1.7-1.9c0-0.9-0.5-2-1.7-2c-1.1,0-1.8,0.9-1.7,2C41.6,77.1,42,78,43.3,78z"/>
			<path style="fill:#6100A5;" d="M51.4,73.3v3.2c0,1.6-0.9,2.5-2.3,2.5c-1.3,0-2.3-0.8-2.3-2.5v-3.2h1v3.2c0,1,0.5,1.5,1.4,1.5
				c0.8,0,1.3-0.6,1.3-1.5v-3.2H51.4z"/>
			<path style="fill:#6100A5;" d="M56.2,77.1v-3.7h1v5.5h-0.8l-2.8-3.7v3.7h-1v-5.5h0.8L56.2,77.1z"/>
			<path style="fill:#6100A5;" d="M59.6,74.3h-1.7v-1c1.5,0,2.8,0,4.3,0v1h-1.7v4.6h-1V74.3z"/>
			<path style="fill:#6100A5;" d="M63,78.9v-5.5h1v5.5H63z"/>
			<path style="fill:#6100A5;" d="M68.8,77.1v-3.7h1v5.5h-0.8l-2.8-3.7v3.7h-1v-5.5H66L68.8,77.1z"/>
			<path style="fill:#6100A5;" d="M74.8,74.7c-0.4-0.4-0.9-0.6-1.3-0.6c-1.1,0-1.8,0.9-1.8,2c0,0.9,0.5,1.9,1.8,1.9
				c0.4,0,0.8-0.1,1.2-0.4v-1h-1.3v-0.9h2.2V78c-0.5,0.6-1.2,1-2.1,1c-2,0-2.8-1.4-2.8-2.8c0-1.6,0.9-3,2.8-3c0.7,0,1.4,0.3,1.9,0.8
				L74.8,74.7z"/>
		</g>
	</g>
</g>
</svg>
