<?xml version="1.0" encoding="utf-8"?>
<!-- Generator: Adobe Illustrator 24.2.1, SVG Export Plug-In . SVG Version: 6.00 Build 0)  -->
<svg version="1.1" id="Layer_1" xmlns="http://www.w3.org/2000/svg" xmlns:xlink="http://www.w3.org/1999/xlink" x="0px" y="0px"
	 viewBox="0 0 417.5 331.3" style="enable-background:new 0 0 417.5 331.3;" xml:space="preserve">
<g>
	<g>
		
			<linearGradient id="SVGID_1_" gradientUnits="userSpaceOnUse" x1="-749.1685" y1="704.7578" x2="-748.4726" y2="704.7578" gradientTransform="matrix(600 0 0 -248 449501.0625 174866.2344)">
			<stop  offset="0" style="stop-color:#6001A5"/>
			<stop  offset="0.3344" style="stop-color:#6001A5"/>
			<stop  offset="0.9324" style="stop-color:#DE0877"/>
			<stop  offset="1" style="stop-color:#ED0577"/>
		</linearGradient>
		<path style="fill-rule:evenodd;clip-rule:evenodd;fill:url(#SVGID_1_);" d="M343.8,0L343.8,0c-15.7,0-18.2,10.6-18.5,15.8v114.7
			l11.1,0c8.9,0.2,10.9-5.5,11-8.7v-0.9c7,7.3,16.5,11.5,27.3,11.5c23.5,0,42.7-20.3,42.7-47c0-26.8-19.2-47.2-42.7-47.2
			c-10.3,0-19.5,3.9-26.3,10.5V0H343.8L343.8,0z M348.5,85.6c0-14.4,10.3-25.9,23-25.9c12.7,0,23,11.2,23,25.9
			c0,14.4-10.3,25.4-23,25.4C358.8,111,348.5,99.6,348.5,85.6L348.5,85.6z M227.5,85.4c0,27,20.2,47.2,45.1,47.2
			c24.9,0,45.3-20.2,45.3-47.2c0-27-20.4-47.5-45.3-47.5C247.7,37.9,227.5,58.4,227.5,85.4z M250.5,85.6c0-15.6,9.9-26.5,22.1-26.5
			c12.2,0,22.1,10.9,22.1,26.5c0,15.3-9.9,25.8-22.1,25.8C260.5,111.3,250.5,100.8,250.5,85.6L250.5,85.6z M69,50.7
			c-6.4-7.9-16.4-12.8-28.6-12.8C15.9,37.9,0,55.2,0,78.2v52.2h7.5c5.1-0.3,15.2-2.9,15.5-17.8V77.7c0-10.2,7.1-17.2,17.4-17.2
			c15.2,0,16.7,12.1,16.7,17.2v52.8h7.5c5.1-0.3,15.1-2.8,15.5-17.7V77.7c0-10.2,7.3-17.2,17.4-17.2c15.2,0,16.9,12.1,16.9,17.2
			v52.8h7.5c5.1-0.3,15.3-2.9,15.5-18.1V78.2c0-23.7-14.8-40.3-39.9-40.3C85.9,37.9,75.8,42.8,69,50.7L69,50.7z M203.7,50.2
			l-19.3,53.9l-21-55.8c-3.2-8.8-11.5-8.4-11.5-8.4H134l35.6,87.7c0-0.1-0.1-0.2-0.1-0.3l0.1,0.4l0.1,0.4l-0.2-0.4
			c1.2,3.6,0.8,5.6-0.2,9l-0.8,2.2c-4.1,10.4-10,13.2-22.4,12.5v0.1l8.6,21.2c16-0.4,28-5.6,36-25.7l42.9-107l0,0v0l-16,0h-0.1
			C216.7,39.9,207.6,40.1,203.7,50.2L203.7,50.2z"/>
	</g>
	<g>
		<path style="fill:#6100A5;" d="M105,282.3H84.1c0-9.8,0-19.7,0-29.6H105v5.4H89.3v6.8h15.1v5.2H89.3v6.7H105V282.3z"/>
		<path style="fill:#6100A5;" d="M127.2,259.9c-1-1.7-3.6-3.3-6.6-3.3c-3.9,0-5.8,1.7-5.8,3.9c0,2.6,2.9,3.3,6.2,3.7
			c5.8,0.8,11.2,2.4,11.2,9.4c0,6.6-5.5,9.4-11.7,9.4c-5.7,0-10.1-1.9-12.2-7.3l4.4-2.4c1.2,3.3,4.5,4.7,7.9,4.7
			c3.3,0,6.4-1.2,6.4-4.4c0-2.8-2.8-3.9-6.5-4.3c-5.7-0.7-11-2.3-11-9c0-6.1,5.7-8.6,10.8-8.6c4.3,0,8.8,1.3,11,5.9L127.2,259.9z"/>
		<path style="fill:#6100A5;" d="M153.7,259.9c-1-1.7-3.6-3.3-6.6-3.3c-3.9,0-5.8,1.7-5.8,3.9c0,2.6,2.9,3.3,6.2,3.7
			c5.8,0.8,11.2,2.4,11.2,9.4c0,6.6-5.5,9.4-11.7,9.4c-5.7,0-10.1-1.9-12.2-7.3l4.4-2.4c1.2,3.3,4.5,4.7,7.9,4.7
			c3.3,0,6.4-1.2,6.4-4.4c0-2.8-2.8-3.9-6.5-4.3c-5.7-0.7-11-2.3-11-9c0-6.1,5.7-8.6,10.8-8.6c4.3,0,8.8,1.3,11,5.9L153.7,259.9z"/>
		<path style="fill:#6100A5;" d="M184.4,282.3h-20.9c0-9.8,0-19.7,0-29.6h20.9v5.4h-15.7v6.8h15.1v5.2h-15.1v6.7h15.7V282.3z"/>
		<path style="fill:#6100A5;" d="M209.1,272.6v-19.9h5.3v29.6h-4.3l-14.8-19.7v19.7H190v-29.6h4.3L209.1,272.6z"/>
		<path style="fill:#6100A5;" d="M227.2,257.8h-8.8v-5.1c8.1,0,14.9,0,23,0v5.1h-8.8v24.5h-5.3V257.8z"/>
		<path style="fill:#6100A5;" d="M245.3,282.3v-29.6h5.2v29.6H245.3z"/>
		<path style="fill:#6100A5;" d="M276.6,276.7h-14.6l-2.4,5.6H254l12.5-29.6h5.7l12.5,29.6H279L276.6,276.7z M269.4,258.9l-5.2,12.6
			h10.4L269.4,258.9z"/>
		<path style="fill:#6100A5;" d="M293.4,252.7v24.4h14.3v5.2h-19.6v-29.6H293.4z"/>
		<path style="fill:#6100A5;" d="M328.4,259.9c-1-1.7-3.6-3.3-6.6-3.3c-3.9,0-5.8,1.7-5.8,3.9c0,2.6,2.9,3.3,6.2,3.7
			c5.8,0.8,11.2,2.4,11.2,9.4c0,6.6-5.5,9.4-11.7,9.4c-5.7,0-10.1-1.9-12.2-7.3l4.4-2.4c1.2,3.3,4.5,4.7,7.9,4.7
			c3.3,0,6.4-1.2,6.4-4.4c0-2.8-2.8-3.9-6.5-4.3c-5.7-0.7-11-2.3-11-9c0-6.1,5.7-8.6,10.8-8.6c4.3,0,8.8,1.3,11,5.9L328.4,259.9z"/>
	</g>
	<g>
		<path style="fill:#6100A5;" d="M87.2,324.6H71.6l-2.6,6h-6.1l13.4-31.7h6.2l13.4,31.7h-6.2L87.2,324.6z M79.4,305.6l-5.6,13.5
			h11.1L79.4,305.6z"/>
		<path style="fill:#6100A5;" d="M124,326.6c-3.1,3.2-7,4.7-11.4,4.7c-11.1,0-15.8-8.1-15.8-16.3c0-8.3,5-16.7,15.8-16.7
			c4.1,0,7.9,1.6,11,4.8l-3.8,3.8c-2-2-4.6-3-7.2-3c-7.2,0-10.3,5.7-10.3,11c0,5.2,2.9,10.7,10.3,10.7c2.6,0,5.6-1.1,7.5-3.2
			L124,326.6z"/>
		<path style="fill:#6100A5;" d="M153.1,326.6c-3.1,3.2-7,4.7-11.4,4.7c-11.1,0-15.8-8.1-15.8-16.3c0-8.3,5-16.7,15.8-16.7
			c4.1,0,7.9,1.6,11,4.8L149,307c-2-2-4.6-3-7.2-3c-7.2,0-10.3,5.7-10.3,11c0,5.2,2.9,10.7,10.3,10.7c2.6,0,5.6-1.1,7.5-3.2
			L153.1,326.6z"/>
		<path style="fill:#6100A5;" d="M185.7,314.9c-0.1,8.2-4.8,16.4-15.3,16.4c-10.5,0-15.4-8-15.4-16.3c0-10,6.8-16.7,15.5-16.7
			C180.7,298.4,185.8,306.7,185.7,314.9z M170.4,325.9c7,0,9.7-5.6,9.8-10.8c0.1-5.3-2.8-11.2-9.7-11.3c-6.4,0-10.1,5.1-10,11.4
			C160.7,320.3,163.3,325.9,170.4,325.9z"/>
		<path style="fill:#6100A5;" d="M216.8,299v18.1c0,9.4-5.4,14.2-12.9,14.2c-7.2,0-13.3-4.6-13.3-14.2V299h5.6v18.1
			c0,5.7,3.1,8.7,7.7,8.7c4.7,0,7.3-3.3,7.3-8.7V299H216.8z"/>
		<path style="fill:#6100A5;" d="M244,320.2v-21.3h5.6v31.7h-4.6l-15.9-21.1v21.1h-5.6v-31.7h4.6L244,320.2z"/>
		<path style="fill:#6100A5;" d="M263.4,304.4h-9.5v-5.4c8.6,0,15.9,0,24.6,0v5.4H269v26.2h-5.6V304.4z"/>
		<path style="fill:#6100A5;" d="M282.8,330.6v-31.7h5.6v31.7H282.8z"/>
		<path style="fill:#6100A5;" d="M315.9,320.2v-21.3h5.6v31.7H317l-15.9-21.1v21.1h-5.6v-31.7h4.6L315.9,320.2z"/>
		<path style="fill:#6100A5;" d="M350.3,306.7c-2-2-5-3.2-7.6-3.2c-6.4,0-10.3,5.2-10.3,11.7c0,5.2,2.9,10.6,10.3,10.6
			c2.3,0,4.4-0.5,6.7-2.5v-5.6h-7.6v-5.3h12.8v13.3c-2.9,3.6-6.7,5.7-11.9,5.7c-11.2,0-15.8-7.8-15.8-16.2c0-8.9,5.3-17.1,15.8-17.1
			c4,0,8,1.6,11.1,4.8L350.3,306.7z"/>
	</g>
</g>
</svg>
