<?xml version="1.0" encoding="utf-8"?>
<!-- Generator: Adobe Illustrator 24.2.1, SVG Export Plug-In . SVG Version: 6.00 Build 0)  -->
<svg version="1.1" id="Layer_1" xmlns="http://www.w3.org/2000/svg" xmlns:xlink="http://www.w3.org/1999/xlink" x="0px" y="0px"
	 viewBox="0 0 175.8 54.4" style="enable-background:new 0 0 175.8 54.4;" xml:space="preserve">
<g>
	<g>
		<path d="M0,54V34.9h3.8L12,47.3V34.9h4.1V54h-3.8L4.1,41.5V54H0z"/>
		<path d="M19.9,54V34.9h12.4v3.5h-8.2v4.2h7.6v3.5h-7.6v4.5h8.5v3.2L19.9,54z"/>
		<path d="M40.4,54V38.3h-5.7v-3.4H50v3.5h-5.7V54H40.4z"/>
		<path d="M52.6,53v-2.2c1.8,0.8,3.7,1.2,5.5,1.2c1.2,0.1,2.4-0.3,3.4-0.8c0.8-0.5,1.2-1.5,1.2-2.4c0-0.7-0.3-1.4-0.8-1.9
			c-0.8-0.7-1.8-1.2-2.7-1.5l-2-0.8c-1.4-0.4-2.6-1.2-3.7-2.2c-0.7-0.8-1.1-1.8-1.1-2.8c0-1.5,0.7-2.8,1.8-3.8
			c1.5-0.9,3.1-1.5,4.9-1.4c0.9,0,1.8,0.1,2.7,0.3c0.8,0.1,1.6,0.4,2.3,0.8v2.2c-1.5-0.7-3.2-1.1-4.9-1.2c-2.8,0-4.3,0.9-4.3,2.8
			c0,0.7,0.3,1.2,0.8,1.6c0.8,0.7,1.8,1.1,2.7,1.5l2,0.8c1.4,0.4,2.7,1.2,3.8,2.3c0.7,0.8,1.1,1.9,1.1,3.1c0.1,1.5-0.5,3-1.8,3.9
			c-1.5,1.1-3.2,1.5-5,1.5c-0.7,0-1.4,0-2-0.1c-0.7-0.1-1.4-0.3-2-0.4C53.5,53.6,53,53.3,52.6,53z"/>
		<path d="M68.3,45.3V34.9h2.4v10.4c0,2.3,0.4,4.1,1.2,5.1c1.9,2,5.1,2.3,7.2,0.4c0.1-0.1,0.3-0.3,0.4-0.4c0.8-1.1,1.2-2.8,1.2-5.1
			V34.9h2.4v10.5c0,3.1-0.7,5.3-1.9,6.8c-1.2,1.5-3.1,2.2-5.5,2.2c-2.4,0-4.3-0.7-5.5-2.2C68.9,50.7,68.3,48.4,68.3,45.3z"/>
		<path d="M87.2,54V34.9h2.4V54H87.2z"/>
		<path d="M99,54v-17H93v-2h14.5v2h-6.1v16.9H99L99,54z"/>
		<path d="M110.7,54V34.9h11.8v2h-9.3v6.2h8.5v2h-8.5v6.5h9.6v2h-12V54z"/>
	</g>
	<path style="fill:#ED1C24;" d="M73.2,14.3h11.2l-5.9-9.5L67.6,22h-5L75.8,1.3C76.4,0.5,77.4,0,78.4,0s2,0.5,2.5,1.3L94.2,22h-5
		l-2.3-3.9H75.6L73.2,14.3z M124.5,18.2v-18h-4.2V20c0,0.5,0.2,1.1,0.6,1.4c0.4,0.4,0.9,0.6,1.5,0.6h19.1l2.5-3.9L124.5,18.2z
		 M55.1,15c4.1,0,7.4-3.3,7.4-7.4c0-4.1-3.3-7.4-7.4-7.4H36.8V22h4.2V4.1h13.9c2,0,3.5,1.6,3.5,3.5c0,2-1.6,3.6-3.5,3.6H43.1
		l12.5,10.9h6.1L53.2,15H55.1z M10.9,22.1h12.7c6,0,10.9-4.9,10.9-10.9c0-6-4.8-10.9-10.9-10.9H10.9C4.9,0.3,0,5.2,0,11.2
		C0.1,17.2,5,22.1,10.9,22.1z M23.4,18.2H11.2c-3.9,0-7.1-3.1-7.1-7.1s3.1-7.1,7.1-7.1h12.1c3.9,0,7.1,3.1,7.1,7.1
		S27.3,18.2,23.4,18.2z M103,22.1H116l2.5-3.8h-15.1c-3.9,0-7.1-3.1-7.1-7.1c0-3.9,3.1-7.1,7.1-7.1h12.3l2.5-3.9h-15.1
		c-6,0-10.9,4.9-10.9,10.9C92.1,17.2,97,22.1,103,22.1L103,22.1z M154.4,18.2c-3.2,0-6-2.2-6.8-5.2h17.9l2.5-3.9h-20.4
		c0.8-3,3.6-5.2,6.8-5.2h12.3l2.5-3.9h-15.1c-6,0-10.9,4.9-10.9,10.9S148.1,22,154.1,22H167l2.5-3.8L154.4,18.2z M171.4,2.6
		c0-1.1,0.9-1.9,2-1.9s1.9,0.9,1.9,1.9c0,1.1-0.8,1.9-1.9,1.9S171.4,3.6,171.4,2.6z M173.3,5c1.3,0,2.4-1.1,2.4-2.4
		c0-1.3-1.1-2.5-2.4-2.5c-1.4,0-2.5,1.1-2.5,2.5C170.9,3.9,172,5,173.3,5z M173.1,1.1c0.4,0,0.5,0,0.7,0.1c0.5,0.2,0.5,0.6,0.5,0.8
		c0,0.1,0,0.1-0.1,0.2c0,0.1-0.1,0.3-0.4,0.5c-0.1,0-0.1,0.1-0.1,0.1l0.6,1.1h-0.6l-0.6-1.1H173v1.1h-0.6V1L173.1,1.1L173.1,1.1z
		 M173.3,2.4c0.2,0,0.4,0,0.5-0.2c0.1-0.1,0.1-0.2,0.1-0.2c0-0.2-0.1-0.3-0.2-0.4c-0.2-0.1-0.3-0.1-0.5-0.1H173v0.8L173.3,2.4z"/>
</g>
</svg>
