<?xml version="1.0" encoding="utf-8"?>
<!-- Generator: Adobe Illustrator 24.2.1, SVG Export Plug-In . SVG Version: 6.00 Build 0)  -->
<svg version="1.1" id="Layer_1" xmlns="http://www.w3.org/2000/svg" xmlns:xlink="http://www.w3.org/1999/xlink" x="0px" y="0px"
	width="100px" height="100px" viewBox="0 0 129.2 129.2" style="enable-background:new 0 0 129.2 129.2;" xml:space="preserve">
<g>
	<g>
		<path style="fill:#E8E8E8;" d="M64.6,0c35.7,0,64.6,29,64.6,64.6s-29,64.6-64.6,64.6S0,100.3,0,64.6S29,0,64.6,0"/>
		<path style="fill:#FFFFFF;" d="M64.6,1.3c34.9,0,63.3,28.4,63.3,63.3S99.6,128,64.6,128S1.3,99.5,1.3,64.6S29.7,1.3,64.6,1.3"/>
		<path style="fill:#E8E8E8;" d="M64.6,0c35.7,0,64.6,29,64.6,64.6s-29,64.6-64.6,64.6S0,100.3,0,64.6S29,0,64.6,0"/>
		<path style="fill:#FFFFFF;" d="M64.6,1.3c34.9,0,63.3,28.4,63.3,63.3S99.6,128,64.6,128S1.3,99.5,1.3,64.6S29.7,1.3,64.6,1.3"/>
	</g>
	<g>
		<g>
			<path d="M12,80.7V69.2h2.3l4.9,7.4v-7.4h2.5v11.4h-2.3l-4.9-7.5v7.5H12z"/>
			<path d="M23.9,80.7V69.2h7.4v2.1h-4.9v2.5H31v2.1h-4.6v2.7h5.1v1.9L23.9,80.7z"/>
			<path d="M36.2,80.7v-9.4h-3.4v-2H42v2.1h-3.4v9.3H36.2z"/>
			<path d="M43.5,80.1v-1.3c1.1,0.5,2.2,0.7,3.3,0.7c0.7,0.1,1.4-0.2,2-0.5c0.5-0.3,0.7-0.9,0.7-1.4c0-0.4-0.2-0.8-0.5-1.1
				c-0.5-0.4-1.1-0.7-1.6-0.9L46.3,75c-0.8-0.2-1.6-0.7-2.2-1.3c-0.4-0.5-0.7-1.1-0.7-1.7c0-0.9,0.4-1.7,1.1-2.3
				c0.9-0.5,1.9-0.9,2.9-0.8c0.5,0,1.1,0.1,1.6,0.2c0.5,0.1,1,0.2,1.4,0.5v1.3c-0.9-0.4-1.9-0.7-2.9-0.7c-1.7,0-2.6,0.5-2.6,1.7
				c0,0.4,0.2,0.7,0.5,1c0.5,0.4,1.1,0.7,1.6,0.9l1.2,0.5c0.8,0.2,1.6,0.7,2.3,1.4c0.4,0.5,0.7,1.1,0.7,1.9c0.1,0.9-0.3,1.8-1.1,2.3
				c-0.9,0.7-1.9,0.9-3,0.9c-0.4,0-0.8,0-1.2-0.1c-0.4-0.1-0.8-0.2-1.2-0.2C44,80.4,43.7,80.3,43.5,80.1z"/>
			<path d="M52.9,75.5v-6.2h1.4v6.2c0,1.4,0.2,2.5,0.7,3.1c1.1,1.2,3.1,1.4,4.3,0.2c0.1-0.1,0.2-0.2,0.2-0.2
				c0.5-0.7,0.7-1.7,0.7-3.1v-6.2h1.4v6.3c0,1.9-0.4,3.2-1.1,4.1c-0.7,0.9-1.9,1.3-3.3,1.3s-2.6-0.4-3.3-1.3
				C53.3,78.7,52.9,77.3,52.9,75.5z"/>
			<path d="M64.2,80.7V69.2h1.4v11.4H64.2z"/>
			<path d="M71.3,80.7V70.5h-3.6v-1.2h8.7v1.2h-3.7v10.1L71.3,80.7L71.3,80.7z"/>
			<path d="M78.3,80.7V69.2h7.1v1.2h-5.6v3.7h5.1v1.2h-5.1v3.9h5.8v1.2h-7.2L78.3,80.7L78.3,80.7z"/>
		</g>
		<path style="fill:#ED1C24;" d="M55.8,56.9h6.7L59,51.2l-6.5,10.3h-3l7.9-12.4c0.4-0.5,1-0.8,1.6-0.8s1.2,0.3,1.5,0.8l8,12.4h-3
			l-1.4-2.3h-6.8L55.8,56.9z M86.6,59.2V48.5h-2.5v11.9c0,0.3,0.1,0.7,0.4,0.8c0.2,0.2,0.5,0.4,0.9,0.4h11.4l1.5-2.3L86.6,59.2z
			 M45,57.3c2.5,0,4.4-2,4.4-4.4c0-2.5-2-4.4-4.4-4.4H34v13.1h2.5V50.8h8.3c1.2,0,2.1,1,2.1,2.1c0,1.2-1,2.2-2.1,2.2h-7.1l7.5,6.5
			H49l-5.1-4.3H45z M18.5,61.6h7.6c3.6,0,6.5-2.9,6.5-6.5c0-3.6-2.9-6.5-6.5-6.5h-7.6c-3.6,0-6.5,2.9-6.5,6.5
			C12.1,58.6,15,61.6,18.5,61.6z M26,59.2h-7.3c-2.3,0-4.3-1.9-4.3-4.3s1.9-4.3,4.3-4.3H26c2.3,0,4.3,1.9,4.3,4.3S28.4,59.2,26,59.2
			z M73.7,61.6h7.8l1.5-2.3h-9c-2.3,0-4.3-1.9-4.3-4.3c0-2.3,1.9-4.3,4.3-4.3h7.4l1.5-2.3h-9c-3.6,0-6.5,2.9-6.5,6.5
			C67.2,58.6,70.1,61.6,73.7,61.6L73.7,61.6z M104.5,59.2c-1.9,0-3.6-1.3-4.1-3.1h10.7l1.5-2.3h-12.2c0.5-1.8,2.2-3.1,4.1-3.1h7.4
			l1.5-2.3h-9c-3.6,0-6.5,2.9-6.5,6.5s2.9,6.6,6.5,6.6h7.7l1.5-2.3H104.5z M114.7,49.9c0-0.7,0.5-1.1,1.2-1.1s1.1,0.5,1.1,1.1
			c0,0.7-0.5,1.1-1.1,1.1S114.7,50.5,114.7,49.9z M115.8,51.3c0.8,0,1.4-0.7,1.4-1.4c0-0.8-0.7-1.5-1.4-1.5c-0.8,0-1.5,0.7-1.5,1.5
			C114.4,50.7,115,51.3,115.8,51.3z M115.7,49c0.2,0,0.3,0,0.4,0.1c0.3,0.1,0.3,0.4,0.3,0.5c0,0.1,0,0.1-0.1,0.1
			c0,0.1-0.1,0.2-0.2,0.3c-0.1,0-0.1,0.1-0.1,0.1l0.4,0.7H116l-0.4-0.7h-0.1v0.7h-0.4v-1.7L115.7,49L115.7,49z M115.8,49.8
			c0.1,0,0.2,0,0.3-0.1c0.1-0.1,0.1-0.1,0.1-0.1c0-0.1-0.1-0.2-0.1-0.2c-0.1-0.1-0.2-0.1-0.3-0.1h-0.1v0.5L115.8,49.8z"/>
	</g>
</g>
</svg>
