<?xml version="1.0" encoding="utf-8"?>
<!-- Generator: Adobe Illustrator 24.2.1, SVG Export Plug-In . SVG Version: 6.00 Build 0)  -->
<svg version="1.1" id="Layer_1" xmlns="http://www.w3.org/2000/svg" xmlns:xlink="http://www.w3.org/1999/xlink" x="0px" y="0px"
	width="100px" height="100px" viewBox="0 0 100 100" style="enable-background:new 0 0 100 100;" xml:space="preserve">
<g>
	<path style="fill:#E8E8E8;" d="M50,0c27.6,0,50,22.4,50,50s-22.4,50-50,50S0,77.6,0,50S22.4,0,50,0"/>
	<path style="fill:#FFFFFF;" d="M50,1c27,0,49,22,49,49S77.1,99,50,99S1,77,1,50S23,1,50,1"/>
	<path style="fill:#E8E8E8;" d="M50,0c27.6,0,50,22.4,50,50s-22.4,50-50,50S0,77.6,0,50S22.4,0,50,0"/>
	<path style="fill:#FFFFFF;" d="M50,1c27,0,49,22,49,49S77.1,99,50,99S1,77,1,50S23,1,50,1"/>
	<g transform="translate(-151.93 -201.1)">
		<path style="fill:#03A9F5;" d="M169,254.3L169,254.3l-7.7-4.4V241l7.7-4.4l7.7,4.4v8.9L169,254.3z M169,243.1l-2,1.2v2.3l2,1.2
			l2-1.2v-2.3L169,243.1z"/>
		<path style="fill:#03A9F5;" d="M165.3,257.8v-2.3l-2-1.2l-2,1.2v2.3l2,1.2L165.3,257.8z"/>
		<path style="fill:#03A9F5;" d="M197,262c-0.8,0-1.7-0.2-2.4-0.6c-0.7-0.4-1.3-1-1.7-1.8c-0.8-1.6-0.8-3.5,0-5.1
			c0.4-0.7,1-1.3,1.7-1.8c0.7-0.4,1.5-0.7,2.4-0.6c0.6,0,1.3,0.1,1.9,0.4c0.5,0.3,1,0.6,1.3,1.1l0.1-1.3h2.3v9.5h-2.3l-0.2-1.4
			c-0.3,0.4-0.7,0.8-1.2,1.1C198.4,261.8,197.8,262,197,262z M197.5,259.8c0.7,0,1.4-0.3,1.9-0.8c0.5-0.5,0.8-1.2,0.8-2
			c0-0.8-0.3-1.5-0.8-2c-1.1-1.1-2.8-1.1-3.9,0c-0.5,0.5-0.8,1.2-0.8,2c0,0.8,0.2,1.5,0.8,2C196,259.5,196.7,259.8,197.5,259.8z"/>
		<path style="fill:#03A9F5;" d="M188.8,252.6c-0.7-0.4-1.6-0.7-2.4-0.7c-0.8,0-1.5,0.2-2,0.5c-0.5,0.3-0.9,0.7-1.2,1.1l-0.3-1.4
			h-2.2v13.5l2.5-1.5v-3.7c0.3,0.5,0.8,0.9,1.3,1.1c0.6,0.3,1.2,0.4,1.9,0.4c0.8,0,1.7-0.2,2.4-0.6c0.7-0.4,1.3-1,1.7-1.8
			c0.8-1.6,0.8-3.5,0-5.1C190.1,253.7,189.5,253.1,188.8,252.6z M187.8,259c-1.1,1.1-2.8,1.1-3.9,0c-0.5-0.5-0.8-1.2-0.8-2.1
			s0.3-1.5,0.8-2.1c1.1-1.1,2.8-1.1,3.9,0c0.5,0.6,0.8,1.3,0.8,2.1C188.6,257.8,188.3,258.5,187.8,259L187.8,259z"/>
		<path style="fill:#03A9F5;" d="M210.6,252c-0.7,0-1.4,0.2-2,0.5c-0.5,0.3-1,0.8-1.3,1.3l-0.2-1.6H205v9.6h2.5v-4.9
			c0-0.9,0.2-1.6,0.7-2c0.4-0.5,1.1-0.8,1.7-0.7c0.7,0,1.2,0.2,1.6,0.7c0.3,0.4,0.5,1.1,0.5,1.9v5.2h2.5v-5.4c0-1.4-0.3-2.5-1-3.3
			C212.7,252.3,211.8,252,210.6,252z"/>
		<path style="fill:#03A9F5;" d="M223.8,249.6v3.9c-0.3-0.5-0.8-0.9-1.3-1.1c-0.6-0.3-1.2-0.4-1.9-0.4c-0.8,0-1.7,0.2-2.4,0.6
			c-0.7,0.4-1.3,1-1.7,1.8c-0.8,1.6-0.8,3.5,0,5.1c0.4,0.7,1,1.4,1.7,1.8c0.7,0.4,1.6,0.7,2.4,0.7c0.8,0,1.5-0.2,2-0.5
			c0.5-0.3,0.9-0.7,1.2-1.1l0.3,1.4h2.2v-13.6L223.8,249.6z M223.1,259c-1.1,1.1-2.8,1.1-3.9,0c-0.5-0.6-0.8-1.3-0.8-2.1
			c0-0.8,0.3-1.5,0.8-2c1.1-1.1,2.8-1.1,3.9,0c0.5,0.5,0.8,1.2,0.8,2.1S223.6,258.5,223.1,259z"/>
		<path style="fill:#03A9F5;" d="M228.8,261.8h2.5v-13.7l-2.5,1.5V261.8z"/>
		<path style="fill:#03A9F5;" d="M241.9,254.3c-0.4-0.7-1-1.3-1.7-1.7c-0.8-0.4-1.6-0.6-2.5-0.6c-0.9,0-1.8,0.2-2.6,0.6
			c-0.7,0.4-1.3,1-1.7,1.8c-0.4,0.8-0.6,1.7-0.6,2.6c0,0.9,0.2,1.8,0.6,2.6c0.4,0.7,1,1.3,1.8,1.7c0.8,0.4,1.7,0.6,2.6,0.6
			c0.7,0,1.4-0.1,2.1-0.4c0.6-0.3,1.1-0.7,1.5-1.2c0.4-0.5,0.7-1,0.9-1.6h-2.5c-0.2,0.4-0.4,0.7-0.8,0.9c-0.4,0.2-0.8,0.4-1.3,0.3
			c-0.6,0-1.2-0.2-1.7-0.6c-0.5-0.4-0.7-1-0.8-1.8h7.3c0-0.2,0-0.3,0-0.5c0-0.2,0-0.3,0-0.4C242.6,255.8,242.4,255,241.9,254.3
			L241.9,254.3z M235.3,256c0.1-0.7,0.4-1.2,0.9-1.6c0.5-0.3,1-0.5,1.6-0.5c0.6,0,1.1,0.2,1.6,0.6c0.4,0.4,0.7,0.9,0.7,1.5H235.3z"
			/>
	</g>
</g>
</svg>
