<?xml version="1.0" encoding="utf-8"?>
<!-- Generator: Adobe Illustrator 24.2.1, SVG Export Plug-In . SVG Version: 6.00 Build 0)  -->
<svg version="1.1" id="Layer_1" xmlns="http://www.w3.org/2000/svg" xmlns:xlink="http://www.w3.org/1999/xlink" x="0px" y="0px"
	width="100px" height="100px" viewBox="0 0 100 100" style="enable-background:new 0 0 100 100;" xml:space="preserve">
<g>
	<path style="fill:#E8E8E8;" d="M50,0c27.6,0,50,22.4,50,50s-22.4,50-50,50S0,77.6,0,50S22.4,0,50,0"/>
	<path style="fill:#FFFFFF;" d="M50,1c27,0,49,22,49,49S77.1,99,50,99S1,77,1,50S23,1,50,1"/>
	<path style="fill:#E8E8E8;" d="M50,0c27.6,0,50,22.4,50,50s-22.4,50-50,50S0,77.6,0,50S22.4,0,50,0"/>
	<path style="fill:#FFFFFF;" d="M50,1c27,0,49,22,49,49S77.1,99,50,99S1,77,1,50S23,1,50,1"/>
	<g>
		<path style="fill:#FEFEFE;" d="M80.8,54.1C80.8,54.1,80.8,54.1,80.8,54.1L80.8,54.1C80.8,54.1,80.8,54.1,80.8,54.1z"/>
		<path style="fill:#2C9F1C;" d="M25.6,44.7c-1.1-4.8-5.4-8-10.3-7.5c-3.9,0.4-7.3,3.4-8.2,7.2c-0.2,1-0.4,2.6-0.1,3.9
			c1,5.2,5.8,8.4,11,7.6C23.2,55.1,26.7,49.9,25.6,44.7z M15.9,52.2h-1.3v-8c-0.1,0-0.1,0-0.2,0c-0.1,0-0.2,0-0.3,0
			c-0.4,0-0.7,0-1.1,0l0,0c-0.5,0.1-1,0.3-1.3,0.7c0,0-0.1,0.1-0.1,0.2c0,0,0,0.1-0.1,0.1c0,0.1-0.1,0.1-0.1,0.2s-0.1,0.1-0.1,0.2
			c0,0,0,0.1,0,0.1c0,0,0,0.1,0,0.1c0,0,0,0.1,0,0.1c0,0,0,0.1,0,0.1c-0.1,0.3-0.1,0.7-0.1,1c0.1,0.8,0.6,1.5,1.3,1.9
			c0,0,0.1,0,0.1,0.1c0,0,0.1,0,0.1,0c0.1,0,0.1,0.1,0.2,0.1c0.1,0,0.1,0,0.2,0.1s0.1,0,0.2,0c0.1,0,0.2,0,0.3,0c0.1,0,0.2,0,0.4,0
			l0,0v1.3l0,0c-0.3,0-0.5,0-0.8,0c0,0-0.1,0-0.1,0c-0.1,0-0.2,0-0.2,0c0,0-0.1,0-0.1,0c-0.1,0-0.3-0.1-0.4-0.1c0,0-0.1,0-0.1-0.1
			l-0.1,0c0,0-0.1,0-0.1-0.1c-0.1,0-0.1-0.1-0.2-0.1c0,0-0.1,0-0.1-0.1c-0.2-0.1-0.4-0.3-0.6-0.5c0,0-0.1-0.1-0.1-0.1
			c-0.4-0.5-0.8-1-0.9-1.6c-0.4-1.3,0-2.8,1-3.8c0,0,0.1-0.1,0.1-0.1c0,0,0.1-0.1,0.1-0.1c0,0,0.1-0.1,0.1-0.1
			c0.1-0.1,0.3-0.2,0.4-0.3c0.1-0.1,0.2-0.1,0.3-0.1c0.1,0,0.1,0,0.2-0.1c0.1,0,0.3-0.1,0.4-0.1c0.1,0,0.1,0,0.2,0
			c0.1,0,0.2,0,0.4,0c0.9-0.1,1.8,0,2.7,0l0,0L15.9,52.2z M22.8,47.8c0,0.1,0,0.1-0.1,0.2l0,0c0,0.1,0,0.1-0.1,0.2
			c-0.1,0.1-0.1,0.3-0.2,0.4c0,0.1-0.1,0.2-0.1,0.2c0,0-0.1,0.1-0.1,0.1c0,0-0.1,0.1-0.1,0.1l-0.1,0.1c0,0-0.1,0.1-0.1,0.1
			c-0.1,0.1-0.2,0.2-0.3,0.2c0,0-0.1,0.1-0.1,0.1c0,0-0.1,0.1-0.1,0.1c-0.1,0.1-0.2,0.1-0.3,0.2c-0.1,0-0.1,0.1-0.2,0.1
			c-0.2,0.1-0.4,0.2-0.6,0.3c-0.1,0-0.1,0-0.2,0.1c-0.3,0.1-0.6,0.1-0.9,0.1c-0.6,0-1.2,0-1.8,0c-0.3,0-0.5,0-0.8,0V41H18v8
			c0.7,0,1.3,0.1,1.9-0.1c0,0,0.1,0,0.1,0c0.1,0,0.1,0,0.2-0.1c0,0,0.1,0,0.1,0c0.1,0,0.1-0.1,0.2-0.1c0.1,0,0.2-0.1,0.2-0.2
			c0.1-0.1,0.1-0.1,0.2-0.2c0.1-0.1,0.2-0.2,0.3-0.4c0-0.1,0.1-0.1,0.1-0.2c0,0,0-0.1,0-0.1c0,0,0-0.1,0.1-0.1
			c0-0.1,0.1-0.1,0.1-0.2c0.1-0.4,0.2-0.8,0.1-1.1c0,0,0,0,0-0.1l0,0c0-0.1,0-0.1,0-0.2l0,0c0-0.1,0-0.1,0-0.2c0-0.1,0-0.1-0.1-0.1
			s0-0.1-0.1-0.1c-0.4-0.8-1.2-1.4-2.1-1.4c-0.1,0-0.2,0-0.3,0h-0.1v-1.3c0.5-0.1,1.1,0,1.7,0.2c0,0,0.1,0,0.1,0.1
			c0.1,0,0.1,0.1,0.2,0.1c0,0,0.1,0,0.1,0.1c0,0,0.1,0,0.1,0.1c0.1,0,0.1,0.1,0.2,0.1l0,0c0.1,0,0.1,0.1,0.2,0.2
			c0,0,0.1,0.1,0.1,0.1c0.1,0.1,0.1,0.1,0.2,0.2c0,0,0.1,0.1,0.1,0.1c0,0,0.1,0.1,0.1,0.1c0,0,0.1,0.1,0.1,0.1
			c0.2,0.2,0.4,0.5,0.5,0.8C23.1,45.9,23.1,46.9,22.8,47.8L22.8,47.8z"/>
		<path style="fill:#4D4D4D;" d="M35.9,53.2c1.5-0.9,2.2-2.1,2.3-3.8c0.1-2.8-2-4.9-4.8-4.9c-3.1,0-5.3,2.8-4.7,5.8
			c0.5,2.2,2.3,3.7,4.6,3.8c1.6,0,3.1,0,4.7,0c0.1,0,0.2,0,0.3,0v-0.9H35.9z M34.6,52.9c-2.4,0.8-4.8-1-4.8-3.6
			c0-2.2,1.6-3.8,3.7-3.8c1.8,0,3.3,1.5,3.5,3.4C37.1,50.8,36.2,52.4,34.6,52.9z"/>
		<path style="fill:#4D4D4D;" d="M66,51.1c-0.1-0.9-0.8-1.6-1.8-1.9c-0.1,0-0.2,0-0.2-0.1c0.1-0.1,0.3-0.1,0.4-0.2
			c1.2-0.7,1.5-2.4,0.5-3.4c-0.5-0.5-1.1-0.7-1.8-0.8c-1.2-0.1-2.3,0-3.5,0c0,0,0,0-0.1,0v9.3c1.2,0,2.4,0.1,3.6,0
			c0.6,0,1.1-0.2,1.6-0.5C65.8,53.1,66.2,52.3,66,51.1z M60.7,45.8c0.9,0,1.8-0.1,2.7,0.1c0.7,0.2,1,0.7,1,1.4s-0.5,1.2-1.2,1.3
			c-0.8,0.1-1.6,0.1-2.4,0.1V45.8z M63.3,53.1c-0.2,0-0.4,0.1-0.5,0.1c-0.6,0-1.3,0-2,0v-3.3c0.9,0,1.7-0.1,2.5,0.1
			c1,0.1,1.6,0.8,1.6,1.7C64.9,52.3,64.2,52.9,63.3,53.1L63.3,53.1z"/>
		<path style="fill:#4D4D4D;" d="M59.3,54.1h-1.5c-1-1-2-2.1-3-3.2v3.2h-1v-9.3h1v5.9c1-0.9,1.9-1.8,2.8-2.7H59l-3,2.8
			C57.2,51.9,58.2,53,59.3,54.1z"/>
		<path style="fill:#4D4D4D;" d="M86.3,54.1h-1.5l-3-3.2v3.2h-1c0,0,0,0,0,0c0,0,0,0,0,0c0,0,0-0.1,0-0.1c0-0.1,0-0.1,0-0.2
			c0-0.1,0-0.1,0-0.2c0,0,0-0.1,0-0.1c0,0,0-0.1,0-0.1c0-0.1,0-0.2,0-0.2c0-0.1,0-0.1,0-0.2v0c0-0.1,0-0.1,0-0.2c0-0.3,0-0.5,0-0.8
			c0-0.1,0-0.1,0-0.2c0-2.6,0-6.3,0-6.8h1v5.8c0,0,0.1,0,0.1,0c0.9-0.9,1.8-1.8,2.8-2.7h1.5l-3,2.8C84.2,51.9,85.2,53,86.3,54.1z"/>
		<path style="fill:#4D4D4D;" d="M76.9,47.8c-1.9,0-3.3,1.3-3.3,3.2c0,1.9,1.4,3.3,3.3,3.3c1.9,0,3.3-1.3,3.3-3.2
			C80.2,49.2,78.8,47.8,76.9,47.8z M76.9,53.4c-1.3,0-2.2-0.9-2.2-2.3c0-1.3,0.9-2.3,2.2-2.3c1.3,0,2.2,0.9,2.2,2.3
			C79.1,52.4,78.2,53.3,76.9,53.4L76.9,53.4z"/>
		<path style="fill:#4D4D4D;" d="M69.8,47.8c-1.9,0-3.3,1.3-3.3,3.2c0,1.9,1.4,3.3,3.3,3.3c1.9,0,3.3-1.3,3.3-3.2
			C73.1,49.2,71.7,47.8,69.8,47.8z M69.8,53.4c-1.3,0-2.2-0.9-2.2-2.3c0-1.3,0.9-2.3,2.2-2.3c1.3,0,2.2,1,2.2,2.3
			S71.1,53.4,69.8,53.4L69.8,53.4z"/>
		<path style="fill:#4D4D4D;" d="M43.6,54.1v-1c-0.5,0.8-1.1,1.1-1.9,1.2c-1.5,0.1-2.5-0.7-2.5-2.2c-0.1-1.3,0-2.7,0-4.1h1
			c0.1,0.1,0.1,0.2,0.1,0.4c0,1,0,2.1,0,3.1c0,0.2,0,0.3,0,0.5c0.1,0.8,0.4,1.2,1,1.4c0.8,0.2,1.6-0.1,1.9-0.8
			c0.3-0.5,0.4-1,0.4-1.5c0-0.9,0-1.8,0-2.7V48c0.3,0,0.7,0,1,0c0,2.1,0,4.1,0.1,6.1L43.6,54.1z"/>
		<path style="fill:#4D4D4D;" d="M90.3,53.6c-1.1,1.1-3.5,0.8-4.4-0.5c0.3-0.2,0.5-0.4,0.8-0.6c0.6,0.7,1.3,1,2.2,0.7
			c0.2,0,0.3-0.1,0.4-0.2c0.5-0.4,0.5-1-0.1-1.4c-0.3-0.2-0.7-0.2-1.1-0.3c-0.4-0.1-0.8-0.2-1.1-0.4c-0.8-0.4-1.1-1.3-0.7-2.1
			c0-0.1,0.1-0.2,0.1-0.2c0.9-1.2,3.3-1.2,4.1,0.2c0,0,0,0.1,0,0.1c-0.3,0.2-0.5,0.4-0.8,0.5c-0.4-0.6-1-0.9-1.8-0.7
			c-0.1,0-0.3,0.1-0.4,0.2c-0.2,0.1-0.4,0.4-0.4,0.7c0,0.3,0.2,0.4,0.4,0.5c0.4,0.2,0.9,0.3,1.3,0.4c0.3,0.1,0.5,0.1,0.8,0.2
			c0.9,0.4,1.3,1.4,0.9,2.3C90.6,53.3,90.5,53.5,90.3,53.6z"/>
		<path style="fill:#4D4D4D;" d="M52.3,52.6c0.3,0.2,0.5,0.5,0.7,0.7c-0.8,1.2-3.1,1.4-4.4,0.3c-1.4-1.2-1.5-3.6-0.2-4.9
			c1.2-1.2,3.6-1.2,4.6,0.1c0,0,0,0.1-0.1,0.1c-0.2,0.2-0.5,0.4-0.7,0.6c-0.3-0.3-0.6-0.6-1.1-0.7c-1.3-0.3-2.4,0.4-2.6,1.7
			c-0.1,0.4-0.1,0.7,0,1.1c0.2,0.8,0.6,1.4,1.4,1.6C51,53.5,51.8,53.3,52.3,52.6z"/>
		<path style="fill:#365EBE;" d="M34.2,42c0,0.3,0.1,0.6,0,0.8c-0.3,0.1-0.6,0.1-0.9,0c0-0.5,0-1,0-1.4c0-0.4,0-0.7,0-1.1
			c0-0.5-0.3-0.6-0.8-0.5c-0.3,0.1-0.5,0.2-0.8,0.4v2.7c-0.3,0.1-0.6,0.1-0.9,0V39c0.3-0.1,0.5,0,0.8,0c0.2,0.1,0.1,0.2,0.2,0.3
			c0.4-0.3,0.9-0.4,1.4-0.4c0.6,0,1,0.4,1.1,0.9C34.3,40.5,34.2,41.3,34.2,42z"/>
		<path style="fill:#365EBE;" d="M41.9,39v3.8c-0.3,0.1-0.5,0.1-0.7,0.1c-0.1-0.1-0.1-0.2-0.2-0.3c0,0-0.1,0-0.1,0
			c-0.4,0.3-0.9,0.4-1.4,0.3c-0.5-0.1-0.9-0.4-0.9-0.9c-0.1-1,0-2,0-3c0.3-0.1,0.6,0,0.9,0c0.1,0.2,0.1,0.3,0.1,0.5
			c0,0.6,0,1.2,0,1.8c0,0.7,0.4,0.9,1,0.7c0.2-0.1,0.4-0.2,0.5-0.3V39C41.3,39,41.6,39,41.9,39z"/>
		<rect x="45.7" y="48" style="fill:#4E4E4E;" width="1" height="6.1"/>
		<path style="fill:#365EBE;" d="M47.7,39.8c-0.3,0.1-0.7,0-1,0.1v2.9c-0.3,0.1-0.6,0.1-1,0v-3c-0.4-0.1-0.7,0-1.1-0.1
			c-0.1-0.3-0.1-0.5,0-0.8h3.1C47.8,39.3,47.8,39.5,47.7,39.8z"/>
		<path style="fill:#365EBE;" d="M37.8,39.8c-0.3,0.1-0.7,0-1.1,0.1v2.9c-0.3,0.1-0.6,0.1-0.9,0v-2.9c-0.4-0.1-0.7,0-1.1-0.1
			c-0.1-0.3,0-0.5,0-0.8h3.1C37.9,39.3,37.9,39.5,37.8,39.8z"/>
		<path style="fill:#375FBF;" d="M29.7,39v3.8c-0.3,0.1-0.6,0.1-0.9,0V39C29.1,39,29.4,39,29.7,39z"/>
		<path style="fill:#365EBE;" d="M43.9,39v3.8c-0.3,0.1-0.6,0.1-0.9,0V39C43.3,39,43.6,39,43.9,39z"/>
		<path style="fill:#375EBF;" d="M36.9,37.9c0,0.3-0.2,0.6-0.5,0.6c0,0,0,0,0,0c-0.3,0-0.6-0.2-0.6-0.5c0,0,0,0,0,0
			c0-0.3,0.2-0.6,0.6-0.6c0,0,0,0,0,0C36.6,37.3,36.9,37.6,36.9,37.9z"/>
		<path style="fill:#375EBE;" d="M46.8,37.9c0,0.3-0.3,0.6-0.6,0.6c0,0,0,0,0,0c-0.3,0-0.6-0.2-0.6-0.5c0,0,0,0,0,0
			c0-0.3,0.3-0.6,0.6-0.6C46.5,37.3,46.8,37.6,46.8,37.9C46.8,37.9,46.8,37.9,46.8,37.9z"/>
		<path style="fill:#FEFEFE;" d="M16.8,41H18v8c0.7,0,1.3,0.1,1.9-0.1c1.2-0.4,1.9-1.5,1.7-2.7c-0.1-1.1-1.1-2-2.3-2.1
			c-0.1,0-0.3,0-0.4,0v-1.3c1.4-0.3,3.1,0.7,3.7,2.1c1.1,2.5-0.6,5.2-3.3,5.4c-0.9,0-1.7,0-2.6,0L16.8,41z"/>
		<path style="fill:#FEFEFE;" d="M14.6,44.2c-0.6,0-1.1,0-1.6,0.1c-1.3,0.2-2.1,1.3-2,2.7c0.1,1.2,1.2,2.1,2.4,2.2
			c0.1,0,0.2,0,0.4,0v1.3c-1.7,0.3-3.5-1-3.9-2.7c-0.6-2.3,1-4.6,3.4-4.8c0.9-0.1,1.8,0,2.7,0v9.3h-1.3V44.2z"/>
		<path style="fill:#4D4D4D;" d="M92.3,52.5c-0.5,0-0.9,0.4-0.9,0.9s0.4,0.9,0.9,0.9c0.5,0,0.9-0.4,0.9-0.9S92.8,52.5,92.3,52.5z
			 M92.3,54.2c-0.4,0-0.8-0.3-0.8-0.8s0.3-0.8,0.8-0.8S93,53,93,53.4S92.7,54.2,92.3,54.2z"/>
		<path style="fill:#4D4D4D;" d="M92.3,53.5h-0.2v0.4H92V53h0.3c0.1,0,0.2,0,0.2,0.1c0.1,0.1,0.1,0.1,0.1,0.2c0,0.1,0,0.1,0,0.2
			c0,0-0.1,0.1-0.1,0.1l0.2,0.4v0h-0.1L92.3,53.5z M92.1,53.4h0.2c0.1,0,0.1,0,0.1,0c0,0,0.1-0.1,0.1-0.1c0-0.1,0-0.1-0.1-0.1
			c0,0-0.1,0-0.1,0h-0.2L92.1,53.4z"/>
		<g>
			<path style="fill:#4D4D4D;" d="M72,62.8c-0.5,0-0.9-0.1-1.3-0.3c-0.4-0.2-0.7-0.4-0.9-0.7c-0.2-0.3-0.4-0.6-0.6-0.9
				c-0.1-0.4-0.2-0.7-0.2-1.1s0.1-0.7,0.2-1.1c0.1-0.3,0.3-0.7,0.6-0.9c0.2-0.3,0.6-0.5,0.9-0.7C71.1,57,71.6,57,72,57
				c0.5,0,0.9,0.1,1.3,0.3c0.4,0.2,0.7,0.4,0.9,0.7c0.2,0.3,0.4,0.6,0.6,0.9c0.1,0.4,0.2,0.7,0.2,1.1s-0.1,0.7-0.2,1.1
				c-0.1,0.4-0.3,0.7-0.6,0.9c-0.2,0.3-0.6,0.5-0.9,0.7C72.9,62.7,72.5,62.8,72,62.8z M72,62.2c0.3,0,0.6-0.1,0.9-0.2
				c0.3-0.1,0.5-0.3,0.7-0.5c0.2-0.2,0.3-0.5,0.4-0.7s0.2-0.6,0.2-0.9c0-0.3-0.1-0.6-0.2-0.9c-0.1-0.3-0.2-0.5-0.4-0.7
				c-0.2-0.2-0.4-0.4-0.7-0.5c-0.3-0.1-0.6-0.2-0.9-0.2s-0.6,0.1-0.9,0.2c-0.3,0.1-0.5,0.3-0.7,0.5c-0.2,0.2-0.3,0.4-0.4,0.7
				c-0.1,0.3-0.2,0.6-0.2,0.9c0,0.3,0.1,0.6,0.2,0.9c0.1,0.3,0.2,0.5,0.4,0.7c0.2,0.2,0.4,0.4,0.7,0.5C71.4,62.1,71.7,62.2,72,62.2z
				"/>
			<path style="fill:#4D4D4D;" d="M78.2,62.7v-2c0-0.2,0-0.3,0-0.4c0-0.1,0-0.2-0.1-0.3c-0.1-0.1-0.1-0.2-0.3-0.3
				c-0.1-0.1-0.3-0.1-0.4-0.1c-0.2,0-0.3,0-0.5,0.1c-0.1,0.1-0.2,0.2-0.3,0.3c-0.1,0.1-0.1,0.2-0.1,0.3c0,0.1,0,0.2,0,0.4v2h-0.7
				v-3.6h0.6l0,0.4c0.1-0.2,0.3-0.3,0.5-0.4c0.2-0.1,0.4-0.1,0.6-0.1c0.2,0,0.5,0.1,0.7,0.2c0.2,0.1,0.4,0.3,0.5,0.5
				c0.1,0.1,0.1,0.2,0.1,0.4c0,0.1,0,0.3,0,0.6v2.1H78.2z"/>
			<path style="fill:#4D4D4D;" d="M79.8,62.7V57h0.7v5.7H79.8z"/>
			<path style="fill:#4D4D4D;" d="M81.3,57.5c0-0.1,0-0.2,0.1-0.3c0.1-0.1,0.2-0.1,0.3-0.1c0.1,0,0.2,0,0.3,0.1
				c0.1,0.1,0.1,0.2,0.1,0.3c0,0.1,0,0.2-0.1,0.3c-0.1,0.1-0.2,0.1-0.3,0.1c-0.1,0-0.2,0-0.3-0.1C81.4,57.7,81.3,57.6,81.3,57.5z
				 M81.4,62.7v-3.6h0.7v3.6H81.4z"/>
			<path style="fill:#4D4D4D;" d="M85.5,62.7v-2c0-0.2,0-0.3,0-0.4c0-0.1,0-0.2-0.1-0.3c-0.1-0.1-0.1-0.2-0.3-0.3
				c-0.1-0.1-0.3-0.1-0.4-0.1c-0.2,0-0.3,0-0.5,0.1c-0.1,0.1-0.2,0.2-0.3,0.3c-0.1,0.1-0.1,0.2-0.1,0.3c0,0.1,0,0.2,0,0.4v2h-0.7
				v-3.6h0.6l0,0.4c0.1-0.2,0.3-0.3,0.5-0.4c0.2-0.1,0.4-0.1,0.6-0.1c0.2,0,0.5,0.1,0.7,0.2c0.2,0.1,0.4,0.3,0.5,0.5
				c0.1,0.1,0.1,0.2,0.1,0.4c0,0.1,0,0.3,0,0.6v2.1H85.5z"/>
			<path style="fill:#4D4D4D;" d="M88.8,62.3c0.2,0,0.4,0,0.6-0.1s0.3-0.2,0.5-0.4l0.5,0.3c-0.2,0.3-0.4,0.5-0.6,0.6
				c-0.3,0.1-0.6,0.2-0.9,0.2c-0.3,0-0.5,0-0.7-0.1c-0.2-0.1-0.4-0.2-0.6-0.4c-0.2-0.2-0.3-0.4-0.4-0.6c-0.1-0.2-0.1-0.5-0.1-0.8
				c0-0.3,0-0.5,0.1-0.7c0.1-0.2,0.2-0.4,0.4-0.6c0.2-0.2,0.3-0.3,0.6-0.4c0.2-0.1,0.5-0.2,0.7-0.2c0.3,0,0.5,0,0.7,0.1
				c0.2,0.1,0.4,0.2,0.6,0.4c0.2,0.2,0.3,0.4,0.4,0.6c0.1,0.2,0.1,0.5,0.1,0.8v0.1h-2.9c0,0.2,0.1,0.3,0.1,0.5
				c0.1,0.1,0.2,0.3,0.3,0.4c0.1,0.1,0.2,0.2,0.4,0.2C88.5,62.2,88.6,62.3,88.8,62.3z M89.8,60.6c0-0.3-0.1-0.5-0.3-0.7
				c-0.2-0.2-0.4-0.3-0.7-0.3c-0.2,0-0.3,0-0.4,0.1c-0.1,0.1-0.2,0.1-0.3,0.2c-0.1,0.1-0.2,0.2-0.2,0.3c-0.1,0.1-0.1,0.2-0.1,0.4
				H89.8z"/>
		</g>
	</g>
</g>
</svg>
