<?xml version="1.0" encoding="utf-8"?>
<!-- Generator: Adobe Illustrator 24.2.1, SVG Export Plug-In . SVG Version: 6.00 Build 0)  -->
<svg version="1.1" id="Layer_1" xmlns="http://www.w3.org/2000/svg" xmlns:xlink="http://www.w3.org/1999/xlink" x="0px" y="0px"
	 viewBox="0 0 527.1 154.6" style="enable-background:new 0 0 527.1 154.6;" xml:space="preserve">
<g>
	<g id="QuickBooks_Lockup">
		<g id="Wordmark">
			<path id="_" d="M524.6,77.1c0-1.1-0.9-1.5-1.9-1.5h-1.8v5h0.9v-2.1h0.6l1.2,2.1h1.1l-1.3-2.2C524.1,78.3,524.6,77.8,524.6,77.1z
				 M521.9,77.8v-1.4h0.8c0.4-0.1,0.9,0.1,1,0.6c0,0,0,0.1,0,0.1c-0.1,0.5-0.6,0.8-1.1,0.7c0,0,0,0,0,0L521.9,77.8L521.9,77.8z
				 M522.7,73.7c-2.4,0-4.4,2-4.4,4.4s2,4.4,4.4,4.4c2.4,0,4.4-2,4.4-4.4S525.1,73.7,522.7,73.7L522.7,73.7z M522.7,81.9
				c-2,0-3.7-1.7-3.7-3.7s1.7-3.7,3.7-3.7s3.7,1.7,3.7,3.7C526.3,80.2,524.7,81.8,522.7,81.9z"/>
			<path id="quickbooks" d="M236.6,74.5c-6.5,0-9.8-5.8-9.8-11.4s3.6-11.2,9.5-11.2c2.8,0,6.3,1.4,7.6,3.3l6.9-6.9
				c-3.3-3.5-8.6-5.6-14.5-5.6c-12,0-20.7,8.6-20.7,20.4s8.6,20.4,20.9,20.4c5.9,0,11.3-1.7,14.5-5.2l-6.7-7.2
				C242.8,73.1,239.6,74.5,236.6,74.5z M198.1,82.5h10.7V43.8h-10.7V82.5z M178.7,65c0,4.5-3,9.4-8.5,9.4s-6.5-3-6.5-9.3V43.8H153
				v24c0,8,4,15.8,14.6,15.8c5,0,9.2-4,11.4-6.9h0.2v5.8h10.2V43.8h-10.7V65z M133.7,48.7h-0.2c-1.5-1.7-5.6-6-12.2-6
				c-10.9,0-19.3,8.5-19.3,20.3s7.7,20.6,18.8,20.6c4.7-0.1,9.2-2.2,12.4-5.7h0.2v23.7h10.7V43.8h-10.4V48.7L133.7,48.7z
				 M123.3,74.4c-6.6,0-10.4-5.8-10.4-11.5s3.4-11.3,10.4-11.3s10.3,5.9,10.3,11.5S129.8,74.5,123.3,74.4L123.3,74.4z M366.6,42.7
				c-12.2,0-21,8.5-21,20.3s9,20.7,21,20.7s21-8.6,21-20.7s-8.7-20.3-20.9-20.3L366.6,42.7z M366.6,74.4c-7,0-10.1-5.9-10.1-11.5
				s3.2-11.3,10.1-11.3c6.9,0,10.1,5.9,10.1,11.3s-3,11.6-10,11.6L366.6,74.4z M500.2,58.6c-5.5-1.3-7.4-2-7.4-4.2s3.9-3.7,5.7-3.7
				c3.3,0,7.1,2,8.5,3.9l6.3-6c-2.9-3.7-8.6-5.8-14.7-5.8c-7.7,0-15.8,3.9-15.8,12.6s5.8,9.7,11.6,11.1s8.2,2.4,8.2,4.9
				s-4.1,4.2-5.5,4.2c-3.7-0.2-7.2-1.8-9.7-4.6l-6.5,6.6c3.5,3.9,9.6,6.3,15.8,6.3c10.4,0,16.6-5,16.6-13.2s-7.6-10.7-13-12
				L500.2,58.6z M480.1,43.8h-13.8l-13.8,16.1h-0.2V22.5h-10.7v60h10.7V63.4h0.2l14.3,19.1h14.1l-16.6-21.1L480.1,43.8z M321.6,42.7
				c-4.9,0-8.5,2.1-11.9,5.3h-0.1V22.5h-10.7v60h10.2V77h0.2c2.7,4.1,7.3,6.6,12.2,6.6c11,0,19.4-8.7,19.4-20.6
				S332.5,42.7,321.6,42.7z M319.5,74.4c-6.4,0-10.3-5.7-10.3-11.3s3.9-11.5,10.3-11.5s10.4,5.9,10.4,11.3s-3.7,11.6-10.4,11.6V74.4
				z M294.9,43.8h-13.8l-13.8,16.1h-0.2V22.5h-10.7v60h10.7V63.4h0.2l14.3,19.1h14.1l-16.6-21.1L294.9,43.8z M413.6,42.7
				c-12.2,0-21,8.5-21,20.3s9,20.7,21,20.7s21-8.6,21-20.7S425.8,42.7,413.6,42.7z M413.6,74.4c-7,0-10.1-5.9-10.1-11.5
				s3.2-11.3,10.1-11.3s10.1,5.9,10.1,11.3s-3.1,11.6-10.1,11.6V74.4z"/>
		</g>
		<g id="Icon">
			<circle id="Circle" style="fill:#2CA01C;" cx="45" cy="45" r="45"/>
			<path id="qb" style="fill:#FFFFFF;" d="M12.5,45c0,9.7,7.8,17.5,17.5,17.5h2.5V56H30c-6.1,0-11-4.9-11-11s4.9-11,11-11h6v34
				c0,3.6,2.9,6.5,6.5,6.5v-47H30C20.3,27.5,12.5,35.3,12.5,45z M60,27.5h-2.5V34H60c6.1,0,11,4.9,11,11s-4.9,11-11,11h-6V22
				c0-3.6-2.9-6.5-6.5-6.5l0,0v47H60c9.7,0,17.5-7.8,17.5-17.5S69.7,27.5,60,27.5z"/>
		</g>
		<path id="intuit" d="M146,10.3c1.7,0,3-1.3,3-3s-1.3-3-3-3s-3,1.3-3,3S144.3,10.3,146,10.3z M128.3,12.3c-2.6,0-4.9,1.4-6.1,3.7
			h-0.1v-3.2h-4.7v19.7h4.9V21.7c0-2.6,1.5-5.3,4.6-5.3s3.7,2.9,3.7,5.2v10.9h5V20.2C135.6,16.2,133.4,12.3,128.3,12.3L128.3,12.3z
			 M107.5,32.6h4.9V12.9h-4.9V32.6L107.5,32.6z M197,10.3c1.7,0,3-1.3,3-3s-1.3-3-3-3s-3,1.3-3,3S195.3,10.3,197,10.3L197,10.3
			L197,10.3z M189,12.9v4.4h5.5v15.3h4.9V17.2h5.5v-4.4h-16L189,12.9z M180.6,32.5h4.9V12.9h-4.9v19.7V32.5z M138.1,17.2h5.5v15.3
			h4.9V17.2h5.5v-4.4h-16v4.4L138.1,17.2z M170.7,23.7c0,2.6-1.5,5.3-4.6,5.3s-3.7-2.9-3.7-5.2V12.9h-4.9v12.3c0,4,2.1,8,7.3,8
			c2.6,0,4.9-1.4,6.1-3.7h0.1v3.2h4.6V12.9h-5v10.8L170.7,23.7z"/>
	</g>
	<g>
		<path d="M357.8,122.8c0,3.1-0.7,6.1-2,9c-1.3,2.9-3.2,5.3-5.7,7.2c-1.6,1.2-3.4,2.1-5.5,2.9c-2.1,0.7-4.6,1.1-7.5,1.1h-12.8v-40.2
			H337c2.7,0,5.1,0.3,7.1,0.9s3.8,1.4,5.4,2.5c1.3,0.9,2.5,2,3.6,3.3c1,1.3,1.9,2.6,2.6,4.1c0.7,1.5,1.2,3,1.6,4.6
			C357.6,119.6,357.8,121.2,357.8,122.8z M352.4,122.8c0-2.7-0.5-5.1-1.5-7.3s-2.4-4.1-4.3-5.4c-1.2-0.9-2.6-1.6-4.2-2.1
			c-1.6-0.5-3.4-0.7-5.3-0.7h-7.7v31.2h7.6c2.1,0,4-0.3,5.7-0.8c1.7-0.5,3.2-1.3,4.4-2.3c1.7-1.4,3-3.2,3.9-5.4
			C351.9,127.6,352.4,125.3,352.4,122.8z"/>
		<path d="M375.2,139.6c1.5,0,2.9-0.3,4.1-1c1.2-0.6,2.3-1.7,3.3-3.1l3.5,2.3c-1.1,1.8-2.6,3.2-4.6,4.2c-1.9,1-4.1,1.5-6.4,1.5
			c-1.8,0-3.5-0.3-5.1-0.9c-1.6-0.6-2.9-1.5-4.1-2.7c-1.2-1.2-2.1-2.5-2.7-4.1c-0.7-1.6-1-3.4-1-5.4c0-1.8,0.3-3.5,0.9-5.1
			c0.6-1.6,1.5-3,2.6-4.2c1.1-1.2,2.5-2.1,4-2.9c1.6-0.7,3.3-1.1,5.3-1.1c1.8,0,3.5,0.3,5,0.9c1.5,0.6,2.9,1.5,4,2.6s2,2.5,2.7,4.2
			c0.6,1.7,1,3.6,1,5.7v0.8h-20.7c0.1,1.2,0.4,2.4,0.8,3.4s1.1,1.9,1.8,2.6c0.7,0.7,1.6,1.3,2.6,1.7
			C373.1,139.4,374.2,139.6,375.2,139.6z M382.5,127.9c-0.2-2.2-1-3.8-2.4-5c-1.4-1.2-3.1-1.8-5.1-1.8c-1.1,0-2.1,0.2-3,0.6
			s-1.7,0.9-2.4,1.5c-0.7,0.6-1.3,1.4-1.7,2.2c-0.4,0.8-0.7,1.7-0.8,2.5H382.5z"/>
		<path d="M410.4,135.8c0,1.1-0.2,2.2-0.7,3.1c-0.5,1-1.1,1.8-2,2.4c-0.8,0.7-1.8,1.2-3,1.6c-1.1,0.4-2.4,0.6-3.7,0.6
			c-2.3,0-4.3-0.5-6.1-1.4c-1.8-0.9-3.2-2.1-4.3-3.6l3.1-3c1,1.3,2.1,2.3,3.2,3c1.1,0.7,2.4,1,4,1c1.6,0,2.8-0.3,3.6-1
			c0.8-0.7,1.1-1.5,1.1-2.5c0-0.4-0.1-0.8-0.2-1.1c-0.1-0.4-0.4-0.8-0.9-1.1s-1-0.6-1.6-0.9c-0.6-0.2-1.4-0.5-2.4-0.8l-1.8-0.6
			c-0.8-0.3-1.5-0.5-2-0.7c-0.6-0.2-1.1-0.5-1.5-0.8c-1.2-0.7-2-1.6-2.4-2.4c-0.4-0.9-0.7-1.9-0.7-3.1c0-0.9,0.2-1.8,0.6-2.7
			c0.4-0.9,1-1.7,1.7-2.4c0.7-0.7,1.7-1.3,2.8-1.7c1.1-0.4,2.3-0.6,3.7-0.6c2,0,3.8,0.4,5.3,1.2c1.5,0.8,2.8,1.9,3.7,3.2l-3,2.8
			c-0.8-1-1.7-1.8-2.8-2.4s-2.2-0.9-3.3-0.9c-1.2,0-2.2,0.3-3,0.8c-0.8,0.5-1.3,1.3-1.3,2.4c0,0.6,0.1,1.1,0.4,1.5s0.7,0.8,1.1,1
			c0.4,0.2,0.8,0.4,1.2,0.6c0.4,0.2,1,0.4,1.7,0.6l2,0.6c1.2,0.4,2.2,0.8,3.1,1.1s1.6,0.9,2.3,1.5
			C409.8,132.4,410.4,133.9,410.4,135.8z"/>
		<path d="M416,142.9v-40.2h4.9v26.2l10.9-11.3h5.6l-12,11.9l12.7,13.3h-6.3l-10.8-11.5v11.5H416z"/>
		<path d="M442.9,121.6h-3.8v-3.9h3.8v-8h4.9v8h5.9v3.9h-5.9v21.3h-4.9V121.6z"/>
		<path d="M468.5,143.5c-2.1,0-4-0.4-5.6-1.1c-1.6-0.7-3-1.7-4.2-2.9c-1.2-1.2-2-2.6-2.7-4.2s-0.9-3.3-0.9-5c0-1.8,0.3-3.4,0.9-5
			c0.6-1.6,1.5-3,2.7-4.2c1.2-1.2,2.6-2.2,4.2-2.9c1.6-0.7,3.5-1.1,5.6-1.1c2.1,0,3.9,0.4,5.6,1.1s3.1,1.7,4.2,2.9s2,2.6,2.7,4.2
			c0.6,1.6,0.9,3.3,0.9,5c0,1.8-0.3,3.4-0.9,5s-1.5,3-2.7,4.2s-2.6,2.2-4.2,2.9S470.6,143.5,468.5,143.5z M468.5,139.6
			c1.3,0,2.4-0.3,3.5-0.8c1-0.5,1.9-1.2,2.7-2c0.7-0.9,1.3-1.8,1.7-3c0.4-1.1,0.6-2.3,0.6-3.5c0-1.2-0.2-2.4-0.6-3.5
			c-0.4-1.1-1-2.1-1.7-3c-0.7-0.9-1.6-1.5-2.7-2c-1-0.5-2.2-0.8-3.5-0.8c-1.3,0-2.5,0.3-3.5,0.8c-1,0.5-1.9,1.2-2.7,2
			c-0.7,0.9-1.3,1.8-1.7,3c-0.4,1.1-0.6,2.3-0.6,3.5c0,1.2,0.2,2.4,0.6,3.5c0.4,1.1,1,2.1,1.7,3c0.7,0.9,1.6,1.5,2.7,2
			S467.2,139.6,468.5,139.6z"/>
		<path d="M513.4,130.3c0,1.8-0.3,3.5-1,5.1c-0.6,1.6-1.5,3-2.6,4.2c-1.2,1.3-2.6,2.3-4.1,2.9s-3.1,1-4.8,1c-1.6,0-3.2-0.3-4.8-1
			c-1.5-0.7-2.8-1.7-3.9-3l-0.1,0.1v15.1h-4.9v-37h4.6l0.2,3.4l0.1,0.1c1-1.3,2.3-2.3,3.8-3c1.5-0.7,3.1-1,4.8-1
			c1.6,0,3.3,0.3,4.8,1c1.6,0.7,3,1.6,4.2,2.9c1.1,1.2,1.9,2.5,2.6,4.1C513.1,126.7,513.4,128.4,513.4,130.3z M492.2,130.3
			c0,1.2,0.2,2.4,0.5,3.5c0.3,1.1,0.8,2.1,1.5,2.9c0.7,0.8,1.5,1.5,2.6,2c1,0.5,2.2,0.8,3.6,0.8c1.1,0,2.2-0.2,3.1-0.7
			c1-0.4,1.8-1.1,2.5-1.9c0.7-0.8,1.3-1.8,1.7-2.9c0.4-1.1,0.6-2.4,0.6-3.8c0-1.3-0.2-2.6-0.6-3.7c-0.4-1.1-1-2.1-1.7-2.9
			c-0.7-0.8-1.6-1.5-2.6-1.9c-1-0.5-2.1-0.7-3.3-0.7c-2.4,0-4.3,0.8-5.9,2.5C492.9,125.1,492.2,127.4,492.2,130.3z"/>
	</g>
</g>
</svg>
