<?xml version="1.0" encoding="utf-8"?>
<!-- Generator: Adobe Illustrator 24.2.1, SVG Export Plug-In . SVG Version: 6.00 Build 0)  -->
<svg version="1.1" id="Layer_1" xmlns="http://www.w3.org/2000/svg" xmlns:xlink="http://www.w3.org/1999/xlink" x="0px" y="0px"
	 viewBox="0 0 195.5 113" style="enable-background:new 0 0 195.5 113;" xml:space="preserve">
<g>
	<g>
		<path style="fill:#00DC06;" d="M142.4,0c-9.3,0-15.4,6.4-15.4,16.9c0,13,9.3,16.8,15.9,16.8c5,0,9.8-2,13.2-5.6l-4.3-4.3
			c-2.4,2.2-5.6,3.4-8.8,3.3c-5.2,0-8.7-3-8.7-7.2h23.1C157.5,19.8,161.5,0,142.4,0 M134.4,14.2c0-5.6,4.2-8.3,8.8-8.3
			s8.7,2.7,8.7,8.3H134.4z"/>
		<path style="fill:#00DC06;" d="M57.5,13.6c-3-0.4-11.5,0-11.5-3.9c0-2.3,3.6-3.6,6.9-3.6c3.5-0.1,6.9,0.9,9.8,2.8l4.4-4.4
			C63,1.5,58-0.1,52.9,0C45.6,0,39,3.8,39,9.9c0,9.4,11.3,9.4,16,9.8c2.9,0.3,5.5,0.5,5.5,3.3c0,2.6-4,4.1-7.1,4.1
			c-4.1,0.1-8.1-1.4-11-4.3l-4.8,4.8c4.1,4,9.7,6.1,15.4,6.1c8.5,0,14.6-3.7,14.6-11.2C67.7,17.4,64.3,14.5,57.5,13.6"/>
		<path style="fill:#00DC06;" d="M81.8,0c-4.7,0-9.3,1.6-13,4.5L73.3,9c2.5-1.9,5.5-2.8,8.6-2.8c5.6,0,7.3,2.3,7.3,4.8v3.2h-10
			c-3.7,0-11,0.9-11,9.1c0,6,3.4,10.4,11.7,10.4c4.1,0,7.2-1.3,9.4-3.9V33h7.3V11.4C96.6,3.9,92,0,81.8,0 M89.3,21.3
			c0,6.2-4.4,5.9-8.4,5.9s-6.6-1.1-6.6-3.9c0-2.6,2.1-3.5,6.4-3.5h8.6V21.3z"/>
		<path style="fill:#00DC06;" d="M119.1,0.7v3.6c-2.3-2.8-5.8-4.4-9.5-4.3c-6.9,0-10.5,3.9-11.7,8c-0.4,1.5-0.6,4.5-0.6,8.8
			c0,4.1,0,7.8,1.4,10.6c2,4,6.8,6.2,10.8,6.2c3.6,0.1,7.1-1.4,9.5-4.1v2c0.1,2-0.8,3.9-2.3,5.2c-1.7,1.4-3.9,2.1-6.1,2
			c-2.2-0.1-4.3-0.9-6-2.2l-4.9,4.9c3.1,2.7,7,4.2,11.1,4.4c4,0.1,7.8-1.2,10.9-3.7c2.9-2.3,4.8-6.6,4.8-11.2V0.7H119.1z
			 M119.1,16.8c0.1,1.8,0,3.6-0.2,5.3c-0.4,2.1-2.8,4.8-7.1,4.8c-1.1,0-6.6-0.6-7.2-5.4c-0.2-1.6-0.3-3.2-0.2-4.7
			c-0.1-2,0-3.9,0.3-5.9c0.4-1.9,2.9-4.7,7.1-4.7c5.2,0,6.9,3.6,7.2,5C119,13.2,119.1,15,119.1,16.8"/>
	</g>
	<g>
		<path style="fill:#B0AEAB;" d="M27.7,78.6l9.1,26.4h-2l-3-9H21l-3.1,9h-1.8l9-26.3L27.7,78.6z M26.4,79.7l-4.8,14.6h9.7L26.4,79.7
			z"/>
		<path style="fill:#B0AEAB;" d="M45.9,105.4c-1.3,0-2.6-0.2-3.8-0.7c-1-0.4-1.9-1.1-2.5-2c-0.7-0.9-1.1-1.9-1.4-3
			c-0.3-1.3-0.4-2.6-0.4-3.9c0-3.3,0.8-5.7,2.3-7.3c1.7-1.7,4-2.5,6.3-2.4c0.8,0,1.7,0.1,2.5,0.4c0.7,0.2,1.4,0.6,2,1.1
			c0.6,0.5,1.1,1.1,1.4,1.9c0.4,0.8,0.6,1.7,0.6,2.6l-1.9,0.2c0-1.3-0.5-2.6-1.4-3.5c-0.9-0.8-2.2-1.2-3.4-1.1
			c-0.8,0-1.6,0.1-2.3,0.4c-0.8,0.3-1.5,0.7-2.1,1.3c-0.7,0.7-1.2,1.5-1.5,2.4c-0.4,1.2-0.6,2.5-0.6,3.8c0,1.4,0.1,2.8,0.6,4.1
			c0.3,0.9,0.8,1.8,1.4,2.5c0.5,0.6,1.2,1,2,1.3c0.7,0.2,1.5,0.3,2.3,0.4c1.3,0.1,2.5-0.3,3.5-1c1-0.8,1.6-1.9,1.8-3.2l1.8,0.4
			c-0.2,0.9-0.5,1.8-1,2.5c-0.4,0.7-0.9,1.2-1.5,1.7c-0.6,0.5-1.4,0.8-2.1,1C47.5,105.3,46.7,105.4,45.9,105.4z"/>
		<path style="fill:#B0AEAB;" d="M62.9,105.4c-1.3,0-2.6-0.2-3.8-0.7c-1-0.4-1.9-1.1-2.5-2c-0.7-0.9-1.1-1.9-1.4-3
			c-0.3-1.3-0.4-2.6-0.4-3.9c0-3.3,0.8-5.7,2.3-7.3c1.7-1.7,4-2.5,6.3-2.4c0.8,0,1.7,0.1,2.5,0.4c0.7,0.2,1.4,0.6,2,1.1
			c0.6,0.5,1.1,1.1,1.4,1.9c0.4,0.8,0.6,1.7,0.6,2.6l-1.9,0.2c0-1.3-0.6-2.6-1.4-3.5c-0.9-0.8-2.2-1.2-3.4-1.1
			c-0.8,0-1.6,0.1-2.3,0.4c-0.8,0.2-1.5,0.7-2.1,1.3c-0.7,0.7-1.2,1.5-1.5,2.4c-0.4,1.2-0.6,2.5-0.6,3.8c0,1.4,0.1,2.8,0.5,4.1
			c0.3,0.9,0.8,1.8,1.4,2.5c0.5,0.6,1.2,1,2,1.3c0.7,0.2,1.5,0.3,2.3,0.4c1.3,0.1,2.5-0.3,3.5-1c1-0.8,1.6-1.9,1.8-3.2l1.8,0.4
			c-0.2,0.9-0.5,1.8-1,2.5c-0.4,0.7-1,1.3-1.7,1.7c-0.6,0.5-1.4,0.8-2.1,1C64.5,105.3,63.7,105.4,62.9,105.4z"/>
		<path style="fill:#B0AEAB;" d="M80,105.4c-1.3,0-2.6-0.2-3.9-0.7c-1-0.5-1.9-1.1-2.5-2c-0.7-0.9-1.1-1.9-1.4-3
			c-0.3-1.2-0.4-2.5-0.4-3.8c-0.1-2.6,0.6-5.1,2.2-7.1c1.6-1.8,4-2.7,6.4-2.6c1.2,0,2.4,0.2,3.5,0.6c1,0.4,1.8,1.1,2.4,1.9
			c0.7,0.9,1.1,1.8,1.4,2.9c0.3,1.2,0.5,2.5,0.4,3.8c0,1.4-0.1,2.8-0.4,4.1c-0.3,1.1-0.8,2.2-1.4,3.2c-0.7,0.9-1.6,1.6-2.6,2
			C82.6,105.2,81.3,105.4,80,105.4z M80.1,103.7c0.9,0,1.8-0.1,2.6-0.5c0.8-0.3,1.5-0.8,2-1.4c0.6-0.8,1-1.6,1.3-2.6
			c0.6-2.5,0.6-5,0-7.4c-0.2-0.9-0.6-1.7-1.2-2.4c-0.5-0.6-1.2-1-1.9-1.3c-0.8-0.3-1.7-0.4-2.6-0.4c-0.9,0-1.8,0.2-2.7,0.5
			c-0.8,0.3-1.5,0.8-2.1,1.4c-0.6,0.7-1.1,1.5-1.4,2.5c-0.3,1.1-0.5,2.3-0.5,3.5C73.6,101,75.8,103.7,80.1,103.7z"/>
		<path style="fill:#B0AEAB;" d="M91.5,86.5h1.8v12.4c-0.1,1.2,0.2,2.5,0.9,3.6c0.8,0.9,2,1.4,3.2,1.3c0.7,0,1.4-0.1,2-0.3
			c0.7-0.2,1.3-0.4,1.9-0.7c0.6-0.3,1.1-0.6,1.6-0.9c0.4-0.3,0.8-0.6,1.2-0.9V86.5h1.8V105h-1.6l-0.1-2.4c-1,0.8-2.1,1.4-3.3,1.9
			c-1.2,0.5-2.5,0.8-3.9,0.8c-2,0-3.4-0.6-4.3-1.6c-0.9-1.4-1.4-3.1-1.2-4.8L91.5,86.5z"/>
		<path style="fill:#B0AEAB;" d="M125,105h-1.8V92.6c0.1-1.3-0.2-2.5-0.9-3.6c-0.8-0.9-2-1.4-3.2-1.3c-0.7,0-1.4,0.1-2,0.3
			c-0.7,0.2-1.3,0.4-1.9,0.7c-0.6,0.3-1.1,0.6-1.6,0.9c-0.4,0.3-0.8,0.6-1.2,0.9V105h-1.8V86.5h1.6l0.1,2.4c1.1-0.8,2.2-1.4,3.4-2
			c1.2-0.5,2.5-0.8,3.8-0.8c1.6-0.2,3.2,0.5,4.3,1.6c1,1.4,1.4,3.1,1.3,4.8L125,105z"/>
		<path style="fill:#B0AEAB;" d="M137.9,104.2c-0.6,0.4-1.2,0.6-1.8,0.8c-0.7,0.2-1.4,0.3-2.1,0.3c-1.3,0.1-2.6-0.3-3.6-1.1
			c-0.8-1-1.1-2.3-1-3.6V88h-2.9v-1.5h2.9v-5.3l1.8-0.3v5.6h5.2V88h-5.2v12.3c0,0.5,0,1,0.1,1.5c0.1,0.4,0.2,0.8,0.4,1.1
			c0.2,0.3,0.5,0.5,0.9,0.7c0.5,0.2,1,0.3,1.5,0.2c1.2,0,2.3-0.4,3.3-1L137.9,104.2z"/>
		<path style="fill:#B0AEAB;" d="M142.6,80.3c0,1-0.6,1.5-1.7,1.5s-1.7-0.5-1.7-1.5s0.6-1.6,1.7-1.6S142.6,79.3,142.6,80.3z
			 M141.7,105h-1.8V86.5h1.8V105z"/>
		<path style="fill:#B0AEAB;" d="M160.7,105h-1.8V92.6c0.1-1.2-0.2-2.5-0.9-3.6c-0.8-0.9-2-1.4-3.2-1.3c-0.7,0-1.4,0.1-2,0.3
			c-0.7,0.2-1.3,0.4-1.9,0.7c-0.6,0.3-1.1,0.6-1.7,0.9c-0.4,0.3-0.8,0.6-1.2,0.9V105h-1.8V86.5h1.6l0.1,2.4c1.1-0.8,2.2-1.4,3.4-2
			c1.2-0.5,2.5-0.8,3.8-0.8c1.6-0.2,3.2,0.5,4.3,1.6c1,1.4,1.4,3.1,1.3,4.8V105z"/>
		<path style="fill:#B0AEAB;" d="M179.4,104.4c0,1.2-0.1,2.4-0.4,3.6c-0.2,1-0.7,1.9-1.3,2.7c-0.7,0.8-1.5,1.4-2.4,1.7
			c-1.2,0.4-2.5,0.6-3.8,0.6c-0.8,0-1.6-0.1-2.4-0.3c-0.7-0.2-1.4-0.5-2.1-0.9c-0.6-0.4-1.2-1-1.6-1.6c-0.5-0.7-0.8-1.5-1-2.3
			l1.7-0.7c0.3,1.2,0.9,2.2,1.8,3c1,0.8,2.3,1.2,3.6,1.1c0.8,0,1.6-0.1,2.4-0.3c0.7-0.2,1.4-0.5,2-1c0.6-0.6,1.1-1.3,1.4-2.1
			c0.4-1.1,0.5-2.3,0.5-3.5v-1.8c-0.9,0.7-1.8,1.4-2.8,1.8c-1.2,0.5-2.4,0.8-3.7,0.7c-1,0-1.9-0.2-2.9-0.5c-0.9-0.4-1.6-0.9-2.2-1.7
			c-0.7-0.9-1.2-1.8-1.4-2.9c-0.4-1.4-0.5-2.8-0.5-4.2c0-1.6,0.2-3.1,0.6-4.6c0.3-1.1,0.9-2.2,1.7-3.1c0.7-0.8,1.5-1.3,2.5-1.7
			c1-0.3,2-0.5,3-0.5c1.1,0,2.1,0.2,3.1,0.6c0.9,0.4,1.7,0.8,2.5,1.3l0.1-1.5h1.6V104.4z M177.6,89.8l-0.9-0.6
			c-0.4-0.3-0.8-0.5-1.3-0.7c-0.5-0.2-1.1-0.4-1.6-0.6c-0.7-0.2-1.3-0.3-2-0.3c-1.8-0.2-3.6,0.7-4.5,2.3c-1,1.9-1.5,4-1.4,6.2
			c0,2.7,0.5,4.7,1.4,5.9c1,1.3,2.6,1.9,4.2,1.8c1.2,0,2.4-0.3,3.4-0.9c1-0.5,1.8-1.2,2.6-2L177.6,89.8z"/>
	</g>
	<rect y="58.5" style="fill:#B0AEAB;" width="195.5" height="0.8"/>
</g>
</svg>
