<?xml version="1.0" encoding="utf-8"?>
<!-- Generator: Adobe Illustrator 24.2.1, SVG Export Plug-In . SVG Version: 6.00 Build 0)  -->
<svg version="1.1" id="Layer_1" xmlns="http://www.w3.org/2000/svg" xmlns:xlink="http://www.w3.org/1999/xlink" x="0px" y="0px"
	 viewBox="0 0 1598.2 426" style="enable-background:new 0 0 1598.2 426;" xml:space="preserve">
<g id="Layer_2_1_">
	<g id="Layer_1-2">
		<path style="fill:#1F65A6;" d="M38.4,337.2l2.4,0.8c28.5,9.2,59-5.5,67.7-32.7l32.3-105.6c8.7-27.1-7.5-56.9-36-66l-2.4-0.8
			c-28.5-9.2-59,5.5-67.7,32.7L2.4,271.2C-6.4,298.4,9.8,328.1,38.4,337.2z"/>
		<path style="fill:#328FF8;" d="M247.9,353.4c6.7-15.7,11.6-33.8,16.7-49.9c11.3-35.5,21.2-71.5,32-107.1
			c4.6-14.9,9.1-29.9,13.6-44.8c10-31-5.2-63.8-33.8-73l-2.4-0.8c-28.5-9.2-59.8,8.6-69.9,39.4l-60.8,202.9
			c-8.4,26.1-28.2,45.1-51.2,52.5c-1.8,0.6-3.6,1.1-5.5,1.5c-12,2.9-24.5,2.4-36.2-1.4l-2.4-0.8c-1.9-0.6-3.7-1.4-5.5-2.1
			c12.6,18.1,38,37.4,67.6,47.2c33,10.8,70.9,6,99.4-13.9C228,390.2,239.4,373.3,247.9,353.4z"/>
		<path style="fill:#111111;" d="M925.7,136.3c-25.7-4.6-37.6,2.5-37.6,2.5c-8.3,4.5-10,13.7-10,13.7l-37.9,135.2l-1-2.8l-2.8-7.7
			l-4.2-11.6l-5.2-14.5l-6-16.4l-6.3-17.4l-6.3-17.4l-6-16.4l-5.2-14.4l-4.2-11.4l-2.7-7.5c-1.4-3.9-3.5-7.8-6.8-10.4
			c-3.8-3.1-9.1-4.4-13.8-5.1c-1.8-0.3-3.7-0.4-5.5-0.4c-11.3,0.2-17.7,3.4-21.3,6c-2.4,1.9-4.2,4.4-5,7.3l-43.6,137.2l-40.4-132.4
			c-2.2-7.1-6.5-12.8-13.7-15.2c-6-1.8-12.3-2.7-18.5-2.5c-5.2,0.1-10.3,0.6-15.4,1.6c0,0-21.3,2.9-14.2,24.2c0.3,1,0.6,1.9,0.9,2.9
			l2.2,6.9c1.1,3.4,2.2,6.8,3.3,10.3l4.3,13.1l5,15.4c1.9,5.7,3.7,11.4,5.5,17.1c2,6.1,4,12.2,5.9,18.2c2,6.3,4,12.5,6.1,18.8
			s4.1,12.6,6.1,18.9l5.9,18.3c1.8,5.7,3.7,11.4,5.6,17.2L648,333c1.4,4.4,2.9,8.9,4.3,13.3c1.1,3.5,2.3,7,3.4,10.5
			c1.5,4.6,2.5,9.5,6.4,12.8c5.5,4.6,13.5,6.1,20.4,6.9c3.1,0.3,6.3,0.5,9.4,0.5c10.3,0.1,23.6-0.3,32.1-7.2
			c4.4-3.6,5.6-9.4,7.1-14.6l2.7-9l7.4-24.8l8.7-28.9l8.1-27.2l5.8-19.5l1.8-6.1c1,2.7,2,5.5,2.9,8.2l7.4,20.8
			c3.3,9.2,6.5,18.4,9.8,27.6l10.2,28.6c2.4,6.7,4.6,13.4,7,20c1.4,3.9,2.9,7.7,4.3,11.6c1.3,3.7,2.3,7.2,4.7,10.4
			c7.2,10,21.5,10.1,32.6,10c10-0.1,25.7-1.3,31.2-11.3c1.8-3.4,2.6-7.5,3.8-11.1l2-6.2c1.6-5,3.2-10,4.8-15
			c4-12.6,7.9-25.3,11.8-37.9c4.5-14.3,8.9-28.7,13.3-43c4.3-13.9,8.6-27.8,12.9-41.7c3.5-11.3,7-22.7,10.5-34
			c1.7-5.4,3.2-10.8,5-16.1C947.1,139.2,925.7,136.3,925.7,136.3z"/>
		<path style="fill:#111111;" d="M1035.8,184.5c-8.4,0.7-16.5,3.2-23.8,7.4c-3.7,2.1-7.2,4.6-10.4,7.4c-3.2,2.7-6,5.7-10.3,6.6
			c-8,1.8-15.9-3-22.2-7.6c-3.1-2.3-10.9-8.8-13.8-15c-1.9-3.9-1.4-8.6,1.2-12.1c17.7-21.4,46.5-33.3,73.3-35.3
			c27.2-2.1,59.7-0.7,83.2,14.6c18.2,11.8,26.8,35.7,27.4,64.4l1.6,149.7c0,1.1-0.3,2.2-0.7,3.2c-3.1,7.1-15.9,9.7-25.9,9.9
			s-22.9-2.2-26.1-9.3c-0.5-1-0.8-2.1-0.8-3.2v-4.9c-4.1,4-8.9,7.2-14.3,9.4c-9,4-23.6,6.2-39.3,6.4c-26.1,0-55.6-6.8-70-20.3
			c-15.1-13.2-23-30.5-23.2-51.4c-0.2-19.9,8.3-36.8,21.2-50.1c12.9-13.6,32.2-20.7,57-21.3l66.8-0.8c0.2-7.9,1.5-16.8-0.3-24.5
			C1081.3,186,1054.4,183.1,1035.8,184.5z M1038.2,275.7c-17.3-0.1-43.3,1.2-43.7,23.8c-0.4,23,30.3,26.8,47,26.6h2.2
			c19-0.2,29.4-4.3,34.8-7.6c6-4.2,9.3-14.4,9.2-28.6l-0.1-13.9L1038.2,275.7z"/>
		<path style="fill:#111111;" d="M1366.3,136c-1.2-0.3-2.4-0.5-3.5-0.6c-7.5-1-15-1.4-22.6-0.2c-9.8,1.7-16.3,7.8-19.3,17.2
			l-3.6,8.7l-51.7,128.4l-11.6-30.1l-22.5-58.4c-4.1-10.6-8.3-21-12.3-31.6c-3.9-10.3-7.4-21.6-16-29.1c-10-8.7-24.3-6.8-36.3-4.5
			c-3.9,0.7-7.6,2.5-10.5,5.2c-5.6,5.5-5.1,13.7-2.7,20.6c2.9,8.5,6.7,16.7,10,25l14.5,36.4l16.5,41.6l16.3,41
			c4.4,11,8.8,22.1,13.1,33.2c2.2,5.5,4.4,11.1,6.5,16.6c2,5,3.6,9.9,7.7,13.7c7.3,6.9,19,7.5,28.5,7.6s21.5-1.5,27.9-9.5
			c3.9-4.8,5.9-10.9,7.9-16.6c2.3-6.4,4.8-12.6,7.4-18.9l12.8-31.6l14.8-36.4l14.9-36.7l13.1-32.4l9.6-23.6
			c3.4-8.4,8.8-18.8,3.2-27.5C1375.5,139.4,1371,137.1,1366.3,136z"/>
		<path style="fill:#111111;" d="M1490,377.8c0,0,51.6,2.3,86.5-25.3c2.5-2.1,10.3-8.5,14.8-14.1c2.6-3.6,2.9-8.3,0.9-12.3
			c-3-6.2-11-12.7-14.2-14.9c0,0-7.8-6.2-17.6-7.9c-4.8-0.9-7.2,0.1-13.6,6.1c-12.4,10.4-26.3,15.9-41.4,15.9s-40.6-5.4-49.8-14.5
			c-8.8-7.9-15.2-18.4-16-33.3c0,0,112.1,0,140.5,0c0,0,18.1-0.5,18.2-20.6c0-8.9-0.2-20.4-0.3-21.9c-0.3-31.3-10.2-56.3-29.4-74.3
			c-18.9-17.6-52-28.9-88-27c-11.3,0.6-23,2.1-34.6,6.2c-12.2,4.3-23.2,11.3-32.3,20.4c-9.4,9.3-17.2,22-23.1,37.8
			c-5.9,15.5-8.9,35-8.9,58.1c0,24.1,3.8,44,10.3,59c6.3,15.9,14.6,28.5,24.9,37.6c5.1,4.2,10.7,7.9,16.7,10.8
			C1450.8,372.9,1470.2,377.7,1490,377.8 M1456,194.3c8.8-7.1,19.6-8.8,35.8-9.4c12.7-0.4,29.6,4.8,37.6,12.6
			c7.4,7.5,11.9,19.5,13.1,33.8l-103.2-0.1C1442,209.9,1447.7,201,1456,194.3L1456,194.3z"/>
		<path style="fill:#76C3FC;" d="M405.5,353.2C403,360.1,366,456.6,248,416.1c15.8-6.1,27.8-19.3,32.3-35.7
			c3.9-13.5,37.8-125.7,37.8-125.7h0.1l65.2-219.3c8.7-27.1,39.2-41.8,67.7-32.7l2.4,0.8c28.5,9.2,44.7,38.9,36,66l-70.1,235.9
			C419.5,305.3,407.9,346.4,405.5,353.2z"/>
	</g>
</g>
</svg>
