<?xml version="1.0" encoding="utf-8"?>
<!-- Generator: Adobe Illustrator 24.2.1, SVG Export Plug-In . SVG Version: 6.00 Build 0)  -->
<svg version="1.1" id="Layer_1" xmlns="http://www.w3.org/2000/svg" xmlns:xlink="http://www.w3.org/1999/xlink" x="0px" y="0px"
	width="100px" height="100px" viewBox="0 0 100 100" style="enable-background:new 0 0 100 100;" xml:space="preserve">
<g>
	<g>
		<path style="fill:#E8E8E8;" d="M50,0c27.6,0,50,22.4,50,50s-22.4,50-50,50S0,77.6,0,50S22.4,0,50,0"/>
		<path style="fill:#FFFFFF;" d="M50,1c27,0,49,22,49,49S77.1,99,50,99S1,77,1,50S23,1,50,1"/>
		<path style="fill:#E8E8E8;" d="M50,0c27.6,0,50,22.4,50,50s-22.4,50-50,50S0,77.6,0,50S22.4,0,50,0"/>
		<path style="fill:#FFFFFF;" d="M50,1c27,0,49,22,49,49S77.1,99,50,99S1,77,1,50S23,1,50,1"/>
	</g>
	<g>
		<path style="fill:none;" d="M72.3,49.8c-0.5,0-0.9,0.2-1.2,0.6c-0.3,0.4-0.4,1-0.4,1.7c0,0.8,0.1,1.3,0.4,1.7
			c0.3,0.4,0.7,0.6,1.1,0.6c1.1,0,1.6-0.8,1.6-2.4c0-0.7-0.1-1.3-0.4-1.7C73.2,50,72.8,49.8,72.3,49.8z M57.3,51.5h-2.2v2.7h2.2
			c0.5,0,0.8-0.1,1.1-0.4c0.3-0.2,0.4-0.6,0.4-1c0-0.4-0.1-0.7-0.4-1C58.2,51.6,57.8,51.5,57.3,51.5z M58.2,49.7
			c0.2-0.3,0.4-0.6,0.4-1c0-0.4-0.1-0.8-0.4-1c-0.3-0.2-0.6-0.3-1-0.3h-2v2.6h2.1C57.6,50.1,58,50,58.2,49.7z M64.8,49.8
			c-0.5,0-0.9,0.2-1.2,0.6c-0.3,0.4-0.4,1-0.4,1.7c0,0.8,0.1,1.3,0.4,1.7c0.3,0.4,0.7,0.6,1.1,0.6c1.1,0,1.6-0.8,1.6-2.4
			c0-0.7-0.1-1.3-0.4-1.7S65.4,49.8,64.8,49.8L64.8,49.8z"/>
		<path style="fill:#333333;" d="M58.6,50.7c0.5-0.1,0.9-0.3,1.3-0.7c0.3-0.4,0.4-0.8,0.4-1.4c0-0.6-0.2-1-0.4-1.4
			c-0.3-0.4-0.7-0.7-1.1-0.8c-0.4-0.1-0.9-0.2-1.5-0.2h-3.7v9.4h4.1c1,0,1.7-0.2,2.2-0.7c0.5-0.5,0.7-1.1,0.7-1.8
			c0-0.6-0.2-1.1-0.5-1.5C59.7,51.1,59.2,50.8,58.6,50.7L58.6,50.7z M55.1,47.5h2c0.4,0,0.7,0.1,1,0.3c0.3,0.2,0.4,0.5,0.4,1
			c0,0.4-0.1,0.7-0.4,1c-0.2,0.3-0.6,0.4-1,0.4h-2.1V47.5z M58.4,53.8c-0.3,0.2-0.6,0.4-1.1,0.4h-2.2v-2.7h2.2
			c0.4,0,0.8,0.1,1.1,0.4c0.3,0.3,0.4,0.6,0.4,1S58.7,53.6,58.4,53.8z M64.9,48.5c-1,0-1.8,0.3-2.4,1c-0.6,0.7-0.9,1.6-0.9,2.6
			c0,1,0.3,1.8,0.8,2.6c0.5,0.7,1.3,1.1,2.4,1.1c1,0,1.7-0.3,2.4-1s0.9-1.6,0.9-2.7c0-1.1-0.3-1.9-0.9-2.6
			C66.5,48.8,65.8,48.5,64.9,48.5L64.9,48.5z M64.8,54.4c-0.5,0-0.9-0.2-1.1-0.6c-0.3-0.4-0.4-1-0.4-1.7c0-0.7,0.1-1.3,0.4-1.7
			c0.3-0.4,0.7-0.6,1.2-0.6c0.5,0,0.9,0.2,1.2,0.6s0.4,1,0.4,1.7C66.4,53.6,65.9,54.4,64.8,54.4L64.8,54.4z M72.3,48.5
			c-1,0-1.8,0.3-2.4,1C69.3,50.2,69,51,69,52.1c0,1,0.3,1.8,0.8,2.6c0.5,0.7,1.3,1.1,2.4,1.1c1,0,1.7-0.3,2.4-1
			c0.6-0.7,0.9-1.6,0.9-2.7c0-1.1-0.3-1.9-0.9-2.6C74,48.8,73.3,48.5,72.3,48.5L72.3,48.5z M72.3,54.4c-0.5,0-0.9-0.2-1.1-0.6
			c-0.3-0.4-0.4-1-0.4-1.7c0-0.7,0.1-1.3,0.4-1.7c0.3-0.4,0.7-0.6,1.2-0.6c0.5,0,0.9,0.2,1.2,0.6c0.3,0.4,0.4,1,0.4,1.7
			C73.9,53.6,73.3,54.4,72.3,54.4z M83.2,48.6h-1.7l-2.8,3c-0.1,0.1-0.2,0.2-0.3,0.4v-5.9H77v9.4h1.5v-1.8L80,52l1.8,3.6h1.7
			l-2.3-4.7L83.2,48.6L83.2,48.6z M87.9,51.4l-1.5-0.3c-0.7-0.1-1-0.4-1-0.8c0-0.5,0.4-0.8,1.3-0.8c0.7,0,1.1,0.3,1.3,0.8l1.4-0.3
			c-0.3-1.1-1.2-1.6-2.7-1.6c-0.9,0-1.6,0.2-2,0.6c-0.4,0.4-0.7,0.9-0.7,1.6c0,1.1,0.7,1.8,2.1,2.1l1.3,0.2c0.2,0,0.4,0.1,0.5,0.2
			c0.2,0.1,0.2,0.3,0.2,0.5c0,0.6-0.5,0.9-1.5,0.9c-0.8,0-1.3-0.3-1.5-0.8L83.6,54c0.2,0.6,0.5,1,1.1,1.3c0.6,0.3,1.2,0.4,1.9,0.4
			c0.8,0,1.5-0.2,2.1-0.6s0.9-0.9,0.9-1.7C89.6,52.3,89,51.7,87.9,51.4L87.9,51.4z"/>
		<path style="fill:#D57928;" d="M50.2,46.1v9.4l-1.3,1.3v-9.2L50.2,46.1z"/>
		
			<linearGradient id="SVGID_1_" gradientUnits="userSpaceOnUse" x1="40.1674" y1="54.1917" x2="48.7278" y2="44.7608" gradientTransform="matrix(1 0 0 -1 0 101.5065)">
			<stop  offset="6.000000e-03" style="stop-color:#F9C517"/>
			<stop  offset="1" style="stop-color:#E78E24"/>
		</linearGradient>
		<path style="fill:url(#SVGID_1_);" d="M40.3,47.5h8.6v9.2h-8.6L40.3,47.5z"/>
		<path style="fill:#FDD600;" d="M41.6,46.1l-1.3,1.5h8.6l1.3-1.5H41.6z"/>
		<path style="fill:#90C7EA;" d="M30.9,46.5l8.5-1.2l-0.7,2l-8.4,1.2L30.9,46.5z"/>
		
			<linearGradient id="SVGID_2_" gradientUnits="userSpaceOnUse" x1="30.6251" y1="53.0409" x2="39.4533" y2="45.9516" gradientTransform="matrix(1 0 0 -1 0 101.5065)">
			<stop  offset="6.000000e-03" style="stop-color:#198ACA"/>
			<stop  offset="1" style="stop-color:#00649D"/>
		</linearGradient>
		<path style="fill:url(#SVGID_2_);" d="M38.7,47.3l1.2,8.3l-8.4,1.2l-1.2-8.3L38.7,47.3z"/>
		<path style="fill:#0798D5;" d="M38.7,47.3l1.2,8.3l0.6-1.8l-1.1-8.5v-0.1"/>
		
			<linearGradient id="SVGID_3_" gradientUnits="userSpaceOnUse" x1="25.8106" y1="52.6557" x2="25.8106" y2="44.9196" gradientTransform="matrix(1 0 0 -1 0 101.5065)">
			<stop  offset="0" style="stop-color:#239F49"/>
			<stop  offset="1" style="stop-color:#008953"/>
		</linearGradient>
		<path style="fill:url(#SVGID_3_);" d="M23.7,45.8l7.5,3.4l-3.4,7.7l-7.5-3.4L23.7,45.8z"/>
		<path style="fill:#95CE9F;" d="M23,43.1l0.8,2.6l7.5,3.4l-0.6-2.5L23,43.1z"/>
		<path style="fill:#69BE6C;" d="M23,43.1l-3,7.2l0.4,3.2l3.4-7.7L23,43.1z"/>
		
			<linearGradient id="SVGID_4_" gradientUnits="userSpaceOnUse" x1="14.5871" y1="53.4123" x2="15.9174" y2="45.3806" gradientTransform="matrix(1 0 0 -1 0 101.5065)">
			<stop  offset="0" style="stop-color:#D71F31"/>
			<stop  offset="1" style="stop-color:#BA2436"/>
		</linearGradient>
		<path style="fill:url(#SVGID_4_);" d="M18.8,47.3l1.2,8.2l-8.3,1.3l-1.3-8.2L18.8,47.3z"/>
		<path style="fill:#761116;" d="M19.3,44.4l1.2,8.2L20,55.5l-1.2-8.2L19.3,44.4z"/>
		<path style="fill:#FFFFFF;" d="M47.6,50.9c-0.2-0.4-0.4-0.8-0.8-1.2c-0.3-0.3-0.7-0.6-1.1-0.7c-0.4-0.2-0.8-0.2-1.3-0.2
			s-0.9,0.1-1.3,0.2c-0.4,0.2-0.8,0.4-1.1,0.7c-0.3,0.3-0.6,0.7-0.8,1.2c-0.2,0.4-0.3,0.9-0.3,1.4c0,0.5,0.1,1,0.3,1.4
			s0.4,0.8,0.8,1.2c0.3,0.3,0.7,0.6,1.1,0.7c0.4,0.2,0.8,0.2,1.3,0.2c0.5,0,0.9-0.1,1.3-0.2s0.8-0.4,1.1-0.7
			c0.3-0.3,0.6-0.7,0.8-1.2s0.3-0.9,0.3-1.4C47.8,51.8,47.7,51.3,47.6,50.9z M45.8,53.9c-0.3,0.4-0.8,0.6-1.3,0.6
			c-0.6,0-1-0.2-1.4-0.6s-0.5-0.9-0.5-1.6c0-0.7,0.2-1.3,0.5-1.7c0.3-0.4,0.8-0.6,1.4-0.6c0.6,0,1,0.2,1.3,0.6
			c0.3,0.4,0.5,1,0.5,1.7C46.3,53,46.1,53.5,45.8,53.9z M17.9,54.2c-0.1-0.1-0.2-0.1-0.3-0.2c-0.1,0-0.2-0.1-0.4-0.1s-0.3,0-0.5,0.1
			l-2.2,0.4c0-0.2,0.1-0.4,0.3-0.7c0.2-0.3,0.4-0.7,0.7-1.1c0.1-0.2,0.2-0.3,0.3-0.3c0-0.1,0.1-0.1,0.2-0.2c0.5-0.7,0.8-1.2,0.9-1.6
			c0.1-0.2,0.1-0.5,0.1-0.7v-0.2c0-0.2,0-0.3,0-0.5c0-0.2-0.1-0.3-0.1-0.4c-0.1-0.1-0.1-0.2-0.2-0.2c-0.1-0.1-0.2-0.1-0.4-0.1
			c-0.1,0-0.3,0-0.5,0.1l-2.5,0.4c-0.3,0.1-0.5,0.1-0.7,0.3c-0.1,0.1-0.2,0.2-0.2,0.4c0,0,0,0.1,0,0.1c0,0.2,0.2,0.4,0.3,0.4
			c0.1,0.1,0.2,0.1,0.4,0.1c0.1,0,0.2,0,0.3,0l2.1-0.4v0.1c0,0.1,0,0.3-0.1,0.4c-0.1,0.2-0.2,0.4-0.5,0.7c-0.1,0.1-0.2,0.2-0.3,0.4
			c-0.6,0.7-1,1.3-1.2,1.8c-0.2,0.3-0.3,0.7-0.4,1c0,0.2-0.1,0.4-0.1,0.6c0,0.1,0,0.2,0,0.4c0,0.2,0.1,0.3,0.1,0.4s0.1,0.2,0.2,0.2
			c0.1,0,0.2,0.1,0.4,0.1c0.2,0,0.5,0,0.9-0.1l2.3-0.4c0.4-0.1,0.7-0.2,0.9-0.3c0.1-0.1,0.2-0.3,0.2-0.4c0,0,0-0.1,0-0.1
			C18,54.3,18,54.2,17.9,54.2z M28.3,48.7c-0.3-0.3-0.7-0.6-1.1-0.7c-0.4-0.2-0.8-0.3-1.3-0.3h0c-0.4,0-0.9,0.1-1.3,0.3
			c-0.4,0.2-0.8,0.5-1.2,0.8c-0.3,0.3-0.6,0.8-0.8,1.2c-0.2,0.5-0.3,0.9-0.3,1.4v0.2c0,0.4,0.1,0.8,0.2,1.2c0.2,0.4,0.4,0.8,0.7,1.1
			s0.7,0.6,1.1,0.7c0.4,0.2,0.8,0.3,1.3,0.3h0c0.4,0,0.9-0.1,1.3-0.3c0.4-0.2,0.8-0.5,1.2-0.8c0.3-0.3,0.6-0.8,0.8-1.2
			s0.3-1,0.3-1.4v-0.1c0-0.4-0.1-0.8-0.2-1.3C28.8,49.4,28.6,49,28.3,48.7L28.3,48.7z M27.5,52c-0.3,0.7-0.7,1.1-1.1,1.4
			c-0.2,0.1-0.5,0.2-0.8,0.2c-0.2,0-0.5-0.1-0.7-0.2c-0.5-0.2-0.9-0.6-1-1.1c-0.1-0.2-0.1-0.3-0.1-0.5c0-0.4,0.1-0.8,0.3-1.2
			c0.3-0.7,0.7-1.2,1.1-1.4c0.2-0.1,0.5-0.2,0.8-0.2c0.2,0,0.5,0.1,0.7,0.2c0.5,0.2,0.8,0.6,1,1.1c0.1,0.2,0.1,0.3,0.1,0.5
			C27.8,51.1,27.7,51.6,27.5,52z M37.3,48.9c0-0.3-0.1-0.4-0.3-0.6c-0.1-0.1-0.3-0.2-0.4-0.2c0,0-0.1,0-0.1,0
			c-0.2,0-0.4,0.1-0.5,0.3c-0.1,0.1-0.1,0.3-0.1,0.4c0,0.1,0,0.1,0,0.2l0.3,2.2l-2.4,0.4l-0.3-2.2c0-0.3-0.1-0.4-0.3-0.6
			c-0.1-0.1-0.3-0.2-0.4-0.2c0,0-0.1,0-0.1,0c-0.2,0-0.4,0.1-0.5,0.3c-0.1,0.1-0.1,0.3-0.1,0.4c0,0.1,0,0.1,0,0.2l0.8,5.6
			c0,0.3,0.1,0.4,0.3,0.6c0.1,0.1,0.3,0.2,0.4,0.2c0.1,0,0.1,0,0.1,0c0.2,0,0.4-0.1,0.5-0.3c0.1-0.1,0.1-0.3,0.1-0.4
			c0-0.1,0-0.1,0-0.2L34,52.9l2.4-0.4l0.3,2.2c0,0.3,0.1,0.4,0.3,0.6c0.1,0.1,0.3,0.2,0.4,0.2c0,0,0.1,0,0.1,0
			c0.2,0,0.4-0.1,0.5-0.3c0.1-0.1,0.1-0.3,0.1-0.4c0-0.1,0-0.1,0-0.2L37.3,48.9L37.3,48.9z"/>
		<path style="fill:#ED463E;" d="M10.4,48.6l0.2-0.8l0.4-2.1l8.4-1.3l-0.6,3L10.4,48.6z"/>
	</g>
</g>
<g>
	<g>
		<path style="fill:#E8E8E8;" d="M50,0c27.6,0,50,22.4,50,50s-22.4,50-50,50S0,77.6,0,50S22.4,0,50,0"/>
		<path style="fill:#FFFFFF;" d="M50,1c27,0,49,22,49,49S77.1,99,50,99S1,77,1,50S23,1,50,1"/>
		<path style="fill:#E8E8E8;" d="M50,0c27.6,0,50,22.4,50,50s-22.4,50-50,50S0,77.6,0,50S22.4,0,50,0"/>
		<path style="fill:#FFFFFF;" d="M50,1c27,0,49,22,49,49S77.1,99,50,99S1,77,1,50S23,1,50,1"/>
	</g>
	<g>
		<path style="fill:none;" d="M72.3,49.8c-0.5,0-0.9,0.2-1.2,0.6c-0.3,0.4-0.4,1-0.4,1.7c0,0.8,0.1,1.3,0.4,1.7
			c0.3,0.4,0.7,0.6,1.1,0.6c1.1,0,1.6-0.8,1.6-2.4c0-0.7-0.1-1.3-0.4-1.7C73.2,50,72.8,49.8,72.3,49.8z M57.3,51.5h-2.2v2.7h2.2
			c0.5,0,0.8-0.1,1.1-0.4c0.3-0.2,0.4-0.6,0.4-1c0-0.4-0.1-0.7-0.4-1C58.2,51.6,57.8,51.5,57.3,51.5z M58.2,49.7
			c0.2-0.3,0.4-0.6,0.4-1c0-0.4-0.1-0.8-0.4-1c-0.3-0.2-0.6-0.3-1-0.3h-2v2.6h2.1C57.6,50.1,58,50,58.2,49.7z M64.8,49.8
			c-0.5,0-0.9,0.2-1.2,0.6c-0.3,0.4-0.4,1-0.4,1.7c0,0.8,0.1,1.3,0.4,1.7c0.3,0.4,0.7,0.6,1.1,0.6c1.1,0,1.6-0.8,1.6-2.4
			c0-0.7-0.1-1.3-0.4-1.7S65.4,49.8,64.8,49.8L64.8,49.8z"/>
		<path style="fill:#333333;" d="M58.6,50.7c0.5-0.1,0.9-0.3,1.3-0.7c0.3-0.4,0.4-0.8,0.4-1.4c0-0.6-0.2-1-0.4-1.4
			c-0.3-0.4-0.7-0.7-1.1-0.8c-0.4-0.1-0.9-0.2-1.5-0.2h-3.7v9.4h4.1c1,0,1.7-0.2,2.2-0.7c0.5-0.5,0.7-1.1,0.7-1.8
			c0-0.6-0.2-1.1-0.5-1.5C59.7,51.1,59.2,50.8,58.6,50.7L58.6,50.7z M55.1,47.5h2c0.4,0,0.7,0.1,1,0.3c0.3,0.2,0.4,0.5,0.4,1
			c0,0.4-0.1,0.7-0.4,1c-0.2,0.3-0.6,0.4-1,0.4h-2.1V47.5z M58.4,53.8c-0.3,0.2-0.6,0.4-1.1,0.4h-2.2v-2.7h2.2
			c0.4,0,0.8,0.1,1.1,0.4c0.3,0.3,0.4,0.6,0.4,1S58.7,53.6,58.4,53.8z M64.9,48.5c-1,0-1.8,0.3-2.4,1c-0.6,0.7-0.9,1.6-0.9,2.6
			c0,1,0.3,1.8,0.8,2.6c0.5,0.7,1.3,1.1,2.4,1.1c1,0,1.7-0.3,2.4-1s0.9-1.6,0.9-2.7c0-1.1-0.3-1.9-0.9-2.6
			C66.5,48.8,65.8,48.5,64.9,48.5L64.9,48.5z M64.8,54.4c-0.5,0-0.9-0.2-1.1-0.6c-0.3-0.4-0.4-1-0.4-1.7c0-0.7,0.1-1.3,0.4-1.7
			c0.3-0.4,0.7-0.6,1.2-0.6c0.5,0,0.9,0.2,1.2,0.6s0.4,1,0.4,1.7C66.4,53.6,65.9,54.4,64.8,54.4L64.8,54.4z M72.3,48.5
			c-1,0-1.8,0.3-2.4,1C69.3,50.2,69,51,69,52.1c0,1,0.3,1.8,0.8,2.6c0.5,0.7,1.3,1.1,2.4,1.1c1,0,1.7-0.3,2.4-1
			c0.6-0.7,0.9-1.6,0.9-2.7c0-1.1-0.3-1.9-0.9-2.6C74,48.8,73.3,48.5,72.3,48.5L72.3,48.5z M72.3,54.4c-0.5,0-0.9-0.2-1.1-0.6
			c-0.3-0.4-0.4-1-0.4-1.7c0-0.7,0.1-1.3,0.4-1.7c0.3-0.4,0.7-0.6,1.2-0.6c0.5,0,0.9,0.2,1.2,0.6c0.3,0.4,0.4,1,0.4,1.7
			C73.9,53.6,73.3,54.4,72.3,54.4z M83.2,48.6h-1.7l-2.8,3c-0.1,0.1-0.2,0.2-0.3,0.4v-5.9H77v9.4h1.5v-1.8L80,52l1.8,3.6h1.7
			l-2.3-4.7L83.2,48.6L83.2,48.6z M87.9,51.4l-1.5-0.3c-0.7-0.1-1-0.4-1-0.8c0-0.5,0.4-0.8,1.3-0.8c0.7,0,1.1,0.3,1.3,0.8l1.4-0.3
			c-0.3-1.1-1.2-1.6-2.7-1.6c-0.9,0-1.6,0.2-2,0.6c-0.4,0.4-0.7,0.9-0.7,1.6c0,1.1,0.7,1.8,2.1,2.1l1.3,0.2c0.2,0,0.4,0.1,0.5,0.2
			c0.2,0.1,0.2,0.3,0.2,0.5c0,0.6-0.5,0.9-1.5,0.9c-0.8,0-1.3-0.3-1.5-0.8L83.6,54c0.2,0.6,0.5,1,1.1,1.3c0.6,0.3,1.2,0.4,1.9,0.4
			c0.8,0,1.5-0.2,2.1-0.6s0.9-0.9,0.9-1.7C89.6,52.3,89,51.7,87.9,51.4L87.9,51.4z"/>
		<path style="fill:#D57928;" d="M50.2,46.1v9.4l-1.3,1.3v-9.2L50.2,46.1z"/>
		
			<linearGradient id="SVGID_5_" gradientUnits="userSpaceOnUse" x1="40.1674" y1="54.1917" x2="48.7278" y2="44.7608" gradientTransform="matrix(1 0 0 -1 0 101.5065)">
			<stop  offset="6.000000e-03" style="stop-color:#F9C517"/>
			<stop  offset="1" style="stop-color:#E78E24"/>
		</linearGradient>
		<path style="fill:url(#SVGID_5_);" d="M40.3,47.5h8.6v9.2h-8.6L40.3,47.5z"/>
		<path style="fill:#FDD600;" d="M41.6,46.1l-1.3,1.5h8.6l1.3-1.5H41.6z"/>
		<path style="fill:#90C7EA;" d="M30.9,46.5l8.5-1.2l-0.7,2l-8.4,1.2L30.9,46.5z"/>
		
			<linearGradient id="SVGID_6_" gradientUnits="userSpaceOnUse" x1="30.6251" y1="53.0409" x2="39.4533" y2="45.9516" gradientTransform="matrix(1 0 0 -1 0 101.5065)">
			<stop  offset="6.000000e-03" style="stop-color:#198ACA"/>
			<stop  offset="1" style="stop-color:#00649D"/>
		</linearGradient>
		<path style="fill:url(#SVGID_6_);" d="M38.7,47.3l1.2,8.3l-8.4,1.2l-1.2-8.3L38.7,47.3z"/>
		<path style="fill:#0798D5;" d="M38.7,47.3l1.2,8.3l0.6-1.8l-1.1-8.5v-0.1"/>
		
			<linearGradient id="SVGID_7_" gradientUnits="userSpaceOnUse" x1="25.8106" y1="52.6557" x2="25.8106" y2="44.9196" gradientTransform="matrix(1 0 0 -1 0 101.5065)">
			<stop  offset="0" style="stop-color:#239F49"/>
			<stop  offset="1" style="stop-color:#008953"/>
		</linearGradient>
		<path style="fill:url(#SVGID_7_);" d="M23.7,45.8l7.5,3.4l-3.4,7.7l-7.5-3.4L23.7,45.8z"/>
		<path style="fill:#95CE9F;" d="M23,43.1l0.8,2.6l7.5,3.4l-0.6-2.5L23,43.1z"/>
		<path style="fill:#69BE6C;" d="M23,43.1l-3,7.2l0.4,3.2l3.4-7.7L23,43.1z"/>
		
			<linearGradient id="SVGID_8_" gradientUnits="userSpaceOnUse" x1="14.5871" y1="53.4123" x2="15.9174" y2="45.3806" gradientTransform="matrix(1 0 0 -1 0 101.5065)">
			<stop  offset="0" style="stop-color:#D71F31"/>
			<stop  offset="1" style="stop-color:#BA2436"/>
		</linearGradient>
		<path style="fill:url(#SVGID_8_);" d="M18.8,47.3l1.2,8.2l-8.3,1.3l-1.3-8.2L18.8,47.3z"/>
		<path style="fill:#761116;" d="M19.3,44.4l1.2,8.2L20,55.5l-1.2-8.2L19.3,44.4z"/>
		<path style="fill:#FFFFFF;" d="M47.6,50.9c-0.2-0.4-0.4-0.8-0.8-1.2c-0.3-0.3-0.7-0.6-1.1-0.7c-0.4-0.2-0.8-0.2-1.3-0.2
			s-0.9,0.1-1.3,0.2c-0.4,0.2-0.8,0.4-1.1,0.7c-0.3,0.3-0.6,0.7-0.8,1.2c-0.2,0.4-0.3,0.9-0.3,1.4c0,0.5,0.1,1,0.3,1.4
			s0.4,0.8,0.8,1.2c0.3,0.3,0.7,0.6,1.1,0.7c0.4,0.2,0.8,0.2,1.3,0.2c0.5,0,0.9-0.1,1.3-0.2s0.8-0.4,1.1-0.7
			c0.3-0.3,0.6-0.7,0.8-1.2s0.3-0.9,0.3-1.4C47.8,51.8,47.7,51.3,47.6,50.9z M45.8,53.9c-0.3,0.4-0.8,0.6-1.3,0.6
			c-0.6,0-1-0.2-1.4-0.6s-0.5-0.9-0.5-1.6c0-0.7,0.2-1.3,0.5-1.7c0.3-0.4,0.8-0.6,1.4-0.6c0.6,0,1,0.2,1.3,0.6
			c0.3,0.4,0.5,1,0.5,1.7C46.3,53,46.1,53.5,45.8,53.9z M17.9,54.2c-0.1-0.1-0.2-0.1-0.3-0.2c-0.1,0-0.2-0.1-0.4-0.1s-0.3,0-0.5,0.1
			l-2.2,0.4c0-0.2,0.1-0.4,0.3-0.7c0.2-0.3,0.4-0.7,0.7-1.1c0.1-0.2,0.2-0.3,0.3-0.3c0-0.1,0.1-0.1,0.2-0.2c0.5-0.7,0.8-1.2,0.9-1.6
			c0.1-0.2,0.1-0.5,0.1-0.7v-0.2c0-0.2,0-0.3,0-0.5c0-0.2-0.1-0.3-0.1-0.4c-0.1-0.1-0.1-0.2-0.2-0.2c-0.1-0.1-0.2-0.1-0.4-0.1
			c-0.1,0-0.3,0-0.5,0.1l-2.5,0.4c-0.3,0.1-0.5,0.1-0.7,0.3c-0.1,0.1-0.2,0.2-0.2,0.4c0,0,0,0.1,0,0.1c0,0.2,0.2,0.4,0.3,0.4
			c0.1,0.1,0.2,0.1,0.4,0.1c0.1,0,0.2,0,0.3,0l2.1-0.4v0.1c0,0.1,0,0.3-0.1,0.4c-0.1,0.2-0.2,0.4-0.5,0.7c-0.1,0.1-0.2,0.2-0.3,0.4
			c-0.6,0.7-1,1.3-1.2,1.8c-0.2,0.3-0.3,0.7-0.4,1c0,0.2-0.1,0.4-0.1,0.6c0,0.1,0,0.2,0,0.4c0,0.2,0.1,0.3,0.1,0.4s0.1,0.2,0.2,0.2
			c0.1,0,0.2,0.1,0.4,0.1c0.2,0,0.5,0,0.9-0.1l2.3-0.4c0.4-0.1,0.7-0.2,0.9-0.3c0.1-0.1,0.2-0.3,0.2-0.4c0,0,0-0.1,0-0.1
			C18,54.3,18,54.2,17.9,54.2z M28.3,48.7c-0.3-0.3-0.7-0.6-1.1-0.7c-0.4-0.2-0.8-0.3-1.3-0.3h0c-0.4,0-0.9,0.1-1.3,0.3
			c-0.4,0.2-0.8,0.5-1.2,0.8c-0.3,0.3-0.6,0.8-0.8,1.2c-0.2,0.5-0.3,0.9-0.3,1.4v0.2c0,0.4,0.1,0.8,0.2,1.2c0.2,0.4,0.4,0.8,0.7,1.1
			s0.7,0.6,1.1,0.7c0.4,0.2,0.8,0.3,1.3,0.3h0c0.4,0,0.9-0.1,1.3-0.3c0.4-0.2,0.8-0.5,1.2-0.8c0.3-0.3,0.6-0.8,0.8-1.2
			s0.3-1,0.3-1.4v-0.1c0-0.4-0.1-0.8-0.2-1.3C28.8,49.4,28.6,49,28.3,48.7L28.3,48.7z M27.5,52c-0.3,0.7-0.7,1.1-1.1,1.4
			c-0.2,0.1-0.5,0.2-0.8,0.2c-0.2,0-0.5-0.1-0.7-0.2c-0.5-0.2-0.9-0.6-1-1.1c-0.1-0.2-0.1-0.3-0.1-0.5c0-0.4,0.1-0.8,0.3-1.2
			c0.3-0.7,0.7-1.2,1.1-1.4c0.2-0.1,0.5-0.2,0.8-0.2c0.2,0,0.5,0.1,0.7,0.2c0.5,0.2,0.8,0.6,1,1.1c0.1,0.2,0.1,0.3,0.1,0.5
			C27.8,51.1,27.7,51.6,27.5,52z M37.3,48.9c0-0.3-0.1-0.4-0.3-0.6c-0.1-0.1-0.3-0.2-0.4-0.2c0,0-0.1,0-0.1,0
			c-0.2,0-0.4,0.1-0.5,0.3c-0.1,0.1-0.1,0.3-0.1,0.4c0,0.1,0,0.1,0,0.2l0.3,2.2l-2.4,0.4l-0.3-2.2c0-0.3-0.1-0.4-0.3-0.6
			c-0.1-0.1-0.3-0.2-0.4-0.2c0,0-0.1,0-0.1,0c-0.2,0-0.4,0.1-0.5,0.3c-0.1,0.1-0.1,0.3-0.1,0.4c0,0.1,0,0.1,0,0.2l0.8,5.6
			c0,0.3,0.1,0.4,0.3,0.6c0.1,0.1,0.3,0.2,0.4,0.2c0.1,0,0.1,0,0.1,0c0.2,0,0.4-0.1,0.5-0.3c0.1-0.1,0.1-0.3,0.1-0.4
			c0-0.1,0-0.1,0-0.2L34,52.9l2.4-0.4l0.3,2.2c0,0.3,0.1,0.4,0.3,0.6c0.1,0.1,0.3,0.2,0.4,0.2c0,0,0.1,0,0.1,0
			c0.2,0,0.4-0.1,0.5-0.3c0.1-0.1,0.1-0.3,0.1-0.4c0-0.1,0-0.1,0-0.2L37.3,48.9L37.3,48.9z"/>
		<path style="fill:#ED463E;" d="M10.4,48.6l0.2-0.8l0.4-2.1l8.4-1.3l-0.6,3L10.4,48.6z"/>
	</g>
</g>
</svg>
