<?xml version="1.0" encoding="utf-8"?>
<!-- Generator: Adobe Illustrator 24.2.1, SVG Export Plug-In . SVG Version: 6.00 Build 0)  -->
<svg version="1.1" id="Layer_1" xmlns="http://www.w3.org/2000/svg" xmlns:xlink="http://www.w3.org/1999/xlink" x="0px" y="0px"
	 viewBox="0 0 618.2 107.1" style="enable-background:new 0 0 618.2 107.1;" xml:space="preserve">
<g>
	<path style="fill:none;" d="M483.1,51.6c-4.2,0-7.4,1.7-9.4,5s-3.1,7.7-3.1,13.2c0,5.9,1.1,10.5,3.3,13.6s5.1,4.7,8.9,4.7
		c8.2,0,12.4-6.2,12.4-18.5c0-5.6-1-10-3-13.2C490.3,53.2,487.2,51.6,483.1,51.6z M366.4,64.9h-17.2V86h17.1c3.6,0,6.5-1,8.6-2.9
		s3.1-4.5,3.1-7.7c0-3.1-1.1-5.6-3.2-7.6C372.7,65.9,369.9,64.9,366.4,64.9z M373.2,51.4c1.9-2,2.9-4.5,2.9-7.5
		c0-3.4-1.1-5.9-3.3-7.5c-2.2-1.6-4.8-2.4-7.7-2.4h-15.9v20.4h16.1C368.7,54.4,371.3,53.4,373.2,51.4z M424.9,51.6
		c-4.2,0-7.4,1.7-9.4,5s-3.1,7.7-3.1,13.2c0,5.9,1.1,10.5,3.3,13.6s5.1,4.7,8.9,4.7c8.2,0,12.4-6.2,12.4-18.5c0-5.6-1-10-3-13.2
		S429,51.6,424.9,51.6L424.9,51.6z"/>
	<path style="fill:#333333;" d="M375.8,58.9c4.2-0.8,7.4-2.7,9.8-5.7s3.5-6.5,3.5-10.6c0-4.3-1.2-8.1-3.5-11.3
		c-2.3-3.2-5.1-5.3-8.3-6.3c-3.2-1-7.2-1.5-12-1.5h-28.6v73.6h32.1c7.7,0,13.4-1.9,17.1-5.8c3.7-3.9,5.6-8.6,5.6-14.3
		c0-4.5-1.3-8.4-4-11.8C384.9,61.9,381,59.8,375.8,58.9L375.8,58.9z M349.2,34h15.9c2.9,0,5.5,0.8,7.7,2.4s3.3,4.1,3.3,7.5
		c0,3.1-1,5.6-2.9,7.5c-1.9,2-4.5,3-7.8,3h-16.2V34z M374.9,83.2c-2.1,1.9-5,2.9-8.6,2.9h-17.1V65h17.2c3.5,0,6.3,1,8.5,3
		c2.1,2,3.2,4.5,3.2,7.6S377,81.3,374.9,83.2z M425,41.5c-7.7,0-13.8,2.7-18.5,8c-4.7,5.4-7,12.1-7,20.1c0,7.5,2.1,14.1,6.3,19.9
		c4.2,5.8,10.4,8.7,18.4,8.7c7.5,0,13.6-2.6,18.5-7.8s7.3-12.1,7.3-20.7c0-8.3-2.3-15.1-7-20.3C438.2,44.1,432.2,41.5,425,41.5
		L425,41.5z M424.6,88.1c-3.8,0-6.7-1.6-8.9-4.7s-3.3-7.7-3.3-13.6c0-5.5,1-9.9,3.1-13.2c2-3.3,5.2-5,9.4-5c4.1,0,7.1,1.6,9.1,4.8
		c2,3.2,3,7.6,3,13.2C436.9,81.9,432.8,88.1,424.6,88.1L424.6,88.1z M483.2,41.5c-7.7,0-13.8,2.7-18.5,8c-4.7,5.4-7,12.1-7,20.1
		c0,7.5,2.1,14.1,6.3,19.9c4.2,5.8,10.4,8.7,18.4,8.7c7.5,0,13.6-2.6,18.5-7.8c4.9-5.2,7.3-12.1,7.3-20.7c0-8.3-2.3-15.1-7-20.3
		C496.4,44.1,490.5,41.5,483.2,41.5L483.2,41.5z M482.8,88.1c-3.8,0-6.7-1.6-8.9-4.7s-3.3-7.7-3.3-13.6c0-5.5,1-9.9,3.1-13.2
		c2-3.3,5.2-5,9.4-5c4.1,0,7.1,1.6,9.1,4.8c2,3.2,3,7.6,3,13.2C495.2,81.9,491.1,88.1,482.8,88.1z M568.3,42.7h-13.2l-21.5,23.4
		c-0.6,0.7-1.4,1.7-2.5,3.1V23.5h-11.7v73.6h11.7V82.7l12-13.5L557,97.1h12.9l-18-36.4L568.3,42.7L568.3,42.7z M604.5,64.7
		l-11.7-2.4c-5.3-1.1-7.9-3-7.9-5.9c0-4.1,3.3-6.1,9.8-6.1c5.4,0,8.6,2,9.8,6.1l10.9-2.2c-2.5-8.4-9.6-12.7-21-12.7
		c-6.9,0-12.1,1.7-15.5,5c-3.5,3.4-5.2,7.4-5.2,12.3c0,8.6,5.5,14,16.5,16.1l9.9,1.9c1.6,0.3,3,1,4.2,1.9s1.8,2.1,1.8,3.6
		c0,4.5-3.8,6.7-11.4,6.7c-6,0-9.9-2.2-11.6-6.6l-11.5,2.2c1.3,4.6,4.1,8,8.3,10.3c4.3,2.2,9.2,3.4,14.7,3.4c6.4,0,12-1.5,16.6-4.4
		s7-7.4,7-13.5C618.1,71.8,613.5,66.6,604.5,64.7L604.5,64.7z"/>
	<path style="fill:#D57928;" d="M310.4,22.9v73.6l-10.2,9.9v-72L310.4,22.9z"/>
	
		<linearGradient id="SVGID_1_" gradientUnits="userSpaceOnUse" x1="232.3967" y1="76.0033" x2="299.1757" y2="2.4334" gradientTransform="matrix(1 0 0 -1 0 108.6065)">
		<stop  offset="6.000000e-03" style="stop-color:#F9C517"/>
		<stop  offset="1" style="stop-color:#E78E24"/>
	</linearGradient>
	<path style="fill:url(#SVGID_1_);" d="M233.1,34.4h67.3v72.1h-67.3L233.1,34.4z"/>
	<path style="fill:#FDD600;" d="M243.6,22.9l-10.5,11.5h67.3l10-11.5L243.6,22.9z"/>
	<path style="fill:#90C7EA;" d="M160.2,26.1l66.3-9.2l-5.6,15.8l-65.3,9L160.2,26.1z"/>
	
		<linearGradient id="SVGID_2_" gradientUnits="userSpaceOnUse" x1="157.957" y1="67.0267" x2="226.826" y2="11.7227" gradientTransform="matrix(1 0 0 -1 0 108.6065)">
		<stop  offset="6.000000e-03" style="stop-color:#198ACA"/>
		<stop  offset="1" style="stop-color:#00649D"/>
	</linearGradient>
	<path style="fill:url(#SVGID_2_);" d="M220.9,32.7l9.2,64.6l-65.3,9.2l-9.2-64.8L220.9,32.7z"/>
	<path style="fill:#0798D5;" d="M220.9,32.7l9.2,64.6l5-13.9l-8.6-66.1v-0.4"/>
	
		<linearGradient id="SVGID_3_" gradientUnits="userSpaceOnUse" x1="120.4" y1="64.0215" x2="120.4" y2="3.6725" gradientTransform="matrix(1 0 0 -1 0 108.6065)">
		<stop  offset="0" style="stop-color:#239F49"/>
		<stop  offset="1" style="stop-color:#008953"/>
	</linearGradient>
	<path style="fill:url(#SVGID_3_);" d="M104.3,20.6L162.9,47l-26.4,60.1L77.9,80.6L104.3,20.6z"/>
	<path style="fill:#95CE9F;" d="M98.2,0l6.1,20.6L162.9,47L158,27.4L98.2,0z"/>
	<path style="fill:#69BE6C;" d="M98.2,0L74.6,56l3.3,24.6l26.4-60L98.2,0z"/>
	
		<linearGradient id="SVGID_4_" gradientUnits="userSpaceOnUse" x1="32.8456" y1="69.9234" x2="43.2236" y2="7.2684" gradientTransform="matrix(1 0 0 -1 0 108.6065)">
		<stop  offset="0" style="stop-color:#D71F31"/>
		<stop  offset="1" style="stop-color:#BA2436"/>
	</linearGradient>
	<path style="fill:url(#SVGID_4_);" d="M65.5,32.6l9.7,63.6l-64.8,10.2L0,42.7L65.5,32.6z"/>
	<path style="fill:#761116;" d="M70,9.5l9.5,64.2l-4.3,22.5l-9.7-63.6L70,9.5z"/>
	<path style="fill:#FFFFFF;" d="M290.1,60.3c-1.3-3.3-3.3-6.3-5.9-9c-2.5-2.5-5.3-4.5-8.4-5.8s-6.5-1.9-10.1-1.9s-7,0.6-10.1,1.9
		c-3.1,1.3-5.9,3.2-8.4,5.8c-2.6,2.6-4.6,5.6-5.9,9c-1.3,3.3-2,7-2,11c0,3.9,0.7,7.5,2,10.9s3.3,6.4,5.9,9.1
		c2.4,2.5,5.2,4.4,8.3,5.7c3.1,1.3,6.5,1.9,10.2,1.9c3.6,0,6.9-0.6,10-1.9c3.1-1.3,5.9-3.2,8.4-5.7c2.6-2.7,4.6-5.7,5.9-9.1
		s2-7,2-10.9C292.1,67.3,291.5,63.7,290.1,60.3z M276.3,84.1c-2.6,3.1-6.1,4.7-10.5,4.7c-4.5,0-8-1.5-10.6-4.6
		c-2.6-3.1-3.9-7.4-3.9-12.8c0-5.6,1.3-9.9,3.9-13c2.6-3.1,6.1-4.7,10.6-4.7s8,1.6,10.5,4.7c2.6,3.1,3.9,7.5,3.9,13
		C280.2,76.7,278.9,81,276.3,84.1z M58.6,86.1c-0.5-0.6-1.2-1.1-2-1.4c-0.9-0.3-1.9-0.4-3.1-0.4s-2.5,0.1-4,0.4l-17.2,2.9
		c0.2-1.3,0.8-3,2-5.2c1.3-2.4,3.2-5.2,5.7-8.5c0.9-1.2,1.5-2,2-2.6c0.3-0.4,0.8-1,1.4-1.8c3.9-5.1,6.3-9.3,7.3-12.6
		c0.5-1.9,0.9-3.7,1-5.6v-1.5c0-1.4-0.1-2.7-0.3-4c-0.2-1.2-0.5-2.2-0.9-3S49.6,41.4,49,41c-0.7-0.4-1.7-0.6-3-0.6
		c-1.1,0-2.3,0.1-3.8,0.4l-19.8,3.4c-2.4,0.4-4.2,1.1-5.3,2.2c-0.9,0.8-1.4,1.9-1.4,3.2c0,0.3,0,0.7,0.1,1c0.3,1.7,1.2,2.9,2.6,3.5
		c0.8,0.4,1.8,0.6,3,0.6c0.8,0,1.7-0.1,2.6-0.2l16.6-2.9v0.9c0,1-0.2,2-0.5,3c-0.5,1.4-1.7,3.3-3.7,5.8C35.8,62,35,63,33.9,64.5
		c-4.5,5.4-7.7,10-9.6,13.8c-1.4,2.6-2.3,5.2-2.8,7.8C21.2,87.6,21,89,21,90.4c0,1,0.1,1.9,0.2,2.9c0.2,1.3,0.6,2.4,1,3.3
		c0.4,0.9,1,1.5,1.7,1.9c0.6,0.3,1.6,0.5,2.9,0.5c1.7,0,3.9-0.2,6.7-0.7l17.9-3.1c3.2-0.5,5.4-1.3,6.7-2.4c1-0.8,1.6-2,1.6-3.4
		c0-0.3,0-0.7-0.1-1.1C59.4,87.4,59.1,86.7,58.6,86.1z M139.9,43.1c-2.3-2.4-5.1-4.3-8.4-5.7c-3.3-1.4-6.5-2.1-9.9-2.1h-0.2
		c-3.4,0-6.7,0.8-10,2.2c-3.4,1.5-6.4,3.6-9,6.3c-2.5,2.7-4.6,5.9-6.2,9.7c-1.6,3.7-2.5,7.4-2.6,11.2V66c0,3.3,0.6,6.5,1.7,9.6
		c1.2,3.3,3,6.2,5.3,8.6s5.2,4.3,8.6,5.8c3.2,1.4,6.5,2.1,9.8,2.1h0.1c3.4,0,6.7-0.7,10-2.1c3.5-1.5,6.5-3.7,9-6.3
		c2.6-2.7,4.6-5.9,6.2-9.6c1.6-3.7,2.5-7.5,2.6-11.2v-1.1c0-3.3-0.6-6.6-1.8-9.8C144,48.5,142.2,45.6,139.9,43.1L139.9,43.1z
		 M133.5,69.3c-2.2,5.2-5.1,8.8-8.7,10.8c-1.9,1.1-3.9,1.6-6,1.6c-1.8,0-3.6-0.4-5.5-1.2c-4.1-1.7-6.7-4.6-7.8-8.5
		c-0.4-1.3-0.6-2.7-0.6-4.2c0-2.9,0.7-6.1,2.2-9.6c2.3-5.3,5.2-9,8.8-10.9c1.9-1.1,3.9-1.6,6-1.6c1.8,0,3.7,0.4,5.6,1.2
		c4.1,1.7,6.6,4.6,7.7,8.5c0.4,1.3,0.5,2.7,0.5,4.1C135.7,62.4,135,65.7,133.5,69.3z M209.8,45.1c-0.3-2-1-3.5-2.1-4.5
		c-0.9-0.8-2-1.2-3.3-1.2c-0.3,0-0.7,0-1,0.1c-1.7,0.2-3,1-3.8,2.3c-0.6,0.9-0.9,2.1-0.9,3.4c0,0.5,0,1,0.1,1.6l2.4,16.8l-18.8,2.8
		l-2.2-16.9c-0.3-2-1-3.5-2.1-4.5c-0.9-0.8-2-1.3-3.2-1.3c-0.3,0-0.6,0-0.9,0.1c-1.8,0.3-3.1,1-3.9,2.3c-0.6,0.9-0.9,2.1-0.9,3.4
		c0,0.5,0,1,0.1,1.6l6.4,43.7c0.3,2,1,3.5,2.2,4.5c0.9,0.8,2,1.2,3.3,1.2c0.4,0,0.7,0,1.1-0.1c1.6-0.2,2.9-1,3.6-2.3
		c0.5-0.9,0.8-2,0.8-3.3c0-0.5,0-1-0.1-1.6L184,75.9l18.8-2.8l2.6,17.3c0.3,2,1,3.5,2.1,4.5c0.9,0.8,2,1.2,3.3,1.2
		c0.3,0,0.7,0,1-0.1c1.7-0.2,3-1,3.8-2.3c0.6-0.9,0.8-2,0.8-3.3c0-0.5,0-1-0.1-1.6L209.8,45.1L209.8,45.1z"/>
	<path style="fill:#ED463E;" d="M0,42.7l1.3-6.4L4.5,20L70,9.5l-4.5,23.1L0,42.7z"/>
</g>
</svg>
