<svg xmlns="http://www.w3.org/2000/svg" width="100" height="100" xmlns:v="https://vecta.io/nano"><path d="M50,0c27.61,0,50,22.39,50,50s-22.39,50-50,50S0,77.61,0,50S22.39,0,50,0" fill="#e8e8e8"/><path d="M50,1c27.06,0,49,21.94,49,49S77.06,99,50,99S1,77.06,1,50S22.94,1,50,1" fill="#fff"/><path d="M67.8 51.45l-.26.07.81.04c1.99.11 4 .32 5.99.65l-.55-.81c-.54-.09-1.1-.15-1.65-.19-1.1-.08-2.59-.18-4.34.24z" fill="#ed4118"/><path d="M31.34 63.05v2.33l4.19-1.02-4.19-1.31z" fill="#a7ec15"/><path d="M61.13 51.77l.16.04 1.7.46c.63.17.74.21 1.06.21.82 0 1.23-.19 1.79-.46l.91-.39c-1.72-.08-3.54-.09-5.62.14z" fill="#f6bf1d"/><path d="M39.09 58.87l-.59-.72.11-.08.65.79c.04 0 .09-.01.13-.01 3.37-.29 6.1-.92 7.9-1.33 3.38-.78 6.32-1.73 8.47-2.42l3.42-1.16c1.33-.47 1.93-.68 3.23-.92 2.91-.52 5.24-.4 6.94-.32a37.76 37.76 0 0 1 5.67.73l-.6-1.05a54.92 54.92 0 0 0-6.1-.66l-1.2-.06a9.96 9.96 0 0 0-1.23.5c-.56.26-1 .47-1.83.47-.35 0-.47-.03-1.11-.21l-1.7-.46-.51-.13-1.15.17c-.64.1-2.42.54-5.66 1.34l-4.94 1.23-2.02.46c-1.8.3-3.37.4-4.94.4-1.34 0-2.69-.07-4.18-.15-2.17-.11-4.35-.35-6.51-.69v4.24c2.6.21 5.2.24 7.75.04z" fill="#0f96f6"/><path d="M33.91 46.43c.66.24 2 .72 3.73.64l-4.42-.92a5.24 5.24 0 0 0 .69.28z" fill="#6fc9ef"/><path d="M65.79 73.34c-.49.4-1.13.81-1.92 1.11-.33.12-1.07.4-2.04.4-.1 0-.21 0-.31-.01-.93-.06-1.62-.39-2.87-.99-.87-.42-1.3-.69-1.62-.89-.35-.22-.59-.37-1.15-.55-.72-.24-1.92-.63-3.15-.18-.31.11-.46.22-.66.37l-.59.39c-1.2.71-2.5 1.03-3.2 1.03-2.13 0-3.63-1.28-4.4-2.14-.23 0-.46 0-.7-.01h-.04c-1.71-.05-5.28-.14-8.61-2.44-1.21-.83-2.28-1.86-3.17-3.05v11.41h27.7 1.25a16.61 16.61 0 0 0 10.08-3.4c-.76-.06-1.51-.18-2.24-.34-.68-.13-1.04-.25-2.36-.71z" fill="#021a96"/><path d="M36.39 24.84c.86.09 1.57.2 4.89.84l4.87.96 1.28.23c1.38.19 4.23.47 7.79.21 1.34-.1 3.21-.44 6.96-1.12 2.61-.48 4.24-.84 6.07-1.53-.92-.84-1.95-1.56-3.06-2.15-3.34.98-6.74 1.69-10.13 2.12a63.14 63.14 0 0 1-7.23.43c-3.11 0-6.61-.27-9.16-1.24l-.06-.02c-.19-.07-.54-.21-1.03-.36-1.99-.63-4.09-.92-6.25-.86v2.4a30.53 30.53 0 0 1 5.06.09z" fill="#f13134"/><path d="M60.95 31.17c3.44-.47 6.57-1.2 9.3-2.18l1.19-.45c-.8-1.5-1.84-2.86-3.08-4-1.87.71-3.51 1.08-6.16 1.56l-6.97 1.13-2.91.11c-2.2 0-3.93-.18-4.91-.32-.47-.06-.61-.09-1.29-.23l-4.87-.96-4.88-.84c-1.67-.17-3.36-.2-5.03-.08v3.99c5.53 1.42 11.17 2.3 16.75 2.63 4.68.27 9.13.14 12.86-.36z" fill="#57449e"/><path d="M37.63 23.08l1.03.36.06.02c5.61 2.14 15.88.86 16.32.8 3.34-.43 6.69-1.13 9.97-2.08-.41-.21-.82-.4-1.25-.57-2.68.68-5.31.96-7.8.96-4.69 0-8.9-.98-12.05-2.02H31.34v1.65c2.17-.04 4.29.24 6.29.88z" fill="#e74f52"/><path d="M63.57 45.62l-1.96.39-2.54.53-3.95.71h-.15c-.85-.03-1.25-.17-1.98-.42l-2.5-.75c-2.22-.56-3.34-.84-4.76-.77-1.07.05-2.16.35-4.31.95l-1.92.58c-.45.15-.75.24-1.08.3l1.17.32.09.03 2.86.82 3.27.84 7.44 1.51c2.28.16 4.01-.11 6.63-.53 1.62-.25 3.21-.64 6.11-1.34l4.17-1.03a17.32 17.32 0 0 0-1.83-1.18c-.02-.01-.03-.02-.05-.03.01-.01.03-.02.04-.04.47-.43.91-.89 1.32-1.38l-1.42-.08c-1.37-.01-2.46.19-4.65.57z" fill="#edda1c"/><path d="M63.55 21.54c-1.5-.57-3.11-.91-4.79-.97h-1.08-.77-12.54c4.76 1.52 11.75 2.82 19.18.97z" fill="#adee3b"/><path d="M46.95 54.87c.52-.09.69-.13 2.01-.46l4.95-1.23 5.67-1.34.81-.12c-2.01-.5-2.58-.55-2.94-.55-.84-.01-1.37.14-2.1.33l-.73.19c-1.07.27-4.34 1.08-7.45.63-1.28-.18-1.81-.47-2.32-.75-.52-.28-1.01-.55-2.28-.69-2.72-.29-5.49.41-6.27.63l-.85.26c-.44.14-.78.26-1.41.37-.88.16-1.78.22-2.7.18v2.08a62.72 62.72 0 0 0 6.52.7c3.23.19 5.78.32 9.09-.23z" fill="#ed4118"/><path d="M38.63 31.49l1.56.28 6.22.77c2.14.17 5.36.43 9.41.04 2.77-.27 5.1-.76 7.8-1.33l.99-.21c1.55-.34 2.78-.61 4.54-.74 1.02-.08 2.04-.09 3.06-.05a14.71 14.71 0 0 0-.7-1.57l-1.21.45c-2.74.98-5.88 1.72-9.33 2.18-2.44.33-5.18.5-8.08.5-1.56 0-3.16-.05-4.8-.14-5.58-.33-11.21-1.21-16.75-2.63v1.64c2.08.09 4.12.29 6.07.61.52.07.86.13 1.22.2z" fill="#ee383c"/><path d="M39.42 35.39l2.69-.79c.65-.22 1.11-.38 2.03-.51 1.69-.25 2.97-.13 4.73.03.45.04 1.8.17 5.71 1.02l3.67.87 2.48.54c2.35.39 4.1.44 5.79.49 2.18.07 4.39.01 6.6-.18l.06-1.34a14.82 14.82 0 0 0-.91-5.14 26.69 26.69 0 0 0-3.1.05c-1.75.13-2.97.4-4.52.73l-.99.21-7.81 1.34-4.33.21c-2.07 0-3.8-.14-5.11-.24l-6.23-.77-1.56-.28-1.21-.22c-1.95-.32-3.98-.52-6.05-.6v5.9l3.8-.48 4.26-.84z" fill="#df1a24"/><path d="M31.34 45.26v.42l.95.16c-.33-.17-.64-.36-.95-.58z" fill="#eeda17"/><path d="M38.08 47.04c.49-.05.8-.15 1.39-.34l1.92-.58c2.16-.6 3.25-.9 4.34-.95 1.44-.07 2.57.21 4.8.78l2.51.75c.71.25 1.11.38 1.94.41.45.01.69-.01 4.06-.7l2.54-.53 1.97-.39c2.19-.38 3.29-.58 4.69-.56.51 0 1.02.03 1.53.09l.18-.22-1.69-.26c-1.53-.27-3.05-.64-4.51-1.09l-1.96-.72-2.62-1.04c-3.99-1.52-4.57-1.51-5.04-1.51-1.56.02-2.87.55-4.02 1.01-.85.34-1.28.6-1.73.87-.4.24-.81.49-1.54.81-.68.3-2.49 1.11-4.7 1.31-2.29.2-4.03-.34-5.86-.92-1.72-.54-3.38-1.29-4.95-2.23v4.07c.44.31.91.59 1.39.83l5.36 1.11z" fill="#6ccdf3"/><path d="M42.14 44.04c2.19-.19 3.98-.99 4.65-1.3.72-.32 1.13-.57 1.52-.81.46-.28.89-.54 1.75-.88 1.16-.47 2.48-1.01 4.07-1.02.48-.01 1.07-.01 5.09 1.52l2.62 1.04 1.94.72c1.45.45 2.96.82 4.49 1.09l1.76.27a14.93 14.93 0 0 0 2.87-6.36l-5.9-.1-5.3.39-3.04.47-2.72.47-5.91.95-5.69.44a28.52 28.52 0 0 1-1.81-.06c-2.24-.14-3.86-.49-6.3-1.02l-4.89-1.25v2.27c1.58.96 3.26 1.72 4.99 2.26 1.82.57 3.55 1.11 5.81.91z" fill="#1597f5"/><path d="M42.54 40.73c2.79.18 4.96-.08 7.48-.39l5.9-.95 2.72-.47 3.05-.48 5.32-.39 5.93.1.16-1.17-4.87.21c-.57 0-1.15-.01-1.72-.03-1.7-.05-3.45-.11-5.81-.49-1.09-.18-1.65-.32-2.49-.54l-3.67-.87-5.69-1.02c-1.75-.16-3.02-.28-4.7-.04-.9.13-1.36.29-2 .51l-2.7.79-4.3.85-3.82.48v1.61l4.91 1.26c2.45.54 4.07.89 6.3 1.03z" fill="#3162eb"/><path d="M34.01 52.02a7.83 7.83 0 0 0 1.39-.37l.85-.27c.79-.22 3.57-.93 6.32-.64 1.29.14 1.8.41 2.33.71.5.27 1.02.56 2.28.74 3.08.44 6.33-.37 7.39-.63l.73-.19c.75-.2 1.29-.35 2.14-.34.31 0 .81.01 3.31.64 2.39-.3 4.42-.26 6.36-.17l.65-.18c1.77-.43 3.28-.33 4.38-.25l1.53.17c-.95-1.28-2.08-2.42-3.35-3.38l-4.28 1.06-6.12 1.34-5.36.57c-.42 0-.85-.01-1.3-.05-1.73-.12-3.65-.59-7.47-1.51l-3.27-.84-2.86-.82-.09-.03-1.49-.4-.24.02c-1.84.13-3.28-.39-3.97-.64-.4-.14-.79-.31-1.17-.5l-1.35-.23v6.37a11.83 11.83 0 0 0 2.66-.18z" fill="#f7c21f"/><path d="M63.77 21.63l-.22-.09c-7.43 1.84-14.42.55-19.18-.97h-.45c3.15 1.04 7.35 2.02 12.05 2.02 2.49 0 5.12-.28 7.8-.96zm-26.18 1.59l1.03.36.06.02c2.55.97 6.05 1.24 9.16 1.24a63.14 63.14 0 0 0 7.23-.43c3.39-.43 6.8-1.15 10.13-2.12-.06-.03-.12-.06-.17-.09-3.28.95-6.63 1.65-9.97 2.08-.43.06-10.71 1.34-16.32-.8l-.06-.02c-.19-.07-.54-.21-1.03-.36-2.01-.64-4.12-.93-6.29-.86v.14c2.14-.09 4.24.2 6.23.84zm-1.22 1.76c.86.09 1.56.2 4.88.84l4.87.96 1.29.23c.99.14 2.71.32 4.91.32l2.91-.11c1.34-.1 3.22-.44 6.97-1.13 2.65-.48 4.29-.85 6.16-1.56-.04-.03-.08-.07-.11-.1-1.84.69-3.46 1.05-6.07 1.53l-6.96 1.12c-3.56.26-6.41-.02-7.79-.21l-1.28-.23-4.87-.96-4.89-.84a29.38 29.38 0 0 0-5.05-.08v.14a28.18 28.18 0 0 1 5.03.08zm16.51 6.82c2.91 0 5.65-.17 8.08-.5 3.45-.47 6.59-1.2 9.33-2.18l1.21-.45-.06-.12-1.19.45c-2.73.98-5.87 1.71-9.3 2.18-3.73.5-8.18.63-12.86.35a88.43 88.43 0 0 1-16.75-2.63v.14c5.53 1.41 11.16 2.3 16.75 2.63 1.63.08 3.24.13 4.79.13z"/><path d="M38.6 31.63l1.56.28 6.23.77 5.11.24 4.33-.21c2.78-.27 5.11-.77 7.81-1.34l.99-.21c1.55-.34 2.77-.6 4.52-.73 1.03-.08 2.07-.09 3.1-.05l-.05-.14c-1.02-.04-2.05-.02-3.06.05-1.76.13-2.99.4-4.54.74l-.99.21-7.8 1.33c-4.05.4-7.28.14-9.41-.04l-6.22-.77-1.56-.28-1.22-.22c-1.95-.32-3.99-.52-6.07-.61v.14c2.07.09 4.1.29 6.05.6l1.22.24zm.86 3.89l2.7-.79a9.97 9.97 0 0 1 2-.51c1.67-.25 2.94-.13 4.7.04.44.04 1.79.17 5.69 1.02l3.67.87 2.49.54c2.36.39 4.12.44 5.81.49l1.72.03 4.87-.21c0-.05.01-.09.01-.14-2.21.19-4.42.25-6.6.18-1.69-.05-3.44-.11-5.79-.49l-2.48-.54-3.67-.87-5.71-1.02c-1.76-.16-3.04-.28-4.73-.03-.92.13-1.38.29-2.03.51l-2.69.79-4.28.84-3.8.48v.14l3.82-.48 4.3-.85zm3.07 5.35l1.81.06c1.99 0 3.74-.21 5.69-.44l5.91-.95 2.72-.47 3.04-.47 5.3-.39 5.9.1c.01-.05.02-.09.02-.14l-5.93-.1-5.32.39-3.05.48-2.72.47-5.9.95c-2.52.3-4.69.56-7.48.39-2.23-.14-3.84-.49-6.28-1.02l-4.91-1.26v.14l4.89 1.25c2.45.52 4.07.87 6.31 1.01zm-.38 3.31c2.21-.2 4.02-1 4.7-1.31.73-.32 1.14-.57 1.54-.81.45-.27.88-.53 1.73-.87 1.15-.47 2.46-1 4.02-1.01.47-.01 1.04-.01 5.04 1.51l2.62 1.04 1.96.72c1.46.45 2.98.82 4.51 1.09l1.69.26c.03-.04.07-.08.1-.13l-1.76-.27c-1.53-.27-3.04-.64-4.49-1.09l-1.94-.72-2.62-1.04c-4.02-1.53-4.61-1.52-5.09-1.52-1.59.02-2.91.55-4.07 1.02-.86.35-1.29.61-1.75.88a13.65 13.65 0 0 1-1.52.81c-.67.3-2.47 1.1-4.65 1.3-2.26.2-3.99-.34-5.81-.91-1.73-.54-3.41-1.3-4.99-2.26v.16c1.57.94 3.23 1.69 4.95 2.23 1.81.58 3.54 1.12 5.83.92zm-9.42 1.75c-.48-.24-.95-.52-1.39-.83v.17l.95.59.44.07zm30.82-.45l-1.97.39-2.54.53-4.06.7c-.83-.03-1.22-.16-1.94-.41l-2.51-.75c-2.24-.56-3.36-.84-4.8-.78-1.09.05-2.18.35-4.34.95l-1.92.58c-.59.19-.9.29-1.39.34l.35.09c.34-.06.63-.16 1.08-.3l1.92-.58c2.15-.6 3.24-.9 4.31-.95 1.42-.07 2.54.21 4.76.77l2.5.75c.73.25 1.13.39 1.98.42h.15c.41 0 .91-.08 3.95-.71l2.54-.53 1.96-.39c2.18-.38 3.28-.57 4.66-.56.47 0 .95.03 1.42.08.04-.04.07-.08.11-.13l-1.53-.09c-1.4.01-2.5.2-4.69.58z"/><path d="M33.91 46.43c-.23-.08-.46-.18-.69-.28l-.53-.1c.38.19.77.36 1.17.5.69.25 2.12.77 3.97.64l.24-.02-.43-.11c-1.73.1-3.08-.39-3.73-.63z"/><path d="M37.63 47.07c.06 0 .12-.01.18-.01l.26-.02-5.34-1.11.48.23 4.42.91z" fill="#6fc9ef"/><path d="M59.89 50.12c-2.62.41-4.35.68-6.63.53-1.72-.12-3.63-.58-7.44-1.51l-3.27-.84-2.86-.82-.09-.03-1.17-.32-.36.05 1.49.4.09.03 2.86.82 3.27.84 7.47 1.51 1.3.05c1.71 0 3.25-.24 5.36-.57 1.62-.26 3.22-.64 6.12-1.34l4.28-1.06-.14-.11L66 48.78l-6.11 1.34zm-27.6-4.27l-.95-.16v.14l1.35.23c-.14-.06-.27-.14-.4-.21z"/><path d="M38.08 47.04l-.26.02c-.06 0-.12.01-.18.01l.43.11c.13-.01.25-.03.36-.05l-.35-.09zm-5.35-1.11l-.44-.08.4.21.53.1-.49-.23zm35.04 5.39l-.65.18.42.02.26-.07c1.75-.43 3.25-.32 4.34-.24l1.65.19-.12-.16-1.53-.17c-1.09-.08-2.6-.18-4.37.25zm-1.92.7c-.56.27-.97.46-1.77.46-.34 0-.45-.03-1.08-.21l-1.7-.46c-.06-.01-.11-.03-.16-.04-.13.01-.25.03-.38.05l.51.13 1.7.46c.64.18.76.21 1.09.21.85 0 1.29-.21 1.85-.47a9.96 9.96 0 0 1 1.23-.5l-.37-.02c-.38.13-.67.27-.92.39z"/><path d="M34.04 52.16c.63-.11.97-.23 1.41-.37l.85-.26c.78-.22 3.54-.92 6.27-.63 1.27.14 1.76.41 2.28.69.51.28 1.04.57 2.32.75 3.11.44 6.37-.37 7.45-.63l.73-.19c.74-.2 1.27-.34 2.1-.33.37 0 .94.05 2.94.55l.37-.05c-2.5-.63-3.01-.64-3.31-.64-.85-.01-1.39.14-2.14.34l-.73.19c-1.07.26-4.31 1.07-7.39.63-1.26-.18-1.77-.46-2.28-.74-.53-.29-1.04-.57-2.33-.71-2.75-.3-5.53.41-6.32.64l-.85.27c-.43.14-.77.25-1.39.37a11.32 11.32 0 0 1-2.67.17v.14a12.78 12.78 0 0 0 2.69-.19z"/><path d="M66.76 51.62l.35-.12c-1.94-.09-3.97-.12-6.36.17l.37.09c2.09-.22 3.91-.21 5.64-.14z" fill="#f6bf1d"/><path d="M42.03 55.4c1.58 0 3.15-.1 4.94-.4.52-.09.69-.13 2.02-.46l4.94-1.23 5.66-1.34 1.15-.17-.36-.09-.81.12c-.64.11-2.43.54-5.67 1.34l-4.95 1.23-2.01.46c-3.31.55-5.86.42-9.09.25a60.11 60.11 0 0 1-6.52-.7v.14c2.17.35 4.35.58 6.51.69l4.19.16zm25.51-3.88l-.4.12 1.2.06a57.41 57.41 0 0 1 6.1.66c-.03-.05-.07-.1-.1-.16a58 58 0 0 0-5.99-.65l-.81-.03z"/><path d="M60.76 51.68l-.37.05.36.09.38-.05-.37-.09zm6.36-.18l-.35.12.37.02.4-.12c-.14 0-.28-.01-.42-.02zM39.21 59c-.04-.04-.08-.09-.11-.13-2.55.2-5.15.18-7.75-.07v.14l4.32.21 3.54-.15z"/><path d="M62.42 53.01c-1.3.23-1.91.45-3.23.92l-3.42 1.16-8.47 2.42c-1.81.42-4.54 1.05-7.9 1.33-.04 0-.09.01-.13.01.04.04.07.09.11.13h.03c3.37-.29 6.11-.92 7.92-1.34 3.39-.78 6.33-1.73 8.48-2.43l3.43-1.16c1.32-.47 1.92-.68 3.21-.91 2.9-.52 5.22-.4 6.91-.32 1.92.1 3.85.35 5.76.75-.03-.05-.05-.11-.08-.16a37.76 37.76 0 0 0-5.67-.73c-1.7-.08-4.03-.2-6.95.33z"/><path d="M38.61 58.06l-.11.08.59.72c.06 0 .11-.01.17-.01l-.65-.79z" fill="#0f96f6"/><path d="M39.26 58.85c-.06 0-.11.01-.17.01.04.04.07.09.11.13.06 0 .11-.01.17-.01-.03-.04-.07-.08-.11-.13zm-3.44 5.44l-4.48-1.39v.15l4.19 1.31.29-.07z"/><path d="M35.53 64.36l-4.19 1.02v.14l4.48-1.09-.29-.07z"/><path d="M38.15 63.87l-.03-.13-2.3.56.29.07 2.04-.5z" fill="#d6ed91"/><path d="M35.82 64.29l-.28.07.28.07.29-.07-.29-.07zm30.1 8.95c-.04.03-.08.07-.12.1l2.33.72c.74.16 1.49.28 2.24.34.05-.04.11-.08.16-.13-.8-.06-1.6-.18-2.38-.35-.63-.13-.99-.25-2.23-.68zm-31.41-3.79c3.33 2.29 6.9 2.39 8.61 2.44h.04l.7.01-.12-.14c-.19 0-.38 0-.57-.01h-.04c-1.7-.05-5.24-.14-8.54-2.41-1.25-.86-2.34-1.93-3.25-3.17v.23c.9 1.19 1.96 2.21 3.17 3.05z"/><path d="M43.4 71.08l-.12.07a4.49 4.49 0 0 0 .46.6h.18c-.29-.33-.47-.59-.52-.67z" fill="#32e901"/><path d="M63.82 74.32c-.36.13-1.2.45-2.29.38-.86-.05-1.49-.34-2.82-.98-.86-.41-1.28-.67-1.61-.88-.36-.23-.6-.38-1.18-.57-.69-.23-1.97-.65-3.25-.17-.33.12-.49.24-.7.39l-.58.39c-1.18.69-2.45 1.01-3.13 1.01-2 0-3.44-1.16-4.22-2h-.18c.77.86 2.27 2.14 4.4 2.14.7 0 2-.32 3.2-1.03l.59-.39c.21-.15.35-.26.66-.37 1.23-.46 2.44-.06 3.15.18.56.18.79.33 1.15.55.32.2.76.47 1.62.89 1.26.6 1.95.93 2.87.99.11.01.21.01.31.01.97 0 1.7-.28 2.04-.4.79-.3 1.43-.71 1.92-1.11a.88.88 0 0 0-.15-.05 6.6 6.6 0 0 1-1.8 1.02z"/><path d="M66.57 72.6l-.1-.09c-.18.21-.42.44-.7.67.05.02.1.04.15.05.26-.22.47-.43.65-.63z" fill="#32e901"/><path d="M44.05 71.89l-.12-.14h-.18c.04.04.08.09.12.14h.18zm21.74 1.45c.04-.03.08-.07.12-.1-.05-.02-.1-.03-.15-.05-.04.03-.08.07-.13.1l.16.05z"/><path d="M76.81 59.02c0 .02.01.05.01.07 0-.02-.01-.04-.01-.07zm-.06-.44c0 .03.01.06.01.09 0-.03-.01-.06-.01-.09zm-.09-.53c.01.03.01.06.02.1-.01-.03-.02-.07-.02-.1zm-.17-.75c.01.02.01.04.02.07 0-.03-.01-.05-.02-.07zm.06.24c.01.03.01.06.02.08-.01-.02-.01-.05-.02-.08zm.15.77c.01.03.01.07.02.1-.01-.03-.01-.06-.02-.1zm-.1-.52c.01.03.01.06.02.09 0-.03-.01-.06-.02-.09zm-.15-.68h0 0z" fill="#d5eb8e"/><g fill="#9dac6e"><path d="M76.31 56.6l.07.25-.07-.25zm.14.51v-.01.01z" opacity=".81"/><path d="M76.31 56.6l-1.59.2a14.39 14.39 0 0 1 1.59-.2z" opacity=".81"/></g><path d="M53.57 65.38c1.28-.05 2.46-.25 3.55-.55l-.32-.13-.11-.05-1.32.23-.18.03-2.98.46a12.36 12.36 0 0 0 1.36.01z" fill="#0fc8d0"/><path d="M49.55 65.17l.83.29.53-.06-1.36-.23z" fill="#cee68b"/><path d="M43.91 65.6a38.81 38.81 0 0 0 6.47-.14l-.83-.29c-.72-.15-1.44-.36-2.15-.61-1.72-.61-2.97-1.34-3.5-1.65-1.77-1.04-3.35-2.36-4.7-3.91l-3.54.14c-1.43 0-2.88-.07-4.32-.21v3.97a47.31 47.31 0 0 0 4.48 1.39l2.3-.56.03.13-2.05.5.89.21c2.93.67 5.38.93 6.92 1.03z" fill="#d6ed91"/><path d="M59.01 64.21l-1.21.23-.86.17.4.16a17.21 17.21 0 0 0 1.67-.56zm-15.03-1.42c1.57.92 3.16 1.6 4.77 2.04a15.37 15.37 0 0 1-2.2-1.24 14.83 14.83 0 0 0 2.2 1.24 15.76 15.76 0 0 0 2.78.5l3.66-.55.18-.03 1.12-.19c-1.14-.53-1.09-.73-1.07-.81.03-.12.17-.24 1.02-.23v.14c-.83-.01-.88.11-.88.12s-.03.2 1.18.73l1.06-.21 1.83-.34 3.29-1.6 2.18-1.23 4.54-2.53c1.75-.91 3.13-1.58 5.08-1.94a13.92 13.92 0 0 1 1.58-.2 16.9 16.9 0 0 0-1.15-2.89c-1.91-.4-3.84-.65-5.76-.75-1.69-.09-4.02-.2-6.91.32-1.29.23-1.89.44-3.21.91l-3.43 1.16-8.48 2.43c-1.81.42-4.55 1.05-7.92 1.34h-.03c1.3 1.52 2.84 2.79 4.57 3.81z" fill="#0fc8d0"/><path d="M64.84 73.01l-6.67-2.18c-1.57-.34-3.05-.66-5.01-.49-1.03.09-1.64.26-2.4.48l-2.13.54c-.64.13-2.44.5-4.58.53.78.84 2.21 2 4.22 2 .68 0 1.95-.32 3.13-1.01.27-.16.43-.28.58-.39.21-.15.37-.27.7-.39 1.28-.47 2.56-.05 3.25.17.57.19.81.34 1.18.57.33.21.75.47 1.61.88 1.33.64 1.96.92 2.82.98 1.09.07 1.93-.25 2.29-.38.74-.28 1.34-.66 1.82-1.03l-.09-.03-.72-.25z" fill="#01434e"/><path d="M53.58 65.52l-.61.01c-.48 0-.97-.02-1.45-.07l-.8.09c1.02.29 2.16.49 3.42.5a13.41 13.41 0 0 0 4.38-.7l-1.19-.44c-1.15.34-2.39.56-3.75.61z" fill="#23af00"/><path d="M69.41 66.9c-.28 0-.57 0-.85-.01-2.57-.05-5.48-.11-9.02-1.2l-1.01-.33c-1.28.42-2.75.72-4.38.7-1.26-.01-2.4-.21-3.42-.5-1.37.15-2.84.25-4.42.25-.77 0-1.57-.02-2.4-.08-1.54-.1-4-.36-6.94-1.02l-1.15-.28-4.48 1.09v.64c.91 1.24 2 2.31 3.25 3.17 3.29 2.27 6.83 2.37 8.54 2.41h.04l.57.01-.46-.6.12-.07c.05.08.23.34.52.68 2.19-.03 4.03-.4 4.68-.53l2.12-.53c.77-.22 1.38-.4 2.43-.49 1.98-.17 3.47.15 5.05.49 1.12.24 3.1.93 6.69 2.18l.71.25.17.06c.28-.24.52-.47.7-.67l.1.09c-.17.19-.39.41-.65.64l2.23.69a17.06 17.06 0 0 0 2.38.35c2.64-2.07 4.65-4.91 5.67-8.19l-1.54.38c-1.36.27-3.2.42-5.25.42z" fill="#32e901"/><path d="M67.78 63.31l-5.85.47c-.82.49-1.9 1.06-3.19 1.51l.84.27c3.52 1.09 6.42 1.14 8.98 1.19 2.39.05 4.54-.1 6.07-.42l1.62-.4c.22-.73.39-1.47.5-2.23-3-.36-6.01-.49-8.97-.39z" fill="#a9ec10"/><path d="M59.64 64.1l-2.09.76 1.19.43c1.29-.45 2.37-1.02 3.19-1.51l-.96.12-1.33.2z" fill="#74a608"/><path d="M53.57 65.38c-.45.02-.91.01-1.36-.01l-.69.09 1.45.07.61-.01a15.65 15.65 0 0 0 3.76-.6l-.21-.08c-1.1.3-2.27.5-3.56.54zm16.04-6.77l-4.54 2.53-2.18 1.23-3.29 1.6.54-.08 2.82-1.39 2.19-1.24 4.53-2.52c1.73-.9 3.11-1.57 5.04-1.93.52-.1 1.06-.16 1.59-.2-.01-.05-.03-.09-.04-.14l-1.58.2c-1.94.36-3.33 1.03-5.08 1.94zm-25.7 4.3c.53.31 1.77 1.04 3.5 1.65.71.25 1.43.45 2.15.61l-.8-.34c-1.61-.43-3.2-1.11-4.77-2.04a18.92 18.92 0 0 1-4.6-3.81c-.06 0-.11.01-.17.01 1.34 1.56 2.92 2.88 4.69 3.92z"/><path d="M51.52 65.33a16.73 16.73 0 0 1-2.78-.5l.8.34a12.63 12.63 0 0 0 1.37.23l.61-.07zm5.82-.55l.21.08a19.12 19.12 0 0 0 2.09-.76l-.63.11-1.67.57zm17.74-1.39l-3.94-.23-1.12-.02H68.9l-1.11.03h-.09-.03-.07-.04-.07-.05-.07-.05-.07-.06-.08-.06-.09-.06-.09-.06c-.04 0-.07 0-.11.01h-.05c-.05 0-.11.01-.17.01-.07 0-.12.01-.17.01h-.06c-.04 0-.08 0-.12.01H66c-.04 0-.08 0-.12.01-.03 0-.05 0-.08.01-.04 0-.08.01-.12.01-.03 0-.06 0-.08.01-.04 0-.08.01-.12.01-.03 0-.06 0-.09.01-.04 0-.08.01-.12.01-.03 0-.06 0-.09.01-.04 0-.09.01-.13.01-.03 0-.06 0-.09.01-.05 0-.1.01-.14.01-.03 0-.05 0-.08.01-.06.01-.13.01-.19.02h-.03l-.23.02c-.02 0-.04 0-.07.01l-.17.02c-.03 0-.06.01-.09.01-.05 0-.1.01-.16.01-.03 0-.07.01-.1.01-.05 0-.1.01-.15.01-.04 0-.07.01-.11.01a.77.77 0 0 0-.15.02c-.04 0-.07.01-.11.01-.05.01-.1.01-.15.02-.04 0-.07.01-.11.01-.05.01-.1.01-.16.02-.04 0-.07.01-.11.01-.05.01-.11.01-.16.02-.04 0-.07.01-.11.01-.06.01-.12.01-.18.02l-.3.17 5.85-.47c2.95-.1 5.96.04 8.97.39.01-.05.01-.09.02-.14l-.56-.06-1.1-.09z"/><path d="M61.85 63.65l-.39.05c-.03 0-.07.01-.1.01l-.41.05-.22.03-.59.09-.5.22 1.33-.2.96-.12.29-.17c-.03 0-.06.01-.09.01l-.28.03z"/><path d="M56.94 64.61l.86-.17 1.21-.23.59-.24-1.83.34-1.06.21.14.06c.04.01.07.02.09.03z" fill="#0fc8d0"/><path d="M50.91 65.4l-.53.06c.11.04.23.07.34.1l.8-.09-.61-.07z"/><path d="M43.9 65.73l2.4.08c1.58 0 3.05-.1 4.42-.25l-.34-.1a38.81 38.81 0 0 1-6.47.14c-1.54-.1-3.99-.35-6.92-1.02l-.89-.21-.29.07 1.15.28a45.43 45.43 0 0 0 6.94 1.01z"/><path d="M55.2 64.92l.18-.03 1.32-.23c-.08-.03-.15-.07-.22-.1l-1.12.19-.18.03-3.66.55.69.05 2.99-.46z" fill="#0fc8d0"/><path d="M59.64 64.1l.5-.22-.54.08-.59.24.63-.1zm-8.12 1.37l.69-.09-.69-.05-.61.07.61.07z"/><path d="M55.54 63.78c0-.01.06-.14.88-.12v-.14c-.84-.01-.99.11-1.02.23-.02.08-.07.28 1.07.81l.24-.04c-1.2-.54-1.17-.73-1.17-.74z" fill="#0fc8d0"/><path d="M57.33 64.92l1.19.44.21-.07-1.19-.43-.21.06zm11.23 1.84c-2.56-.05-5.46-.11-8.98-1.19l-.84-.27-.21.07 1.01.33c3.54 1.09 6.45 1.15 9.02 1.2l.85.01c2.05 0 3.89-.15 5.24-.43l1.54-.38c.02-.05.03-.1.05-.16l-1.62.4c-1.52.31-3.68.46-6.06.42z"/><path d="M57.12 64.84l.22-.06-.4-.16a2.05 2.05 0 0 0-.24.05c.03.02.07.03.11.05a1.98 1.98 0 0 1 .31.12z" fill="#0fc8d0"/><path d="M57.12 64.84l.21.08.22-.06-.21-.08-.22.06z"/><path d="M56.94 64.61l-.08-.03-.14-.06-.24.04.22.1.24-.05z" fill="#0fc8d0"/><path d="M64.89 72.88L58.2 70.7c-1.58-.34-3.07-.66-5.05-.49-1.05.09-1.65.27-2.43.49l-2.12.53c-.65.13-2.49.51-4.68.53.04.04.08.09.12.14 2.15-.04 3.94-.4 4.58-.53l2.13-.54c.76-.22 1.37-.4 2.4-.48 1.96-.17 3.44.15 5.01.49 1.11.24 3.09.93 6.67 2.18l.71.25.09.03c.04-.03.08-.07.13-.1l-.17-.06-.7-.26z"/><g fill="#d5eb8e"><path d="M76.94 60.87v-.09-.18-.11c0-.05 0-.11-.01-.16 0-.04 0-.08-.01-.12 0-.05-.01-.1-.01-.15 0-.04-.01-.08-.01-.13s-.01-.1-.01-.15c0-.04-.01-.09-.01-.13 0-.05-.01-.09-.01-.14 0-.04-.01-.09-.01-.13s-.01-.09-.02-.13c-.01-.05-.01-.09-.02-.14 0-.02-.01-.05-.01-.07l-.05-.35c0-.03-.01-.06-.01-.09l-.03-.17c-.01-.03-.01-.07-.02-.1l-.03-.17c-.01-.03-.01-.06-.02-.1l-.03-.17c-.01-.03-.01-.06-.02-.09-.01-.06-.02-.11-.04-.17-.01-.03-.01-.06-.02-.08-.01-.06-.03-.12-.04-.18-.01-.02-.01-.04-.02-.07-.02-.06-.03-.13-.05-.19-.81.05-1.89.2-3.12.51-1.29.32-2.37.92-4.48 2.11l-5.38 3.16-.53.26-.72.46.19-.02c.04 0 .07-.01.11-.01l.16-.02c.04 0 .07-.01.11-.01.05-.01.1-.01.16-.02.04 0 .07-.01.11-.01.05-.01.1-.01.15-.02.04 0 .07-.01.11-.01.05-.01.1-.01.15-.02.04 0 .07-.01.11-.01.05 0 .1-.01.15-.01.03 0 .07-.01.1-.01.05-.01.1-.01.16-.01.03 0 .06-.01.09-.01l.17-.02c.02 0 .04 0 .07-.01l.23-.02h.03l.19-.02c.03 0 .05 0 .08-.01.05 0 .1-.01.14-.01.03 0 .06 0 .09-.01.04 0 .09-.01.13-.01.03 0 .06 0 .09-.01.04 0 .08-.01.12-.01.03 0 .06 0 .09-.01.04 0 .08-.01.12-.01.03 0 .06 0 .08-.01.04 0 .08-.01.12-.01.03 0 .05 0 .08-.01.04 0 .08-.01.12-.01h.07c.04 0 .08-.01.12-.01h.06c.05 0 .1-.01.15-.01.08 0 .13-.01.19-.01h.05c.04 0 .08 0 .11-.01h.06.09.06.09.06.08.06.07.05.07.05.07.04.07.03.09l1.11-.03h1.12l1.12.02 3.94.23 1.13.11.56.06c.11-.79.17-1.59.17-2.41-.01-.11-.01-.21-.01-.3z"/><path d="M62.13 63.62c.03 0 .06-.01.09-.01l.72-.46-1.08.5.27-.03z"/></g><g fill="#9dac6e"><path d="M69.68 58.73l-4.53 2.52-2.19 1.24-2.82 1.39.59-.09.22-.03.41-.05c.03 0 .07-.01.1-.01l.39-.05 1.08-.5a17.73 17.73 0 0 0 1.65-1.2 17.73 17.73 0 0 1-1.65 1.2l.53-.26c2.11-1.07 2.64-1.62 5.38-3.16 2.11-1.19 3.19-1.79 4.48-2.11 1.23-.31 2.3-.46 3.12-.51l-.07-.25c-.02-.09-.05-.17-.07-.25l-1.59.2c-1.92.35-3.3 1.02-5.03 1.92z" opacity=".81"/><path d="M60.14 63.88l2.82-1.39-2.82 1.39zm1.32-.18l.39-.05-.39.05z" opacity=".81"/></g></svg>