<svg xmlns="http://www.w3.org/2000/svg" width="784.543" height="318.274" viewBox="0 0 207.577 84.21" xmlns:v="https://vecta.io/nano"><defs><linearGradient id="A" x1="14.756" y1="458.875" x2="30.257" y2="483.463" gradientUnits="userSpaceOnUse"><stop offset="0" stop-color="#24abe3"/><stop offset="1" stop-color="#0383b8"/></linearGradient></defs><path d="M16.419 64.566c3.518-.88 7.476-3.372 7.476-7.623 0-6.304-6.01-6.304-9.089-6.304H2.2c.586.293.88 1.906.88 4.105 0 2.639-.147 6.304-.586 11.288l-.147 2.052c-.586 8.649-.88 13.633-2.345 14.806h11.288c8.649 0 13.926-4.398 13.926-10.115.147-5.277-3.665-7.623-8.796-8.209zm-7.476-3.225c.147-2.345.44-4.691.733-6.89.733-.147 1.613-.147 2.199-.147 3.811 0 5.571 1.613 5.571 3.811 0 3.811-3.811 5.277-7.916 5.277h-.733zm2.052 17.445c-2.199 0-3.079-.586-3.079-.88 0-2.052.147-3.665.293-5.864l.293-4.691h2.346c4.251 0 7.623 1.319 7.623 5.571 0 3.811-2.932 5.864-7.476 5.864zm189.399-14.659c-3.225-2.052-6.304-3.811-6.304-6.157 0-2.932 2.492-4.105 5.277-4.105a8.57 8.57 0 0 1 7.33 4.251l.88-7.623c-2.199 0-4.398-.586-7.916-.586-6.01 0-11.874 2.345-11.874 9.235 0 4.691 3.372 7.183 8.649 10.408 2.492 1.466 4.544 3.078 4.544 5.424 0 2.932-2.492 4.544-5.864 4.544-4.398 0-7.33-2.492-8.942-5.864l-.586 8.063c3.372 1.319 6.303 1.759 9.089 1.759 6.89 0 12.754-3.811 12.754-9.822 0-4.691-3.518-7.33-7.037-9.529zm-23.015 1.319c1.613-2.639 9.089-14.513 10.848-14.806h-8.649c.293.293.44 1.173.44 1.906 0 1.026-.44 1.906-.88 2.785-2.052 3.225-3.518 5.717-5.864 9.089-.88-2.639-2.492-6.157-4.544-10.995-1.319-2.932-1.906-3.225-4.105-3.225-1.173 0-3.811.147-5.717.293 1.173.586 2.932 3.372 4.544 6.304 2.492 4.691 4.105 8.649 5.277 12.754.147 2.785-.586 11.874-2.052 13.34h8.796c-.733-.733-.88-2.639-.88-4.105 0-3.518.293-6.743.733-9.089.293-1.319 1.319-2.932 2.052-4.251zM82.533 77.467l-6.597-8.796c-.44-.586-1.173-1.613-1.613-1.906 4.251-1.319 7.769-4.105 7.769-9.235 0-6.304-5.424-6.89-9.235-6.89H60.837c.586.293.88 1.759.88 4.105 0 2.639-.147 6.304-.586 11.288l-.147 2.052c-.733 9.968-1.173 13.78-2.492 14.806h8.796c-.586-.293-.88-1.906-.88-4.105 0-1.906.147-4.544.293-7.916l.147-2.345h.147c1.173 0 1.613.733 2.345 1.613l9.089 12.607c.733 1.026 1.319 1.466 3.811 1.466 1.613 0 4.105-.147 5.864-.293-1.026-.733-1.466-1.026-5.571-6.45zM68.9 64.42c-.44 0-1.026 0-1.466-.147l.147-2.199c.293-3.811.44-6.304.733-7.623.733-.147 1.759-.147 2.492-.147 3.078 0 4.838 1.466 4.838 3.958 0 3.811-2.785 6.157-6.743 6.157zm-18.031 3.958l-1.319-4.984-3.518-12.754h-7.037c.293.293.44 1.026.44 1.759s-2.199 5.571-4.251 9.968l-2.199 4.838c-3.958 8.356-6.743 13.487-8.942 15.686h7.769c-.147-.293-.147-1.026-.147-1.466 0-1.759 1.613-4.838 2.199-6.304l.733-1.319h3.811c3.811 0 6.157-.44 7.623-1.026l.733 2.785c2.199 7.623 2.492 7.769 5.277 7.769.88 0 3.078-.147 4.984-.293-2.199-1.906-3.665-6.01-6.157-14.659zm-14.513.88l5.277-11.288 3.225 11.288zm56.878-1.613c0-6.45 2.785-13.926 9.675-13.926 3.518 0 6.157 1.906 7.623 4.838l.88-8.209c-2.785 0-4.398-.586-7.916-.586-11.141 0-17.005 8.356-17.005 19.057 0 7.77 4.838 14.659 13.193 14.659 6.45 0 10.262-3.225 12.021-8.649-4.105 2.932-6.597 3.665-9.382 3.665-5.131 0-9.089-3.811-9.089-10.848zm62.889.733l-1.319-4.984-3.518-12.754h-7.037c.293.293.44 1.026.44 1.759 0 .88-2.052 5.424-4.251 9.968l-2.199 4.838a101.38 101.38 0 0 1-4.984 9.822c-2.492 1.613-3.811 1.759-9.089 1.759-1.466 0-2.052-.293-2.052-1.759 0-3.225.44-6.45.586-9.675l.147-1.906c.586-8.649 1.026-13.926 2.345-14.659h-8.796c.586.733.733 1.906.88 4.105 0 2.639-.147 6.304-.586 11.288l-.147 2.052c-.586 8.649-1.026 13.34-2.346 14.806h22.869c-.147-.293-.147-1.026-.147-1.466 0-1.759 1.319-4.251 2.199-6.304l.733-1.319h3.811c3.811 0 6.157-.44 7.623-1.026l.733 2.785c2.199 7.623 2.492 7.769 5.277 7.769.88 0 3.225-.147 4.984-.293-2.346-2.052-3.811-6.157-6.157-14.806zm-14.513.88l5.277-11.288 3.225 11.288z" fill="#24abe3"/><path d="M13.504 442.305c-.597-.011-1.099.051-1.416.147s-.449.229-.515.295l-.066.066-.263.002-1.373.067c-.583.061-1.223.177-1.758.456a2.71 2.71 0 0 0-1.22 1.275c-.256.557-.34 1.231-.382 1.567h.001l-.042.337.1-.072c.1-.072.3-.217.707-.373s1.019-.323 1.593-.295 1.108.251 1.525.635.719.93.852 1.631a4.25 4.25 0 0 1-.251 2.405c-.351.846-1.019 1.682-1.787 2.155s-1.637.585-2.327.579-1.202-.128-1.593-.295-.657-.378-.791-.484l-.134-.106.139-.122c.139-.123.418-.367.662-.796s.457-1.041.435-1.682-.278-1.308-.857-1.76-1.481-.685-2.372-.763-1.771 0-2.851.501-2.361 1.426-3.241 2.706-1.358 2.918-1.598 4.332-.239 2.606-.239 3.814l.095 3.714c.095 1.281.284 2.617.807 4.198s1.381 3.408 2.255 5.112l1.274 2.257a5.56 5.56 0 0 0 .898-.6c.675-.561 1.274-1.376 1.717-2.049l.874-1.471.144-.266-.158.795c-.157.795-.473 2.386-.912 3.601-.31.858-.982 2.139-1.324 2.654.153-.066.677-.12 1.155-.255a5.83 5.83 0 0 0 1.772-1.018c.647-.563 1.072-1.319 1.396-1.738l1.766-2.425.874-1.471.144-.266-.158.795c-.158.795-.473 2.386-.912 3.601s-1.002 2.053-1.839 3.396l-1 1.551a45.5 45.5 0 0 0 4.594 3.393c2.238 1.431 4.009 2.199 5.201 2.583s1.804.384 3.652-.501 4.933-2.656 7.11-4.048l2.13-1.502c-.768-.267-1.467-1.109-2.062-1.888-.71-.931-1.274-1.769-1.713-2.984s-.754-2.805-.912-3.601l-.158-.795.144.266.874 1.471 1.766 2.426c.725.937 1.576 1.996 2.519 2.559.517.308 1.704.306 1.836.126a9.36 9.36 0 0 1-1.226-2.329c-.439-1.215-.754-2.805-.912-3.601l-.158-.795.144.266.874 1.471c.443.673 1.042 1.488 1.717 2.049.34.282.698.5 1.019.666 1.249-2.154 2.512-4.822 3.24-6.884.91-2.578.983-4.193 1.019-5.847l-.064-4.672c-.1-1.325-.301-2.283-.582-3.179s-.643-1.732-1.105-2.539-1.025-1.587-1.645-2.166-1.3-.958-2.049-1.147-1.568-.189-2.367-.034-1.578.468-2.141.855-.908.849-1.064 1.317-.123.942 0 1.337.334.713.521.913.348.284.428.326l.081.041-.234.181c-.234.181-.702.543-1.228.723s-1.111.181-1.648.109-1.027-.217-1.492-.525-.905-.778-1.16-1.142-.323-.62-.358-1.307l-.094-2.751c-.059-.945-.177-1.717-.341-2.325s-.372-1.053-.711-1.473-.807-.813-1.388-1.051-1.274-.321-1.871-.332zM.113 476.474c-.196-.207.176.202 0 0z" fill="url(#A)" transform="translate(88.855 -442.304)"/></svg>