<svg xmlns="http://www.w3.org/2000/svg" width="100" height="100" viewBox="0 0 590 590" xmlns:v="https://vecta.io/nano"><circle cx="295" cy="295" r="295" fill="#00443d"/><path d="M447.59 259.14c0 2.61.18 4.75.36 4.75s3.92-2.14 8.25-4.75l7.96-4.75 20.66 12.23 20.84 12.41c.3.3-2.2 4.93-2.85 5.34-.36.24-9.02-4.57-19.3-10.63l-19.3-11.04c-.36 0-9.02 4.99-19.3 11.04-10.27 6.06-18.94 10.87-19.3 10.63-.36-.18-1.19-1.48-1.84-2.79-1.01-1.96-1.07-2.55-.42-2.91.42-.24 4.51-2.67 9.08-5.4l8.31-4.93.18-7.01.18-6.95h3.21 3.27v4.76zm-336.65 40.14c0 8.13.06 8.55 1.01 7.6 1.66-1.66 4.69-2.61 8.31-2.61 4.57.06 7.9 1.6 9.74 4.51 1.37 2.2 1.42 2.85 1.6 14.31l.18 12.05h-2.97-3.03v-9.38c0-10.45-.53-13.18-2.85-15.02-1.31-1.01-2.2-1.19-4.81-1.01-5.88.53-7.18 3.5-7.18 16.63v8.79h-2.97H105v-22.27-22.27h2.97 2.97v8.67zm100.88-8.08c1.72.3 4.04 1.01 5.17 1.54 1.96.95 2.02 1.13 2.02 4.16 0 1.78-.12 3.21-.3 3.21s-.95-.42-1.66-.83c-1.66-1.13-7.78-2.73-10.21-2.73-3.27 0-8.02 1.78-10.33 3.92-6.65 6-6.77 19.47-.24 25.17 3.21 2.85 5.88 3.74 11.16 3.8 3.8 0 5.52-.3 8.49-1.54l3.74-1.54-.18 3.33-.18 3.31-2.97 1.19c-4.16 1.6-13.6 1.66-17.99.18-9.44-3.32-15.02-13.77-13.3-24.94 2.14-13.48 12.94-20.84 26.78-18.23zm131.93 23.4c-1.66-6.29-7.24-10.33-14.01-10.27-4.1.06-6.71.83-8.85 2.73l-1.54 1.37v-17.81h-6.53v44.59l2.85-.18c2.67-.18 2.79-.24 3.09-2.2l.3-1.96 1.19 1.31c2.14 2.38 4.45 3.21 9.2 3.21 6.41 0 10.63-2.49 13.36-7.96 1.29-2.56 1.83-9.57.94-12.83zm-15.08 15.43c-6.12 0-9.62-3.68-9.62-10.03 0-4.22 1.37-7.01 4.51-9.08 1.66-1.19 2.61-1.37 5.46-1.19 5.88.42 8.73 3.8 8.73 10.33 0 6.06-3.56 9.97-9.08 9.97zm82.71-20.48c0 20.6.06 20.84 3.33 20.84 1.25 0 1.42.24 1.42 2.38v2.38h-3.5c-2.91 0-3.86-.24-5.23-1.42l-1.66-1.43-.18-20.84-.18-20.84h3.03 2.97v18.93zm105.68-18.94v17.93l-1.78-1.48c-2.55-2.14-5.52-2.97-10.09-2.67-5.4.3-8.97 2.43-11.52 7.01-1.66 2.97-1.84 3.74-1.84 8.61 0 4.33.24 5.82 1.31 7.78 3.74 7.07 13.06 9.92 20.37 6.18 1.31-.65 2.61-1.72 2.85-2.26.3-.71.47-.42.71 1.07.3 2.02.42 2.08 3.15 2.26l2.79.18v-44.59h-5.95zm-1.96 35.8c-3.09 4.1-8.61 4.93-12.94 2.02-5.76-3.8-5.34-14.49.65-17.69 2.61-1.42 6.83-1.42 9.5-.06 4.81 2.49 6.3 11.1 2.79 15.73zM98.47 294.17v2.97h-6.24H86v19 19h-3.27-3.26v-19-19h-6.24H67v-2.97-2.97h15.73 15.74zm60.26 11.22c-1.48-.71-3.8-1.13-6.23-1.13-9.86 0-15.5 6.83-14.72 17.81.53 7.48 4.51 11.76 12.35 13.18 4.1.77 10.57 0 13.72-1.6 1.48-.77 1.72-1.25 1.72-3.33 0-2.26-.12-2.43-1.31-2.02-4.57 1.42-7.54 2.08-9.38 2.08-5.22 0-9.8-2.79-10.45-6.35l-.36-1.96 11.16-.12 11.22-.18.18-2.26c.48-5.51-3.15-11.98-7.9-14.12zm-6.59 11.94h-8.08l.36-1.66c.53-2.14 2.2-4.39 3.98-5.28 1.96-1.01 6.18-.95 8.25.12 1.9.95 3.56 3.62 3.56 5.64.01 1.12-.35 1.18-8.07 1.18zM279.8 305.1c1.07.42 2.49 1.48 3.15 2.32l1.19 1.54 1.37-1.42c3.27-3.5 10.15-4.39 14.49-1.9 4.22 2.38 4.81 4.33 4.99 17.75l.18 11.76h-2.97-3.03v-9.38c-.06-13.77-.95-16.15-6.17-16.15-5.7 0-7.01 2.85-7.36 15.85l-.24 9.68h-2.91-2.91v-10.09c0-10.81-.53-13.54-2.85-14.78-1.72-.89-4.63-.83-6.59.24-2.91 1.48-3.62 4.39-3.62 15.2v9.5l-3.09-.18-3.15-.18-.18-15.02-.12-14.96h2.97c2.79 0 2.97.06 2.97 1.6 0 1.43.06 1.48 1.07.65 3.13-2.81 8.77-3.7 12.81-2.03zm95.24 23.21c-5.94 1.84-7.6 2.14-10.75 1.84-5.4-.53-8.07-2.38-9.02-6.47l-.42-1.6h22.86l-.3-4.33c-.48-6.83-3.33-10.98-8.73-12.83-3.09-1.01-8.91-.77-11.64.48-2.97 1.31-6.41 5.11-7.48 8.13-.48 1.31-.83 4.33-.83 6.77.06 5.58 1.78 9.5 5.46 12.29 4.45 3.33 12.41 3.98 19.42 1.6 2.73-.95 2.73-.95 2.73-3.62 0-2.5-.06-2.67-1.3-2.26zm-19.48-12.76c.65-2.32 2.02-4.22 3.68-5.17.77-.42 2.73-.71 4.45-.77 2.43 0 3.44.3 4.87 1.48.95.83 1.9 2.02 2.08 2.55.12.53.42 1.6.65 2.32l.36 1.37h-16.63l.54-1.78zm45.13-8.61v2.67h-2.49c-3.33 0-5.17 1.01-6.65 3.56-1.07 1.84-1.25 3.27-1.48 11.99l-.18 9.98h-2.91-2.91V320v-15.14h2.67c2.61 0 2.67.06 2.67 1.9v1.9l1.66-1.6c2.08-1.96 3.92-2.73 7.13-2.73l2.49-.06v2.67zm46.9-2.08c-2.91 0-2.97.06-2.97 1.84v1.78l-1.9-1.42c-1.07-.77-2.85-1.72-3.98-2.14-3.56-1.19-8.37-.83-11.82.89-5.22 2.61-7.84 7.36-7.84 14.19 0 9.56 5.58 15.44 14.55 15.44 4.33-.06 6.95-.95 9.68-3.44l1.31-1.19v4.33h5.94v-30.28h-2.97zm-12.76 25.17c-3.68 0-6.59-1.54-8.13-4.39-.89-1.6-1.07-2.97-.95-6.35.24-4.87 1.37-6.95 4.69-8.61 2.91-1.48 7.01-1.37 9.5.3 2.79 1.84 4.1 4.75 4.1 8.91-.01 6.46-3.39 10.14-9.21 10.14zm45.42-24.46c1.84.95 3.03 2.14 3.98 3.98 1.31 2.49 1.37 3.27 1.37 14.13v11.46h-2.97-2.97v-9.8c0-10.57-.47-13-3.03-14.78-1.66-1.13-5.58-1.25-7.6-.18-.83.36-2.02 1.66-2.67 2.79-1.07 1.84-1.25 3.27-1.48 11.99l-.18 9.98h-2.91-2.91V320v-15.14h2.67c2.43 0 2.67.12 2.67 1.48 0 1.72.71 1.9 1.84.48 2.37-2.79 9.8-3.45 14.19-1.25zm-247.59 8.61c0 11.04.53 13.42 3.15 15.02 3.62 2.2 7.66 1.19 9.44-2.38.89-1.72 1.07-3.74 1.07-12.05v-9.92h2.97 2.97v10.21c0 5.64-.3 11.28-.65 12.53-1.48 5.4-7.3 8.67-14.01 7.9-3.92-.48-6.06-1.48-8.07-3.92-2.38-2.79-2.79-5.34-2.79-16.51v-10.21h2.97 2.97v9.33z" fill="#fff"/></svg>