<svg xmlns="http://www.w3.org/2000/svg" width="100" height="100" viewBox="0 0 315 315" xmlns:v="https://vecta.io/nano"><path d="M157.5,0C244.5,0,315,70.5,315,157.5S244.5,315,157.5,315S0,244.5,0,157.5S70.5,0,157.5,0" fill="#e8e8e8"/><path d="M157.5 3.2c85.2 0 154.4 69.1 154.4 154.4S242.8 312 157.5 312 3.2 242.7 3.2 157.5 72.3 3.2 157.5 3.2" fill="#fff"/><path d="M211.6 247.7H103.4c-19.9 0-36.1-16.2-36.1-36.1h0V103.4c0-19.9 16.2-36.1 36.1-36.1h108.2c19.9 0 36.1 16.2 36.1 36.1h0v108.2c0 20-16.1 36.1-36.1 36.1h0z" fill="#ff6200"/><path d="M134.7 246.1c-.6.6-1.3 1.2-2 1.6h-2.9c-1.2-3.6-2.8-7.1-4.7-10.4 0 0 11-4.4 13.9-4.4.7 1.5 1.5 3.7 3 5.1-1.4 1.5-5.8 5.9-7.3 8.1h0zm5.9-93.4c0-4.4 1.5-4.4.7-5.9-.7-1.4-6.6 0-8.1 0-3.7.7-10.3 2.9-10.3 4.4-.7 2.2-.7 7.3-.7 8.1.7 2.2.7 4.4 1.5 6.6 2.2-2.2 2.9-3 4.4-3.7.7-.7 8.8-6.6 9.5-7.3 1.5-1.5 2.3-.7 3-2.2h0zm-21.3 40.5v3.7c0 1.5.7 9.5.7 11.8.8 2.2.8 4.4 1.5 6.6.7 1.5 1.5 2.9 1.5 4.4a5.81 5.81 0 0 0 2.2-2.2c2.2-2.2 2.9-4.4 4.4-7.4-.8-5.1-2.2-9.5-2.2-11 0-5.9.7-7.4 1.5-11-3 1.4-6.7 3.5-9.6 5.1h0zm41.9-102.3c.7 1.5 9.5 6.6 13.2 8.8 2.9 2.2 5.9 2.9 8.8 4.4 2-2.9 3.5-6.1 4.4-9.5 2.2 1.5 5.2 1.5 7.4 2.2 0 2.9 0 5.9.7 8.8 0 1.5 1.5.7 4.4-.7 4.4-1.5 8.8-2.2 11-2.9 5.2-2.9 8.1-8.8 12.5-8.8 3.7 0 10.3 2.2 11.8 3.7 2.2.7 3.7 1.5 5.9 1.5s3.9-1.5 5.5-2.9l-.9-3.3c-5.9-3.7-12.2-7.4-18.5-9.9-4.4 3.7-7.4 6.6-9.6 6.6s-.7-4.4-.7-7.3c-2.2 0-3.7 0-5.9-.7-1.5 5.1-2.2 11.8-5.9 13.3-.9.5-1.9.8-2.9.7V89c0-.7 2.9-5.9 2.2-6.6 0 0-6.6 1.5-8.1 2.2-.7.7-5.1 2.9-5.9 2.9-1-.3-1.9-.6-2.9-.7-2.2-1.5-3.7-1.5-5.9-2.9-2.9 8.8-3.7 11-3.7 9.5 0 0-10.3-6.6-14-11-9.5 1.5-9.5 2.9-17.6 5.9-3 2.9-7.4 6.6-10.3 11-1.5 2.9-2.9 4.4-4.4 7.3l7.3 2.9c1.9-2.3 3.6-4.8 5.2-7.3 5.1-3.2 13.9-8.3 16.9-11.3h0zm-7.4 127.2c-.8-1.5-3-2.2-4.4-2.9-1.5 0-3 2.9-3 5.9.2 3 .7 5.9 1.5 8.8 0 .7 1.5 1.5 2.9 2.2 2.2 1.5 4.4 2.2 6.6 3.7 0 0-2.2-6.6-2.9-10.3-.7-2.2.8-5.2-.7-7.4h0zm-27.9 15.5s2.2-1.5 2.2-3c3.7-4.4 8.1-8.1 8.8-8.8-1.5-3.7-2.2-4.4-4.4-6.6-.7.7-4.4 2.9-5.1 4.4-1.5.7-2.9 1.5-3.7 2.2 0 1.5.7 2.2 1.5 3.7 0 1.5.7 5.1.7 8.1h0zm14-69.9c-7.4 2.2-12.5 3.7-14 5.1-3.7 2.2-5.1 3.7-8.8 5.9 0 4.4 0 4.4.7 6.6l.8 8.8c1.4-2.2 5.9-6.6 8.1-9.5 3.3-3.7 7.3-6.7 11.8-8.8.6-3 1.4-5.1 1.4-8.1h0zm-10.3-50c-1.5 2.2-1.5 4.4-1.5 6.6 0 3.7.7 6.6 1.5 11-3 2.2-4.4 3.7-7.4 5.1.7 4.4 1.5 12.5 1.5 12.5.8-1.4 1.8-2.6 2.9-3.7 3-2.2 4.4-3.7 8.1-6.6.8-1.5 1.5-.7 3.7-2.2.7-.7 1.5-1.4 1.5-2.2 0-1.5-.7-3-1.5-4.4s-2.2-5.2-2.2-5.9c0-5.9.7-7.3 1.4-12.5-2.9-.6-6.6-.6-8 2.3zm74.2 119.1c-2.9.7-8.8 1.5-8.8 3.7-.7 2.2 0 4.4 0 5.9.7 1.5.7 3 .7 5.2v.2h5.6c1.3-1.9 2.6-3.3 3.3-5.3.7-2.3 0-5.9-.8-9.7h0zm-27.9-27.9c.7 2.8 1.7 5.5 2.9 8.1.7 0 1.5 1.5 2.2 1.5 1.5-1.5 3-3.7 5.2-4.4v2.9c0 2.2 0 3.7.7 5.9 0 2.2 2.2 2.2 5.1 2.2s3.7-5.2 3.7-5.9c0 0 .7 2.9 5.2 5.1 0 0 5.1 0 5.1-.7.8-3.7 1.5-4.4.8-7.4 0 0 4.4 3 6.6 5.9 1.4-1.5 2.9-4.4 2.9-5.2 1.4-2.9 1.4-6.6 1.4-9.5-5.9-3.7-13.2-4.4-20.6-4.4-6.5 0-13.9.7-21.2 5.9h0zm12.5 33.1c-.7-1.4-2.2-2.2-3.7-2.2s-5.1-2.2-5.1-.7c-3.7 0-.7 3.7-.7 5.9 0 1.6 2.1 4.4 4.1 6.7h6.8a15.47 15.47 0 0 1-.6-3.1c-.8-2.2-.1-4.4-.8-6.6h0zm38.9-56.6c5.7 0 12.2 1.3 20.3 4.6v4.9c-8.1-3.3-15.5-4-19.6-5.1v5.9c2.9.7 4.4 2.2 7.3 2.9 1.1.5 7.5 4 12.2 6.6v5.1c-8.9-5.5-15.1-7.6-22.6-11-1.5 1.5-2.2 3.7-4.4 5.1-.7.7-5.9-3.7-8.8-5.1-2.2-1.5-6.6-2.2-9.5-2.9-.7 0-.7-1.5-.7-2.2-.7-2.2-1.5-4.4-.7-5.2 3.7-1.5 5.1-4.4 5.1-6.6s2.2.7 4.4 0c1.5-1.5 2.2-2.9 1.5-4.4 0-1.5-.7-2.9-2.2-2.9-7.3-3-15.5-3-22.8 0-2.2.7-2.2 3.7-1.5 5.9.8 2.9 3.7 1.5 5.9 0 .7 0-.7 2.2.7 4.4 1.5 2.9 4.4 3.7 4.4 4.4 0 2.2 0 2.2-.7 3.7 0 1.5 0 2.9-1.5 3.7-4.4.7-8.1 2.2-12.5 3.7-2.2.7-4.4 2.9-6.6 2.9-1.5 0-2.9-2.9-3.7-3.7-1.5 0-1.5-.7-4.4 0-8.6 3.6-16.9 7.8-25 12.5-1.5-1.5-.7-3.7-1.5-5.2 8.2-5.1 16.8-9.6 25.7-13.2.7-.8 0-2.9-.7-4.4 0 0-5.1-.7-14.7 2.2-5.8 1.4-12.5 5.1-13.2 5.1-.5-1.7-.7-3.4-.7-5.1 4.5-2.3 9.2-4.3 14-5.9 5.2-1.5 10.3-1.5 15.5-2.2-.8 0-.8-1.5-.8-2.2-2.2-4.4-5.9-8.1-9.5-11.8-1.5-3-3-6.6-3-8.1 1.5-1.5 3 .7 5.1.7-.9-2.6-1.4-5.3-1.5-8.1-.7-2.9-.7-2.9-.7-6.6 0-4.4 1.5-6.6.7-7.4-.7-.8-3.7-2.2-4.4-2.2-1.5-.8-2.2-.8-2.9-2.2-2.2-3.7-4.4-6.6-4.4-10.3s1.4-6.6 2.9-10.3c.7-2.9 4.4-4.4 6.6-5.9s4.4-.7 6.6-.7c5.2 0 9.5 2.9 13.2 5.1 2.6 2 4.4 4.9 5.1 8.1h6.6c3.7.7 7.3 1.5 11.8 3.7 5.1-4.4 14-5.1 18.4-5.1 0-8.1 5.9-12.5 10.3-12.5 3.7-.7 5.9-1.5 11 .7 3.7 2.2 8.8 9.5 8.8 10.3 1.5 3 .7 6.6.7 11-.5 1.9-.7 3.9-.7 5.9-.7 2.9-4.4 5.1-6.6 5.9 0 5.1-1.5 8.1-2.2 12.5 0 2.2-.7 4.4-1.5 6.6 2.2-.7 3-2.2 5.1-2.2-1.5 9.5-3.7 8.1-5.9 12.5-.9 3.2-2.4 6.2-4.4 8.8a20.56 20.56 0 0 1-3.7 2.9c-1.2.9.3 1.6.3 2.4h0zm-60.9-55.9c1.5-1.5 5.9-4.4 5.9-4.4.7 0 .7-.7.7-1.5-1.4-5.2-2.9-5.2-5.9-6.6-1.5-1.1-3.3-1.6-5.1-1.5-3 .7-8.1 2.2-9.5 6.6 0 .7-.7 3.7 1.5 6.6 1.4 2.9 4.4 5.2 5.9 6.6 2 .1 2.7-3.6 6.5-5.8h0zm15.4 59.5c-1.5-.7-2.9-.7-4.4-.7-1.7.1-3.5.3-5.2.7.4 1.5.9 3 1.5 4.4 2.2-.7 2.9-1.5 4.4-2.2 0 .1 2.9-1.4 3.7-2.2h0zm5.9-39.6c0-1.5-1.5-3-3.7-3.7h-9.5c-3.7 0-6.6 0-10.3.7 1.5 3 5.2 5.9 6.6 7.4 1.5 1.5 3 2.9 5.9 2.9 2.9-.7 2.9 0 4.4-.7 0 1.5.7 3.7 0 5.1 0 .8.7 6.6-2.2 7.4-2.2.7-5.1 2.2-6.6 4.4s-2.2 5.9 0 7.4c1.5.7 2.9-1.5 5.2-2.2 2.2-.7 2.2-2.2 2.9-4.4 1.5-1.5 4.4-2.2 5.1-3.7v-2.2c.7-6.6.7-8.1 1.5-12.5-.1-.8.6-5.2.7-5.9h0zm4.4-17.7c0-1.5-2.9-.7-4.4 0-1.5 0-3.7 1.5-5.9 2.9-2.2 2.2-3.7 2.9-3.7 5.1h3.7c3.7 0 4.4 1.5 5.9-.7 2.2-2.9 4.3-4.4 4.4-7.3h0zm30.9-6.6c5.2 1.5 8.8 4.4 12.5 8.8 2.3 0 4.4-1.5 5.1-3.7.7-3.7 1.5-9.5-.7-12.5-1.5-1.5-2.2-2.2-5.9-2.9-2.9-.8-6 .1-8.1 2.2-1.5 2.2-3.7 5.2-2.9 8.1h0zm-15.5 9.5c1.5 0 1.5 2.9 1.5 4.4 3.7 0 7.4.7 8.8-.7 8.1-3.7-4.4-6.6-5.9-6.6-3.7-.7-11-2.9-8.1 0 0 1.5 2.2 1.5 3.7 2.9h0zm15.5 54.5c-2.2-.7-4.4-2.2-8.8-1.5-.7.7-.7.7-.7 2.9 3.7 0 5.9 2.2 8.8 2.9-.1.1.6-3.6.7-4.3h0zm4.4-13.3c2.9 0-3.7-2.9-6.6-5.1-.6-.1-1.1-.3-1.5-.7-1.5-1.5-2.2-4.4-5.2-5.1a.68.68 0 0 1-.7-.7h0c0-2.2-.7-11-.7-11 1.5 2.9 4.4 2.9 5.9 2.9 3 0 5.1-.8 6.6-2.9 0-.7.8-2.2 1.5-2.2 1.5-.7 2.9-1.5 3.7-3 .7 0 1.5-1.5 1.5-1.5-6.6-.7-20.6-.7-20.6-.7-2.2.7-4.4 2.9-4.4 3.7l1.4 8.8c0 5.2.7 5.2.7 10.3 2.2 1.5 2.9 1.5 4.4 2.9a90.2 90.2 0 0 0 2.2 4.4c2.9 1.5 6.6 2.9 8.8 5.2.7-.1 3-3.8 3-5.3h0zm5.1 64c-1.5-1.5 1.5-6.6-2.2-6.6-1.5-.7-5.9-2.2-5.9-2.2-.8 2.2-.8 6.6 0 8.8 0 1.6 2 5.6 3.6 8 2-1 3.8-2.2 5.5-3.5-.5-1.5-.8-2.9-1-4.5h0zm-60.3-4.4s-.7-3.7-1.5-5.2c-.8-1.8-2-3.3-3.7-4.4-.7 0-2.2-1.5-2.9-.7 0 0-.7 5.9-1.5 6.6 1.5 2.2 2.9 3.7 3.7 5.9s1.5 5.1 2.9 7.4c.8-3 3-4.4 3-9.6h0zM219 247c-.4-1.9-.9-3.9-1.3-5.3v-11.8c-2.9.7-3.7 1.5-4.4 1.5-2.2 1.5-3.7 2.2-3.7 3.7 0 2.9.7 5.9.7 7.3 0 2.2 0 3.7.7 4.4 1.1.3 1.8.5 2.6.8 1.9-.1 3.7-.3 5.4-.6h0zm23.8-22.9c-1.5-.7-1.5-.7-3.7-.7-.8-.7-2.2-.7-3-.7.5 2.5 1.3 5 2.2 7.3.6 1.1 1.4 2.1 2.5 2.8 1.2-1.7 2.3-3.5 3.2-5.4-.7-1.5-1.2-2.7-1.2-3.3h0z" fill="#fff"/></svg>