<svg xmlns="http://www.w3.org/2000/svg" width="100" height="100" viewBox="0 0 520.04 520.04" xmlns:v="https://vecta.io/nano"><path d="M260.02 0C403.6 0 520.04 116.44 520.04 260.02S403.6 520.04 260.02 520.04 0 403.6 0 260.02 116.44 0 260.02 0" fill="#e8e8e8"/><path d="M260.02 5.2c140.72 0 254.82 114.1 254.82 254.82s-114.1 254.82-254.82 254.82S5.2 400.74 5.2 260.02 119.3 5.2 260.02 5.2" fill="#fff"/><path d="M224.42 317.52l4.98-4.5 4.71-4.85 4.04-4.81c1.2-1.58 2.2-3.04 2.98-4.38h5.57c-1.2 2.33-2.9 4.89-5.1 7.68-2.19 2.79-4.63 5.53-7.29 8.22l9.49 15.2c.58.88 1.11 1.53 1.61 1.94s1.14.62 1.92.62c.84 0 1.6-.21 2.28-.62l-.16 3.88c-.42.26-.98.49-1.69.7-.7.21-1.43.31-2.16.31-1.52 0-2.78-.32-3.81-.97-1.02-.65-2.05-1.8-3.1-3.45l-8.55-13.65-2.86 2.44-2.86 2.21v13.1h-6.04v-48.63h-4.39v-4.42h8.79c.63 0 1.06.1 1.29.31.24.21.35.6.35 1.16v32.51h0zm-40.62-13.96c1.2-1.71 2.77-3.01 4.7-3.92s4.32-1.36 7.14-1.36c2.25 0 4.29.35 6.12 1.05s3.32 1.67 4.47 2.91a9.86 9.86 0 0 1 2.35 4.54c.37 1.68.55 3.58.55 5.7v24.12h-6.04v-23.42c0-1.91-.11-3.46-.31-4.65-.21-1.19-.76-2.25-1.65-3.18-1.41-1.55-3.61-2.33-6.59-2.33-3.24 0-5.7.96-7.37 2.87-.89 1.04-1.53 2.27-1.84 3.6-.34 1.37-.51 3.17-.51 5.39v21.71h-6.04V303.4h-4.39v-4.42h7.45c.63 0 1.03.08 1.22.23.18.15.32.57.43 1.24l.31 3.11h0zm-21.81 13.8c-.73-.21-1.8-.41-3.22-.62a28.67 28.67 0 0 0-4.23-.31c-3.61 0-6.13.77-7.57 2.33-1.44 1.55-2.16 3.51-2.16 5.89 0 2.79.79 4.89 2.35 6.28 1.57 1.39 3.48 2.09 5.72 2.09 3.14 0 5.49-.93 7.06-2.79 1.36-1.71 2.04-4.11 2.04-7.21.01 0 .01-5.66.01-5.66zm10.2 18.45c-.56.35-1.17.61-1.8.78-.77.21-1.56.31-2.35.31-3.35 0-5.2-1.45-5.57-4.34-.99 1.55-2.45 2.73-4.35 3.53a15.27 15.27 0 0 1-6 1.2c-3.92 0-7.11-1.06-9.57-3.18s-3.69-5.17-3.69-9.15c0-3.83 1.24-6.9 3.73-9.23s6.26-3.49 11.33-3.49c1.52 0 3.04.1 4.55.31 1.46.21 2.64.44 3.53.7v-2.02c0-1.45-.15-2.65-.43-3.6-.27-.93-.74-1.79-1.37-2.52-.68-.77-1.64-1.4-2.86-1.86s-2.71-.7-4.43-.7c-1.99 0-3.88.24-5.69.7-1.71.43-3.38 1.03-4.98 1.78l-.08-4.42c1.36-.62 3.03-1.16 5.02-1.63s4.1-.7 6.35-.7c2.67 0 4.99.32 6.98.97 1.98.65 3.58 1.64 4.79 2.98 1.83 2.01 2.74 4.99 2.74 8.92v18.22c0 1.14.13 1.97.39 2.48s.81.77 1.65.77a4.25 4.25 0 0 0 2.35-.7l-.24 3.89h0zm-45.96-13.33c0-1.45-.18-2.74-.55-3.88-.36-1.13-.99-2.07-1.88-2.79-1.2-1.03-2.64-1.71-4.31-2.01-1.67-.31-3.74-.47-6.2-.47h-7.45v18.69h7.29c2.56 0 4.65-.18 6.27-.54s2.95-.93 4-1.71c1.02-.74 1.79-1.79 2.2-2.98.42-1.22.63-2.66.63-4.31m-2.35-22.26c0-1.24-.25-2.47-.74-3.68a6.27 6.27 0 0 0-2.4-2.91c-.97-.63-2.07-1.05-3.21-1.24-1.2-.21-2.8-.31-4.79-.31h-6.9v17.06h6.98c2.2 0 3.97-.15 5.33-.47 1.36-.31 2.48-.88 3.37-1.71 1.57-1.44 2.36-3.69 2.36-6.74m9.17 22.33c0 2.59-.42 4.77-1.26 6.55-.81 1.75-2.07 3.24-3.65 4.34-1.6 1.11-3.57 1.91-5.92 2.41-2.35.49-5.02.73-8 .73h-14.9v-44.51H95v-4.58h18.35c2.62 0 4.89.17 6.82.5s3.66 1.02 5.18 2.05c1.62 1.03 2.82 2.39 3.61 4.07.78 1.68 1.18 3.5 1.18 5.46 0 2.74-.52 4.99-1.57 6.75s-2.62 3.13-4.71 4.11c2.77.73 4.99 2.03 6.67 3.92 1.68 1.91 2.52 4.64 2.52 8.2m222.57-40.1c45.21 0 76.44-29.63 82.24-35.57a1.72 1.72 0 0 1 2.4-.04c.66.63.69 1.68.06 2.34l-.02.02c-1.45 1.49-4.58 4.54-9.1 8.23a136.05 136.05 0 0 1-17.84 12.28c-8.26 4.76-16.85 8.52-25.54 11.19-10.58 3.25-21.41 4.89-32.2 4.89h-.89l.89-3.34h0z" fill="#f06c00"/><linearGradient id="A" gradientUnits="userSpaceOnUse" x1="79.263" y1="277.64" x2="185.776" y2="277.64"><stop offset="0" stop-color="#f06c00" stop-opacity="0"/><stop offset="1" stop-color="#f06c00"/></linearGradient><path d="M128.4 260.97c-8.56 1.95-16.18 4.44-22.67 7.39h0c-6.73 3.05-12.41 6.67-16.87 10.77h0c-4.68 4.29-7.8 9.2-9.03 14.19h0c-.34 1.41-.56 2.79-.56 4.13h0c0 .91.04 2.51 1.73 2.51h0c1.68 0 1.67-1.81 1.67-2.63h0c0-1.04.19-2.12.46-3.22h0c1.07-4.36 3.85-8.69 8.04-12.53h0c8.34-7.66 21.13-13.5 38-17.35h0c16.19-3.7 36.15-5.57 59.34-5.57h0c44.05 0 77.85 8.76 107.67 16.49h0c22.03 5.71 41.07 10.65 59.45 10.65h0 .5v-3.35h-.5 0c-17.95 0-36.78-4.88-58.59-10.54h0c-14.4-3.73-30.71-7.96-48.6-11.16h0c-20.49-3.66-40.1-5.44-59.93-5.44h0c-23.46.01-43.68 1.91-60.11 5.66" fill="url(#A)"/><path d="M403.56 183.1h-3.9c-.9 0-1.07.65-1.07 1.14 0 .99 2.48 3.44 2.48 6.8 0 3.43-1.32 4.66-1.32 5.72 0 .41.4.73 1 .73h1.73c3.88 0 8.26-14.39 1.08-14.39h0 0zm7.51 21.39c0-5.29 10.28-4.79 16.19-.81.51.33 1.15.65 1.57.65.83 0 1.33-.32 1.33-1.47v-2.67c0-.9-.25-1.72-1.25-2.11-10.68-4.39-24.98-2.03-24.98 9.42 0 12.92 20.71 10.24 20.71 17.24 0 5.58-9.79 6.18-16.84.82-.5-.41-.99-.66-1.57-.66-.81 0-1.3.33-1.3 1.47v3.17c0 .9.23 1.63 1.22 2.1 9.11 4.07 25.89 4.16 25.89-10.8 0-12.85-20.97-9.93-20.97-16.35h0 0zm17.85-6.4c.03.01.08.03.14.05-.04-.02-.08-.04-.14-.05h0zm.27.1c.07.03.12.04.15.05-.03-.01-.07-.02-.15-.05h0zm-223.17-2.47c-4.53 0-9.32 2.19-11.78 3.66l-.17-1.87c0-.57-.41-.99-.99-.99h-7.67c-.41 0-.82.42-.82.99v34.58c0 .57.41.99.82.99h7.91a.95.95 0 0 0 1-.99V204.2c1.57-.92 4.86-2.54 7.66-2.54 5.46 0 5.79 3.27 5.79 6.05v24.39c0 .57.41.99.81.99h7.93c.58 0 .99-.41.99-.99v-25.2c0-6.63-3.56-11.18-11.48-11.18h0 0zm151.29.6c-1.57-.41-2.56-.41-3.64-.41-4.57 0-8.27 3.74-9.84 6.01l-.17-4.38a.95.95 0 0 0-.98-.98h-7.65c-.41 0-.82.4-.82.98v34.45c0 .57.41.98.82.98h7.9a.95.95 0 0 0 .98-.98v-21.93c0-6.99 6.71-7.24 11.18-6.35 1.05.25 1.89.59 2.78.59.59 0 1.08-.59 1.08-1.14v-5.13c-.01-.8-.58-1.46-1.64-1.71h0 0zm0 0l.39.09-.39-.09h0zm-31.16.24h-7.87c-.41 0-.83.4-.83.98v23.64c0 5.29-1.63 8.13-6.75 8.13-4.18 0-6.66-2.35-6.66-6.18v-25.6a.94.94 0 0 0-.9-.98h-.08-7.89c-.41 0-.83.4-.83.98v23.72c0 9.1 8.21 12.52 16.36 12.52 8.22 0 16.43-3.42 16.43-13.49v-22.75a.94.94 0 0 0-.98-.97h0 0zm-154.67-13.81c-3.62 0-5.35 2.12-5.35 4.55 0 2.93 2.12 4.89 5.35 4.89 3.2 0 5.18-1.96 5.18-4.89-.01-2.43-1.74-4.55-5.18-4.55h0zm4.02 13.91h-7.89c-.41 0-.82.41-.82.96v34.46c0 .57.41.98.82.98h7.89a.94.94 0 0 0 .98-.9v-.08-34.47a.94.94 0 0 0-.92-.96c-.02.01-.04.01-.06.01h0 0zm94.92 32.95c-2.38 0-3.62-.42-4.43-.9-1-.66-1.15-1.38-1.15-2.1v-21.96c1.22-.89 3.37-2.51 6.34-2.51 7.47 0 8.23 9.59 8.23 12.99-.01 9.12-3.73 14.48-8.99 14.48zm5.19-33.48c-5.6 0-9.22 2.85-10.78 4.14V184.1c0-.56-.42-.97-.99-.97h-7.88c-.41 0-.81.41-.81.97v41.94c0 1.3.25 2.84 1.48 3.74 2.87 2.18 7.21 4.22 13.14 4.22 10.85 0 19.65-8.28 19.65-20.81 0-9.74-5.34-17.06-13.81-17.06h0 0zm-177.86-1.94c0-3.75 3.62-6.27 8.21-6.27 4.11 0 7.25 1.38 10.53 3.74.89.65 1.48 1.05 2.23 1.05.89 0 1.14-.57 1.14-1.3v-4.72c0-.72-.16-1.13-.9-1.47-2.81-1.05-7.73-2.1-13.14-2.1-10.94 0-16.86 6.66-16.86 14.22 0 16.43 25.63 13.02 25.63 24.14 0 6.75-9.85 11.46-21.27 3.58-1.08-.72-1.56-1.14-2.31-1.14-1.39 0-1.64.73-1.64 1.47v4.13c0 .73.16 1.13.98 1.63 13.81 6.43 33.46 2.68 33.46-13.65-.01-15.03-26.06-14.06-26.06-23.31h0 0zm52.27 30.88c0 1.06-2.8 3.89-6.59 3.89-4.35 0-5.99-3.07-5.99-6.16 0-4.4 3.45-8.47 12.58-8.47v10.74zm-5.43-29.42c-4.43 0-9.52.9-12.81 2.51-.9.49-1.24 1.21-1.24 1.96v3.65c0 1.13.9 1.63 1.39 1.63.98 0 1.72-.9 2.21-1.22 3.05-2.03 6.09-3.42 10.12-3.42 5.02 0 5.76 3.25 5.76 7.24 0 1.88-.66 2.35-7.81 3.25-4.37.58-14.31 2.51-14.31 11.38 0 7.32 5.91 11.21 12.82 11.21 3.78 0 6.9-1.63 9.53-3.9l.19 2.11c0 .57.4.97.81.97h7.48c.57 0 .99-.4.99-.97v-25.28c.01-6.57-3.53-11.12-15.13-11.12h0 0zm103.28 2.54c.04.01.09.03.13.05-.03-.01-.08-.02-.13-.05h0zm-18.13 6.3c0-5.29 10.27-4.79 16.19-.81.48.33 1.16.65 1.57.65.81 0 1.3-.32 1.3-1.47v-2.67c0-.9-.24-1.72-1.23-2.11-10.69-4.39-24.98-2.03-24.98 9.42 0 12.92 20.7 10.24 20.7 17.24 0 5.58-9.77 6.18-16.85.82-.49-.41-.98-.66-1.55-.66-.82 0-1.33.33-1.33 1.47v3.17c0 .9.25 1.63 1.25 2.1 9.1 4.07 25.88 4.16 25.88-10.8 0-12.85-20.95-9.93-20.95-16.35zm165.2-7.92h-3.77c-.58 0-1 .33-1.16.9l-8.14 21.94-.49 1.54-.5-1.54-8.37-21.94c-.25-.65-.58-.9-1.3-.9h-8.98c-.49 0-.74.25-.74.73 0 .24.09.48.42 1.3l14.96 34.21c-.17 6.02-5.93 8.07-12.41 6.27-.99-.25-1.65-.49-2.55-.49-.59.05-1.05.54-1.07 1.13v4.63c0 .83.58 1.46 1.63 1.7 1.42.42 2.38.42 3.46.42 6.34 0 12.25-4.4 14.31-9.67l15.11-38.45c.17-.5.34-.73.34-1.05 0-.41-.34-.73-.75-.73h0 0z" fill="#f06c00"/></svg>