<?xml version="1.0" encoding="utf-8"?>
<svg version="1.1" id="Layer_1" xmlns="http://www.w3.org/2000/svg" xmlns:xlink="http://www.w3.org/1999/xlink" x="0px" y="0px"
	width="100px" height="100px" viewBox="0 0 100 100" style="enable-background:new 0 0 100 100;" xml:space="preserve">
<g>
	<g>
		<path style="fill:#E8E8E8;" d="M50,0c27.62,0,50,22.38,50,50s-22.38,50-50,50S0,77.62,0,50S22.38,0,50,0"/>
		<path style="fill:#FFFFFF;" d="M50,1.02c27.05,0,49.02,21.94,49.02,49.02S77.08,99.05,50,99.05S1.02,77.05,1.02,50
			S22.95,1.02,50,1.02"/>
	</g>
	<g>
		<path style="fill:#0000FF;" d="M79.21,47.5c0.76,0,1.48,0.26,2,0.62v-1.74c-0.4-0.2-1.25-0.44-2.37-0.44
			c-2.74,0-3.87,1.66-3.87,3.76v9.78h2.73v-7.42h1.93v-1.57h-1.93v-1.24C77.71,48.24,78.26,47.49,79.21,47.5 M68.5,50.1
			c1.48-0.01,2.1,1.32,2.13,4.11c0.03,2.76-0.6,4.01-2.13,4.01s-2.12-1.25-2.12-4.01C66.38,51.32,66.97,50.11,68.5,50.1
			 M68.52,59.78c2.59,0,5.01-1.51,4.99-5.58c-0.02-4.1-2.2-5.69-4.99-5.66c-2.67,0.01-5.03,1.57-5.02,5.66
			C63.51,58.29,65.94,59.78,68.52,59.78 M32.3,56.44c0-1.24,1.19-1.86,2.39-2.21l1.38-0.35v3.33c-0.34,0.31-1.22,0.78-2.17,0.78
			C32.89,57.99,32.3,57.48,32.3,56.44 M36.27,58.72l0.19,0.75h2.57c-0.13-0.42-0.24-1.23-0.24-2.23v-5.29
			c0-3.12-2.32-3.41-4.37-3.41c-3.48,0-4.41,1.89-4.41,3.31l2.5,0c0-1.21,0.93-1.85,1.96-1.85c0.84,0,1.61,0.38,1.61,1.75v0.67
			l-3.23,0.78c-1.98,0.47-3.37,1.46-3.36,3.51c0.01,2.02,1.39,3.08,3.43,3.08c1.84,0,3-0.82,3.35-1.06 M22.71,58h-0.97v-4.88h0.97
			c1.51,0,2.57,0.7,2.6,2.33C25.31,57.09,24.5,58,22.71,58z M21.74,47.72h0.74c1.26,0,2.31,0.4,2.3,1.86c0,1.45-0.89,2.05-2.32,2.04
			h-0.72L21.74,47.72L21.74,47.72z M28.44,55.65c0-2.4-2.15-3.35-3.55-3.42c1.4-0.3,2.85-1.04,2.85-3.04c0-2.09-1.67-2.93-3.53-2.94
			h-5.44v13.24h4.85C26.25,59.49,28.44,58.25,28.44,55.65L28.44,55.65z"/>
		<path style="fill:#0000FF;" d="M46.91,52.71v6.77h2.71v-6.92c0-1.71-0.3-4.03-3.36-4.03c-1.44,0-2.66,0.81-3.07,1.07v-0.79h-2.71
			v10.66h2.71v-8.19c0.43-0.35,1.2-0.91,2.07-0.91C46.59,50.37,46.91,51.16,46.91,52.71 M51.32,46.23v13.24h2.73V46.24L51.32,46.23z
			"/>
		<path style="fill:#0000FF;" d="M56.87,53l3.45-4.17h-2.34l-3.93,4.68l3.04,5.98h3.36L56.87,53z M33.39,67.81
			c0.13-1.26,0.51-2.95,2.09-2.96c1.58,0,1.99,1.65,2.06,2.96H33.39z M35.48,63.29c-2.77,0-5,1.76-5.01,5.49
			c-0.01,4.33,2.27,5.76,5.01,5.76c2.16,0,4.26-0.95,4.83-3.9l-2.84-0.01c-0.16,1.38-0.67,2.34-1.99,2.34
			c-1.65-0.01-2.12-1.43-2.12-3.74h7.07c0.01-0.15,0.01-0.31,0.01-0.46C40.45,65.04,38.16,63.29,35.48,63.29L35.48,63.29z
			 M52.73,71.96c-0.34,0.31-1.22,0.79-2.16,0.79c-1.02,0-1.6-0.51-1.61-1.55c0-1.24,1.19-1.86,2.39-2.21l1.38-0.35L52.73,71.96
			L52.73,71.96z M55.45,66.7c0-3.12-2.33-3.41-4.37-3.41c-3.48,0-4.43,1.89-4.43,3.31l2.5,0c0-1.21,0.92-1.85,1.96-1.85
			c0.84,0,1.61,0.38,1.61,1.75v0.67l-3.21,0.79c-1.99,0.47-3.37,1.46-3.36,3.51c0.01,2.02,1.38,3.08,3.43,3.08
			c1.84,0,3-0.82,3.34-1.06l0.19,0.74h2.57c-0.13-0.42-0.24-1.23-0.24-2.23L55.45,66.7L55.45,66.7z M41.95,74.23h2.73V60.99h-2.73
			V74.23z M63.04,63.29c-1.44,0-2.66,0.81-3.07,1.07v-0.79h-2.71v10.66h2.71v-8.2c0.43-0.35,1.21-0.91,2.07-0.91
			c1.33,0,1.65,0.79,1.65,2.34v6.77h2.71v-6.92C66.4,65.6,66.11,63.28,63.04,63.29 M74.98,71.71c-0.2,0.35-1.07,1.17-1.98,1.17
			c-1.21,0-2.24-0.68-2.24-4.01c0.01-3.18,1.09-3.89,2.22-3.89c0.96,0,1.75,0.71,2,1.14L74.98,71.71L74.98,71.71z M74.98,64.3
			c-0.57-0.51-1.46-0.99-2.72-0.98c-1.64,0-4.38,0.93-4.39,5.56c-0.01,4.42,2.17,5.67,4.23,5.67c1.62-0.01,2.78-1.02,2.89-1.11v0.8
			h2.73V60.99h-2.73L74.98,64.3L74.98,64.3z M18.78,74.23h2.95V60.99h-2.95V74.23z M26.48,64.95v-1.38h-2.74l0,10.66h2.73v-6.09
			c0-2.62,2.28-2.79,3.58-2.74v-2.08C27.96,63.08,26.71,64.37,26.48,64.95 M58.87,25.45c0,2-8.77,2.22-8.77,4.38H49.9
			c0-2.16-8.77-2.37-8.77-4.38h-0.2v2.09c0,2.5,8.79,2.26,8.96,4.66h0.19c0.18-2.4,8.96-2.17,8.96-4.66v-2.09h-0.2H58.87z
			 M58.87,30.2c0,2-8.77,2.22-8.77,4.38H49.9c0-2.16-8.77-2.37-8.77-4.38h-0.2v2.09c0,2.5,8.79,2.26,8.96,4.66h0.19
			c0.18-2.4,8.96-2.17,8.96-4.66V30.2h-0.2H58.87z M58.87,34.94c0,2-8.77,2.22-8.77,4.38H49.9c0-2.16-8.77-2.37-8.77-4.38h-0.2v2.09
			c0,2.5,8.79,2.26,8.96,4.66h0.19c0.18-2.4,8.96-2.17,8.96-4.66v-2.09h-0.2H58.87z"/>
	</g>
</g>
</svg>
