<svg xmlns="http://www.w3.org/2000/svg" viewBox="0 0 148.69 33" xmlns:v="https://vecta.io/nano"><style><![CDATA[.Az{fill:#186fb2}.BA{fill:#2986c5}.BB{fill:#1e7cbc}.BC{fill:#2a91ce}.BD{fill:#1876b7}.BE{fill:#1a65ab}.BF{fill:#2ba0d9}.BG{fill:#2ea6de}.BH{fill:#67679a}.BI{fill:#8585ae}]]></style><path d="M20.83 31.79l3.8-1.27A9.17 9.17 0 0 1 21.24 32h-.42c-.05 0-.07-.08-.05-.12s.04-.09.06-.09z" fill="#9997bb"/><path d="M15.92.61a2.48 2.48 0 0 1 2-.33 16.94 16.94 0 0 1 8.65 3.49c.23.19.43.42.64.63A5.72 5.72 0 0 0 28.82 6a14.59 14.59 0 0 1 3.62 7.81 2.22 2.22 0 0 0 0 .89c.11 1.25.13 1.26-1.11 1.57a4.12 4.12 0 0 1-2.75-.1c-.45-.2-1 0-1.35-.33-.21-.55.07-1.08.09-1.62a7.22 7.22 0 0 0 .11-2.32 2.32 2.32 0 0 1-.13-.37.25.25 0 0 1 .07-.23c.41-1.17-.22-2.16-.62-3.15a12.08 12.08 0 0 0-5.23-5.73 8.88 8.88 0 0 0-4.8-1.38c-.34.01-.72.09-.8-.43z" fill="#bcb8d2"/><path d="M13.92 6.84a14.83 14.83 0 0 0-2.69-1.53c-.05-.36.28-.41.48-.57s.42-.2.33-.47-.32-.27-.53-.27-.51 0-.81-.1-.58 0-.56-.39c.25-.16.52 0 .77-.1-.29 0-.6-.08-.86.18a.5.5 0 0 1-.59-.5c0-.3.18-.47.4-.63s.46-.07.66-.18a9.74 9.74 0 0 1 5.65.48 20.57 20.57 0 0 1 5.2 2.8.26.26 0 0 1-.13.43 19.76 19.76 0 0 0-3.07 1.66.74.74 0 0 1-.6.08c-.4-.35-.06-.88-.32-1.26a8.25 8.25 0 0 0-1.58-2.13c-.23-.21-.44-.38-.57.08s.08 1.1-.1 1.58-.34 1.09-1.08.84z" fill="#1463a8"/><path d="M5.42 9.49A13.36 13.36 0 0 1 8.68 9a.18.18 0 0 1 0 .23c-1.49.49-2.07 1.83-2.68 3.05s-1 2.6-1.53 3.87c-.3.67-.16 1.1.58 1.3.2.05.42.11.4.4a2.24 2.24 0 0 1-.92.56 6.05 6.05 0 0 1-1.53.38c-.73 0-.9-.43-.91-1.05A14.38 14.38 0 0 1 3 12.42c.16-.46.24-.94.44-1.38.49-.73 1.34-1.04 1.98-1.55z" fill="#5e5d93"/><path d="M13.92,6.84c1-.19.93-.94.95-1.67,0-.32-.31-.71.15-1a.59.59,0,0,1,.73,0,3.83,3.83,0,0,1,1.6,2.24c.24.36.07.75.12,1.12a4.79,4.79,0,0,1-.38,1.79c-.29.61-.4,1.34-1.08,1.7a2.12,2.12,0,0,1-1.72-2.66A1.08,1.08,0,0,0,14,7.15Z" fill="#cecdde"/><path d="M17.23 26.35l-1.34-1.43c-.55-.59-.31-1 .27-1.43s1.24-1.11 1.92-1.59a1.85 1.85 0 0 1 1.22-.5 5.94 5.94 0 0 1 1.33 3 .8.8 0 0 1-.05.26 2.4 2.4 0 0 1-.78.67l-.76.4-1.1.55c-.36.19-.46.27-.71.07z" fill="#2aa5de"/><path d="M7.56 20.57l-1.65-.35c-.43-.48-.24-.85.2-1.18 1.11-.81 2.13-1.74 3.17-2.64a1.31 1.31 0 0 0 .4-.47 2.46 2.46 0 0 1 1-.76 8 8 0 0 0 1.25-.75.76.76 0 0 1 .62-.13c.4.19.83.33 1 .82a36.43 36.43 0 0 1-3.06 2.62A34.33 34.33 0 0 1 7.73 20c-.38.27 0 .18.09.23s.23.21.08.36-.23.04-.34-.02z" fill="#146caf"/><path d="M27.35 15.82a1.58 1.58 0 0 1 1.18.1 4.62 4.62 0 0 0 3.66-.12c.38-.14.24-.5.18-.78s-.27-.8.07-1.18a14.75 14.75 0 0 1 .17 3.81c-1.95.64-3.91 1.21-5.93.28a2 2 0 0 1 .67-2.11z" fill="#b6b4ce"/><path d="M15.51 27a.72.72 0 0 1 .56-.16l1.29.66a12.58 12.58 0 0 0 4.65.91c.9 0 1.79.13 2.69.21.26 0 .6 0 .66.34s-.21.42-.42.54l-.84.53a2 2 0 0 1-.51.26 3 3 0 0 0-1.28.5c-1.28.86-2.79.78-4.21 1a9.72 9.72 0 0 1-1.79 0 19.13 19.13 0 0 1-3.2-.46c-.35 0-.81-.14-.79-.69.35-.33.73-.14 1.1-.05a8.77 8.77 0 0 0 3.71.25 2.32 2.32 0 0 1 .58-.08 12.34 12.34 0 0 0 4.82-1.08 7.78 7.78 0 0 0-2.87-.58 20.16 20.16 0 0 1-3.81-1.07c-.71-.18-.75-.41-.34-1.03z" fill="#666698"/><path d="M31 23.62l-.19.38a.25.25 0 0 1-.22.08.34.34 0 0 1-.24-.26 1 1 0 0 1 0-.24 1.59 1.59 0 0 0 .24-.79c-.27-.42-.53-.05-.75.05a15.61 15.61 0 0 1-2.13 1 5.92 5.92 0 0 1-5.08-.6c-.17-.47.23-.67.44-1s.53-.57 1-.5a6.21 6.21 0 0 0 5.42-.07 3.82 3.82 0 0 1 1.19-.41c.35 0 .67 0 .82.4a4.21 4.21 0 0 1-.5 1.96z" fill="#9090b5"/><path d="M14,7.15c.79,0,.8.42.65,1A2.06,2.06,0,0,0,16,11c.07.1.12.24.05.33-.62.72-1,1.68-2.14,1.81a6.4,6.4,0,0,0-1-1.91,1.08,1.08,0,0,1-.2-1.12,2.39,2.39,0,0,0-.22-2.22Z" fill="#c4c2d9"/><path d="M9.76 16c0 .66-.63.77-1 1.09a32.08 32.08 0 0 1-2.62 2.17c-.37.29-.66.53 0 .75.06 0 .21.06 0 .14a1.28 1.28 0 0 1-.35.06A36 36 0 0 0 1.27 20c-.24 0-.54.11-.73-.18a4.66 4.66 0 0 1 2.74-.15c.4.05.11-.13.13-.19.2-.58.84-.78 1.11-1.29l.9-.38c.35-.57 1-.49 1.53-.81l.45-.22 1.2-.55.45-.19c.14-.07.46-.23.71-.04z" fill="#1864ab"/><path d="M9.35 21.13l-1.09-.36a.6.6 0 0 1 .1-.89l4.69-3.93a2.1 2.1 0 0 1 1.27-.39.91.91 0 0 1 .79.62 17.41 17.41 0 0 1-2.22 1.9 24.52 24.52 0 0 0-3.38 3.06s-.1.02-.16-.01z" fill="#1574b7"/><path d="M15.51,27c-.19.54.11.77.56.93a24.3,24.3,0,0,0,6,1.27c.36,0,.71.09.76.48s-.41.37-.64.45a12.83,12.83,0,0,1-4.45.89c.07-.52.53-.48.88-.57A8.62,8.62,0,0,0,20.3,30a.37.37,0,0,0-.43-.32c-1.82,0-3.43-.75-5.09-1.32A5.08,5.08,0,0,0,12.94,28a2.68,2.68,0,0,1-.85-.1.36.36,0,0,1-.18-.22c.07-.21.26-.27.45-.31.9.05,1.75-.4,2.65-.3Z" fill="#5e5d93"/><path d="M10.52 2.28a2.85 2.85 0 0 0-.55.28c-.49.4-.65.77.16.95h0c.46.31 1 .08 1.47.23.32.1.78 0 .86.48s-.36.55-.65.74-.48.08-.58.35c-.66-.28-1.33.17-2 0 0-.4-.34-.17-.5-.27-.43-.25-1-.34-1.11-.94a1.28 1.28 0 0 1 .7-1.35 4.53 4.53 0 0 1 2.2-.47z" fill="#bab7d1"/><path d="M32.44 19.11a3.5 3.5 0 0 1-.35 1.63H32c-.51-1.06-1.26-.89-2.11-.43a2.45 2.45 0 0 1-1.15.11h-1.36a3.76 3.76 0 0 1-2-.31c-.38-.73.17-1.08.59-1.49a1.41 1.41 0 0 1 1 0 4.51 4.51 0 0 0 4-.31c.76-.31 1.17-.06 1.47.8z" fill="#a5a4c5"/><path d="M21.24 32a14.08 14.08 0 0 1-6.93.69A16.24 16.24 0 0 1 4 27.09c.29-.28.59-.12.88 0A20.66 20.66 0 0 0 8.38 30a1.2 1.2 0 0 1 .24.15 14.36 14.36 0 0 0 6.77 2 16 16 0 0 0 4.61-.3 2.29 2.29 0 0 1 .9-.09.59.59 0 0 1 .34.24z" fill="#9b99bc"/><path d="M23.91 30l1.47-1-3.11-.22a17.5 17.5 0 0 1-5.72-1.15c-.39-.14-.22-.54-.48-.69a2.27 2.27 0 0 1 .95-.35.16.16 0 0 1 .25 0 2.73 2.73 0 0 0 1.74 1 14.15 14.15 0 0 0 7.28.12.65.65 0 0 1 .74.16.57.57 0 0 1-.23.71 7.5 7.5 0 0 1-2.36 1.57.52.52 0 0 1-.53-.15z" class="BH"/><path d="M12 14.57a3 3 0 0 1-1.26.75c-.21 0-.5 0-.55-.24-.39-1.61-1.35-3.2-.16-4.87a1.16 1.16 0 0 0 0-1.36 1 1 0 0 1-.21-.28 1.05 1.05 0 0 1 .73-.17c.52-.22.73 0 .78.51a3 3 0 0 1-.18 1.23 2.72 2.72 0 0 0 .18 2.86c.37.44.16 1.15.67 1.57z" fill="#8a87af"/><path d="M8.68 9.13V9l.53-.28a1.29 1.29 0 0 1 0 1.74 7.8 7.8 0 0 0-1.19 3.38c-.26.41-.41.81.13 1.12a.41.41 0 0 1 0 .36.83.83 0 0 0-.28.72c.14.51-.18.7-.57.85A1.23 1.23 0 0 1 6.26 15L8 10.62c.7-.27.29-1.07.68-1.49z" fill="#6c6c9d"/><path d="M32.44 19.11a1.1 1.1 0 0 0-1.76-.38 3.68 3.68 0 0 1-3.5.23 5.69 5.69 0 0 0-1.09-.22c-.09-.45 0-.79.51-.91a3.88 3.88 0 0 1 1.51.23A3.52 3.52 0 0 0 30.4 18a4.94 4.94 0 0 1 2.21-.34 2.8 2.8 0 0 1-.17 1.45z" fill="#aeacc7"/><path d="M25.33 20a6.9 6.9 0 0 0 2 .19 2.39 2.39 0 0 0 1.45 0 2.81 2.81 0 0 0 1.54-.32c.85-.52 1.26-.27 1.75.87a.57.57 0 0 1 0 .18c-.15.11 0 .54-.44.33-.23-.36-.45-.78-1-.5-1.93 1-3.95.79-6 .39-.23-.66.2-.92.7-1.14z" fill="#9e9cbe"/><path d="M14.3 15.69c-1.12.12-1.75 1-2.54 1.64l-3.15 2.63a.9.9 0 0 0-.35.81 1.17 1.17 0 0 1-.7-.2l.24-.09c-.77-.49 0-.81.2-1l4.61-3.84c.25-.2.53-.36.8-.54a.74.74 0 0 1 .89.59z" fill="#126fb3"/><path d="M22.27 6.25a3.05 3.05 0 0 1 .91.73c0 .19-.09.28-.23.32a22.43 22.43 0 0 0-3.41 1.76c-.6.31-1.26.59-1.37 1.4A1.36 1.36 0 0 1 17 9.31a2.35 2.35 0 0 1 1.08-1l3.11-1.79a1.59 1.59 0 0 1 1.08-.27z" fill="#156caf"/><path d="M23.55 7.32a5.09 5.09 0 0 1 1.16 1.06c-1.92.15-3.25 1.56-4.89 2.32-.4.18-.38.68-.76.84a1.11 1.11 0 0 1-.83-1 2.5 2.5 0 0 1 1.29-1.33l2.43-1.4a2.43 2.43 0 0 1 1.6-.49z" fill="#1574b7"/><path d="M11 21.82l-1.28-.54a16 16 0 0 1 3.09-2.84 14.48 14.48 0 0 1 1.89-1.5 2.33 2.33 0 0 1 1-.28.67.67 0 0 1 .62.61c-.64.57-1.38 1-2.05 1.56l-2.35 2c-.26.24-.57.42-.57.86.08.24-.11.31-.35.13z" fill="#1d7cbe"/><path d="M12.24 22.4a1.91 1.91 0 0 1-.82-.4c.15-.8.83-1.15 1.38-1.58 1-.76 1.82-1.64 2.8-2.38a1.93 1.93 0 0 1 1.13-.47.93.93 0 0 1 .77 1c-2.02.89-3.35 2.75-5.26 3.83z" fill="#2485c5"/><path d="M17.19 26.55h-.17l.21-.18.69-.18c.51-.2.94.11 1.37.27a9.2 9.2 0 0 0 8.24-.39c.4-.22.81-.56 1.34-.36.38.33 0 .6-.07.9-.26.38-.41.89-1 .91-.2-.09-.19-.51-.61-.26-1.65 1-3.49.81-5.28.78a9.73 9.73 0 0 1-4.41-1.16.69.69 0 0 1-.31-.33z" fill="#74719f"/><path d="M25.94 9.61l.52.59v.24c-2.05.86-3.85 2.19-5.85 3.14-.1.05 0 0-.09 0a.83.83 0 0 1-.62-.83 1 1 0 0 1 .55-.57l4.4-2.47a1.71 1.71 0 0 1 1.09-.1z" fill="#2384c5"/><path d="M12.47 7.84A1.32 1.32 0 0 1 13 9.76a1.35 1.35 0 0 0 .32 1.64 2.33 2.33 0 0 1 .63 1.72c0 .47-.36.56-.72.62a4.22 4.22 0 0 1-1.36-3.13A7.71 7.71 0 0 0 11.91 8a.73.73 0 0 1 .56-.16z" fill="#b1afca"/><path d="M20.44 13.49a50.21 50.21 0 0 1 6-3.29 1.41 1.41 0 0 1 .56.69.17.17 0 0 1-.12.27c-2 .47-3.48 1.85-5.24 2.73-.34.17-.24.71-.69.76a.9.9 0 0 1-.51-1.16z" fill="#268bc8"/><path d="M22.27,6.25A31.59,31.59,0,0,0,17,9.31q-.15.15-.18-.06c.33-.49.26-1.1.51-1.61.07,0,.11.16.21,0l3.8-2.12Z" fill="#1864ac"/><path d="M15.75 16.8c-1.65.46-2.65 1.85-4 2.79a25.25 25.25 0 0 1-2 1.69l-.41-.15c.22-.86 1-1.21 1.6-1.71a30.65 30.65 0 0 1 4.06-3.2c.5-.1.66.19.75.58z" fill="#1979b8"/><path d="M25.08 8.75l.71.72a4.64 4.64 0 0 0-2.85 1.06l-1.88 1.07a2.36 2.36 0 0 0-1.12 1c-.6 0-.75-.45-.8-.95a2.28 2.28 0 0 1 .49-.63l4.14-2.35a1.63 1.63 0 0 1 1.31.08z" fill="#1d7cbe"/><path d="M21 14.57c0-.61.45-.87.86-1.11l4.05-2.36c.36-.22.76 0 1.09-.21l.35.44a.76.76 0 0 0 0 .15c-.26.51-.85.32-1.26.59-1.59 1.07-3.36 1.86-5 2.93-.15-.09-.23-.23-.09-.43z" fill="#278fcd"/><path d="M14,23.45l-.56-.36c.18-.77.86-1.09,1.4-1.53a7.76,7.76,0,0,0,1.36-1.14,2.65,2.65,0,0,1,2-1,.76.76,0,0,1,.58.95,5.61,5.61,0,0,0-2.7,2A3.89,3.89,0,0,1,14,23.45Z" fill="#2193d0"/><path d="M12.24 22.4c.28-.6.89-.85 1.35-1.23l2.57-2.2a3.8 3.8 0 0 1 1.26-.48.42.42 0 0 1 .41.45c-1.14.73-2.1 1.7-3.19 2.51a9.93 9.93 0 0 0-1.48 1.49 2.51 2.51 0 0 1-.92-.54z" fill="#258bc8"/><path d="M16.66 17.65a8.14 8.14 0 0 0-2.26 1.67c-.61.63-1.33 1.1-2 1.67-.36.32-.65.7-1 1l-.4-.17c.11-.87.86-1.21 1.41-1.69l3-2.49c.28-.25.67 0 .89-.33.3-.08.4.06.36.34z" fill="#2083c1"/><path d="M14,23.45a6.49,6.49,0,0,1,1.81-1.15c.28-.11.59-.76.94-1.12a2.15,2.15,0,0,1,2-.82c.24,0,.26.18.26.37a.51.51,0,0,1-.26.34,34.43,34.43,0,0,0-3.61,2.87c-.09.07-.16.16-.29.09Z" fill="#2596d2"/><path d="M14.79 24l2.77-2.45c.41-.34.87-.61 1.31-.91a.5.5 0 0 1 .36.73c-1.2.67-2.11 1.73-3.25 2.45-.68.43.2.75-.09 1.07z" fill="#219dd8"/><path d="M.48 19.67a15.36 15.36 0 0 1 .45-8.34 1.43 1.43 0 0 1 1.23-.93c.25.38-.08.59-.24.86a14.34 14.34 0 0 0-1.08 4.33 7.88 7.88 0 0 0 .1 3.86.58.58 0 0 1-.46.22z" fill="#9d9bbd"/><path d="M19.9 12.63c-.15-.78.55-1 1-1.19a34.06 34.06 0 0 0 3.1-1.8 1.93 1.93 0 0 1 1.83-.17l.15.14c-1.61.37-2.87 1.41-4.28 2.17a5.84 5.84 0 0 0-1.69 1c-.12-.04-.14-.08-.11-.15z" fill="#2083c0"/><path d="M25.08 8.75a3.85 3.85 0 0 0-2.62.91 17.18 17.18 0 0 0-3.24 2c-.18 0-.26 0-.15-.18 0-.56.3-.81.75-1.05l2.63-1.55a2.42 2.42 0 0 1 2.26-.51c.13.13.29.25.37.38z" fill="#1979b8"/><path d="M13.16,22.94c0-.91.79-1.19,1.37-1.63,1.06-.81,1.89-1.94,3.22-2.4.38,0,.41.24.37.53-1.86.85-3.16,2.42-4.72,3.65Z" fill="#278fcd"/><path d="M23.55,7.32a50.27,50.27,0,0,0-4.44,2.43,3.73,3.73,0,0,0-.8.83c-.17.05-.25,0-.15-.18-.18-.7.16-.94.78-1.25A27.76,27.76,0,0,1,23.18,7Z" fill="#1370b3"/><path d="M12,14.57c-.37-.13-.72-.23-.58-.78a.81.81,0,0,0-.2-.66c-1-1-.61-2-.29-3.09A4,4,0,0,0,11,8.9c0-.42-.23-.5-.57-.5a1.08,1.08,0,0,1,.74-.18.18.18,0,0,1,.24,0,2.67,2.67,0,0,1,.07,2.18c-.2.8-.41,1.51.3,2.25.37.38.35,1.11.75,1.57a.21.21,0,0,1-.15.19Z" fill="#9694b8"/><path d="M4.88 27.28c-.31 0-.57-.32-.91-.19-.64-.79-.63-.81.37-1.08h.07c.07 0 .28 0 .41.05-.1-.06-.25 0-.33-.12a1.6 1.6 0 0 1 .91-.2h.13c.42 0 .76.11.82.59a1.12 1.12 0 0 0 .39.66.43.43 0 0 1 0 .4.61.61 0 0 1-.24.15 1.7 1.7 0 0 1-.71 0 3.89 3.89 0 0 1-.91-.26z" fill="#1964a9"/><path d="M.48 19.67l.39-.24a.71.71 0 0 1 .34-.3l.43-.18a2.12 2.12 0 0 1 .66-.21 1.59 1.59 0 0 0 .77-.18l1.45-.36c.27.65-.41.72-.68 1s-.51.48.11.63H.54a.25.25 0 0 1-.06-.16z" fill="#1763a8"/><path d="M11.4 8.24h-.19c.19-.21.46-.17.7-.19.59.17.31.71.35 1a5.62 5.62 0 0 1-.26 1.67 1 1 0 0 0 0 .69l1.14 2.27c0 .3-.13.41-.4.41a1 1 0 0 1-.68-.78v-.08a4.14 4.14 0 0 1-.44-3.9 1.23 1.23 0 0 0-.22-1.09z" fill="#a6a5c6"/><path d="M12.31 27.62l-.38.15a.87.87 0 0 1-1 .18.67.67 0 0 1-.32-.3 3.68 3.68 0 0 1 .11-1.4A.68.68 0 0 1 11 26a7.09 7.09 0 0 1 2.17.56 1.46 1.46 0 0 1-.86 1.06z" fill="#2697d3"/><path d="M8 13.85a4.61 4.61 0 0 1 .81-3 2.23 2.23 0 0 0 .44-2.15c.15-.16.35-.1.53-.12h.38a10.17 10.17 0 0 1-.93 3.05c-.23.51-.79.91-.37 1.62.19.32 0 .7-.52.74a.5.5 0 0 1-.34-.14z" fill="#75729f"/><path d="M24.45 30A10 10 0 0 0 27 28a.26.26 0 0 1 .35-.06.32.32 0 0 1 .09.23c-.18.61-.82.78-1.18 1.23l-.84.61a1.23 1.23 0 0 0-.78.52h0a14.38 14.38 0 0 1-3.75 1.35.37.37 0 0 1-.27-.07c0-.32.18-.42.42-.49 1.17-.32 2.25-.96 3.41-1.32z" fill="#8a86ae"/><path d="M8.32 2.75C7.4 4.23 7.71 4.78 9.65 5l-.42.31a4.91 4.91 0 0 1-2-.14.41.41 0 0 1 .31-.17c.18 0 .34.09.47.07-.06 0 .12 0 .07 0C7.11 4.83 6.7 4.29 7 3.29a2.35 2.35 0 0 1 1.32-.54z" fill="#a9a7c6"/><path d="M6.69 27.44v-.36c-.36-.9-.29-1 .62-1.35a15.25 15.25 0 0 1 2.34.06.09.09 0 0 1 .13 0c.05.38-.27.35-.49.42a3.37 3.37 0 0 1-.55 0c-1.07-.09-.58.83-.82 1.28a.42.42 0 0 1-.29.23 1.14 1.14 0 0 1-.26 0c-.23-.07-.5-.07-.68-.28z" fill="#126fb3"/><path d="M27.36 28.17V28c-.05-.41.32-.41.54-.54l.74-.9a1.31 1.31 0 0 0 .45-.7.93.93 0 0 1 .3-.5 1.84 1.84 0 0 0 .53-.58 2 2 0 0 1 .11-.2 1.1 1.1 0 0 1 .6-.56h.17a11.55 11.55 0 0 1-3.05 4.17.27.27 0 0 1-.39-.02z" fill="#9895ba"/><path d="M15.92.61A1.07 1.07 0 0 0 17 1a10.45 10.45 0 0 1 4.32 1c.16.06.48.1.24.42a13.32 13.32 0 0 0-5.18-1.29c-.32.02-.76.01-.46-.52z" fill="#b9b7d0"/><path d="M12.31 27.62c.39-.29.37-.92.9-1.08a6 6 0 0 1 1.8.57 6.75 6.75 0 0 1-2.7.51z" fill="#34a4dc"/><path d="M1.8 11.12c.1-.25.39-.4.36-.72a2.33 2.33 0 0 1 1.09-.4c.06.53-.49.69-.66 1.08a6.55 6.55 0 0 0-.94 2.56c-.12.33 0 .88-.63.83a9.42 9.42 0 0 1 .78-3.35z" fill="#8583ac"/><path d="M5.42 9.49c-.35.8-1.19 1-1.81 1.46-.14.19-.14.59-.56.4a.53.53 0 0 1-.13-.35 1 1 0 0 1 .78-.79c.27 0 .17-.24.26-.35a3.9 3.9 0 0 1 1.46-.37z" fill="#69699a"/><path d="M7,3.29A1.62,1.62,0,0,0,8.36,5.05c-.28.17-.54.06-.79.08-.32-.14-.69-.09-1-.26s-.26-.65-.26-1A1.36,1.36,0,0,1,7,3.29Z" fill="#9897bb"/><path d="M11,26l-.18.19c-.27.19-.27.5-.32.78s-.21.67-.67.64c-.73-.56-.71-1,.09-1.8A2.12,2.12,0,0,1,11,26Z" fill="#2987c7"/><path d="M10,25.79c-.12.55-.9,1.1,0,1.65.21.22.54-.09.73.18l.19.15c-.51.46-1.1.26-1.67.24a.81.81,0,0,1-.29-.12.33.33,0,0,1-.11-.26c.31-.5,0-1.16.43-1.64.2,0,.43,0,.55-.2Z" fill="#2083c1"/><path d="M31.7 21.28l.36-.36a6.43 6.43 0 0 1-1.06 2.7c-.06-.64.41-1.16.36-1.8.2-.12-.12-.59.34-.54z" fill="#a4a1c2"/><path d="M4,9.83c.13.22.09.38-.17.48a1.29,1.29,0,0,0-.73.63c-.1.14-.18.29-.39.27s-.22-.1-.15-.27c.09-.42.55-.55.73-.91A1,1,0,0,1,4,9.83Z" fill="#7773a1"/><path d="M9.65 25.79H7.22a3.23 3.23 0 0 1-1.77 0v-.06a12.38 12.38 0 0 1 4.2.06z" fill="#1b77b9"/><path d="M6.3 3.85c.38.21 0 .71.39.93a.22.22 0 0 1 0 .34c-.91-.31-.98-.55-.39-1.27z" fill="#807ca8"/><path d="M28.82,6A2.91,2.91,0,0,1,27.2,4.4,9.26,9.26,0,0,1,28.82,6Z" fill="#b7b5ce"/><path d="M27.36 28.17h.38a3.35 3.35 0 0 1-1.49 1.22c.11-.64.87-.7 1.11-1.22z" fill="#a3a1c2"/><path d="M24.63 30.52c0-.5.37-.57.78-.52a1.55 1.55 0 0 1-.78.52z" fill="#9997bb"/><path d="M6.69 5.12v-.34a2 2 0 0 1 .89.35h-.37z" fill="#8785ae"/><path d="M4.49 26h.71c-.39.17-.64.19-.86 0a.14.14 0 0 1 .15 0z" fill="#105ca5"/><path d="M25.33,20c-.22.38-.64.62-.73,1.09a.94.94,0,0,1-.69.73l-.73.59a.61.61,0,0,1-.36-.48c-.15-1.33-.58-2.61-.71-3.94-.09-1,.48-1.44,1.26-1.83,1-.5,1.93-1.12,2.89-1.68a1.42,1.42,0,0,1,1.27-.27l-.18,1.61-.75,2-.51.91Z" fill="#2aa5de"/><path d="M27.53 14.21c-1.79.59-3.22 1.84-4.9 2.63-.49.23.09.78-.35 1a1.72 1.72 0 0 1-.64-1.59A17.83 17.83 0 0 1 24 14.77a24.5 24.5 0 0 1 2.68-1.42 1 1 0 0 0 .61-1.18.68.68 0 0 1 .21-.48 3.89 3.89 0 0 1 .03 2.52z" fill="#239dd7"/><path d="M27.53,11.69v.52c-1.83.9-3.44,2.22-5.33,3-.35.14-.23.65-.65.65-.35-.23-.58-.5-.37-.94a4.72,4.72,0,0,1,2.19-1.57,23.42,23.42,0,0,0,2.82-1.66c.39-.25.79-.1,1.17-.23Z" fill="#2092d0"/><path d="M17.57 7.68l-.08.21-.13-.25V6.46c.47.34.08.83.21 1.22z" fill="#0a59a4"/><path d="M15.75 4.22H15c0-.14-.12-.31.12-.33s.59-.08.63.33zm-5.62-.71c.27-.31.59-.13.9 0z" fill="#105ca5"/><path d="M8.68 9.13c-.17.49.39 1.25-.54 1.45a17.8 17.8 0 0 0-2.37 5.21c-.16.58-.08.85.54.92.29 0 .68-.05.75.41-.46.43-1.11.43-1.64.7-.13-.17-.32-.14-.49-.17-.78-.16-1.07-.64-.76-1.38l1.67-4.41c.2-.53.83-.9 1.06-1.43a1.81 1.81 0 0 1 1.78-1.3zm-5.61 2.18c.28 0 .35-.25.54-.36a11.24 11.24 0 0 1-.7 2.49 15.38 15.38 0 0 0-.58 4.42c0 .57.22.76.74.7a1 1 0 0 1-.74.35.75.75 0 0 1-.76-.78 12.35 12.35 0 0 1 1.5-6.82z" fill="#646496"/><path d="M30.44 23.63v.18c-.1.31-.23.61-.36.91h0a1.56 1.56 0 0 1-.25.17 3.16 3.16 0 0 0-1.57.78A6.91 6.91 0 0 1 25 26.89a10.24 10.24 0 0 1-5.08-.48c-.41-.16-.8-.3-.91-.78a1.09 1.09 0 0 1 .7-.38 1.59 1.59 0 0 1 1.38 0 8.16 8.16 0 0 0 7.68-1.09c.47-.44.89-1.02 1.67-.53z" fill="#7b7ba5"/><path d="M19 25.63a5.49 5.49 0 0 0 3.34 1c1.35.09 2.77.33 4-.49a2.18 2.18 0 0 1 .87-.19c.34 0 .73-.09.86-.39a1.54 1.54 0 0 1 1.76-.88c.1.35-.27.47-.37.72l-.34.37c-.07.09-.13.08-.19 0a1.89 1.89 0 0 0-1.41.47c-2.44 1.5-5 1.41-7.64.72a7 7 0 0 1-2-.83 2.29 2.29 0 0 1 1.12-.5z" fill="#7976a4"/><path d="M30.44 23.63a1.29 1.29 0 0 0-1.45.73 15.12 15.12 0 0 0-2 .82c-2.15 1.05-4.21.52-6.28-.21a.47.47 0 0 1-.25-.25.49.49 0 0 1 0-.12l1.26-.78q1.07.16 2.1.42c2.06.49 3.82-.26 5.55-1.19.45-.24.9-.55 1.41-.14.04.31-.01.59-.34.72z" class="BI"/><path d="M20.47 24.72a16.81 16.81 0 0 0 4.09.84 6.92 6.92 0 0 0 3.39-1 2 2 0 0 1 1-.23 8.48 8.48 0 0 1-8.22 1.05 3.49 3.49 0 0 0-1.06-.16 1.78 1.78 0 0 1 .8-.5z" fill="#847da8"/><path d="M9.05 11.67a2.25 2.25 0 0 1 .4-1.23 1.07 1.07 0 0 0 .22-1.15c-.25-.5.3-.46.45-.69a1.58 1.58 0 0 1 0 1.85A3.45 3.45 0 0 0 9.66 13c0 .11 0 .26.09.33a1.67 1.67 0 0 1 .56 1.67c0 .06.24.2.38.3l-.93.7-.71.21c-.28-.46.09-.72.3-1s.42-.44.09-.6c-1-.53-.53-1.38-.49-2.12a7 7 0 0 0 .1-.82z" fill="#807ba7"/><path d="M24.45,30A7.77,7.77,0,0,1,22,31.15c-.46.14-1,.13-1.33.64A17.42,17.42,0,0,1,8.32,30.16h0a23.28,23.28,0,0,1-2.23-2.1c-.13-.19-.39-.31-.31-.61h.71c.29.19.64,0,.93.16v0a.46.46,0,0,1,.11.22,5.59,5.59,0,0,0,2.59,2.28,12.44,12.44,0,0,0,5.76,1.56c.15,0,.31,0,.43-.09a18.55,18.55,0,0,0,4.81-.49,2.13,2.13,0,0,0,1.17-.6,4.62,4.62,0,0,0,1.27-.36l.36-.18Z" fill="#7875a3"/><path d="M12.85 27.8c1.18-.1 2.17.51 3.24.82a9.53 9.53 0 0 0 3.45.82 5.77 5.77 0 0 1 .72 0c.4 0 .36.33.42.58s-.19.27-.37.33a11.17 11.17 0 0 0-2.56.71h-.54a11.78 11.78 0 0 1-3.45-.26.73.73 0 0 1-.58-.37c.2-.42.57-.3.86-.22a8.17 8.17 0 0 0 4.22-.1c-1.52-.39-3-1.05-4.47-1.43a3.1 3.1 0 0 1-1.11-.37c-.45-.31-.02-.38.17-.51z" fill="#5c5b8f"/><path d="M13.22 30.34a3.51 3.51 0 0 0 1.85.53 11 11 0 0 1 2.14.2 7.06 7.06 0 0 1-3.76-.15 3.44 3.44 0 0 0-1.14-.22h-.13a8.69 8.69 0 0 1-3.32-2.21c-.28-.29-.32-.58.19-.7h1.82 1.06 0c0 .31-.21.3-.4.36s-.54 0-.59.28.22.49.45.62l1.47.87a.71.71 0 0 1 .36.42z" fill="#5c5b90"/><path d="M16.3 31.61a3.29 3.29 0 0 1-2.3.09 20 20 0 0 1-3.75-1.2 9.46 9.46 0 0 1-3-2.45c-.17-.19 0-.23.19-.25.52 0 .77.4 1.07.7a9.41 9.41 0 0 0 3.82 2.2h0a.75.75 0 0 0 .73.44 20 20 0 0 0 3.24.47z" fill="#6f6e9e"/><path d="M23.55 30.16c-.34.41-.81.36-1.27.36a2.7 2.7 0 0 1 1.27-.36z" class="BH"/><path d="M23.91 21.82a2 2 0 0 1 .69-.73c.56-.38 1.13-.06 1.65.06a6.16 6.16 0 0 0 4-.51l.16-.08c.94-.42 1.13-.31 1.28.72l-.36.54c-.22-.6-.66-.42-1-.23a7.81 7.81 0 0 1-4.54.95 3.41 3.41 0 0 1-1.88-.72z" fill="#9996bb"/><path d="M30.8 22.91A4.44 4.44 0 0 0 28 24a5.84 5.84 0 0 1-4.2.5c-.7-.11-1.54.07-2.07-.63l.87-.75a7.43 7.43 0 0 0 4.17.74 7.59 7.59 0 0 0 2.51-1l1-.48c.18-.09.38-.27.58-.11s.01.42-.06.64z" fill="#8b87af"/><path d="M30.07,24.72a1.09,1.09,0,0,1,.36-.91l.19.19Z" class="BI"/><path d="M7.06 17.12c-.29-.33-.68-.15-1-.19-.52-.06-.81-.33-.63-.85a29.84 29.84 0 0 1 1.29-3.5 4.54 4.54 0 0 1 1.44-2A40.14 40.14 0 0 1 6.51 15c-.35 1-.12 1.52.91 1.76.1.06.1.13 0 .2a.4.4 0 0 1-.36.16z" class="BH"/><path d="M9.05 11.67c.55.55 0 1.11 0 1.64s0 .89.59 1.07.52.41.06.75a1.64 1.64 0 0 0-.61 1.09.36.36 0 0 1-.37.15l-.3-1.12a.67.67 0 0 1 .52-.61c-.24-.05-.5-.05-.66-.29a.43.43 0 0 1 .08-.5c.46-.06.45-.44.33-.68a1.15 1.15 0 0 1 .36-1.5z" fill="#7975a3"/><path d="M8.5 15.3a1.09 1.09 0 0 1 .18 1.07 3 3 0 0 1-1.26.63v-.2c.42-.21.4-.6.3-.95s0-.53.42-.5a.23.23 0 0 1 .36-.05z" fill="#736e9e"/><path d="M13.22 30.34l-2-1.09c-.37-.21-.73-.58-.64-1s.61-.22 1-.28a2 2 0 0 0 .4-.17h.9c-.18.2-.32.35.11.42 1.83.33 3.5 1.24 5.33 1.57a.91.91 0 0 1 .65.45 9.46 9.46 0 0 1-4.31.36 4.88 4.88 0 0 0-1.44-.26z" fill="#54558c"/><path d="M28.8,20.19a1.36,1.36,0,0,1-1.45,0Z" fill="#a79ebf"/><path d="M8.32 30.16a4.42 4.42 0 0 1 1.54.5l3.44 1.23a3.5 3.5 0 0 0 .8.08 38.62 38.62 0 0 0 6.54-.18h.19a1.09 1.09 0 0 1 0 .18 21.18 21.18 0 0 1-5.08.46A12.24 12.24 0 0 1 9.86 31c-.52-.24-1.21-.23-1.54-.84z" fill="#8c8bb2"/><path d="M5.78 27.45a14.13 14.13 0 0 0 2.27 2.17c.18.12.48.21.27.54a10.86 10.86 0 0 1-3.44-2.88 1.35 1.35 0 0 1 .9.17z" fill="#9391b6"/><path d="M27.89 27.44c-.07.29-.4.31-.54.54H27a.4.4 0 0 0-.48-.17 14.15 14.15 0 0 1-7.53 0c-.63-.15-1.12-.57-1.73-.74-.31-.09-.12-.34-.06-.53a23.27 23.27 0 0 0 3.51 1.16 18.1 18.1 0 0 0 3.68 0 6.32 6.32 0 0 0 3.54-1.17c.22.47-.44.6-.04.91z" fill="#6b6c9d"/><path d="M8.32,13.85v.54c.12.24,0,.4-.18.54-.75-.23-.78-.4-.18-1.08Z" fill="#736e9d"/><path d="M8.14,14.93l.18-.54c1.28.06.1.61.18.91H8.14Z" fill="#75729f"/><path d="M29 25.81h.19c0 .39-.1.69-.55.73-.05-.32.24-.48.36-.73z" fill="#7c7aa6"/><g fill="#8b8ab1"><path d="M1.25 19.28l-.38.15a4.67 4.67 0 0 1-.16-3.77l.1.09c.25 1 .11 2.12.4 3.15a.4.4 0 0 1 .04.38z"/><path d="M1.8,11.12c-.16,1.17-.76,2.25-.73,3.45a.59.59,0,0,1,0,.13c0,.35.2.82-.38,1h0A9.23,9.23,0,0,1,1.8,11.12Z"/></g><path d="M12.84 14l-.35.21c-.37-.24-.8-.42-.65-1a.64.64 0 0 0-.23-.55c-.83-.47-.64-1.22-.44-1.84a5.67 5.67 0 0 0 .23-2.55 1.38 1.38 0 0 1 .38 1.73 2.23 2.23 0 0 0 .22 2.44c.44.42.23 1.2.84 1.56z" fill="#9d9cbe"/><path d="M5.45 25.84h1.77c-.66.21-.52.76-.53 1.26-.24 0-.56 0-.52-.33.08-.61-.29-.77-.72-.93z" fill="#1764ab"/><path d="M7.42 27.61c-.31 0-.66.12-.93-.16h.2c.25.01.53-.09.73.16z" fill="#1f70b1"/><path d="M3.07,11.31c.25.45-.2.71-.34,1a17.65,17.65,0,0,0-1,3.93c-.13.83-.42,1.95.57,2.64l-.71.2a5.08,5.08,0,0,1-.51-2.73,13.76,13.76,0,0,1,.62-2.9,3.17,3.17,0,0,0,.41-1.2,1.72,1.72,0,0,1,.07-.21,2.67,2.67,0,0,0,.24-.74c0-.11.17-.14.25-.2l.36-.19Z" fill="#6a6b9c"/><path d="M2.34 12v.18c-.35.35-.26.89-.54 1.27a1.35 1.35 0 0 1-.13 1.2A5.16 5.16 0 0 0 1.48 18c.1.38-.15.78.14 1.12a.41.41 0 0 1-.37.17l-.17-.18a11.7 11.7 0 0 1 0-4.53h0a11.73 11.73 0 0 0 .74-2.45c.16-.44.2-.95.71-1.18l.18.19-.18.18c-.14.21-.08.48-.19.68z" fill="#7673a1"/><path d="M10.68 27.62c-.25 0-.53.09-.73-.18.45-.06.37-.4.36-.68s.12-.63.55-.59a2.86 2.86 0 0 1-.18 1.45z" fill="#258bc8"/><path d="M12.31 30.7a6.45 6.45 0 0 1-3.77-1.86l-1.12-1v-.16h.37c.41-.25.75-.06 1.09.16h.18c-.39.27-.18.46 0 .69a18.44 18.44 0 0 0 3.25 2.17z" fill="#636598"/><path d="M8.87 27.78a2.68 2.68 0 0 1-1.09-.16 4.09 4.09 0 0 0 0-.7c-.1-.72.17-1.05.91-.93a2 2 0 0 1 .19 1.63.86.86 0 0 0-.01.16z" fill="#1b77b9"/><path d="M8.87 27.62c-.37-.51-.1-1.09-.19-1.63h.55c-.16.53.36 1.22-.36 1.63z" fill="#1c7cbe"/><path d="M29.52 25.44c0-.31.27-.47.37-.72h.18a.81.81 0 0 1-.55.72z" class="BI"/><path d="M21.72 16.21a.4.4 0 0 1-.15-.38 1.34 1.34 0 0 1 .79-.92l4.17-2.44a1.85 1.85 0 0 1 1-.26c.25.88-.4 1.27-1 1.55a14.15 14.15 0 0 0-3.39 1.91c-.4.33-.96.33-1.42.54z" fill="#2596d2"/><path d="M1.07 14.57a40.27 40.27 0 0 0 0 4.53 9.3 9.3 0 0 1-.37-3.44c.39-.28-.01-.81.37-1.09z" fill="#8583ac"/><path d="M1.8 13.48c0-.48-.07-1 .54-1.27-.14.45.03 1.02-.54 1.27zM2.34 12a.51.51 0 0 1 .18-.72.51.51 0 0 1-.18.72z" fill="#7773a1"/><path d="M39.32 22.15q0-6.6 0-13.2c0-.49-.18-1 .65-1.1s1.67.22 1.79 1a12.11 12.11 0 0 1 .07 1.71v2.61a6.87 6.87 0 0 1 4.11-.79 4.76 4.76 0 0 1 4.43 3.54 8.4 8.4 0 0 1 .21 4.28c-.31-.65-.85-.66-1.41-.46s-.78 0-.79-.62a3.52 3.52 0 0 0-.15-1.82l-.21-.7a2.71 2.71 0 0 0-2.67-2.14c-1.8-.11-2.91.44-3.51 1.76a25.28 25.28 0 0 0 0 6l.12.34c-.39 0-.46-.22-.42-.51.11-1-.39-.93-1.14-.83s-.87.46-1.08.93zm23.54-4.53V18c-1-.81-1.73-.76-2.35.18v-1.07c0-2-.39-2.42-2.43-2.57a8.18 8.18 0 0 0-1 0 2.33 2.33 0 0 0-2.33 1.88l-.23 1.05c-.35.63 0 1.33-.27 2 0-.57-.33-.6-.73-.6A1.31 1.31 0 0 0 52 20.16a7.64 7.64 0 0 1 .46-4.95 4.68 4.68 0 0 1 4.23-2.8 10.52 10.52 0 0 1 5.55 1 1 1 0 0 1 .68 1.12l-.06 2.9h-.06a.52.52 0 0 0 .06.19z" class="BE"/><path d="M148.57 12.53q0 5.53 0 11a.58.58 0 0 1-.56.67 16.48 16.48 0 0 1-7.26.17 4.12 4.12 0 0 1-3.21-3c-.06-1.1.63-1.3 1.52-1.26.42 0 .45-.29.48-.6.34 1.53 1.07 2.73 2.76 2.92a22 22 0 0 0 2.81 0c.58 0 .81-.27.8-.9v-5.61c.3.52.07 1.08.16 1.62v4.51h.16v-3.34c2.19 0 2.19 0 2.17-1.64v-4.53z" class="BG"/><path d="M148.44 12.54v4.53l-2.33.53c-.09-.54.14-1.1-.16-1.62a2.18 2.18 0 0 0-.93-1.06 3.39 3.39 0 0 0-5.34 2.44c0 .21-.08.42-.12.62s-.12.13 0 .19v.74h-1.43c-.48 0-.85.17-.91.72a6.84 6.84 0 0 1 1.2-5.43l3.18-.5a31.17 31.17 0 0 1 4.18-.6c.14 0 .28 0 .34-.16a12.39 12.39 0 0 1 2.35-.38z" class="BC"/><path d="M91.52 12.36a7.48 7.48 0 0 1 4.35 1.46v1.08c-2 0-2 0-2 2v.18c-.09.71.18 1.46-.17 2.15v-1.52a6.35 6.35 0 0 0-.18-2.45 6.11 6.11 0 0 0-1.76-.65c-2.16-.33-3.33-.06-4 1.93a1.43 1.43 0 0 0-1-.09c-.5.09-1 .32-1.53-.08a4.54 4.54 0 0 1 3.48-3.81 5.78 5.78 0 0 0 2.81-.2z" class="Az"/><path d="M62.87 20.7v3.08c0 .5-.19.64-.64.6a5.77 5.77 0 0 0-.72 0c-.95 0-.95 0-1.22-1a4.44 4.44 0 0 1-4.66 1.17A3.49 3.49 0 0 1 53.22 23a.85.85 0 0 1 .8-.88A7 7 0 0 1 55.6 22h0c0 .07-.07.34.18.14a3.9 3.9 0 0 0 4.68-1.09c.84-.05 1.54-.47 2.41-.35z" class="BD"/><path d="M109.28 16.34a4.77 4.77 0 0 1 4.12-4 6.92 6.92 0 0 1 3.82.4 2.85 2.85 0 0 1 1 .7 1.11 1.11 0 0 1 0 1.62c-.43.52-.77.4-1.28 0a4 4 0 0 0-3.55-.44c-.94.26-1.25 1.06-1.57 1.85l-.34.62c0-.51-.23-.67-.63-.61l-1 .18c-.3.08-.62.12-.57-.32z" class="BB"/><path d="M70.14,16.2a5,5,0,0,1,5.51-3.94,5.39,5.39,0,0,1,3.23,1,1.15,1.15,0,0,1,.06,1.93.64.64,0,0,1-1,.05,4.08,4.08,0,0,0-3.45-.65A2.38,2.38,0,0,0,72.83,16a1.68,1.68,0,0,0-2.69,1.16Z" class="BE"/><path d="M105.1 24.68c0-.36.05-.73.07-1.09.22-.65.19-.73-.24-.74-1.09 1.19-2.53.93-3.89.86a3.41 3.41 0 0 1-2.1-.73c0-.49 0-.86.68-.87.37 0 .75-.14 1.14-.14s.79 0 .91-.52a5 5 0 0 0 2.71-.38c1.1.11 2.18-.25 3.28-.19v3.44zm-2-3a1.24 1.24 0 0 0-.91 0 1.24 1.24 0 0 0 .9.03zm-7.24-6.78v-1.08c.19.14.16.49.16.75v9c0 .68-.19.95-.87.85a2.89 2.89 0 0 0-.72 0c-.69.1-1-.15-.92-1a5 5 0 0 1-6.38.49.64.64 0 0 1 .62-.74 7.71 7.71 0 0 1 1.59-.22c.28 0 .64.11.71-.34a5 5 0 0 0 2.51-.6c.49.55 1 0 1.5 0 1.82-.06 1.82-.09 1.77-1.82v-1.8a.49.49 0 0 0 0-.17V15.8a.86.86 0 0 0 0-.16z" class="BC"/><path d="M64.34 22v-5.33c0-2.66 1.39-4.13 4-4.33a3 3 0 0 1 .9 0c.48.11 1.2-.21 1.39.44s-1 1.55-1.61 1.59c-1.23.07-1.57.33-2 1.47-.36.63-.08 1.32-.18 2-.4-1.24-.39-1.17-1.51-1-.78.14-.86.56-.83 1.2v2.16c0 .72.2 1.2-.16 1.8z" class="BE"/><path d="M111.63 19.07c.24.6.09 1.3.42 1.88a3.12 3.12 0 0 0 4.52 1.05c1-.7 1.43-.27 1.92.49a13.82 13.82 0 0 0-2.31.24l-3.52.65a1.14 1.14 0 0 0-1.07.59 4.79 4.79 0 0 1-2.5-4.37 4.6 4.6 0 0 1 2.54-.53z" class="BC"/><path d="M130.14 22v1.08c0 1.51.2 1.28-1.36 1.33-.66 0-1.23 0-1.06-1.27a4.22 4.22 0 0 1-4.36 1.54 3.89 3.89 0 0 1-2.55-1.21 10.55 10.55 0 0 1 3.06-.57 4.72 4.72 0 0 0 1.86-.18 9.92 9.92 0 0 1 4.41-.72z" class="BG"/><path d="M49.67 22.57a4.07 4.07 0 0 1-2.93 1.91 15.6 15.6 0 0 1-7.06-.33 3 3 0 0 1 1.67-.75c.45-.11 1.07-.06 1.24-.71h.35a3.7 3.7 0 0 0 2.54 0h.17c.17 0 .32 0 .36-.24l.36-.17c.91.27 1.76-.19 2.66-.22.47-.01.58.14.64.51z" class="BD"/><path d="M81 16.54v-7.4A1.08 1.08 0 0 1 81.64 8a2.33 2.33 0 0 1 1.76 0c.25.1.19.35.19.55v5.23h-1.21c-1.1 0-1.16.09-1.2 1.16-.02.56.21 1.12-.18 1.6z" class="BE"/><path d="M131.59 17.25c-.44-4.14 2.7-5.42 5.84-4.86.41.07.6.19.34.65-.42.74-.76 1.44-1.85 1.36s-1.48.66-1.65 1.59l-.16.18c-.93.14-2.11-.17-2.52 1.08z" class="BA"/><path d="M107.28 26a3.85 3.85 0 0 1-3.5 2.66 11.28 11.28 0 0 1-5.74-.7c0-.48.29-.61.67-.68a16.47 16.47 0 0 1 3.57-.38 5.69 5.69 0 0 0 2.24-.52 4.57 4.57 0 0 1 2.76-.38z" class="BG"/><path d="M119.81 15.1a4.46 4.46 0 0 1 3.82-2.74 9 9 0 0 1 5.57 1 28.44 28.44 0 0 1-2.89.45c-.78.06-.58.38-.36.8l-.36-.06a2 2 0 0 0-1.62 0l-.34.06a4.5 4.5 0 0 0-1.11-.09 10.38 10.38 0 0 0-2.71.58zm-22.3 5.23a36.15 36.15 0 0 1 0-6.9V15c.52-.36 1.06-.12 1.52-.29s.67.07.67.55v2.57h.18v-5a22.24 22.24 0 0 1 .1 3.74v2.78c-.23.18-.46 0-.69 0-.83-.11-1.6-.05-1.78.98zm2.3-1.8v-.07.06.08z" class="BB"/><path d="M120 22.34a7.4 7.4 0 0 1-.78-5.05c.87.44 1.73-.09 2.6 0a7.57 7.57 0 0 0 .72 4.36c-.15.19-.38.11-.56.18-.68.22-1.47-.1-1.98.51z" class="BC"/><path d="M64.34 22c.36-.57.09-1.21.18-1.8h.54c1.85 0 1.85 0 1.78-1.83a.76.76 0 0 0 0-.15v-.4c.1-.65-.18-1.34.18-2v7.78c0 .63-.16.83-.8.83-2 0-2 0-1.92-1.91a4.9 4.9 0 0 1 .04-.52z" class="BB"/><path d="M79.65 22.87c.24.51-.26.61-.5.79a6.71 6.71 0 0 1-7.21 0c0-.51.37-.39.69-.47 1.27-.33 2.61-.23 3.88-.53a8 8 0 0 1 2.65-.36h0c.01.39.11.61.49.57z" class="BA"/><path d="M120 22.34c.54-.61 1.33-.29 2-.54.18-.07.41 0 .56-.18a3.24 3.24 0 0 0 3.68.57 2.22 2.22 0 0 0 1.59-2.58l2.36-.18V22a9.92 9.92 0 0 0-4.38.72 4.72 4.72 0 0 1-1.86.18 10.55 10.55 0 0 0-3.06.57 2.15 2.15 0 0 1-.89-1.13zM111.59 24a1.14 1.14 0 0 1 1.07-.59c1.19-.1 2.33-.48 3.52-.65a13.82 13.82 0 0 1 2.31-.24h0l.13.13v.06l.12.12c.19.57-.33.72-.62.89a6.63 6.63 0 0 1-6.53.28z" class="BF"/><path d="M126 14.56c-.22-.42-.42-.74.36-.8a28.44 28.44 0 0 0 2.89-.45 1.17 1.17 0 0 1 1 1.44c-.07.71 0 1.43-.05 2.14a23 23 0 0 0-2.35-.18c-.09-1.56-.09-1.56-1.59-2a1.79 1.79 0 0 1-.26-.15zm-18.34 6.32c-1.1-.06-2.18.3-3.28.19a3.13 3.13 0 0 0 .76-2.25V14.3a1.9 1.9 0 0 1 .15-1.05v3.27 2.33c.28-1.71.54-1.88 2.26-1.42h.09z" class="BA"/><path d="M70.14 16.2v.94A1.68 1.68 0 0 1 72.83 16a11.93 11.93 0 0 0-.36 3.09c-.9.07-1.87-.15-2.53.73a7 7 0 0 1 .2-3.62zm10.86.34c.4-.48.17-1 .19-1.56 0-1.07.1-1.15 1.2-1.16h1.17v3.27h-.18c-2 0-2.19.21-2.18 2.18v3.43H81zM55.6 22a7 7 0 0 0-1.58.16.85.85 0 0 0-.8.88.09.09 0 0 1-.12-.09l-.17-.23a4.25 4.25 0 0 1-.93-2.56 1.31 1.31 0 0 1 1.51-1.27c.4 0 .74 0 .73.6.26-.72-.08-1.42.27-2v1A4.73 4.73 0 0 0 55.6 22z" class="Az"/><path d="M131.59 17.25c.44-1.3 1.59-.94 2.52-1.08v3.16c0 .19.15.58-.28.49-.76-.15-1.48.21-2.23.15z" class="BC"/><path d="M97.51 20.33c.18-1 .95-1.09 1.77-1.08.23 0 .46.19.69 0 .25 1 .52 1.93 1.7 2.19-.12.5-.52.51-.91.52s-.77.13-1.14.14c-.66 0-.71.38-.68.87a3.24 3.24 0 0 1-1.43-2.64z" class="BA"/><path d="M107.28 26a4.57 4.57 0 0 0-2.76.38 5.69 5.69 0 0 1-2.24.52 16.47 16.47 0 0 0-3.57.38c-.38.07-.7.2-.67.68-.63-.13-.21-.51-.14-.74.38-1.29.39-1.29 1.67-1a13.28 13.28 0 0 0 2.66.35c1.72 0 2.24-.3 2.87-1.85l2.55-.36a2.62 2.62 0 0 1-.37 1.64z" class="BF"/><path d="M85.18 16.37c.48.4 1 .17 1.53.08a1.43 1.43 0 0 1 1 .09l-.18 2.68v.18c-.89-.29-1.65.26-2.48.39a7 7 0 0 1 .13-3.42zm20.13.15v-3.27a1.86 1.86 0 0 1 2.18-.68c.24.12.24.32.24.53v2.71c-.87.19-1.84-.18-2.42.71z" class="BD"/><path d="M121.79 17.26c-.87-.06-1.73.47-2.6 0a4.34 4.34 0 0 1 .62-2.19 10.38 10.38 0 0 1 2.71-.63 4.5 4.5 0 0 1 1.11.09 3.13 3.13 0 0 0-1.84 2.73z" class="BA"/><path d="M69.94 19.8c.66-.88 1.63-.66 2.53-.73l.59 2.48a1 1 0 0 1-1 .42 2.19 2.19 0 0 0-1.35.35 4.78 4.78 0 0 1-.77-2.52z" class="BD"/><path d="M62.87,20.7c-.83-.12-1.57.33-2.38.35l0-2.16.06-.05a.33.33,0,0,0-.07-.13v-.55c.62-.94,1.33-1,2.35-.18Z" class="Az"/><path d="M90.07 22.53c-.07.45-.43.37-.71.34a7.71 7.71 0 0 0-1.59.22.64.64 0 0 0-.62.74 3.78 3.78 0 0 1-1.77-2.41 2 2 0 0 1 2.62-.36 2.8 2.8 0 0 0 2.07 1.47z" class="BA"/><path d="M49.67 22.57c-.06-.37-.17-.52-.64-.51-.9 0-1.75.49-2.66.22A3.45 3.45 0 0 0 48.24 19v-1.71a3.52 3.52 0 0 1 .15 1.82c0 .59.16.84.79.62s1.1-.19 1.41.46a4.22 4.22 0 0 1-.92 2.38z" class="Az"/><path d="M111.63 19.07a4.6 4.6 0 0 0-2.54.55 6.4 6.4 0 0 1 .19-3.28c0 .44.17.47.53.38s.69-.13 1-.18.63.1.63.61l.34-.62zm34.12-6a31.17 31.17 0 0 0-4.18.6l-3.18.5a5.85 5.85 0 0 1 7.36-1.1z" class="BA"/><path d="M70.71 22.32a2.19 2.19 0 0 1 1.35-.32 1 1 0 0 0 1-.42 3.89 3.89 0 0 0 5 .1c.6-.41.74.41 1.08.69a8 8 0 0 0-2.65.36c-1.27.3-2.61.2-3.88.53-.32.08-.7 0-.69.47a3.05 3.05 0 0 1-1.21-1.41z" class="BB"/><path d="M81.19 22.7v-1.09c.8.08 1.57-.29 2.37-.18v2.05c0 .68-.24 1-1 .85-.12-.19-.24-.19-.35 0h-1.02z" class="BA"/><path d="M127.78 16.71a23 23 0 0 1 2.35.18v2.54l-2.36.18z" class="BC"/><path d="M131.59 20c.75.06 1.47-.3 2.23-.15.43.09.28-.3.28-.49V16.2l.16-.18v7.69c0 .47-.1.68-.64.71-2.09.08-2.09.1-2.08-2l.05-2.42zm2.34 2.65c0-1.72-.21-1.87-1.72-1.24h-.08c-.42.08-.4.41-.36.7.08.66-.23 1.37.21 2 0 0 .11 0 .17.05 1.33.33 1.78 0 1.78-1.35z" class="BF"/><path d="M148.57 12.53h-.13v-1.89c0-.26 0-.53-.35-.62a1.29 1.29 0 0 0-1.65 1.09c0 .25 0 .49-.34.53V9.03a1 1 0 0 1 .7-1 2 2 0 0 1 1.66 0c.24.11.18.36.17.56l-.06 3.94z" class="BB"/><path d="M42.59 22.69c-.17.65-.79.6-1.24.71a3 3 0 0 0-1.67.75c-.82-.31-.24-1-.36-1.46h.07s0-.09-.07-.13v-.37c.21-.47.35-.91 1-1s1.29-.19 1.18.81c0 .29 0 .54.42.51l.65.05.02.13z" class="Az"/><path d="M83.56,21.43c-.8-.11-1.57.26-2.37.18V19.26a10.55,10.55,0,0,1,2.36-.37Z" class="BB"/><path d="M99.85 12.74v5h-.18v-2.57c0-.48-.07-.78-.67-.55s-1-.07-1.52.29v-1.48c.33-.97 1.16-1.21 2.37-.69z" class="Az"/><path d="M146.1,11.64c.32,0,.32-.28.34-.53A1.29,1.29,0,0,1,148.09,10c.37.09.34.36.35.62v1.89a12.39,12.39,0,0,0-2.35.38Z" class="BA"/><path d="M83.55,18.89a10.55,10.55,0,0,0-2.36.37c0-2,.17-2.15,2.18-2.18h.18Z" class="BD"/><path d="M88 21.06a2 2 0 0 0-2.62.36 3.17 3.17 0 0 1-.38-1.63c.83-.13 1.59-.68 2.48-.39v-.18zm17.31-4.54c.58-.89 1.55-.51 2.34-.71v1.63h-.09c-1.72-.46-2-.29-2.26 1.42z" class="BB"/><path d="M137.19 19.6c.06-.55.37-.76.91-.72s1 0 1.43 0c0 .22 0 .44.05.65s-.06.61-.48.6c-.89 0-1.58.16-1.52 1.26a3.81 3.81 0 0 1-.39-1.79z" class="BF"/><path d="M91.52 12.36a5.78 5.78 0 0 1-2.86.2 5.67 5.67 0 0 1 2.86-.2z" class="BE"/><path d="M81.19,22.7v1.64c-.47-.5-.16-1.09-.19-1.65Z" class="BB"/><path d="M104.93 22.85c.43 0 .46.09.24.74-.11-.24.1-.59-.24-.74z" class="BF"/><path d="M79.65 22.87c-.38 0-.48-.18-.46-.5a1.12 1.12 0 0 1 .46.5zm2.63 1.46c.11-.19.23-.19.35 0z" class="BB"/><path d="M62.86 17.62a.52.52 0 0 1-.06-.13h.06z" class="Az"/><path d="M118.83,22.87l-.12-.12Z" class="BC"/><path d="M52.93,22.69l.17.23Z" class="BD"/><path d="M118.66,22.69l-.13-.13Z" class="BC"/><path d="M39.32 22.52s0 .08.07.13h-.07z" class="BE"/><path d="M41.83 16.18v6a25.28 25.28 0 0 1 0-6z" class="Az"/><path d="M146.1 17.6l2.33-.53c0 1.64 0 1.64-2.17 1.64h-.16z" class="BF"/><path d="M146.1 18.73h.16v3.37h-.16z" class="BC"/><path d="M139.55 18v.19c-.12-.08-.12-.19 0-.19z" class="BF"/><path d="M92.58 21.93a2 2 0 0 0 1-2.05c-.08-1.53 0-3.08 0-4.62a6.35 6.35 0 0 1 .18 2.45v1.52 1.71c.42-.5-.22-1.2.52-1.5 1-.39 1.28-.25 1.62.7.05 1.73.05 1.76-1.77 1.82-.54.04-1.06.52-1.55-.03z" class="BA"/><path d="M95.85 20.14c-.34-.95-.67-1.09-1.62-.7-.74.3-.1 1-.52 1.5v-1.71c.35-.69.08-1.44.17-2.15a7.37 7.37 0 0 1 2-.37v1.46h-.06l.06.12z" class="BB"/><path d="M95.85 16.71a7.37 7.37 0 0 0-2 .37v-.18c0-1.95 0-1.95 2-2v.74h-.07l.06.12z" class="BD"/><path d="M55.63 22l.18.14c-.25.2-.14-.07-.18-.14z" class="Az"/><path d="M103.09 21.71a1.24 1.24 0 0 1-.91 0 1.24 1.24 0 0 1 .91 0z" class="BA"/><path d="M95.85 15.8l-.06-.12h.07a.86.86 0 0 1-.01.12z" class="Az"/><path d="M95.85 18.34l-.06-.12h.06a.49.49 0 0 1 0 .12z" class="BD"/><path d="M66.85 17.78v.4h-.06a.54.54 0 0 0 0 .11c.07 1.83.07 1.83-1.78 1.83h-.54v-2.16c0-.72 0-1.06.83-1.2 1.16-.15 1.15-.22 1.55 1.02z" class="Az"/><path d="M42.57 22.53h3.09v.17h-3.07l-.02-.17z" class="BA"/><path d="M42.94 22.69h2.54a3.7 3.7 0 0 1-2.54 0zm2.71 0v-.17l.35-.07c0 .2-.18.24-.35.24z" class="Az"/><path d="M125.59 14.5H124a2 2 0 0 1 1.59 0z" class="BA"/><path d="M99.81 18.53v.07-.08-.06z" class="Az"/><path d="M66.84 18.33a.54.54 0 0 1 0-.11h.06a.76.76 0 0 1-.06.11zm-6.31.56v-.18a.33.33 0 0 1 .07.13z" class="BE"/><path d="M133.93 22.62v.17c0 1.34-.45 1.68-1.78 1.35-.06 0-.15 0-.17-.05-.44-.61-.13-1.32-.21-2 0-.29-.06-.62.36-.7h.08c1.51-.64 1.72-.49 1.72 1.23z" class="BG"/></svg>