<svg xmlns="http://www.w3.org/2000/svg" width="100" height="100" viewBox="0 0 400 400" xmlns:v="https://vecta.io/nano"><linearGradient id="A" gradientUnits="userSpaceOnUse" x1="200" y1="400.5" x2="200" y2="1.488"><stop offset=".098" stop-color="#9a282d"/><stop offset=".496" stop-color="#ee2722"/></linearGradient><circle cx="200" cy="200" r="200" fill="url(#A)"/><path d="M187.6 285.6h-9.3l-11.4 9.9v-20.8h-6.3v41.9h6.3v-11.2l12.5 11.2h9l-17.9-16.1 17.1-14.9zm-37.5 1.1c-1.8-1.2-4-1.8-6.3-1.8-2.2 0-4.4.6-6.4 1.6-1.1.5-2.1 1.2-2.9 2.1v-3h-6.2v30.9h6.2v-11.7c0-3.6.2-6.1.5-7.4.5-1.9 1.5-3.5 3-4.8s3.2-1.9 5.1-1.9c1.6 0 2.9.4 3.9 1.2s1.6 1.9 2 3.5c.2.7.4 2.3.4 6.2v14.8h6.2v-15.9c0-4.1-.4-7-1.3-9-1-1.9-2.4-3.5-4.2-4.8m-34.8 19.8c-.9 1.5-2 2.7-3.6 3.6-1.5.9-3.2 1.3-5 1.3s-3.4-.5-4.9-1.3c-1.5-.9-2.7-2.2-3.6-3.8s-1.4-3.3-1.4-5.1.5-3.5 1.3-5.1c.9-1.6 2.1-2.8 3.7-3.7 1.5-.9 3.2-1.3 5-1.3 2.9 0 5.1.9 7 2.9 2 2 2.9 4.4 2.9 7.3-.1 1.9-.6 3.6-1.4 5.2m1-17.8c-1-.9-2-1.6-3.1-2.2-2.1-1.1-4.4-1.6-6.9-1.6-4.4 0-8.2 1.6-11.3 4.7s-4.7 7-4.7 11.4c0 4.5 1.5 8.4 4.6 11.5s6.8 4.7 11.2 4.7c2.4 0 4.7-.5 6.8-1.6 1.2-.5 2.3-1.3 3.3-2.2v3h6.2v-30.9h-6.1v3.2h0zm-36.6 18.7c-.6 1-1.5 1.7-2.5 2.1-1.1.5-3.1.7-5.7.7h-3.4v-12.1h.9c3.1 0 5.3.1 6.5.4 1.7.4 3 1.1 3.9 2.2.9 1 1.4 2.2 1.4 3.6-.1 1.2-.4 2.2-1.1 3.1M68.1 282h3.1c2.4 0 4 .4 5 1.2.9.7 1.4 1.8 1.4 3.1 0 1-.3 2-.9 2.8s-1.4 1.5-2.4 1.9c-1.1.4-2.9.6-5.4.6H68l.1-9.6zm15.3 13.8c-.7-.6-1.6-1.2-2.7-1.7.8-.7 1.5-1.5 2.1-2.4 1-1.6 1.4-3.4 1.4-5.3 0-2.1-.6-4-1.6-5.7-1.1-1.7-2.6-3-4.4-3.8s-4.3-1.2-7.5-1.2h-8.8v40.9h11.8c4.1 0 7.4-1.2 9.9-3.5 2.5-2.4 3.8-5.3 3.8-8.7 0-1.7-.4-3.3-1-4.8-.8-1.5-1.8-2.8-3-3.8m14.5-36.3l.8-1-5-3.8-.8.9c-3.4 3.9-7.5 5.8-12.5 5.8-4.6 0-8.3-1.4-11.3-4.3-2.9-2.9-4.4-6.4-4.4-10.8 0-2.9.7-5.4 2-7.7s3.2-4.1 5.6-5.4c2.4-1.4 5-2 7.9-2 2.6 0 5 .5 7.1 1.6 2.2 1 4 2.5 5.6 4.6l.8 1 5.1-3.8-.7-1c-2-2.7-4.5-4.8-7.6-6.4-3-1.5-6.5-2.3-10.3-2.3-6.3 0-11.5 2.1-15.7 6.1-4.2 4.1-6.3 9.1-6.3 15.1 0 5.6 1.7 10.5 5.2 14.5 4.1 4.7 9.8 7.1 16.9 7.1 3.7 0 7.1-.7 10.1-2.1 2.9-1.5 5.5-3.5 7.5-6.1m228-16.1c1.8-1.6 3.8-2.4 6.3-2.4 1.5 0 2.9.4 4.3 1 1.3.6 2.4 1.4 3.2 2.5.5.7 1 1.5 1.4 2.6h-17.6c.7-1.6 1.5-2.8 2.4-3.7m15.9 11.9c-1 1.7-2 3-2.8 3.7s-1.9 1.3-3.1 1.8-2.5.7-3.7.7c-2.7 0-4.8-.9-6.6-2.7-1.5-1.6-2.5-3.6-2.7-6h25.4v-1.3c0-4.1-1.2-7.7-3.4-10.5-3.1-4-7.3-6-12.6-6-5.1 0-9.2 2-12.2 5.9-2.4 3-3.6 6.5-3.6 10.5 0 4.1 1.4 7.9 4.2 11.1 2.9 3.3 6.8 5 11.8 5 2.2 0 4.3-.3 6-1 1.8-.7 3.5-1.7 4.9-3s2.7-3.1 3.8-5.2l.6-1.1-5.3-2.8-.7.9h0zm-35.3 11.3h6.2v-41.9h-6.2v41.9h0zm-12.3-10.1c-.9 1.5-2 2.7-3.6 3.6s-3.3 1.3-5.1 1.3-3.4-.4-4.9-1.3-2.8-2.2-3.7-3.8-1.4-3.3-1.4-5.1.4-3.5 1.3-5.1 2.1-2.8 3.6-3.7 3.2-1.3 5-1.3c2.8 0 5.1 1 7 2.9 2 2 2.9 4.4 2.9 7.3.2 2-.3 3.7-1.1 5.2m1-17.7c-1-.9-2-1.6-3.1-2.2-2.1-1.1-4.4-1.6-6.9-1.6-4.4 0-8.2 1.6-11.3 4.7s-4.7 7-4.7 11.4c0 4.5 1.6 8.4 4.6 11.5 3.1 3.2 6.8 4.7 11.2 4.7 2.4 0 4.7-.5 6.8-1.5 1.1-.6 2.3-1.3 3.3-2.2v3h6.2v-30.9h-6.2l.1 3.1h0zm-37.6 17.7c-.8 1.5-2 2.7-3.6 3.6s-3.3 1.3-5.1 1.3c-1.7 0-3.4-.5-4.9-1.3-1.5-.9-2.7-2.2-3.7-3.8-.9-1.6-1.4-3.3-1.4-5.1s.5-3.5 1.4-5.1 2.1-2.8 3.7-3.7c1.5-.9 3.2-1.3 5-1.3 2.8 0 5.1 1 7.1 2.9 1.9 2 2.9 4.4 2.9 7.3-.1 2-.5 3.7-1.4 5.2m1.1-17.7c-1-.9-2-1.6-3.1-2.2-2-1.1-4.4-1.6-6.9-1.6-4.4 0-8.2 1.6-11.3 4.7s-4.7 7-4.7 11.4c0 4.5 1.6 8.4 4.6 11.5 3.1 3.2 6.9 4.7 11.2 4.7 2.5 0 4.7-.5 6.8-1.5 1.2-.6 2.3-1.3 3.3-2.2v3h6.2v-41.9h-6.2l.1 14.1h0zm-38 2.2c1.5 0 3.1.8 4.8 2.5l.9.9 4.2-4.3-1-.9c-2.9-2.8-5.8-4.2-8.8-4.2-2.5 0-4.7.8-6.5 2.5-1.7 1.7-2.6 3.8-2.6 6.3 0 1.9.6 3.7 1.6 5.2 1.1 1.5 2.9 2.9 5.7 4.3 2.9 1.5 3.9 2.3 4.2 2.7.5.6.7 1.2.7 2 0 .9-.4 1.7-1.1 2.4-.8.7-1.8 1.1-2.9 1.1-1.7 0-3.3-.9-4.9-2.7l-1-1.1-4 4.5.7.9c1.1 1.4 2.5 2.5 4.1 3.3 1.7.8 3.4 1.2 5.2 1.2 2.8 0 5.2-.9 7-2.8 1.9-1.9 2.8-4.2 2.8-6.8 0-1.9-.6-3.7-1.7-5.2s-3.1-2.9-6-4.4c-2.5-1.3-3.6-2.2-4-2.7-.5-.6-.7-1.2-.7-1.8 0-.7.2-1.3.8-1.8 1-.9 1.7-1.1 2.5-1.1m-36.3 6c.6-1.6 1.4-2.8 2.4-3.6 1.8-1.6 3.8-2.4 6.3-2.4 1.5 0 2.9.4 4.3 1 1.3.6 2.4 1.4 3.2 2.5.6.7 1 1.5 1.4 2.6h-17.6v-.1zm8.6-12c-5.1 0-9.2 2-12.3 5.9-2.4 3.1-3.6 6.5-3.6 10.5 0 4.1 1.4 7.9 4.2 11.1 2.8 3.3 6.8 5 11.8 5 2.2 0 4.2-.3 6.1-1 1.8-.7 3.5-1.7 4.9-3s2.7-3.1 3.8-5.2l.6-1.1-5.3-2.8-.7 1c-1 1.7-2 3-2.8 3.7s-1.9 1.3-3.1 1.8-2.5.7-3.8.7c-2.6 0-4.8-.9-6.6-2.7-1.5-1.6-2.4-3.6-2.7-6h25.4v-1.3c0-4.1-1.2-7.7-3.4-10.5-3-4.1-7.2-6.1-12.5-6.1m-36.1 26.5c-1.8 0-3.4-.4-4.9-1.3s-2.7-2.2-3.6-3.8-1.4-3.3-1.4-5.1.5-3.5 1.3-5.1c.9-1.6 2.1-2.8 3.7-3.7 1.5-.9 3.2-1.3 5-1.3 2.8 0 5.1 1 7.1 2.9 1.9 2 2.9 4.4 2.9 7.3 0 1.9-.5 3.7-1.3 5.2s-2 2.7-3.6 3.6c-1.7.8-3.4 1.3-5.2 1.3m9.8 2.2v3h6.2v-41.9h-6.2v14.1c-1-.9-2-1.6-3.1-2.2-2.1-1.1-4.4-1.6-6.9-1.6-4.4 0-8.2 1.6-11.3 4.7s-4.7 7-4.7 11.4c0 4.5 1.6 8.4 4.6 11.6 3.1 3.2 6.9 4.7 11.2 4.7 2.4 0 4.7-.5 6.8-1.5 1.3-.7 2.4-1.5 3.4-2.3m-32.1-28l-8.6 19.9-8.9-19.9h-6.7l12.2 27.5-6 13.8h6.7l18.1-41.3h-6.8zm-26.3-10.9h-6.2v41.9h6.2v-41.9zm75.8-74.1l26.7-.3c5.7 0 10.3 4.6 10.3 10.3s-4.6 10.2-10.3 10.2h-26.7v-20.2h0zM118 183.4c22.4 0 42.2-11.5 53.8-28.8v28.8h39.1c12.7 0 22.9-10.1 22.9-22.8 0-6.6-2.7-12.5-7.1-16.7 4.4-4.2 7.1-10.1 7.1-16.7 0-12.7-10.4-23.1-23.1-23.1h-9.4l-12.7 13h22.2c5.7 0 10.3 4.6 10.3 10.3s-4.6 10.2-10.3 10.2h-46.3c-7.4 18.4-25.4 31.3-46.5 31.3-27.7 0-50.1-22.4-50.1-50.1S90.3 68.7 118 68.7c22.3 0 41.2 14.6 47.7 34.7l11-11.6C166.5 69.6 144 54.2 118 54.2c-35.7 0-64.6 28.9-64.6 64.6s28.9 64.6 64.6 64.6m40-45.4l52.9-55 .1-.1V65.3L141.6 138H158z" fill="#fff"/></svg>