<?xml version="1.0" encoding="utf-8"?>
<!-- Generator: Adobe Illustrator 24.2.1, SVG Export Plug-In . SVG Version: 6.00 Build 0)  -->
<svg version="1.1" id="Layer_1" xmlns="http://www.w3.org/2000/svg" xmlns:xlink="http://www.w3.org/1999/xlink" x="0px" y="0px"
	 viewBox="0 0 2279.4 344.2" style="enable-background:new 0 0 2279.4 344.2;" xml:space="preserve">
<style type="text/css">
	.st0{fill-rule:evenodd;clip-rule:evenodd;fill:#244B66;}
	.st1{fill-rule:evenodd;clip-rule:evenodd;fill:#FFFFFF;}
</style>
<path class="st0" d="M1463.1,344.2h816.3V0h-816.3L1463.1,344.2L1463.1,344.2z M2270.4,9v326.1h-798.2V9L2270.4,9L2270.4,9z
	 M0,344.2h1427.1V0H0V344.2L0,344.2z"/>
<path class="st1" d="M2270.4,9v326.1h-798.2V9H2270.4z M493.7,194.6c0,34.2-18,50.4-59.5,50.4h-64.9V118.9h63.1
	c48.6,0,61.3,23.4,61.3,50.5V194.6z M518.9,194.6V173c0-70.3-54.1-72.1-90.1-72.1h-84.7v164h91.9
	C508.1,264.9,518.9,225.2,518.9,194.6z M661.3,223.4c0,10.8,0,19.8-10.8,23.4c-7.2,1.8-16.2,1.8-30.6,1.8c-16.2,0-25.2,0-30.6-3.6
	c-3.6-1.8-5.4-7.2-5.4-14.4c0-9,3.6-16.2,7.2-18c5.4-1.8,10.8-1.8,30.6-1.8h39.6V223.4z M686.5,264.9V200v-27
	c-1.8-5.4-3.6-10.8-9-14.4c-12.6-9-41.4-9-55.9-9c-10.8,0-41.4,0-52.3,10.8c-3.6,1.8-3.6,5.4-3.6,10.8v12.6H591
	c0-3.6,0-10.8,3.6-14.4c1.8-1.8,7.2-3.6,25.2-3.6c18,0,32.4,0,37.8,3.6c3.6,3.6,3.6,9,3.6,14.4v10.8h-55.9c-14.4,0-32.4,0-41.4,12.6
	c-3.6,7.2-5.4,12.6-5.4,23.4c0,27,16.2,36,59.5,36c21.6,0,36-3.6,45-10.8l1.8,9H686.5z M836.1,264.9v-63.1c0-21.6-1.8-27-5.4-30.6
	c-5.4-3.6-16.2-5.4-30.6-5.4c-12.6,0-27,1.8-39.6,5.4v93.7h-25.2V149.6h23.4l1.8,9c3.6-3.6,7.2-5.4,12.6-7.2c9-1.8,18-3.6,32.4-3.6
	c13-0.1,25.8,2.4,37.8,7.2c9,3.6,14.4,10.8,16.2,19.8c0,5.4,1.8,10.8,1.8,23.4v66.7L836.1,264.9L836.1,264.9z M1018.1,257.7
	c-10.8,5.4-28.8,9-54.1,9c-16.2-1.8-30.6-1.8-41.4-5.4c-10.8-1.8-16.2-7.2-18-18c0-5.4,0-9,1.8-16.2h23.4v9c1.8,5.4,1.8,9,7.2,10.8
	c7.2,1.8,16.2,3.6,28.8,3.6c16.2,0,27-1.8,34.2-5.4c5.4-1.8,7.2-7.2,7.2-14.4c0-9-1.8-12.6-10.8-14.4h-9c-1.8-1.8-7.2-1.8-16.2-1.8
	h-14.4c-23.4-1.8-50.5-1.8-50.5-30.6c0-27,16.2-36,59.5-36c10.8,0,25.2,1.8,32.4,1.8c10.8,1.8,18,3.6,23.4,7.2
	c5.4,1.8,7.2,7.2,7.2,16.2v9h-25.2v-5.4c-1.8-5.4-1.8-7.2-3.6-7.2c-3.6-3.6-14.4-5.4-28.8-5.4c-16.2,0-23.4,1.8-30.6,3.6
	c-7.2,1.8-9,7.2-9,14.4c0,5.4,1.8,10.8,3.6,12.6c7.2,3.6,41.4,3.6,52.3,3.6c12.6,0,19.8,0,27,3.6c12.6,3.6,18,12.6,18,28.8
	C1032.5,243.2,1028.9,252.3,1018.1,257.7z M1169.4,264.9l-59.5-54.1h-9v54.1h-23.4v-164h23.4v93.7h9l50.5-45.1h28.8l-57.7,50.5
	l70.3,64.9H1169.4z M1324.4,196.4h-79.3c1.8-14.4,3.6-21.6,10.8-25.2c5.4-3.6,16.2-5.4,30.6-5.4c21.6,0,32.4,3.6,36,14.4
	C1324.4,183.8,1324.4,187.4,1324.4,196.4z M1347.8,228.8h-25.2c0,3.6,0,12.6-3.6,16.2c-3.6,3.6-10.8,5.4-30.6,5.4s-30.6-3.6-36-9
	c-5.4-3.6-7.2-12.6-7.2-27v-1.8h102.7V200c0-18-1.8-28.8-10.8-36c-9-10.8-27-14.4-50.5-14.4c-32.4,0-52.3,7.2-59.5,21.6
	c-5.4,9-7.2,21.6-7.2,37.8c0,25.2,5.4,41.4,19.8,48.6c9,5.4,25.2,9,45,9c18,0,30.6-1.8,45-5.4c14.4-5.4,18-12.6,18-19.8
	L1347.8,228.8z"/>
<path class="st0" d="M1672.2,142.3c0,23.4-12.6,28.8-41.4,28.8h-61.3v-52.2h64.9C1659.5,118.9,1672.2,120.7,1672.2,142.3
	L1672.2,142.3z M1704.6,218c0-19.8-10.8-34.3-39.6-39.6c21.6-5.4,34.2-16.2,34.2-34.3c0-28.8-14.4-43.2-54.1-43.2h-102.7v164h106.3
	C1684.8,264.9,1704.6,248.7,1704.6,218z M1679.4,219.9c0,23.4-18,25.2-43.2,25.2h-66.7v-55.9h70.3
	C1670.4,189.2,1679.4,200,1679.4,219.9z M1839.8,223.4c0,10.8-1.8,19.8-12.6,23.4c-5.4,1.8-14.4,1.8-30.6,1.8
	c-14.4,0-23.4,0-28.8-3.6c-5.4-1.8-5.4-7.2-5.4-14.4c0-9,1.8-16.2,7.2-18c3.6-1.8,10.8-1.8,28.9-1.8h41.4L1839.8,223.4L1839.8,223.4
	z M1863.2,264.9V200v-27c-1.8-5.4-3.6-10.8-9-14.4c-12.6-9-41.4-9-55.9-9c-10.8,0-39.6,0-50.5,10.8c-3.6,1.8-5.4,5.4-5.4,10.8v12.6
	h25.2c0-3.6,0-10.8,3.6-14.4c3.6-1.8,9-3.6,25.2-3.6c18,0,32.5,0,37.8,3.6c5.4,3.6,5.4,9,5.4,14.4v10.8h-55.9
	c-16.2,0-32.4,0-43.2,12.6c-3.6,7.2-5.4,12.6-5.4,23.4c0,27,16.2,36,59.5,36c23.4,0,37.8-3.6,46.9-10.8l1.8,9H1863.2z M2007.3,264.9
	v-63.1c0-21.6-1.8-27-7.2-30.6c-3.6-3.6-14.4-5.4-28.9-5.4s-27,1.8-39.6,5.4v93.7h-25.2V149.6h21.6l1.8,9c4.4-3.1,9.3-5.5,14.4-7.2
	c9-1.8,18-3.6,32.5-3.6c16.2,0,27,3.6,37.8,7.2c9,3.6,12.6,10.8,16.2,19.8v90.1L2007.3,264.9L2007.3,264.9z M2167.7,264.9
	l-59.5-54.1h-9v54.1H2074v-164h25.2v93.7h9l48.7-45.1h28.8l-57.7,50.5l72.1,64.9H2167.7z"/>
</svg>
