<?xml version="1.0" encoding="utf-8"?>
<!-- Generator: Adobe Illustrator 24.2.1, SVG Export Plug-In . SVG Version: 6.00 Build 0)  -->
<svg version="1.1" id="Layer_1" xmlns="http://www.w3.org/2000/svg" xmlns:xlink="http://www.w3.org/1999/xlink" x="0px" y="0px"
	 viewBox="0 0 293.3 45.7" style="enable-background:new 0 0 293.3 45.7;" xml:space="preserve">
<g>
	<path d="M17.4,7.3h3.5V0.2c-1.5-0.1-3.4,0-4.9,0C7.5,0.2,4.7,4.9,4.7,10v3H0v6.5h4.7v25.4h9.8V19.5h6V13h-5.8v-2.4
		C14.8,8.2,16.1,7.3,17.4,7.3"/>
	<rect x="24.7" y="12.2" width="9.2" height="32.6"/>
	<rect x="24.9" y="0" width="9" height="7.6"/>
	<path d="M60.9,20.6v-9c-7.9,0-9.9,1.8-11.5,5.8v-4.9h-9.1v32.3h9.5V30.2C49.9,25.8,50.8,19.1,60.9,20.6"/>
	<path d="M71.8,20.5c0-3.8,11-3.8,10.7,1.4h8.4c-0.7-7.9-7.2-10.3-14.2-10.3c-6.9,0-14,2.6-14,10.8c0,5.7,5.1,7.4,10.2,8.7
		c6.3,1.6,9.4,1.3,9.9,4c0.6,3.8-4.2,4.3-5.6,4.3c-3.5,0-6.7-1-6.8-4.9H62c0.4,8.5,7.6,11.2,15.1,11.2c7.3,0,14.7-3.3,14.7-11.7
		C91.8,21.8,71.8,26.6,71.8,20.5L71.8,20.5z"/>
	<path d="M113.1,44.8v-7c-6,0-6-0.2-6-3.8V19.7h5.8V13h-5.8V2.8h-9.4v10.1h-4.6v6.7h4.6v16.8C97.8,42.1,97.3,45.6,113.1,44.8
		L113.1,44.8z"/>
	<path d="M151.8,0.1l-0.1,15.6c-2.1-3.2-5.5-4.1-9.3-4.1c-9.4,0-14.2,8-14.2,16.6c0,8.9,4.7,17.3,14.4,17.3c4.2,0.1,7.4-0.6,9.4-4.1
		l0.2,3.4h8.9V0.1H151.8z M144.8,38.7c-4.7,0-7.2-4.2-7.2-10.2c0-8.3,4.1-9.9,7.2-9.9c5,0,7.3,3.9,7.3,9.8
		C152.1,34.2,150.2,38.7,144.8,38.7z"/>
	<rect x="167.3" y="12.2" width="9.2" height="32.6"/>
	<rect x="167.5" width="9" height="7.6"/>
	<path d="M203.5,20.6v-9c-7.9,0-9.9,1.8-11.5,5.8v-4.9h-9.1v32.1h9.5V30.1C192.5,25.6,193.5,18.8,203.5,20.6L203.5,20.6z"/>
	<path d="M220.7,11.5c-9.8,0-16.4,7.5-16.4,17.1c0,9.9,6.3,16.9,16.4,16.9c7.2,0,12.6-2.4,15.1-10H227c-0.7,1.3-2.4,3.3-6.3,3.3
		c-2.7,0-7.4-2.4-7.6-7.9h23.3C237.1,20.6,231.6,11.5,220.7,11.5z M213.1,24.8c0.1-2.5,2-6.5,7.3-6.5c3.8,0,6.4,2.4,6.4,6.5H213.1z"
		/>
	<path d="M249.1,28.7c0-4.7,1.9-10.5,7.4-10.4c3,0,5.9,2.2,6.5,5.9l8.6-0.1c-0.6-8.5-7.5-12.5-15.1-12.5c-10.4,0-16.4,7.4-16.4,17.4
		c0,10.4,6.5,16.6,16.2,16.6c8.4,0,14.2-4.1,15.3-12.6l-8.5-0.2c-0.6,3.9-3.2,5.9-6.9,5.9C251.1,38.7,249.1,33.8,249.1,28.7
		L249.1,28.7z"/>
	<path d="M287.3,34V19.6h5.8v-6.7h-5.8V2.8h-9.4v10.1h-4.6v6.7h4.6v16.8c0,5.6-0.5,9.1,15.4,8.4v-7C287.2,37.8,287.2,37.6,287.3,34
		L287.3,34z"/>
</g>
</svg>
