<?xml version="1.0" encoding="UTF-8" standalone="no"?>
<!-- Created with Inkscape (http://www.inkscape.org/) -->

<svg
   xmlns:dc="http://purl.org/dc/elements/1.1/"
   xmlns:cc="http://creativecommons.org/ns#"
   xmlns:rdf="http://www.w3.org/1999/02/22-rdf-syntax-ns#"
   xmlns:svg="http://www.w3.org/2000/svg"
   xmlns="http://www.w3.org/2000/svg"
   xmlns:sodipodi="http://sodipodi.sourceforge.net/DTD/sodipodi-0.dtd"
   xmlns:inkscape="http://www.inkscape.org/namespaces/inkscape"
   width="178.82863"
   height="46.369251"
   viewBox="0 0 47.315074 12.26853"
   version="1.1"
   id="svg1647"
   inkscape:version="0.92.0 r15299"
   sodipodi:docname="hoares bank.svg">
  <defs
     id="defs1641" />
  <sodipodi:namedview
     id="base"
     pagecolor="#ffffff"
     bordercolor="#666666"
     borderopacity="1.0"
     inkscape:pageopacity="0.0"
     inkscape:pageshadow="2"
     inkscape:zoom="5.044182"
     inkscape:cx="88.914317"
     inkscape:cy="22.684623"
     inkscape:document-units="mm"
     inkscape:current-layer="layer1"
     showgrid="false"
     fit-margin-top="0"
     fit-margin-left="0"
     fit-margin-right="0"
     fit-margin-bottom="0"
     units="px"
     inkscape:window-width="1280"
     inkscape:window-height="744"
     inkscape:window-x="-4"
     inkscape:window-y="-4"
     inkscape:window-maximized="1" />
  <metadata
     id="metadata1644">
    <rdf:RDF>
      <cc:Work
         rdf:about="">
        <dc:format>image/svg+xml</dc:format>
        <dc:type
           rdf:resource="http://purl.org/dc/dcmitype/StillImage" />
        <dc:title></dc:title>
      </cc:Work>
    </rdf:RDF>
  </metadata>
  <g
     inkscape:label="Layer 1"
     inkscape:groupmode="layer"
     id="layer1"
     transform="translate(-57.361657,-155.41794)">
    <g
       id="g1740"
       transform="translate(0.13229065,-0.13229068)">
      <path
         inkscape:connector-curvature="0"
         id="path1360"
         style="fill:#878586;fill-opacity:1;fill-rule:nonzero;stroke:none;stroke-width:0.35277778"
         d="m 65.347643,156.75506 c -0.24511,-0.66619 -1.55896,-0.5068 -2.9458,0.0942 -1.76283,-2.01553 -4.84833,-1.15394 -5.03103,0.58508 -0.0987,0.93775 0.60667,1.58457 1.82245,1.88609 -1.31382,1.79899 -1.1745,4.42249 1.08458,4.51351 0.27756,0.43977 0.77629,0.79985 1.55825,0.97864 l 0.0268,-0.12979 c -0.69624,-0.16714 -1.12405,-0.47469 -1.35438,-0.84814 2.57369,-0.0797 3.53025,-2.97233 1.95118,-3.34582 -1.57593,-0.37278 -2.98284,1.7429 -2.27108,3.18428 -1.58298,-0.24441 -1.35407,-2.88414 -0.39222,-4.26805 3.47733,0.29274 5.98368,-1.47521 5.55124,-2.64996 m -2.76133,3.93404 c 1.19567,0.42781 -0.15907,3.00231 -2.15082,3.00231 h -0.004 c -0.63203,-1.35498 1.04366,-3.39975 2.1547,-3.00231 m -0.11497,-3.52602 c 0.15871,0.20952 0.30261,0.44687 0.4264,0.71523 l 0.11465,-0.0666 c -0.11888,-0.26522 -0.25784,-0.50222 -0.41021,-0.7124 1.30888,-0.65317 2.37794,-0.81926 2.58922,-0.30576 0.42679,1.03721 -2.90739,2.66831 -5.29132,2.468 0.70013,-0.91733 1.66868,-1.6431 2.57126,-2.09843 m -3.1726,2.01765 c -0.87334,-0.18479 -1.56214,-0.80691 -1.41189,-1.84764 0.22253,-1.53871 2.75005,-2.18691 4.37427,-0.42147 -1.05953,0.48352 -2.19244,1.2753 -2.96238,2.26911" />
      <path
         inkscape:connector-curvature="0"
         id="path1362"
         style="fill:#878586;fill-opacity:1;fill-rule:nonzero;stroke:none;stroke-width:0.35277778"
         d="m 63.465963,163.52952 c 0.0342,-0.17209 -0.0691,-0.31387 -0.23068,-0.31598 -0.16189,-0.002 -0.3206,0.13507 -0.35447,0.30751 -0.0342,0.17177 0.0691,0.31355 0.23068,0.31602 0.16154,0.002 0.3199,-0.13543 0.35447,-0.30755" />
      <path
         inkscape:connector-curvature="0"
         id="path1364"
         style="fill:#878586;fill-opacity:1;fill-rule:nonzero;stroke:none;stroke-width:0.35277778"
         d="m 94.649513,161.64519 c -0.92234,-0.93458 -1.796701,0.50645 -2.7081,1.47878 -0.76218,0.81325 -1.71944,0.74129 -1.947651,-0.1379 -0.166479,-0.63906 0.189442,-1.56941 1.169601,-1.92772 2.096479,-0.76599 1.850671,-1.83635 1.102879,-1.83635 -2.006878,0 -2.17265,4.61437 1.191482,4.61437 1.113499,0 1.61784,-0.62424 1.787869,-0.79883 l -0.106151,-0.0783 c -0.404209,0.48069 -1.008758,0.73215 -1.430258,0.73215 -2.772982,0 -2.882302,-4.30297 -1.61784,-4.30297 0.533609,0 0.436629,1.13421 -1.049692,1.57152 -1.176618,0.34597 -1.852049,1.14935 -1.58151,2.04269 0.280041,0.92434 1.691572,1.2054 2.580751,0.2063 1.07858,-1.21179 1.85805,-1.89385 2.514071,-1.47101" />
      <path
         inkscape:connector-curvature="0"
         id="path1366"
         style="fill:#878586;fill-opacity:1;fill-rule:nonzero;stroke:none;stroke-width:0.35277778"
         d="m 103.26155,163.52952 c 0.0342,-0.17209 -0.0691,-0.31387 -0.23068,-0.31598 -0.16154,-0.002 -0.3206,0.13507 -0.35444,0.30751 -0.0342,0.17177 0.0691,0.31355 0.23065,0.31602 0.16154,0.002 0.31993,-0.13543 0.35447,-0.30755" />
      <path
         inkscape:connector-curvature="0"
         id="path1368"
         style="fill:#878586;fill-opacity:1;fill-rule:nonzero;stroke:none;stroke-width:0.35277778"
         d="m 66.091163,166.49197 c 0.25745,0 0.37493,0.15201 0.37493,0.33891 0,0.18447 -0.12418,0.32975 -0.39681,0.32975 h -0.17635 v 0.50997 h -0.17 v -1.17863 z m -0.19858,0.51668 h 0.19117 c 0.12661,0 0.2074,-0.0677 0.2074,-0.18517 0,-0.0864 -0.0462,-0.1795 -0.20035,-0.1795 h -0.19822 v 0.36467" />
      <path
         inkscape:connector-curvature="0"
         id="path1370"
         style="fill:#878586;fill-opacity:1;fill-rule:nonzero;stroke:none;stroke-width:0.35277778"
         d="m 67.237833,166.49197 c 0.23876,0 0.38759,0.12591 0.38759,0.33009 0,0.13649 -0.0716,0.23806 -0.19748,0.28851 0.10756,0.0709 0.17279,0.17984 0.26275,0.32656 0.0504,0.0815 0.0797,0.12026 0.16083,0.23347 h -0.20246 l -0.15519,-0.24229 c -0.15589,-0.24158 -0.22676,-0.26945 -0.31284,-0.26945 h -0.0709 v 0.51174 h -0.16965 v -1.17863 z m -0.12771,0.51492 h 0.10866 c 0.18129,0 0.23346,-0.0935 0.2317,-0.19188 -0.001,-0.11038 -0.0674,-0.17773 -0.23174,-0.17773 h -0.10862 v 0.36961" />
      <path
         inkscape:connector-curvature="0"
         id="path1372"
         style="fill:#878586;fill-opacity:1;fill-rule:nonzero;stroke:none;stroke-width:0.35277778"
         d="m 68.343183,167.6706 h 0.16895 v -1.17863 h -0.16895 z" />
      <path
         inkscape:connector-curvature="0"
         id="path1374"
         style="fill:#878586;fill-opacity:1;fill-rule:nonzero;stroke:none;stroke-width:0.35277778"
         d="m 69.533213,167.68083 h -0.0349 l -0.50962,-1.18886 h 0.1693 l 0.35377,0.82772 0.35267,-0.82772 h 0.16827" />
      <path
         inkscape:connector-curvature="0"
         id="path1376"
         style="fill:#878586;fill-opacity:1;fill-rule:nonzero;stroke:none;stroke-width:0.35277778"
         d="m 71.425513,167.6706 h -0.17247 l -0.15766,-0.34738 h -0.50084 l -0.14887,0.34738 h -0.17283 l 0.50613,-1.18568 h 0.1196 z m -0.76574,-0.49939 h 0.36647 l -0.19012,-0.42672" />
      <path
         inkscape:connector-curvature="0"
         id="path1378"
         style="fill:#878586;fill-opacity:1;fill-rule:nonzero;stroke:none;stroke-width:0.35277778"
         d="m 72.615183,166.64398 h -0.40774 v 1.02662 h -0.16965 v -1.02662 h -0.4077 v -0.15201 h 0.98509" />
      <path
         inkscape:connector-curvature="0"
         id="path1380"
         style="fill:#878586;fill-opacity:1;fill-rule:nonzero;stroke:none;stroke-width:0.35277778"
         d="m 73.695183,166.64398 h -0.49943 v 0.35585 h 0.48214 v 0.15233 h -0.48214 v 0.36608 h 0.51495 v 0.15236 h -0.68425 v -1.17863 h 0.66873" />
      <path
         inkscape:connector-curvature="0"
         id="path1382"
         style="fill:#878586;fill-opacity:1;fill-rule:nonzero;stroke:none;stroke-width:0.35277778"
         d="m 75.137753,166.49197 h 0.34213 c 0.25428,0 0.36329,0.15201 0.36329,0.30085 0,0.1227 -0.0575,0.20207 -0.18023,0.25178 v 0.004 c 0.17635,0.0328 0.28356,0.14848 0.28356,0.30755 0,0.14492 -0.10862,0.31457 -0.40418,0.31457 h -0.40457 z m 0.1693,0.50468 h 0.1125 c 0.16754,0 0.24868,-0.0621 0.24868,-0.1887 0,-0.0882 -0.0501,-0.16397 -0.20564,-0.16397 h -0.15554 z m 0,0.52194 h 0.21269 c 0.19858,0 0.25217,-0.0987 0.25217,-0.1869 0,-0.10686 -0.0829,-0.18341 -0.26099,-0.18341 h -0.20387 v 0.37031" />
      <path
         inkscape:connector-curvature="0"
         id="path1384"
         style="fill:#878586;fill-opacity:1;fill-rule:nonzero;stroke:none;stroke-width:0.35277778"
         d="m 77.444823,167.6706 h -0.17283 l -0.1573,-0.34738 h -0.50123 l -0.14884,0.34738 h -0.17282 l 0.50648,-1.18568 h 0.1192 z m -0.76574,-0.49939 h 0.36646 l -0.19011,-0.42672" />
      <path
         inkscape:connector-curvature="0"
         id="path1386"
         style="fill:#878586;fill-opacity:1;fill-rule:nonzero;stroke:none;stroke-width:0.35277778"
         d="m 78.945213,167.6706 h -0.1453 l -0.78797,-0.90741 v 0.90741 h -0.15907 v -1.17863 h 0.13473 l 0.79855,0.91235 v -0.91235 h 0.15906" />
      <path
         inkscape:connector-curvature="0"
         id="path1388"
         style="fill:#878586;fill-opacity:1;fill-rule:nonzero;stroke:none;stroke-width:0.35277778"
         d="m 80.587783,167.6706 h -0.23315 l -0.59993,-0.58226 v 0.58226 h -0.1693 v -1.17863 h 0.1693 v 0.53926 l 0.49625,-0.53926 h 0.21089 l -0.5135,0.55827" />
      <path
         inkscape:connector-curvature="0"
         id="path1390"
         style="fill:#878586;fill-opacity:1;fill-rule:nonzero;stroke:none;stroke-width:0.35277778"
         d="m 81.640263,166.64398 h -0.49943 v 0.35585 h 0.48179 v 0.15233 h -0.48179 v 0.36608 h 0.51495 v 0.15236 h -0.6846 v -1.17863 h 0.66908" />
      <path
         inkscape:connector-curvature="0"
         id="path1392"
         style="fill:#878586;fill-opacity:1;fill-rule:nonzero;stroke:none;stroke-width:0.35277778"
         d="m 82.532613,166.49197 c 0.23841,0 0.3876,0.12591 0.3876,0.33009 0,0.13649 -0.0716,0.23806 -0.19752,0.28851 0.10724,0.0709 0.17286,0.17984 0.26278,0.32656 0.0501,0.0815 0.0794,0.12026 0.16083,0.23347 h -0.20245 l -0.15516,-0.24229 c -0.15592,-0.24158 -0.2268,-0.26945 -0.31323,-0.26945 h -0.0709 v 0.51174 h -0.16929 v -1.17863 z m -0.12802,0.51492 h 0.10897 c 0.18161,0 0.23351,-0.0935 0.23209,-0.19188 -0.002,-0.11038 -0.0681,-0.17773 -0.23209,-0.17773 h -0.10901 v 0.36961" />
      <path
         inkscape:connector-curvature="0"
         id="path1394"
         style="fill:#878586;fill-opacity:1;fill-rule:nonzero;stroke:none;stroke-width:0.35277778"
         d="m 84.119054,166.75084 c -0.10015,-0.0952 -0.19713,-0.12273 -0.2765,-0.12273 -0.108981,0 -0.186591,0.0571 -0.186591,0.14037 0,0.22606 0.5097,0.22288 0.5097,0.59743 0,0.18549 -0.14006,0.31986 -0.330171,0.31986 -0.127669,0 -0.231349,-0.0342 -0.329739,-0.10862 v -0.21442 c 0.0864,0.11074 0.19501,0.17138 0.31143,0.17138 0.131199,0 0.191519,-0.0832 0.191519,-0.14884 -2.9e-5,-0.24401 -0.510039,-0.27153 -0.510039,-0.59457 0,-0.19187 0.14213,-0.31425 0.357639,-0.31425 0.09,0 0.180271,0.0275 0.262752,0.0825" />
      <path
         inkscape:connector-curvature="0"
         id="path1396"
         style="fill:#878586;fill-opacity:1;fill-rule:nonzero;stroke:none;stroke-width:0.35277778"
         d="m 86.102373,166.75084 c -0.10015,-0.0952 -0.19717,-0.12273 -0.276539,-0.12273 -0.108982,0 -0.18623,0.0571 -0.18623,0.14037 0,0.22606 0.509299,0.22288 0.509299,0.59743 0,0.18549 -0.14002,0.31986 -0.330131,0.31986 -0.12767,0 -0.231349,-0.0342 -0.330129,-0.10862 v -0.21442 c 0.0864,0.11074 0.195411,0.17138 0.31182,0.17138 0.130849,0 0.191841,-0.0832 0.191841,-0.14884 0,-0.24401 -0.51036,-0.27153 -0.51036,-0.59457 0,-0.19187 0.142129,-0.31425 0.357648,-0.31425 0.0899,0 0.179882,0.0275 0.262781,0.0825" />
      <path
         inkscape:connector-curvature="0"
         id="path1398"
         style="fill:#878586;fill-opacity:1;fill-rule:nonzero;stroke:none;stroke-width:0.35277778"
         d="m 86.736172,167.6706 h 0.169302 v -1.17863 h -0.169302 z" />
      <path
         inkscape:connector-curvature="0"
         id="path1400"
         style="fill:#878586;fill-opacity:1;fill-rule:nonzero;stroke:none;stroke-width:0.35277778"
         d="m 88.638312,167.6706 h -0.145309 l -0.787929,-0.90741 v 0.90741 h -0.159422 v -1.17863 h 0.134731 l 0.79887,0.91235 v -0.91235 h 0.159059" />
      <path
         inkscape:connector-curvature="0"
         id="path1402"
         style="fill:#878586;fill-opacity:1;fill-rule:nonzero;stroke:none;stroke-width:0.35277778"
         d="m 90.153533,166.75472 c -0.145309,-0.0846 -0.269769,-0.12308 -0.405939,-0.12308 -0.269841,0 -0.470181,0.19184 -0.470181,0.45141 0,0.26451 0.193281,0.44718 0.47688,0.44718 0.133321,0 0.27827,-0.0465 0.411231,-0.13296 v 0.18517 c -0.11567,0.061 -0.24158,0.10368 -0.426752,0.10368 -0.442629,0 -0.635918,-0.34032 -0.635918,-0.58755 0,-0.35937 0.271219,-0.62212 0.646499,-0.62212 0.12097,0 0.24374,0.0293 0.40418,0.0963" />
      <path
         inkscape:connector-curvature="0"
         id="path1404"
         style="fill:#878586;fill-opacity:1;fill-rule:nonzero;stroke:none;stroke-width:0.35277778"
         d="m 91.309723,166.64398 h -0.49942 v 0.35585 h 0.48214 v 0.15233 h -0.48214 v 0.36608 h 0.514951 v 0.15236 h -0.68425 v -1.17863 h 0.668719" />
      <path
         inkscape:connector-curvature="0"
         id="path1406"
         style="fill:#878586;fill-opacity:1;fill-rule:nonzero;stroke:none;stroke-width:0.35277778"
         d="m 92.683863,167.6706 h 0.168949 v -1.17863 h -0.168949 z" />
      <path
         inkscape:connector-curvature="0"
         id="path1408"
         style="fill:#878586;fill-opacity:1;fill-rule:nonzero;stroke:none;stroke-width:0.35277778"
         d="m 94.023083,166.60624 c -0.16574,0.0963 -0.312809,0.26804 -0.36082,0.43201 0.0462,-0.0243 0.10654,-0.0483 0.184499,-0.0483 0.188352,0 0.33048,0.14848 0.33048,0.34385 0,0.19149 -0.159419,0.35267 -0.347768,0.35267 -0.226441,0 -0.380222,-0.1693 -0.380222,-0.41829 -4e-5,-0.29587 0.166121,-0.58755 0.471911,-0.79174 z m -0.20384,0.91905 c 0.112151,0 0.188351,-0.0772 0.188351,-0.19325 0,-0.10368 -0.0829,-0.18129 -0.1954,-0.18129 -0.0727,0 -0.112191,0.0138 -0.186592,0.0621 -0.0448,0.19395 0.0709,0.31245 0.193641,0.31245" />
      <path
         inkscape:connector-curvature="0"
         id="path1410"
         style="fill:#878586;fill-opacity:1;fill-rule:nonzero;stroke:none;stroke-width:0.35277778"
         d="m 94.817394,167.68612 -0.150252,-0.0656 0.432091,-0.9677 h -0.509701 v -0.16083 h 0.76186" />
      <path
         inkscape:connector-curvature="0"
         id="path1412"
         style="fill:#878586;fill-opacity:1;fill-rule:nonzero;stroke:none;stroke-width:0.35277778"
         d="m 96.410924,167.6706 h -0.746681 v -0.012 c 0.129821,-0.1573 0.309351,-0.37172 0.40985,-0.54275 0.0547,-0.0952 0.0825,-0.15377 0.0825,-0.25252 0,-0.12943 -0.0864,-0.22112 -0.20211,-0.22112 -0.0846,0 -0.171029,0.0381 -0.266279,0.15904 v -0.21266 c 0.0953,-0.0758 0.183409,-0.11215 0.27831,-0.11215 0.213008,0 0.35973,0.15025 0.35973,0.3682 2.9e-5,0.19184 -0.10368,0.35232 -0.366432,0.66512 h 0.451091" />
      <path
         inkscape:connector-curvature="0"
         id="path1414"
         style="fill:#878586;fill-opacity:1;fill-rule:nonzero;stroke:none;stroke-width:0.35277778"
         d="m 88.090564,162.51172 c -0.706091,0.90706 -1.24401,1.1243 -1.786821,1.1243 -0.596059,0 -0.478269,-0.74199 -0.328719,-1.15711 0.978779,-0.16997 1.99739,-0.68347 2.02455,-1.28266 0.01021,-0.24229 -0.22115,-0.40132 -0.51988,-0.40132 -1.157261,0 -1.870081,1.12712 -2.063721,1.61381 -0.366779,-0.0148 -0.664491,-0.14213 -0.777351,-0.43416 -0.140719,-0.48771 0.41512,-1.09961 0.62957,-1.18706 -0.34808,-0.5008 -1.507489,0.6362 -2.205109,1.46251 0.0896,-0.14707 0.41547,-0.632 0.56928,-0.88766 0.220801,-0.36572 0.13684,-0.50433 -0.0868,-0.50433 h -0.29418 c 0.0219,0.0501 0.0607,0.0959 -0.13543,0.44824 -0.38901,0.6997 -1.78679,2.38513 -2.30527,2.38513 -0.49907,0 0.002,-0.84501 0.4511,-1.74078 0.32417,-0.64788 -0.0169,-1.15817 -0.63027,-1.15817 -0.55376,0 -1.06977,0.30116 -1.47257,0.71377 l -3.44e-4,-7.1e-4 c -0.56928,0.59884 -1.44117,0.9501 -1.66691,-0.0144 -0.0698,-0.41829 -0.37176,-0.70288 -0.82885,-0.70288 -0.76715,0 -1.58613,0.64326 -1.98999,1.34296 -0.34812,0.56956 -1.15757,1.49003 -1.80128,1.49003 -0.71914,0 0.13688,-1.87304 1.37523,-3.70269 4.033554,-0.55897 4.808434,-3.00619 3.886484,-3.50872 -0.96009,-0.52338 -2.9959,1.38494 -4.43777,3.39729 -0.37246,0.0381 -0.77209,0.0599 -1.20026,0.0599 -0.28568,0 -0.56328,0.004 -0.83132,0.013 0.75724,-1.319 1.47712,-2.6288 2.47777,-3.42657 l -0.0864,-0.0998 c -1.06094,0.96139 -4.92767,-0.94481 -6.27997,1.43256 -0.48285,0.84854 -0.0522,1.73902 0.71741,1.95979 l 0.0504,-0.11638 c -0.77808,-0.23806 -0.67789,-1.11513 -0.33259,-1.65612 1.31385,-2.06033 4.31711,-0.8443 5.39993,-1.27882 -1.14981,0.65846 -1.9219,1.92208 -2.6707,3.21956 -7.43892,0.47082 -7.53805,4.30364 -4.69805,4.30364 2.76595,0 4.11046,-2.067 5.32306,-4.16715 0.29838,-0.0113 0.60844,-0.0173 0.93077,-0.0173 0.37673,0 0.73226,-0.0145 1.06839,-0.0413 -1.32585,1.90549 -2.07677,3.83991 -0.84371,3.83991 0.67688,0 1.30645,-0.61154 1.72618,-1.1328 -0.018,0.0871 -0.0282,0.17247 -0.0282,0.25499 0,0.30963 0.19646,0.88205 0.84896,0.88205 1.0729,0 1.98998,-1.11905 2.20546,-1.95348 0.1626,0.31285 0.66135,0.51562 1.2761,0.13896 -0.54634,0.84501 -0.6338,1.81487 0.17847,1.81487 0.44514,0 0.92128,-0.39642 1.21684,-0.80624 -0.12979,0.58265 0.19928,0.80518 0.59327,0.80518 0.48178,0 1.03554,-0.51915 1.83585,-1.507 -0.10336,0.18518 -0.825,1.43962 -0.825,1.43962 h 0.5467 c 0.64971,-1.19168 1.19073,-1.83106 2.079941,-2.55475 -0.54533,0.97692 0.105089,1.33911 0.997439,1.325 -0.25396,0.87708 0.244049,1.30419 0.84649,1.30419 0.8666,0 1.582949,-0.72193 1.98434,-1.26154 z m -0.45466,-1.39728 c 0.214799,0.45071 -0.721262,1.04496 -1.610442,1.23468 0.372821,-0.92611 1.37841,-1.72243 1.610442,-1.23468 m -21.410021,2.94657 c -2.06227,0 -2.06791,-3.47383 4.61165,-3.96899 -1.13608,1.97569 -2.25626,3.96899 -4.61165,3.96899 m 11.80832,-7.5373 c 0.54458,0.29093 -0.15099,2.56532 -3.64455,3.18674 1.28352,-1.84908 2.91303,-3.57716 3.64455,-3.18674 m -1.37206,5.94144 c -0.2765,0.55655 -0.89164,1.22626 -1.3498,1.22626 -0.65112,0 -0.29696,-1.08448 -0.0452,-1.56164 0.22645,-0.4306 0.81901,-1.16981 1.35297,-1.16981 0.38199,0 0.42573,0.73145 0.042,1.50519 m 2.45555,1.06613 c -0.73681,0 0.47896,-2.57132 1.4775,-2.57132 0.31708,0 0.39751,0.3883 0.16186,0.85418 -0.45424,0.89895 -1.13358,1.71714 -1.63936,1.71714" />
      <path
         inkscape:connector-curvature="0"
         id="path1416"
         style="fill:#878586;fill-opacity:1;fill-rule:nonzero;stroke:none;stroke-width:0.35277778"
         d="m 104.33131,161.71151 c -0.46661,0.43554 -1.29127,0.59532 -1.48244,-0.22076 -0.0698,-0.41829 -0.37243,-0.70253 -0.82955,-0.70253 -0.81192,0 -1.6817,0.72048 -2.055918,1.46604 -0.48006,0.85277 -1.32761,1.4368 -2.02488,1.4368 -1.850668,0 -1.205928,-2.83443 -0.19681,-4.28639 3.477998,0.29238 5.984378,-1.47522 5.551588,-2.64997 -0.24546,-0.66583 -1.55896,-0.50715 -2.94513,0.0934 -1.762787,-2.01482 -4.848286,-1.15358 -5.032058,0.58544 -0.0987,0.93775 0.607031,1.58457 1.82281,1.8868 -1.33745,1.83035 -1.612228,4.51562 0.763622,4.51562 0.82709,0 1.489819,-0.54631 1.884148,-1.04108 -0.007,0.0543 -0.01159,0.10686 -0.01159,0.15868 0,0.30998 0.19681,0.8824 0.848608,0.8824 1.07293,0 1.99069,-1.11904 2.20549,-1.95382 0.19572,0.34209 0.84332,0.56779 1.58295,-0.0656 z m -3.91466,-4.54808 c 0.15903,0.20881 0.30296,0.44616 0.4264,0.71452 l 0.11497,-0.0666 c -0.11885,-0.26557 -0.25746,-0.50186 -0.41088,-0.7124 1.30958,-0.65317 2.37899,-0.8189 2.58953,-0.30575 0.42679,1.0372 -2.90629,2.6683 -5.291276,2.46835 0.700828,-0.91804 1.669029,-1.64275 2.571256,-2.09808 m -4.584166,0.1693 c 0.22221,-1.53836 2.750068,-2.18726 4.374256,-0.42111 -1.059138,0.48352 -2.192047,1.27494 -2.962728,2.2684 -0.872948,-0.18479 -1.561748,-0.80656 -1.411528,-1.84729 m 6.186126,5.13242 c -0.2758,0.55619 -0.89129,1.22591 -1.34945,1.22591 -0.65112,0 -0.29735,-1.08483 -0.0455,-1.56165 0.22715,-0.43024 0.81932,-1.17016 1.35262,-1.17016 0.38272,0 0.42608,0.73145 0.0423,1.5059" />
    </g>
  </g>
</svg>
