<?xml version="1.0" encoding="utf-8"?>
<!-- Generator: Adobe Illustrator 24.2.1, SVG Export Plug-In . SVG Version: 6.00 Build 0)  -->
<svg version="1.1" id="Layer_1" xmlns="http://www.w3.org/2000/svg" xmlns:xlink="http://www.w3.org/1999/xlink" x="0px" y="0px"
	width="100px" height="100px" viewBox="0 0 100 100" style="enable-background:new 0 0 100 100;" xml:space="preserve">
<g>
	<g>
		<path style="fill:#E9E8E8;" d="M50,0c27.6,0,50,22.4,50,50s-22.4,50-50,50S0,77.6,0,50S22.4,0,50,0"/>
		<path style="fill:#FFFFFF;" d="M50,1c27,0,49,22,49,49S77.1,99,50,99S1,77,1,50S23,1,50,1"/>
		<path style="fill:#E9E8E8;" d="M50,0c27.6,0,50,22.4,50,50s-22.4,50-50,50S0,77.6,0,50S22.4,0,50,0"/>
		<path style="fill:#FFFFFF;" d="M50,1c27,0,49,22,49,49S77.1,99,50,99S1,77,1,50S23,1,50,1"/>
	</g>
	<g id="layer1" transform="translate(-57.361657,-155.41794)">
		<g id="g1740" transform="translate(0.13229065,-0.13229068)">
			<path id="path1360" style="fill:#878586;" d="M81.3,197.3c-0.4-1.1-2.6-0.8-4.9,0.2c-2.9-3.4-8.1-1.9-8.4,1c-0.2,1.6,1,2.6,3,3.2
				c-2.2,3-2,7.4,1.8,7.5c0.5,0.7,1.3,1.3,2.6,1.6l0-0.2c-1.2-0.3-1.9-0.8-2.3-1.4c4.3-0.1,5.9-5,3.3-5.6c-2.6-0.6-5,2.9-3.8,5.3
				c-2.6-0.4-2.3-4.8-0.7-7.1C77.8,202.2,82,199.3,81.3,197.3 M76.6,203.9c2,0.7-0.3,5-3.6,5h0C72,206.6,74.8,203.2,76.6,203.9
				 M76.4,198c0.3,0.4,0.5,0.7,0.7,1.2l0.2-0.1c-0.2-0.4-0.4-0.8-0.7-1.2c2.2-1.1,4-1.4,4.3-0.5c0.7,1.7-4.9,4.5-8.8,4.1
				C73.3,200,74.9,198.8,76.4,198 M71.1,201.4c-1.5-0.3-2.6-1.3-2.4-3.1c0.4-2.6,4.6-3.7,7.3-0.7C74.3,198.4,72.4,199.7,71.1,201.4"
				/>
			<path id="path1362" style="fill:#878586;" d="M78.1,208.6c0.1-0.3-0.1-0.5-0.4-0.5c-0.3,0-0.5,0.2-0.6,0.5
				c-0.1,0.3,0.1,0.5,0.4,0.5C77.8,209.2,78,208.9,78.1,208.6"/>
			<path id="path1364" style="fill:#878586;" d="M130.2,205.5c-1.5-1.6-3,0.8-4.5,2.5c-1.3,1.4-2.9,1.2-3.3-0.2
				c-0.3-1.1,0.3-2.6,2-3.2c3.5-1.3,3.1-3.1,1.8-3.1c-3.4,0-3.6,7.7,2,7.7c1.9,0,2.7-1,3-1.3l-0.2-0.1c-0.7,0.8-1.7,1.2-2.4,1.2
				c-4.6,0-4.8-7.2-2.7-7.2c0.9,0,0.7,1.9-1.8,2.6c-2,0.6-3.1,1.9-2.6,3.4c0.5,1.5,2.8,2,4.3,0.3c1.8-2,3.1-3.2,4.2-2.5"/>
			<path id="path1366" style="fill:#878586;" d="M144.6,208.6c0.1-0.3-0.1-0.5-0.4-0.5c-0.3,0-0.5,0.2-0.6,0.5
				c-0.1,0.3,0.1,0.5,0.4,0.5C144.3,209.2,144.6,208.9,144.6,208.6"/>
			<path id="path1368" style="fill:#878586;" d="M82.5,213.6c0.4,0,0.6,0.3,0.6,0.6c0,0.3-0.2,0.6-0.7,0.6h-0.3v0.9h-0.3v-2
				L82.5,213.6z M82.2,214.5h0.3c0.2,0,0.3-0.1,0.3-0.3c0-0.1-0.1-0.3-0.3-0.3h-0.3V214.5"/>
			<path id="path1370" style="fill:#878586;" d="M84.4,213.6c0.4,0,0.6,0.2,0.6,0.6c0,0.2-0.1,0.4-0.3,0.5c0.2,0.1,0.3,0.3,0.4,0.5
				c0.1,0.1,0.1,0.2,0.3,0.4h-0.3l-0.3-0.4c-0.3-0.4-0.4-0.5-0.5-0.5h-0.1v0.9h-0.3v-2L84.4,213.6z M84.2,214.4h0.2
				c0.3,0,0.4-0.2,0.4-0.3c0-0.2-0.1-0.3-0.4-0.3h-0.2L84.2,214.4"/>
			<path id="path1372" style="fill:#878586;" d="M86.3,215.6h0.3v-2h-0.3V215.6z"/>
			<path id="path1374" style="fill:#878586;" d="M88.2,215.6L88.2,215.6l-0.9-2h0.3l0.6,1.4l0.6-1.4h0.3"/>
			<path id="path1376" style="fill:#878586;" d="M91.4,215.6h-0.3l-0.3-0.6H90l-0.2,0.6h-0.3l0.8-2h0.2L91.4,215.6z M90.1,214.7h0.6
				l-0.3-0.7"/>
			<path id="path1378" style="fill:#878586;" d="M93.4,213.8h-0.7v1.7h-0.3v-1.7h-0.7v-0.3h1.6"/>
			<path id="path1380" style="fill:#878586;" d="M95.2,213.8h-0.8v0.6h0.8v0.3h-0.8v0.6h0.9v0.3h-1.1v-2h1.1"/>
			<path id="path1382" style="fill:#878586;" d="M97.6,213.6h0.6c0.4,0,0.6,0.3,0.6,0.5c0,0.2-0.1,0.3-0.3,0.4v0
				c0.3,0.1,0.5,0.2,0.5,0.5c0,0.2-0.2,0.5-0.7,0.5h-0.7V213.6z M97.9,214.4h0.2c0.3,0,0.4-0.1,0.4-0.3c0-0.1-0.1-0.3-0.3-0.3h-0.3
				V214.4z M97.9,215.3h0.4c0.3,0,0.4-0.2,0.4-0.3c0-0.2-0.1-0.3-0.4-0.3h-0.3V215.3"/>
			<path id="path1384" style="fill:#878586;" d="M101.5,215.6h-0.3l-0.3-0.6h-0.8l-0.2,0.6h-0.3l0.8-2h0.2L101.5,215.6z
				 M100.2,214.7h0.6l-0.3-0.7"/>
			<path id="path1386" style="fill:#878586;" d="M104,215.6h-0.2l-1.3-1.5v1.5h-0.3v-2h0.2l1.3,1.5v-1.5h0.3"/>
			<path id="path1388" style="fill:#878586;" d="M106.7,215.6h-0.4l-1-1v1h-0.3v-2h0.3v0.9l0.8-0.9h0.4l-0.9,0.9"/>
			<path id="path1390" style="fill:#878586;" d="M108.5,213.8h-0.8v0.6h0.8v0.3h-0.8v0.6h0.9v0.3h-1.1v-2h1.1"/>
			<path id="path1392" style="fill:#878586;" d="M110,213.6c0.4,0,0.6,0.2,0.6,0.6c0,0.2-0.1,0.4-0.3,0.5c0.2,0.1,0.3,0.3,0.4,0.5
				c0.1,0.1,0.1,0.2,0.3,0.4h-0.3l-0.3-0.4c-0.3-0.4-0.4-0.5-0.5-0.5h-0.1v0.9h-0.3v-2L110,213.6z M109.8,214.4h0.2
				c0.3,0,0.4-0.2,0.4-0.3c0-0.2-0.1-0.3-0.4-0.3h-0.2L109.8,214.4"/>
			<path id="path1394" style="fill:#878586;" d="M112.6,214c-0.2-0.2-0.3-0.2-0.5-0.2c-0.2,0-0.3,0.1-0.3,0.2c0,0.4,0.9,0.4,0.9,1
				c0,0.3-0.2,0.5-0.6,0.5c-0.2,0-0.4-0.1-0.6-0.2V215c0.1,0.2,0.3,0.3,0.5,0.3c0.2,0,0.3-0.1,0.3-0.2c0-0.4-0.9-0.5-0.9-1
				c0-0.3,0.2-0.5,0.6-0.5c0.2,0,0.3,0,0.4,0.1"/>
			<path id="path1396" style="fill:#878586;" d="M115.9,214c-0.2-0.2-0.3-0.2-0.5-0.2c-0.2,0-0.3,0.1-0.3,0.2c0,0.4,0.9,0.4,0.9,1
				c0,0.3-0.2,0.5-0.6,0.5c-0.2,0-0.4-0.1-0.6-0.2V215c0.1,0.2,0.3,0.3,0.5,0.3c0.2,0,0.3-0.1,0.3-0.2c0-0.4-0.9-0.5-0.9-1
				c0-0.3,0.2-0.5,0.6-0.5c0.2,0,0.3,0,0.4,0.1"/>
			<path id="path1398" style="fill:#878586;" d="M117,215.6h0.3v-2H117V215.6z"/>
			<path id="path1400" style="fill:#878586;" d="M120.2,215.6h-0.2l-1.3-1.5v1.5h-0.3v-2h0.2l1.3,1.5v-1.5h0.3"/>
			<path id="path1402" style="fill:#878586;" d="M122.7,214c-0.2-0.1-0.5-0.2-0.7-0.2c-0.5,0-0.8,0.3-0.8,0.8c0,0.4,0.3,0.7,0.8,0.7
				c0.2,0,0.5-0.1,0.7-0.2v0.3c-0.2,0.1-0.4,0.2-0.7,0.2c-0.7,0-1.1-0.6-1.1-1c0-0.6,0.5-1,1.1-1c0.2,0,0.4,0,0.7,0.2"/>
			<path id="path1404" style="fill:#878586;" d="M124.7,213.8h-0.8v0.6h0.8v0.3h-0.8v0.6h0.9v0.3h-1.1v-2h1.1"/>
			<path id="path1406" style="fill:#878586;" d="M127,215.6h0.3v-2H127V215.6z"/>
			<path id="path1408" style="fill:#878586;" d="M129.2,213.8c-0.3,0.2-0.5,0.4-0.6,0.7c0.1,0,0.2-0.1,0.3-0.1
				c0.3,0,0.6,0.2,0.6,0.6c0,0.3-0.3,0.6-0.6,0.6c-0.4,0-0.6-0.3-0.6-0.7c0-0.5,0.3-1,0.8-1.3L129.2,213.8z M128.8,215.3
				c0.2,0,0.3-0.1,0.3-0.3c0-0.2-0.1-0.3-0.3-0.3c-0.1,0-0.2,0-0.3,0.1C128.5,215.1,128.6,215.3,128.8,215.3"/>
			<path id="path1410" style="fill:#878586;" d="M130.5,215.6l-0.3-0.1l0.7-1.6h-0.9v-0.3h1.3"/>
			<path id="path1412" style="fill:#878586;" d="M133.2,215.6h-1.2v0c0.2-0.3,0.5-0.6,0.7-0.9c0.1-0.2,0.1-0.3,0.1-0.4
				c0-0.2-0.1-0.4-0.3-0.4c-0.1,0-0.3,0.1-0.4,0.3v-0.4c0.2-0.1,0.3-0.2,0.5-0.2c0.4,0,0.6,0.3,0.6,0.6c0,0.3-0.2,0.6-0.6,1.1h0.8"
				/>
			<path id="path1414" style="fill:#878586;" d="M119.3,206.9c-1.2,1.5-2.1,1.9-3,1.9c-1,0-0.8-1.2-0.5-1.9c1.6-0.3,3.3-1.1,3.4-2.1
				c0-0.4-0.4-0.7-0.9-0.7c-1.9,0-3.1,1.9-3.5,2.7c-0.6,0-1.1-0.2-1.3-0.7c-0.2-0.8,0.7-1.8,1.1-2c-0.6-0.8-2.5,1.1-3.7,2.4
				c0.1-0.2,0.7-1.1,1-1.5c0.4-0.6,0.2-0.8-0.1-0.8h-0.5c0,0.1,0.1,0.2-0.2,0.7c-0.7,1.2-3,4-3.9,4c-0.8,0,0-1.4,0.8-2.9
				c0.5-1.1,0-1.9-1.1-1.9c-0.9,0-1.8,0.5-2.5,1.2l0,0c-1,1-2.4,1.6-2.8,0c-0.1-0.7-0.6-1.2-1.4-1.2c-1.3,0-2.7,1.1-3.3,2.2
				c-0.6,1-1.9,2.5-3,2.5c-1.2,0,0.2-3.1,2.3-6.2c6.7-0.9,8-5,6.5-5.9c-1.6-0.9-5,2.3-7.4,5.7c-0.6,0.1-1.3,0.1-2,0.1
				c-0.5,0-0.9,0-1.4,0c1.3-2.2,2.5-4.4,4.1-5.7l-0.1-0.2c-1.8,1.6-8.2-1.6-10.5,2.4c-0.8,1.4-0.1,2.9,1.2,3.3l0.1-0.2
				c-1.3-0.4-1.1-1.9-0.6-2.8c2.2-3.4,7.2-1.4,9-2.1c-1.9,1.1-3.2,3.2-4.5,5.4c-12.4,0.8-12.6,7.2-7.9,7.2c4.6,0,6.9-3.5,8.9-7
				c0.5,0,1,0,1.6,0c0.6,0,1.2,0,1.8-0.1c-2.2,3.2-3.5,6.4-1.4,6.4c1.1,0,2.2-1,2.9-1.9c0,0.1,0,0.3,0,0.4c0,0.5,0.3,1.5,1.4,1.5
				c1.8,0,3.3-1.9,3.7-3.3c0.3,0.5,1.1,0.9,2.1,0.2c-0.9,1.4-1.1,3,0.3,3c0.7,0,1.5-0.7,2-1.3c-0.2,1,0.3,1.3,1,1.3
				c0.8,0,1.7-0.9,3.1-2.5c-0.2,0.3-1.4,2.4-1.4,2.4h0.9c1.1-2,2-3.1,3.5-4.3c-0.9,1.6,0.2,2.2,1.7,2.2c-0.4,1.5,0.4,2.2,1.4,2.2
				c1.4,0,2.6-1.2,3.3-2.1L119.3,206.9z M118.5,204.6c0.4,0.8-1.2,1.7-2.7,2.1C116.4,205.1,118.1,203.8,118.5,204.6 M82.7,209.5
				c-3.4,0-3.5-5.8,7.7-6.6C88.5,206.2,86.7,209.5,82.7,209.5 M102.5,196.9c0.9,0.5-0.3,4.3-6.1,5.3
				C98.5,199.2,101.2,196.3,102.5,196.9 M100.2,206.9c-0.5,0.9-1.5,2-2.3,2c-1.1,0-0.5-1.8-0.1-2.6c0.4-0.7,1.4-2,2.3-2
				C100.7,204.3,100.8,205.6,100.2,206.9 M104.3,208.6c-1.2,0,0.8-4.3,2.5-4.3c0.5,0,0.7,0.6,0.3,1.4
				C106.3,207.3,105.1,208.6,104.3,208.6"/>
			<path id="path1416" style="fill:#878586;" d="M146.4,205.6c-0.8,0.7-2.2,1-2.5-0.4c-0.1-0.7-0.6-1.2-1.4-1.2
				c-1.4,0-2.8,1.2-3.4,2.5c-0.8,1.4-2.2,2.4-3.4,2.4c-3.1,0-2-4.7-0.3-7.2c5.8,0.5,10-2.5,9.3-4.4c-0.4-1.1-2.6-0.8-4.9,0.2
				c-2.9-3.4-8.1-1.9-8.4,1c-0.2,1.6,1,2.6,3,3.2c-2.2,3.1-2.7,7.5,1.3,7.5c1.4,0,2.5-0.9,3.1-1.7c0,0.1,0,0.2,0,0.3
				c0,0.5,0.3,1.5,1.4,1.5c1.8,0,3.3-1.9,3.7-3.3c0.3,0.6,1.4,0.9,2.6-0.1L146.4,205.6z M139.9,198c0.3,0.3,0.5,0.7,0.7,1.2l0.2-0.1
				c-0.2-0.4-0.4-0.8-0.7-1.2c2.2-1.1,4-1.4,4.3-0.5c0.7,1.7-4.9,4.5-8.8,4.1C136.8,200,138.4,198.8,139.9,198 M132.2,198.3
				c0.4-2.6,4.6-3.7,7.3-0.7c-1.8,0.8-3.7,2.1-5,3.8C133.1,201.1,132,200,132.2,198.3 M142.6,206.9c-0.5,0.9-1.5,2-2.3,2
				c-1.1,0-0.5-1.8-0.1-2.6c0.4-0.7,1.4-2,2.3-2C143.1,204.3,143.2,205.6,142.6,206.9"/>
		</g>
	</g>
</g>
</svg>
