<?xml version="1.0" encoding="utf-8"?>
<!-- Generator: Adobe Illustrator 24.2.1, SVG Export Plug-In . SVG Version: 6.00 Build 0)  -->
<svg version="1.1" id="Layer_1" xmlns="http://www.w3.org/2000/svg" xmlns:xlink="http://www.w3.org/1999/xlink" x="0px" y="0px"
	 viewBox="0 0 350 60.1" style="enable-background:new 0 0 350 60.1;" xml:space="preserve">
<style type="text/css">
	.st0{fill:#E62632;}
	.st1{fill:#0354A0;}
</style>
<g>
	<g>
		<g>
			<path id="B" class="st0" d="M1.8,0.8h43.2v9.4c-3.1-2.6-9.6-3.5-16.5-3.5v25.7c0,3.7,0.4,4.9,1.8,6.9H16.5c1.4-2,1.8-2.9,1.8-6.9
				V6.5c-6.9,0-13.3,1-16.5,3.5C1.8,10,1.8,0.8,1.8,0.8z"/>
		</g>
		<g>
			<path id="B_1_" class="st0" d="M1.8,0.8h43.2v9.4c-3.1-2.6-9.6-3.5-16.5-3.5v25.7c0,3.7,0.4,4.9,1.8,6.9H16.5
				c1.4-2,1.8-2.9,1.8-6.9V6.5c-6.9,0-13.3,1-16.5,3.5C1.8,10,1.8,0.8,1.8,0.8z"/>
		</g>
		<g>
			<path id="B_2_" class="st0" d="M1.8,0.8h43.2v9.4c-3.1-2.6-9.6-3.5-16.5-3.5v25.7c0,3.7,0.4,4.9,1.8,6.9H16.5
				c1.4-2,1.8-2.9,1.8-6.9V6.5c-6.9,0-13.3,1-16.5,3.5C1.8,10,1.8,0.8,1.8,0.8z"/>
		</g>
		<g>
			<path id="B_3_" class="st0" d="M1.8,0.8h43.2v9.4c-3.1-2.6-9.6-3.5-16.5-3.5v25.7c0,3.7,0.4,4.9,1.8,6.9H16.5
				c1.4-2,1.8-2.9,1.8-6.9V6.5c-6.9,0-13.3,1-16.5,3.5C1.8,10,1.8,0.8,1.8,0.8z"/>
		</g>
		<path class="st0" d="M65.5,33.2c4.5,0,11.8-1,14.7-3.5V39H48.9c1.6-1.8,1.8-2.9,1.8-6.7V7.5c0-3.7-0.2-4.9-1.8-6.7h29.8v9.4
			C75.7,7.7,68.5,6.7,64,6.7h-3.5v10.2H63c3,0.1,6.1-0.3,9-1v7.5c-2.6-1-6.5-1-9-1h-2.6v11h5.1L65.5,33.2z M106.7,15.5
			c7.4,1,13.7,3.7,13.7,11.8c0,9.6-9,12.6-18.8,12.6c-6.9,0-12.6-0.8-16.9-2.4v-8.6c5,3.3,10.9,5,16.9,5.1c4.7,0,9-1.2,9-4.7
			s-4.1-4.5-12.4-5.7c-7.1-1.2-13.7-4.1-13.7-11.2C84.5,3,93.5,0,102.2,0c5.4-0.1,10.8,0.7,15.9,2.4v9.2c-4.1-3.7-10.4-5.7-16.3-5.7
			c-4.1,0-8,1.4-8,4.3C93.8,13.9,99.5,14.5,106.7,15.5L106.7,15.5z M149.3,0c3.8,0,7.7,0.4,11.4,1.4v9.4c-3.1-3.1-6.7-5.1-11.4-5.1
			c-8.6,0-14.5,6.1-14.5,14.1S140.7,34,149.3,34c4.4,0,8.5-1.8,11.4-5.1v9.6c-3.7,0.9-7.5,1.4-11.4,1.4c-15.1,0-25.9-7.5-25.9-20
			C123.4,7.5,134.4,0,149.3,0L149.3,0z M188,0c-15.5,0-24.3,9-24.3,20c0,10.8,8.8,20,24.3,20s24.3-9,24.3-20S203.4,0,188,0z M188,34
			c-7.9,0-12.9-6.5-12.9-14.1S180.2,5.7,188,5.7c7.8,0,13,6.5,13,14.1C200.7,27.7,195.6,34,188,34L188,34z"/>
	</g>
	<path class="st1" d="M185.8,49.5h26.1v0.2l0,0c-2.9,1.4-7.1,5.5-7.1,5.5c-3.1,2.9-5.5,4.9-10.4,4.9h-24.7c-0.1,0-0.2-0.1-0.2-0.2
		c0,0,0,0,0,0l0,0v-0.2l0,0c2.5-1.7,4.8-3.6,6.9-5.7C178.7,51.2,182.2,49.6,185.8,49.5 M143.4,49.5h26.1v0.2l0,0
		c-2.9,1.4-7.1,5.5-7.1,5.5c-3.1,2.9-5.4,4.9-10.4,4.9h-24.7c-0.1,0-0.2-0.1-0.2-0.2l0,0v-0.2l0,0c2.5-1.7,4.8-3.6,6.9-5.7
		C136.4,51.2,139.8,49.6,143.4,49.5 M101,49.5h26.1v0.2l0,0c-2.9,1.4-7.1,5.5-7.1,5.5c-3.1,2.9-5.5,4.9-10.4,4.9H85
		c-0.1,0-0.2-0.1-0.2-0.2l0,0v-0.2l0,0c2.5-1.7,4.8-3.6,6.9-5.7C94,51.2,97.5,49.6,101,49.5 M58.5,49.5h26.1v0.2l0,0
		c-2.9,1.4-7.1,5.5-7.1,5.5c-3.1,2.9-5.3,4.9-10.2,4.9H42.6c-0.1,0-0.2-0.1-0.2-0.2c0,0,0,0,0,0l0,0v-0.2l0,0
		c2.5-1.7,4.8-3.6,6.9-5.7C51,52,54.3,49.5,58.5,49.5 M16.1,49.5h26.1v0.2l0,0c-2.9,1.4-7.1,5.5-7.1,5.5c-3.1,2.9-5.3,4.9-10.2,4.9
		H0.2C0.1,60.1,0,60,0,59.9l0,0v-0.2l0,0C2.5,58,4.8,56.1,6.9,54C8.6,52,12,49.5,16.1,49.5 M238.8,0.8h13.1c3.3,0,5.9,0.8,7.8,2.6
		s2.8,4.1,2.8,7.1c0.1,1.7-0.4,3.3-1.4,4.7c-0.7,1.3-1.8,2.3-3.1,2.9c1.9,0.7,3.5,1.9,4.7,3.5c1.2,1.8,1.8,3.9,1.8,6.1
		c0.1,3.1-1.1,6.1-3.3,8.2c-2.2,2-5.1,2.9-8.8,2.9h-13.7L238.8,0.8L238.8,0.8z M251.7,16.5c2,0,3.5-0.4,4.5-1.4
		c1.1-1.1,1.6-2.6,1.6-4.1c0.1-1.5-0.5-3-1.6-4.1c-1-1-2.5-1.4-4.5-1.4h-8.2v11.2C243.5,16.7,251.7,16.5,251.7,16.5z M251.9,34.5
		c2,0.1,4.1-0.5,5.7-1.8c1.4-1.2,2-2.8,2-5.1s-0.6-3.9-2-5.1s-3.3-1.6-5.9-1.6h-8.4v13.5H251.9z M273.1,38.5
		c-1.4-0.6-2.6-1.6-3.3-2.9c-0.8-1.3-1.2-2.8-1.2-4.3c-0.1-2.7,1.2-5.3,3.3-6.9c2.7-1.7,5.8-2.5,9-2.3h6.1v-1.4
		c0.1-1.7-0.6-3.3-2-4.3c-1.4-1.1-3.1-1.6-4.9-1.6c-1.6,0-3.1,0.4-4.5,1.2c-1.2,0.9-2.2,2-2.9,3.3l-3.5-2.2c0.9-2,2.4-3.6,4.3-4.7
		c2-1.2,4.3-1.8,6.7-1.8c3-0.1,5.9,0.9,8.2,2.7c2.1,1.9,3.3,4.6,3.1,7.5v18.4h-3.7l-0.8-4.3c-0.9,1.4-2.2,2.6-3.7,3.3
		c-1.6,0.9-3.5,1.3-5.3,1.4C276.3,39.6,274.6,39.2,273.1,38.5L273.1,38.5z M282.7,34.4c1.3-0.6,2.5-1.6,3.1-2.9
		c0.8-1.4,1.2-2.9,1.2-4.5v-1.2h-5.9c-2.5,0-4.5,0.4-5.7,1.4c-1.3,0.8-2,2.2-2,3.7c-0.1,1.3,0.4,2.5,1.4,3.3
		c1.1,0.8,2.4,1.2,3.7,1.2C280,35.4,281.4,35.1,282.7,34.4L282.7,34.4z M298.2,10.8h4.5v5.3c0.7-1.8,2.1-3.2,3.7-4.1
		c1.7-1,3.6-1.5,5.5-1.6c2.5-0.2,4.9,0.8,6.7,2.6c1.7,1.9,2.7,4.3,2.5,6.9V39h-4.5V20.8c0.1-1.6-0.4-3.2-1.4-4.5
		c-1.1-1.1-2.6-1.6-4.1-1.6c-1.5-0.1-3,0.4-4.1,1.4c-1.3,1.1-2.3,2.5-2.9,4.1c-0.7,2-1,4.1-1,6.3V39h-4.5V10.8L298.2,10.8z
		 M332.5,23l10.8-12h5.7l-11.6,13L350,39.3h-5.7l-11.8-14.3v14.3H328V0.4h4.5L332.5,23z"/>
</g>
</svg>
