<?xml version="1.0" encoding="utf-8"?>
<!-- Generator: Adobe Illustrator 24.2.1, SVG Export Plug-In . SVG Version: 6.00 Build 0)  -->
<svg version="1.1" id="Layer_1" xmlns="http://www.w3.org/2000/svg" xmlns:xlink="http://www.w3.org/1999/xlink" x="0px" y="0px"
	width="100px" height="100px" viewBox="0 0 100 100" style="enable-background:new 0 0 100 100;" xml:space="preserve">
<g>
	<g>
		<path style="fill:#E9E8E8;" d="M50,0c27.6,0,50,22.4,50,50s-22.4,50-50,50S0,77.6,0,50S22.4,0,50,0"/>
		<path style="fill:#FFFFFF;" d="M50,1c27,0,49,22,49,49S77.1,99,50,99S1,77,1,50S23,1,50,1"/>
		<path style="fill:#E9E8E8;" d="M50,0c27.6,0,50,22.4,50,50s-22.4,50-50,50S0,77.6,0,50S22.4,0,50,0"/>
		<path style="fill:#FFFFFF;" d="M50,1c27,0,49,22,49,49S77.1,99,50,99S1,77,1,50S23,1,50,1"/>
	</g>
	<g>
		<desc>Created with Sketch.</desc>
		<g>
			<path id="path-1_1_" style="fill-rule:evenodd;clip-rule:evenodd;fill:#212222;" d="M75.2,45.8c0.1-0.6,0.6-1.1,1.2-1.1
				c0.6,0,1.1,0.5,1.1,1.1H75.2z M79.4,46.2c0-0.8-0.3-1.5-0.9-2.1c-0.6-0.6-1.3-0.9-2.1-0.8c-0.9,0-1.7,0.4-2.3,1s-0.9,1.5-0.9,2.3
				c0,0.9,0.3,1.7,0.9,2.4c0.6,0.6,1.4,1,2.3,1c0.9,0,1.7-0.3,2.3-0.9c0.1,0,0.1-0.1,0.1-0.2s0-0.2-0.1-0.2l-0.6-0.7
				c-0.1-0.1-0.2-0.1-0.4,0c-0.4,0.3-0.8,0.4-1.2,0.4c-0.8,0-1.5-0.6-1.5-1.4h4c0.2,0,0.3-0.1,0.3-0.3
				C79.4,46.5,79.4,46.4,79.4,46.2L79.4,46.2z M69.5,43.2c-0.8,0-1.6,0.3-2.2,0.9l-0.2-0.6c0-0.1-0.1-0.2-0.3-0.2h-0.6
				c-0.1,0-0.2,0-0.2,0.1c-0.1,0.1-0.1,0.1-0.1,0.2v5.7c0,0.2,0.1,0.3,0.3,0.3h1.2c0.3,0,0.4-0.1,0.4-0.3V46c0.2-0.6,0.8-1,1.5-1
				c0.8,0,1.2,0.5,1.2,1.4v3.1c0,0.2,0.1,0.3,0.3,0.3H72c0.2,0,0.3-0.1,0.3-0.3v-3C72.3,44.8,71.5,43.2,69.5,43.2L69.5,43.2z
				 M61.6,48.2c-0.4,0-0.8-0.2-1.1-0.5C60.2,47.4,60,47,60,46.5c0-0.6,0.3-1.1,0.7-1.4s1.1-0.3,1.5,0c0.5,0.3,0.8,0.8,0.7,1.4
				c0,0.4-0.1,0.8-0.4,1.1C62.4,48,62,48.2,61.6,48.2L61.6,48.2z M61.6,43.2c-1.3,0-2.6,0.8-3.1,2c-0.5,1.2-0.3,2.7,0.7,3.6
				c0.9,1,2.4,1.3,3.6,0.7c1.2-0.5,2.1-1.7,2.1-3.1C64.8,44.7,63.3,43.3,61.6,43.2L61.6,43.2z M54.5,43.2c-0.8,0-1.6,0.4-2.2,1
				c-0.5-0.6-1.3-1-2.1-1c-0.8,0-1.6,0.3-2.1,0.9l-0.2,0.3c-0.6-0.9-1.7-1.4-2.7-1.4c-0.2,0-0.3,0.1-0.3,0.3v1.1
				c0,0.1,0,0.2,0.1,0.2c0.1,0.1,0.1,0.1,0.2,0.1c0.9,0,1.6,0.8,1.6,1.8v2.9c0,0.2,0.1,0.3,0.3,0.3h1.3c0.2,0,0.3-0.1,0.3-0.3V46
				c0.2-0.6,0.7-1,1.3-1c0.8,0,1.2,0.5,1.2,1.4v3.1c0,0.2,0.1,0.3,0.3,0.3h1.2c0.2,0,0.3-0.1,0.3-0.3v-3.2c0-0.3,0-0.6,0-0.6
				c0.3-0.4,0.8-0.7,1.3-0.7c0.8,0,1.2,0.5,1.2,1.4v3.2c0,0.2,0.1,0.3,0.3,0.3H57c0.1,0,0.2,0,0.2-0.1c0.1-0.1,0.1-0.1,0.1-0.2v-3
				C57.3,44.8,56.6,43.2,54.5,43.2L54.5,43.2z M86.7,43.4h-1.3c-0.2,0-0.3,0-0.4,0.2l-1.6,3.6h0l-1.6-3.6c0-0.1-0.2-0.2-0.3-0.2
				h-1.4c-0.1,0-0.2,0-0.3,0.1c-0.1,0.1-0.1,0.2,0,0.3l2.6,5.5l-0.4,0.8c-0.1,0.2-0.2,0.4-0.4,0.5c-0.8,0.8-2,0.8-2.1,0.8
				c-0.1,0-0.1,0-0.2,0.1c0,0.1-0.1,0.1-0.1,0.2v1.1c0,0.3,0.1,0.3,0.4,0.4c1.2,0.1,2.4-0.4,3.2-1.3c0.3-0.3,0.6-0.7,0.8-1.2
				l3.2-6.9C87.1,43.6,86.9,43.4,86.7,43.4L86.7,43.4z M34,43.2c-0.8,0-1.6,0.3-2.2,0.9l-0.2-0.6c0-0.1-0.1-0.2-0.3-0.2h-0.6
				c-0.1,0-0.2,0-0.2,0.1c-0.1,0.1-0.1,0.1-0.1,0.2v5.7c0,0.2,0.1,0.3,0.3,0.3h1.2c0.3,0,0.4-0.1,0.4-0.3V46c0.2-0.6,0.8-1,1.5-1
				c0.8,0,1.2,0.5,1.2,1.4v3.1c0,0.2,0.1,0.3,0.3,0.3h1.3c0.2,0,0.3-0.1,0.3-0.3v-3C36.8,44.8,36,43.2,34,43.2L34,43.2z M22.5,43.2
				c-0.6,0-1.2,0.2-1.7,0.5v-3.6c0-0.2-0.1-0.3-0.3-0.3h-1.4c-0.2,0-0.3,0.1-0.3,0.3v9.3c0,0.2,0.1,0.3,0.3,0.3h1.3
				c0.2,0,0.3-0.1,0.3-0.3v-3.4c0.1-0.7,0.7-1.1,1.4-1.1c0.8,0,1.3,0.6,1.3,1.4v3.1c0,0.2,0.1,0.3,0.3,0.3h1.3
				c0.2,0,0.3-0.1,0.3-0.3v-3C25.3,44.8,24.5,43.2,22.5,43.2L22.5,43.2z M28.4,43.4h-1.3c-0.1,0-0.2,0-0.2,0.1
				c-0.1,0.1-0.1,0.1-0.1,0.2v5.7c0,0.2,0.1,0.3,0.3,0.3h1.3c0.2,0,0.3-0.1,0.3-0.3v-5.7C28.7,43.5,28.6,43.4,28.4,43.4L28.4,43.4z
				 M17.3,48c-0.3,0.1-0.5,0.1-0.8,0.1c-0.7,0-1.1-0.5-1.1-1.5v-1.6H17c0.2,0,0.3-0.1,0.3-0.3v-1.1c0-0.1,0-0.2-0.1-0.2
				c-0.1-0.1-0.1-0.1-0.2-0.1h-1.6v-1.7c0-0.2-0.1-0.3-0.3-0.3h-1.3c-0.2,0-0.3,0.1-0.3,0.3v1.8h-1.1c-0.1,0-0.2,0-0.2,0.1
				c-0.1,0.1-0.1,0.1-0.1,0.2v1.1c0,0.2,0.1,0.3,0.3,0.3h1.1v1.6c0,2.1,1.3,3.2,2.9,3.2c0.3,0,0.6-0.1,1-0.2c0.1,0,0.2-0.2,0.2-0.3
				v-1.2C17.7,48,17.6,47.9,17.3,48L17.3,48z M44.5,49.3l-2.6-3.4c0.2-0.7,0.8-1.1,1.5-1.2c0.1,0,0.2,0,0.2-0.1
				c0.1-0.1,0.1-0.1,0.1-0.2v-1.1c0-0.2-0.1-0.3-0.3-0.3c-1.3,0-2.2,0.6-3.1,1.9v-4.8c0-0.2-0.1-0.3-0.3-0.3h-1.4
				c-0.2,0-0.3,0.1-0.3,0.3v9.3c0,0.2,0.1,0.3,0.3,0.3H40c0.2,0,0.3-0.1,0.3-0.3v-2.7l2,2.8c0.1,0.1,0.2,0.1,0.3,0.1h1.7
				c0.1,0,0.2-0.1,0.3-0.1C44.5,49.5,44.5,49.4,44.5,49.3L44.5,49.3z M27.8,39.7c-0.7,0-1.2,0.5-1.2,1.2c0,0.3,0.1,0.6,0.3,0.9
				c0.2,0.2,0.5,0.4,0.9,0.3c0.7,0,1.2-0.5,1.2-1.2c0-0.3-0.1-0.6-0.4-0.9C28.4,39.8,28.1,39.7,27.8,39.7L27.8,39.7z M12.1,53.4
				c0-0.1,0.1-0.2,0.1-0.2h0.2c0.1,0,0.2,0.1,0.2,0.2v1.6c0.3-0.1,0.6-0.2,0.9-0.2c1,0,1.5,0.7,1.5,1.7c0,0.9-0.6,1.7-1.4,1.7
				c-0.4,0-0.8-0.1-1-0.4l0,0.2c0,0.1-0.1,0.1-0.1,0.1h-0.1c-0.1,0-0.2-0.1-0.2-0.2V53.4z M13.5,57.8c0.6,0,1-0.6,1-1.2
				c0-0.6-0.4-1.2-1.1-1.2c-0.3,0-0.6,0.1-0.8,0.2v1.7C12.8,57.6,13.2,57.8,13.5,57.8L13.5,57.8z M17,56.1c0.2,0,0.5,0,0.7,0.1
				c0-0.6-0.1-0.9-0.5-0.9c-0.3,0-0.6,0.1-1,0.2c-0.1,0-0.1,0-0.2-0.1L16,55.3c0-0.1,0-0.1,0.1-0.2c0.4-0.1,0.7-0.2,1.1-0.2
				c0.8,0,1,0.4,1,1.3V58c0,0.1-0.1,0.2-0.2,0.2h-0.1c-0.1,0-0.1,0-0.1-0.1l-0.1-0.2c-0.3,0.3-0.6,0.4-1,0.4c-0.3,0-0.5-0.1-0.7-0.3
				c-0.2-0.2-0.3-0.5-0.3-0.7C15.7,56.6,16.1,56.1,17,56.1L17,56.1z M16.8,57.8c0.3,0,0.7-0.2,0.9-0.4v-0.7
				c-0.2-0.1-0.4-0.1-0.7-0.1c-0.4,0-0.8,0.2-0.8,0.6c0,0.2,0.1,0.3,0.2,0.4C16.5,57.7,16.6,57.8,16.8,57.8L16.8,57.8z M18.9,55.1
				c0-0.1,0.1-0.1,0.2-0.2h0.1c0,0,0.1,0,0.1,0c0,0,0,0,0,0.1l0.1,0.2c0.3-0.3,0.7-0.4,1.1-0.4c0.9,0,1.2,0.6,1.2,1.4V58
				c0,0.1-0.1,0.2-0.2,0.2h-0.2c-0.1,0-0.2-0.1-0.2-0.2v-1.8c0-0.6-0.2-0.9-0.7-0.9c-0.4,0-0.7,0.2-1,0.5V58c0,0.1-0.1,0.2-0.2,0.2
				h-0.2c-0.1,0-0.2-0.1-0.2-0.2V55.1z M22.4,53.4c0-0.1,0.1-0.2,0.2-0.2h0.2c0.1,0,0.1,0.1,0.2,0.2v2.7l1.3-1.1
				c0.1-0.1,0.1-0.1,0.2-0.1h0.4c0,0,0.1,0,0.1,0.1c0,0,0,0.1,0,0.1l-1.5,1.2l1.6,1.6c0,0,0,0.1,0,0.1c0,0-0.1,0.1-0.1,0.1h-0.4
				c-0.1,0-0.1,0-0.2-0.1l-1.5-1.6V58c0,0.1-0.1,0.2-0.2,0.2h-0.2c-0.1,0-0.2-0.1-0.2-0.2V53.4z M25.6,53.7c0-0.1,0-0.2,0.1-0.3
				c0.1-0.1,0.2-0.1,0.3-0.1c0.2,0,0.4,0.2,0.4,0.4s-0.2,0.4-0.4,0.4C25.7,54.1,25.6,53.9,25.6,53.7L25.6,53.7z M25.7,55.1
				c0-0.1,0.1-0.1,0.2-0.2H26c0.1,0,0.1,0.1,0.2,0.2V58c0,0.1-0.1,0.1-0.2,0.2h-0.2c-0.1,0-0.2-0.1-0.2-0.2V55.1z M27,55.1
				c0-0.1,0.1-0.1,0.2-0.2h0.1c0,0,0.1,0,0.1,0c0,0,0,0,0,0.1l0.1,0.2c0.3-0.3,0.7-0.4,1.1-0.4c0.9,0,1.2,0.6,1.2,1.4V58
				c0,0.1-0.1,0.2-0.2,0.2h-0.2c-0.1,0-0.2-0.1-0.2-0.2v-1.8c0-0.6-0.2-0.9-0.7-0.9c-0.4,0-0.7,0.2-1,0.5V58c0,0.1-0.1,0.2-0.2,0.2
				h-0.2c-0.1,0-0.2-0.1-0.2-0.2V55.1z M33.2,58.2c0,1.1-0.7,1.5-1.4,1.5c-0.4,0-0.8-0.2-1.1-0.4c-0.1,0-0.1-0.1,0-0.2l0.1-0.2
				c0-0.1,0.1-0.1,0.2,0c0.2,0.2,0.5,0.3,0.8,0.3c0.5,0,0.9-0.3,0.9-1V58c-0.3,0.2-0.6,0.3-0.9,0.3c-0.9,0-1.5-0.7-1.5-1.7
				c0-0.9,0.6-1.7,1.5-1.7c0.3,0,0.7,0.1,1,0.3l0-0.1c0-0.1,0.1-0.1,0.2-0.1H33c0.1,0,0.2,0.1,0.2,0.2L33.2,58.2z M31.9,57.8
				c0.3,0,0.6-0.1,0.8-0.3v-1.8c-0.2-0.2-0.5-0.4-0.9-0.4c-0.6,0-1,0.6-1,1.2C30.8,57.3,31.3,57.8,31.9,57.8L31.9,57.8z M35.1,55.1
				c0-0.1,0.1-0.1,0.2-0.2h0.1c0.1,0,0.1,0,0.1,0.1l0.1,0.2c0.3-0.3,0.6-0.4,1-0.4c0.4,0,0.8,0.2,0.9,0.5c0.3-0.3,0.7-0.5,1.2-0.5
				c0.9,0,1.2,0.6,1.2,1.4V58c0,0.1-0.1,0.2-0.2,0.2h-0.2c-0.1,0-0.2-0.1-0.2-0.2v-1.7c0-0.6-0.2-1-0.7-1c-0.4,0-0.7,0.2-0.9,0.5
				c0,0.2,0,0.4,0,0.5V58c0,0.1-0.1,0.2-0.2,0.2h-0.2c-0.1,0-0.2-0.1-0.2-0.2v-1.7c0-0.6-0.2-1-0.7-1c-0.3,0-0.7,0.2-0.9,0.5V58
				c0,0.1-0.1,0.2-0.2,0.2h-0.2c-0.1,0-0.2-0.1-0.2-0.2V55.1z M41.6,56.1c0.2,0,0.5,0,0.7,0.1c0-0.6-0.1-0.9-0.5-0.9
				c-0.3,0-0.6,0.1-1,0.2c-0.1,0-0.1,0-0.2-0.1l-0.1-0.2c0-0.1,0-0.1,0.1-0.2c0.4-0.1,0.7-0.2,1.1-0.2c0.8,0,1,0.4,1,1.3V58
				c0,0.1-0.1,0.2-0.2,0.2h-0.1c-0.1,0-0.1,0-0.1-0.1l-0.1-0.2c-0.3,0.3-0.6,0.4-1,0.4c-0.3,0-0.5-0.1-0.7-0.3
				c-0.2-0.2-0.3-0.5-0.3-0.7C40.3,56.6,40.8,56.1,41.6,56.1L41.6,56.1z M41.4,57.8c0.3,0,0.7-0.2,0.9-0.4v-0.7
				c-0.2-0.1-0.5-0.1-0.7-0.1c-0.4,0-0.8,0.2-0.8,0.6c0,0.2,0.1,0.3,0.2,0.4S41.2,57.8,41.4,57.8L41.4,57.8z M44.9,54.9
				c0.3,0,0.6,0.1,0.9,0.2v-1.6c0-0.1,0.1-0.2,0.2-0.2h0.2c0.1,0,0.2,0.1,0.2,0.2V58c0,0.1-0.1,0.2-0.2,0.2H46
				c-0.1,0-0.1-0.1-0.1-0.1l0-0.2c-0.3,0.3-0.6,0.4-1,0.4c-0.8,0-1.4-0.8-1.4-1.7C43.4,55.6,43.9,54.9,44.9,54.9z M44.9,57.8
				c0.4,0,0.7-0.2,0.9-0.5v-1.7c-0.3-0.1-0.5-0.2-0.8-0.2c-0.7,0-1.1,0.6-1.1,1.2C43.9,57.2,44.3,57.8,44.9,57.8z M48.4,54.9
				c0.4,0,0.8,0.1,1,0.4c0.3,0.3,0.4,0.7,0.4,1c0,0.1,0,0.1,0,0.2c0,0.1-0.1,0.1-0.1,0.1h-2.3c0,0.6,0.5,1.1,1.1,1.1
				c0.3,0,0.6-0.1,0.9-0.3c0.1-0.1,0.2-0.1,0.2,0l0.1,0.1c0.1,0.1,0.1,0.1,0,0.2c-0.3,0.2-0.8,0.4-1.2,0.4c-1,0-1.6-0.8-1.6-1.7
				C46.9,55.6,47.5,54.9,48.4,54.9L48.4,54.9z M49.4,56.3c0-0.5-0.4-0.9-0.9-0.9c-0.5,0-1,0.4-1,0.9H49.4z M53.3,54.9
				c0.4,0,0.8,0.1,1,0.4c0.3,0.3,0.4,0.7,0.4,1v0.2c0,0.1-0.1,0.1-0.1,0.1h-2.3c0,0.6,0.5,1.1,1.1,1.1c0.3,0,0.6-0.1,0.9-0.3
				c0.1-0.1,0.2-0.1,0.2,0l0.1,0.1c0.1,0.1,0.1,0.1,0,0.2c-0.3,0.2-0.8,0.4-1.2,0.4c-1,0-1.6-0.8-1.6-1.7
				C51.8,55.6,52.3,54.9,53.3,54.9L53.3,54.9z M54.3,56.3c0-0.5-0.4-0.9-0.9-0.9c-0.5,0-1,0.4-1,0.9H54.3z M56.7,56.1
				c0.2,0,0.5,0,0.7,0.1c0-0.6-0.1-0.9-0.5-0.9c-0.3,0-0.6,0.1-1,0.2c-0.1,0-0.1,0-0.2-0.1l-0.1-0.2c0-0.1,0-0.1,0.1-0.2
				c0.4-0.1,0.7-0.2,1.1-0.2c0.8,0,1,0.4,1,1.3V58c0,0.1-0.1,0.2-0.2,0.2h-0.1c-0.1,0-0.1,0-0.1-0.1l-0.1-0.2
				c-0.3,0.3-0.6,0.4-1,0.4c-0.3,0-0.5-0.1-0.7-0.3c-0.2-0.2-0.3-0.5-0.3-0.7C55.4,56.6,55.9,56.1,56.7,56.1L56.7,56.1z M56.5,57.8
				c0.3,0,0.7-0.2,0.9-0.4v-0.7c-0.2-0.1-0.4-0.1-0.7-0.1c-0.4,0-0.8,0.2-0.8,0.6c0,0.2,0.1,0.3,0.2,0.4
				C56.2,57.7,56.3,57.8,56.5,57.8L56.5,57.8z M58.5,57.9c0,0,0-0.1,0-0.1l0.1-0.2c0-0.1,0.1-0.1,0.2,0c0.2,0.2,0.5,0.3,0.8,0.3
				c0.3,0,0.5-0.2,0.5-0.4c0-0.3-0.2-0.4-0.7-0.7c-0.4-0.2-0.9-0.4-0.9-1c0-0.3,0.3-0.8,1-0.8c0.3,0,0.6,0.1,0.9,0.3
				c0,0,0.1,0.1,0.1,0.1c0,0,0,0.1,0,0.1l-0.1,0.1c0,0-0.1,0.1-0.1,0.1c0,0-0.1,0-0.1,0c-0.2-0.1-0.4-0.2-0.7-0.2
				c-0.4,0-0.5,0.2-0.5,0.4c0,0.3,0.2,0.4,0.6,0.6c0.6,0.3,1,0.5,1,1.1c0,0.5-0.4,0.9-1.1,0.9C59.2,58.3,58.8,58.1,58.5,57.9
				L58.5,57.9z M61.2,55.1c0-0.1,0-0.2,0.1-0.2h0.3c0.1,0,0.1,0,0.1,0.1l0.9,2.6l1.1-2.6c0-0.1,0.1-0.1,0.1-0.1h0.3
				c0.1,0,0.2,0.1,0.1,0.2l-2,4.6c0,0.1-0.1,0.1-0.1,0.1h-0.3c-0.1,0-0.2-0.1-0.1-0.2l0.6-1.5L61.2,55.1z"/>
		</g>
	</g>
</g>
</svg>
