<?xml version="1.0" encoding="UTF-8"?>
<svg width="961px" height="265px" viewBox="0 0 961 265" version="1.1" xmlns="http://www.w3.org/2000/svg" xmlns:xlink="http://www.w3.org/1999/xlink">
    <!-- Generator: Sketch 55.2 (78181) - https://sketchapp.com -->
    <title>Artboard</title>
    <desc>Created with Sketch.</desc>
    <defs>
        <path d="M809.693806,81.142667 C810.881105,73.3247018 817.533889,67.518961 825.413362,67.4245491 C833.046767,67.5900644 839.326361,73.5075074 839.971037,81.142667 L809.693806,81.142667 Z M863.550371,86.6642094 C863.662737,76.6466654 859.73059,67.0099087 852.649445,59.9486342 C845.568299,52.8873598 835.941015,49.002735 825.960129,49.1794524 C814.824989,49.2502136 804.184028,53.8031161 796.423367,61.8172212 C788.662706,69.8313264 784.431737,80.6360331 784.679209,91.8085036 C784.365308,102.996695 788.575562,113.836314 796.35152,121.859755 C804.127477,129.883196 814.807434,134.407694 825.960129,134.403259 C836.894633,134.675367 847.523083,130.764316 855.690593,123.46306 C856.469856,122.873124 856.960548,121.976914 857.038907,121.000467 C857.117267,120.02402 856.775814,119.060551 856.100668,118.353062 L847.830815,108.853265 C846.258859,107.275681 844.686904,107.687225 842.704873,108.853265 C838.141915,112.199027 832.636421,114.000725 826.985317,113.997559 C816.81229,114.142974 808.330474,106.220444 807.745948,96.0268248 L859.244579,96.0268248 C861.187428,95.9338748 862.812965,94.5153042 863.174468,92.5972954 C863.463598,90.6334943 863.589333,88.6489465 863.550371,86.6642094 L863.550371,86.6642094 Z M736.5637,48.9393854 C725.931102,48.9082666 715.733341,53.1725464 708.268499,60.771262 L705.534664,53.2605925 C705.058311,51.7881635 703.658094,50.8185548 702.117369,50.8942172 L694.667667,50.8942172 C693.592854,50.8569996 692.549101,51.2596476 691.775863,52.0097869 C691.002626,52.7599262 690.566912,53.7931687 690.566912,54.8724713 L690.566912,128.264402 C690.716948,130.390143 692.411598,132.076198 694.530975,132.208361 L709.464553,132.208361 C713.394441,132.208361 714.556322,131.042321 714.556322,128.264402 L714.556322,83.6805188 C717.676455,75.994552 725.150309,70.9941435 733.419788,71.0598504 C743.261597,71.0598504 748.387539,77.9189093 748.387539,88.4132694 L748.387539,128.092925 C748.387539,130.271114 750.14701,132.036884 752.317428,132.036884 L768.891307,132.036884 C770.997361,131.888315 772.673157,130.206519 772.821196,128.092925 L772.821196,89.4421283 C772.308602,68.1447503 762.056718,48.8022042 736.5637,48.8022042 L736.5637,48.9393854 Z M635.138393,111.939842 C629.810274,111.762181 624.775364,109.448902 621.15968,105.51735 C617.543995,101.585797 615.649191,96.363979 615.899024,91.0197118 C615.600991,83.9212136 619.204675,77.2301022 625.28537,73.5916884 C631.366065,69.9532747 638.944894,69.9532747 645.025589,73.5916884 C651.106284,77.2301022 654.709968,83.9212136 654.411935,91.0197118 C654.65235,96.3672867 652.749722,101.588914 649.128633,105.519362 C645.507543,109.44981 640.469365,111.761959 635.138393,111.939842 L635.138393,111.939842 Z M635.138393,48.8022042 C617.937904,48.397585 602.209188,58.4955841 595.364732,74.3373075 C588.520277,90.179031 591.925855,108.603351 603.976516,120.92742 C616.027178,133.251489 634.318281,137.016107 650.229758,130.447119 C666.141236,123.878132 676.498041,108.286344 676.419759,91.0197118 C676.207827,68.0971857 657.971093,49.4466945 635.138393,48.8022042 L635.138393,48.8022042 Z M545.536926,48.8022042 C534.799741,49.0722446 524.609274,53.6120737 517.207553,61.4228726 C510.947275,53.2412136 501.170161,48.5517853 490.894384,48.8022042 C480.647538,48.9936766 470.892689,53.2474196 463.761064,60.6340808 L460.617153,64.0636103 C452.549916,52.7030855 439.524419,45.937236 425.624055,45.8871042 C423.461374,45.9057354 421.712731,47.6606389 421.694166,49.831063 L421.694166,64.0636103 C421.634043,65.1269653 422.028739,66.165568 422.779167,66.9186831 C423.529596,67.6717981 424.564493,68.0679071 425.624055,68.0075692 C437.037819,68.0075692 446.127823,78.6391105 446.127823,90.4709871 L446.127823,128.092925 C446.275862,130.206519 447.951658,131.888315 450.057712,132.037481 L466.563245,132.037481 C468.67591,131.902935 470.359663,130.213154 470.493134,128.092925 L470.493134,83.5090423 C472.697616,75.9141821 479.698629,70.7429885 487.579608,70.8883739 C497.831492,70.8883739 502.513186,77.7474328 502.513186,88.241793 L502.513186,128.092925 C502.513186,130.271114 504.272657,132.037481 506.443074,132.037481 L521.376652,132.037481 C523.489317,131.902935 525.17307,130.213154 525.306541,128.092925 L525.306541,86.9385718 C525.306541,83.5090423 524.930639,79.050654 524.930639,79.050654 C528.772558,73.4159654 535.217776,70.1430089 542.017112,70.3739445 C552.268996,70.3739445 556.95069,77.2330034 556.95069,87.7273635 L556.95069,128.092925 C556.937822,130.108252 558.44102,131.809101 560.436331,132.037481 L576.941864,132.037481 C577.995927,132.055284 579.013157,131.647898 579.765003,130.906259 C580.516849,130.164619 580.940099,129.150921 580.940099,128.092925 L580.940099,89.4421283 C580.940099,68.1447503 571.508366,48.8022042 545.571099,48.8022042 L545.536926,48.8022042 Z M956.364095,50.757036 L940.234464,50.757036 C937.87653,50.757036 936.304575,51.1685795 935.518597,53.1234113 L915.49325,98.9076296 L915.083175,98.9076296 L894.579406,53.1234113 C893.969651,51.756374 892.652006,50.8439437 891.162112,50.757036 L873.084623,50.757036 C871.783642,50.5728163 870.492628,51.1534517 869.763826,52.2505687 C869.035024,53.3476858 868.997509,54.7669792 869.667328,55.9013302 L902.678395,125.72655 L897.962528,136.015138 C896.751493,138.531326 895.16082,140.844902 893.246661,142.874197 C883.404853,152.716947 867.685297,153.505739 866.523417,153.505739 C865.646656,153.522658 864.814901,153.898569 864.221175,154.546234 C863.627448,155.1939 863.32337,156.05701 863.379506,156.935268 L863.379506,171.13352 C863.379506,174.563049 864.541386,175.489022 868.471275,175.866271 C883.727885,176.519153 898.511455,170.471871 908.966217,159.301643 C913.321025,154.909207 916.810772,149.731476 919.252274,144.040237 L959.747216,55.6612631 C960.909097,53.7064313 959.337141,50.9285125 956.329922,50.9285125 L956.364095,50.757036 Z M283.327904,48.8019722 C272.684231,48.765735 262.473878,53.0301299 254.99853,60.6340808 L252.264695,53.1234113 C251.788342,51.6509823 250.388125,50.6813736 248.8474,50.757036 L241.261006,50.757036 C240.188443,50.7560181 239.162068,51.1949966 238.419956,51.9721468 C237.677844,52.749297 237.284483,53.7970863 237.331117,54.8724713 L237.331117,128.264402 C237.544856,130.317519 239.207738,131.913796 241.261006,132.036884 L256.297102,132.036884 C260.226991,132.036884 261.388872,130.870844 261.388872,128.092925 L261.388872,83.5090423 C264.519628,75.8472583 271.966777,70.855675 280.218165,70.8883739 C290.025801,70.8883739 295.151743,77.7474328 295.151743,88.241793 L295.151743,128.092925 C295.151743,130.271114 296.911214,132.036884 299.081632,132.036884 L315.587165,132.036884 C317.693219,131.888315 319.369015,130.206519 319.517054,128.092925 L319.517054,89.4421283 C319.517054,68.1447503 309.26517,48.8019722 283.362076,48.8019722 L283.327904,48.8019722 Z M136.418404,48.8022042 C128.814875,48.702463 121.378851,51.045806 115.197004,55.4897866 L115.197004,9.73986366 C115.041713,7.57695959 113.28966,5.87773727 111.130424,5.79590478 L93.8389124,5.79590478 C91.7328587,5.94447411 90.0570629,7.62626975 89.9090235,9.73986366 L89.9090235,128.092925 C90.0424947,130.213154 91.7262476,131.902935 93.8389124,132.036884 L110.754521,132.036884 C113.898432,132.036884 115.060313,130.459301 115.060313,128.092925 L115.060313,85.0866259 C116.710425,76.6483382 124.196799,70.6435982 132.761899,70.8883739 C142.569535,70.8883739 148.857357,77.9874999 148.857357,89.0305847 L148.857357,128.092925 C148.857357,130.271114 150.616828,132.036884 152.787246,132.036884 L169.326952,132.036884 C171.433006,131.888315 173.108802,130.206519 173.256841,128.092925 L173.256841,89.4421283 C172.060788,68.8649515 161.843077,48.8022042 136.281713,48.8022042 L136.418404,48.8022042 Z M212.145655,50.757036 L195.264219,50.757036 C194.1976,50.7653308 193.180159,51.2083868 192.445504,51.9844769 C191.710848,52.760567 191.322095,53.8030151 191.368503,54.8724713 L191.368503,128.264402 C191.501974,130.38463 193.185727,132.074412 195.298392,132.208361 L212.179828,132.208361 C214.299205,132.076198 215.993855,130.390143 216.14389,128.264402 L216.14389,54.8724713 C216.125131,52.6887471 214.355843,50.9284313 212.179828,50.9285125 L212.145655,50.757036 Z M70.6354814,109.539171 C67.3143933,110.573581 63.8607845,111.116584 60.3835973,111.15105 C51.3277664,111.15105 45.8259219,104.291991 45.8259219,92.5972954 L45.8259219,72.0201186 L66.6714196,72.0201186 C68.8341008,72.0014873 70.5827437,70.2465839 70.6013085,68.0761597 L70.6013085,54.3580419 C70.6614312,53.2946869 70.2667353,52.2560842 69.516307,51.5029691 C68.7658787,50.7498541 67.7309811,50.3537451 66.6714196,50.414083 L45.8259219,50.414083 L45.8259219,28.293618 C45.8744618,26.2899097 44.3925852,24.5796503 42.4086272,24.3496592 L25.8347479,24.3496592 C23.7220831,24.4836081 22.0383301,26.1733893 21.904859,28.293618 L21.904859,50.757036 L7.3471836,50.757036 C6.25545388,50.6908072 5.18988894,51.1094586 4.4331365,51.9019405 C3.67638407,52.6944224 3.30492631,53.7806414 3.4172947,54.8724713 L3.4172947,68.5905892 C3.4172947,70.7687775 5.17676589,72.534548 7.3471836,72.534548 L21.904859,72.534548 L21.904859,92.5972954 C21.904859,119.416216 38.0003171,133.751649 59.2558901,133.751649 C63.3873626,133.734756 67.4912652,133.075318 71.4214592,131.796817 C73.095653,131.219568 74.211759,129.6293 74.1894679,127.852858 L74.1894679,112.31709 C74.5653703,109.950714 73.4034901,108.88756 70.7721732,109.539171 L70.6354814,109.539171 Z M416.909953,126.138093 L384.274789,83.1317941 C386.860172,74.5244119 394.597757,68.5076915 403.548331,68.1447503 C404.607893,68.2050883 405.64279,67.8089793 406.393218,67.0558642 C407.143647,66.3027492 407.538343,65.2641464 407.47822,64.2007915 L407.47822,49.9682442 C407.459655,47.79782 405.711012,46.0429166 403.548331,46.0242853 C387.4187,46.0242853 374.843056,53.9122031 363.429291,70.8883739 L363.429291,9.73986366 C363.285598,7.65021002 361.647106,5.97674816 359.567748,5.79590478 L342.276237,5.79590478 C340.15686,5.92806692 338.46221,7.61412284 338.312175,9.73986366 L338.312175,128.092925 C338.460215,130.206519 340.13601,131.888315 342.242064,132.036884 L359.533575,132.036884 C361.64624,131.902935 363.329993,130.213154 363.463464,128.092925 L363.463464,93.7976307 L389.024829,130.116348 C389.959539,131.005824 391.160905,131.56043 392.442123,131.693931 L414.039426,131.693931 C415.383493,131.770496 416.647112,131.047986 417.266805,129.848585 C417.886499,128.649183 417.74678,127.196411 416.909953,126.138093 L416.909953,126.138093 Z M203.499899,3.42952946 C195.039182,3.44844044 188.190398,10.337087 188.190419,18.8281167 C188.096945,22.9403847 189.676473,26.9134741 192.564978,29.8317329 C195.453484,32.7499917 199.401769,34.3616555 203.499899,34.2952946 C212.037185,34.3168355 219.030942,27.4959656 219.253628,18.9310026 C219.245119,14.7686307 217.572656,10.7837686 214.611142,7.86967598 C211.649628,4.95558339 207.646784,3.35601287 203.499899,3.42952946 L203.499899,3.42952946 Z M3.5878042,179.021438 C3.56828663,177.967531 4.38460927,177.087601 5.43349857,177.031952 L8.09898844,177.031952 C9.23089932,177.011631 10.179033,177.887641 10.2518841,179.021438 L10.2518841,200.010158 C13.7823094,198.239168 17.6850114,197.345272 21.6314754,197.403716 C33.8995634,197.403716 41.0417093,206.800626 41.0417093,218.838275 C41.0417093,230.875923 33.1135856,240.547196 22.6224909,240.547196 C17.7407249,240.601395 13.0446626,238.671714 9.60259811,235.19713 L9.0900039,237.872163 C9.01946764,238.809043 8.24908889,239.537576 7.31301066,239.552633 L5.53601741,239.552633 C4.46790113,239.534305 3.60642181,238.669741 3.5878042,237.597801 L3.5878042,179.021438 Z M21.7339943,234.579815 C29.2178697,234.579815 34.172947,226.96626 34.172947,218.941161 C34.172947,210.916062 29.4570803,203.405392 20.5037682,203.405392 C16.9395213,203.49532 13.4389759,204.37359 10.2518841,205.977539 L10.2518841,227.789347 C12.8271825,231.712794 17.0663099,234.219795 21.7339943,234.579815 L21.7339943,234.579815 Z M65.8854418,213.385323 C68.8573957,213.457891 71.8082807,213.907293 74.6678892,214.722839 C74.6678892,207.143579 73.7793926,203.405392 67.8332998,203.405392 C63.6610711,203.510838 59.536525,204.322468 55.6335577,205.806063 C54.5400234,206.251902 54.0274292,205.806063 53.6515268,204.742909 L52.865549,202.342238 C52.5238195,201.107607 53.1389326,200.558883 54.129948,200.113044 C58.6505021,198.299518 63.4776004,197.379551 68.345894,197.403716 C78.8369887,197.403716 81.0582303,202.582305 81.0582303,214.551363 L81.0582303,237.426324 C81.0399679,238.498265 80.1784886,239.362828 79.1103723,239.381156 L77.4358979,239.381156 C76.3423636,239.381156 76.0006341,238.763841 75.7272505,237.872163 L74.9412728,235.094244 C71.5632207,238.488653 66.9750344,240.389754 62.1947635,240.37572 C58.672671,240.45401 55.2818406,239.03388 52.8600299,236.466194 C50.4382192,233.898508 49.2113092,230.422753 49.4824272,226.897669 C49.4140814,219.215523 55.2918282,213.385323 65.8854418,213.385323 L65.8854418,213.385323 Z M63.2882978,234.579815 C67.7113926,234.580599 71.8865711,232.529842 74.5995433,229.023977 L74.5995433,220.62163 C71.8419967,219.46893 68.8712778,218.919425 65.8854418,219.009751 C60.1785597,219.009751 55.9069413,221.78767 55.9069413,227.069145 C55.8101754,229.071258 56.5531904,231.022562 57.955732,232.449674 C59.3582735,233.876786 61.2921834,234.649304 63.2882978,234.579815 L63.2882978,234.579815 Z M90.9683849,200.250225 C91.0198758,199.192745 91.8625354,198.347069 92.9162429,198.295393 L94.3515067,198.295393 C94.7326628,198.247104 95.1171989,198.354185 95.4190647,198.592675 C95.7209305,198.831165 95.9149245,199.181152 95.9576352,199.564319 L96.8461318,202.685191 C100.612624,199.317821 105.471152,197.440591 110.515311,197.403716 C122.441669,197.403716 125.380543,205.188747 125.380543,215.820289 L125.380543,237.597801 C125.327714,238.667888 124.465538,239.518232 123.398512,239.552633 L120.733022,239.552633 C119.664905,239.534305 118.803426,238.669741 118.785164,237.597801 L118.785164,214.928611 C118.785164,207.040693 116.119674,203.405392 110.071062,203.405392 C105.301326,203.597456 100.802695,205.68213 97.5637637,209.201297 L97.5637637,237.700687 C97.5109353,238.770773 96.6487593,239.621118 95.5817327,239.655519 L92.9162429,239.655519 C91.8481266,239.637191 90.9866473,238.772627 90.9683849,237.700687 L90.9683849,200.250225 Z M135.393216,179.021438 C135.427494,177.950591 136.274805,177.085328 137.341074,177.032311 L140.109083,177.032311 C141.168284,177.100978 142.006948,177.957411 142.056941,179.021438 L142.056941,213.934048 L159.143414,199.564319 C159.78979,198.846045 160.67866,198.393909 161.638039,198.295393 L166.62729,198.295393 C167.223683,198.285865 167.763789,198.64751 167.984002,199.203824 C168.204215,199.760139 168.058632,200.395156 167.618305,200.79895 L148.652319,216.609081 L169.156088,236.980486 C169.628122,237.401619 169.779205,238.078361 169.531344,238.661364 C169.283483,239.244367 168.69213,239.603203 168.062553,239.552633 L162.799919,239.552633 C162.0516,239.508941 161.335216,239.233344 160.749543,238.763841 L141.954422,218.838275 L141.954422,237.597801 C141.919034,238.662367 141.067332,239.517118 140.006564,239.552633 L137.341074,239.552633 C136.272958,239.534305 135.411478,238.669741 135.393216,237.597801 L135.393216,179.021438 Z M175.44391,182.862511 C175.397707,181.556506 175.880181,180.287337 176.781436,179.344092 C177.682691,178.400847 178.925984,177.863843 180.228122,177.855398 C182.926128,177.79919 185.158804,179.948408 185.215208,182.656065 C185.271611,185.363722 183.130388,187.604707 180.432398,187.661709 C177.734409,187.718712 175.501105,185.570151 175.44391,182.862511 L175.44391,182.862511 Z M177.118384,200.250225 C177.169875,199.192745 178.012535,198.347069 179.066242,198.295393 L181.765905,198.295393 C182.806279,198.376689 183.632757,199.206126 183.713763,200.250225 L183.713763,237.597801 C183.662272,238.655281 182.819613,239.500957 181.765905,239.552633 L179.066242,239.552633 C177.998126,239.534305 177.136647,238.669741 177.118384,237.597801 L177.118384,200.250225 Z M194.033993,200.250225 C194.085484,199.192745 194.928144,198.347069 195.981851,198.295393 L197.417115,198.295393 C197.798271,198.247104 198.182807,198.354185 198.484673,198.592675 C198.786539,198.831165 198.980533,199.181152 199.023243,199.564319 L199.91174,202.685191 C203.678232,199.317821 208.536761,197.440591 213.580919,197.403716 C225.507277,197.403716 228.446151,205.188747 228.446151,215.820289 L228.446151,237.597801 C228.393322,238.667888 227.531146,239.518232 226.46412,239.552633 L223.79863,239.552633 C222.730514,239.534305 221.869034,238.669741 221.850772,237.597801 L221.850772,214.928611 C221.850772,207.040693 219.185282,203.405392 213.13667,203.405392 C208.366934,203.597456 203.868304,205.68213 200.629372,209.201297 L200.629372,237.700687 C200.576543,238.770773 199.714367,239.621118 198.647341,239.655519 L195.981851,239.655519 C194.913735,239.637191 194.052255,238.772627 194.033993,237.700687 L194.033993,200.250225 Z M273.383576,239.826995 C273.383576,253.956656 264.73782,259.135246 255.408606,259.135246 C250.115441,259.04493 245.008574,257.159261 240.919276,253.78518 C240.246888,253.16366 240.065691,252.170505 240.475028,251.350214 L242.286194,248.778067 C242.901307,247.783503 243.960669,247.783503 244.951684,248.778067 C247.745576,251.409842 251.377105,252.964842 255.203568,253.167865 C261.696428,253.167865 266.685678,249.738335 266.685678,239.929881 L266.685678,236.980486 C263.345578,239.348384 259.361272,240.629364 255.271914,240.650082 C243.994842,240.650082 235.793334,231.081695 235.793334,219.044047 C235.793334,207.006398 243.789804,197.506602 255.032703,197.506602 C259.472508,197.523593 263.783453,199.00589 267.300791,201.724923 L267.915904,199.838682 C268.360153,199.015594 268.804401,198.398279 269.897935,198.398279 L271.128161,198.398279 C272.202046,198.44484 273.07717,199.279184 273.178538,200.353111 L273.383576,239.826995 Z M256.297102,234.476929 C259.962985,234.298189 263.509419,233.111812 266.548987,231.0474 L266.548987,208.481096 C263.755134,205.399418 259.831803,203.591691 255.681989,203.473983 C247.514655,203.473983 242.422886,210.813176 242.422886,218.838275 C242.627924,227.789347 248.403152,234.476929 256.297102,234.476929 L256.297102,234.476929 Z M296.928736,200.250225 C296.980227,199.192745 297.822887,198.347069 298.876594,198.295393 L300.311858,198.295393 C301.1007,198.214152 301.81148,198.775706 301.917987,199.564319 L302.806483,202.685191 C306.104402,199.192979 310.726334,197.272748 315.51882,197.403716 C320.481153,196.980169 325.225033,199.535435 327.616043,203.919822 C331.586485,200.063645 336.796142,197.753462 342.31041,197.403716 C354.236769,197.403716 357.073123,205.188747 357.073123,215.820289 L357.073123,237.597801 C357.054861,238.669741 356.193381,239.534305 355.125265,239.552633 L352.459775,239.552633 C351.391659,239.534305 350.53018,238.669741 350.511917,237.597801 L350.511917,215.820289 C350.511917,208.138143 348.017292,203.405392 341.763643,203.405392 C337.173176,203.648654 332.874012,205.737938 329.837284,209.201297 C330.225301,211.466421 330.408303,213.762133 330.384052,216.060356 L330.384052,237.837868 C330.365789,238.909808 329.50431,239.774372 328.436194,239.7927 L325.770704,239.7927 C324.703677,239.758299 323.841501,238.907955 323.788673,237.837868 L323.788673,215.820289 C323.788673,207.932371 321.225702,203.405392 314.527804,203.405392 C310.14388,203.48329 306.05323,205.631262 303.489942,209.201297 L303.489942,237.700687 C303.454554,238.765253 302.602853,239.620004 301.542084,239.655519 L298.876594,239.655519 C297.808478,239.637191 296.946999,238.772627 296.928736,237.700687 L296.928736,200.250225 Z M380.208208,213.385323 C383.191569,213.455738 386.154024,213.905155 389.024829,214.722839 C389.024829,207.143579 388.136332,203.405392 382.190239,203.405392 C378.029459,203.514027 373.916674,204.325616 370.02467,205.806063 C368.931136,206.251902 368.418542,205.806063 368.042639,204.742909 L367.154143,202.307943 C366.812413,201.073312 367.427526,200.524587 368.418542,200.078749 C372.92007,198.285611 377.723052,197.377462 382.566142,197.403716 C393.057236,197.403716 395.278478,202.582305 395.278478,214.551363 L395.278478,237.426324 C395.260216,238.498265 394.398736,239.362828 393.33062,239.381156 L391.621973,239.381156 C390.562611,239.381156 390.220882,238.763841 389.947498,237.872163 L389.127347,235.094244 C385.768474,238.496425 381.187207,240.399761 376.415011,240.37572 C372.892919,240.45401 369.502088,239.03388 367.080278,236.466194 C364.658467,233.898508 363.431557,230.422753 363.702675,226.897669 C363.771021,219.215523 369.648768,213.385323 380.208208,213.385323 L380.208208,213.385323 Z M377.645237,234.579815 C382.067137,234.575427 386.240174,232.525722 388.956483,229.023977 L388.956483,220.62163 C386.187774,219.466155 383.205332,218.916637 380.208208,219.009751 C374.535499,219.009751 370.263881,221.78767 370.263881,227.069145 C370.167115,229.071258 370.91013,231.022562 372.312671,232.449674 C373.715213,233.876786 375.649123,234.649304 377.645237,234.579815 L377.645237,234.579815 Z M422.240933,197.403716 C426.185308,197.364964 430.083468,198.257819 433.620524,200.010158 L433.620524,179.021438 C433.654802,177.950591 434.502113,177.085328 435.568382,177.032311 L438.063008,177.032311 C439.155352,177.065437 440.043377,177.926934 440.113384,179.021438 L440.113384,237.597801 C440.058708,238.693879 439.156542,239.554005 438.063008,239.552633 L436.456879,239.552633 C435.568382,239.552633 435.055788,238.866727 434.679886,237.872163 L434.167292,235.19713 C430.621781,238.512891 425.991917,240.415371 421.147399,240.547196 C410.895515,240.547196 402.72818,230.635856 402.72818,218.838275 C402.72818,207.040693 409.870326,197.403716 422.240933,197.403716 Z M421.967549,234.579815 C426.664332,234.305925 430.968805,231.860947 433.620524,227.960823 L433.620524,205.771767 C430.309238,204.317348 426.743434,203.536357 423.12943,203.473983 C414.312809,203.473983 409.460251,210.778881 409.460251,219.009751 C409.460251,227.240622 414.483674,234.579815 421.967549,234.579815 Z M467.793471,197.403716 C472.769326,197.260529 477.584559,199.178963 481.107697,202.708227 C484.630835,206.23749 486.551264,211.066431 486.417728,216.060356 C486.400249,216.898287 486.331775,217.734363 486.21269,218.563912 C486.159035,219.552167 485.353403,220.330739 484.367351,220.347268 L454.500195,220.347268 C454.675471,227.82846 460.49223,233.948269 467.930163,234.476929 C471.897931,234.523484 475.780998,233.324417 479.036371,231.0474 C480.471635,230.052836 481.086748,229.709883 482.180282,231.287467 L483.239643,232.830755 C484.025621,234.065386 484.401524,234.511224 482.863741,235.677264 C478.483006,238.823981 473.214382,240.482329 467.827644,240.410015 C455.388692,240.410015 447.904816,230.601561 447.904816,218.803979 C447.904816,207.006398 455.354519,197.403716 467.793471,197.403716 L467.793471,197.403716 Z M479.822349,215.168678 C479.673492,208.614501 474.325931,203.385012 467.793471,203.405333 C461.053074,203.434335 455.372629,208.460989 454.500195,215.168678 L479.822349,215.168678 Z M530.022408,197.403716 C534.995301,197.260077 539.807377,199.179519 543.3252,202.709937 C546.843022,206.240354 548.755617,211.069658 548.612491,216.060356 L548.612491,218.563912 C548.526429,219.550278 547.719104,220.3163 546.732979,220.347268 L516.83165,220.347268 C517.02275,227.821873 522.830988,233.932717 530.261619,234.476929 C534.239049,234.516966 538.131075,233.318819 541.401999,231.0474 C542.837263,230.052836 543.452376,229.709883 544.511737,231.287467 L545.571099,232.830755 C546.39125,234.065386 546.732979,234.511224 545.229369,235.677264 C540.845405,238.817476 535.57896,240.475139 530.193273,240.410015 C517.720147,240.410015 510.236272,230.601561 510.236272,218.803979 C510.236272,207.006398 517.549282,197.403716 530.022408,197.403716 L530.022408,197.403716 Z M542.017112,215.168678 C541.868527,208.627856 536.541589,203.403693 530.022408,203.405392 C523.28934,203.43646 517.619867,208.466335 516.763304,215.168678 L542.017112,215.168678 Z M573.080321,213.385323 C576.063682,213.455738 579.026137,213.905155 581.896941,214.722839 C581.896941,207.143579 581.008445,203.405392 575.062352,203.405392 C570.891189,203.520523 566.768235,204.33184 562.86261,205.806063 C561.803249,206.251902 561.256481,205.806063 560.914752,204.742909 L560.094601,202.342238 C559.752872,201.107607 560.367985,200.558883 561.324827,200.113044 C565.83845,198.320514 570.652487,197.412468 575.5066,197.438011 C585.997695,197.438011 588.218937,202.6166 588.218937,214.585658 L588.218937,237.46062 C588.200674,238.53256 587.339195,239.397124 586.271079,239.415451 L584.562431,239.415451 C583.50307,239.415451 583.16134,238.798136 582.887957,237.906459 L582.067806,235.12854 C578.708932,238.53072 574.127666,240.434056 569.35547,240.410015 C565.830744,240.487389 562.437177,239.068241 560.010141,236.501913 C557.583104,233.935585 556.348035,230.460453 556.608961,226.931964 C556.608961,219.215523 562.486708,213.385323 573.080321,213.385323 L573.080321,213.385323 Z M570.688215,234.579815 C575.100505,234.575194 579.263025,232.524459 581.965287,229.023977 L581.965287,220.62163 C579.208949,219.464849 576.237343,218.91518 573.251186,219.009751 C567.578477,219.009751 563.306858,221.78767 563.306858,227.069145 C563.210092,229.071258 563.953107,231.022562 565.355649,232.449674 C566.75819,233.876786 568.6921,234.649304 570.688215,234.579815 L570.688215,234.579815 Z M596.044541,235.540083 C595.559401,235.077462 595.447009,234.344301 595.771158,233.756728 L597.035557,231.424648 C597.548151,230.46438 598.265783,230.087131 599.427663,230.910218 C602.355,233.22226 605.955028,234.510867 609.679547,234.579815 C613.848647,234.579815 616.685001,232.590688 616.685001,229.401225 C616.685001,225.457267 613.506917,223.845388 607.526652,220.895992 C602.093153,218.220959 595.873677,215.271564 595.873677,208.206733 C595.873677,203.919822 599.085934,197.403716 608.586013,197.403716 C612.732831,197.313747 616.816527,198.433635 620.341507,200.627473 C620.767544,200.936677 621.053708,201.403093 621.137025,201.924077 C621.220341,202.445062 621.093982,202.977922 620.785755,203.405392 L619.897258,205.085862 C619.633984,205.577908 619.176719,205.936209 618.637214,206.073199 C618.097708,206.210189 617.525671,206.113246 617.060904,205.806063 C614.507485,204.243946 611.576449,203.413676 608.586013,203.405392 C604.075184,203.405392 602.537401,205.977539 602.537401,207.932371 C602.537401,211.601968 605.407929,212.939484 610.363006,215.271564 C617.505152,218.701094 623.656283,221.273241 623.656283,228.749615 C623.656283,235.265721 618.017746,240.547196 609.679547,240.547196 C604.67211,240.638706 599.810541,238.853417 596.044541,235.540083 L596.044541,235.540083 Z M630.388353,200.524587 C629.875759,199.187071 630.388353,198.295393 631.994482,198.295393 L635.616814,198.295393 C636.392118,198.278953 637.097889,198.74207 637.393807,199.461433 L649.285993,232.247735 L663.194382,199.461433 C663.473817,198.728553 664.190343,198.258377 664.971376,198.295393 L668.38867,198.295393 C669.994799,198.295393 670.609912,199.289957 669.994799,200.627473 L644.26257,259.581085 C643.928395,260.278119 643.253303,260.747164 642.485576,260.815715 L639.273319,260.815715 C637.667191,260.815715 636.983732,259.752561 637.598845,258.312159 L645.526969,239.484042 L630.388353,200.524587 Z" id="path-1"></path>
    </defs>
    <g id="Artboard" stroke="none" stroke-width="1" fill="none" fill-rule="evenodd">
        <g id="Branding/Logo">
            <g id="Group">
                <mask id="mask-2" fill="white">
                    <use xlink:href="#path-1"></use>
                </mask>
                <g id="Mask" fill-rule="nonzero"></g>
                <g id="↳-🎨Color" mask="url(#mask-2)" fill="#222222" fill-rule="nonzero">
                    <rect id="Box" x="0" y="0" width="960.259811" height="264.073768"></rect>
                </g>
            </g>
        </g>
    </g>
</svg>