<?xml version="1.0" encoding="utf-8"?>
<!-- Generator: Adobe Illustrator 24.2.1, SVG Export Plug-In . SVG Version: 6.00 Build 0)  -->
<svg version="1.1" id="Layer_1" xmlns="http://www.w3.org/2000/svg" xmlns:xlink="http://www.w3.org/1999/xlink" x="0px" y="0px"
	 viewBox="0 0 298.8 116.8" style="enable-background:new 0 0 298.8 116.8;" xml:space="preserve">
<style type="text/css">
	.st0{fill:#4050FB;}
</style>
<g>
	<path class="st0" d="M94,13.4c0,7.4-6,13.4-13.4,13.4s-13.4-6-13.4-13.4S73.2,0,80.6,0C88-0.1,94,5.9,94,13.4z"/>
	<g>
		<path id="B" class="st0" d="M94.5,13.4c0,7.4-6,13.4-13.5,13.4c-7.4,0-13.5-6-13.5-13.4S73.5,0,81,0C88.5-0.1,94.5,5.9,94.5,13.4z
			"/>
	</g>
	<g>
		<path id="C" class="st0" d="M57.6,32.8v19.9H34.4v33c0,7.3,3.4,10.2,11,10.2h12.3v19H43.8c-21.9,0-31.8-9.7-31.8-28.1v-34H0V32.9
			c6.6,0,11.9-5.3,11.9-11.8v-9.3h22.3v21.1h23.4L57.6,32.8z"/>
	</g>
	<path class="st0" d="M92.2,32.8H69.8v82h22.3L92.2,32.8L92.2,32.8z"/>
	<g>
		<path id="D" class="st0" d="M168.2,108.9c-5.8,4.5-14.8,7.2-24.2,7.2c-22.5,0-41.7-18.1-41.7-41.8s19.1-42.2,41.7-42.2
			c9.3,0,18.3,2.9,24.2,7.3v-34h22.3V115h-22.3V108.9z M168.5,74.3c0-12.2-10-22-22.5-22c-12.2,0-21.7,9.9-21.7,22
			c0,12.3,9.5,22,21.7,22C158.8,96.3,168.5,86.6,168.5,74.3z"/>
	</g>
	<g>
		<path id="E" class="st0" d="M241.5,116.8c-26.4,0-43.4-18.4-43.4-42.7c0-23.7,17.7-42.9,43.6-42.9c26.1,0,41.9,17.9,41.9,41.8
			c0,3.2-0.3,7.3-0.3,7.9h-63.1c2.4,10.4,10.3,17.1,21.9,17.1c10,0,17.3-4.3,21.9-10.9l16.8,10.2
			C272.6,109.3,259.8,116.8,241.5,116.8z M220.9,64.4H261c-2.4-9.9-10.4-14.9-19.4-14.9C231.1,49.5,223.8,55.1,220.9,64.4z"/>
	</g>
	<g>
		<path id="F" class="st0" d="M297.1,114.1c-1.1,1-2.4,1.6-3.8,1.6c-1.6,0-2.8-0.5-3.9-1.6c-1.1-1.1-1.6-2.3-1.6-3.9s0.5-3,1.7-4
			c1.1-1,2.4-1.5,3.8-1.5c1.5,0,2.9,0.5,3.9,1.6c1.1,1.1,1.6,2.3,1.6,3.9C298.7,111.7,298.2,113.1,297.1,114.1L297.1,114.1z
			 M290,107c-0.9,0.9-1.3,1.9-1.3,3.2c0,1.2,0.5,2.3,1.3,3.2c0.9,0.9,2,1.3,3.2,1.3s2.4-0.5,3.2-1.3c0.8-0.8,1.3-1.9,1.3-3.2
			c0-1.2-0.5-2.3-1.3-3.2c-0.9-0.9-2-1.4-3.2-1.4C291.9,105.7,290.8,106.1,290,107z M290.8,113.2v-6.1h1.7h1.3
			c0.5,0,0.9,0.2,1.2,0.3c0.5,0.3,0.8,0.8,0.8,1.5c0,0.5-0.2,0.9-0.4,1.1c-0.3,0.2-0.6,0.4-1,0.4c0.4,0.1,0.7,0.2,0.9,0.4
			c0.4,0.3,0.5,0.8,0.5,1.3v0.5v0.2c0,0.1,0,0.2,0.1,0.2l0.1,0.2h-1.5c-0.1-0.2-0.1-0.5-0.1-0.9s-0.1-0.6-0.1-0.8
			c-0.1-0.2-0.2-0.4-0.5-0.5c-0.2-0.1-0.3-0.1-0.5-0.1H293h-0.3v2.2L290.8,113.2L290.8,113.2L290.8,113.2z M293.7,108.4
			c-0.2-0.1-0.5-0.2-0.9-0.2h-0.4v1.8h0.6c0.4,0,0.6-0.1,0.9-0.2c0.2-0.2,0.3-0.4,0.3-0.7C294.2,108.7,294,108.5,293.7,108.4
			L293.7,108.4z"/>
	</g>
	<g>
		<path id="B_1_" class="st0" d="M94.5,13.4c0,7.4-6,13.4-13.5,13.4c-7.4,0-13.5-6-13.5-13.4S73.5,0,81,0
			C88.5-0.1,94.5,5.9,94.5,13.4z"/>
	</g>
	<g>
		<path id="C_1_" class="st0" d="M57.6,32.8v19.9H34.4v33c0,7.3,3.4,10.2,11,10.2h12.3v19H43.8c-21.9,0-31.8-9.7-31.8-28.1v-34H0
			V32.9c6.6,0,11.9-5.3,11.9-11.8v-9.3h22.3v21.1h23.4L57.6,32.8z"/>
	</g>
	<path class="st0" d="M92.2,32.8H69.8v82h22.3L92.2,32.8L92.2,32.8z"/>
	<g>
		<path id="D_1_" class="st0" d="M168.2,108.9c-5.8,4.5-14.8,7.2-24.2,7.2c-22.5,0-41.7-18.1-41.7-41.8s19.1-42.2,41.7-42.2
			c9.3,0,18.3,2.9,24.2,7.3v-34h22.3V115h-22.3V108.9z M168.5,74.3c0-12.2-10-22-22.5-22c-12.2,0-21.7,9.9-21.7,22
			c0,12.3,9.5,22,21.7,22C158.8,96.3,168.5,86.6,168.5,74.3z"/>
	</g>
	<g>
		<path id="E_1_" class="st0" d="M241.5,116.8c-26.4,0-43.4-18.4-43.4-42.7c0-23.7,17.7-42.9,43.6-42.9c26.1,0,41.9,17.9,41.9,41.8
			c0,3.2-0.3,7.3-0.3,7.9h-63.1c2.4,10.4,10.3,17.1,21.9,17.1c10,0,17.3-4.3,21.9-10.9l16.8,10.2
			C272.6,109.3,259.8,116.8,241.5,116.8z M220.9,64.4H261c-2.4-9.9-10.4-14.9-19.4-14.9C231.1,49.5,223.8,55.1,220.9,64.4z"/>
	</g>
	<g>
		<path id="F_1_" class="st0" d="M297.1,114.1c-1.1,1-2.4,1.6-3.8,1.6c-1.6,0-2.8-0.5-3.9-1.6c-1.1-1.1-1.6-2.3-1.6-3.9s0.5-3,1.7-4
			c1.1-1,2.4-1.5,3.8-1.5c1.5,0,2.9,0.5,3.9,1.6c1.1,1.1,1.6,2.3,1.6,3.9C298.7,111.7,298.2,113.1,297.1,114.1L297.1,114.1z
			 M290,107c-0.9,0.9-1.3,1.9-1.3,3.2c0,1.2,0.5,2.3,1.3,3.2c0.9,0.9,2,1.3,3.2,1.3s2.4-0.5,3.2-1.3c0.8-0.8,1.3-1.9,1.3-3.2
			c0-1.2-0.5-2.3-1.3-3.2c-0.9-0.9-2-1.4-3.2-1.4C291.9,105.7,290.8,106.1,290,107z M290.8,113.2v-6.1h1.7h1.3
			c0.5,0,0.9,0.2,1.2,0.3c0.5,0.3,0.8,0.8,0.8,1.5c0,0.5-0.2,0.9-0.4,1.1c-0.3,0.2-0.6,0.4-1,0.4c0.4,0.1,0.7,0.2,0.9,0.4
			c0.4,0.3,0.5,0.8,0.5,1.3v0.5v0.2c0,0.1,0,0.2,0.1,0.2l0.1,0.2h-1.5c-0.1-0.2-0.1-0.5-0.1-0.9s-0.1-0.6-0.1-0.8
			c-0.1-0.2-0.2-0.4-0.5-0.5c-0.2-0.1-0.3-0.1-0.5-0.1H293h-0.3v2.2L290.8,113.2L290.8,113.2L290.8,113.2z M293.7,108.4
			c-0.2-0.1-0.5-0.2-0.9-0.2h-0.4v1.8h0.6c0.4,0,0.6-0.1,0.9-0.2c0.2-0.2,0.3-0.4,0.3-0.7C294.2,108.7,294,108.5,293.7,108.4
			L293.7,108.4z"/>
	</g>
</g>
</svg>
