<?xml version="1.0" encoding="utf-8"?>
<!-- Generator: Adobe Illustrator 20.1.0, SVG Export Plug-In . SVG Version: 6.00 Build 0)  -->
<svg version="1.1" id="Layer_1" xmlns="http://www.w3.org/2000/svg" xmlns:xlink="http://www.w3.org/1999/xlink" x="0px" y="0px"
	 viewBox="0 0 304.8 88.7" style="enable-background:new 0 0 304.8 88.7;" xml:space="preserve">
<style type="text/css">
	.st0{fill:#62A60B;}
	.st1{fill:#A7A9AB;}
</style>
<g>
	<path class="st0" d="M279.1,46.1c2.5-4.4,1.1-9.9-3.3-12.4c-4.3-2.5-9.7-1.1-12.3,3.1l-15.8,27.1l0,0c-3.6,5.6-10.9,7.4-16.7,4.1
		c-5.7-3.4-7.8-10.7-4.8-16.5l0,0c0,0,15.7-26.8,15.7-26.9c2.5-4.4,1.1-9.9-3.3-12.4c-4.4-2.5-9.9-1.1-12.4,3.3l-15.8,27l0,0
		c-8.1,14.6-3.1,32.9,11.3,41.3c14.6,8.5,33.3,3.6,41.8-11.1C263.9,72.2,279.1,46.2,279.1,46.1"/>
	<path class="st1" d="M229.4,52.5c-2.5,4.4-1.1,9.9,3.3,12.4c4.3,2.5,9.7,1.1,12.3-3.1l15.9-27.1l0,0c3.6-5.6,10.9-7.4,16.7-4.1
		c5.7,3.4,7.8,10.7,4.8,16.5l0,0c0,0-15.7,26.8-15.7,26.9c-2.5,4.4-1.1,9.9,3.3,12.4c4.4,2.5,9.9,1.1,12.4-3.3l15.8-27l0,0
		c8-14.5,3.1-32.9-11.4-41.3c-14.6-8.5-33.3-3.6-41.8,11.1C244.7,26.4,229.5,52.4,229.4,52.5"/>
	<g>
		<path class="st0" d="M19.9,37.3v-1C19,37.4,18,38.3,17,39.1s-2.1,1.4-3.3,1.7c-1.2,0.4-2.5,0.6-4.1,0.6c-1.8,0-3.5-0.4-4.9-1.1
			c-1.5-0.8-2.6-1.8-3.4-3.1c-0.9-1.6-1.4-3.9-1.4-6.9v-15c0-1.5,0.3-2.7,1-3.4c0.8-0.7,1.7-1.1,2.8-1.1s2.1,0.4,2.8,1.1
			c0.7,0.8,1.1,1.9,1.1,3.4v12.1c0,1.8,0.1,3.2,0.4,4.4C8.4,33,8.9,34,9.7,34.7c0.8,0.7,1.8,1,3.1,1s2.5-0.4,3.6-1.1
			c1.1-0.8,2-1.8,2.5-3c0.4-1.1,0.6-3.4,0.6-7v-9.1c0-1.5,0.4-2.6,1.1-3.4c0.7-0.8,1.6-1.1,2.8-1.1c1.1,0,2,0.4,2.7,1.1
			c0.7,0.8,1,1.9,1,3.4v21.8c0,1.4-0.3,2.5-1,3.3c-0.7,0.7-1.5,1.1-2.5,1.1s-1.9-0.4-2.6-1.1C20.2,39.6,19.9,38.6,19.9,37.3z"/>
		<path class="st0" d="M37.4,15.1V16c1.3-1.8,2.8-3.1,4.4-3.9s3.4-1.2,5.4-1.2c2,0,3.8,0.4,5.3,1.3c1.6,0.9,2.8,2.1,3.5,3.7
			c0.5,0.9,0.8,1.9,1,3c0.1,1.1,0.2,2.4,0.2,4.1v14c0,1.5-0.3,2.7-1,3.5c-0.7,0.8-1.6,1.2-2.7,1.2c-1.1,0-2-0.4-2.8-1.2
			c-0.7-0.8-1.1-1.9-1.1-3.4V24.4c0-2.5-0.3-4.4-1-5.6c-0.7-1.3-2.1-2-4.2-2c-1.4,0-2.6,0.4-3.7,1.2c-1.1,0.8-1.9,1.9-2.4,3.3
			c-0.4,1.1-0.6,3.2-0.6,6.2v9.4c0,1.5-0.4,2.7-1.1,3.5c-0.7,0.8-1.6,1.2-2.8,1.2c-1.1,0-2-0.4-2.7-1.2c-0.7-0.8-1.1-1.9-1.1-3.4
			V15.2c0-1.4,0.3-2.5,0.9-3.2c0.6-0.7,1.5-1.1,2.6-1.1c0.7,0,1.3,0.2,1.8,0.5c0.5,0.3,1,0.8,1.3,1.4C37.3,13.4,37.4,14.2,37.4,15.1
			z"/>
		<path class="st0" d="M64.3,7.4c-1.1,0-2-0.3-2.7-1c-0.8-0.6-1.2-1.6-1.2-2.8c0-1.1,0.4-2,1.2-2.7c0.8-0.7,1.7-1,2.7-1
			s1.9,0.3,2.6,0.9C67.7,1.5,68,2.4,68,3.7c0,1.2-0.4,2.1-1.1,2.7C66.2,7,65.3,7.4,64.3,7.4z M68,15.2V37c0,1.5-0.4,2.7-1.1,3.5
			c-0.7,0.8-1.6,1.2-2.8,1.2c-1.2,0-2-0.4-2.7-1.2c-0.7-0.8-1-1.9-1-3.4V15.4c0-1.5,0.3-2.6,1-3.4c0.7-0.8,1.6-1.1,2.7-1.1
			c1.1,0,2,0.4,2.8,1.1C67.7,12.8,68,13.9,68,15.2z"/>
		<path class="st0" d="M74,11.6h0.8V7c0-1.2,0-2.2,0.1-2.9s0.2-1.3,0.5-1.8c0.3-0.5,0.7-0.9,1.3-1.3c0.6-0.3,1.2-0.5,1.9-0.5
			c1,0,1.8,0.4,2.6,1.1c0.5,0.5,0.8,1.1,1,1.8c0.1,0.7,0.2,1.7,0.2,3v5.2h2.8c1.1,0,1.9,0.3,2.5,0.8c0.6,0.5,0.8,1.2,0.8,2
			c0,1-0.4,1.7-1.2,2.1c-0.8,0.4-2,0.6-3.5,0.6h-1.4v13.9c0,1.2,0,2.1,0.1,2.7c0.1,0.6,0.3,1.2,0.7,1.6c0.4,0.4,1,0.6,1.8,0.6
			c0.4,0,1-0.1,1.8-0.2c0.8-0.2,1.4-0.2,1.8-0.2c0.6,0,1.2,0.2,1.7,0.7c0.5,0.5,0.7,1.1,0.7,1.8c0,1.2-0.7,2.2-2,2.8
			c-1.3,0.6-3.3,1-5.7,1c-2.4,0-4.2-0.4-5.3-1.2c-1.2-0.8-2-1.9-2.4-3.3c-0.4-1.4-0.6-3.3-0.6-5.5V17h-1c-1.1,0-1.9-0.3-2.5-0.8
			c-0.6-0.5-0.9-1.2-0.9-2c0-0.8,0.3-1.5,0.9-2C72,11.8,72.8,11.6,74,11.6z"/>
		<path class="st0" d="M100,42.4l0.7-1.7l-9.2-23.3c-0.6-1.4-0.9-2.3-0.9-2.9c0-0.6,0.2-1.3,0.5-1.8c0.3-0.6,0.8-1,1.4-1.3
			c0.6-0.3,1.2-0.5,1.8-0.5c1.1,0,1.9,0.3,2.5,1c0.6,0.7,1,1.7,1.5,3l6.3,18.5l6-17.2c0.5-1.4,0.9-2.5,1.3-3.3
			c0.4-0.8,0.8-1.3,1.2-1.6c0.4-0.3,1.1-0.4,1.9-0.4c0.6,0,1.1,0.2,1.7,0.5c0.5,0.3,0.9,0.7,1.2,1.2c0.3,0.5,0.4,1.1,0.4,1.6
			c-0.1,0.4-0.2,0.9-0.4,1.5c-0.2,0.6-0.4,1.3-0.6,2l-9.8,25.7c-0.9,2.3-1.7,4.1-2.5,5.3c-0.8,1.3-1.9,2.3-3.2,3
			c-1.3,0.7-3.2,1-5.3,1c-2.2,0-3.9-0.2-5-0.7s-1.7-1.4-1.7-2.6c0-0.9,0.3-1.5,0.8-2c0.5-0.5,1.3-0.7,2.4-0.7c0.4,0,0.8,0.1,1.2,0.2
			c0.5,0.1,0.9,0.2,1.3,0.2c0.9,0,1.6-0.1,2.1-0.4c0.5-0.3,1-0.7,1.3-1.3C99.1,44.6,99.5,43.7,100,42.4z"/>
	</g>
	<g>
		<path class="st0" d="M81.9,50.1v11.5c1.4-1.5,2.9-2.6,4.4-3.4c1.5-0.8,3.3-1.2,5.4-1.2c2.5,0,4.7,0.6,6.5,1.8
			c1.9,1.2,3.4,2.9,4.4,5.2c1,2.3,1.6,5,1.6,8c0,2.3-0.3,4.4-0.9,6.2c-0.6,1.9-1.4,3.6-2.5,5c-1.1,1.4-2.5,2.5-4,3.3
			c-1.6,0.8-3.3,1.2-5.2,1.2c-1.2,0-2.3-0.1-3.3-0.4c-1-0.3-1.9-0.6-2.6-1.1c-0.7-0.5-1.3-0.9-1.9-1.4c-0.5-0.5-1.2-1.2-2-2.2v0.8
			c0,1.4-0.3,2.5-1,3.2s-1.6,1.1-2.6,1.1c-1.1,0-1.9-0.4-2.6-1.1c-0.6-0.7-1-1.8-1-3.2V50.5c0-1.5,0.3-2.7,0.9-3.5
			c0.6-0.8,1.5-1.2,2.6-1.2c1.2,0,2.1,0.4,2.7,1.1C81.6,47.8,81.9,48.7,81.9,50.1z M82.2,72.5c0,3,0.7,5.3,2.1,6.9
			c1.4,1.6,3.2,2.4,5.3,2.4c1.9,0,3.6-0.8,4.9-2.5c1.4-1.7,2.1-4,2.1-7c0-2-0.3-3.7-0.9-5.2c-0.6-1.4-1.4-2.6-2.4-3.4
			c-1.1-0.8-2.3-1.2-3.7-1.2c-1.4,0-2.7,0.4-3.9,1.2c-1.1,0.8-2,1.9-2.7,3.4C82.6,68.7,82.2,70.4,82.2,72.5z"/>
		<path class="st0" d="M126.3,83.4c-1.8,1.4-3.6,2.5-5.3,3.2s-3.6,1.1-5.7,1.1c-1.9,0-3.7-0.4-5.1-1.2c-1.5-0.8-2.6-1.8-3.4-3.1
			c-0.8-1.3-1.2-2.7-1.2-4.3c0-2.1,0.7-3.8,2-5.3c1.3-1.5,3.1-2.4,5.3-2.9c0.5-0.1,1.7-0.4,3.6-0.8c1.9-0.4,3.5-0.7,4.9-1.1
			c1.4-0.3,2.8-0.7,4.4-1.2c-0.1-2-0.5-3.5-1.2-4.4c-0.7-0.9-2.2-1.4-4.4-1.4c-1.9,0-3.4,0.3-4.4,0.8c-1,0.5-1.8,1.3-2.5,2.4
			s-1.2,1.8-1.5,2.1c-0.3,0.3-0.9,0.5-1.9,0.5c-0.9,0-1.6-0.3-2.2-0.8c-0.6-0.5-0.9-1.2-0.9-2.1c0-1.3,0.5-2.6,1.4-3.9
			c0.9-1.3,2.4-2.3,4.4-3.1s4.5-1.2,7.4-1.2c3.3,0,5.9,0.4,7.8,1.2s3.3,2,4,3.7c0.8,1.7,1.2,4,1.2,6.7c0,1.8,0,3.3,0,4.5
			s0,2.6,0,4.1c0,1.4,0.2,2.9,0.7,4.5c0.5,1.5,0.7,2.5,0.7,3c0,0.8-0.4,1.5-1.1,2.1c-0.7,0.6-1.6,1-2.5,1c-0.8,0-1.5-0.4-2.3-1.1
			C128,85.8,127.2,84.8,126.3,83.4z M125.8,72.5c-1.1,0.4-2.7,0.8-4.9,1.3c-2.1,0.5-3.6,0.8-4.4,1s-1.6,0.6-2.3,1.3
			c-0.7,0.6-1.1,1.5-1.1,2.6c0,1.2,0.4,2.1,1.3,2.9s2,1.2,3.4,1.2c1.5,0,2.9-0.3,4.2-1s2.2-1.5,2.8-2.5c0.7-1.1,1-3,1-5.6V72.5z"/>
		<path class="st0" d="M144.3,61.2v0.9c1.3-1.8,2.8-3.1,4.4-3.9c1.6-0.8,3.4-1.2,5.4-1.2c2,0,3.8,0.4,5.3,1.3
			c1.6,0.9,2.8,2.1,3.5,3.7c0.5,0.9,0.8,1.9,1,3c0.1,1.1,0.2,2.4,0.2,4.1v14c0,1.5-0.3,2.7-1,3.5c-0.7,0.8-1.6,1.2-2.7,1.2
			s-2-0.4-2.8-1.2c-0.7-0.8-1.1-1.9-1.1-3.4V70.5c0-2.5-0.3-4.4-1-5.6c-0.7-1.3-2.1-2-4.2-2c-1.4,0-2.6,0.4-3.7,1.2
			c-1.1,0.8-1.9,1.9-2.4,3.3c-0.4,1.1-0.6,3.2-0.6,6.2V83c0,1.5-0.4,2.7-1.1,3.5c-0.7,0.8-1.6,1.2-2.8,1.2c-1.1,0-2-0.4-2.7-1.2
			c-0.7-0.8-1.1-1.9-1.1-3.4V61.3c0-1.4,0.3-2.5,0.9-3.2c0.6-0.7,1.5-1.1,2.6-1.1c0.7,0,1.3,0.2,1.8,0.5c0.5,0.3,1,0.8,1.3,1.4
			C144.1,59.5,144.3,60.3,144.3,61.2z"/>
		<path class="st0" d="M185.5,84.2l-6.6-10.9l-4.1,3.9v5.9c0,1.5-0.4,2.6-1.2,3.4s-1.7,1.2-2.7,1.2c-1.2,0-2.1-0.4-2.8-1.2
			c-0.7-0.8-1-1.9-1-3.5V51c0-1.7,0.3-3,1-3.9c0.6-0.9,1.6-1.3,2.8-1.3c1.2,0,2.1,0.4,2.8,1.2c0.7,0.8,1,2,1,3.5v18.2l8.4-8.9
			c1.1-1.1,1.9-1.9,2.4-2.3s1.2-0.6,2-0.6c0.9,0,1.7,0.3,2.4,0.9c0.6,0.6,0.9,1.4,0.9,2.3c0,1.1-1,2.6-3.1,4.5l-4,3.7l7.7,12.1
			c0.6,0.9,1,1.6,1.2,2.1c0.2,0.5,0.4,0.9,0.4,1.3c0,1.2-0.3,2.2-1,2.9c-0.7,0.7-1.5,1-2.6,1c-0.9,0-1.6-0.3-2.1-0.8
			C186.9,86.4,186.3,85.5,185.5,84.2z"/>
	</g>
	<g>
		<path class="st1" d="M127.4,24.6h0.5V22c0-0.7,0-1.2,0.1-1.6c0-0.4,0.1-0.7,0.3-1s0.4-0.5,0.7-0.7c0.3-0.2,0.7-0.3,1.1-0.3
			c0.5,0,1,0.2,1.5,0.6c0.3,0.3,0.5,0.6,0.6,1c0.1,0.4,0.1,1,0.1,1.7v2.9h1.6c0.6,0,1.1,0.1,1.4,0.4c0.3,0.3,0.5,0.7,0.5,1.1
			c0,0.6-0.2,1-0.7,1.2c-0.5,0.2-1.1,0.3-2,0.3h-0.8v7.8c0,0.7,0,1.2,0.1,1.5c0,0.4,0.2,0.7,0.4,0.9c0.2,0.2,0.5,0.3,1,0.3
			c0.3,0,0.6,0,1-0.1c0.4-0.1,0.8-0.1,1-0.1c0.3,0,0.7,0.1,0.9,0.4c0.3,0.3,0.4,0.6,0.4,1c0,0.7-0.4,1.2-1.1,1.6
			c-0.8,0.4-1.8,0.5-3.3,0.5c-1.3,0-2.4-0.2-3-0.7c-0.6-0.5-1.1-1.1-1.4-1.9c-0.2-0.8-0.3-1.9-0.3-3.2v-8.1h-0.6
			c-0.6,0-1.1-0.1-1.4-0.4c-0.3-0.3-0.5-0.7-0.5-1.1c0-0.5,0.2-0.8,0.5-1.1C126.3,24.7,126.8,24.6,127.4,24.6z"/>
		<path class="st1" d="M142.4,35.3v3.6c0,0.9-0.2,1.5-0.6,2c-0.4,0.4-0.9,0.7-1.6,0.7c-0.6,0-1.1-0.2-1.5-0.7
			c-0.4-0.4-0.6-1.1-0.6-1.9V27c0-1.9,0.7-2.9,2.1-2.9c0.7,0,1.2,0.2,1.5,0.7s0.5,1.1,0.5,2c0.5-0.9,1-1.5,1.6-2
			c0.5-0.5,1.3-0.7,2.2-0.7s1.8,0.2,2.6,0.7c0.8,0.5,1.3,1,1.3,1.8c0,0.5-0.2,1-0.5,1.3c-0.4,0.3-0.8,0.5-1.2,0.5
			c-0.2,0-0.5-0.1-1.1-0.3c-0.6-0.2-1.1-0.3-1.6-0.3c-0.6,0-1.1,0.2-1.5,0.5s-0.7,0.8-0.9,1.5c-0.2,0.6-0.4,1.4-0.5,2.3
			C142.4,32.9,142.4,34,142.4,35.3z"/>
		<path class="st1" d="M161.6,39v-0.6c-0.5,0.6-1.1,1.2-1.6,1.6c-0.6,0.4-1.2,0.8-1.9,1c-0.7,0.2-1.4,0.3-2.3,0.3
			c-1,0-2-0.2-2.8-0.6c-0.8-0.4-1.5-1-1.9-1.8c-0.5-0.9-0.8-2.2-0.8-3.9v-8.4c0-0.9,0.2-1.5,0.6-1.9c0.4-0.4,0.9-0.6,1.5-0.6
			c0.6,0,1.2,0.2,1.6,0.6c0.4,0.4,0.6,1.1,0.6,1.9v6.8c0,1,0.1,1.8,0.3,2.5c0.2,0.7,0.5,1.2,0.9,1.6s1,0.6,1.8,0.6
			c0.7,0,1.4-0.2,2-0.6c0.6-0.4,1.1-1,1.4-1.7c0.2-0.6,0.4-1.9,0.4-4v-5.2c0-0.8,0.2-1.5,0.6-1.9s0.9-0.6,1.6-0.6
			c0.6,0,1.2,0.2,1.5,0.6c0.4,0.4,0.6,1.1,0.6,1.9V39c0,0.8-0.2,1.4-0.6,1.8c-0.4,0.4-0.9,0.6-1.4,0.6c-0.6,0-1.1-0.2-1.5-0.6
			C161.8,40.4,161.6,39.8,161.6,39z"/>
		<path class="st1" d="M181.6,35.9c0,1.2-0.3,2.2-0.9,3c-0.6,0.8-1.4,1.5-2.6,1.9c-1.1,0.4-2.5,0.7-4.1,0.7c-1.5,0-2.9-0.2-4-0.7
			c-1.1-0.5-1.9-1.1-2.4-1.8s-0.8-1.4-0.8-2.1c0-0.5,0.2-0.9,0.5-1.2c0.3-0.3,0.8-0.5,1.3-0.5c0.5,0,0.8,0.1,1,0.3s0.5,0.5,0.7,0.9
			c0.4,0.8,1,1.3,1.6,1.7c0.6,0.4,1.4,0.6,2.5,0.6c0.9,0,1.6-0.2,2.1-0.6c0.5-0.4,0.8-0.8,0.8-1.3c0-0.8-0.3-1.3-0.9-1.6
			c-0.6-0.3-1.5-0.7-2.8-1c-1.5-0.4-2.7-0.8-3.6-1.2c-0.9-0.4-1.7-0.9-2.2-1.6c-0.6-0.7-0.8-1.5-0.8-2.4c0-0.9,0.3-1.7,0.8-2.4
			c0.5-0.8,1.3-1.4,2.3-1.8c1-0.5,2.2-0.7,3.6-0.7c1.1,0,2.1,0.1,3,0.3c0.9,0.2,1.6,0.5,2.2,0.9s1,0.8,1.4,1.3
			c0.3,0.5,0.5,0.9,0.5,1.4s-0.2,0.9-0.5,1.2c-0.3,0.3-0.8,0.5-1.4,0.5c-0.4,0-0.8-0.1-1.1-0.4s-0.7-0.6-1.1-1.1
			c-0.3-0.4-0.7-0.8-1.1-1c-0.4-0.3-1-0.4-1.8-0.4c-0.8,0-1.4,0.2-1.9,0.5s-0.8,0.7-0.8,1.2s0.2,0.8,0.6,1.1
			c0.4,0.3,0.9,0.5,1.5,0.7s1.5,0.4,2.6,0.7c1.3,0.3,2.4,0.7,3.3,1.2c0.8,0.5,1.5,1,1.9,1.6C181.3,34.4,181.6,35.1,181.6,35.9z"/>
		<path class="st1" d="M183.7,24.6h0.5V22c0-0.7,0-1.2,0.1-1.6c0-0.4,0.1-0.7,0.3-1c0.2-0.3,0.4-0.5,0.7-0.7s0.7-0.3,1.1-0.3
			c0.5,0,1,0.2,1.5,0.6c0.3,0.3,0.5,0.6,0.6,1c0.1,0.4,0.1,1,0.1,1.7v2.9h1.6c0.6,0,1.1,0.1,1.4,0.4c0.3,0.3,0.5,0.7,0.5,1.1
			c0,0.6-0.2,1-0.7,1.2c-0.5,0.2-1.1,0.3-2,0.3h-0.8v7.8c0,0.7,0,1.2,0.1,1.5c0,0.4,0.2,0.7,0.4,0.9c0.2,0.2,0.5,0.3,1,0.3
			c0.3,0,0.6,0,1-0.1s0.8-0.1,1-0.1c0.3,0,0.7,0.1,0.9,0.4c0.2,0.3,0.4,0.6,0.4,1c0,0.7-0.4,1.2-1.1,1.6c-0.7,0.4-1.8,0.5-3.3,0.5
			c-1.3,0-2.4-0.2-3-0.7c-0.7-0.5-1.1-1.1-1.4-1.9c-0.2-0.8-0.3-1.9-0.3-3.2v-8.1h-0.6c-0.6,0-1.1-0.1-1.4-0.4
			c-0.3-0.3-0.5-0.7-0.5-1.1c0-0.5,0.2-0.8,0.5-1.1C182.6,24.7,183,24.6,183.7,24.6z"/>
	</g>
</g>
</svg>
