<?xml version="1.0" encoding="utf-8"?>
<!-- Generator: Adobe Illustrator 24.2.1, SVG Export Plug-In . SVG Version: 6.00 Build 0)  -->
<svg version="1.1" id="Layer_1" xmlns="http://www.w3.org/2000/svg" xmlns:xlink="http://www.w3.org/1999/xlink" x="0px" y="0px"
	width="100px" height="100px" viewBox="0 0 100 100" style="enable-background:new 0 0 100 100;" xml:space="preserve">
<g>
	<g>
		<path style="fill:#E9E8E7;" d="M50,0c27.6,0,50,22.4,50,50s-22.4,50-50,50S0,77.6,0,50S22.4,0,50,0"/>
		<path style="fill:#FFFFFF;" d="M50,1c27,0,49,22,49,49S77.1,99,50,99S1,77,1,50S23,1,50,1"/>
		<path style="fill:#E9E8E7;" d="M50,0c27.6,0,50,22.4,50,50s-22.4,50-50,50S0,77.6,0,50S22.4,0,50,0"/>
		<path style="fill:#FFFFFF;" d="M50,1c27,0,49,22,49,49S77.1,99,50,99S1,77,1,50S23,1,50,1"/>
	</g>
	<g>
		<path style="fill:#62A744;" d="M83.3,50.6c0.7-1.1,0.3-2.6-0.9-3.2c-1.1-0.7-2.5-0.3-3.2,0.8l-4.1,7.1l0,0
			c-0.9,1.5-2.8,1.9-4.3,1.1c-1.5-0.9-2-2.8-1.2-4.3l0,0c0,0,4.1-7,4.1-7c0.7-1.1,0.3-2.6-0.9-3.2c-1.1-0.7-2.6-0.3-3.2,0.9l-4.1,7
			l0,0c-2.1,3.8-0.8,8.6,2.9,10.7c3.8,2.2,8.7,0.9,10.9-2.9C79.4,57.4,83.3,50.6,83.3,50.6"/>
		<path style="fill:#A8AAAB;" d="M70.4,52.2c-0.7,1.1-0.3,2.6,0.9,3.2c1.1,0.7,2.5,0.3,3.2-0.8l4.1-7.1l0,0c0.9-1.5,2.8-1.9,4.3-1.1
			c1.5,0.9,2,2.8,1.2,4.3l0,0c0,0-4.1,7-4.1,7c-0.7,1.1-0.3,2.6,0.9,3.2c1.1,0.7,2.6,0.3,3.2-0.9l4.1-7l0,0c2.1-3.8,0.8-8.6-3-10.7
			c-3.8-2.2-8.7-0.9-10.9,2.9C74.4,45.4,70.4,52.2,70.4,52.2"/>
		<g>
			<path style="fill:#62A744;" d="M15.9,48.3V48c-0.2,0.3-0.5,0.5-0.8,0.7c-0.3,0.2-0.5,0.4-0.9,0.4c-0.3,0.1-0.7,0.2-1.1,0.2
				c-0.5,0-0.9-0.1-1.3-0.3c-0.4-0.2-0.7-0.5-0.9-0.8c-0.2-0.4-0.4-1-0.4-1.8v-3.9c0-0.4,0.1-0.7,0.3-0.9c0.2-0.2,0.4-0.3,0.7-0.3
				s0.5,0.1,0.7,0.3c0.2,0.2,0.3,0.5,0.3,0.9v3.1c0,0.5,0,0.8,0.1,1.1c0.1,0.3,0.2,0.6,0.4,0.8c0.2,0.2,0.5,0.3,0.8,0.3
				c0.3,0,0.7-0.1,0.9-0.3c0.3-0.2,0.5-0.5,0.7-0.8c0.1-0.3,0.2-0.9,0.2-1.8v-2.4c0-0.4,0.1-0.7,0.3-0.9c0.2-0.2,0.4-0.3,0.7-0.3
				c0.3,0,0.5,0.1,0.7,0.3c0.2,0.2,0.3,0.5,0.3,0.9v5.7c0,0.4-0.1,0.7-0.3,0.9c-0.2,0.2-0.4,0.3-0.7,0.3s-0.5-0.1-0.7-0.3
				C16,48.9,15.9,48.6,15.9,48.3z"/>
			<path style="fill:#62A744;" d="M20.4,42.5v0.2c0.3-0.5,0.7-0.8,1.1-1s0.9-0.3,1.4-0.3c0.5,0,1,0.1,1.4,0.3c0.4,0.2,0.7,0.5,0.9,1
				c0.1,0.2,0.2,0.5,0.3,0.8c0,0.3,0.1,0.6,0.1,1.1v3.6c0,0.4-0.1,0.7-0.3,0.9c-0.2,0.2-0.4,0.3-0.7,0.3c-0.3,0-0.5-0.1-0.7-0.3
				c-0.2-0.2-0.3-0.5-0.3-0.9v-3.3c0-0.7-0.1-1.1-0.3-1.5c-0.2-0.3-0.5-0.5-1.1-0.5c-0.4,0-0.7,0.1-1,0.3s-0.5,0.5-0.6,0.9
				c-0.1,0.3-0.2,0.8-0.2,1.6v2.4c0,0.4-0.1,0.7-0.3,0.9c-0.2,0.2-0.4,0.3-0.7,0.3c-0.3,0-0.5-0.1-0.7-0.3s-0.3-0.5-0.3-0.9v-5.7
				c0-0.4,0.1-0.7,0.2-0.8c0.2-0.2,0.4-0.3,0.7-0.3c0.2,0,0.3,0.1,0.5,0.1s0.3,0.2,0.3,0.4C20.4,42.1,20.4,42.3,20.4,42.5z"/>
			<path style="fill:#62A744;" d="M27.4,40.5c-0.3,0-0.5-0.1-0.7-0.3c-0.2-0.2-0.3-0.4-0.3-0.7c0-0.3,0.1-0.5,0.3-0.7
				s0.4-0.3,0.7-0.3c0.3,0,0.5,0.1,0.7,0.2c0.2,0.2,0.3,0.4,0.3,0.8c0,0.3-0.1,0.5-0.3,0.7C27.9,40.4,27.7,40.5,27.4,40.5z
				 M28.4,42.5v5.7c0,0.4-0.1,0.7-0.3,0.9s-0.4,0.3-0.7,0.3c-0.3,0-0.5-0.1-0.7-0.3c-0.2-0.2-0.3-0.5-0.3-0.9v-5.6
				c0-0.4,0.1-0.7,0.3-0.9c0.2-0.2,0.4-0.3,0.7-0.3s0.5,0.1,0.7,0.3C28.3,41.9,28.4,42.2,28.4,42.5z"/>
			<path style="fill:#62A744;" d="M30,41.6h0.2v-1.2c0-0.3,0-0.6,0-0.8c0-0.2,0.1-0.3,0.1-0.5c0.1-0.1,0.2-0.2,0.3-0.3
				c0.2-0.1,0.3-0.1,0.5-0.1c0.3,0,0.5,0.1,0.7,0.3c0.1,0.1,0.2,0.3,0.3,0.5c0,0.2,0.1,0.4,0.1,0.8v1.4h0.7c0.3,0,0.5,0.1,0.7,0.2
				s0.2,0.3,0.2,0.5c0,0.3-0.1,0.4-0.3,0.5C33.2,43,32.9,43,32.5,43h-0.4v3.6c0,0.3,0,0.5,0,0.7c0,0.2,0.1,0.3,0.2,0.4
				c0.1,0.1,0.3,0.2,0.5,0.2c0.1,0,0.3,0,0.5-0.1c0.2-0.1,0.4-0.1,0.5-0.1c0.2,0,0.3,0.1,0.4,0.2c0.1,0.1,0.2,0.3,0.2,0.5
				c0,0.3-0.2,0.6-0.5,0.7s-0.9,0.3-1.5,0.3c-0.6,0-1.1-0.1-1.4-0.3c-0.3-0.2-0.5-0.5-0.6-0.9c-0.1-0.4-0.2-0.9-0.2-1.4V43H30
				c-0.3,0-0.5-0.1-0.7-0.2c-0.2-0.1-0.2-0.3-0.2-0.5s0.1-0.4,0.2-0.5C29.5,41.6,29.7,41.6,30,41.6z"/>
			<path style="fill:#62A744;" d="M36.7,49.6l0.2-0.4l-2.4-6.1c-0.2-0.4-0.2-0.6-0.2-0.8s0.1-0.3,0.1-0.5c0.1-0.2,0.2-0.3,0.4-0.3
				c0.2-0.1,0.3-0.1,0.5-0.1c0.3,0,0.5,0.1,0.7,0.3c0.2,0.2,0.3,0.4,0.4,0.8l1.6,4.8l1.6-4.5c0.1-0.4,0.2-0.7,0.3-0.9
				c0.1-0.2,0.2-0.3,0.3-0.4c0.1-0.1,0.3-0.1,0.5-0.1c0.2,0,0.3,0.1,0.4,0.1c0.1,0.1,0.2,0.2,0.3,0.3c0.1,0.1,0.1,0.3,0.1,0.4
				c0,0.1-0.1,0.2-0.1,0.4c-0.1,0.2-0.1,0.3-0.2,0.5l-2.6,6.7c-0.2,0.6-0.4,1.1-0.7,1.4c-0.2,0.3-0.5,0.6-0.8,0.8
				c-0.3,0.2-0.8,0.3-1.4,0.3c-0.6,0-1-0.1-1.3-0.2c-0.3-0.1-0.4-0.4-0.4-0.7c0-0.2,0.1-0.4,0.2-0.5c0.1-0.1,0.3-0.2,0.6-0.2
				c0.1,0,0.2,0,0.3,0.1c0.1,0,0.2,0.1,0.3,0.1c0.2,0,0.4,0,0.5-0.1c0.1-0.1,0.3-0.2,0.3-0.3C36.5,50.2,36.6,49.9,36.7,49.6z"/>
		</g>
		<g>
			<path style="fill:#62A744;" d="M32,51.6v3c0.4-0.4,0.8-0.7,1.1-0.9c0.4-0.2,0.9-0.3,1.4-0.3c0.7,0,1.2,0.2,1.7,0.5
				c0.5,0.3,0.9,0.8,1.1,1.4c0.3,0.6,0.4,1.3,0.4,2.1c0,0.6-0.1,1.1-0.2,1.6c-0.2,0.5-0.4,0.9-0.7,1.3s-0.7,0.7-1,0.9
				c-0.4,0.2-0.9,0.3-1.4,0.3c-0.3,0-0.6,0-0.9-0.1c-0.3-0.1-0.5-0.2-0.7-0.3c-0.2-0.1-0.3-0.2-0.5-0.4c-0.1-0.1-0.3-0.3-0.5-0.6
				v0.2c0,0.4-0.1,0.7-0.3,0.8c-0.2,0.2-0.4,0.3-0.7,0.3c-0.3,0-0.5-0.1-0.7-0.3c-0.2-0.2-0.3-0.5-0.3-0.8v-8.6
				c0-0.4,0.1-0.7,0.2-0.9c0.2-0.2,0.4-0.3,0.7-0.3c0.3,0,0.5,0.1,0.7,0.3C31.9,51,32,51.2,32,51.6z M32.1,57.4
				c0,0.8,0.2,1.4,0.5,1.8s0.8,0.6,1.4,0.6c0.5,0,0.9-0.2,1.3-0.7c0.4-0.4,0.5-1,0.5-1.8c0-0.5-0.1-1-0.2-1.4
				c-0.2-0.4-0.4-0.7-0.6-0.9c-0.3-0.2-0.6-0.3-1-0.3c-0.4,0-0.7,0.1-1,0.3c-0.3,0.2-0.5,0.5-0.7,0.9C32.2,56.4,32.1,56.9,32.1,57.4
				z"/>
			<path style="fill:#62A744;" d="M43.6,60.3c-0.5,0.4-0.9,0.7-1.4,0.8c-0.4,0.2-0.9,0.3-1.5,0.3c-0.5,0-1-0.1-1.3-0.3
				c-0.4-0.2-0.7-0.5-0.9-0.8c-0.2-0.3-0.3-0.7-0.3-1.1c0-0.5,0.2-1,0.5-1.4c0.3-0.4,0.8-0.6,1.4-0.8c0.1,0,0.4-0.1,0.9-0.2
				c0.5-0.1,0.9-0.2,1.3-0.3c0.4-0.1,0.7-0.2,1.1-0.3c0-0.5-0.1-0.9-0.3-1.1c-0.2-0.2-0.6-0.4-1.1-0.4c-0.5,0-0.9,0.1-1.1,0.2
				c-0.3,0.1-0.5,0.3-0.7,0.6s-0.3,0.5-0.4,0.5c-0.1,0.1-0.2,0.1-0.5,0.1c-0.2,0-0.4-0.1-0.6-0.2c-0.2-0.1-0.2-0.3-0.2-0.5
				c0-0.3,0.1-0.7,0.4-1c0.2-0.3,0.6-0.6,1.1-0.8c0.5-0.2,1.2-0.3,1.9-0.3c0.9,0,1.5,0.1,2,0.3c0.5,0.2,0.9,0.5,1,1
				c0.2,0.4,0.3,1,0.3,1.7c0,0.5,0,0.9,0,1.2c0,0.3,0,0.7,0,1.1c0,0.4,0.1,0.8,0.2,1.2c0.1,0.4,0.2,0.7,0.2,0.8
				c0,0.2-0.1,0.4-0.3,0.5c-0.2,0.2-0.4,0.3-0.7,0.3c-0.2,0-0.4-0.1-0.6-0.3C44,60.9,43.8,60.6,43.6,60.3z M43.5,57.4
				c-0.3,0.1-0.7,0.2-1.3,0.3C41.6,57.9,41.2,58,41,58c-0.2,0.1-0.4,0.2-0.6,0.3c-0.2,0.2-0.3,0.4-0.3,0.7c0,0.3,0.1,0.5,0.3,0.8
				c0.2,0.2,0.5,0.3,0.9,0.3c0.4,0,0.8-0.1,1.1-0.3s0.6-0.4,0.7-0.7c0.2-0.3,0.3-0.8,0.3-1.5V57.4z"/>
			<path style="fill:#62A744;" d="M48.3,54.5v0.2c0.3-0.5,0.7-0.8,1.1-1c0.4-0.2,0.9-0.3,1.4-0.3s1,0.1,1.4,0.3
				c0.4,0.2,0.7,0.5,0.9,1c0.1,0.2,0.2,0.5,0.3,0.8c0,0.3,0.1,0.6,0.1,1.1v3.6c0,0.4-0.1,0.7-0.3,0.9c-0.2,0.2-0.4,0.3-0.7,0.3
				c-0.3,0-0.5-0.1-0.7-0.3c-0.2-0.2-0.3-0.5-0.3-0.9v-3.3c0-0.7-0.1-1.1-0.3-1.5c-0.2-0.3-0.5-0.5-1.1-0.5c-0.4,0-0.7,0.1-1,0.3
				c-0.3,0.2-0.5,0.5-0.6,0.9c-0.1,0.3-0.2,0.8-0.2,1.6v2.4c0,0.4-0.1,0.7-0.3,0.9c-0.2,0.2-0.4,0.3-0.7,0.3c-0.3,0-0.5-0.1-0.7-0.3
				c-0.2-0.2-0.3-0.5-0.3-0.9v-5.7c0-0.4,0.1-0.7,0.2-0.8c0.2-0.2,0.4-0.3,0.7-0.3c0.2,0,0.3,0.1,0.5,0.1c0.1,0.1,0.3,0.2,0.3,0.4
				C48.2,54.1,48.3,54.3,48.3,54.5z"/>
			<path style="fill:#62A744;" d="M59,60.5l-1.7-2.8l-1.1,1v1.5c0,0.4-0.1,0.7-0.3,0.9c-0.2,0.2-0.4,0.3-0.7,0.3
				c-0.3,0-0.5-0.1-0.7-0.3c-0.2-0.2-0.3-0.5-0.3-0.9v-8.3c0-0.4,0.1-0.8,0.3-1c0.2-0.2,0.4-0.3,0.7-0.3c0.3,0,0.5,0.1,0.7,0.3
				s0.3,0.5,0.3,0.9v4.7l2.2-2.3c0.3-0.3,0.5-0.5,0.6-0.6c0.1-0.1,0.3-0.2,0.5-0.2c0.2,0,0.4,0.1,0.6,0.2c0.2,0.2,0.2,0.4,0.2,0.6
				c0,0.3-0.3,0.7-0.8,1.2l-1,1l2,3.1c0.2,0.2,0.3,0.4,0.3,0.5c0.1,0.1,0.1,0.2,0.1,0.3c0,0.3-0.1,0.6-0.3,0.8s-0.4,0.3-0.7,0.3
				c-0.2,0-0.4-0.1-0.5-0.2C59.4,61.1,59.2,60.8,59,60.5z"/>
		</g>
		<g>
			<path style="fill:#A8AAAB;" d="M43.9,45H44v-0.7c0-0.2,0-0.3,0-0.4c0-0.1,0-0.2,0.1-0.3c0.1-0.1,0.1-0.1,0.2-0.2
				c0.1-0.1,0.2-0.1,0.3-0.1c0.1,0,0.3,0.1,0.4,0.2c0.1,0.1,0.1,0.2,0.2,0.3s0,0.3,0,0.4V45h0.4c0.2,0,0.3,0,0.4,0.1
				c0.1,0.1,0.1,0.2,0.1,0.3c0,0.2-0.1,0.3-0.2,0.3c-0.1,0.1-0.3,0.1-0.5,0.1h-0.2v2c0,0.2,0,0.3,0,0.4c0,0.1,0.1,0.2,0.1,0.2
				c0.1,0.1,0.1,0.1,0.3,0.1c0.1,0,0.2,0,0.3,0c0.1,0,0.2,0,0.3,0c0.1,0,0.2,0,0.2,0.1c0.1,0.1,0.1,0.2,0.1,0.3
				c0,0.2-0.1,0.3-0.3,0.4c-0.2,0.1-0.5,0.1-0.9,0.1c-0.3,0-0.6-0.1-0.8-0.2c-0.2-0.1-0.3-0.3-0.4-0.5c-0.1-0.2-0.1-0.5-0.1-0.8
				v-2.1h-0.2c-0.2,0-0.3,0-0.4-0.1c-0.1-0.1-0.1-0.2-0.1-0.3c0-0.1,0.1-0.2,0.1-0.3C43.6,45,43.7,45,43.9,45z"/>
			<path style="fill:#A8AAAB;" d="M47.8,47.8v0.9c0,0.2-0.1,0.4-0.2,0.5c-0.1,0.1-0.2,0.2-0.4,0.2c-0.2,0-0.3-0.1-0.4-0.2
				c-0.1-0.1-0.2-0.3-0.2-0.5v-3.1c0-0.5,0.2-0.8,0.5-0.8c0.2,0,0.3,0.1,0.4,0.2c0.1,0.1,0.1,0.3,0.1,0.5c0.1-0.2,0.3-0.4,0.4-0.5
				c0.1-0.1,0.3-0.2,0.6-0.2c0.2,0,0.5,0.1,0.7,0.2c0.2,0.1,0.3,0.3,0.3,0.5c0,0.1-0.1,0.3-0.1,0.3c-0.1,0.1-0.2,0.1-0.3,0.1
				c-0.1,0-0.1,0-0.3-0.1c-0.2-0.1-0.3-0.1-0.4-0.1c-0.2,0-0.3,0.1-0.4,0.1C48.1,46,48,46.1,48,46.3c-0.1,0.2-0.1,0.4-0.1,0.6
				C47.8,47.1,47.8,47.4,47.8,47.8z"/>
			<path style="fill:#A8AAAB;" d="M52.8,48.7v-0.2c-0.1,0.2-0.3,0.3-0.4,0.4c-0.2,0.1-0.3,0.2-0.5,0.3s-0.4,0.1-0.6,0.1
				c-0.3,0-0.5-0.1-0.7-0.2c-0.2-0.1-0.4-0.3-0.5-0.5c-0.1-0.2-0.2-0.6-0.2-1v-2.2c0-0.2,0.1-0.4,0.2-0.5c0.1-0.1,0.2-0.2,0.4-0.2
				s0.3,0.1,0.4,0.2c0.1,0.1,0.2,0.3,0.2,0.5v1.8c0,0.3,0,0.5,0.1,0.7c0.1,0.2,0.1,0.3,0.2,0.4c0.1,0.1,0.3,0.2,0.5,0.2
				c0.2,0,0.4-0.1,0.5-0.2c0.2-0.1,0.3-0.3,0.4-0.4c0.1-0.2,0.1-0.5,0.1-1v-1.4c0-0.2,0.1-0.4,0.2-0.5c0.1-0.1,0.2-0.2,0.4-0.2
				c0.2,0,0.3,0.1,0.4,0.2c0.1,0.1,0.2,0.3,0.2,0.5v3.2c0,0.2-0.1,0.4-0.2,0.5c-0.1,0.1-0.2,0.2-0.4,0.2c-0.2,0-0.3-0.1-0.4-0.2
				C52.8,49.1,52.8,48.9,52.8,48.7z"/>
			<path style="fill:#A8AAAB;" d="M58,47.9c0,0.3-0.1,0.6-0.2,0.8c-0.2,0.2-0.4,0.4-0.7,0.5c-0.3,0.1-0.7,0.2-1.1,0.2
				c-0.4,0-0.8-0.1-1-0.2c-0.3-0.1-0.5-0.3-0.6-0.5c-0.1-0.2-0.2-0.4-0.2-0.5c0-0.1,0.1-0.2,0.1-0.3s0.2-0.1,0.3-0.1
				c0.1,0,0.2,0,0.3,0.1c0.1,0.1,0.1,0.1,0.2,0.2c0.1,0.2,0.3,0.3,0.4,0.4c0.2,0.1,0.4,0.2,0.7,0.2c0.2,0,0.4-0.1,0.5-0.2
				c0.1-0.1,0.2-0.2,0.2-0.3c0-0.2-0.1-0.3-0.2-0.4c-0.2-0.1-0.4-0.2-0.7-0.3c-0.4-0.1-0.7-0.2-0.9-0.3c-0.2-0.1-0.4-0.2-0.6-0.4
				c-0.2-0.2-0.2-0.4-0.2-0.6s0.1-0.4,0.2-0.6c0.1-0.2,0.3-0.4,0.6-0.5c0.3-0.1,0.6-0.2,0.9-0.2c0.3,0,0.5,0,0.8,0.1
				c0.2,0.1,0.4,0.1,0.6,0.2s0.3,0.2,0.4,0.3c0.1,0.1,0.1,0.2,0.1,0.4c0,0.1-0.1,0.2-0.1,0.3s-0.2,0.1-0.4,0.1c-0.1,0-0.2,0-0.3-0.1
				c-0.1-0.1-0.2-0.2-0.3-0.3c-0.1-0.1-0.2-0.2-0.3-0.3c-0.1-0.1-0.3-0.1-0.5-0.1s-0.4,0.1-0.5,0.1c-0.1,0.1-0.2,0.2-0.2,0.3
				c0,0.1,0.1,0.2,0.2,0.3c0.1,0.1,0.2,0.1,0.4,0.2c0.2,0.1,0.4,0.1,0.7,0.2c0.3,0.1,0.6,0.2,0.9,0.3c0.2,0.1,0.4,0.3,0.5,0.4
				C57.9,47.5,58,47.7,58,47.9z"/>
			<path style="fill:#A8AAAB;" d="M58.5,45h0.1v-0.7c0-0.2,0-0.3,0-0.4c0-0.1,0-0.2,0.1-0.3c0.1-0.1,0.1-0.1,0.2-0.2
				s0.2-0.1,0.3-0.1c0.1,0,0.3,0.1,0.4,0.2c0.1,0.1,0.1,0.2,0.2,0.3c0,0.1,0,0.3,0,0.4V45h0.4c0.2,0,0.3,0,0.4,0.1
				c0.1,0.1,0.1,0.2,0.1,0.3c0,0.2-0.1,0.3-0.2,0.3c-0.1,0.1-0.3,0.1-0.5,0.1h-0.2v2c0,0.2,0,0.3,0,0.4c0,0.1,0.1,0.2,0.1,0.2
				c0.1,0.1,0.1,0.1,0.3,0.1c0.1,0,0.2,0,0.3,0c0.1,0,0.2,0,0.3,0c0.1,0,0.2,0,0.2,0.1c0.1,0.1,0.1,0.2,0.1,0.3
				c0,0.2-0.1,0.3-0.3,0.4c-0.2,0.1-0.5,0.1-0.9,0.1c-0.3,0-0.6-0.1-0.8-0.2c-0.2-0.1-0.3-0.3-0.4-0.5c-0.1-0.2-0.1-0.5-0.1-0.8
				v-2.1h-0.2c-0.2,0-0.3,0-0.4-0.1c-0.1-0.1-0.1-0.2-0.1-0.3c0-0.1,0.1-0.2,0.1-0.3C58.2,45,58.3,45,58.5,45z"/>
		</g>
	</g>
</g>
</svg>
