<svg xmlns="http://www.w3.org/2000/svg" xmlns:xlink="http://www.w3.org/1999/xlink" width="100" height="100" viewBox="0 0 520.04 520.04" xmlns:v="https://vecta.io/nano"><path d="M260.02 0C403.6 0 520.04 116.44 520.04 260.02S403.6 520.04 260.02 520.04 0 403.6 0 260.02 116.44 0 260.02 0" fill="#e8e8e8"/><path d="M260.02 5.2c140.72 0 254.82 114.1 254.82 254.82s-114.1 254.82-254.82 254.82S5.2 400.74 5.2 260.02 119.3 5.2 260.02 5.2" fill="#fff"/><defs><path id="A" d="M146.31 97.14c-9.64 1.97-16.57 10.45-16.59 20.3V402c-.08 11.46 9.14 20.82 20.6 20.9h.15 218.86c11.46.14 20.86-9.04 21-20.5v-.4-284.56c-.13-9.75-7.04-18.09-16.59-20.05l-227.43-.25z"/></defs><clipPath id="B"><use xlink:href="#A"/></clipPath><g clip-path="url(#B)"><linearGradient id="C" gradientUnits="userSpaceOnUse" x1="259.939" y1="429.566" x2="259.939" y2="103.533"><stop offset="0" stop-color="#1e3d84"/><stop offset=".45" stop-color="#1c98d5"/></linearGradient><path d="M129.72,97.14h260.36v325.61H129.72V97.14z" fill="url(#C)"/></g><g fill="#fff"><path d="M242.4 259.75h-2.71a108.15 108.15 0 0 1-30.07-5.01 126.26 126.26 0 0 0 16.49 1.2c9.45.31 18.83-1.65 27.36-5.71 11.47-5.5 20.5-15.05 25.36-26.81l.65-1.65c0-.5-.35-.95-1.1-1.45h-.55l-1.85 1.05c-2.67 1.75-5.6 3.08-8.67 3.96a75.24 75.24 0 0 1-24.01 3.66 112.18 112.18 0 0 1-13.08-1.1c-38.84-4.36-53.93-15.04-53.93-37.44v-30.57h38.89v30.07c.13 10.36 5.08 20.07 13.38 26.26a34.58 34.58 0 0 0 21.35 6.67 40.15 40.15 0 0 0 19.75-5.96 28.98 28.98 0 0 0 16.09-26.31v-30.57h39.69v31.37c0 23.55-10.02 42-28.47 53.32-16.64 9.57-35.44 14.75-54.63 15.04m30.43-60.27c-1.35 2.51-4.21 5.36-5.76 5.36h-.3c-.59-.48-1.06-1.1-1.35-1.8a20.98 20.98 0 0 0-2.51-3.61 15.66 15.66 0 0 0-4.41-4.51l-.8-.65v-.65a8.45 8.45 0 0 0 1.65-5.01h0l.25-.65a27.99 27.99 0 0 0 7.77-1.75 6.18 6.18 0 0 0 1.9-1 9.6 9.6 0 0 1 2.61-1.6c.35-.2.75-.3 1.15-.3 1 0 1.3 1.6 1.6 3.51-.03.37-.03.74 0 1.1-.06 4.01-.81 7.97-2.21 11.73m-15.22 11.66l-2.05.6c-1.38.19-2.77.29-4.16.3-2.4-.06-4.78-.37-7.12-.9-1.7-.35-4.51-1.4-4.16-3.26.35-1.85 1.3-2.21 2.46-3.31a24.52 24.52 0 0 0 1.95-2c1.56-1.75 2.76-3.79 3.51-6.01h.9c.77.28 1.58.43 2.41.45.89 0 1.77-.15 2.61-.45h.55a23.74 23.74 0 0 0 3.46 6.87c.6.85 1.2 1.55 1.75 2.21.55.65 1.7 1.95 1.6 2.91-.11.94-1.46 2.04-3.71 2.59m-20.45-10.02c-1.2 1.55-1.85 2.36-2.61 2.41a7.97 7.97 0 0 1-5.26-4.26 35.32 35.32 0 0 1-2.26-11.68c.25-3.06.8-4.21 2.1-4.21h0c1.13.17 2.2.58 3.16 1.2.83.52 1.72.95 2.66 1.25h0c2.51.87 5.09 1.51 7.72 1.9v.6c.04 1.8.61 3.54 1.65 5.01v.5c-.34.27-.71.51-1.1.7-1.76 1.02-3.31 2.36-4.56 3.96-.68.8-1.31 1.64-1.9 2.51m-3.51-28.46l.5-.7c2.53-3.09 6.09-5.17 10.02-5.86.8-.2 1.63-.3 2.46-.3.8-.09 1.61.12 2.26.6a1.46 1.46 0 0 1 0 1.05c0 1.4 0 2.16-.3 2.86-.06.93-.06 1.87 0 2.81a22.81 22.81 0 0 0 .8 6.52v.55l-.55.4a8.06 8.06 0 0 0-4.11 3.11h0c-.42-.28-.82-.58-1.2-.9-1.34-1.18-2.91-2.07-4.61-2.61-1.21-.46-2.45-.84-3.71-1.15-1.09-.16-2.11-.61-2.96-1.3-1.25-1.1-.5-2.46 1.45-5.01m23.3 15.97a5.36 5.36 0 0 1-5.36 5.36c-2.84-.16-5.04-2.52-5.01-5.36 0-2.77 2.24-5.01 5.01-5.01 2.76-.19 5.16 1.89 5.35 4.65.01.12.01.24.01.36m-2.3-15.04a19.5 19.5 0 0 0 0-2.86c0-.7 0-1.45-.3-2.91-.07-.34.02-.69.25-.95.71-.52 1.58-.75 2.46-.65.86 0 1.72.1 2.56.3a16.51 16.51 0 0 1 9.77 5.81l1.05 1.35c2 2.56 2.36 3.41 1 4.56a3.33 3.33 0 0 1-1.95.6c-1.65.22-3.25.7-4.76 1.4-1.87.77-3.57 1.89-5.01 3.31l-.7.6c-1.21-1.9-3.12-3.25-5.31-3.76v-.35c.58-2.1.85-4.28.8-6.47m22.04 7.19l1.65-2.61-3.01-.55c.18-2.27-.54-4.52-2-6.26-4.1-5.34-10.24-8.73-16.94-9.37a7.68 7.68 0 0 0-3.31.65l-1.2-2.51-2 2.66a10.8 10.8 0 0 0-3.81-.7 22.87 22.87 0 0 0-16.79 10.02c-1.18 1.58-1.7 3.56-1.45 5.51a7.17 7.17 0 0 1-1.1.3h-1.8l1.8 2.61c-2.66 1.95-3.16 7.57-2.41 12.68 1.05 6.97 4.51 13.98 10.02 13.83v3.06l2.66-.7a3.67 3.67 0 0 0 .8 1.95c2.31 3.21 9.07 4.36 14.13 4.36 4.26.42 8.53-.8 11.93-3.41.47-.53.8-1.16.95-1.85l3.56 1.15-.35-3.41c5.51 0 9.17-6.16 10.73-11.78s1.65-12.88-1.85-15.94m26.7 108.76c-.83-.02-1.63.31-2.21.9a3.05 3.05 0 0 0-.95 2.26c-.02.84.33 1.64.95 2.21a3.1 3.1 0 0 0 4.39.02 3.14 3.14 0 0 0 .92-2.22c.01-.84-.32-1.65-.9-2.26-.57-.6-1.37-.92-2.2-.91m-68.56 9.03a5.57 5.57 0 0 0-2.81-.85c-1.2 0-2.37.36-3.36 1.05a7.76 7.76 0 0 0-1.3 1.05v-1.6h-4.56v22.95h4.56v-7.92a30.47 30.47 0 0 1 .5-7.07c.26-1.15.84-2.21 1.65-3.06.53-.54 1.25-.87 2-.9a4.17 4.17 0 0 1 1.1.3l.7.3 2.36-3.71-.84-.54z"/><path d="M256.79 298.08h-6.72l-8.57 7.47v-15.64h-4.56v31.12h4.56v-8.42l9.37 8.42h6.52l-13.28-11.98 12.68-10.97h0zm8.16 3.76c1.4.14 2.7.83 3.61 1.9l.65.6 3.01-3.06-.65-.65c-1.62-1.79-3.86-2.9-6.26-3.11-1.77-.04-3.49.62-4.76 1.85a6.66 6.66 0 0 0-.95 8.67 11.61 11.61 0 0 0 4.21 3.16c1.15.52 2.21 1.21 3.16 2.05.35.42.54.95.55 1.5a2.23 2.23 0 0 1-.9 1.8c-.58.56-1.35.87-2.16.85-1.51-.1-2.89-.87-3.76-2.1l-.4-.9-2.86 3.21.45.6c.82 1.04 1.86 1.88 3.06 2.46a8.75 8.75 0 0 0 3.86.9c1.87-.01 3.67-.75 5.01-2.05a6.85 6.85 0 0 0 2.1-5.01 6.45 6.45 0 0 0-1.25-3.86c-1.2-1.42-2.71-2.55-4.41-3.31-1.12-.48-2.13-1.16-3.01-2-.37-.37-.59-.88-.6-1.4 0-.54.24-1.05.65-1.4.47-.41 1.08-.64 1.7-.65m26.92-3c-1.4-.91-3.04-1.38-4.71-1.35-1.65-.01-3.27.41-4.71 1.2a11.96 11.96 0 0 0-2.31 1.7v-10.52h-4.51v31.12h4.66v-8.67a27.19 27.19 0 0 1 0-5.56c.38-1.39 1.16-2.63 2.26-3.56 1.1-.91 2.48-1.41 3.91-1.4a4.29 4.29 0 0 1 2.91.85c.78.7 1.33 1.63 1.55 2.66a27.5 27.5 0 0 1 .25 4.71v10.98h4.51v-11.83c.13-2.26-.2-4.53-.95-6.67-.61-1.51-1.68-2.79-3.06-3.66m8.67-.81h4.51v22.95h-4.51v-22.95zm21.25.31c-1.87-1.29-4.34-1.29-6.21 0-.46.28-.88.62-1.25 1v-1.35h-4.51v22.95h4.51v-7.92a30.47 30.47 0 0 1 .5-7.07c.26-1.15.84-2.21 1.65-3.06a3.16 3.16 0 0 1 2.05-.9l1.05.3.7.3 2.36-3.71-.85-.54zm-132.56 8.31l9.77-16.04h-5.41l-6.72 10.98-6.82-10.98h-5.36l9.92 16.04v14.33h4.61l.01-14.33h0z"/><path d="M206.57 301.99a6.67 6.67 0 0 1 5.01 2.26c1.46 1.42 2.26 3.38 2.21 5.41 0 1.35-.34 2.68-1 3.86a7.67 7.67 0 0 1-2.61 2.76 7.98 7.98 0 0 1-3.76.95c-2.61 0-5.01-1.42-6.26-3.71-.66-1.18-1-2.51-1-3.86a7.64 7.64 0 0 1 2.21-5.46 6.87 6.87 0 0 1 5.01-2.21m8.81 16.09a12.18 12.18 0 0 0 0-16.59c-4.42-4.84-11.94-5.18-16.78-.76a13.62 13.62 0 0 0-.76.76c-4.28 4.7-4.28 11.89 0 16.59a11.98 11.98 0 0 0 16.93.61c.21-.19.41-.4.61-.61M328.8 303.8c1.28-1.19 2.97-1.83 4.71-1.8 1.09.03 2.17.28 3.16.75a5.9 5.9 0 0 1 2.36 1.8c.46.57.82 1.21 1.05 1.9h-13.03a6.65 6.65 0 0 1 1.75-2.65m11.68 8.82c-.55 1.01-1.24 1.94-2.05 2.76-.7.54-1.48.98-2.31 1.3-.9.34-1.85.51-2.81.5a6.64 6.64 0 0 1-5.01-2.05 7.6 7.6 0 0 1-2-4.41h19.19v-1a11.95 11.95 0 0 0-2.51-7.72c-2.2-2.91-5.68-4.57-9.32-4.46-3.54-.11-6.92 1.49-9.07 4.31-1.78 2.2-2.74 4.94-2.71 7.77a12.37 12.37 0 0 0 2.96 8.47 10.97 10.97 0 0 0 8.77 3.71 13.07 13.07 0 0 0 4.51-.8c1.34-.51 2.57-1.27 3.61-2.26 1.14-1.1 2.07-2.39 2.76-3.81h0l-4.01-2.31zm-148.8 26.96c-.41.63-1 1.13-1.7 1.4-1.29.36-2.62.51-3.96.45h-.9v-7.12h2.31a5.79 5.79 0 0 1 3.71.9c.68.54 1.06 1.38 1 2.26a3.44 3.44 0 0 1-.65 2.1m-6.37 6.63h.65c1.59-.05 3.19.05 4.76.3 1.11.22 2.13.78 2.91 1.6.65.75 1.01 1.71 1 2.71a3.89 3.89 0 0 1-.7 2.21c-.46.71-1.12 1.27-1.9 1.6a13.6 13.6 0 0 1-4.16.5h-2.56v-8.92zm11.27-1.71a6.53 6.53 0 0 0-2-1.25c.61-.51 1.14-1.12 1.55-1.8a7.89 7.89 0 0 0 0-8.12c-.78-1.24-1.92-2.22-3.26-2.81-1.78-.63-3.67-.92-5.56-.85h-6.52v30.07h8.72a10.02 10.02 0 0 0 7.32-2.61c1.81-1.66 2.81-4.01 2.76-6.47.01-1.19-.25-2.37-.75-3.46a7.69 7.69 0 0 0-2.1-2.76m22.4-1.29c2.3 2.49 2.8 6.15 1.25 9.17-.62 1.13-1.56 2.06-2.71 2.66-1.11.64-2.37.99-3.66 1a7.24 7.24 0 0 1-3.66-1 7.69 7.69 0 0 1-2.71-2.81c-.65-1.15-.99-2.44-1-3.76a7.45 7.45 0 0 1 1-3.71c.62-1.16 1.56-2.12 2.71-2.76 2.87-1.68 6.52-1.2 8.87 1.15m1.96-3.8c-.69-.64-1.47-1.18-2.31-1.6a10.55 10.55 0 0 0-5.01-1.2 11.83 11.83 0 0 0-11.99 11.66c-.04 3.2 1.21 6.28 3.47 8.53a11.34 11.34 0 0 0 8.27 3.51c1.74.01 3.45-.38 5.01-1.15a12.08 12.08 0 0 0 2.46-1.6v2.21h4.31v-22.65h-4.51l.3 2.29zm24.71-1.5c-1.4-.87-3.02-1.32-4.66-1.3-1.65-.02-3.27.4-4.71 1.2-.8.42-1.54.94-2.21 1.55v-2.26h-4.56v22.8h4.56v-8.62a31.12 31.12 0 0 1 .35-5.46 7.18 7.18 0 0 1 2.26-3.46 5.52 5.52 0 0 1 3.76-1.4c1.02-.07 2.04.23 2.86.85.79.67 1.32 1.59 1.5 2.61.13 1.52.13 3.04 0 4.56v10.93h4.56v-11.63c.11-2.26-.19-4.52-.9-6.67-.64-1.49-1.7-2.76-3.06-3.66m15.33 10.08l12.53-10.93h-6.87l-8.32 7.32V328.9h-4.61v30.87h4.61v-8.22l9.17 8.22h6.62l-13.13-11.87z"/></g></svg>