<?xml version="1.0" encoding="utf-8"?>
<!-- Generator: Adobe Illustrator 24.2.1, SVG Export Plug-In . SVG Version: 6.00 Build 0)  -->
<svg version="1.1" id="Layer_1" xmlns="http://www.w3.org/2000/svg" xmlns:xlink="http://www.w3.org/1999/xlink" x="0px" y="0px"
	 viewBox="0 0 480.1 108.2" style="enable-background:new 0 0 480.1 108.2;" xml:space="preserve">
<g>
	<g>
		<path style="fill:#34313F;" d="M132.1,52.4c7.3,0,12.2,3.3,15.2,7.4V1.4c0-1.1-1.3-1.8-2.2-1.1L73,53h1.9c7.5,0,11.3,4.8,11.3,10
			c0,4.1-2.1,7.1-5,8.4c-0.5,0.2-0.5,0.9,0,1.1c3.3,1.4,5.7,4.9,5.7,9.1c0,6-3.9,10.7-11.4,10.7H55c-0.4,0-0.8-0.3-0.8-0.8V66.7
			L0.5,106c-0.9,0.8-0.5,2.2,0.7,2.2H146c0.7,0,1.2-0.5,1.2-1.2V87.1c-3.9,3.6-9,5.9-15.2,5.9c-11.6,0-21-8-21-20.3
			C111.1,60.3,120.6,52.4,132.1,52.4z M103.4,91.6c0,0.4-0.3,0.7-0.7,0.7h-6.9c-0.4,0-0.7-0.3-0.7-0.7V53.7c0-0.4,0.3-0.7,0.7-0.7
			h6.9c0.4,0,0.7,0.3,0.7,0.7V91.6z"/>
	</g>
	<path style="fill:#34313F;" d="M63.4,68.6h9.7c2.8,0,4.6-1.6,4.6-4.1c0-2.4-1.8-4.1-4.6-4.1H63c-0.2,0-0.4,0.2-0.4,0.4v7.1
		C62.6,68.3,63,68.6,63.4,68.6z"/>
	<path style="fill:#34313F;" d="M63.4,85h10.1c3.1,0,5-1.7,5-4.5c0-2.5-1.8-4.5-5-4.5H63.4c-0.4,0-0.8,0.3-0.8,0.8v7.4
		C62.6,84.6,63,85,63.4,85z"/>
	<path style="fill:#34313F;" d="M141,64.3c-1.9-2.5-5.1-4.5-8.9-4.5c-7.2,0-12.4,5.5-12.4,12.9s5.2,12.9,12.4,12.9
		c3.3,0,6.4-1.4,8.1-2.8c0.1-0.1,0.2-0.3,0.2-0.5v-3.8c0-0.3-0.3-0.6-0.6-0.6h-8.9c-0.5,0-0.8-0.4-0.8-0.8v-5.6
		c0-0.5,0.4-0.8,0.8-0.8h16.5v-8.9l-5.3,2.9C141.7,64.8,141.2,64.6,141,64.3z"/>
	<path style="fill:#34313F;" d="M153.5,72.7c0-12.1,8.7-20.3,19.9-20.3c7.3,0,12,3.7,14.8,8.2c0.2,0.3,0.1,0.8-0.3,0.9l-4.5,2.4
		c-0.3,0.2-0.7,0.1-0.8-0.2c-1.9-3-5.4-5.2-9.2-5.2c-7.5,0-13.1,5.9-13.1,14.2c0,8.2,5.6,14.2,13.1,14.2c3.8,0,7.3-2.2,9.2-5.2
		c0.2-0.3,0.5-0.4,0.8-0.2l4.5,2.3c0.4,0.2,0.5,0.6,0.3,1c-2.9,4.5-7.6,8.3-14.8,8.3C162.2,93,153.5,84.7,153.5,72.7z"/>
	<path style="fill:#34313F;" d="M192.1,72.7c0-9.8,5.6-17.4,14-19.6c14.3-3.8,27.4,9.6,24.3,24.5c-1.9,9.2-9.2,15.5-18.9,15.5
		C200.1,93,192.1,84.4,192.1,72.7z M224,72.7c0-8.1-5-14.2-12.6-14.2c-7.7,0-12.6,6.1-12.6,14.2c0,8.1,4.9,14.2,12.6,14.2
		S224,80.7,224,72.7z"/>
	<path style="fill:#34313F;" d="M271.6,91.8V61.9L259.7,92c0,0.1-0.2,0.2-0.3,0.2h-2.5c-0.1,0-0.3-0.1-0.3-0.2l-12-30.1v29.9
		c0,0.3-0.2,0.5-0.5,0.5h-6c-0.3,0-0.5-0.2-0.5-0.5V53.4c0-0.3,0.2-0.5,0.5-0.5h8.6c0.4,0,0.7,0.2,0.9,0.6l10.5,27l10.4-27
		c0.1-0.4,0.5-0.6,0.9-0.6h8.6c0.3,0,0.5,0.2,0.5,0.5v38.4c0,0.3-0.2,0.5-0.5,0.5h-6C271.9,92.3,271.6,92.1,271.6,91.8z"/>
	<path style="fill:#34313F;" d="M339.6,91.6V53.7c0-0.4,0.3-0.7,0.7-0.7h25.5c0.4,0,0.7,0.3,0.7,0.7v4.6c0,0.4-0.3,0.7-0.7,0.7
		h-18.6c-0.4,0-0.7,0.3-0.7,0.7v8.7c0,0.4,0.3,0.7,0.7,0.7h18.2c0.4,0,0.7,0.3,0.7,0.7v4.6c0,0.4-0.3,0.7-0.7,0.7h-18.2
		c-0.4,0-0.7,0.3-0.7,0.7v9.5c0,0.4,0.3,0.7,0.7,0.7h18.6c0.4,0,0.7,0.3,0.7,0.7v4.6c0,0.4-0.3,0.7-0.7,0.7h-25.5
		C339.9,92.3,339.6,92,339.6,91.6z"/>
	<path style="fill:#34313F;" d="M398.5,91.9l-8.3-14c-0.1-0.2-0.4-0.3-0.6-0.3h-5.8c-0.4,0-0.7,0.3-0.7,0.7v13.3
		c0,0.4-0.3,0.7-0.7,0.7H377c-0.4,0-0.7-0.3-0.7-0.7V53.7c0-0.4,0.3-0.7,0.7-0.7h16.6c7.8,0,12.9,5,12.9,12.3c0,6.5-4,10.2-8.4,11.3
		c-0.5,0.1-0.7,0.6-0.5,1.1c1.6,2.6,6.6,10.6,8.5,13.5c0.3,0.5,0,1.1-0.6,1.1h-6.3C398.9,92.3,398.7,92.2,398.5,91.9z M399.4,65.2
		c0-3.8-2.8-6.2-6.7-6.2h-8.8c-0.4,0-0.7,0.3-0.7,0.7v11.1c0,0.4,0.3,0.7,0.7,0.7h8.8C396.6,71.5,399.4,69.1,399.4,65.2z"/>
	<path style="fill:#34313F;" d="M453.1,91.6V53.7c0-0.4,0.3-0.7,0.7-0.7h25.6c0.4,0,0.7,0.3,0.7,0.7v4.7c0,0.4-0.3,0.7-0.7,0.7
		h-18.7c-0.4,0-0.7,0.3-0.7,0.7v8.8c0,0.4,0.3,0.7,0.7,0.7h18.2c0.4,0,0.7,0.3,0.7,0.7v4.7c0,0.4-0.3,0.7-0.7,0.7h-18.2
		c-0.4,0-0.7,0.3-0.7,0.7v9.6c0,0.4,0.3,0.7,0.7,0.7h18.7c0.4,0,0.7,0.3,0.7,0.7v4.7c0,0.4-0.3,0.7-0.7,0.7h-25.6
		C453.4,92.3,453.1,92,453.1,91.6z"/>
	<path style="fill:#34313F;" d="M411.5,72.5c0-12.1,8.7-20.3,19.9-20.3c7.3,0,12,3.7,14.8,8.2c0.2,0.3,0.1,0.8-0.3,0.9l-4.5,2.4
		c-0.3,0.2-0.7,0.1-0.8-0.2c-1.9-3-5.4-5.2-9.2-5.2c-7.5,0-13.1,5.9-13.1,14.2c0,8.2,5.6,14.2,13.1,14.2c3.8,0,7.3-2.2,9.2-5.2
		c0.2-0.3,0.5-0.4,0.8-0.2l4.5,2.3c0.4,0.2,0.5,0.6,0.3,1c-2.9,4.5-7.6,8.3-14.8,8.3C420.2,92.8,411.5,84.6,411.5,72.5z"/>
	<path style="fill:#34313F;" d="M322.6,91.8V61.9L310.7,92c0,0.1-0.2,0.2-0.3,0.2h-2.5c-0.1,0-0.3-0.1-0.3-0.2l-12-30.1v29.9
		c0,0.3-0.2,0.5-0.5,0.5h-6c-0.3,0-0.5-0.2-0.5-0.5V53.4c0-0.3,0.2-0.5,0.5-0.5h8.6c0.4,0,0.7,0.2,0.9,0.6l10.5,27l10.4-27
		c0.1-0.4,0.5-0.6,0.9-0.6h8.6c0.3,0,0.5,0.2,0.5,0.5v38.4c0,0.3-0.2,0.5-0.5,0.5h-6C322.8,92.3,322.6,92.1,322.6,91.8z"/>
</g>
</svg>
