<?xml version="1.0" encoding="utf-8"?>
<!-- Generator: Adobe Illustrator 24.2.1, SVG Export Plug-In . SVG Version: 6.00 Build 0)  -->
<svg version="1.1" id="Layer_1" xmlns="http://www.w3.org/2000/svg" xmlns:xlink="http://www.w3.org/1999/xlink" x="0px" y="0px"
	width="100px" height="100px" viewBox="0 0 199.7 199.7" style="enable-background:new 0 0 199.7 199.7;" xml:space="preserve">
<g>
	<g>
		<path style="fill:#E8E8E8;" d="M99.9,0c55.1,0,99.9,44.7,99.9,99.9s-44.7,99.9-99.9,99.9S0,155,0,99.9S44.7,0,99.9,0"/>
		<path style="fill:#FFFFFF;" d="M99.9,2c53.9,0,97.9,43.9,97.9,97.9s-43.7,97.9-97.9,97.9S2,153.8,2,99.9S45.9,2,99.9,2"/>
		<path style="fill:#E8E8E8;" d="M99.9,0c55.1,0,99.9,44.7,99.9,99.9s-44.7,99.9-99.9,99.9S0,155,0,99.9S44.7,0,99.9,0"/>
		<path style="fill:#FFFFFF;" d="M99.9,2c53.9,0,97.9,43.9,97.9,97.9s-43.7,97.9-97.9,97.9S2,153.8,2,99.9S45.9,2,99.9,2"/>
	</g>
	<g>
		<g>
			<path style="fill:#00A1E0;" d="M35.6,83c4.2-4.4,11.2-4.6,15.6-0.4c0.8,0.8,1.5,1.7,2.1,2.7c6.9-3,15,0.2,17.9,7.2
				s-0.2,15-7.2,17.9c-1.7,0.7-3.5,1.1-5.3,1.1c-0.9,0-1.8-0.1-2.7-0.3c-1.8,3.1-5.1,5.1-8.6,5.1c-1.5,0-3-0.3-4.3-1
				c-2.4,5.8-9.1,8.4-14.8,6c-2.9-1.2-5.1-3.6-6.2-6.5c-0.7,0.1-1.4,0.2-2.2,0.2c-5.9-0.1-10.6-4.9-10.5-10.8c0-3.7,2-7.2,5.3-9
				c-2.7-6.2,0.2-13.4,6.4-16C26.2,77,32.2,78.6,35.6,83z"/>
			<g>
				<path style="fill:#FFFFFF;" d="M18.5,101c0,0.1,0,0.1,0,0.1c0.1,0.1,0.2,0.1,0.4,0.2c0.6,0.3,1.2,0.4,1.9,0.4
					c1.3,0,2.1-0.7,2.1-1.8v0c0-1-0.9-1.4-1.7-1.7l-0.1,0c-0.6-0.2-1.2-0.4-1.2-0.8v0c0-0.4,0.3-0.6,0.8-0.6c0.6,0,1.1,0.2,1.6,0.4
					c0,0,0.1,0.1,0.2,0c0-0.1,0.2-0.7,0.3-0.7s0-0.1-0.1-0.1c-0.6-0.3-1.2-0.5-1.9-0.5h-0.1c-1-0.1-1.9,0.6-2,1.6c0,0,0,0.1,0,0.1v0
					c0,1.1,0.9,1.4,1.8,1.7l0.1,0.1c0.6,0.2,1.1,0.4,1.1,0.8v0c0,0.4-0.4,0.7-0.9,0.7c-0.6,0-1.2-0.2-1.7-0.5
					c-0.1-0.1-0.1-0.1-0.2-0.1c0,0-0.1,0-0.1,0c0,0,0,0,0,0L18.5,101z"/>
				<path style="fill:#FFFFFF;" d="M37.4,101c0,0.1,0,0.1,0,0.1c0.1,0.1,0.2,0.1,0.4,0.2c0.6,0.3,1.2,0.4,1.9,0.4
					c1.3,0,2.1-0.7,2.1-1.8v0c0-1-0.9-1.4-1.7-1.7l-0.1,0c-0.6-0.2-1.2-0.4-1.2-0.8v0c0-0.4,0.3-0.6,0.8-0.6c0.6,0,1.1,0.2,1.6,0.4
					c0,0,0.1,0.1,0.2,0c0-0.1,0.2-0.7,0.3-0.7s0-0.1-0.1-0.1c-0.6-0.3-1.2-0.5-1.9-0.5h-0.1c-1-0.1-1.9,0.6-2,1.6c0,0,0,0.1,0,0.1v0
					c0,1.1,0.9,1.4,1.8,1.7l0.1,0.1c0.6,0.2,1.1,0.4,1.1,0.8v0c0,0.4-0.4,0.7-0.9,0.7c-0.6,0-1.2-0.2-1.7-0.5
					c-0.1-0.1-0.1-0.1-0.2-0.1c0,0-0.1,0-0.1,0c0,0,0,0,0,0L37.4,101z"/>
				<path style="fill:#FFFFFF;" d="M51.4,97.7c-0.1-0.3-0.3-0.7-0.5-0.9c-0.2-0.3-0.5-0.5-0.8-0.6c-0.4-0.2-0.8-0.2-1.1-0.2
					c-0.4,0-0.8,0.1-1.1,0.2c-0.3,0.1-0.6,0.4-0.8,0.6c-0.2,0.3-0.4,0.6-0.5,0.9c-0.2,0.7-0.2,1.5,0,2.3c0.1,0.3,0.3,0.7,0.5,0.9
					c0.2,0.3,0.5,0.5,0.8,0.6c0.7,0.3,1.6,0.3,2.3,0c0.3-0.1,0.6-0.4,0.8-0.6c0.2-0.3,0.4-0.6,0.5-0.9c0.1-0.4,0.2-0.8,0.2-1.1
					C51.5,98.5,51.5,98.1,51.4,97.7 M50.3,98.9c0,0.5-0.1,1-0.4,1.5c-0.2,0.4-0.6,0.5-1,0.5c-0.4,0-0.8-0.2-1-0.5
					c-0.2-0.5-0.4-1-0.3-1.5c0-0.5,0.1-1,0.3-1.4c0.2-0.4,0.6-0.5,1-0.5c0.4,0,0.8,0.2,1,0.5C50.2,97.9,50.3,98.4,50.3,98.9"/>
				<path style="fill:#FFFFFF;" d="M60.2,100.7c0-0.1-0.1-0.1-0.1-0.1c-0.2,0.1-0.3,0.1-0.5,0.1c-0.2,0-0.4,0.1-0.6,0.1
					c-0.5,0-0.9-0.1-1.2-0.5c-0.3-0.4-0.5-0.9-0.5-1.5c0-0.5,0.1-1,0.4-1.4c0.3-0.4,0.7-0.6,1.2-0.5c0.4,0,0.8,0,1.1,0.2
					c0,0,0.1,0,0.1-0.1c0.1-0.3,0.2-0.4,0.3-0.7c0-0.1-0.1-0.1-0.1-0.1c-0.2-0.1-0.5-0.1-0.7-0.2c-0.3,0-0.5-0.1-0.8-0.1
					c-0.4,0-0.8,0.1-1.2,0.2c-0.3,0.1-0.6,0.4-0.9,0.6c-0.2,0.3-0.4,0.6-0.5,0.9c-0.1,0.4-0.2,0.8-0.2,1.2c0,0.8,0.2,1.5,0.7,2.2
					c0.6,0.6,1.3,0.8,2.1,0.8c0.5,0,1-0.1,1.5-0.3c0.1,0,0.1-0.1,0.1-0.1c0,0,0,0,0,0L60.2,100.7z"/>
				<path style="fill:#FFFFFF;" d="M65.7,97.5c-0.1-0.3-0.2-0.6-0.5-0.8c-0.2-0.2-0.4-0.4-0.7-0.5c-0.3-0.1-0.7-0.2-1-0.2
					c-0.4,0-0.8,0.1-1.2,0.2c-0.3,0.2-0.6,0.4-0.8,0.6c-0.2,0.3-0.4,0.6-0.5,1c-0.2,0.8-0.2,1.6,0,2.3c0.1,0.3,0.3,0.7,0.5,0.9
					c0.3,0.3,0.6,0.5,0.9,0.6c0.4,0.2,0.9,0.2,1.3,0.2c0.6,0,1.3-0.1,1.8-0.4c0,0,0.1-0.1,0-0.2l-0.2-0.7c0-0.1-0.1-0.1-0.1-0.1
					c-0.5,0.2-1,0.3-1.5,0.3c-0.5,0-0.9-0.1-1.3-0.4c-0.3-0.3-0.5-0.8-0.4-1.2h3.7c0,0,0.1,0,0.1-0.1C65.9,98.6,65.9,98,65.7,97.5z
					 M62.1,98.3c0-0.3,0.1-0.6,0.3-0.9c0.2-0.4,0.6-0.5,1-0.5c0.4,0,0.8,0.2,1,0.5c0.2,0.3,0.2,0.6,0.2,0.9H62.1z"/>
				<path style="fill:#FFFFFF;" d="M36.6,97.5c-0.1-0.3-0.2-0.6-0.5-0.8c-0.2-0.2-0.4-0.4-0.7-0.5c-0.3-0.1-0.7-0.2-1-0.2
					c-0.4,0-0.8,0.1-1.2,0.2c-0.3,0.2-0.6,0.4-0.8,0.6c-0.2,0.3-0.4,0.6-0.5,1c-0.2,0.8-0.2,1.6,0,2.3c0.1,0.3,0.3,0.7,0.5,0.9
					c0.3,0.3,0.6,0.5,0.9,0.6c0.4,0.2,0.9,0.2,1.3,0.2c0.6,0,1.3-0.1,1.8-0.4c0,0,0.1-0.1,0-0.2l-0.2-0.7c0-0.1-0.1-0.1-0.1-0.1
					c-0.5,0.2-1,0.3-1.5,0.3c-0.5,0-0.9-0.1-1.3-0.4c-0.3-0.3-0.5-0.8-0.4-1.2h3.7c0,0,0.1,0,0.1-0.1C36.7,98.6,36.7,98,36.6,97.5z
					 M32.9,98.3c0-0.3,0.1-0.6,0.3-0.9c0.2-0.4,0.6-0.5,1-0.5c0.4,0,0.8,0.2,1,0.5c0.1,0.3,0.2,0.6,0.2,0.9H32.9z"/>
				<path style="fill:#FFFFFF;" d="M26.5,98.1c-0.1,0-0.3,0-0.6,0c-0.3,0-0.6,0-0.9,0.1c-0.3,0.1-0.5,0.2-0.8,0.4
					c-0.2,0.2-0.4,0.4-0.5,0.6c-0.1,0.3-0.2,0.6-0.2,0.8c0,0.3,0,0.6,0.2,0.8c0.1,0.2,0.3,0.4,0.5,0.6c0.2,0.1,0.5,0.3,0.7,0.3
					c0.3,0.1,0.6,0.1,1,0.1c0.4,0,0.7,0,1.1-0.1c0.4-0.1,0.8-0.2,0.9-0.2c0.1,0,0.2-0.1,0.2-0.1c0,0,0.1-0.1,0.1-0.1V98
					c0.1-0.6-0.2-1.2-0.6-1.6c-0.5-0.4-1.1-0.5-1.7-0.5c-0.3,0-0.7,0-1,0.1c-0.4,0.1-0.8,0.2-1.1,0.4c0,0-0.1,0.1,0,0.1l0.2,0.7
					c0,0.1,0.1,0.1,0.1,0c0,0,0,0,0,0c0.5-0.2,1-0.4,1.6-0.4c0.3,0,0.6,0.1,0.9,0.2c0.2,0.2,0.3,0.5,0.3,0.9v0.2
					C26.9,98.1,26.7,98.1,26.5,98.1z M25.1,100.6c-0.1-0.1-0.2-0.1-0.2-0.2c-0.1-0.1-0.1-0.3-0.1-0.5c0-0.3,0.1-0.5,0.3-0.7
					c0.3-0.2,0.7-0.3,1.1-0.3c0.3,0,0.7,0,1,0.1v1.7l0,0c-0.3,0.1-0.7,0.1-1,0.1C25.7,100.9,25.4,100.8,25.1,100.6z"/>
				<path style="fill:#FFFFFF;" d="M55.9,96.2c0-0.1,0-0.1-0.1-0.1c-0.2-0.1-0.4-0.1-0.6-0.1c-0.3,0-0.6,0-0.9,0.2
					c-0.2,0.1-0.4,0.3-0.6,0.5v-0.4c0-0.1-0.1-0.1-0.1-0.1h-0.9c-0.1,0-0.1,0.1-0.1,0.1v5.4c0,0.1,0.1,0.1,0.1,0.1h1
					c0.1,0,0.1-0.1,0.1-0.1v-2.7c0-0.3,0-0.6,0.1-1c0.1-0.2,0.2-0.4,0.3-0.5c0.1-0.1,0.3-0.2,0.5-0.3c0.2-0.1,0.3-0.1,0.5-0.1
					c0.1,0,0.3,0,0.4,0.1c0.1,0,0.1,0,0.1-0.1C55.7,96.8,55.9,96.3,55.9,96.2z"/>
				<path style="fill:#FFFFFF;" d="M46.9,93.7c-0.1,0-0.2-0.1-0.4-0.1c-0.2,0-0.3,0-0.5,0c-0.6,0-1.1,0.2-1.6,0.5
					c-0.4,0.5-0.7,1-0.7,1.7L43.7,96h-0.8c-0.1,0-0.1,0-0.1,0.1c0,0,0,0,0,0l-0.1,0.8c0,0.1,0,0.1,0.1,0.1h0.8l-0.8,4.6
					c0,0.3-0.1,0.6-0.2,0.9c-0.1,0.2-0.1,0.4-0.2,0.5c-0.1,0.1-0.2,0.2-0.3,0.2c-0.1,0-0.3,0.1-0.4,0.1c-0.1,0-0.2,0-0.3,0
					c-0.1,0-0.1,0-0.2-0.1c-0.1,0-0.1,0-0.1,0.1c0,0.1-0.2,0.7-0.3,0.7c0,0.1,0,0.1,0.1,0.1c0.1,0,0.2,0.1,0.3,0.1
					c0.2,0,0.4,0.1,0.5,0.1c0.3,0,0.6,0,0.9-0.1c0.3-0.1,0.5-0.3,0.7-0.5c0.2-0.2,0.4-0.5,0.5-0.8c0.2-0.4,0.3-0.8,0.3-1.2l0.8-4.6
					H46c0.1,0,0.1,0,0.1-0.1c0,0,0,0,0,0l0.1-0.8c0-0.1,0-0.1-0.1-0.1h-1.2c0-0.3,0.1-0.6,0.2-0.8c0.1-0.1,0.1-0.3,0.2-0.4
					c0.1-0.1,0.2-0.2,0.3-0.2c0.1,0,0.3-0.1,0.4-0.1c0.1,0,0.2,0,0.3,0c0.1,0,0.2,0,0.2,0.1c0.1,0,0.1,0,0.2-0.1l0.3-0.8
					C47,93.7,46.9,93.7,46.9,93.7z"/>
				<path style="fill:#FFFFFF;" d="M30.6,101.6c0,0.1-0.1,0.1-0.1,0.1h-1c-0.1,0-0.1-0.1-0.1-0.1v-7.8c0-0.1,0.1-0.1,0.1-0.1h1
					c0.1,0,0.1,0.1,0.1,0.1V101.6z"/>
			</g>
		</g>
		<g>
			<path style="fill:#032E61;" d="M80.8,93.4c0.5,0,1,0.1,1.4,0.2c0.4,0.1,0.9,0.4,1.2,0.6l-0.5,0.9c-0.6-0.5-1.4-0.7-2.1-0.7
				c-0.8-0.1-1.5,0.3-2,0.8c-0.5,0.7-0.7,1.5-0.7,2.3c0,0.8,0.2,1.6,0.7,2.2c0.5,0.6,1.2,0.9,1.9,0.8c0.8,0,1.5-0.2,2.2-0.7l0.5,1
				c-0.8,0.6-1.7,0.9-2.7,0.9c-0.8,0-1.6-0.2-2.2-0.6c-0.6-0.4-1-0.9-1.3-1.6c-0.3-0.7-0.4-1.4-0.4-2.1c-0.1-1.1,0.3-2.2,1.1-3.1
				C78.7,93.8,79.7,93.4,80.8,93.4z"/>
			<path style="fill:#032E61;" d="M91.9,97.6c0,0.8-0.2,1.5-0.5,2.2c-0.3,0.6-0.8,1.1-1.4,1.5c-1.3,0.7-3,0.7-4.3,0
				c-0.6-0.4-1.1-0.9-1.4-1.5c-0.3-0.7-0.5-1.4-0.5-2.2c-0.1-1.1,0.3-2.2,1.1-3.1c0.8-0.8,1.8-1.2,2.9-1.1c0.8,0,1.5,0.2,2.2,0.5
				c0.6,0.3,1.1,0.9,1.4,1.5C91.8,96.1,92,96.9,91.9,97.6z M85.3,97.6c0,0.8,0.2,1.6,0.7,2.3c1,1.1,2.7,1.2,3.8,0.2
				c0.1-0.1,0.1-0.1,0.2-0.2c0.5-0.7,0.7-1.5,0.7-2.3c0-0.8-0.2-1.6-0.7-2.3c-0.5-0.6-1.2-0.9-2-0.8c-0.8-0.1-1.5,0.3-2,0.8
				C85.5,96,85.3,96.8,85.3,97.6z"/>
			<path style="fill:#032E61;" d="M93.5,95.5c0-0.6,0-1.2-0.1-1.8h1.3c0.1,0.4,0.1,0.8,0.1,1.1h0c0.3-0.4,0.6-0.8,1.1-1
				c0.5-0.3,1-0.4,1.6-0.4c0.6,0,1.2,0.1,1.7,0.4c0.4,0.3,0.8,0.7,1,1.2h0c0.3-0.5,0.7-0.9,1.1-1.2c0.5-0.3,1.1-0.5,1.7-0.4
				c0.6,0,1.2,0.1,1.7,0.4c0.4,0.3,0.8,0.7,1,1.1c0.2,0.5,0.3,1,0.3,1.5v5.1h-1.3v-4.9c0-0.6-0.1-1.1-0.4-1.6
				c-0.3-0.4-0.9-0.7-1.4-0.6c-0.4,0-0.9,0.1-1.3,0.4c-0.3,0.3-0.6,0.6-0.8,1c-0.2,0.4-0.3,0.9-0.3,1.4v4.4H99v-5
				c0-0.5-0.1-1.1-0.5-1.5c-0.3-0.4-0.9-0.7-1.4-0.6c-0.6,0-1.3,0.2-1.7,0.7c-0.4,0.5-0.6,1.1-0.6,1.8v4.6h-1.3L93.5,95.5z"/>
			<path style="fill:#032E61;" d="M107.8,95.5c0-0.6,0-1.2-0.1-1.8h1.3c0.1,0.4,0.1,0.8,0.1,1.1h0c0.3-0.4,0.6-0.8,1.1-1
				c0.5-0.3,1-0.4,1.6-0.4c0.6,0,1.2,0.1,1.7,0.4c0.4,0.3,0.8,0.7,1,1.2h0c0.3-0.5,0.7-0.9,1.1-1.2c0.5-0.3,1.1-0.5,1.7-0.4
				c0.6,0,1.2,0.1,1.7,0.4c0.4,0.3,0.8,0.7,1,1.1c0.2,0.5,0.3,1,0.3,1.5v5.1h-1.3v-4.9c0-0.6-0.1-1.1-0.4-1.6
				c-0.3-0.4-0.9-0.7-1.4-0.6c-0.4,0-0.9,0.1-1.3,0.4c-0.3,0.3-0.6,0.6-0.8,1c-0.2,0.4-0.3,0.9-0.3,1.4v4.4h-1.3v-5
				c0-0.5-0.1-1.1-0.5-1.5c-0.3-0.4-0.9-0.7-1.4-0.6c-0.6,0-1.3,0.2-1.7,0.7c-0.4,0.5-0.6,1.1-0.6,1.8v4.6h-1.3L107.8,95.5z"/>
			<path style="fill:#032E61;" d="M128.9,98.2h-5.9c0,0.7,0.3,1.4,0.7,2c0.5,0.5,1.2,0.8,1.9,0.7c0.4,0,0.9-0.1,1.3-0.2
				c0.4-0.1,0.8-0.3,1.1-0.6l0.6,0.9c-0.4,0.3-0.9,0.6-1.4,0.7c-0.5,0.2-1.1,0.3-1.7,0.2c-1.1,0.1-2.1-0.4-2.9-1.2
				c-0.7-0.9-1.1-2-1-3.1c0-0.8,0.1-1.5,0.4-2.2c0.3-0.6,0.7-1.1,1.3-1.5c0.6-0.4,1.3-0.5,2-0.5c1-0.1,2,0.4,2.7,1.1
				c0.6,0.9,1,1.9,0.9,3C128.9,97.8,128.9,98,128.9,98.2z M127.6,97.1c0-0.7-0.2-1.4-0.6-1.9c-0.4-0.5-1-0.8-1.7-0.7
				c-0.7,0-1.3,0.2-1.7,0.7c-0.4,0.5-0.7,1.2-0.7,1.9L127.6,97.1L127.6,97.1z"/>
			<path style="fill:#032E61;" d="M130.4,95.5c0-0.6,0-1.2-0.1-1.8h1.3c0.1,0.4,0.1,0.8,0.1,1.3h0c0.4-1,1.4-1.6,2.5-1.5
				c0.1,0,0.2,0,0.5,0.1l-0.1,1.1c-0.2,0-0.3,0-0.5,0c-0.7,0-1.3,0.2-1.8,0.8c-0.4,0.6-0.6,1.3-0.6,2v4.3h-1.3V95.5z"/>
			<path style="fill:#032E61;" d="M139,93.4c0.5,0,1,0.1,1.4,0.2c0.4,0.1,0.9,0.4,1.2,0.6l-0.5,0.9c-0.6-0.5-1.4-0.7-2.1-0.7
				c-0.8-0.1-1.5,0.3-2,0.8c-0.5,0.7-0.7,1.5-0.7,2.3c0,0.8,0.2,1.6,0.7,2.2c0.5,0.6,1.2,0.9,1.9,0.8c0.8,0,1.5-0.2,2.2-0.7l0.5,1
				c-0.8,0.6-1.7,0.9-2.7,0.9c-0.8,0-1.6-0.2-2.2-0.6c-0.6-0.4-1-0.9-1.3-1.6c-0.3-0.7-0.4-1.4-0.4-2.1c-0.1-1.1,0.3-2.2,1.1-3.1
				C136.8,93.8,137.9,93.4,139,93.4z"/>
			<path style="fill:#032E61;" d="M149.4,98.2h-5.9c0,0.7,0.3,1.4,0.7,2c0.5,0.5,1.2,0.8,1.9,0.7c0.4,0,0.9-0.1,1.3-0.2
				c0.4-0.1,0.8-0.3,1.1-0.6l0.6,0.9c-0.4,0.3-0.9,0.6-1.4,0.7c-0.5,0.2-1.1,0.3-1.7,0.2c-1.1,0.1-2.1-0.4-2.9-1.2
				c-0.7-0.9-1.1-2-1-3.1c0-0.8,0.1-1.5,0.4-2.2c0.3-0.6,0.7-1.1,1.3-1.5c0.6-0.4,1.3-0.5,2-0.5c1-0.1,2,0.4,2.7,1.1
				c0.6,0.9,1,1.9,0.9,3C149.5,97.8,149.4,98,149.4,98.2z M148.1,97.1c0-0.7-0.2-1.4-0.6-1.9c-0.4-0.5-1-0.8-1.7-0.7
				c-0.7,0-1.3,0.2-1.7,0.7c-0.4,0.5-0.7,1.2-0.7,1.9L148.1,97.1L148.1,97.1z"/>
			<path style="fill:#032E61;" d="M157.8,93.4c0.5,0,1,0.1,1.4,0.2c0.4,0.1,0.9,0.4,1.2,0.6l-0.5,0.9c-0.6-0.5-1.4-0.7-2.1-0.7
				c-0.8-0.1-1.5,0.3-2,0.8c-0.5,0.7-0.7,1.5-0.7,2.3c0,0.8,0.2,1.6,0.7,2.2c0.5,0.6,1.2,0.9,1.9,0.8c0.8,0,1.5-0.2,2.2-0.7l0.5,1
				c-0.8,0.6-1.7,0.9-2.7,0.9c-0.8,0-1.6-0.2-2.2-0.6c-0.6-0.4-1-0.9-1.3-1.6c-0.3-0.7-0.4-1.4-0.4-2.1c-0.1-1.1,0.3-2.2,1.1-3.1
				C155.6,93.8,156.7,93.4,157.8,93.4z"/>
			<path style="fill:#032E61;" d="M163.3,90.6v11.1H162V90.6H163.3z"/>
			<path style="fill:#032E61;" d="M172.9,97.6c0,0.8-0.2,1.5-0.5,2.2c-0.3,0.6-0.8,1.1-1.4,1.5c-1.3,0.7-3,0.7-4.3,0
				c-0.6-0.4-1.1-0.9-1.4-1.5c-0.3-0.7-0.5-1.4-0.5-2.2c-0.1-1.1,0.3-2.2,1.1-3.1c0.8-0.8,1.8-1.2,2.9-1.1c0.8,0,1.5,0.2,2.2,0.5
				c0.6,0.3,1.1,0.9,1.4,1.5C172.8,96.1,172.9,96.9,172.9,97.6z M166.3,97.6c0,0.8,0.2,1.6,0.7,2.3c1,1.1,2.7,1.2,3.8,0.2
				c0.1-0.1,0.1-0.1,0.2-0.2c0.5-0.7,0.7-1.5,0.7-2.3c0-0.8-0.2-1.6-0.7-2.3c-0.5-0.6-1.2-0.9-2-0.8c-0.8-0.1-1.5,0.3-2,0.8
				C166.4,96,166.2,96.8,166.3,97.6L166.3,97.6z"/>
			<path style="fill:#032E61;" d="M174.2,98.6v-4.9h1.4v4.7c0,0.6,0.1,1.3,0.5,1.8c0.3,0.5,0.9,0.7,1.5,0.7c0.7,0,1.3-0.3,1.8-0.8
				c0.4-0.6,0.7-1.3,0.7-2v-4.3h1.3v6.2c0,0.6,0,1.2,0.1,1.8h-1.3c-0.1-0.4-0.1-0.9-0.1-1.3h0c-0.6,1-1.6,1.6-2.8,1.5
				c-0.9,0.1-1.7-0.3-2.2-0.9C174.4,100.3,174.1,99.4,174.2,98.6z"/>
			<path style="fill:#032E61;" d="M190.3,101.7h-1.3c-0.1-0.4-0.1-0.8-0.1-1.2h0c-0.6,1-1.7,1.5-2.9,1.4c-1,0.1-2-0.4-2.6-1.2
				c-0.6-0.9-0.9-1.9-0.9-3c0-0.7,0.1-1.5,0.4-2.2c0.3-0.6,0.7-1.1,1.3-1.5c0.6-0.4,1.3-0.6,2-0.5c1,0,1.9,0.3,2.6,1v-4h1.3v9.4
				C190.2,100.5,190.3,101.1,190.3,101.7z M188.9,98.2v-2.5c-0.3-0.4-0.7-0.7-1.1-0.9c-0.4-0.2-0.9-0.3-1.4-0.3
				c-0.7,0-1.4,0.3-1.8,0.9c-0.5,0.7-0.7,1.5-0.7,2.3c0,0.8,0.2,1.6,0.7,2.3c0.4,0.6,1.1,0.9,1.8,0.8c0.7,0,1.4-0.2,1.8-0.7
				C188.7,99.6,188.9,98.9,188.9,98.2z"/>
		</g>
	</g>
</g>
</svg>
