<?xml version="1.0" encoding="utf-8"?>
<!-- Generator: Adobe Illustrator 24.2.1, SVG Export Plug-In . SVG Version: 6.00 Build 0)  -->
<svg version="1.1" id="Layer_1" xmlns="http://www.w3.org/2000/svg" xmlns:xlink="http://www.w3.org/1999/xlink" x="0px" y="0px"
	width="100px" height="100px" viewBox="0 0 100 100" style="enable-background:new 0 0 100 100;" xml:space="preserve">
<g>
	<g>
		<path style="fill:#E8E8E8;" d="M50,0c27.6,0,50,22.4,50,50s-22.4,50-50,50S0,77.6,0,50S22.4,0,50,0"/>
		<path style="fill:#FFFFFF;" d="M50,1c27,0,49,22,49,49S77.1,99,50,99S1,77,1,50S23,1,50,1"/>
		<path style="fill:#E8E8E8;" d="M50,0c27.6,0,50,22.4,50,50s-22.4,50-50,50S0,77.6,0,50S22.4,0,50,0"/>
		<path style="fill:#FFFFFF;" d="M50,1c27,0,49,22,49,49S77.1,99,50,99S1,77,1,50S23,1,50,1"/>
	</g>
	<g>
		<path style="fill:#F27225;" d="M12.1,31.2c6.5,0,13.1,0.6,19.6-0.3c0.6,0,2-0.4,1.9,0.6c-0.2,1.7-0.1,3.4-0.1,5.1
			c-0.3,0.3-0.7,0.6-1.2,0.8c-0.2-1.2-0.1-3-1.6-3.4c-2.1-0.7-4.4-0.7-6.5-0.8c-1.5,0.1-3.1-0.1-4.6,0.5c-1,0.7-0.5,2.1-0.7,3.1
			c0.2,2.3-0.3,4.6,0.3,6.8c2.7,0.1,5.4,0.2,8.1,0c1.8-0.2,1.9-2.3,2.3-3.6c0.4,0.3,1.3,0.4,1.1,1.1c-0.2,2.5-0.2,5.1,0.1,7.6
			c-0.3,0.1-0.8,0.3-1.1,0.5c-0.7-1.3-1-3.3-2.8-3.4c-2.4-0.2-4.7-0.1-7.1-0.1c-1.2-0.2-0.9,1.2-1,2c0,2.7-0.1,5.4,0.1,8
			c0.1,1.6,1.9,1.8,3.2,1.9c3.1,0.1,6.4,0.2,9.2-1.2c1.8-0.8,1.6-3.1,2.2-4.7c0.7,0.3,1.7,0.8,1.5,1.7c-0.5,2.1-1.1,4.2-1,6.4
			c-7.6-0.7-15.2-0.2-22.7-0.3c0-0.3,0-0.9,0-1.2c1.1-0.3,2.4-0.3,3.3-1.1c0.8-1.1,0.7-2.5,0.8-3.8c0-5.4,0-10.7,0-16.1
			c0-1.3-0.1-2.7-0.8-3.7c-0.7-0.7-1.8-0.8-2.7-1.1C12,32.1,12.1,31.5,12.1,31.2L12.1,31.2z"/>
		<path style="fill:#F27225;" d="M39.2,40.6c1.6-1.4,1.9-3.7,3.3-5.3c0.2,0.2,0.5,0.6,0.7,0.8c-0.1,1.6-0.3,3.2-0.4,4.8
			c2.1,0,4.2,0,6.2,0.1c0,0.6,0,1.3,0,1.9c-2,0-4.1,0-6.1,0c0.2,4.1-0.3,8.2,0.3,12.2c0.5,2.5,3.7,2.2,5.3,1
			c0.3,0.3,0.6,0.6,0.9,0.9c-1.5,1.8-3.7,3.3-6.2,2.8c-2-0.3-3.2-2.2-3.4-4.1c-0.3-3.5,0.3-7,0-10.5c-0.2-1.6-2-1.7-3.2-2.1
			C36.8,41.8,38.4,41.5,39.2,40.6L39.2,40.6z"/>
		<path style="fill:#F27225;" d="M63.1,40.9c0.5-0.3,1.9-1.1,1.8,0.1c-0.3,1.7,0.2,3.8-0.7,5.3c-1,0.2-1-1-1.4-1.7
			c-0.7-2.5-4.3-3.2-6.2-1.7c-1.1,0.8-1.1,2.5-0.1,3.4c2.6,2.2,6.7,2.4,8.7,5.5c1.7,2.9-0.3,6.7-3.3,7.6c-3.2,1.4-6.6-1-9.7,0.6
			c-0.1-2,0.3-3.9,0.2-5.8c-0.2-1,0.8-1.4,1.5-1.7c0.2,1.7,0.4,3.9,2.1,4.7c2,1.4,5.6,1.3,6.6-1.3c0.7-1.5-0.3-3-1.6-3.6
			c-2.3-1.4-5.2-1.9-7.1-3.8c-2-2.1-1.2-5.8,1.2-7.2C57.5,39.9,60.5,40.5,63.1,40.9L63.1,40.9z"/>
		<path style="fill:#F27225;" d="M67.3,42c0-0.4,0.1-0.8,0.1-1.2c3,0.2,5.9,0,8.9,0.1c0.5,1.5-1.4,1.4-2.3,2
			c-0.2,1.2,0.3,2.4,0.8,3.6c1.2,2.7,2.3,5.5,3.4,8.1c1.4-2.9,3-5.7,4.1-8.8c0.2-0.9,0.6-1.9,0.3-2.8c-1-0.7-2.5-0.8-2.6-2.2
			c2.9,0,5.7,0.1,8.5-0.1c0,0.4,0.1,0.8,0.1,1.2c-1.5,0.4-3,1.2-3.7,2.7c-2.2,4.3-4.2,8.8-6.3,13.1c-1.6,3.3-3,6.8-5.6,9.5
			c-1.2,1.2-3.1,2.3-4.9,1.5c-1.3-0.6-1-2.7,0.3-2.9c1.1-0.1,2.1,0.3,3.2,0.3c2.1-1.2,3-3.7,3.7-5.9c0.7-1.6-0.1-3.3-0.6-4.9
			c-1.4-3.9-2.7-7.7-4.5-11.4C69.8,42.7,68.4,42.5,67.3,42L67.3,42z"/>
	</g>
</g>
</svg>
