<?xml version="1.0" encoding="utf-8"?>
<!-- Generator: Adobe Illustrator 24.2.1, SVG Export Plug-In . SVG Version: 6.00 Build 0)  -->
<svg version="1.1" id="Layer_1" xmlns="http://www.w3.org/2000/svg" xmlns:xlink="http://www.w3.org/1999/xlink" x="0px" y="0px"
	width="100px" height="100px" viewBox="0 0 100 100" style="enable-background:new 0 0 100 100;" xml:space="preserve">
<g>
	<g>
		<path style="fill:#E8E8E8;" d="M50,0c27.6,0,50,22.4,50,50s-22.4,50-50,50S0,77.6,0,50S22.4,0,50,0"/>
		<path style="fill:#FFFFFF;" d="M50,1c27,0,49,22,49,49S77.1,99,50,99S1,77,1,50S23,1,50,1"/>
		<path style="fill:#E8E8E8;" d="M50,0c27.6,0,50,22.4,50,50s-22.4,50-50,50S0,77.6,0,50S22.4,0,50,0"/>
		<path style="fill:#FFFFFF;" d="M50,1c27,0,49,22,49,49S77.1,99,50,99S1,77,1,50S23,1,50,1"/>
	</g>
	<g>
		<path style="fill:#A391E0;" d="M26.9,43.2L15.8,57.3h5l10.9-14.2C31.6,43.2,26.9,43.2,26.9,43.2z"/>
		<path style="fill:#283663;" d="M65.2,41.3h-3.8v4.2h-5.2v-4.2h-3.8v4.2h-3.5v3.3h3.5v12.1h3.8V48.9h5.2v12.1h3.8V48.9h3.5v-3.3
			h-3.5V41.3z M43.6,51.5H37c0.1-1.8,1.6-3.1,3.4-3.1C42.3,48.4,43.5,49.8,43.6,51.5L43.6,51.5z M47.5,58.6l-2.3-2.3
			c-1.1,1.1-2.5,1.8-4,1.8c-2.2,0.1-4.1-1.6-4.2-3.8h11c0.5-5.5-3-9.1-7.5-9.1c-4.6,0-7.6,3.7-7.6,8.1c0,4.8,3.6,8,8.2,8
			C43.5,61.3,46,60.3,47.5,58.6L47.5,58.6L47.5,58.6z M74.2,60.9V39.2h-3.8v21.8L74.2,60.9z M12.9,60.9V46.1H9.1v14.9
			C9.1,60.9,12.9,60.9,12.9,60.9z M31.6,60.9v-3.6H15.8v3.6C15.8,60.9,31.6,60.9,31.6,60.9z M31.6,43.2v-3.6H16.1v3.6L31.6,43.2z
			 M8.3,41.3c0,1.5,1.2,2.7,2.7,2.7c1.5,0,2.7-1.2,2.7-2.7c0-1.5-1.2-2.7-2.7-2.7C9.5,38.7,8.3,39.9,8.3,41.3z M87.4,51.5h-6.6
			c0.1-1.8,1.6-3.1,3.4-3.1C86.1,48.4,87.3,49.8,87.4,51.5L87.4,51.5z M91.3,58.6L89,56.3c-1.1,1.1-2.5,1.8-4,1.8
			c-2.2,0.1-4.1-1.6-4.2-3.8h11c0.5-5.5-3-9.1-7.5-9.1c-4.6,0-7.6,3.7-7.6,8.1c0,4.8,3.6,8,8.2,8C87.3,61.3,89.8,60.3,91.3,58.6
			L91.3,58.6L91.3,58.6z"/>
	</g>
</g>
</svg>
