<?xml version="1.0" encoding="utf-8"?>
<!-- Generator: Adobe Illustrator 24.2.1, SVG Export Plug-In . SVG Version: 6.00 Build 0)  -->
<svg version="1.1" id="Layer_1" xmlns="http://www.w3.org/2000/svg" xmlns:xlink="http://www.w3.org/1999/xlink" x="0px" y="0px"
	 viewBox="0 0 1006.5 286.8" style="enable-background:new 0 0 1006.5 286.8;" xml:space="preserve">
<g>
	<path id="path69" style="fill:#95BF47;" d="M216.3,54c-0.2-1.5-1.5-2.2-2.5-2.3c-1-0.2-20.9-0.3-20.9-0.3s-16.7-16.2-18.4-17.9
		c-1.7-1.7-4.8-1.2-6.1-0.8c0,0-3.1,1-8.4,2.6c-0.8-2.8-2.2-6.3-4-9.8c-6-11.4-14.6-17.4-25.2-17.4c-0.7,0-1.5,0-2.2,0.2
		c-0.3-0.3-0.7-0.7-1-1.2c-4.6-5-10.4-7.3-17.4-7.1c-13.6,0.3-27,10.1-38.1,27.6c-7.8,12.2-13.6,27.6-15.2,39.6
		c-15.6,4.8-26.5,8.1-26.6,8.3c-7.8,2.5-8.1,2.6-9.1,10.1C20.5,91,0,250.1,0,250.1l172.3,29.8l74.6-18.5
		C246.9,261.3,216.5,55.3,216.3,54z M151.4,37.9c-4,1.2-8.4,2.6-13.4,4.1c-0.2-6.8-1-16.4-4.1-24.7C144.3,19.4,149.3,31,151.4,37.9z
		 M129.1,44.9c-9.1,2.8-18.9,5.8-28.8,8.9c2.8-10.6,8.1-21.2,14.6-28.1c2.5-2.6,5.8-5.5,9.8-7.1C128.4,26.3,129.1,37.4,129.1,44.9z
		 M110.5,9.1c3.1,0,5.8,0.7,8.1,2.2c-3.6,1.8-7.3,4.6-10.6,8.3C99.5,28.8,92.8,43,90.2,56.9c-8.3,2.5-16.2,5-23.7,7.3
		C71.5,42.4,89.7,9.8,110.5,9.1z"/>
	<path id="path71" style="fill:#5E8E3E;" d="M213.8,51.6c-1-0.2-20.9-0.3-20.9-0.3s-16.7-16.2-18.4-17.9c-0.7-0.7-1.5-1-2.3-1v247.4
		l74.6-18.5c0,0-30.4-205.9-30.6-207.4C216,52.5,214.8,51.8,213.8,51.6z"/>
	<path id="path73" style="fill:#FFFFFF;" d="M130.9,90l-8.6,32.4c0,0-9.6-4.5-21.2-3.6c-16.9,1-17,11.6-16.9,14.4
		c1,14.6,39.1,17.7,41.2,51.6c1.7,26.8-14.2,45-37.1,46.5C60.9,233,45.8,217,45.8,217l5.8-24.7c0,0,15.2,11.4,27.3,10.8
		c7.9-0.5,10.8-7,10.4-11.6c-1.2-18.9-32.3-17.9-34.3-48.8c-1.7-26.1,15.6-52.6,53.5-55.1C123.5,86.2,130.9,90,130.9,90L130.9,90z"
		/>
	<path id="path75" d="M348,159.2c-8.6-4.6-13.1-8.6-13.1-14.1c0-7,6.1-11.4,15.9-11.4c11.3,0,21.2,4.6,21.2,4.6l7.9-24.2
		c0,0-7.3-5.6-28.6-5.6c-29.8,0-50.5,17-50.5,41c0,13.6,9.6,24,22.5,31.4c10.4,6,14.1,10.1,14.1,16.4c0,6.5-5.1,11.6-14.9,11.6
		c-14.4,0-28-7.4-28-7.4l-8.4,24.2c0,0,12.6,8.4,33.6,8.4c30.6,0,52.6-15.1,52.6-42.2C372.5,177.2,361.4,166.8,348,159.2L348,159.2z
		 M470.1,108.2c-15.1,0-27,7.1-36.1,18l-0.5-0.2l13.1-68.5h-34.1l-33.1,174.3h34.1l11.4-59.6c4.5-22.5,16.1-36.4,27-36.4
		c7.6,0,10.6,5.1,10.6,12.6c0,4.6-0.5,10.4-1.5,15.1l-12.9,68.2h34.1l13.4-70.5c1.5-7.4,2.5-16.4,2.5-22.2
		C498.1,120,487.8,108.2,470.1,108.2z M575.2,108.2c-41,0-68.2,37.1-68.2,78.4c0,26.5,16.4,47.7,47,47.7c40.2,0,67.5-36.1,67.5-78.4
		C621.4,131.6,607,108.2,575.2,108.2L575.2,108.2z M558.3,208.2c-11.6,0-16.5-9.9-16.5-22.2c0-19.5,10.1-51.5,28.6-51.5
		c12.1,0,16.1,10.4,16.1,20.5C586.5,176.1,576.4,208.2,558.3,208.2z M708.6,108.2c-23,0-36.1,20.2-36.1,20.2H672l2-18.4h-30.1
		c-1.5,12.4-4.1,31.1-7,45.2L613.3,280h34.1l9.4-50.5h0.7c0,0,7,4.5,20,4.5c40,0,66.2-41,66.2-82.6
		C743.9,128.8,733.6,108.2,708.6,108.2L708.6,108.2z M676,208.7c-8.9,0-14.1-5-14.1-5l5.6-31.9c4-21.2,15.1-35.4,27-35.4
		c10.4,0,13.6,9.6,13.6,18.9C708.1,177.2,695,208.7,676,208.7z M792.5,59.4c-10.9,0-19.5,8.6-19.5,19.9c0,10.1,6.5,17,16.1,17h0.5
		c10.6,0,19.9-7.1,20-19.9C809.5,66.5,802.9,59.4,792.5,59.4L792.5,59.4z M744.8,231.9h34.1L802.1,111h-34.4L744.8,231.9z
		 M888.8,110.7h-23.7l1.2-5.6c2-11.6,8.9-22,20.2-22c6.1,0,10.9,1.7,10.9,1.7l6.6-26.6c0,0-6-3-18.5-3c-12.1,0-24.2,3.5-33.4,11.4
		c-11.6,9.9-17,24.2-19.9,38.6l-1,5.6h-15.9l-5,25.7h15.9l-18,95.5h34.1l18-95.5h23.5L888.8,110.7z M970.9,111
		c0,0-21.3,53.8-30.9,83.1h-0.5c-0.7-9.4-8.4-83.1-8.4-83.1h-35.7l20.5,111c0.5,2.5,0.2,4-0.7,5.6c-4,7.6-10.6,15.1-18.5,20.5
		c-6.5,4.6-13.6,7.6-19.4,9.6l9.4,29c7-1.5,21.2-7.1,33.4-18.5c15.6-14.6,30-37.1,44.7-67.7l41.7-89.5H970.9z"/>
</g>
</svg>
