<?xml version="1.0" encoding="utf-8"?>
<!-- Generator: Adobe Illustrator 24.2.1, SVG Export Plug-In . SVG Version: 6.00 Build 0)  -->
<svg version="1.1" id="Layer_1" xmlns="http://www.w3.org/2000/svg" xmlns:xlink="http://www.w3.org/1999/xlink" x="0px" y="0px"
	width="100px" height="100px" viewBox="0 0 100 100" style="enable-background:new 0 0 100 100;" xml:space="preserve">
<g>
	<g>
		<path style="fill:#E8E8E8;" d="M50,0c27.6,0,50,22.4,50,50s-22.4,50-50,50S0,77.6,0,50S22.4,0,50,0"/>
		<path style="fill:#FFFFFF;" d="M50,1c27,0,49,22,49,49S77.1,99,50,99S1,77,1,50S23,1,50,1"/>
		<path style="fill:#E8E8E8;" d="M50,0c27.6,0,50,22.4,50,50s-22.4,50-50,50S0,77.6,0,50S22.4,0,50,0"/>
		<path style="fill:#FFFFFF;" d="M50,1c27,0,49,22,49,49S77.1,99,50,99S1,77,1,50S23,1,50,1"/>
	</g>
	<g>
		<path style="fill:#020202;" d="M34.5,63.8c-1,0-1.9,0.4-2.6,1c-0.3,0.2-0.6,0.5-0.8,0.8c-0.4,0.5-0.7,1.1-0.9,1.7
			c-0.6,1.8-0.4,3.7,0.4,5.3c0.3,0.6,0.7,1.1,1.2,1.5c0.4,0.3,0.9,0.6,1.4,0.7c1.5,0.5,3.1,0.2,4.3-0.7c0.3-0.2,0.6-0.5,0.8-0.8
			c0-0.1,0.2-0.4,0.2-0.1v5.3h1.6V64h-1.6V66c-0.2-0.4-0.6-0.8-0.9-1.2C36.7,64.1,35.6,63.7,34.5,63.8z M35,65.2
			c0.8,0,1.5,0.2,2.1,0.7c0.4,0.3,0.7,0.7,1,1.2c0.6,1.3,0.7,2.8,0.2,4.2c-0.2,0.6-0.6,1.2-1.2,1.6c-0.8,0.7-1.9,0.8-2.9,0.6
			c-0.6-0.1-1.2-0.5-1.6-1c-0.8-0.9-1-2.1-1-3.3c0-1,0.3-2,0.8-2.8C33.1,65.7,34,65.2,35,65.2L35,65.2z M22.6,59.6
			c-1.2,0-2.5,0.4-3.5,1.1c-0.2,0.2-0.4,0.4-0.6,0.6c-0.6,0.8-0.9,1.7-0.8,2.7c0,0.7,0.3,1.4,0.8,1.9c0.2,0.2,0.4,0.4,0.6,0.6
			c1.3,1,2.9,1.2,4.4,1.6c0.9,0.3,2,0.5,2.6,1.3c0.5,0.7,0.6,1.6,0.2,2.3c-0.3,0.6-0.8,1.1-1.3,1.3c-1.2,0.5-2.5,0.5-3.8,0.1
			c-0.9-0.3-1.7-0.8-2.3-1.6c-0.2-0.2-0.3-0.4-0.5-0.1l-1.1,0.8c0.3,0.5,0.6,0.9,1,1.2c0.7,0.6,1.5,1,2.3,1.2c1.6,0.5,3.4,0.4,5-0.2
			c0.6-0.3,1.2-0.7,1.7-1.2c0.6-0.7,0.9-1.6,1-2.6c0-0.9-0.3-1.8-0.9-2.5c-0.1-0.2-0.3-0.3-0.5-0.5c-0.3-0.2-0.6-0.5-1-0.6
			c-1.6-0.8-3.4-1-5.1-1.7c-0.5-0.2-1-0.6-1.3-1.1c-0.4-0.9-0.1-1.9,0.7-2.5c0.7-0.5,1.6-0.7,2.4-0.7c1.5,0,2.9,0.6,3.9,1.8l1.3-1
			c-0.4-0.5-0.9-1-1.4-1.3C25.4,59.9,24,59.6,22.6,59.6z M42.9,71c0,1,0.2,1.9,0.8,2.7c0.3,0.4,0.7,0.8,1.2,1
			c1.2,0.5,2.5,0.5,3.7-0.1c0.5-0.3,1-0.6,1.4-1.1c0.2-0.1,0.3-0.5,0.4-0.6v1.8H52V64h-1.6l0,6.6c-0.2,1.8-1.7,3.1-3.5,2.9
			c-0.3,0-0.6-0.1-0.9-0.2c-0.7-0.4-1.2-1.1-1.2-1.9c-0.1-1.4,0-2.8-0.1-4.2V64h-1.6L42.9,71z M58.6,63.8c-1.4,0-2.8,0.5-3.9,1.3
			l0.7,1.2c1-0.7,2.2-1.1,3.4-1.1c0.9,0,1.9,0.2,2.4,0.9c0.3,0.5,0.2,1.2-0.3,1.6c-0.5,0.4-1.1,0.6-1.7,0.7
			c-1.1,0.2-2.3,0.2-3.3,0.7c-0.5,0.2-0.9,0.5-1.2,1c-0.6,0.7-0.6,1.7-0.4,2.6c0.2,0.8,0.7,1.5,1.4,1.9c1,0.5,2.2,0.7,3.4,0.4
			c0.7-0.2,1.3-0.5,1.7-0.9c0.2-0.2,0.3-0.4,0.5-0.6c0.2,0.1,0,0.4,0.1,0.6v0.8h1.6l0-8.4c-0.1-0.8-0.5-1.5-1.2-1.9
			C60.7,63.9,59.6,63.7,58.6,63.8z M61.2,68.9c0,1.1,0.2,2.4-0.4,3.4c-0.5,0.8-1.4,1.4-2.3,1.4c-0.8,0.1-1.8,0-2.4-0.7
			c-0.4-0.5-0.5-1.2-0.3-1.9c0.2-0.5,0.6-0.9,1.1-1c1.2-0.4,2.5-0.4,3.7-0.9C60.9,69.1,61.1,69,61.2,68.9L61.2,68.9z M70.3,63.8
			c-0.9,0.1-1.7,0.4-2.3,1c-0.3,0.3-0.5,0.7-0.7,1V64h-1.6v10.8h1.6l0-6.3c0.1-1,0.6-2,1.4-2.7c0.8-0.6,1.9-0.7,2.8-0.3
			c0.2-0.1,0.1-0.4,0.2-0.6l0.2-0.8C71.4,63.9,70.9,63.8,70.3,63.8L70.3,63.8z M77.3,63.8c-0.9,0-1.9,0.3-2.6,0.9l-0.5,0.4
			c-0.4,0.4-0.7,0.9-1,1.4c-0.8,1.6-0.9,3.4-0.4,5.1c0.2,0.8,0.6,1.5,1.2,2.1c0.2,0.2,0.4,0.4,0.6,0.5c0.8,0.6,1.8,0.9,2.8,0.9
			c1.4,0.1,2.7-0.3,3.8-1.1c0.3-0.2,0.6-0.5,0.9-0.8l-1.1-1c-0.6,0.7-1.4,1.2-2.3,1.4c-1.2,0.2-2.7,0-3.6-1c-0.7-0.7-1-1.8-1-2.7
			c0.2-0.2,0.5,0,0.8-0.1h7.5c0.2-1.5-0.2-3-1.1-4.2c-0.3-0.3-0.6-0.6-0.9-0.8C79.6,64,78.5,63.7,77.3,63.8L77.3,63.8z M77.9,65.2
			c1.1,0.1,2.1,0.7,2.6,1.6c0.2,0.5,0.4,1.1,0.4,1.6h-6.7c0.1-0.8,0.3-1.6,0.9-2.2c0.1-0.2,0.4-0.4,0.6-0.5
			C76.4,65.3,77.1,65.1,77.9,65.2L77.9,65.2z M60,21.5H39.9c-2.8,0-5,2.3-5,5v20.1c0,2.8,2.3,5,5,5H60c2.8,0,5-2.3,5-5V26.5
			C65.1,23.7,62.8,21.5,60,21.5 M59.6,44.6c0,0.9-0.7,1.6-1.6,1.6H42c-0.9,0-1.6-0.7-1.6-1.6v-16c0-0.9,0.7-1.6,1.6-1.6h16
			c0.9,0,1.6,0.7,1.6,1.6V44.6z M54.1,39.8c0,0.5-0.4,0.9-0.9,0.9h-6.4c-0.5,0-0.9-0.4-0.9-0.9v-6.4c0-0.5,0.4-0.9,0.9-0.9h6.4
			c0.5,0,0.9,0.4,0.9,0.9V39.8z"/>
	</g>
</g>
</svg>
