<?xml version="1.0" encoding="utf-8"?>
<!-- Generator: Adobe Illustrator 24.2.1, SVG Export Plug-In . SVG Version: 6.00 Build 0)  -->
<svg version="1.1" id="Layer_1" xmlns="http://www.w3.org/2000/svg" xmlns:xlink="http://www.w3.org/1999/xlink" x="0px" y="0px"
	 viewBox="0 0 704.6 102" style="enable-background:new 0 0 704.6 102;" xml:space="preserve">
<g transform="translate(62 47)">
	<path style="fill-rule:evenodd;clip-rule:evenodd;" d="M-35.8,7L3.7-33c2.7-2.7,6.3-4.2,10.1-4.2c3.8,0,7.4,1.5,10.1,4.2l3.1,3.1
		l6.2-6.2l-3.1-3.1C25.7-43.6,19.8-46,13.7-46c-6.1,0-11.9,2.4-16.2,6.8L-42,0.8L-35.8,7z M17-19.7l-6.2-6.2L-28.9,14
		c-5.5,5.6-14.6,5.6-20.2,0.1c0,0,0,0-0.1-0.1c-5.6-5.6-5.6-14.7,0-20.3l34.2-34.4L-21-47l-34.2,34.4c-9,9-9,23.7,0,32.8
		C-50.9,24.6-45.1,27-39,27c6.1,0,12-2.4,16.3-6.8L17-19.7z M56.3-12.2C52-16.6,46.1-19,40-19c-6.2,0-11.9,2.4-16.3,6.8L-16,27.7
		l6.2,6.2L29.9-6c5.5-5.6,14.6-5.6,20.2-0.1c0,0,0,0,0.1,0.1c2.7,2.7,4.2,6.4,4.2,10.2c0,3.8-1.5,7.5-4.2,10.2L15.8,48.8L22,55
		l34.2-34.4C65.2,11.5,65.2-3.2,56.3-12.2 M36.8,1L-2.6,41c-5.5,5.6-14.4,5.6-20,0.1c0,0-0.1-0.1-0.1-0.1l-3.1-3.1l-6.2,6.2l3.1,3.1
		c4.3,4.4,10.1,6.8,16.2,6.8c6.1,0,11.9-2.4,16.2-6.8L43,7.2L36.8,1z M99.5,14.4c0.5,2.5,1.7,4.5,3.6,6s4.3,2.2,7.4,2.2
		c3,0,5.3-0.7,7-2.1s2.5-3.3,2.5-5.6c0-1.1-0.2-2.1-0.7-2.9s-1.1-1.4-1.8-2s-1.8-1-2.9-1.4l-3.9-1.2l-3.8-1.1
		c-2.2-0.6-4.2-1.4-6-2.2S97.6,2.2,96.3,1c-1.2-1.1-2.2-2.5-2.8-4.1c-0.6-1.5-1-3.3-1-5.3c0-2.1,0.4-4.1,1.3-5.9s2-3.3,3.5-4.6
		s3.4-2.3,5.6-3s4.6-1.1,7.4-1.1c5.1,0,9.2,1.2,12.2,3.7s4.8,5.8,5.3,10l-8.3,0.7c-0.5-2.1-1.5-3.8-3.1-5s-3.7-1.8-6.4-1.8
		c-2.5,0-4.5,0.6-6,1.8s-2.2,2.8-2.2,4.6c0,1.1,0.2,2,0.6,2.7s1,1.4,1.8,1.9s1.7,1,2.9,1.5s2.4,0.9,3.9,1.3l3.5,1.1
		c2.2,0.7,4.2,1.5,6,2.2s3.3,1.7,4.6,2.8s2.2,2.4,2.9,3.9c0.7,1.5,1,3.4,1,5.6c0,2.4-0.5,4.5-1.4,6.5c-0.9,1.9-2.2,3.6-3.9,5
		c-1.7,1.4-3.6,2.4-5.9,3.2S113,30,110.2,30c-5.1,0-9.4-1.2-12.9-3.7s-5.5-6.2-6.3-11.1L99.5,14.4L99.5,14.4z M164.9-14.4
		c-2.5,0-4.7,0.5-6.7,1.4s-3.6,2.2-5,3.9s-2.4,3.6-3.1,5.9S149,1.6,149,4.3s0.4,5.2,1.1,7.5s1.8,4.3,3.2,6c1.4,1.7,3.1,3,5,4
		c2,1,4.2,1.4,6.7,1.4s4.7-0.5,6.7-1.4s3.6-2.2,5-3.8s2.4-3.6,3.2-5.9s1.1-4.9,1.1-7.6c0-2.7-0.4-5.2-1.1-7.5s-1.8-4.3-3.2-5.9
		s-3-2.9-5-3.9S167.4-14.4,164.9-14.4 M164.9-22c3.8,0,7.2,0.6,10.3,1.9s5.7,3.1,7.9,5.4s3.9,5.1,5.1,8.4S190,0.5,190,4.4
		c0,4-0.6,7.6-1.9,10.8c-1.3,3.2-3.1,6-5.5,8.4l6.7,8V34h-8.5l-4.7-5.8c-1.7,0.8-3.4,1.4-5.2,1.8c-1.9,0.4-3.8,0.6-6,0.6
		c-3.8,0-7.3-0.6-10.4-1.9s-5.7-3.1-7.8-5.4s-3.8-5.1-5-8.3S140,8.2,140,4.4c0-3.9,0.6-7.4,1.8-10.6s2.9-6,5-8.3s4.8-4.1,7.9-5.5
		S161.2-22,164.9-22 M224,22.7c3.6,0,6.3-1.1,8.3-3.4s3-5.7,3-10.3v-31h8.7V9.2c0,3.7-0.5,6.8-1.4,9.5c-0.9,2.6-2.2,4.8-3.9,6.4
		s-3.8,2.9-6.3,3.7S227.1,30,224,30c-3.1,0-5.9-0.4-8.4-1.2s-4.6-2-6.3-3.7s-3-3.8-3.9-6.4s-1.4-5.8-1.4-9.5V-22h8.7V9
		c0,4.6,1,8.1,3,10.3S220.4,22.7,224,22.7 M269,7.2h16.7l-2.7-7.9l-4.4-12.7h-2.2l-0.8,2.4l-1,2.6l-1.2,3.3l-1.5,4.4L269,7.2
		L269,7.2z M253,26.6L271-21h13.3L302,26.6V29h-8.7l-5.1-14.3h-21.9L261.2,29H253V26.6z M321.6,1.8h7.6c3.3,0,6-0.6,7.9-1.8
		s2.9-3.2,2.9-6c0-2.8-1-4.8-2.9-5.9s-4.6-1.7-7.9-1.7h-7.6L321.6,1.8L321.6,1.8z M351,29h-8.4L327.3,9.4h-5.6V29H313v-50h16.2
		c2.6,0,5,0.2,7.3,0.5s4.4,1.1,6.2,2.4c4,2.6,5.9,6.5,5.9,11.8c0,2.3-0.3,4.3-1,6S346.1,2.8,345,4c-1.1,1.2-2.4,2.2-3.9,2.9
		c-1.5,0.7-3,1.3-4.6,1.7l14.4,18V29z M362-21h32.5v7.7h-23.9v13.1h22.2v7.5h-22.2v14.1H395V29h-33V-21z M414.5,14.4
		c0.5,2.5,1.7,4.5,3.6,6s4.3,2.2,7.4,2.2c3,0,5.3-0.7,7-2.1s2.5-3.3,2.5-5.6c0-1.1-0.2-2.1-0.7-2.9s-1.1-1.4-1.8-2s-1.8-1-2.9-1.4
		l-3.9-1.2l-3.8-1.1c-2.2-0.6-4.2-1.4-6-2.2s-3.3-1.9-4.5-3.1s-2.2-2.5-2.9-4.1s-1-3.3-1-5.3c0-2.1,0.4-4.1,1.3-5.9s2-3.3,3.5-4.6
		s3.4-2.3,5.6-3s4.6-1.1,7.4-1.1c5.1,0,9.2,1.2,12.2,3.7s4.8,5.8,5.3,10l-8.3,0.7c-0.5-2.1-1.5-3.8-3.1-5s-3.7-1.8-6.4-1.8
		c-2.5,0-4.5,0.6-6,1.8s-2.2,2.8-2.2,4.6c0,1.1,0.2,2,0.6,2.7s1,1.4,1.8,1.9s1.7,1,2.9,1.5s2.4,0.9,3.9,1.3l3.5,1.1
		c2.2,0.7,4.2,1.5,6,2.2s3.3,1.7,4.5,2.8s2.2,2.4,2.9,3.9s1,3.4,1,5.6c0,2.4-0.5,4.5-1.4,6.5c-0.9,1.9-2.2,3.6-3.9,5
		c-1.7,1.4-3.6,2.4-5.9,3.2S428,30,425.2,30c-5.1,0-9.4-1.2-12.9-3.7s-5.5-6.2-6.3-11.1L414.5,14.4L414.5,14.4z M465.9,2.3h8.5
		c1.6,0,3-0.1,4.3-0.4s2.4-0.7,3.4-1.3c1-0.6,1.7-1.4,2.3-2.4c0.5-1,0.8-2.3,0.8-3.7c0-1.5-0.3-2.8-0.8-3.8c-0.5-1-1.3-1.8-2.2-2.5
		c-0.9-0.6-2.1-1-3.4-1.3s-2.7-0.4-4.2-0.4h-8.7L465.9,2.3L465.9,2.3z M457-21h18.6c3.5,0,6.3,0.4,8.7,1.2s4.2,1.9,5.7,3.3
		s2.5,3,3.1,4.9s1,3.9,1,6.1c0,2.6-0.4,4.9-1.3,6.8s-2.1,3.5-3.8,4.8s-3.7,2.2-6,2.8s-5,0.9-8,0.9h-9V29H457V-21z M512,7.2h16.7
		l-2.7-7.9l-2.6-7.6l-1.8-5.2h-2.2l-0.8,2.4l-1,2.6l-1.2,3.3l-1.5,4.4L512,7.2L512,7.2z M496,26.6L514-21h13.3L545,26.6V29h-8.7
		l-5.1-14.3h-21.9L504.2,29H496V26.6z M598,15.8c-0.8,2-1.8,3.8-3.1,5.5c-1.3,1.7-2.9,3.3-4.7,4.5c-1.8,1.3-3.9,2.3-6.3,3.1
		s-5.1,1.1-8,1.1c-3.7,0-7.1-0.7-10.2-2s-5.7-3.1-7.8-5.4s-3.8-5-5-8.2S551,7.8,551,4.1s0.6-7.2,1.8-10.3s2.9-5.9,5-8.3
		s4.8-4.1,7.9-5.5s6.5-2,10.3-2c5.5,0,10.1,1.3,13.9,3.8s6.3,5.9,7.9,10.2l-8.9,1.7c-1.2-2.6-2.9-4.6-5.1-6s-4.8-2.2-7.9-2.2
		c-2.5,0-4.7,0.5-6.6,1.4s-3.6,2.3-4.9,3.9s-2.3,3.6-3.1,5.9s-1.1,4.7-1.1,7.3c0,2.6,0.4,5.1,1.1,7.3s1.8,4.2,3.2,5.8
		c1.4,1.6,3.1,3,5,3.9c2,0.9,4.2,1.4,6.7,1.4c3.3,0,6-0.8,8.1-2.4s3.8-3.5,4.9-5.8L598,15.8z"/>
	<g transform="translate(671 25)">
		<defs>
			<filter id="Adobe_OpacityMaskFilter" filterUnits="userSpaceOnUse" x="-61.6" y="-46.6" width="33.2" height="50.5">
				<feColorMatrix  type="matrix" values="1 0 0 0 0  0 1 0 0 0  0 0 1 0 0  0 0 0 1 0"/>
			</filter>
		</defs>
		<mask maskUnits="userSpaceOnUse" x="-61.6" y="-46.6" width="33.2" height="50.5" id="B_2_">
			<g style="filter:url(#Adobe_OpacityMaskFilter);">
				<path id="A_2_" style="fill-rule:evenodd;clip-rule:evenodd;fill:#FFFFFF;" d="M-61.6-46.6h33.2V3.9h-33.2V-46.6z"/>
			</g>
		</mask>
		<path style="mask:url(#B_2_);fill-rule:evenodd;clip-rule:evenodd;" d="M-61.6-46.6h32.7v7.7h-24v13.2h22.4v7.6h-22.4v14.2h24.5
			v7.7h-33.2V-46.6z"/>
	</g>
</g>
</svg>
