<?xml version="1.0" encoding="utf-8"?>
<!-- Generator: Adobe Illustrator 24.2.1, SVG Export Plug-In . SVG Version: 6.00 Build 0)  -->
<svg version="1.1" id="Layer_1" xmlns="http://www.w3.org/2000/svg" xmlns:xlink="http://www.w3.org/1999/xlink" x="0px" y="0px"
	width="100px" height="100px" viewBox="0 0 100 100" style="enable-background:new 0 0 100 100;" xml:space="preserve">
<g>
	<g>
		<path style="fill:#E8E8E8;" d="M50,0c27.6,0,50,22.4,50,50s-22.4,50-50,50S0,77.6,0,50S22.4,0,50,0"/>
		<path style="fill:#FFFFFF;" d="M50,1c27,0,49,22,49,49S77.1,99,50,99S1,77,1,50S23,1,50,1"/>
		<path style="fill:#E8E8E8;" d="M50,0c27.6,0,50,22.4,50,50s-22.4,50-50,50S0,77.6,0,50S22.4,0,50,0"/>
		<path style="fill:#FFFFFF;" d="M50,1c27,0,49,22,49,49S77.1,99,50,99S1,77,1,50S23,1,50,1"/>
	</g>
	<g>
		<path style="fill-rule:evenodd;clip-rule:evenodd;fill:#635BFF;" d="M89.6,50.6c0-5.6-2.7-10.1-7.9-10.1c-5.2,0-8.4,4.4-8.4,10
			c0,6.6,3.7,10,9.1,10c2.6,0,4.6-0.6,6.1-1.4v-4.4c-1.5,0.7-3.2,1.2-5.4,1.2c-2.1,0-4-0.7-4.3-3.3h10.8
			C89.6,52.2,89.6,51.1,89.6,50.6z M78.7,48.5c0-2.5,1.5-3.5,2.9-3.5c1.3,0,2.8,1,2.8,3.5H78.7z"/>
		<path style="fill-rule:evenodd;clip-rule:evenodd;fill:#635BFF;" d="M64.8,40.5c-2.2,0-3.5,1-4.3,1.7l-0.3-1.4h-4.8v25.7l5.5-1.2
			l0-6.2c0.8,0.6,2,1.4,3.9,1.4c3.9,0,7.5-3.2,7.5-10.1C72.3,43.9,68.6,40.5,64.8,40.5z M63.4,55.6c-1.3,0-2.1-0.5-2.6-1l0-8.2
			c0.6-0.6,1.4-1.1,2.6-1.1c2,0,3.4,2.2,3.4,5.1C66.8,53.4,65.5,55.6,63.4,55.6z"/>
		<polygon style="fill-rule:evenodd;clip-rule:evenodd;fill:#635BFF;" points="47.8,39.2 53.3,38 53.3,33.5 47.8,34.7 		"/>
		<rect x="47.8" y="40.8" style="fill-rule:evenodd;clip-rule:evenodd;fill:#635BFF;" width="5.5" height="19.3"/>
		<path style="fill-rule:evenodd;clip-rule:evenodd;fill:#635BFF;" d="M41.8,42.5l-0.4-1.6h-4.8v19.3h5.5V47.1
			c1.3-1.7,3.5-1.4,4.2-1.1v-5.1C45.7,40.6,43.1,40.1,41.8,42.5z"/>
		<path style="fill-rule:evenodd;clip-rule:evenodd;fill:#635BFF;" d="M30.8,36.1l-5.4,1.1l0,17.6c0,3.3,2.4,5.7,5.7,5.7
			c1.8,0,3.1-0.3,3.9-0.7v-4.5c-0.7,0.3-4.2,1.3-4.2-2v-7.8H35v-4.7h-4.2L30.8,36.1z"/>
		<path style="fill-rule:evenodd;clip-rule:evenodd;fill:#635BFF;" d="M15.9,46.4c0-0.9,0.7-1.2,1.9-1.2c1.7,0,3.8,0.5,5.5,1.4v-5.2
			c-1.8-0.7-3.6-1-5.5-1c-4.5,0-7.4,2.3-7.4,6.2c0,6.1,8.4,5.1,8.4,7.7c0,1-0.9,1.3-2.1,1.3c-1.8,0-4.2-0.7-6-1.8v5.2
			c2,0.9,4.1,1.3,6,1.3c4.6,0,7.7-2.3,7.7-6.2C24.3,47.7,15.9,48.9,15.9,46.4z"/>
	</g>
</g>
</svg>
