<?xml version="1.0" encoding="utf-8"?>
<!-- Generator: Adobe Illustrator 24.2.1, SVG Export Plug-In . SVG Version: 6.00 Build 0)  -->
<svg version="1.1" id="Layer_1" xmlns="http://www.w3.org/2000/svg" xmlns:xlink="http://www.w3.org/1999/xlink" x="0px" y="0px"
	 viewBox="0 0 92.1 73.8" style="enable-background:new 0 0 92.1 73.8;" xml:space="preserve">
<g>
	<path style="fill:#2B0F56;" d="M61.4,32.8c-13.1-3.7-26.7-7.6-26.7-20.6c0-0.1-0.1-0.2-0.2-0.1c-0.1,0-0.1,0.1-0.1,0.1
		c-1.3,9.3,1.3,16,7.8,20.6c5.7,4.1,13.7,6,21.3,7.9c8.2,2,16,3.9,20.3,8.2c0,0,0.1,0,0.1,0H84c0.1,0,0.1-0.1,0.1-0.2
		C84.1,39.3,73.1,36.2,61.4,32.8"/>
	<path style="fill:#3DB5E6;" d="M77.1,48.7C75.4,47,70,45.8,63,44.2c-14.9-3.4-35.3-8-35.3-20.6c0-0.1-0.1-0.2-0.2-0.2
		c-0.1,0-0.2,0.1-0.2,0.2C26.5,32,30.5,38,39.5,41.8c7.6,3.3,17.5,4.3,25.5,5.2c5,0.6,9.4,1,12,1.9H77c0.1,0,0.1,0,0.2-0.1
		C77.2,48.8,77.2,48.7,77.1,48.7"/>
	<path style="fill:#2B0F56;" d="M42.7,47.3C31.6,45.4,26,42,22,34.5c0-0.1-0.1-0.1-0.2-0.1c-0.1,0-0.1,0.1-0.1,0.2
		c0,3.8,1.1,6.8,3.4,9c3.8,3.7,9.9,4.2,14.1,4.2c0.9,0,1.7,0,2.3,0h1.2c0.1,0,0.2-0.1,0.2-0.2c0-0.1-0.1-0.2-0.2-0.2"/>
	<path style="fill:#2B0F56;" d="M16.4,53.3c-0.6-0.7-1.3-1.3-2.2-1.7c-0.8-0.4-1.7-0.6-2.6-0.6c-0.4,0-0.9,0-1.3,0.1
		c-0.4,0.1-0.8,0.2-1.2,0.4c-0.4,0.2-0.7,0.5-0.9,0.8c-0.3,0.4-0.4,0.8-0.4,1.3c0,0.4,0.1,0.8,0.3,1.1c0.2,0.3,0.5,0.6,0.9,0.8
		c0.4,0.3,0.8,0.5,1.3,0.6c0.5,0.2,1.1,0.4,1.7,0.6c0.9,0.3,1.9,0.6,2.8,1c1,0.4,1.9,0.8,2.7,1.5c0.8,0.6,1.5,1.4,2,2.3
		c0.6,1,0.8,2.2,0.8,3.3c0,1.4-0.3,2.8-0.9,4c-0.5,1.1-1.3,2-2.3,2.8c-1,0.7-2.1,1.3-3.3,1.6c-1.3,0.4-2.6,0.5-3.9,0.5
		c-1.9,0-3.8-0.3-5.6-1c-1.7-0.6-3.2-1.6-4.4-2.9l4.2-4.3c0.7,0.8,1.6,1.5,2.6,2c1,0.5,2.1,0.8,3.2,0.8c0.5,0,0.9,0,1.4-0.2
		c0.4-0.1,0.8-0.3,1.2-0.5c0.3-0.2,0.6-0.5,0.8-0.9c0.2-0.4,0.3-0.9,0.3-1.4c0-0.5-0.1-0.9-0.4-1.3c-0.3-0.4-0.7-0.7-1.1-1
		c-0.5-0.3-1.1-0.6-1.7-0.8c-0.7-0.2-1.5-0.5-2.4-0.8c-0.9-0.3-1.7-0.6-2.5-1c-0.8-0.4-1.5-0.9-2.2-1.5c-0.7-0.6-1.2-1.3-1.5-2.2
		c-0.4-1-0.6-2-0.6-3.1c0-1.3,0.3-2.6,0.9-3.8c0.6-1,1.4-1.9,2.4-2.6c1-0.7,2.2-1.2,3.4-1.4c1.2-0.3,2.5-0.5,3.7-0.5
		c1.6,0,3.2,0.3,4.6,0.8c1.5,0.5,2.9,1.4,4.1,2.5L16.4,53.3z"/>
	<polygon style="fill:#2B0F56;" points="46,73.1 39.8,73.1 36.1,61.4 36,61.4 32.4,73.1 26.1,73.1 19.6,54.3 26.3,54.3 29.6,66.2 
		29.7,66.2 33,54.3 39.3,54.3 42.8,66.2 42.8,66.2 46.2,54.3 52.6,54.3 	"/>
	<path style="fill:#2B0F56;" d="M64.6,64.9h-0.8c-0.7,0-1.4,0-2.1,0.1c-0.6,0-1.2,0.2-1.8,0.4c-0.5,0.1-1,0.4-1.3,0.8
		C58.2,66.5,58,67,58,67.5c0,0.3,0.1,0.6,0.2,0.9c0.2,0.3,0.4,0.5,0.6,0.6c0.3,0.2,0.6,0.3,0.9,0.3c0.3,0.1,0.6,0.1,0.9,0.1
		c1.1,0.1,2.1-0.3,2.9-1c0.7-0.8,1.1-1.8,1-2.8L64.6,64.9z M53.2,56.8c1.1-1.1,2.4-1.9,3.9-2.4c1.4-0.5,3-0.8,4.5-0.8
		c1.4,0,2.7,0.2,4,0.6c1,0.4,2,1,2.7,1.8c0.7,0.9,1.2,2,1.5,3.1c0.3,1.5,0.5,3,0.5,4.5v9.5h-5.7v-2h-0.1c-0.5,0.8-1.3,1.4-2.2,1.8
		c-1,0.4-2.1,0.7-3.2,0.7c-0.8,0-1.6-0.1-2.3-0.3c-0.8-0.2-1.5-0.5-2.2-1c-0.7-0.5-1.2-1.1-1.6-1.8c-0.5-0.9-0.7-1.8-0.7-2.8
		c-0.1-1.2,0.3-2.4,1.1-3.3c0.8-0.9,1.8-1.5,2.9-1.9c1.3-0.5,2.6-0.8,3.9-0.9c1.4-0.1,2.8-0.2,4.2-0.2V61c0.1-0.8-0.3-1.6-1-2.1
		c-0.7-0.5-1.6-0.7-2.5-0.6c-0.9,0-1.8,0.2-2.5,0.6c-0.8,0.3-1.5,0.8-2.1,1.4L53.2,56.8z"/>
	<path style="fill:#2B0F56;" d="M85.8,73.1V62.8c0-0.5,0-1-0.1-1.5c-0.1-0.4-0.2-0.9-0.4-1.3c-0.2-0.4-0.5-0.7-0.8-0.9
		c-0.4-0.2-0.9-0.3-1.4-0.3c-0.5,0-1,0.1-1.5,0.3c-0.4,0.2-0.7,0.5-1,0.9c-0.3,0.4-0.5,0.8-0.6,1.3c-0.1,0.5-0.2,1-0.2,1.5v10.2
		h-6.3V54.3h6v2.6h0.1c0.3-0.4,0.6-0.8,0.9-1.2c0.4-0.4,0.8-0.7,1.3-1c0.5-0.3,1.1-0.5,1.6-0.7c0.6-0.2,1.2-0.3,1.8-0.3
		c1.1,0,2.2,0.2,3.2,0.7c0.8,0.4,1.6,1,2.1,1.8c0.5,0.7,0.9,1.6,1.2,2.5c0.2,0.9,0.4,1.9,0.4,2.8v11.7H85.8z"/>
	<path style="fill:#2B0F56;" d="M66.8,20.5c-6.7-2.4-12.1-4.4-12.1-9c0-1.7,1.5-3.5,4.4-3.5s6.5,1.6,8.7,2.5
		c0.7,0.3,1.3,0.6,1.6,0.7c1.5,0.5,3.1,0.3,4.5-0.4c0.1,0,0.1-0.1,0.1-0.2c0-0.1-0.1-0.1-0.2-0.1C72,10.2,70.2,9.3,69,7.8
		c-0.2-0.2-0.4-0.5-0.7-0.8c-1.9-2.3-6-7-11.8-7C44.1,0,44,11,44,11.5c0,10.2,10,13.6,20.6,17.2c11.3,3.8,23,7.8,24.5,20.2
		c0,0,0,0,0,0.1c0,0.1,0.1,0.1,0.2,0.1l0,0c0.1,0,0.1,0,0.2-0.1c0,0,0-0.1,0-0.1C91.3,29.4,77.7,24.4,66.8,20.5"/>
</g>
</svg>
