<?xml version="1.0" encoding="utf-8"?>
<!-- Generator: Adobe Illustrator 24.2.1, SVG Export Plug-In . SVG Version: 6.00 Build 0)  -->
<svg version="1.1" id="Layer_1" xmlns="http://www.w3.org/2000/svg" xmlns:xlink="http://www.w3.org/1999/xlink" x="0px" y="0px"
	 viewBox="0 0 351 155" style="enable-background:new 0 0 351 155;" xml:space="preserve">
<g>
	<path style="fill:#3FB04B;" d="M298.8,0H15C6.7,0,0,6.7,0,15v125c0,8.3,6.7,15,15,15h283.8c5.6,0,10.8-3.1,13.3-8.1l37.2-62.5
		c2.2-4.3,2.2-9.4,0-13.8L312.1,8.1C309.5,3.1,304.4,0,298.8,0"/>
	<path style="fill:#FFFFFF;" d="M326,77.5c0,4.1-3.4,7.5-7.5,7.5s-7.5-3.4-7.5-7.5s3.4-7.5,7.5-7.5S326,73.4,326,77.5 M73.4,61.6
		h11.1c0.7,0,1.2,0.8,0.9,1.4l-28.7,59c-0.5,1.1-2.2,1.1-2.7,0L25.1,63c-0.3-0.7,0.2-1.4,0.9-1.4h11.1c0.4,0,0.7,0.2,0.9,0.6
		l17.4,37.6l17.2-37.6C72.7,61.8,73,61.6,73.4,61.6 M134.3,85.3c-0.6-4.5-2.4-8.1-5.2-10.9c-3-2.9-6.7-4.4-11.1-4.4
		c-4.8,0-8.7,1.4-11.9,4.1c-3.2,2.7-5.2,6.5-6,11.2H134.3z M137.7,103.4l7.5,4.3c0.5,0.3,0.6,0.9,0.4,1.4
		c-6.7,10.5-16.1,15.7-28.3,15.7c-8.9,0-16.1-3.2-21.6-9.7c-5.3-6.3-8-14.7-8-25.3c0-3.7,0.8-7.7,2.4-11.8c3-7.6,8-12.9,15-15.8
		c3.7-1.6,7.8-2.3,12.2-2.3c12.8,0,21.4,5.4,25.9,16.2c2.1,5.1,3,9.9,2.9,14.4l-0.1,2.7c0,0.5-0.5,1-1,1H99.6c0,5.8,1.7,10.6,5,14.4
		c3.6,4,8.2,6,13.9,6c7.2,0,14.2-4.7,17.8-10.8C136.6,103.3,137.2,103.1,137.7,103.4 M157.7,61.6h9.6c0.6,0,1,0.5,1,1v7.7
		c4.5-6.9,10.8-10.4,18.9-10.4c14.2,0,21.3,8.7,21.3,26.1v35.7c0,0.6-0.4,1-1,1h-9.7c-0.6,0-1-0.4-1-1V85.8c0-5.2-0.9-9-2.7-11.4
		c-2.1-2.8-5.6-4.1-10.7-4.1c-10.1,0-15.1,6.3-15.1,19v32.4c0,0.6-0.4,1-1,1h-9.6c-0.6,0-1-0.4-1-1V62.6
		C156.7,62,157.1,61.6,157.7,61.6 M267.9,92.5c0-8.8-3-15.1-9.2-18.8c-3-1.8-6.4-2.7-10.2-2.7c-7.8,0-13.3,3.8-16.5,11.5
		c-1.4,3.3-2,6.7-2,10.2c0,7.3,2.5,13.1,7.6,17.4c2.8,2.4,6.4,3.6,10.7,3.6c8.4,0,14.3-3.7,17.5-11
		C267.2,99.5,267.9,96.1,267.9,92.5 M270.3,29.9h9.7c0.5,0,1,0.5,1,1v90.9c0,0.6-0.5,1-1,1h-9.7c-0.5,0-1-0.4-1-1v-8.9
		c-5.3,8-12.3,12-20.9,12c-9.6,0-17.1-3.6-22.5-10.8c-4.8-6.3-7.1-13.4-7.1-21.3c0-6.2,1.2-11.7,3.6-16.7c2.6-5.5,6.4-9.7,11.4-12.5
		c4.4-2.5,9.1-3.7,14.1-3.7c4.2,0,8.3,1.2,12.4,3.4c4.1,2.3,7.1,5.3,9,8.9V30.9C269.3,30.3,269.7,29.9,270.3,29.9"/>
</g>
</svg>
