<?xml version="1.0" encoding="utf-8"?>
<!-- Generator: Adobe Illustrator 24.2.1, SVG Export Plug-In . SVG Version: 6.00 Build 0)  -->
<svg version="1.1" id="Layer_1" xmlns="http://www.w3.org/2000/svg" xmlns:xlink="http://www.w3.org/1999/xlink" x="0px" y="0px"
	width="100px" height="100px" viewBox="0 0 100 100" style="enable-background:new 0 0 100 100;" xml:space="preserve">
<g>
	<g>
		<path style="fill:#E8E8E8;" d="M50,0c27.6,0,50,22.4,50,50s-22.4,50-50,50S0,77.6,0,50S22.4,0,50,0"/>
		<path style="fill:#FFFFFF;" d="M50,1c27,0,49,22,49,49S77.1,99,50,99S1,77,1,50S23,1,50,1"/>
		<path style="fill:#E8E8E8;" d="M50,0c27.6,0,50,22.4,50,50s-22.4,50-50,50S0,77.6,0,50S22.4,0,50,0"/>
		<path style="fill:#FFFFFF;" d="M50,1c27,0,49,22,49,49S77.1,99,50,99S1,77,1,50S23,1,50,1"/>
	</g>
	<g id="Logo_Color_Horizontal">
		<path style="fill:#8759F2;" d="M14.3,52.3l-3.2-5.5H8c-1.3,0-2.1,1.4-1.5,2.5l4.8,8.3c0.6,1.1,2.3,1.1,3,0l3.1-5.3
			C16.6,53.5,15,53.4,14.3,52.3z"/>
		<path style="fill:#FF3E80;" d="M17.5,46.8h-6.4l3.2,5.5c0.6,1.1,2.3,1.1,3,0l1.7-3C19.6,48.2,18.8,46.8,17.5,46.8z"/>
		<path style="fill:#FFC300;" d="M20.6,41.5H11c-1.3,0-2.1,1.4-1.5,2.5l1.6,2.8h6.4c1.3,0,2.1,1.4,1.5,2.5l3.1-5.3
			C22.7,43,21.9,41.5,20.6,41.5z"/>
		<path style="fill:#00D4E6;" d="M9.5,44.1c-0.3-0.5-0.3-1.2,0-1.7l-3.1,5.3c0.3-0.5,0.9-0.9,1.5-0.9h3.2L9.5,44.1z"/>
		<path style="fill:#221B43;" d="M79.4,46.6c-2.6,0-4.6,2-4.6,4.4c0,2.5,2,4.4,4.6,4.4c2.6,0,4.6-2,4.6-4.4
			C84,48.6,82,46.6,79.4,46.6z M79.4,53.7c-1.5,0-2.5-1.2-2.5-2.6s1.1-2.6,2.5-2.6s2.5,1.2,2.5,2.6S80.9,53.7,79.4,53.7L79.4,53.7z"
			/>
		<path style="fill:#221B43;" d="M49.4,43.2h-0.7c-0.5,0-0.7,0.2-0.7,0.7v10.6c0,0.5,0.2,0.7,0.7,0.7h0.7c0.5,0,0.7-0.2,0.7-0.7
			V43.9C50.1,43.5,49.9,43.2,49.4,43.2z"/>
		<path style="fill:#221B43;" d="M72.4,46.9h-0.7c-0.5,0-0.7,0.2-0.7,0.7v7c0,0.5,0.2,0.7,0.7,0.7h0.7c0.5,0,0.7-0.2,0.7-0.7v-7
			C73.1,47.1,72.8,46.9,72.4,46.9z"/>
		<path style="fill:#221B43;" d="M35.6,46.8h-0.7c-0.5,0-0.7,0.2-0.9,0.6l-2,5.5l-2-5.5c-0.2-0.5-0.4-0.6-0.9-0.6h-0.7
			c-0.5,0-0.9,0.2-0.6,0.8l2.8,6.9c0.2,0.6,0.5,0.7,1,0.7h0.9c0.5,0,0.7-0.1,1-0.7l2.8-6.9C36.5,47,36.1,46.8,35.6,46.8z"/>
		<path style="fill:#221B43;" d="M59.7,46.9h-0.7c-0.5,0-0.7,0.2-0.7,0.7v3.5c-0.1,1.7-1,2.6-2.2,2.6c-1,0-1.5-0.8-1.5-2.1v-4
			c0-0.5-0.2-0.7-0.7-0.7h-0.7c-0.5,0-0.7,0.2-0.7,0.7v4.2c0,1.5,0.7,3.7,3.1,3.7c2,0,2.6-1.3,2.7-1.7v0.8c0,0.5,0.2,0.7,0.7,0.7
			h0.7c0.5,0,0.7-0.2,0.7-0.7v-7C60.4,47.1,60.2,46.9,59.7,46.9z"/>
		<path style="fill:#221B43;" d="M86.4,55.3h0.7c0.5,0,0.7-0.2,0.7-0.7V51c0.1-1.7,1-2.6,2.2-2.6c1,0,1.5,0.8,1.5,2.1v4
			c0,0.5,0.2,0.7,0.7,0.7H93c0.5,0,0.7-0.2,0.7-0.7v-4.2c0-1.5-0.7-3.7-3.1-3.7c-2,0-2.6,1.3-2.7,1.7v-0.8c0-0.5-0.2-0.7-0.7-0.7
			h-0.7c-0.5,0-0.7,0.2-0.7,0.7v7C85.7,55.1,86,55.3,86.4,55.3z"/>
		<path style="fill:#221B43;" d="M73.4,44.4c0,0.7-0.5,1.3-1.4,1.3c-0.9,0-1.4-0.6-1.4-1.3s0.5-1.3,1.4-1.3S73.4,43.7,73.4,44.4z"/>
		<path style="fill:#221B43;" d="M68.6,48c0-0.2,0-0.3,0-0.5c-0.1-0.1-0.2-0.3-0.4-0.3c-0.7-0.2-1.6-0.5-2.6-0.5
			c-1.9,0-3.1,1-3.2,2.4c0,1.1,0.6,1.8,1.4,2.2c0.9,0.5,2,0.7,2.5,0.8c0.5,0.2,0.8,0.4,0.8,0.8c0,0.4-0.4,0.8-1.2,0.8
			c-1,0-1.9-0.4-2.5-0.6c-0.3-0.1-0.7,0-0.8,0.3l-0.2,0.5c-0.1,0.3,0,0.7,0.3,0.8c0.6,0.3,1.8,0.8,3.1,0.8c2.1,0,3.4-1.1,3.4-2.6
			c0-0.7-0.2-1.5-1.3-2.1c-0.6-0.3-2.2-0.6-2.8-1c-0.4-0.2-0.5-0.5-0.5-0.8c0-0.5,0.5-0.7,1.1-0.7c0.9,0,1.6,0.3,2.3,0.4
			c0.3,0.1,0.6-0.1,0.7-0.4L68.6,48z"/>
		<path style="fill:#221B43;" d="M41.5,46.6c-2.6,0-4.6,2-4.6,4.4c0,2.5,2,4.4,4.6,4.4s4.6-2,4.6-4.4C46.1,48.6,44.1,46.6,41.5,46.6
			z M41.5,53.7c-1.5,0-2.5-1.2-2.5-2.6s1.1-2.6,2.5-2.6c1.4,0,2.5,1.2,2.5,2.6S43,53.7,41.5,53.7L41.5,53.7z"/>
	</g>
</g>
</svg>
