<?xml version="1.0" encoding="utf-8"?>
<!-- Generator: Adobe Illustrator 24.2.1, SVG Export Plug-In . SVG Version: 6.00 Build 0)  -->
<svg version="1.1" id="Layer_1" xmlns="http://www.w3.org/2000/svg" xmlns:xlink="http://www.w3.org/1999/xlink" x="0px" y="0px"
	width="100px" height="100px" viewBox="0 0 100 100" style="enable-background:new 0 0 100 100;" xml:space="preserve">
<g>
	<g>
		<path style="fill:#E8E8E8;" d="M50,0c27.6,0,50,22.4,50,50s-22.4,50-50,50S0,77.6,0,50S22.4,0,50,0"/>
		<path style="fill:#FFFFFF;" d="M50,1c27,0,49,22,49,49S77.1,99,50,99S1,77,1,50S23,1,50,1"/>
		<path style="fill:#E8E8E8;" d="M50,0c27.6,0,50,22.4,50,50s-22.4,50-50,50S0,77.6,0,50S22.4,0,50,0"/>
		<path style="fill:#FFFFFF;" d="M50,1c27,0,49,22,49,49S77.1,99,50,99S1,77,1,50S23,1,50,1"/>
	</g>
	<g>
		<path style="fill:#FFB71B;" d="M81.8,46.8c0.5,0,0.8-0.2,0.9-0.6l0.5-5.2c0-0.5-0.6-0.9-1.4-0.9c-0.8,0-1.4,0.4-1.4,0.9l0.5,5.2
			C80.9,46.5,81.3,46.8,81.8,46.8z"/>
		<path style="fill:#FFB71B;" d="M79,48.4c0.2-0.4,0.2-0.9,0-1.1l-4.3-3c-0.4-0.3-1.1,0.1-1.5,0.7c-0.4,0.7-0.3,1.4,0.1,1.6l4.7,2.2
			C78.3,49,78.7,48.8,79,48.4L79,48.4z"/>
		<path style="fill:#FFB71B;" d="M84.6,48.4c0.2,0.4,0.6,0.6,0.9,0.5l4.7-2.2c0.4-0.3,0.5-1,0.1-1.6c-0.4-0.7-1-1-1.5-0.7l-4.3,3
			C84.4,47.5,84.3,48,84.6,48.4L84.6,48.4z"/>
		<path style="fill:#FFB71B;" d="M81.8,53.2c0.5,0,0.8,0.2,0.9,0.6l0.5,5.2c0,0.5-0.6,0.9-1.4,0.9c-0.8,0-1.4-0.4-1.4-0.9l0.5-5.2
			C80.9,53.5,81.3,53.2,81.8,53.2L81.8,53.2z"/>
		<path style="fill:#FFB71B;" d="M84.6,51.6c0.2-0.4,0.6-0.6,0.9-0.5l4.7,2.2c0.4,0.3,0.5,1,0.1,1.6c-0.4,0.7-1,1-1.5,0.7l-4.3-3
			C84.4,52.5,84.3,52,84.6,51.6L84.6,51.6z"/>
		<path style="fill:#FFB71B;" d="M79,51.6c0.2,0.4,0.2,0.9,0,1.1l-4.3,3c-0.4,0.3-1.1-0.1-1.5-0.7c-0.4-0.7-0.3-1.4,0.1-1.6l4.7-2.2
			C78.3,51,78.7,51.2,79,51.6L79,51.6z"/>
		<path style="fill:#0071CE;" d="M57.2,50.6c0-2-0.8-3.7-3.7-3.7c-1.5,0-2.6,0.4-3.2,0.8l0.5,1.6c0.7-0.4,1.5-0.7,2.4-0.7
			c1.4,0,1.7,0.8,1.7,1.3v0.1c-3.1,0-5.1,1.1-5.1,3.3c0,1.3,1,2.6,2.8,2.6c1.1,0,2-0.4,2.5-1.1H55c0,0,0.4,1.5,2.3,0.9
			c-0.1-0.7-0.1-1.4-0.1-2.1V50.6z M54.8,52.7c0,0.8-0.6,1.6-1.5,1.6c-0.1,0-0.1,0-0.2,0c-0.6,0-1.2-0.4-1.2-1.1
			c0-1.2,1.3-1.5,2.8-1.5V52.7z"/>
		<path style="fill:#0071CE;" d="M8.4,44.2c0,0,2,8.4,2.4,9.8c0.4,1.6,1.1,2.2,3,1.8l1.3-5.2c0.3-1.3,0.5-2.2,0.8-3.5h0
			c0.1,1.3,0.4,2.2,0.6,3.5c0,0,0.5,2.4,0.8,3.6c0.3,1.2,1,2,3,1.6l3-11.5h-2.5l-1,5c-0.3,1.4-0.5,2.6-0.7,3.9h0
			c-0.2-1.3-0.4-2.4-0.7-3.8l-1.1-5.1h-2.6l-1.2,4.9c-0.3,1.5-0.6,2.7-0.8,4h0c-0.2-1.2-0.5-2.7-0.8-4.2c0,0-0.7-3.5-0.9-4.8H8.4z"
			/>
		<path style="fill:#0071CE;" d="M30.2,50.6c0-2-0.8-3.7-3.7-3.7c-1.5,0-2.6,0.4-3.2,0.8l0.5,1.6c0.7-0.4,1.5-0.7,2.4-0.7
			c1.4,0,1.7,0.8,1.7,1.3v0.1c-3.1,0-5.1,1.1-5.1,3.3c0,1.3,1,2.6,2.8,2.6c1.1,0,2-0.4,2.5-1.1H28c0,0,0.4,1.5,2.3,0.9
			c-0.1-0.7-0.1-1.4-0.1-2.1V50.6z M27.9,52.7c0,0.8-0.6,1.6-1.5,1.6c-0.1,0-0.1,0-0.2,0c-0.6,0-1.2-0.4-1.2-1.1
			c0-1.2,1.3-1.5,2.8-1.5V52.7z"/>
		<polygon style="fill:#0071CE;" points="34.1,53.3 34.1,44.2 31.8,44.2 31.8,55.8 34.1,55.8 		"/>
		<path style="fill:#0071CE;" d="M64.8,44.2v8.5c0,1.2,0.2,2,0.7,2.5c0.4,0.4,1.1,0.7,1.9,0.7c0.6,0,1.1-0.1,1.7-0.3l0-1.8
			c-0.3,0.1-0.6,0.1-0.9,0.1c-0.8,0-1.1-0.5-1.1-1.6v-3.2h2V47h-2v-2.7H64.8z"/>
		<path style="fill:#0071CE;" d="M58.7,47.1v8.7h2.4v-4.4c0-0.2,0-0.4,0.1-0.6c0.2-0.9,0.9-1.5,1.9-1.5c0.2,0,0.5,0,0.7,0.1V47
			c-0.2,0-0.4-0.1-0.5-0.1c-0.9,0-1.9,0.6-2.4,1.8h-0.1v-1.6H58.7z"/>
		<path style="fill:#0071CE;" d="M35.8,47.1v8.7h2.4v-5.1c0-0.2,0-0.5,0.1-0.7c0.2-0.5,0.7-1.1,1.4-1.1c0.9,0,1.4,0.8,1.4,2v4.9h2.3
			v-5.1c0-0.2,0-0.5,0.1-0.7c0.2-0.6,0.8-1.1,1.4-1.1c1,0,1.4,0.8,1.4,2.2v4.7h2.4v-5.1c0-2.7-1.4-3.8-2.9-3.8
			c-0.6,0-1.2,0.2-1.7,0.5c-0.4,0.3-0.8,0.6-1.1,1.1h0c-0.4-0.9-1.2-1.5-2.4-1.5c-1.5,0-2.1,0.7-2.5,1.4h0v-1.2L35.8,47.1z"/>
		<path style="fill:#FFB71B;" d="M91.2,55.2c0.2,0,0.4,0.2,0.4,0.4c0,0.2-0.2,0.4-0.4,0.4c-0.2,0-0.4-0.2-0.4-0.4
			C90.8,55.4,91,55.2,91.2,55.2C91.2,55.2,91.2,55.2,91.2,55.2z M91.2,55.3c-0.2,0-0.3,0.2-0.3,0.3c0,0.2,0.1,0.3,0.3,0.3
			c0.2,0,0.3-0.1,0.3-0.3c0,0,0,0,0,0C91.5,55.5,91.4,55.3,91.2,55.3C91.2,55.3,91.2,55.3,91.2,55.3L91.2,55.3z M91.2,55.8
			L91.2,55.8l-0.1-0.4c0.1,0,0.1,0,0.2,0c0,0,0.1,0,0.1,0c0,0,0,0.1,0,0.1c0,0,0,0.1-0.1,0.1l0,0c0,0,0.1,0,0.1,0.1c0,0,0,0.1,0,0.1
			h-0.1c0,0,0-0.1,0-0.1c0,0,0-0.1-0.1-0.1h0V55.8z M91.2,55.6L91.2,55.6c0.1,0,0.1,0,0.1-0.1c0,0,0-0.1-0.1-0.1c0,0,0,0-0.1,0V55.6
			z"/>
	</g>
</g>
</svg>
