<?xml version="1.0" encoding="utf-8"?>
<!-- Generator: Adobe Illustrator 24.1.0, SVG Export Plug-In . SVG Version: 6.00 Build 0)  -->
<svg version="1.1" id="Layer_1" xmlns="http://www.w3.org/2000/svg" xmlns:xlink="http://www.w3.org/1999/xlink" x="0px" y="0px"
	 viewBox="0 0 467.9 62.7" style="enable-background:new 0 0 467.9 62.7;" xml:space="preserve">
<path d="M48.8,40.9L39.3,21c-0.3-0.7-1.2-0.7-1.6,0l-1.1,2.4l-1.7,3.7c-0.1,0.2-0.1,0.5,0,0.8L43,45l8.1,17c0.1,0.3,0.4,0.5,0.8,0.5
	h3.3h2.5c0.6,0,1.1-0.7,0.8-1.2L48.8,40.9z"/>
<path d="M31.7,5l-1.4-3c-0.1-0.2-0.2-0.4-0.4-0.5c-0.2-0.1-0.4-0.2-0.6-0.2s-0.4,0.1-0.6,0.2S28.4,1.8,28.3,2L13.9,32.3l-13.8,29
	c-0.3,0.6,0.2,1.2,0.8,1.2h2.5h3.3c0.3,0,0.6-0.2,0.8-0.5l12.7-26.8L33,8.4c0.1-0.2,0.1-0.5,0-0.7L31.7,5z"/>
<path d="M104,1.4h-2.6h-2.6c-0.5,0-0.9,0.4-0.9,0.9V32v29.7c0,0.5,0.4,0.9,0.9,0.9h2.6h2.6c0.5,0,0.9-0.4,0.9-0.9V32V2.3
	C104.9,1.8,104.5,1.4,104,1.4z"/>
<path d="M384.6,1.4H382h-2.6c-0.5,0-0.9,0.4-0.9,0.9V32v29.7c0,0.5,0.4,0.9,0.9,0.9h2.6h2.6c0.5,0,0.9-0.4,0.9-0.9V32V2.3
	C385.5,1.8,385.1,1.4,384.6,1.4z"/>
<path d="M309.8,1.4h-2.6h-2.6c-0.5,0-0.9,0.4-0.9,0.9V32v29.7c0,0.5,0.4,0.9,0.9,0.9h2.6h2.6c0.5,0,0.9-0.4,0.9-0.9v-2.6v-3.5V28.5
	V2.3C310.7,1.8,310.3,1.4,309.8,1.4z"/>
<path d="M338.3,55.6h-8.2h-8.2c-0.5,0-0.9,0.4-0.9,0.9v2.6v2.6c0,0.5,0.4,0.9,0.9,0.9h8.2h8.2c0.5,0,0.9-0.4,0.9-0.9v-2.6v-2.6
	C339.2,56,338.8,55.6,338.3,55.6z"/>
<path d="M462,7.3c-3.6-3.6-8.7-5.9-14.2-5.9h-11.5h-10.6c-0.5,0-0.9,0.4-0.9,0.9v10.6v10.6c0,0.5,0.4,0.9,0.9,0.9h2.6h2.6
	c0.5,0,0.9-0.4,0.9-0.9v-7.1V9.2c0-0.5,0.4-0.9,0.9-0.9h7.1h8c3.6,0,6.9,1.5,9.3,3.9s3.9,5.7,3.9,9.3s-1.5,6.9-3.9,9.3
	s-5.7,3.9-9.3,3.9H443h-4.8h-6.7h-5.8c-0.5,0-0.9,0.4-0.9,0.9v13v13c0,0.5,0.4,0.9,0.9,0.9h2.6h2.6c0.5,0,0.9-0.4,0.9-0.9V52v-9.6
	c0-0.5,0.4-0.9,0.9-0.9h7.1h8c5.5,0,10.6-2.3,14.2-5.9s5.9-8.7,5.9-14.2C467.9,16,465.7,11,462,7.3z"/>
<path d="M181.6,50.1l-6.1-11.6c-0.2-0.4,0-1,0.4-1.2c3.2-1.4,5.9-3.6,7.9-6.4c2.2-3.1,3.4-6.8,3.4-10.8c0-5.2-2.1-9.9-5.5-13.2
	c-3.4-3.4-8.1-5.5-13.2-5.5h-12.1h-11.3c-0.5,0-0.9,0.4-0.9,0.9V32v29.7c0,0.5,0.4,0.9,0.9,0.9h2.6h2.6c0.5,0,0.9-0.4,0.9-0.9V35.4
	V9.2c0-0.5,0.4-0.9,0.9-0.9h7.8h8.7c3.2,0,6.2,1.3,8.3,3.5s3.5,5.1,3.5,8.3s-1.3,6.2-3.5,8.4s-5.1,3.5-8.3,3.5h-3.5h-2.6
	c-0.5,0-0.9,0.4-0.9,0.9v2.6V38c0,0.5,0.4,0.9,0.9,0.9h2.2h2.6c0.3,0,0.6,0.2,0.8,0.5l6,11.4l6,11.4c0.1,0.3,0.4,0.5,0.8,0.5h3.4
	h2.5c0.6,0,1.1-0.7,0.8-1.3L181.6,50.1z"/>
<path d="M240.4,55.2c-1.5-0.5-3-1.2-4.5-2.1c-1.5-0.8-3-1.9-4.6-3.1c-0.4-0.3-1-0.2-1.2,0.2l-1.4,2.1l-1.5,2.2
	c-0.3,0.4-0.2,0.9,0.2,1.2c2.2,1.7,4.4,3.1,6.6,4.2c2,1,4,1.8,6,2.3c0.6,0.1,1.1-0.3,1.1-0.8V59v-2.9
	C241,55.7,240.8,55.4,240.4,55.2z"/>
<path d="M256.2,32.3c-2.3-1.5-4.7-2.7-7-3.8l-0.2-0.1l-0.2-0.1c-2.5-1.2-5.1-2.6-7.3-4.2c-2.2-1.7-3.9-3.6-4.8-6
	c-0.7-1.9-0.7-3.7-0.1-5.4c0.6-1.7,1.7-3.2,3.4-4.2c2.2-1.5,5.1-1.9,8.1-1.3c2.8,0.5,5.7,1.9,8.5,4c0.4,0.3,0.9,0.2,1.2-0.2l1.5-2
	l1.5-2.1c0.3-0.4,0.2-0.9-0.2-1.2c-4-3-8.3-4.9-12.4-5.4c-4.4-0.6-8.6,0.2-12.1,2.5c-3,1.9-5.1,4.7-6.1,7.8s-1,6.6,0.2,9.9
	c1.3,3.5,3.6,6.3,6.4,8.6c2.8,2.3,6,4,9.2,5.5l0.2,0.1l0.2,0.1c2,0.9,4,1.9,5.7,3s3.2,2.4,4.2,4c1,1.6,1.4,3.6,1.4,5.4
	c0,1.8-0.6,3.6-1.7,5c-0.6,0.8-1.4,1.5-2.2,2.1c-0.7,0.5-1.5,0.9-2.3,1.2c-0.3,0.1-0.6,0.4-0.6,0.8v3v2.5c0,0.6,0.5,1,1.1,0.8
	c1.7-0.5,3.4-1.2,4.9-2.1c1.8-1.1,3.4-2.5,4.6-4.2c1.9-2.5,2.9-5.6,3-8.8s-0.6-6.4-2.3-9.2C260.5,35.7,258.5,33.8,256.2,32.3z"/>
<path d="M76.2,1.2c-2.6,0-4.7,2.1-4.7,4.7s2.1,4.7,4.7,4.7s4.7-2.1,4.7-4.7C80.9,3.3,78.8,1.2,76.2,1.2z"/>
<path d="M357.3,1.2c-2.6,0-4.7,2.1-4.7,4.7s2.1,4.7,4.7,4.7s4.7-2.1,4.7-4.7C362,3.3,359.9,1.2,357.3,1.2z"/>
</svg>
